<?xml version="1.0" encoding="UTF-8" standalone="no"?><!-- Fixed up by svgfix.xsl 1.4  --><!-- Generated by Microsoft Visio, SVG Export CTR_EL0.svg ARM -->
<!DOCTYPE svg
  PUBLIC "-//W3C//DTD SVG 1.0//EN" "http://www.w3.org/TR/2001/REC-SVG-20010904/DTD/svg10.dtd">
<svg xmlns:xlink="http://www.w3.org/1999/xlink" xmlns="http://www.w3.org/2000/svg" xmlns:ev="http://www.w3.org/2001/xml-events" width="516.149" height="152.181" viewBox="0 0 387.112 114.136" xml:space="preserve" color-interpolation-filters="sRGB" class="st13" preserveAspectRatio="xMidYMid meet" zoomAndPan="magnify" version="1.1" contentScriptType="application/ecmascript" contentStyleType="text/css"><style type="text/css" xml:space="preserve"><![CDATA[
	
		.st1 {fill:#ccdfdb;stroke:none;stroke-linecap:round;stroke-linejoin:round;stroke-width:0.2px}
		.st2 {fill:#eed9b3;stroke:none;stroke-linecap:round;stroke-linejoin:round;stroke-width:0.2px}
		.st3 {fill:none;stroke:none;stroke-linecap:round;stroke-linejoin:round;stroke-width:0.2px}
		.st4 {fill:#000000;font-family:Arial,Helvetica,sans-serif;font-size:0.666664em}
		.st5 {fill:none;visibility:hidden}
		.st6 {stroke:#000000;stroke-linecap:butt;stroke-width:0.8px}
		.st7 {stroke:#000000;stroke-dasharray:0.25,0.5;stroke-linecap:butt;stroke-width:0.25px}
		.st8 {fill:none;stroke:none;stroke-linecap:butt;stroke-width:0.499999px}
		.st9 {fill:#000000;font-family:Arial,Helvetica,sans-serif;font-size:0.533318em}
		.st10 {font-size:1.25003em}
		.st11 {fill:#eed9b3;stroke:none;stroke-linecap:round;stroke-linejoin:round;stroke-width:0.2px}
		.st12 {stroke:#000000;stroke-linecap:butt;stroke-width:0.5px}
		.st13 {fill:none;fill-rule:evenodd;font-size:12px;overflow:visible;stroke-linecap:square;stroke-miterlimit:3}]]></style><g xmlns:v="http://schemas.microsoft.com/visio/2003/SVGExtensions/"><title>ARM</title><g id="shape29-1" transform="translate(12.1386,-62.8622)"><title>Rectangle Fill:Soapstone.120</title><rect x="0" y="85.7894" width="11.3386" height="28.3464" class="st1"/></g><g id="shape54-3" transform="translate(23.4772,-62.8622)"><title>Sheet.54</title><rect x="0" y="85.7894" width="21.8772" height="28.3465" class="st2"/></g><g id="shape1-5" transform="translate(329.619,-62.8622)"><title>Sheet.1</title><desc>IminLine</desc><rect x="0" y="85.7894" width="45.3543" height="28.3465" class="st3"/><text x="7.56" y="102.36" class="st4">IminLine</text></g><g id="shape3-8" transform="translate(12.1386,-91.2087)"><title>Sheet.3</title><desc>31</desc><text x="1.22" y="110.87" class="st4">31</text></g><g id="shape4-10" transform="translate(23.4772,-91.2087)"><title>Sheet.4</title><desc>30</desc><text x="1.22" y="110.87" class="st4">30</text></g><g id="shape5-12" transform="translate(46.1543,-91.2087)"><title>Sheet.5</title><desc>28</desc><text x="1.22" y="110.87" class="st4">28</text></g><g id="shape6-14" transform="translate(57.4929,-91.2087)"><title>Sheet.6</title><desc>27</desc><text x="1.22" y="110.87" class="st4">27</text></g><g id="shape7-16" transform="translate(91.5087,-91.2087)"><title>Sheet.7</title><desc>24</desc><text x="1.22" y="110.87" class="st4">24</text></g><g id="shape8-18" transform="translate(102.847,-91.2087)"><title>Sheet.8</title><desc>23</desc><text x="1.22" y="110.87" class="st4">23</text></g><g id="shape9-20" transform="translate(136.863,-91.2087)"><title>Sheet.9</title><desc>20</desc><text x="1.22" y="110.87" class="st4">20</text></g><g id="shape10-22" transform="translate(148.202,-91.2087)"><title>Sheet.10</title><desc>19</desc><text x="1.22" y="110.87" class="st4">19</text></g><g id="shape11-24" transform="translate(182.217,-91.2087)"><title>Sheet.11</title><desc>16</desc><text x="1.22" y="110.87" class="st4">16</text></g><g id="shape12-26" transform="translate(193.556,-91.2087)"><title>Sheet.12</title><desc>15</desc><text x="1.22" y="110.87" class="st4">15</text></g><g id="shape13-28" transform="translate(204.894,-91.2087)"><title>Sheet.13</title><desc>14</desc><text x="1.22" y="110.87" class="st4">14</text></g><g id="shape14-30" transform="translate(216.233,-91.2087)"><title>Sheet.14</title><desc>13</desc><text x="1.22" y="110.87" class="st4">13</text></g><g id="shape15-32" transform="translate(318.28,-91.2087)"><title>Sheet.15</title><desc>4</desc><text x="3.44" y="110.87" class="st4">4</text></g><g id="shape16-34" transform="translate(329.619,-91.2087)"><title>Sheet.16</title><desc>3</desc><text x="3.44" y="110.87" class="st4">3</text></g><g id="shape17-36" transform="translate(363.635,-91.2087)"><title>Sheet.17</title><desc>0</desc><text x="3.44" y="110.87" class="st4">0</text></g><g id="shape21-38" transform="translate(57.4929,-62.8622)"><title>Sheet.21</title><desc>CWG</desc><rect x="0" y="85.7894" width="45.3543" height="28.3465" class="st3"/><text x="12.9" y="102.36" class="st4">CWG</text></g><g id="shape22-41" transform="translate(102.847,-62.8622)"><title>Sheet.22</title><desc>ERG</desc><rect x="0" y="85.7894" width="45.3543" height="28.3465" class="st3"/><text x="14.01" y="102.36" class="st4">ERG</text></g><g id="shape23-44" transform="translate(148.202,-62.8622)"><title>Sheet.23</title><desc>DminLine</desc><rect x="0" y="85.7894" width="45.3543" height="28.3465" class="st3"/><text x="5.78" y="102.36" class="st4">DminLine</text></g><g id="shape24-47" transform="translate(193.556,-62.8622)"><title>Sheet.24</title><desc>L1Ip</desc><rect x="0" y="85.7894" width="22.6772" height="28.3465" class="st3"/><text x="3.55" y="102.36" class="st4">L1Ip</text></g><g id="shape34-50" transform="translate(216.233,-62.8622)"><title>Sheet.34</title><rect x="0" y="85.7894" width="113.386" height="28.3465" class="st2"/></g><g id="shape35-52" transform="translate(12.1386,-62.8622)"><title>Sheet.35</title><rect x="0" y="85.7894" width="362.835" height="28.3465" class="st5"/><rect x="0" y="85.7894" width="362.835" height="28.3465" class="st6"/></g><g id="shape37-55" transform="translate(57.4929,-62.8622)"><title>Sheet.37</title><path d="M0 85.79 L0 114.14" class="st6"/></g><g id="shape38-58" transform="translate(102.847,-62.8622)"><title>Sheet.38</title><path d="M0 85.79 L0 114.14" class="st6"/></g><g id="shape39-61" transform="translate(148.202,-62.8622)"><title>Sheet.39</title><path d="M0 85.79 L0 114.14" class="st6"/></g><g id="shape40-64" transform="translate(193.556,-62.8622)"><title>Sheet.40</title><path d="M0 85.79 L0 114.14" class="st6"/></g><g id="shape41-67" transform="translate(216.233,-62.8622)"><title>Sheet.41</title><path d="M0 85.79 L0 114.14" class="st6"/></g><g id="shape42-70" transform="translate(329.619,-62.8622)"><title>Sheet.42</title><path d="M0 85.79 L0 114.14" class="st6"/></g><g id="shape43-73" transform="translate(443.755,11.5886) rotate(90)"><title>Signal 0</title><path d="M0 114.14 L11.34 114.14" class="st7"/></g><g id="shape44-76" transform="translate(398.4,11.5886) rotate(90)"><title>Signal 0.102</title><path d="M0 114.14 L11.34 114.14" class="st7"/></g><g id="shape45-79" transform="translate(353.046,11.5886) rotate(90)"><title>Signal 0.103</title><path d="M0 114.14 L11.34 114.14" class="st7"/></g><g id="shape46-82" transform="translate(307.692,11.5886) rotate(90)"><title>Signal 0.104</title><path d="M0 114.14 L11.34 114.14" class="st7"/></g><g id="shape47-85" transform="translate(262.337,11.5886) rotate(90)"><title>Signal 0.105</title><path d="M0 114.14 L11.34 114.14" class="st7"/></g><g id="shape48-88" transform="translate(216.983,11.5886) rotate(90)"><title>Signal 0.106</title><path d="M0 114.14 L11.34 114.14" class="st7"/></g><g id="shape49-91" transform="translate(171.629,11.5886) rotate(90)"><title>Signal 0.107</title><path d="M0 114.14 L11.34 114.14" class="st7"/></g><g id="shape50-94" transform="translate(126.274,11.5886) rotate(90)"><title>Signal 0.108</title><path d="M0 114.14 L11.34 114.14" class="st7"/></g><g id="shape51-97" transform="translate(489.109,11.5886) rotate(90)"><title>Signal 0.109</title><path d="M0 114.14 L11.34 114.14" class="st7"/></g><g id="shape18-100" transform="translate(23.4772,-62.8622)"><title>Sheet.18</title><path d="M0 85.79 L0 114.14" class="st6"/></g><g id="group19-103" transform="translate(12.1386,-11.8386)"><title>Sheet.19</title><g id="shape20-104" transform="translate(11.3386,0)"><title>Rectangle No Fill No Fill.116</title><desc>res0</desc><rect x="0" y="102.797" width="22.6772" height="11.3386" class="st8"/><text x="3.07" y="110.87" class="st9">RES<tspan class="st10">0</tspan></text></g><g id="shape25-108"><title>Graphic.117</title><rect x="0" y="102.797" width="11.3386" height="11.3386" class="st11"/></g></g><g id="group26-110" transform="translate(12.1386,-25.9367)"><title>Sheet.26</title><g id="shape27-111" transform="translate(11.3386,0)"><title>Rectangle No Fill No Fill.119</title><desc>res1</desc><rect x="0" y="102.797" width="22.6772" height="11.3386" class="st8"/><text x="3.07" y="110.87" class="st9">RES<tspan class="st10">1</tspan></text></g><g id="shape28-115"><title>Rectangle Fill:Soapstone.120</title><rect x="0" y="102.797" width="11.3386" height="11.3386" class="st1"/></g></g><g id="shape59-117" transform="translate(34.2047,-91.2756)"><title>Sheet.59</title><desc>29</desc><text x="1.22" y="110.87" class="st4">29</text></g><g id="shape60-119" transform="translate(45.7323,-62.7402)"><title>Sheet.60</title><path d="M0 85.79 L0 114.14" class="st6"/></g><g id="shape61-122" transform="translate(62.7402,-53.6693) scale(-1,1)"><title>Bit name 2</title><desc>IDC</desc><path d="M11.34 108.47 L11.34 114.14 L0 114.14" class="st12"/><text x="1" y="116.54" transform="scale(-1,1)" class="st4">IDC</text></g></g></svg>