<?xml version="1.0" encoding="UTF-8" standalone="no"?><!-- Fixed up by svgfix.xsl 1.4  --><!-- Generated by Microsoft Visio 11.0, SVG Export, v1.0 cpacr_el1_bit_assignments_Source.svg ARM -->
<!DOCTYPE svg
  PUBLIC "-//W3C//DTD SVG 1.0//EN" "http://www.w3.org/TR/2001/REC-SVG-20010904/DTD/svg10.dtd">
<svg xmlns:xlink="http://www.w3.org/1999/xlink" xmlns="http://www.w3.org/2000/svg" xmlns:ev="http://www.w3.org/2001/xml-events" width="516.149" height="137.063" viewBox="0 0 387.112 102.797" xml:space="preserve" color-interpolation-filters="sRGB" class="st11" preserveAspectRatio="xMidYMid meet" zoomAndPan="magnify" version="1.0" contentScriptType="text/ecmascript" contentStyleType="text/css"><style type="text/css" xml:space="preserve"><![CDATA[
	
		.st1 {fill:#eed9b3;stroke:none;stroke-linecap:round;stroke-linejoin:round;stroke-width:0.2px}
		.st2 {stroke:#000000;stroke-linecap:butt;stroke-width:0.8px}
		.st3 {stroke:#000000;stroke-dasharray:0.25,0.5;stroke-linecap:butt;stroke-width:0.25px}
		.st4 {fill:#000000;font-family:Arial,Helvetica,sans-serif;font-size:0.666664em}
		.st5 {stroke:#000000;stroke-linecap:butt;stroke-width:0.5px}
		.st6 {fill:none;stroke:none;stroke-linecap:butt;stroke-width:0.5px}
		.st7 {fill:none;stroke:none;stroke-linecap:butt;stroke-width:0.499999px}
		.st8 {fill:#000000;font-family:Arial,Helvetica,sans-serif;font-size:0.533318em}
		.st9 {font-size:1.25003em}
		.st10 {fill:#eed9b3;stroke:none;stroke-linecap:round;stroke-linejoin:round;stroke-width:0.2px}
		.st11 {fill:none;fill-rule:evenodd;font-size:12px;overflow:visible;stroke-linecap:square;stroke-miterlimit:3}]]></style><g xmlns:v="http://schemas.microsoft.com/visio/2003/SVGExtensions/"><title content="structured text">ARM</title><g id="shape40-1" transform="translate(12.1386,-51.5236)"><title content="structured text">64-bit register.40</title><rect x="0" y="74.4508" width="34.0157" height="28.3465" class="st1"/></g><g id="shape21-3" transform="translate(148.202,-51.5236)"><title content="structured text">64-bit register.147</title><rect x="0" y="74.4508" width="226.772" height="28.3465" class="st1"/></g><g id="shape33-5" transform="translate(57.4929,-51.5236)"><title content="structured text">64-bit register.33</title><rect x="0" y="74.4508" width="68.0315" height="28.3465" class="st1"/></g><g id="shape1-7" transform="translate(374.973,-51.5236) scale(-1,1)"><title content="structured text">64-bit register.156</title><path d="M0 74.45 L362.83 74.45 L362.83 102.8 L0 102.8" class="st2"/></g><g id="shape2-10" transform="translate(114.936,11.5886) rotate(90)"><title content="structured text">64-bit register.169</title><path d="M0 102.8 L11.34 102.8" class="st3"/></g><g id="shape3-13" transform="translate(374.973,-51.5236)"><title content="structured text">64-bit register.157</title><path d="M0 74.45 L0 102.8" class="st2"/></g><g id="shape4-16" transform="translate(160.29,11.5886) rotate(90)"><title content="structured text">64-bit register.11</title><path d="M0 102.8 L11.34 102.8" class="st3"/></g><g id="shape5-19" transform="translate(205.644,11.5886) rotate(90)"><title content="structured text">64-bit register.12</title><path d="M0 102.8 L11.34 102.8" class="st3"/></g><g id="shape6-22" transform="translate(250.999,11.5886) rotate(90)"><title content="structured text">64-bit register.13</title><path d="M0 102.8 L11.34 102.8" class="st3"/></g><g id="shape7-25" transform="translate(296.353,11.5886) rotate(90)"><title content="structured text">64-bit register.14</title><path d="M0 102.8 L11.34 102.8" class="st3"/></g><g id="shape8-28" transform="translate(341.707,11.5886) rotate(90)"><title content="structured text">64-bit register.15</title><path d="M0 102.8 L11.34 102.8" class="st3"/></g><g id="shape9-31" transform="translate(432.416,11.5886) rotate(90)"><title content="structured text">64-bit register.16</title><path d="M0 102.8 L11.34 102.8" class="st3"/></g><g id="shape10-34" transform="translate(477.77,11.5886) rotate(90)"><title content="structured text">64-bit register.17</title><path d="M0 102.8 L11.34 102.8" class="st3"/></g><g id="shape11-37" transform="translate(12.1386,-79.8701)"><title content="structured text">64-bit register.179</title><desc content="structured text">31</desc><text x="1.22" y="99.53" class="st4">31</text></g><g id="shape12-39" transform="translate(363.635,-79.8701)"><title content="structured text">64-bit register.19</title><desc content="structured text">0</desc><text x="3.44" y="99.53" class="st4">0</text></g><g id="shape13-41" transform="translate(387.062,11.5886) rotate(90)"><title content="structured text">64-bit register.21</title><path d="M0 102.8 L11.34 102.8" class="st3"/></g><g id="shape19-44" transform="translate(148.202,-51.5236)"><title content="structured text">64-bit register.27</title><path d="M0 74.45 L0 102.8" class="st2"/></g><g id="shape20-47" transform="translate(125.524,-51.5236)"><title content="structured text">64-bit register.28</title><path d="M0 74.45 L0 102.8" class="st2"/></g><g id="shape22-50" transform="translate(136.863,-43.0197)"><title content="structured text">Sheet.22</title><path d="M0 97.13 L0 102.8 L11.34 102.8" class="st5"/></g><g id="shape23-53" transform="translate(148.202,-37.3504)"><title content="structured text">Sheet.23</title><desc content="structured text">FPEN</desc><rect x="0" y="91.4587" width="25.5118" height="11.3386" class="st6"/><text x="2" y="99.53" class="st4">FPEN</text></g><g id="shape26-56" transform="translate(148.202,-79.8701)"><title content="structured text">64-bit register.211</title><desc content="structured text">19</desc><text x="1.22" y="99.53" class="st4">19</text></g><g id="shape29-58" transform="translate(136.863,-79.8701)"><title content="structured text">64-bit register.143</title><desc content="structured text">20</desc><text x="1.22" y="99.53" class="st4">20</text></g><g id="shape30-60" transform="translate(125.524,-79.8701)"><title content="structured text">64-bit register.145</title><desc content="structured text">21</desc><text x="1.22" y="99.53" class="st4">21</text></g><g id="shape31-62" transform="translate(114.186,-79.8701)"><title content="structured text">64-bit register.146</title><desc content="structured text">22</desc><text x="1.22" y="99.53" class="st4">22</text></g><g id="group36-64" transform="translate(12.1386,-11.8386)"><title content="structured text">Sheet.36</title><g id="shape37-65" transform="translate(11.3386,1.42109E-014)"><title content="structured text">Rectangle No Fill No Fill.116</title><desc content="structured text">res0</desc><rect x="0" y="91.4587" width="22.6772" height="11.3386" class="st7"/><text x="3.07" y="99.53" class="st8">RES<tspan class="st9">0</tspan></text></g><g id="shape38-69"><title content="structured text">Graphic.117</title><rect x="0" y="91.4587" width="11.3386" height="11.3386" class="st10"/></g></g><g id="shape39-71" transform="translate(46.1543,-79.8701)"><title content="structured text">64-bit register.39</title><desc content="structured text">28</desc><text x="1.22" y="99.53" class="st4">28</text></g><g id="shape41-73" transform="translate(46.1543,-51.5236)"><title content="structured text">64-bit register.41</title><path d="M0 74.45 L0 102.8" class="st2"/></g><g id="shape42-76" transform="translate(57.4929,-51.5236)"><title content="structured text">64-bit register.42</title><path d="M0 74.45 L0 102.8" class="st2"/></g><g id="shape43-79" transform="translate(51.8236,-43.0197)"><title content="structured text">Sheet.43</title><path d="M0 97.13 L0 102.8 L11.34 102.8" class="st5"/></g><g id="shape44-82" transform="translate(63.1622,-37.3504)"><title content="structured text">Sheet.44</title><desc content="structured text">TTA</desc><rect x="0" y="91.4587" width="25.5118" height="11.3386" class="st6"/><text x="2" y="99.53" class="st4">TTA</text></g></g></svg>