<?xml version="1.0" encoding="UTF-8" standalone="no"?><!-- Fixed up by svgfix.xsl 1.4  -->
<!DOCTYPE svg
  PUBLIC "-//W3C//DTD SVG 1.0//EN" "http://www.w3.org/TR/2001/REC-SVG-20010904/DTD/svg10.dtd">
<svg xmlns:xlink="http://www.w3.org/1999/xlink" xmlns="http://www.w3.org/2000/svg" color-interpolation-filters="sRGB" height="134.173" width="491.339" xml:space="preserve" preserveAspectRatio="xMidYMid meet" zoomAndPan="magnify" version="1.0" contentScriptType="text/ecmascript" contentStyleType="text/css"><!--Created by CPG register generator--><title content="structured text">ACTLR_EL1_bit_assignments</title><style type="text/css" xml:space="preserve"><![CDATA[        .txtleft {fill:#000000;font-family:Arial,Helvetica,sans-serif;font-size:8pt;text-anchor:start}        .txtright {fill:#000000;font-family:Arial,Helvetica,sans-serif;font-size:8pt;text-anchor:end}        .smcaps {font-size:7pt}        .txtmid {fill:#000000;font-family:Arial,Helvetica,sans-serif;font-size:8pt;text-anchor:middle }        .regoutline {fill:none;stroke:#000000;stroke-linecap:butt;stroke-width:0.8px}        .elbow {fill:none;stroke:#000000;stroke-linecap:butt;stroke-width:0.5px}        .nbvert1 {stroke:#000000;stroke-dasharray:0.25,0.5;stroke-linecap:butt;stroke-width:0.25px}        .nbvert {stroke:#000000;stroke-dasharray:0.25,0.5;stroke-linecap:butt;stroke-width:0.5px}        .wibble {fill:none;stroke:#000000;stroke-linecap:butt;stroke-width:0.5px}        .wibbleback {fill:#ffffff;stroke:none;stroke-linecap:butt;stroke-width:0.5px}]]></style><g id="ACTLR_EL1"><g><rect class="regoutline" height="10mm" style="fill:#eed9b3" width="128mm" x="1mm" y="5mm"/><text class="txtmid" x="3.0mm" y="4mm">63</text><text class="txtmid" x="127.0mm" y="4mm">0</text><g><rect class="wibbleback" height="1.5mm" width="0.7mm" x="65.15mm" y="4.25mm"/><path class="wibble" d="M246.375 16.04375 C246.075 15.743749999999999 245.375 17.54375 245.375 18.04375  S246.275 19.74375 246.375 20.04375  S245.675 22.34375 245.375 22.04375 "/><path class="wibble" d="M249.0175 16.04375 C248.7175 15.743749999999999 248.0175 17.54375 248.0175 18.04375  S248.91750000000002 19.74375 249.0175 20.04375  S248.31750000000002 22.34375 248.0175 22.04375 "/><rect class="wibbleback" height="1.5mm" width="0.7mm" x="65.15mm" y="14.25mm"/><path class="wibble" d="M246.375 53.793749999999996 C246.075 53.49375 245.375 55.293749999999996 245.375 55.793749999999996  S246.275 57.49375 246.375 57.793749999999996  S245.675 60.09374999999999 245.375 59.793749999999996 "/><path class="wibble" d="M249.0175 53.793749999999996 C248.7175 53.49375 248.0175 55.293749999999996 248.0175 55.793749999999996  S248.91750000000002 57.49375 249.0175 57.793749999999996  S248.31750000000002 60.09374999999999 248.0175 59.793749999999996 "/></g></g></g><g/><g><rect height="4mm" style="fill:#eed9b3" width="4mm" x="1mm" y="20.5mm"/><text class="txtleft" x="6mm" y="23.5mm"><tspan class="smcaps">RES</tspan>0</text></g><!-- register = ['ACTLR_EL1', [(63, 0, 'RES0', 0)]]--></svg>