<?xml version="1.0" encoding="UTF-8" standalone="no"?><!-- Fixed up by svgfix.xsl 1.4  --><!-- Generated by Microsoft Visio 11.0, SVG Export, v1.0 id_afr0_bit_assignments_LowRes.svg ARM -->
<!DOCTYPE svg
  PUBLIC "-//W3C//DTD SVG 1.0//EN" "http://www.w3.org/TR/2001/REC-SVG-20010904/DTD/svg10.dtd">
<svg xmlns:xlink="http://www.w3.org/1999/xlink" xmlns="http://www.w3.org/2000/svg" xmlns:ev="http://www.w3.org/2001/xml-events" width="516.149" height="133.284" viewBox="0 0 387.112 99.963" xml:space="preserve" color-interpolation-filters="sRGB" class="st11" preserveAspectRatio="xMidYMid meet" zoomAndPan="magnify" version="1.0" contentScriptType="text/ecmascript" contentStyleType="text/css"><style type="text/css" xml:space="preserve"><![CDATA[
	
		.st1 {fill:#eed9b3;stroke:none;stroke-linecap:round;stroke-linejoin:round;stroke-width:0.2px}
		.st2 {fill:#ffffff;visibility:hidden}
		.st3 {stroke:#000000;stroke-linecap:butt;stroke-width:0.8px}
		.st4 {stroke:#000000;stroke-dasharray:0.25,1;stroke-linecap:butt;stroke-width:0.25px}
		.st5 {fill:#000000;font-family:Arial,Helvetica,sans-serif;font-size:0.666664em}
		.st6 {fill:#ffffff;stroke:none;stroke-linecap:butt;stroke-width:0.5px}
		.st7 {stroke:#000000;stroke-linecap:butt;stroke-width:0.5px}
		.st8 {fill:none;stroke:none;stroke-linecap:butt;stroke-width:0.499999px}
		.st9 {fill:#000000;font-family:Arial,Helvetica,sans-serif;font-size:0.533318em}
		.st10 {font-size:1.25003em}
		.st11 {fill:none;fill-rule:evenodd;font-size:12px;overflow:visible;stroke-linecap:square;stroke-miterlimit:3}]]></style><g xmlns:v="http://schemas.microsoft.com/visio/2003/SVGExtensions/"><title content="structured text">ARM</title><g id="shape76-1" transform="translate(12.1386,-48.689)"><title content="structured text">Graphic.8</title><rect x="0" y="71.6162" width="362.835" height="28.3464" class="st1"/></g><g id="shape57-3" transform="translate(12.1386,-48.689)"><title content="structured text">64-bit register</title><rect x="0" y="71.6161" width="362.835" height="28.3465" class="st2"/><rect x="0" y="71.6161" width="362.835" height="28.3465" class="st3"/></g><g id="shape58-6" transform="translate(474.936,11.5886) rotate(90)"><title content="structured text">Signal 0.109</title><path d="M0 99.96 L11.34 99.96" class="st4"/></g><g id="shape59-9" transform="translate(429.581,11.5886) rotate(90)"><title content="structured text">Signal 0.80</title><path d="M0 99.96 L11.34 99.96" class="st4"/></g><g id="shape60-12" transform="translate(384.227,11.5886) rotate(90)"><title content="structured text">Signal 0.81</title><path d="M0 99.96 L11.34 99.96" class="st4"/></g><g id="shape61-15" transform="translate(338.873,11.5886) rotate(90)"><title content="structured text">Signal 0.82</title><path d="M0 99.96 L11.34 99.96" class="st4"/></g><g id="shape62-18" transform="translate(293.519,11.5886) rotate(90)"><title content="structured text">Signal 0.83</title><path d="M0 99.96 L11.34 99.96" class="st4"/></g><g id="shape63-21" transform="translate(293.519,11.5886) rotate(90)"><title content="structured text">Signal 0.84</title><path d="M0 99.96 L11.34 99.96" class="st4"/></g><g id="shape64-24" transform="translate(248.164,11.5886) rotate(90)"><title content="structured text">Signal 0.85</title><path d="M0 99.96 L11.34 99.96" class="st4"/></g><g id="shape65-27" transform="translate(202.81,11.5886) rotate(90)"><title content="structured text">Signal 0.86</title><path d="M0 99.96 L11.34 99.96" class="st4"/></g><g id="shape66-30" transform="translate(248.164,11.5886) rotate(90)"><title content="structured text">Signal 0.87</title><path d="M0 99.96 L11.34 99.96" class="st4"/></g><g id="shape67-33" transform="translate(363.635,-77.0354)"><title content="structured text">Bit01.2</title><desc content="structured text">0</desc><text x="3.44" y="96.69" class="st5">0</text></g><g id="shape68-35" transform="translate(12.1386,-77.0354)"><title content="structured text">Bit01.88</title><desc content="structured text">31</desc><text x="1.22" y="96.69" class="st5">31</text></g><g id="shape69-37" transform="translate(429.581,11.5886) rotate(90)"><title content="structured text">Signal 0.91</title><path d="M0 99.96 L11.34 99.96" class="st4"/></g><g id="group80-40" transform="translate(192.139,-45.8543)"><title content="structured text">Sheet.80</title><g id="group81-41" transform="translate(0,-28.3465)"><title content="structured text">Sheet.81</title><g id="shape82-42" transform="translate(0.566929,2.84217E-014)"><title content="structured text">Sheet.82</title><rect x="0" y="94.2933" width="1.88976" height="5.66929" class="st6"/></g><g id="shape83-44" transform="translate(101.031,110.659) rotate(99.4623)"><title content="structured text">Sheet.83</title><path d="M0 99.55 C0.15 99.76 0.72 99.93 1.15 99.96 C1.58 99.99 1.86 99.88 2.34 99.64 C2.63 99.5 2.98 99.32 3.29          99.2 C4.56 98.7 5.03 99.25 5.75 99.55" class="st7"/></g><g id="shape84-47" transform="translate(99.1417,110.659) rotate(99.4623)"><title content="structured text">Sheet.84</title><path d="M0 99.55 C0.15 99.76 0.72 99.93 1.15 99.96 C1.58 99.99 1.86 99.88 2.34 99.64 C2.63 99.5 2.98 99.32 3.29          99.2 C4.56 98.7 5.03 99.25 5.75 99.55" class="st7"/></g></g><g id="group85-50"><title content="structured text">Sheet.85</title><g id="shape86-51" transform="translate(0.566929,2.84217E-014)"><title content="structured text">Sheet.86</title><rect x="0" y="94.2933" width="1.88976" height="5.66929" class="st6"/></g><g id="shape87-53" transform="translate(101.031,110.659) rotate(99.4623)"><title content="structured text">Sheet.87</title><path d="M0 99.55 C0.15 99.76 0.72 99.93 1.15 99.96 C1.58 99.99 1.86 99.88 2.34 99.64 C2.63 99.5 2.98 99.32 3.29          99.2 C4.56 98.7 5.03 99.25 5.75 99.55" class="st7"/></g><g id="shape88-56" transform="translate(99.1417,110.659) rotate(99.4623)"><title content="structured text">Sheet.88</title><path d="M0 99.55 C0.15 99.76 0.72 99.93 1.15 99.96 C1.58 99.99 1.86 99.88 2.34 99.64 C2.63 99.5 2.98 99.32 3.29          99.2 C4.56 98.7 5.03 99.25 5.75 99.55" class="st7"/></g></g></g><g id="shape56-59" transform="translate(384.227,11.5886) rotate(90)"><title content="structured text">Signal 0.56</title><path d="M0 99.96 L11.34 99.96" class="st4"/></g><g id="shape70-62" transform="translate(338.873,11.5886) rotate(90)"><title content="structured text">Signal 0.70</title><path d="M0 99.96 L11.34 99.96" class="st4"/></g><g id="shape95-65" transform="translate(202.81,11.5886) rotate(90)"><title content="structured text">Signal 0.95</title><path d="M0 99.96 L11.34 99.96" class="st4"/></g><g id="shape96-68" transform="translate(157.456,11.5886) rotate(90)"><title content="structured text">Signal 0.96</title><path d="M0 99.96 L11.34 99.96" class="st4"/></g><g id="shape97-71" transform="translate(157.456,11.5886) rotate(90)"><title content="structured text">Signal 0.97</title><path d="M0 99.96 L11.34 99.96" class="st4"/></g><g id="shape98-74" transform="translate(112.101,11.5886) rotate(90)"><title content="structured text">Signal 0.98</title><path d="M0 99.96 L11.34 99.96" class="st4"/></g><g id="shape99-77" transform="translate(112.101,11.5886) rotate(90)"><title content="structured text">Signal 0.99</title><path d="M0 99.96 L11.34 99.96" class="st4"/></g><g id="group77-80" transform="translate(12.1386,-11.8386)"><title content="structured text">Sheet.77</title><g id="shape78-81" transform="translate(11.3386,0)"><title content="structured text">Rectangle No Fill No Fill.116</title><desc content="structured text">res0</desc><rect x="0" y="88.624" width="22.6772" height="11.3386" class="st8"/><text x="3.07" y="96.69" class="st9">RES<tspan class="st10">0</tspan></text></g><g id="shape79-85"><title content="structured text">Graphic.117</title><rect x="0" y="88.624" width="11.3386" height="11.3386" class="st1"/></g></g></g></svg>