<?xml version="1.0" encoding="UTF-8" standalone="no"?><!-- Fixed up by svgfix.xsl 1.4  --><!-- Generated by Microsoft Visio 11.0, SVG Export, v1.0 trccntctlr1_bit_assignments.svg ARM -->
<!DOCTYPE svg
  PUBLIC "-//W3C//DTD SVG 1.0//EN" "http://www.w3.org/TR/2001/REC-SVG-20010904/DTD/svg10.dtd">
<svg xmlns:xlink="http://www.w3.org/1999/xlink" xmlns="http://www.w3.org/2000/svg" xmlns:ev="http://www.w3.org/2001/xml-events" width="516.149" height="133.284" viewBox="0 0 387.112 99.963" xml:space="preserve" color-interpolation-filters="sRGB" class="st13" preserveAspectRatio="xMidYMid meet" zoomAndPan="magnify" version="1.0" contentScriptType="text/ecmascript" contentStyleType="text/css"><style type="text/css" xml:space="preserve"><![CDATA[
	
		.st1 {fill:#ffffff;stroke:none;stroke-linecap:round;stroke-linejoin:round;stroke-width:0.2px}
		.st2 {fill:#eed9b3;stroke:none;stroke-linecap:round;stroke-linejoin:round;stroke-width:0.2px}
		.st3 {fill:#000000;font-family:Arial,Helvetica,sans-serif;font-size:0.666664em}
		.st4 {fill:#ffffff;visibility:hidden}
		.st5 {stroke:#000000;stroke-linecap:butt;stroke-width:0.8px}
		.st6 {stroke:#000000;stroke-dasharray:0.25,1;stroke-linecap:butt;stroke-width:0.25px}
		.st7 {stroke:#000000;stroke-linecap:butt;stroke-width:0.5px}
		.st8 {fill:none;stroke:none;stroke-linecap:butt;stroke-width:0.5px}
		.st9 {fill:none;stroke:none;stroke-linecap:butt;stroke-width:0.499999px}
		.st10 {fill:#000000;font-family:Arial,Helvetica,sans-serif;font-size:0.533318em}
		.st11 {font-size:1.25003em}
		.st12 {fill:#eed9b3;stroke:none;stroke-linecap:round;stroke-linejoin:round;stroke-width:0.2px}
		.st13 {fill:none;fill-rule:evenodd;font-size:12px;overflow:visible;stroke-linecap:square;stroke-miterlimit:3}]]></style><g xmlns:v="http://schemas.microsoft.com/visio/2003/SVGExtensions/"><title content="structured text">ARM</title><g id="shape1-1" transform="translate(170.879,-48.689)"><title content="structured text">Sheet.1</title><rect x="0" y="71.6161" width="11.3386" height="28.3465" class="st1"/></g><g id="shape2-3" transform="translate(182.217,-48.689)"><title content="structured text">Sheet.2</title><rect x="0" y="71.6161" width="11.3386" height="28.3465" class="st1"/></g><g id="shape3-5" transform="translate(12.1386,-48.689)"><title content="structured text">Sheet.3</title><rect x="0" y="71.6161" width="158.74" height="28.3465" class="st2"/></g><g id="shape4-7" transform="translate(12.1386,-77.0354)"><title content="structured text">Sheet.4</title><desc content="structured text">31</desc><text x="1.22" y="96.69" class="st3">31</text></g><g id="shape5-9" transform="translate(182.217,-77.0354)"><title content="structured text">Sheet.5</title><desc content="structured text">16</desc><text x="1.22" y="96.69" class="st3">16</text></g><g id="shape6-11" transform="translate(193.556,-77.0354)"><title content="structured text">Sheet.6</title><desc content="structured text">15</desc><text x="1.22" y="96.69" class="st3">15</text></g><g id="shape7-13" transform="translate(204.894,-77.0354)"><title content="structured text">Sheet.7</title><desc content="structured text">14</desc><text x="1.22" y="96.69" class="st3">14</text></g><g id="shape8-15" transform="translate(227.572,-77.0354)"><title content="structured text">Sheet.8</title><desc content="structured text">12</desc><text x="1.22" y="96.69" class="st3">12</text></g><g id="shape9-17" transform="translate(238.91,-77.0354)"><title content="structured text">Sheet.9</title><desc content="structured text">11</desc><text x="1.22" y="96.69" class="st3">11</text></g><g id="shape10-19" transform="translate(272.926,-77.0354)"><title content="structured text">Sheet.10</title><desc content="structured text">8</desc><text x="3.44" y="96.69" class="st3">8</text></g><g id="shape11-21" transform="translate(284.265,-77.0354)"><title content="structured text">Sheet.11</title><desc content="structured text">7</desc><text x="3.44" y="96.69" class="st3">7</text></g><g id="shape12-23" transform="translate(295.603,-77.0354)"><title content="structured text">Sheet.12</title><desc content="structured text">6</desc><text x="3.44" y="96.69" class="st3">6</text></g><g id="shape13-25" transform="translate(318.28,-77.0354)"><title content="structured text">Sheet.13</title><desc content="structured text">4</desc><text x="3.44" y="96.69" class="st3">4</text></g><g id="shape14-27" transform="translate(329.619,-77.0354)"><title content="structured text">Sheet.14</title><desc content="structured text">3</desc><text x="3.44" y="96.69" class="st3">3</text></g><g id="shape15-29" transform="translate(363.635,-77.0354)"><title content="structured text">Sheet.15</title><desc content="structured text">0</desc><text x="3.44" y="96.69" class="st3">0</text></g><g id="shape16-31" transform="translate(193.556,-48.689)"><title content="structured text">Sheet.16</title><rect x="0" y="71.6161" width="11.3386" height="28.3465" class="st1"/></g><g id="shape17-33" transform="translate(204.894,-48.689)"><title content="structured text">Sheet.17</title><rect x="0" y="71.6161" width="34.0157" height="28.3465" class="st2"/></g><g id="shape18-35" transform="translate(238.91,-48.689)"><title content="structured text">Sheet.18</title><desc content="structured text">RLDSEL</desc><rect x="0" y="71.6161" width="45.3543" height="28.3465" class="st1"/><text x="7.11" y="88.19" class="st3">RLDSEL</text></g><g id="shape19-38" transform="translate(284.265,-48.689)"><title content="structured text">Sheet.19</title><rect x="0" y="71.6161" width="11.3386" height="28.3465" class="st1"/></g><g id="shape20-40" transform="translate(295.603,-48.689)"><title content="structured text">Sheet.20</title><rect x="0" y="71.6161" width="34.0157" height="28.3465" class="st2"/></g><g id="shape21-42" transform="translate(329.619,-48.689)"><title content="structured text">Sheet.21</title><desc content="structured text">CNTSEL</desc><rect x="0" y="71.6161" width="45.3543" height="28.3465" class="st1"/><text x="6.9" y="88.19" class="st3">CNTSEL</text></g><g id="shape22-45" transform="translate(12.1386,-48.689)"><title content="structured text">Sheet.22</title><rect x="0" y="71.6161" width="362.835" height="28.3465" class="st4"/><rect x="0" y="71.6161" width="362.835" height="28.3465" class="st5"/></g><g id="shape23-48" transform="translate(193.556,-48.689)"><title content="structured text">Sheet.23</title><path d="M0 71.62 L0 99.96" class="st5"/></g><g id="shape24-51" transform="translate(204.894,-48.689)"><title content="structured text">Sheet.24</title><path d="M0 71.62 L0 99.96" class="st5"/></g><g id="shape25-54" transform="translate(238.91,-48.689)"><title content="structured text">Sheet.25</title><path d="M0 71.62 L0 99.96" class="st5"/></g><g id="shape26-57" transform="translate(284.265,-48.689)"><title content="structured text">Sheet.26</title><path d="M0 71.62 L0 99.96" class="st5"/></g><g id="shape27-60" transform="translate(295.603,-48.689)"><title content="structured text">Sheet.27</title><path d="M0 71.62 L0 99.96" class="st5"/></g><g id="shape28-63" transform="translate(329.619,-48.689)"><title content="structured text">Sheet.28</title><path d="M0 71.62 L0 99.96" class="st5"/></g><g id="shape29-66" transform="translate(429.581,11.5886) rotate(90)"><title content="structured text">Signal 0</title><path d="M0 99.96 L11.34 99.96" class="st6"/></g><g id="shape30-69" transform="translate(384.227,11.5886) rotate(90)"><title content="structured text">Signal 0.102</title><path d="M0 99.96 L11.34 99.96" class="st6"/></g><g id="shape31-72" transform="translate(338.873,11.5886) rotate(90)"><title content="structured text">Signal 0.103</title><path d="M0 99.96 L11.34 99.96" class="st6"/></g><g id="shape32-75" transform="translate(293.519,11.5886) rotate(90)"><title content="structured text">Signal 0.104</title><path d="M0 99.96 L11.34 99.96" class="st6"/></g><g id="shape33-78" transform="translate(248.164,11.5886) rotate(90)"><title content="structured text">Signal 0.105</title><path d="M0 99.96 L11.34 99.96" class="st6"/></g><g id="shape34-81" transform="translate(202.81,11.5886) rotate(90)"><title content="structured text">Signal 0.106</title><path d="M0 99.96 L11.34 99.96" class="st6"/></g><g id="shape35-84" transform="translate(157.456,11.5886) rotate(90)"><title content="structured text">Signal 0.107</title><path d="M0 99.96 L11.34 99.96" class="st6"/></g><g id="shape36-87" transform="translate(112.101,11.5886) rotate(90)"><title content="structured text">Signal 0.108</title><path d="M0 99.96 L11.34 99.96" class="st6"/></g><g id="shape37-90" transform="translate(474.936,11.5886) rotate(90)"><title content="structured text">Signal 0.109</title><path d="M0 99.96 L11.34 99.96" class="st6"/></g><g id="shape38-93" transform="translate(165.209,-40.185)"><title content="structured text">Signal 0.1</title><path d="M0 99.96 L11.34 99.96" class="st7"/></g><g id="shape39-96" transform="translate(87.924,71.1161) rotate(-90)"><title content="structured text">Signal 0.2</title><path d="M0 99.96 L17.01 99.96" class="st7"/></g><g id="shape40-99" transform="translate(117.981,-23.1772)"><title content="structured text">Sheet.40</title><desc content="structured text">RLDSELF</desc><rect x="0" y="88.624" width="47.2283" height="11.3386" class="st8"/><text x="10.22" y="96.69" class="st3">RLDSELF</text></g><g id="shape41-102" transform="translate(278.595,-40.185)"><title content="structured text">Signal 0.6</title><path d="M0 99.96 L11.34 99.96" class="st7"/></g><g id="shape42-105" transform="translate(189.971,59.7776) rotate(-90)"><title content="structured text">Signal 0.7</title><path d="M0 99.96 L5.67 99.96" class="st7"/></g><g id="shape43-108" transform="translate(231.367,-34.5157)"><title content="structured text">Sheet.43</title><desc content="structured text">CNTTYPE</desc><rect x="0" y="88.624" width="47.2283" height="11.3386" class="st8"/><text x="8.89" y="96.69" class="st3">CNTTYPE</text></g><g id="shape44-111" transform="translate(170.879,-77.0354)"><title content="structured text">Sheet.44</title><desc content="structured text">17</desc><text x="1.22" y="96.69" class="st3">17</text></g><g id="shape45-113" transform="translate(182.217,-48.689)"><title content="structured text">Sheet.45</title><path d="M0 71.62 L0 99.96" class="st5"/></g><g id="shape46-116" transform="translate(76.5854,59.7776) rotate(-90)"><title content="structured text">Signal 0.110</title><path d="M0 99.96 L5.67 99.96" class="st7"/></g><g id="shape48-119" transform="translate(165.209,-28.8465)"><title content="structured text">Signal 0.112</title><path d="M0 99.96 L22.68 99.96" class="st7"/></g><g id="shape49-122" transform="translate(159.54,-77.0354)"><title content="structured text">Sheet.49</title><desc content="structured text">18</desc><text x="1.22" y="96.69" class="st3">18</text></g><g id="shape50-124" transform="translate(170.879,-48.689)"><title content="structured text">Sheet.50</title><path d="M0 71.62 L0 99.96" class="st5"/></g><g id="shape53-127" transform="translate(117.981,-34.5157)"><title content="structured text">Sheet.53</title><desc content="structured text">CNTCHAIN</desc><rect x="0" y="88.624" width="47.2283" height="11.3386" class="st8"/><text x="4.9" y="96.69" class="st3">CNTCHAIN</text></g><g id="shape54-130" transform="translate(12.1386,-48.689)"><title content="structured text">Sheet.54</title><rect x="0" y="71.6161" width="362.835" height="28.3465" class="st4"/><rect x="0" y="71.6161" width="362.835" height="28.3465" class="st5"/></g><g id="shape58-133" transform="translate(12.1386,-48.689)"><title content="structured text">Sheet.58</title><rect x="0" y="71.6161" width="362.835" height="28.3465" class="st4"/><rect x="0" y="71.6161" width="362.835" height="28.3465" class="st5"/></g><g id="shape59-136" transform="translate(117.981,-11.8386)"><title content="structured text">Sheet.59</title><desc content="structured text">RLDTYPE</desc><rect x="0" y="88.624" width="47.2283" height="11.3386" class="st8"/><text x="9.33" y="96.69" class="st3">RLDTYPE</text></g><g id="shape60-139" transform="translate(165.209,-17.5079)"><title content="structured text">Signal 0.125</title><path d="M0 99.96 L34.02 99.96" class="st7"/></g><g id="shape61-142" transform="translate(99.2626,82.4547) rotate(-90)"><title content="structured text">Signal 0.126</title><path d="M0 99.96 L28.35 99.96" class="st7"/></g><g id="shape62-145" transform="translate(22.5786,-26.0118)"><title content="structured text">Rectangle No Fill No Fill.116</title><desc content="structured text">res0</desc><rect x="0" y="88.624" width="19.8425" height="11.3386" class="st9"/><text x="1.24" y="96.69" class="st10">RES<tspan class="st11">0</tspan></text></g><g id="shape63-149" transform="translate(12.1386,-26.0118)"><title content="structured text">Graphic.117</title><rect x="0" y="88.624" width="10.44" height="11.3386" class="st12"/></g></g></svg>