<?xml version="1.0" encoding="UTF-8" standalone="no"?><!-- Fixed up by svgfix.xsl 1.4  --><!-- Generated by Microsoft Visio 11.0, SVG Export, v1.0 trcpdsr_bit_assignments.svg ARM -->
<!DOCTYPE svg
  PUBLIC "-//W3C//DTD SVG 1.0//EN" "http://www.w3.org/TR/2001/REC-SVG-20010904/DTD/svg10.dtd">
<svg xmlns:xlink="http://www.w3.org/1999/xlink" xmlns="http://www.w3.org/2000/svg" xmlns:ev="http://www.w3.org/2001/xml-events" width="516.149" height="133.284" viewBox="0 0 387.112 99.963" xml:space="preserve" color-interpolation-filters="sRGB" class="st13" preserveAspectRatio="xMidYMid meet" zoomAndPan="magnify" version="1.0" contentScriptType="text/ecmascript" contentStyleType="text/css"><style type="text/css" xml:space="preserve"><![CDATA[
	
		.st1 {fill:#eed9b3;stroke:none;stroke-linecap:round;stroke-linejoin:round;stroke-width:0.2px}
		.st2 {fill:#ffffff;stroke:none;stroke-linecap:round;stroke-linejoin:round;stroke-width:0.2px}
		.st3 {fill:#000000;font-family:Arial,Helvetica,sans-serif;font-size:0.666664em}
		.st4 {fill:#ffffff;visibility:hidden}
		.st5 {stroke:#000000;stroke-linecap:butt;stroke-width:0.8px}
		.st6 {stroke:#000000;stroke-dasharray:0.25,1;stroke-linecap:butt;stroke-width:0.25px}
		.st7 {stroke:#000000;stroke-linecap:butt;stroke-width:0.5px}
		.st8 {fill:none;stroke:none;stroke-linecap:butt;stroke-width:0.5px}
		.st9 {fill:none;stroke:none;stroke-linecap:butt;stroke-width:0.499999px}
		.st10 {fill:#000000;font-family:Arial,Helvetica,sans-serif;font-size:0.533318em}
		.st11 {font-size:1.25003em}
		.st12 {fill:#eed9b3;stroke:none;stroke-linecap:round;stroke-linejoin:round;stroke-width:0.2px}
		.st13 {fill:none;fill-rule:evenodd;font-size:12px;overflow:visible;stroke-linecap:square;stroke-miterlimit:3}]]></style><g xmlns:v="http://schemas.microsoft.com/visio/2003/SVGExtensions/"><title content="structured text">ARM</title><g id="shape39-1" transform="translate(318.28,-48.689)"><title content="structured text">Sheet.39</title><rect x="0" y="71.6161" width="34.0157" height="28.3465" class="st1"/></g><g id="shape1-3" transform="translate(363.635,-48.689)"><title content="structured text">Sheet.1</title><rect x="0" y="71.6161" width="11.3386" height="28.3465" class="st2"/></g><g id="shape2-5" transform="translate(12.1386,-48.689)"><title content="structured text">Sheet.2</title><rect x="0" y="71.6161" width="294.803" height="28.3465" class="st1"/></g><g id="shape3-7" transform="translate(12.1386,-77.0354)"><title content="structured text">Sheet.3</title><desc content="structured text">31</desc><text x="1.22" y="96.69" class="st3">31</text></g><g id="shape4-9" transform="translate(295.603,-77.0354)"><title content="structured text">Sheet.4</title><desc content="structured text">6</desc><text x="3.44" y="96.69" class="st3">6</text></g><g id="shape5-11" transform="translate(306.942,-77.0354)"><title content="structured text">Sheet.5</title><desc content="structured text">5</desc><text x="3.44" y="96.69" class="st3">5</text></g><g id="shape6-13" transform="translate(318.28,-77.0354)"><title content="structured text">Sheet.6</title><desc content="structured text">4</desc><text x="3.44" y="96.69" class="st3">4</text></g><g id="shape7-15" transform="translate(340.957,-77.0354)"><title content="structured text">Sheet.7</title><desc content="structured text">2</desc><text x="3.44" y="96.69" class="st3">2</text></g><g id="shape8-17" transform="translate(352.296,-77.0354)"><title content="structured text">Sheet.8</title><desc content="structured text">1</desc><text x="3.44" y="96.69" class="st3">1</text></g><g id="shape9-19" transform="translate(363.635,-77.0354)"><title content="structured text">Sheet.9</title><desc content="structured text">0</desc><text x="3.44" y="96.69" class="st3">0</text></g><g id="shape10-21" transform="translate(306.942,-48.689)"><title content="structured text">Sheet.10</title><rect x="0" y="71.6161" width="11.3386" height="28.3465" class="st2"/></g><g id="shape12-23" transform="translate(352.296,-48.689)"><title content="structured text">Sheet.12</title><rect x="0" y="71.6161" width="11.3386" height="28.3465" class="st2"/></g><g id="shape13-25" transform="translate(12.1386,-48.689)"><title content="structured text">Sheet.13</title><rect x="0" y="71.6161" width="362.835" height="28.3465" class="st4"/><rect x="0" y="71.6161" width="362.835" height="28.3465" class="st5"/></g><g id="shape14-28" transform="translate(306.942,-48.689)"><title content="structured text">Sheet.14</title><path d="M0 71.62 L0 99.96" class="st5"/></g><g id="shape15-31" transform="translate(318.28,-48.689)"><title content="structured text">Sheet.15</title><path d="M0 71.62 L0 99.96" class="st5"/></g><g id="shape16-34" transform="translate(352.296,-48.689)"><title content="structured text">Sheet.16</title><path d="M0 71.62 L0 99.96" class="st5"/></g><g id="shape17-37" transform="translate(363.635,-48.689)"><title content="structured text">Sheet.17</title><path d="M0 71.62 L0 99.96" class="st5"/></g><g id="shape18-40" transform="translate(429.581,11.5886) rotate(90)"><title content="structured text">Signal 0</title><path d="M0 99.96 L11.34 99.96" class="st6"/></g><g id="shape19-43" transform="translate(384.227,11.5886) rotate(90)"><title content="structured text">Signal 0.102</title><path d="M0 99.96 L11.34 99.96" class="st6"/></g><g id="shape20-46" transform="translate(338.873,11.5886) rotate(90)"><title content="structured text">Signal 0.103</title><path d="M0 99.96 L11.34 99.96" class="st6"/></g><g id="shape21-49" transform="translate(293.519,11.5886) rotate(90)"><title content="structured text">Signal 0.104</title><path d="M0 99.96 L11.34 99.96" class="st6"/></g><g id="shape22-52" transform="translate(248.164,11.5886) rotate(90)"><title content="structured text">Signal 0.105</title><path d="M0 99.96 L11.34 99.96" class="st6"/></g><g id="shape23-55" transform="translate(202.81,11.5886) rotate(90)"><title content="structured text">Signal 0.106</title><path d="M0 99.96 L11.34 99.96" class="st6"/></g><g id="shape24-58" transform="translate(157.456,11.5886) rotate(90)"><title content="structured text">Sheet.24</title><path d="M0 99.96 L11.34 99.96" class="st6"/></g><g id="shape25-61" transform="translate(112.101,11.5886) rotate(90)"><title content="structured text">Sheet.25</title><path d="M0 99.96 L11.34 99.96" class="st6"/></g><g id="shape26-64" transform="translate(474.936,11.5886) rotate(90)"><title content="structured text">Signal 0.109</title><path d="M0 99.96 L11.34 99.96" class="st6"/></g><g id="shape27-67" transform="translate(412.574,54.1083) rotate(90)"><title content="structured text">Line 0.5 (0).1</title><path d="M0 99.96 L5.67 99.96" class="st7"/></g><g id="shape28-70" transform="translate(301.272,-40.185)"><title content="structured text">Signal 0.37</title><path d="M0 99.96 L11.34 99.96" class="st7"/></g><g id="shape29-73" transform="translate(264.422,-34.5157)"><title content="structured text">Sheet.29</title><desc content="structured text">OSLK</desc><rect x="0" y="88.624" width="36.8504" height="11.3386" class="st8"/><text x="14.51" y="96.69" class="st3">OSLK</text></g><g id="shape30-76" transform="translate(457.928,54.1083) rotate(90)"><title content="structured text">Signal 0.1</title><path d="M0 99.96 L17.01 99.96" class="st7"/></g><g id="shape31-79" transform="translate(301.272,-28.8465)"><title content="structured text">Signal 0.5</title><path d="M0 99.96 L56.69 99.96" class="st7"/></g><g id="shape32-82" transform="translate(258.753,-23.1772)"><title content="structured text">Sheet.32</title><desc content="structured text">STICKYPD</desc><rect x="0" y="88.624" width="42.5197" height="11.3386" class="st8"/><text x="1.51" y="96.69" class="st3">STICKYPD</text></g><g id="shape33-85" transform="translate(469.267,54.1083) rotate(90)"><title content="structured text">Line 0.5 (0).7</title><path d="M0 99.96 L28.35 99.96" class="st7"/></g><g id="shape34-88" transform="translate(301.272,-17.5079)"><title content="structured text">Signal 0.8</title><path d="M0 99.96 L68.03 99.96" class="st7"/></g><g id="shape35-91" transform="translate(264.422,-11.8386)"><title content="structured text">Sheet.35</title><desc content="structured text">POWER</desc><rect x="0" y="88.624" width="36.8504" height="11.3386" class="st8"/><text x="5.63" y="96.69" class="st3">POWER</text></g><g id="shape40-94" transform="translate(22.5786,-26.0118)"><title content="structured text">Rectangle No Fill No Fill.116</title><desc content="structured text">res0</desc><rect x="0" y="88.624" width="19.8425" height="11.3386" class="st9"/><text x="1.24" y="96.69" class="st10">RES<tspan class="st11">0</tspan></text></g><g id="shape41-98" transform="translate(12.1386,-26.0118)"><title content="structured text">Graphic.117</title><rect x="0" y="88.624" width="10.44" height="11.3386" class="st12"/></g></g></svg>