<?xml version="1.0" encoding="UTF-8" standalone="no"?><!-- Fixed up by svgfix.xsl 1.4  --><!-- Generated by Microsoft Visio 11.0, SVG Export, v1.0 trcacatrn_bit_assignments.svg ARM -->
<!DOCTYPE svg
  PUBLIC "-//W3C//DTD SVG 1.0//EN" "http://www.w3.org/TR/2001/REC-SVG-20010904/DTD/svg10.dtd">
<svg xmlns:xlink="http://www.w3.org/1999/xlink" xmlns="http://www.w3.org/2000/svg" xmlns:ev="http://www.w3.org/2001/xml-events" width="516.149" height="118.165" viewBox="0 0 387.112 88.624" xml:space="preserve" color-interpolation-filters="sRGB" class="st14" preserveAspectRatio="xMidYMid meet" zoomAndPan="magnify" version="1.0" contentScriptType="text/ecmascript" contentStyleType="text/css"><style type="text/css" xml:space="preserve"><![CDATA[
	
		.st1 {fill:#eed9b3;stroke:none;stroke-linecap:round;stroke-linejoin:round;stroke-width:0.2px}
		.st2 {fill:#000000;font-family:Arial,Helvetica,sans-serif;font-size:0.666664em}
		.st3 {fill:#ffffff;stroke:none;stroke-linecap:round;stroke-linejoin:round;stroke-width:0.2px}
		.st4 {fill:#eed9b3;stroke:#000000;stroke-linecap:butt;stroke-width:0.5px}
		.st5 {fill:#ffffff;visibility:hidden}
		.st6 {stroke:#000000;stroke-linecap:butt;stroke-width:0.8px}
		.st7 {stroke:#000000;stroke-dasharray:0.25,1;stroke-linecap:butt;stroke-width:0.25px}
		.st8 {stroke:#000000;stroke-linecap:butt;stroke-width:0.5px}
		.st9 {fill:none;stroke:none;stroke-linecap:butt;stroke-width:0.5px}
		.st10 {fill:none;stroke:none;stroke-linecap:butt;stroke-width:0.499999px}
		.st11 {fill:#000000;font-family:Arial,Helvetica,sans-serif;font-size:0.533318em}
		.st12 {font-size:1.25003em}
		.st13 {fill:#eed9b3;stroke:none;stroke-linecap:round;stroke-linejoin:round;stroke-width:0.2px}
		.st14 {fill:none;fill-rule:evenodd;font-size:12px;overflow:visible;stroke-linecap:square;stroke-miterlimit:3}]]></style><g xmlns:v="http://schemas.microsoft.com/visio/2003/SVGExtensions/"><title content="structured text">ARM</title><g id="shape1-1" transform="translate(12.1386,-37.3504)"><title content="structured text">Sheet.1</title><rect x="0" y="60.2776" width="181.417" height="28.3465" class="st1"/></g><g id="shape2-3" transform="translate(12.1386,-65.6969)"><title content="structured text">Sheet.2</title><desc content="structured text">63</desc><text x="1.22" y="85.35" class="st2">63</text></g><g id="shape3-5" transform="translate(182.217,-65.6969)"><title content="structured text">Sheet.3</title><desc content="structured text">16</desc><text x="1.22" y="85.35" class="st2">16</text></g><g id="shape4-7" transform="translate(193.556,-65.6969)"><title content="structured text">Sheet.4</title><desc content="structured text">15</desc><text x="1.22" y="85.35" class="st2">15</text></g><g id="shape5-9" transform="translate(227.572,-65.6969)"><title content="structured text">Sheet.5</title><desc content="structured text">12</desc><text x="1.22" y="85.35" class="st2">12</text></g><g id="shape6-11" transform="translate(238.91,-65.6969)"><title content="structured text">Sheet.6</title><desc content="structured text">11</desc><text x="1.22" y="85.35" class="st2">11</text></g><g id="shape7-13" transform="translate(272.926,-65.6969)"><title content="structured text">Sheet.7</title><desc content="structured text">8</desc><text x="3.44" y="85.35" class="st2">8</text></g><g id="shape8-15" transform="translate(284.265,-65.6969)"><title content="structured text">Sheet.8</title><desc content="structured text">7</desc><text x="3.44" y="85.35" class="st2">7</text></g><g id="shape9-17" transform="translate(329.619,-65.6969)"><title content="structured text">Sheet.9</title><desc content="structured text">3</desc><text x="3.44" y="85.35" class="st2">3</text></g><g id="shape10-19" transform="translate(340.957,-65.6969)"><title content="structured text">Sheet.10</title><desc content="structured text">2</desc><text x="3.44" y="85.35" class="st2">2</text></g><g id="shape11-21" transform="translate(352.296,-65.6969)"><title content="structured text">Sheet.11</title><desc content="structured text">1</desc><text x="3.44" y="85.35" class="st2">1</text></g><g id="shape12-23" transform="translate(363.635,-65.6969)"><title content="structured text">Sheet.12</title><desc content="structured text">0</desc><text x="3.44" y="85.35" class="st2">0</text></g><g id="shape16-25" transform="translate(193.556,-37.3504)"><title content="structured text">Sheet.16</title><rect x="0" y="60.2776" width="45.3543" height="28.3465" class="st3"/></g><g id="shape17-27" transform="translate(238.91,-37.3504)"><title content="structured text">Sheet.17</title><rect x="0" y="60.2776" width="11.3386" height="28.3465" class="st3"/></g><g id="shape18-29" transform="translate(250.249,-37.3504)"><title content="structured text">Sheet.18</title><rect x="0" y="60.2776" width="22.6772" height="28.3465" class="st3"/></g><g id="shape19-31" transform="translate(272.926,-37.3504)"><title content="structured text">Sheet.19</title><rect x="0" y="60.2776" width="11.3386" height="28.3465" class="st3"/></g><g id="shape21-33" transform="translate(328.485,-37.3504)"><title content="structured text">Sheet.21</title><rect x="0" y="60.2776" width="23.811" height="28.3465" class="st3"/></g><g id="shape20-35" transform="translate(284.315,-37.4173)"><title content="structured text">Sheet.20</title><rect x="0" y="60.2776" width="45.6378" height="28.3465" class="st4"/></g><g id="shape22-37" transform="translate(352.296,-37.3504)"><title content="structured text">Sheet.22</title><desc content="structured text">TYPE</desc><rect x="0" y="60.2776" width="22.6772" height="28.3465" class="st3"/><text x="0.89" y="76.85" class="st2">TYPE</text></g><g id="shape23-40" transform="translate(12.1386,-37.3504)"><title content="structured text">Sheet.23</title><rect x="0" y="60.2776" width="362.835" height="28.3465" class="st5"/><rect x="0" y="60.2776" width="362.835" height="28.3465" class="st6"/></g><g id="shape24-43" transform="translate(193.556,-37.3504)"><title content="structured text">Sheet.24</title><path d="M0 60.28 L0 88.62" class="st6"/></g><g id="shape25-46" transform="translate(238.91,-37.3504)"><title content="structured text">Sheet.25</title><path d="M0 60.28 L0 88.62" class="st6"/></g><g id="shape26-49" transform="translate(284.265,-37.3504)"><title content="structured text">Sheet.26</title><path d="M0 60.28 L0 88.62" class="st6"/></g><g id="shape27-52" transform="translate(329.619,-37.3504)"><title content="structured text">Sheet.27</title><path d="M0 60.28 L0 88.62" class="st6"/></g><g id="shape28-55" transform="translate(352.296,-37.3504)"><title content="structured text">Sheet.28</title><path d="M0 60.28 L0 88.62" class="st6"/></g><g id="shape29-58" transform="translate(418.243,11.5886) rotate(90)"><title content="structured text">Signal 0</title><path d="M0 88.62 L11.34 88.62" class="st7"/></g><g id="shape30-61" transform="translate(372.889,11.5886) rotate(90)"><title content="structured text">Signal 0.102</title><path d="M0 88.62 L11.34 88.62" class="st7"/></g><g id="shape31-64" transform="translate(327.534,11.5886) rotate(90)"><title content="structured text">Signal 0.103</title><path d="M0 88.62 L11.34 88.62" class="st7"/></g><g id="shape32-67" transform="translate(282.18,11.5886) rotate(90)"><title content="structured text">Signal 0.104</title><path d="M0 88.62 L11.34 88.62" class="st7"/></g><g id="shape33-70" transform="translate(236.826,11.5886) rotate(90)"><title content="structured text">Signal 0.105</title><path d="M0 88.62 L11.34 88.62" class="st7"/></g><g id="shape34-73" transform="translate(191.471,11.5886) rotate(90)"><title content="structured text">Signal 0.106</title><path d="M0 88.62 L11.34 88.62" class="st7"/></g><g id="shape35-76" transform="translate(146.117,11.5886) rotate(90)"><title content="structured text">Signal 0.107</title><path d="M0 88.62 L11.34 88.62" class="st7"/></g><g id="shape36-79" transform="translate(100.763,11.5886) rotate(90)"><title content="structured text">Signal 0.108</title><path d="M0 88.62 L11.34 88.62" class="st7"/></g><g id="shape37-82" transform="translate(463.597,11.5886) rotate(90)"><title content="structured text">Signal 0.109</title><path d="M0 88.62 L11.34 88.62" class="st7"/></g><g id="shape38-85" transform="translate(350.211,54.1083) rotate(90)"><title content="structured text">Line 0.5 (0).9</title><path d="M0 88.62 L17.01 88.62" class="st8"/></g><g id="shape39-88" transform="translate(151.036,-11.8386)"><title content="structured text">Sheet.39</title><desc content="structured text">EXLEVEL_S</desc><rect x="0" y="77.2854" width="59.5276" height="11.3386" class="st9"/><text x="13.17" y="85.35" class="st2">EXLEVEL_S</text></g><g id="shape40-91" transform="translate(429.936,54.1083) rotate(90)"><title content="structured text">Line 0.5 (0).40</title><path d="M0 88.62 L5.67 88.62" class="st8"/></g><g id="shape41-94" transform="translate(335.288,-28.8465)"><title content="structured text">Signal 0.41</title><path d="M0 88.62 L6.02 88.62" class="st8"/></g><g id="shape42-97" transform="translate(272.926,-23.1772)"><title content="structured text">Sheet.42</title><desc content="structured text">CONTEXTTYPE</desc><rect x="0" y="77.2854" width="62.3622" height="11.3386" class="st9"/><text x="2.25" y="85.35" class="st2">CONTEXTTYPE</text></g><g id="shape43-100" transform="translate(210.564,-28.8465)"><title content="structured text">Signal 0.1</title><path d="M0 88.62 L5.67 88.62" class="st8"/></g><g id="shape44-103" transform="translate(151.036,-23.1772)"><title content="structured text">Sheet.44</title><desc content="structured text">EXLEVEL_NS</desc><rect x="0" y="77.2854" width="59.5276" height="11.3386" class="st9"/><text x="7.39" y="85.35" class="st2">EXLEVEL_NS</text></g><g id="shape45-106" transform="translate(304.857,54.1083) rotate(90)"><title content="structured text">Line 0.5 (0).5</title><path d="M0 88.62 L5.67 88.62" class="st8"/></g><g id="shape46-109" transform="translate(210.564,-17.5079)"><title content="structured text">Signal 0.6</title><path d="M0 88.62 L51.02 88.62" class="st8"/></g><g id="shape47-112" transform="translate(22.5786,-14.6732)"><title content="structured text">Rectangle No Fill No Fill.116</title><desc content="structured text">res0</desc><rect x="0" y="77.2854" width="19.8425" height="11.3386" class="st10"/><text x="1.24" y="85.35" class="st11">RES<tspan class="st12">0</tspan></text></g><g id="shape48-116" transform="translate(12.1386,-14.6732)"><title content="structured text">Graphic.117</title><rect x="0" y="77.2854" width="10.44" height="11.3386" class="st13"/></g></g></svg>