<?xml version="1.0" encoding="UTF-8" standalone="no"?><!-- Fixed up by svgfix.xsl 1.4  --><!-- Generated by Microsoft Visio 11.0, SVG Export, v1.0 lau1443697964159_Source.svg ARM -->
<!DOCTYPE svg
  PUBLIC "-//W3C//DTD SVG 1.0//EN" "http://www.w3.org/TR/2001/REC-SVG-20010904/DTD/svg10.dtd">
<svg xmlns:xlink="http://www.w3.org/1999/xlink" xmlns="http://www.w3.org/2000/svg" xmlns:ev="http://www.w3.org/2001/xml-events" width="516.149" height="130.17" viewBox="0 0 387.112 97.628" xml:space="preserve" color-interpolation-filters="sRGB" class="st11" preserveAspectRatio="xMidYMid meet" zoomAndPan="magnify" version="1.0" contentScriptType="text/ecmascript" contentStyleType="text/css"><style type="text/css" xml:space="preserve"><![CDATA[
	
		.st1 {fill:#eed9b3;stroke:#000000;stroke-linecap:butt;stroke-width:0.5px}
		.st2 {stroke:#000000;stroke-linecap:butt;stroke-width:0.8px}
		.st3 {stroke:#000000;stroke-dasharray:0.25,0.5;stroke-linecap:butt;stroke-width:0.25px}
		.st4 {fill:#000000;font-family:Arial,Helvetica,sans-serif;font-size:0.666664em}
		.st5 {fill:none;stroke:none;stroke-linecap:round;stroke-linejoin:round;stroke-width:0.2px}
		.st6 {fill:none;stroke:none;stroke-linecap:butt;stroke-width:0.499999px}
		.st7 {fill:#000000;font-family:Arial,Helvetica,sans-serif;font-size:0.533318em}
		.st8 {font-size:1.25003em}
		.st9 {fill:#eed9b3;stroke:none;stroke-linecap:round;stroke-linejoin:round;stroke-width:0.2px}
		.st10 {stroke:#000000;stroke-linecap:butt;stroke-width:0.5px}
		.st11 {fill:none;fill-rule:evenodd;font-size:12px;overflow:visible;stroke-linecap:square;stroke-miterlimit:3}]]></style><g xmlns:v="http://schemas.microsoft.com/visio/2003/SVGExtensions/"><title content="structured text">ARM</title><g id="shape41-1" transform="translate(12.189,-46.4212)"><title content="structured text">Sheet.41</title><rect x="0" y="69.2815" width="10.4882" height="28.3465" class="st1"/></g><g id="shape1-3" transform="translate(374.973,-46.3543) scale(-1,1)"><title content="structured text">64-bit register.156</title><path d="M0 69.28 L362.83 69.28 L362.83 97.63 L0 97.63" class="st2"/></g><g id="shape2-6" transform="translate(109.767,11.5886) rotate(90)"><title content="structured text">64-bit register.169</title><path d="M0 97.63 L11.34 97.63" class="st3"/></g><g id="shape3-9" transform="translate(374.973,-46.3543)"><title content="structured text">64-bit register.157</title><path d="M0 69.28 L0 97.63" class="st2"/></g><g id="shape4-12" transform="translate(46.1543,-46.3543)"><title content="structured text">64-bit register.7</title><path d="M0 69.28 L0 97.63" class="st2"/></g><g id="shape5-15" transform="translate(148.202,-46.3543)"><title content="structured text">64-bit register.39</title><path d="M0 69.28 L0 97.63" class="st2"/></g><g id="shape6-18" transform="translate(261.587,-46.3543)"><title content="structured text">64-bit register.41</title><path d="M0 69.28 L0 97.63" class="st2"/></g><g id="shape7-21" transform="translate(318.28,-46.3543)"><title content="structured text">64-bit register.52</title><path d="M0 69.28 L0 97.63" class="st2"/></g><g id="shape8-24" transform="translate(155.121,11.5886) rotate(90)"><title content="structured text">64-bit register.11</title><path d="M0 97.63 L11.34 97.63" class="st3"/></g><g id="shape9-27" transform="translate(200.475,11.5886) rotate(90)"><title content="structured text">64-bit register.12</title><path d="M0 97.63 L11.34 97.63" class="st3"/></g><g id="shape10-30" transform="translate(245.83,11.5886) rotate(90)"><title content="structured text">64-bit register.13</title><path d="M0 97.63 L11.34 97.63" class="st3"/></g><g id="shape11-33" transform="translate(291.184,11.5886) rotate(90)"><title content="structured text">64-bit register.14</title><path d="M0 97.63 L11.34 97.63" class="st3"/></g><g id="shape12-36" transform="translate(336.538,11.5886) rotate(90)"><title content="structured text">64-bit register.15</title><path d="M0 97.63 L11.34 97.63" class="st3"/></g><g id="shape13-39" transform="translate(427.247,11.5886) rotate(90)"><title content="structured text">64-bit register.16</title><path d="M0 97.63 L11.34 97.63" class="st3"/></g><g id="shape14-42" transform="translate(472.601,11.5886) rotate(90)"><title content="structured text">64-bit register.17</title><path d="M0 97.63 L11.34 97.63" class="st3"/></g><g id="shape15-45" transform="translate(12.1386,-74.7008)"><title content="structured text">64-bit register.179</title><desc content="structured text">31</desc><text x="1.22" y="94.36" class="st4">31</text></g><g id="shape16-47" transform="translate(363.635,-74.7008)"><title content="structured text">64-bit register.19</title><desc content="structured text">0</desc><text x="3.44" y="94.36" class="st4">0</text></g><g id="shape17-49" transform="translate(381.892,11.5886) rotate(90)"><title content="structured text">64-bit register.21</title><path d="M0 97.63 L11.34 97.63" class="st3"/></g><g id="shape18-52" transform="translate(80.1701,-74.7008)"><title content="structured text">64-bit register.4</title><desc content="structured text">25</desc><text x="1.22" y="94.36" class="st4">25</text></g><g id="shape19-54" transform="translate(91.5087,-74.7008)"><title content="structured text">64-bit register.6</title><desc content="structured text">24</desc><text x="1.22" y="94.36" class="st4">24</text></g><g id="shape20-56" transform="translate(204.894,-74.7008)"><title content="structured text">64-bit register.26</title><desc content="structured text">14</desc><text x="1.22" y="94.36" class="st4">14</text></g><g id="shape21-58" transform="translate(193.556,-74.7008)"><title content="structured text">64-bit register.27</title><desc content="structured text">15</desc><text x="1.22" y="94.36" class="st4">15</text></g><g id="shape22-60" transform="translate(250.249,-74.7008)"><title content="structured text">64-bit register.28</title><desc content="structured text">10</desc><text x="1.22" y="94.36" class="st4">10</text></g><g id="shape23-62" transform="translate(261.587,-74.7008)"><title content="structured text">64-bit register.29</title><desc content="structured text">9</desc><text x="3.44" y="94.36" class="st4">9</text></g><g id="shape24-64" transform="translate(306.942,-74.7008)"><title content="structured text">64-bit register.32</title><desc content="structured text">5</desc><text x="3.44" y="94.36" class="st4">5</text></g><g id="shape25-66" transform="translate(318.28,-74.7008)"><title content="structured text">64-bit register.33</title><desc content="structured text">4</desc><text x="3.44" y="94.36" class="st4">4</text></g><g id="shape26-68" transform="translate(318.28,-46.3543)"><title content="structured text">64-bit register.36</title><desc content="structured text">IASIZE</desc><rect x="0" y="69.2815" width="56.6929" height="28.3465" class="st5"/><text x="15.68" y="85.85" class="st4">IASIZE</text></g><g id="shape29-71" transform="translate(34.8157,-74.7008)"><title content="structured text">64-bit register.22</title><desc content="structured text">29</desc><text x="1.22" y="94.36" class="st4">29</text></g><g id="shape30-73" transform="translate(46.1543,-74.7008)"><title content="structured text">64-bit register.23</title><desc content="structured text">28</desc><text x="1.22" y="94.36" class="st4">28</text></g><g id="shape31-75" transform="translate(91.5087,-46.3543)"><title content="structured text">64-bit register.24</title><path d="M0 69.28 L0 97.63" class="st2"/></g><g id="shape32-78" transform="translate(136.863,-74.7008)"><title content="structured text">64-bit register.40</title><desc content="structured text">20</desc><text x="1.22" y="94.36" class="st4">20</text></g><g id="shape33-80" transform="translate(148.202,-74.7008)"><title content="structured text">Sheet.33</title><desc content="structured text">19</desc><text x="1.22" y="94.36" class="st4">19</text></g><g id="shape34-82" transform="translate(204.894,-46.3543)"><title content="structured text">Sheet.34</title><path d="M0 69.28 L0 97.63" class="st2"/></g><g id="shape35-85" transform="translate(261.587,-46.3543)"><title content="structured text">64-bit register.30</title><desc content="structured text">CIDSIZE</desc><rect x="0" y="69.2815" width="56.6929" height="28.3465" class="st5"/><text x="12.57" y="85.85" class="st4">CIDSIZE</text></g><g id="shape36-88" transform="translate(204.894,-46.3543)"><title content="structured text">64-bit register.31</title><desc content="structured text">VMIDSIZE</desc><rect x="0" y="69.2815" width="56.6929" height="28.3465" class="st5"/><text x="9.46" y="85.85" class="st4">VMIDSIZE</text></g><g id="shape38-91" transform="translate(148.202,-46.3543)"><title content="structured text">64-bit register.45</title><desc content="structured text">DASIZE</desc><rect x="0" y="69.2815" width="56.6929" height="28.3465" class="st5"/><text x="13.9" y="85.85" class="st4">DASIZE</text></g><g id="shape39-94" transform="translate(91.5087,-46.3543)"><title content="structured text">64-bit register.46</title><desc content="structured text">DVSIZE</desc><rect x="0" y="69.2815" width="56.6929" height="28.3465" class="st5"/><text x="13.9" y="85.85" class="st4">DVSIZE</text></g><g id="shape40-97" transform="translate(46.1543,-46.3543)"><title content="structured text">64-bit register.47</title><desc content="structured text">CCSIZE</desc><rect x="0" y="69.2815" width="45.3543" height="28.3465" class="st5"/><text x="8.01" y="85.85" class="st4">CCSIZE</text></g><g id="shape42-100" transform="translate(22.6772,-11.8386)"><title content="structured text">Rectangle No Fill No Fill.116</title><desc content="structured text">res0</desc><rect x="0" y="86.2894" width="19.8425" height="11.3386" class="st6"/><text x="1.24" y="94.36" class="st7">RES<tspan class="st8">0</tspan></text></g><g id="shape43-104" transform="translate(12.2372,-11.8386)"><title content="structured text">Graphic.117</title><rect x="0" y="86.2894" width="10.44" height="11.3386" class="st9"/></g><g id="shape44-106" transform="translate(22.6772,-46.3268)"><title content="structured text">64-bit register.44</title><path d="M0 69.28 L0 97.63" class="st2"/></g><g id="shape45-109" transform="translate(42.7559,-35.9331)"><title content="structured text">32-bit register.40</title><desc content="structured text">VMIDOPT</desc><rect x="0" y="94.5752" width="41.7165" height="3.0527" class="st5"/><text x="2.64" y="98.5" class="st4">VMIDOPT</text></g><g id="shape46-112" transform="translate(34.252,-37.4594)"><title content="structured text">Sheet.46</title><path d="M0 89.23 L0 97.63 L8.5 97.63" class="st10"/></g></g></svg>