<?xml version="1.0" encoding="UTF-8" standalone="no"?><!-- Fixed up by svgfix.xsl 1.4  --><!-- Generated by Microsoft Visio 11.0, SVG Export, v1.0 TCR_EL2_with_E2H_1_new.svg Page-1 -->
<!DOCTYPE svg
  PUBLIC "-//W3C//DTD SVG 1.0//EN" "http://www.w3.org/TR/2001/REC-SVG-20010904/DTD/svg10.dtd">
<svg xmlns:xlink="http://www.w3.org/1999/xlink" xmlns="http://www.w3.org/2000/svg" width="492.061" height="368.114" viewBox="0 0 369.046 276.086" xml:space="preserve" color-interpolation-filters="sRGB" class="st10" preserveAspectRatio="xMidYMid meet" zoomAndPan="magnify" version="1.0" contentScriptType="text/ecmascript" contentStyleType="text/css"><style type="text/css" xml:space="preserve"><![CDATA[
	
		.st1 {fill:#eed9b3;stroke:#000000;stroke-linecap:butt;stroke-width:0.6px}
		.st2 {fill:none;stroke:none;stroke-linecap:butt;stroke-width:0.75px}
		.st3 {fill:#000000;font-family:Arial,Helvetica,sans-serif;font-size:0.666664em}
		.st4 {fill:none;stroke:#000000;stroke-linecap:butt;stroke-width:0.6px}
		.st5 {stroke:#000000;stroke-dasharray:0.375,0.75;stroke-linecap:butt;stroke-width:0.375px}
		.st6 {stroke:#000000;stroke-linecap:butt;stroke-width:0.375px}
		.st7 {fill:#eed9b3;stroke:none;stroke-linecap:butt;stroke-width:0.75px}
		.st8 {fill:#000000;font-family:Arial,Helvetica,sans-serif;font-size:0.583328em}
		.st9 {font-size:1.14286em}
		.st10 {fill:none;fill-rule:evenodd;font-size:12px;overflow:visible;stroke-linecap:square;stroke-miterlimit:3}]]></style><g xmlns:v="http://schemas.microsoft.com/visio/2003/SVGExtensions/"><title content="structured text">Page-1</title><g id="group1-1" transform="translate(0.775,-236.026)"><title content="structured text">TCR_EL2_with_E2H_1_high</title><g id="group2-2"><title content="structured text">Sheet.2</title><g id="shape3-3" transform="translate(2.33071,0)"><title content="structured text">Sheet.3</title><rect x="0" y="247.739" width="147.402" height="28.3465" class="st1"/></g><g id="shape4-5" transform="translate(-0.025,-28.7811)"><title content="structured text">Sheet.4</title><desc content="structured text">63</desc><rect x="0" y="266.486" width="16.05" height="9.6" class="st2"/><text x="3.58" y="273.69" class="st3">63</text></g><g id="shape5-8" transform="translate(136.038,-28.7811)"><title content="structured text">Sheet.5</title><desc content="structured text">51</desc><rect x="0" y="266.486" width="16.05" height="9.6" class="st2"/><text x="3.58" y="273.69" class="st3">51</text></g></g><g id="group6-11" transform="translate(147.402,0)"><title content="structured text">Sheet.6</title><g id="shape7-12" transform="translate(2.33071,0)"><title content="structured text">Sheet.7</title><rect x="0" y="247.739" width="11.3386" height="28.3465" class="st4"/></g><g id="shape8-14" transform="translate(-0.025,-28.7811)"><title content="structured text">Sheet.8</title><desc content="structured text">50</desc><rect x="0" y="266.486" width="16.05" height="9.6" class="st2"/><text x="3.58" y="273.69" class="st3">50</text></g></g><g id="group9-17" transform="translate(158.74,0)"><title content="structured text">Sheet.9</title><g id="shape10-18" transform="translate(2.33071,0)"><title content="structured text">Sheet.10</title><rect x="0" y="247.739" width="11.3386" height="28.3465" class="st4"/></g><g id="shape11-20" transform="translate(-0.025,-28.7811)"><title content="structured text">Sheet.11</title><desc content="structured text">49</desc><rect x="0" y="266.486" width="16.05" height="9.6" class="st2"/><text x="3.58" y="273.69" class="st3">49</text></g></g><g id="group12-23" transform="translate(170.079,0)"><title content="structured text">Sheet.12</title><g id="shape13-24" transform="translate(2.33071,0)"><title content="structured text">Sheet.13</title><rect x="0" y="247.739" width="11.3386" height="28.3465" class="st4"/></g><g id="shape14-26" transform="translate(-0.025,-28.7811)"><title content="structured text">Sheet.14</title><desc content="structured text">48</desc><rect x="0" y="266.486" width="16.05" height="9.6" class="st2"/><text x="3.58" y="273.69" class="st3">48</text></g></g><g id="group15-29" transform="translate(181.417,0)"><title content="structured text">Sheet.15</title><g id="shape16-30" transform="translate(2.33071,0)"><title content="structured text">Sheet.16</title><rect x="0" y="247.739" width="11.3386" height="28.3465" class="st4"/></g><g id="shape17-32" transform="translate(-0.025,-28.7811)"><title content="structured text">Sheet.17</title><desc content="structured text">47</desc><rect x="0" y="266.486" width="16.05" height="9.6" class="st2"/><text x="3.58" y="273.69" class="st3">47</text></g></g><g id="group18-35" transform="translate(192.756,0)"><title content="structured text">Sheet.18</title><g id="shape19-36" transform="translate(2.33071,0)"><title content="structured text">Sheet.19</title><rect x="0" y="247.739" width="11.3386" height="28.3465" class="st4"/></g><g id="shape20-38" transform="translate(-0.025,-28.7811)"><title content="structured text">Sheet.20</title><desc content="structured text">46</desc><rect x="0" y="266.486" width="16.05" height="9.6" class="st2"/><text x="3.58" y="273.69" class="st3">46</text></g></g><g id="group21-41" transform="translate(204.094,0)"><title content="structured text">Sheet.21</title><g id="shape22-42" transform="translate(2.33071,0)"><title content="structured text">Sheet.22</title><rect x="0" y="247.739" width="11.3386" height="28.3465" class="st4"/></g><g id="shape23-44" transform="translate(-0.025,-28.7811)"><title content="structured text">Sheet.23</title><desc content="structured text">45</desc><rect x="0" y="266.486" width="16.05" height="9.6" class="st2"/><text x="3.58" y="273.69" class="st3">45</text></g></g><g id="group24-47" transform="translate(215.433,0)"><title content="structured text">Sheet.24</title><g id="shape25-48" transform="translate(2.33071,0)"><title content="structured text">Sheet.25</title><rect x="0" y="247.739" width="11.3386" height="28.3465" class="st4"/></g><g id="shape26-50" transform="translate(-0.025,-28.7811)"><title content="structured text">Sheet.26</title><desc content="structured text">44</desc><rect x="0" y="266.486" width="16.05" height="9.6" class="st2"/><text x="3.58" y="273.69" class="st3">44</text></g></g><g id="group27-53" transform="translate(226.772,0)"><title content="structured text">Sheet.27</title><g id="shape28-54" transform="translate(2.33071,0)"><title content="structured text">Sheet.28</title><rect x="0" y="247.739" width="11.3386" height="28.3465" class="st4"/></g><g id="shape29-56" transform="translate(-0.025,-28.7811)"><title content="structured text">Sheet.29</title><desc content="structured text">43</desc><rect x="0" y="266.486" width="16.05" height="9.6" class="st2"/><text x="3.58" y="273.69" class="st3">43</text></g></g><g id="group30-59" transform="translate(238.11,0)"><title content="structured text">Sheet.30</title><g id="shape31-60" transform="translate(2.33071,0)"><title content="structured text">Sheet.31</title><rect x="0" y="247.739" width="11.3386" height="28.3465" class="st4"/></g><g id="shape32-62" transform="translate(-0.025,-28.7811)"><title content="structured text">Sheet.32</title><desc content="structured text">42</desc><rect x="0" y="266.486" width="16.05" height="9.6" class="st2"/><text x="3.58" y="273.69" class="st3">42</text></g></g><g id="group33-65" transform="translate(249.449,0)"><title content="structured text">Sheet.33</title><g id="shape34-66" transform="translate(2.33071,0)"><title content="structured text">Sheet.34</title><rect x="0" y="247.739" width="11.3386" height="28.3465" class="st4"/></g><g id="shape35-68" transform="translate(-0.025,-28.7811)"><title content="structured text">Sheet.35</title><desc content="structured text">41</desc><rect x="0" y="266.486" width="16.05" height="9.6" class="st2"/><text x="3.58" y="273.69" class="st3">41</text></g></g><g id="group36-71" transform="translate(260.787,0)"><title content="structured text">Sheet.36</title><g id="shape37-72" transform="translate(2.33071,0)"><title content="structured text">Sheet.37</title><rect x="0" y="247.739" width="11.3386" height="28.3465" class="st4"/></g><g id="shape38-74" transform="translate(-0.025,-28.7811)"><title content="structured text">Sheet.38</title><desc content="structured text">40</desc><rect x="0" y="266.486" width="16.05" height="9.6" class="st2"/><text x="3.58" y="273.69" class="st3">40</text></g></g><g id="group39-77" transform="translate(272.126,0)"><title content="structured text">Sheet.39</title><g id="shape40-78" transform="translate(2.33071,0)"><title content="structured text">Sheet.40</title><rect x="0" y="247.739" width="11.3386" height="28.3465" class="st4"/></g><g id="shape41-80" transform="translate(-0.025,-28.7811)"><title content="structured text">Sheet.41</title><desc content="structured text">39</desc><rect x="0" y="266.486" width="16.05" height="9.6" class="st2"/><text x="3.58" y="273.69" class="st3">39</text></g></g><g id="group42-83" transform="translate(283.465,0)"><title content="structured text">Sheet.42</title><g id="shape43-84" transform="translate(2.33071,0)"><title content="structured text">Sheet.43</title><rect x="0" y="247.739" width="11.3386" height="28.3465" class="st4"/></g><g id="shape44-86" transform="translate(-0.025,-28.7811)"><title content="structured text">Sheet.44</title><desc content="structured text">38</desc><rect x="0" y="266.486" width="16.05" height="9.6" class="st2"/><text x="3.58" y="273.69" class="st3">38</text></g></g><g id="group45-89" transform="translate(294.803,0)"><title content="structured text">Sheet.45</title><g id="shape46-90" transform="translate(2.33071,0)"><title content="structured text">Sheet.46</title><rect x="0" y="247.739" width="11.3386" height="28.3465" class="st4"/></g><g id="shape47-92" transform="translate(-0.025,-28.7811)"><title content="structured text">Sheet.47</title><desc content="structured text">37</desc><rect x="0" y="266.486" width="16.05" height="9.6" class="st2"/><text x="3.58" y="273.69" class="st3">37</text></g></g><g id="group48-95" transform="translate(306.142,0)"><title content="structured text">Sheet.48</title><g id="shape49-96" transform="translate(2.33071,0)"><title content="structured text">Sheet.49</title><rect x="0" y="247.739" width="11.3386" height="28.3465" class="st4"/></g><g id="shape50-98" transform="translate(-0.025,-28.7811)"><title content="structured text">Sheet.50</title><desc content="structured text">36</desc><rect x="0" y="266.486" width="16.05" height="9.6" class="st2"/><text x="3.58" y="273.69" class="st3">36</text></g></g><g id="group51-101" transform="translate(317.48,0)"><title content="structured text">Sheet.51</title><g id="shape52-102" transform="translate(2.33071,0)"><title content="structured text">Sheet.52</title><rect x="0" y="247.739" width="11.3386" height="28.3465" class="st1"/></g><g id="shape53-104" transform="translate(-0.025,-28.7811)"><title content="structured text">Sheet.53</title><desc content="structured text">35</desc><rect x="0" y="266.486" width="16.05" height="9.6" class="st2"/><text x="3.58" y="273.69" class="st3">35</text></g></g><g id="group54-107" transform="translate(328.819,0)"><title content="structured text">Sheet.54</title><g id="shape55-108" transform="translate(2.33071,0)"><title content="structured text">Sheet.55</title><rect x="0" y="247.739" width="34.0157" height="28.3465" class="st4"/></g><g id="shape56-110" transform="translate(7.31358,-8.93858)"><title content="structured text">Sheet.56</title><desc content="structured text">IPS</desc><rect x="0" y="266.486" width="24.05" height="9.6" class="st2"/><text x="5.58" y="273.69" class="st3">IPS</text></g><g id="shape57-113" transform="translate(-0.025,-28.7811)"><title content="structured text">Sheet.57</title><desc content="structured text">34</desc><rect x="0" y="266.486" width="16.05" height="9.6" class="st2"/><text x="3.58" y="273.69" class="st3">34</text></g><g id="shape58-116" transform="translate(22.6522,-28.7811)"><title content="structured text">Sheet.58</title><desc content="structured text">32</desc><rect x="0" y="266.486" width="16.05" height="9.6" class="st2"/><text x="3.58" y="273.69" class="st3">32</text></g></g><g id="shape59-119" transform="translate(-273.755,247.739) rotate(-90)"><title content="structured text">Sheet.59</title><path d="M0 276.09 L11.34 276.09" class="st5"/></g><g id="shape60-122" transform="translate(-228.401,247.739) rotate(-90)"><title content="structured text">Sheet.60</title><path d="M0 276.09 L11.34 276.09" class="st5"/></g><g id="shape61-125" transform="translate(-183.046,247.739) rotate(-90)"><title content="structured text">Sheet.61</title><path d="M0 276.09 L11.34 276.09" class="st5"/></g><g id="shape62-128" transform="translate(-137.692,247.739) rotate(-90)"><title content="structured text">Sheet.62</title><path d="M0 276.09 L11.34 276.09" class="st5"/></g><g id="shape63-131" transform="translate(-92.3376,247.739) rotate(-90)"><title content="structured text">Sheet.63</title><path d="M0 276.09 L11.34 276.09" class="st5"/></g><g id="shape64-134" transform="translate(-46.9833,247.739) rotate(-90)"><title content="structured text">Sheet.64</title><path d="M0 276.09 L11.34 276.09" class="st5"/></g><g id="shape65-137" transform="translate(-1.62894,247.739) rotate(-90)"><title content="structured text">Sheet.65</title><path d="M0 276.09 L11.34 276.09" class="st5"/></g><g id="shape66-140" transform="translate(43.7254,247.739) rotate(-90)"><title content="structured text">Sheet.66</title><path d="M0 276.09 L11.34 276.09" class="st5"/></g><g id="shape67-143" transform="translate(89.0797,247.739) rotate(-90)"><title content="structured text">Sheet.67</title><path d="M0 276.09 L11.34 276.09" class="st5"/></g></g><g id="group68-146" transform="translate(101.09,-111.736)"><title content="structured text">Sheet.68</title><g id="shape69-147" transform="translate(-0.025,-109.134)"><title content="structured text">Sheet.69</title><desc content="structured text">HWU162</desc><rect x="0" y="266.486" width="48.05" height="9.6" class="st2"/><text x="15.6" y="273.69" class="st3">HWU162</text></g><g id="shape70-150" transform="translate(331.172,151.796) rotate(90)"><title content="structured text">Sheet.70</title><path d="M0 276.09 L9.92 276.09" class="st6"/></g><g id="shape71-153" transform="translate(55.0866,437.803) rotate(180)"><title content="structured text">Sheet.71</title><path d="M0 276.09 L5.67 276.09" class="st6"/></g><g id="shape72-156" transform="translate(11.3136,-99.2126)"><title content="structured text">Sheet.72</title><desc content="structured text">HWU161</desc><rect x="0" y="266.486" width="48.05" height="9.6" class="st2"/><text x="15.6" y="273.69" class="st3">HWU161</text></g><g id="shape73-159" transform="translate(342.511,151.796) rotate(90)"><title content="structured text">Sheet.73</title><path d="M0 276.09 L19.84 276.09" class="st6"/></g><g id="shape74-162" transform="translate(66.4252,447.724) rotate(180)"><title content="structured text">Sheet.74</title><path d="M0 276.09 L5.67 276.09" class="st6"/></g><g id="shape75-165" transform="translate(22.6522,-89.2913)"><title content="structured text">Sheet.75</title><desc content="structured text">HWU160</desc><rect x="0" y="266.486" width="48.05" height="9.6" class="st2"/><text x="15.6" y="273.69" class="st3">HWU160</text></g><g id="shape76-168" transform="translate(353.849,151.796) rotate(90)"><title content="structured text">Sheet.76</title><path d="M0 276.09 L29.76 276.09" class="st6"/></g><g id="shape77-171" transform="translate(77.7638,457.645) rotate(180)"><title content="structured text">Sheet.77</title><path d="M0 276.09 L5.67 276.09" class="st6"/></g><g id="shape78-174" transform="translate(96.164,0)"><title content="structured text">Sheet.78</title><desc content="structured text">HWU159</desc><rect x="0" y="266.486" width="48.05" height="9.6" class="st2"/><text x="0" y="273.69" class="st3">HWU159</text></g><g id="shape79-177" transform="translate(365.188,151.796) rotate(90)"><title content="structured text">Sheet.79</title><path d="M0 276.09 L119.06 276.09" class="st6"/></g><g id="shape80-180" transform="translate(89.1024,-5.23465)"><title content="structured text">Sheet.80</title><path d="M0 276.09 L5.67 276.09" class="st6"/></g><g id="shape81-183" transform="translate(107.503,-9.92126)"><title content="structured text">Sheet.81</title><desc content="structured text">HWU062</desc><rect x="0" y="266.486" width="48.05" height="9.6" class="st2"/><text x="0" y="273.69" class="st3">HWU062</text></g><g id="shape82-186" transform="translate(376.527,151.796) rotate(90)"><title content="structured text">Sheet.82</title><path d="M0 276.09 L109.13 276.09" class="st6"/></g><g id="shape83-189" transform="translate(100.441,-15.1559)"><title content="structured text">Sheet.83</title><path d="M0 276.09 L5.67 276.09" class="st6"/></g><g id="shape84-192" transform="translate(118.841,-19.8425)"><title content="structured text">Sheet.84</title><desc content="structured text">HWU061</desc><rect x="0" y="266.486" width="48.05" height="9.6" class="st2"/><text x="-0" y="273.69" class="st3">HWU061</text></g><g id="shape85-195" transform="translate(387.865,151.796) rotate(90)"><title content="structured text">Sheet.85</title><path d="M0 276.09 L99.21 276.09" class="st6"/></g><g id="shape86-198" transform="translate(111.78,-25.0772)"><title content="structured text">Sheet.86</title><path d="M0 276.09 L5.67 276.09" class="st6"/></g><g id="shape87-201" transform="translate(130.18,-29.7638)"><title content="structured text">Sheet.87</title><desc content="structured text">HWU060</desc><rect x="0" y="266.486" width="48.05" height="9.6" class="st2"/><text x="0" y="273.69" class="st3">HWU060</text></g><g id="shape88-204" transform="translate(399.204,151.796) rotate(90)"><title content="structured text">Sheet.88</title><path d="M0 276.09 L89.29 276.09" class="st6"/></g><g id="shape89-207" transform="translate(123.118,-34.9984)"><title content="structured text">Sheet.89</title><path d="M0 276.09 L5.67 276.09" class="st6"/></g><g id="shape90-210" transform="translate(141.518,-39.685)"><title content="structured text">Sheet.90</title><desc content="structured text">HWU059</desc><rect x="0" y="266.486" width="48.05" height="9.6" class="st2"/><text x="0" y="273.69" class="st3">HWU059</text></g><g id="shape91-213" transform="translate(410.542,151.796) rotate(90)"><title content="structured text">Sheet.91</title><path d="M0 276.09 L79.37 276.09" class="st6"/></g><g id="shape92-216" transform="translate(134.457,-44.9197)"><title content="structured text">Sheet.92</title><path d="M0 276.09 L5.67 276.09" class="st6"/></g><g id="shape93-219" transform="translate(152.857,-49.6063)"><title content="structured text">Sheet.93</title><desc content="structured text">HPD1</desc><rect x="0" y="266.486" width="32.05" height="9.6" class="st2"/><text x="0" y="273.69" class="st3">HPD1</text></g><g id="shape94-222" transform="translate(421.881,151.796) rotate(90)"><title content="structured text">Sheet.94</title><path d="M0 276.09 L69.45 276.09" class="st6"/></g><g id="shape95-225" transform="translate(145.795,-54.8409)"><title content="structured text">Sheet.95</title><path d="M0 276.09 L5.67 276.09" class="st6"/></g><g id="shape96-228" transform="translate(164.195,-59.5276)"><title content="structured text">Sheet.96</title><desc content="structured text">HPD0</desc><rect x="0" y="266.486" width="32.05" height="9.6" class="st2"/><text x="0" y="273.69" class="st3">HPD0</text></g><g id="shape97-231" transform="translate(433.219,151.796) rotate(90)"><title content="structured text">Sheet.97</title><path d="M0 276.09 L59.53 276.09" class="st6"/></g><g id="shape98-234" transform="translate(157.134,-64.7622)"><title content="structured text">Sheet.98</title><path d="M0 276.09 L5.67 276.09" class="st6"/></g><g id="shape99-237" transform="translate(175.534,-69.4488)"><title content="structured text">Sheet.99</title><desc content="structured text">HD</desc><rect x="0" y="266.486" width="16.05" height="9.6" class="st2"/><text x="0" y="273.69" class="st3">HD</text></g><g id="shape100-240" transform="translate(444.558,151.796) rotate(90)"><title content="structured text">Sheet.100</title><path d="M0 276.09 L49.61 276.09" class="st6"/></g><g id="shape101-243" transform="translate(168.472,-74.6835)"><title content="structured text">Sheet.101</title><path d="M0 276.09 L5.67 276.09" class="st6"/></g><g id="shape102-246" transform="translate(186.873,-79.3701)"><title content="structured text">Sheet.102</title><desc content="structured text">HA</desc><rect x="0" y="266.486" width="16.05" height="9.6" class="st2"/><text x="0" y="273.69" class="st3">HA</text></g><g id="shape103-249" transform="translate(455.897,151.796) rotate(90)"><title content="structured text">Sheet.103</title><path d="M0 276.09 L39.69 276.09" class="st6"/></g><g id="shape104-252" transform="translate(179.811,-84.6047)"><title content="structured text">Sheet.104</title><path d="M0 276.09 L5.67 276.09" class="st6"/></g><g id="shape105-255" transform="translate(198.211,-89.2913)"><title content="structured text">Sheet.105</title><desc content="structured text">TBI1</desc><rect x="0" y="266.486" width="32.05" height="9.6" class="st2"/><text x="0" y="273.69" class="st3">TBI1</text></g><g id="shape106-258" transform="translate(467.235,151.796) rotate(90)"><title content="structured text">Sheet.106</title><path d="M0 276.09 L29.76 276.09" class="st6"/></g><g id="shape107-261" transform="translate(191.15,-94.526)"><title content="structured text">Sheet.107</title><path d="M0 276.09 L5.67 276.09" class="st6"/></g><g id="shape108-264" transform="translate(209.55,-99.2126)"><title content="structured text">Sheet.108</title><desc content="structured text">TBI0</desc><rect x="0" y="266.486" width="32.05" height="9.6" class="st2"/><text x="0" y="273.69" class="st3">TBI0</text></g><g id="shape109-267" transform="translate(478.574,151.796) rotate(90)"><title content="structured text">Sheet.109</title><path d="M0 276.09 L19.84 276.09" class="st6"/></g><g id="shape110-270" transform="translate(202.488,-104.447)"><title content="structured text">Sheet.110</title><path d="M0 276.09 L5.67 276.09" class="st6"/></g><g id="shape111-273" transform="translate(220.888,-109.134)"><title content="structured text">Sheet.111</title><desc content="structured text">AS</desc><rect x="0" y="266.486" width="16.05" height="9.6" class="st2"/><text x="0" y="273.69" class="st3">AS</text></g><g id="shape112-276" transform="translate(489.912,151.796) rotate(90)"><title content="structured text">Sheet.112</title><path d="M0 276.09 L9.92 276.09" class="st6"/></g><g id="shape113-279" transform="translate(213.827,-114.369)"><title content="structured text">Sheet.113</title><path d="M0 276.09 L5.67 276.09" class="st6"/></g></g><g id="group115-282" transform="translate(0.775,-0.75)"><title content="structured text">Sheet.115</title><g id="group117-283" transform="translate(0,-56.6929)"><title content="structured text">TCR_EL2_with_E2H_1_low</title><g id="group118-284"><title content="structured text">Sheet.118</title><g id="shape119-285" transform="translate(2.33071,0)"><title content="structured text">Sheet.119</title><rect x="0" y="247.739" width="22.6772" height="28.3465" class="st4"/></g><g id="shape120-287" transform="translate(1.64429,-8.93858)"><title content="structured text">Sheet.120</title><desc content="structured text">TG1</desc><rect x="0" y="266.486" width="24.05" height="9.6" class="st2"/><text x="4.25" y="273.69" class="st3">TG1</text></g><g id="shape121-290" transform="translate(-0.025,-28.7811)"><title content="structured text">Sheet.121</title><desc content="structured text">31</desc><rect x="0" y="266.486" width="16.05" height="9.6" class="st2"/><text x="3.58" y="273.69" class="st3">31</text></g><g id="shape122-293" transform="translate(11.3136,-28.7811)"><title content="structured text">Sheet.122</title><desc content="structured text">30</desc><rect x="0" y="266.486" width="16.05" height="9.6" class="st2"/><text x="3.58" y="273.69" class="st3">30</text></g></g><g id="group123-296" transform="translate(22.6772,0)"><title content="structured text">Sheet.123</title><g id="shape124-297" transform="translate(2.33071,0)"><title content="structured text">Sheet.124</title><rect x="0" y="247.739" width="22.6772" height="28.3465" class="st4"/></g><g id="shape125-299" transform="translate(1.64429,-8.93858)"><title content="structured text">Sheet.125</title><desc content="structured text">SH1</desc><rect x="0" y="266.486" width="24.05" height="9.6" class="st2"/><text x="4.24" y="273.69" class="st3">SH1</text></g><g id="shape126-302" transform="translate(-0.025,-28.7811)"><title content="structured text">Sheet.126</title><desc content="structured text">29</desc><rect x="0" y="266.486" width="16.05" height="9.6" class="st2"/><text x="3.58" y="273.69" class="st3">29</text></g><g id="shape127-305" transform="translate(11.3136,-28.7811)"><title content="structured text">Sheet.127</title><desc content="structured text">28</desc><rect x="0" y="266.486" width="16.05" height="9.6" class="st2"/><text x="3.58" y="273.69" class="st3">28</text></g></g><g id="group128-308" transform="translate(45.3543,0)"><title content="structured text">Sheet.128</title><g id="shape129-309" transform="translate(2.33071,0)"><title content="structured text">Sheet.129</title><rect x="0" y="247.739" width="22.6772" height="28.3465" class="st4"/></g><g id="shape130-311" transform="translate(-0.025,-28.7811)"><title content="structured text">Sheet.130</title><desc content="structured text">27</desc><rect x="0" y="266.486" width="16.05" height="9.6" class="st2"/><text x="3.58" y="273.69" class="st3">27</text></g><g id="shape131-314" transform="translate(11.3136,-28.7811)"><title content="structured text">Sheet.131</title><desc content="structured text">26</desc><rect x="0" y="266.486" width="16.05" height="9.6" class="st2"/><text x="3.58" y="273.69" class="st3">26</text></g></g><g id="group132-317" transform="translate(68.0315,0)"><title content="structured text">Sheet.132</title><g id="shape133-318" transform="translate(2.33071,0)"><title content="structured text">Sheet.133</title><rect x="0" y="247.739" width="22.6772" height="28.3465" class="st4"/></g><g id="shape134-320" transform="translate(-0.025,-28.7811)"><title content="structured text">Sheet.134</title><desc content="structured text">25</desc><rect x="0" y="266.486" width="16.05" height="9.6" class="st2"/><text x="3.58" y="273.69" class="st3">25</text></g><g id="shape135-323" transform="translate(11.3136,-28.7811)"><title content="structured text">Sheet.135</title><desc content="structured text">24</desc><rect x="0" y="266.486" width="16.05" height="9.6" class="st2"/><text x="3.58" y="273.69" class="st3">24</text></g></g><g id="group136-326" transform="translate(90.7087,0)"><title content="structured text">Sheet.136</title><g id="shape137-327" transform="translate(2.33071,0)"><title content="structured text">Sheet.137</title><rect x="0" y="247.739" width="11.3386" height="28.3465" class="st4"/></g><g id="shape138-329" transform="translate(-0.025,-28.7811)"><title content="structured text">Sheet.138</title><desc content="structured text">23</desc><rect x="0" y="266.486" width="16.05" height="9.6" class="st2"/><text x="3.58" y="273.69" class="st3">23</text></g></g><g id="group139-332" transform="translate(102.047,0)"><title content="structured text">Sheet.139</title><g id="shape140-333" transform="translate(2.33071,0)"><title content="structured text">Sheet.140</title><rect x="0" y="247.739" width="11.3386" height="28.3465" class="st4"/></g><g id="shape141-335" transform="translate(-0.025,-8.93858)"><title content="structured text">Sheet.141</title><desc content="structured text">A1</desc><rect x="0" y="266.486" width="16.05" height="9.6" class="st2"/><text x="3.13" y="273.69" class="st3">A1</text></g><g id="shape142-338" transform="translate(-0.025,-28.7811)"><title content="structured text">Sheet.142</title><desc content="structured text">22</desc><rect x="0" y="266.486" width="16.05" height="9.6" class="st2"/><text x="3.58" y="273.69" class="st3">22</text></g></g><g id="group143-341" transform="translate(113.386,0)"><title content="structured text">Sheet.143</title><g id="shape144-342" transform="translate(2.33071,0)"><title content="structured text">Sheet.144</title><rect x="0" y="247.739" width="68.0315" height="28.3465" class="st4"/></g><g id="shape145-344" transform="translate(20.3215,-8.93858)"><title content="structured text">Sheet.145</title><desc content="structured text">T1SZ</desc><rect x="0" y="266.486" width="32.05" height="9.6" class="st2"/><text x="6.25" y="273.69" class="st3">T1SZ</text></g><g id="shape146-347" transform="translate(-0.025,-28.7811)"><title content="structured text">Sheet.146</title><desc content="structured text">21</desc><rect x="0" y="266.486" width="16.05" height="9.6" class="st2"/><text x="3.58" y="273.69" class="st3">21</text></g><g id="shape147-350" transform="translate(56.6679,-28.7811)"><title content="structured text">Sheet.147</title><desc content="structured text">16</desc><rect x="0" y="266.486" width="16.05" height="9.6" class="st2"/><text x="3.58" y="273.69" class="st3">16</text></g></g><g id="group148-353" transform="translate(181.417,0)"><title content="structured text">Sheet.148</title><g id="shape149-354" transform="translate(2.33071,0)"><title content="structured text">Sheet.149</title><rect x="0" y="247.739" width="22.6772" height="28.3465" class="st4"/></g><g id="shape150-356" transform="translate(1.64429,-8.93858)"><title content="structured text">Sheet.150</title><desc content="structured text">TG0</desc><rect x="0" y="266.486" width="24.05" height="9.6" class="st2"/><text x="4.25" y="273.69" class="st3">TG0</text></g><g id="shape151-359" transform="translate(-0.025,-28.7811)"><title content="structured text">Sheet.151</title><desc content="structured text">15</desc><rect x="0" y="266.486" width="16.05" height="9.6" class="st2"/><text x="3.58" y="273.69" class="st3">15</text></g><g id="shape152-362" transform="translate(11.3136,-28.7811)"><title content="structured text">Sheet.152</title><desc content="structured text">14</desc><rect x="0" y="266.486" width="16.05" height="9.6" class="st2"/><text x="3.58" y="273.69" class="st3">14</text></g></g><g id="group153-365" transform="translate(204.094,0)"><title content="structured text">Sheet.153</title><g id="shape154-366" transform="translate(2.33071,0)"><title content="structured text">Sheet.154</title><rect x="0" y="247.739" width="22.6772" height="28.3465" class="st4"/></g><g id="shape155-368" transform="translate(1.64429,-8.93858)"><title content="structured text">Sheet.155</title><desc content="structured text">SH0</desc><rect x="0" y="266.486" width="24.05" height="9.6" class="st2"/><text x="4.24" y="273.69" class="st3">SH0</text></g><g id="shape156-371" transform="translate(-0.025,-28.7811)"><title content="structured text">Sheet.156</title><desc content="structured text">13</desc><rect x="0" y="266.486" width="16.05" height="9.6" class="st2"/><text x="3.58" y="273.69" class="st3">13</text></g><g id="shape157-374" transform="translate(11.3136,-28.7811)"><title content="structured text">Sheet.157</title><desc content="structured text">12</desc><rect x="0" y="266.486" width="16.05" height="9.6" class="st2"/><text x="3.58" y="273.69" class="st3">12</text></g></g><g id="group158-377" transform="translate(226.772,0)"><title content="structured text">Sheet.158</title><g id="shape159-378" transform="translate(2.33071,0)"><title content="structured text">Sheet.159</title><rect x="0" y="247.739" width="22.6772" height="28.3465" class="st4"/></g><g id="shape160-380" transform="translate(-0.025,-28.7811)"><title content="structured text">Sheet.160</title><desc content="structured text">11</desc><rect x="0" y="266.486" width="16.05" height="9.6" class="st2"/><text x="3.58" y="273.69" class="st3">11</text></g><g id="shape161-383" transform="translate(11.3136,-28.7811)"><title content="structured text">Sheet.161</title><desc content="structured text">10</desc><rect x="0" y="266.486" width="16.05" height="9.6" class="st2"/><text x="3.58" y="273.69" class="st3">10</text></g></g><g id="group162-386" transform="translate(251.78,0)"><title content="structured text">Sheet.162</title><g id="shape163-387"><title content="structured text">Sheet.163</title><rect x="0" y="247.739" width="22.6772" height="28.3465" class="st4"/></g><g id="shape164-389" transform="translate(1.64429,-28.7811)"><title content="structured text">Sheet.164</title><desc content="structured text">9</desc><rect x="0" y="266.486" width="8.05" height="9.6" class="st2"/><text x="1.8" y="273.69" class="st3">9</text></g><g id="shape165-392" transform="translate(12.9829,-28.7811)"><title content="structured text">Sheet.165</title><desc content="structured text">8</desc><rect x="0" y="266.486" width="8.05" height="9.6" class="st2"/><text x="1.8" y="273.69" class="st3">8</text></g></g><g id="group166-395" transform="translate(274.457,0)"><title content="structured text">Sheet.166</title><g id="shape167-396"><title content="structured text">Sheet.167</title><rect x="0" y="247.739" width="11.3386" height="28.3465" class="st4"/></g><g id="shape168-398" transform="translate(1.64429,-28.7811)"><title content="structured text">Sheet.168</title><desc content="structured text">7</desc><rect x="0" y="266.486" width="8.05" height="9.6" class="st2"/><text x="1.8" y="273.69" class="st3">7</text></g></g><g id="group169-401" transform="translate(285.795,0)"><title content="structured text">Sheet.169</title><g id="shape170-402"><title content="structured text">Sheet.170</title><rect x="0" y="247.739" width="11.3386" height="28.3465" class="st1"/></g><g id="shape171-404" transform="translate(1.64429,-28.7811)"><title content="structured text">Sheet.171</title><desc content="structured text">6</desc><rect x="0" y="266.486" width="8.05" height="9.6" class="st2"/><text x="1.8" y="273.69" class="st3">6</text></g></g><g id="group172-407" transform="translate(297.134,0)"><title content="structured text">Sheet.172</title><g id="shape173-408"><title content="structured text">Sheet.173</title><rect x="0" y="247.739" width="68.0315" height="28.3465" class="st4"/></g><g id="shape174-410" transform="translate(17.9907,-8.93858)"><title content="structured text">Sheet.174</title><desc content="structured text">T0SZ</desc><rect x="0" y="266.486" width="32.05" height="9.6" class="st2"/><text x="6.25" y="273.69" class="st3">T0SZ</text></g><g id="shape175-413" transform="translate(1.64429,-28.7811)"><title content="structured text">Sheet.175</title><desc content="structured text">5</desc><rect x="0" y="266.486" width="8.05" height="9.6" class="st2"/><text x="1.8" y="273.69" class="st3">5</text></g><g id="shape176-416" transform="translate(58.3372,-28.7811)"><title content="structured text">Sheet.176</title><desc content="structured text">0</desc><rect x="0" y="266.486" width="8.05" height="9.6" class="st2"/><text x="1.8" y="273.69" class="st3">0</text></g></g><g id="shape177-419" transform="translate(-273.755,247.739) rotate(-90)"><title content="structured text">Sheet.177</title><path d="M0 276.09 L11.34 276.09" class="st5"/></g><g id="shape178-422" transform="translate(-228.401,247.739) rotate(-90)"><title content="structured text">Sheet.178</title><path d="M0 276.09 L11.34 276.09" class="st5"/></g><g id="shape179-425" transform="translate(-183.046,247.739) rotate(-90)"><title content="structured text">Sheet.179</title><path d="M0 276.09 L11.34 276.09" class="st5"/></g><g id="shape180-428" transform="translate(-137.692,247.739) rotate(-90)"><title content="structured text">Sheet.180</title><path d="M0 276.09 L11.34 276.09" class="st5"/></g><g id="shape181-431" transform="translate(-92.3376,247.739) rotate(-90)"><title content="structured text">Sheet.181</title><path d="M0 276.09 L11.34 276.09" class="st5"/></g><g id="shape182-434" transform="translate(-46.9833,247.739) rotate(-90)"><title content="structured text">Sheet.182</title><path d="M0 276.09 L11.34 276.09" class="st5"/></g><g id="shape183-437" transform="translate(-1.62894,247.739) rotate(-90)"><title content="structured text">Sheet.183</title><path d="M0 276.09 L11.34 276.09" class="st5"/></g><g id="shape184-440" transform="translate(43.7254,247.739) rotate(-90)"><title content="structured text">Sheet.184</title><path d="M0 276.09 L11.34 276.09" class="st5"/></g><g id="shape185-443" transform="translate(89.0797,247.739) rotate(-90)"><title content="structured text">Sheet.185</title><path d="M0 276.09 L11.34 276.09" class="st5"/></g></g><g id="group186-446" transform="translate(11.937,-21.6945)"><title content="structured text">Sheet.186</title><g id="shape187-447" transform="translate(-0.025,-19.8425)"><title content="structured text">Sheet.187</title><desc content="structured text">ORGN1</desc><rect x="0" y="266.486" width="40.05" height="9.6" class="st2"/><text x="11.6" y="273.69" class="st3">ORGN1</text></g><g id="shape188-450" transform="translate(323.172,241.087) rotate(90)"><title content="structured text">Sheet.188</title><path d="M0 276.09 L9.92 276.09" class="st6"/></g><g id="shape189-453" transform="translate(47.0866,527.094) rotate(180)"><title content="structured text">Sheet.189</title><path d="M0 276.09 L5.67 276.09" class="st6"/></g><g id="shape190-456" transform="translate(22.6522,-9.92126)"><title content="structured text">Sheet.190</title><desc content="structured text">IRGN1</desc><rect x="0" y="266.486" width="40.05" height="9.6" class="st2"/><text x="15.6" y="273.69" class="st3">IRGN1</text></g><g id="shape191-459" transform="translate(345.849,241.087) rotate(90)"><title content="structured text">Sheet.191</title><path d="M0 276.09 L19.84 276.09" class="st6"/></g><g id="shape192-462" transform="translate(69.7638,537.015) rotate(180)"><title content="structured text">Sheet.192</title><path d="M0 276.09 L5.67 276.09" class="st6"/></g><g id="shape193-465" transform="translate(55.66,1.7053E-013)"><title content="structured text">Sheet.193</title><desc content="structured text">EPD</desc><rect x="0" y="266.486" width="24.05" height="9.6" class="st2"/><text x="7.6" y="273.69" class="st3">EPD</text></g><g id="shape194-468" transform="translate(362.857,241.087) rotate(90)"><title content="structured text">Sheet.194</title><path d="M0 276.09 L29.76 276.09" class="st6"/></g><g id="shape195-471" transform="translate(86.7717,546.937) rotate(180)"><title content="structured text">Sheet.195</title><path d="M0 276.09 L5.67 276.09" class="st6"/></g><g id="shape196-474" transform="translate(235.566,1.7053E-013)"><title content="structured text">Sheet.196</title><desc content="structured text">ORGN0</desc><rect x="0" y="266.486" width="40.05" height="9.6" class="st2"/><text x="0" y="273.69" class="st3">ORGN0</text></g><g id="shape197-477" transform="translate(504.59,241.087) rotate(90)"><title content="structured text">Sheet.197</title><path d="M0 276.09 L29.76 276.09" class="st6"/></g><g id="shape198-480" transform="translate(228.504,-5.23465)"><title content="structured text">Sheet.198</title><path d="M0 276.09 L5.67 276.09" class="st6"/></g><g id="shape199-483" transform="translate(258.243,-9.92126)"><title content="structured text">Sheet.199</title><desc content="structured text">IRGN0</desc><rect x="0" y="266.486" width="40.05" height="9.6" class="st2"/><text x="0" y="273.69" class="st3">IRGN0</text></g><g id="shape200-486" transform="translate(527.267,241.087) rotate(90)"><title content="structured text">Sheet.200</title><path d="M0 276.09 L19.84 276.09" class="st6"/></g><g id="shape201-489" transform="translate(251.181,-15.1559)"><title content="structured text">Sheet.201</title><path d="M0 276.09 L5.67 276.09" class="st6"/></g><g id="shape202-492" transform="translate(275.251,-19.8425)"><title content="structured text">Sheet.202</title><desc content="structured text">EPD</desc><rect x="0" y="266.486" width="24.05" height="9.6" class="st2"/><text x="0" y="273.69" class="st3">EPD</text></g><g id="shape203-495" transform="translate(544.275,241.087) rotate(90)"><title content="structured text">Sheet.203</title><path d="M0 276.09 L9.92 276.09" class="st6"/></g><g id="shape204-498" transform="translate(268.189,-25.0772)"><title content="structured text">Sheet.204</title><path d="M0 276.09 L5.67 276.09" class="st6"/></g></g><g id="group205-501" transform="translate(2.33071,0)"><title content="structured text">Sheet.205</title><g id="shape206-502"><title content="structured text">Sheet.206</title><rect x="0" y="264.747" width="11.3386" height="11.3386" class="st7"/></g><g id="shape207-504" transform="translate(14.1482,-0.734646)"><title content="structured text">Sheet.207</title><desc content="structured text">RES0</desc><rect x="0" y="267.686" width="29.05" height="8.4" class="st2"/><text x="0" y="274.29" class="st8">RES<tspan class="st9">0</tspan></text></g></g></g></g></svg>