<?xml version="1.0" encoding="UTF-8" standalone="no"?><!-- Fixed up by svgfix.xsl 1.4  --><!-- Generated by Microsoft Visio 11.0, SVG Export, v1.0 midr_el1_bit_assignments.svg Page-1 -->
<!DOCTYPE svg
  PUBLIC "-//W3C//DTD SVG 1.0//EN" "http://www.w3.org/TR/2001/REC-SVG-20010904/DTD/svg10.dtd">
<svg xmlns:xlink="http://www.w3.org/1999/xlink" xmlns="http://www.w3.org/2000/svg" width="485.913" height="54.313" viewBox="0 0 364.435 40.735" xml:space="preserve" color-interpolation-filters="sRGB" class="st7" preserveAspectRatio="xMidYMid meet" zoomAndPan="magnify" version="1.0" contentScriptType="text/ecmascript" contentStyleType="text/css"><style type="text/css" xml:space="preserve"><![CDATA[
	
		.st1 {fill:none;stroke:none;stroke-linecap:round;stroke-linejoin:round;stroke-width:0.2px}
		.st2 {fill:#000000;font-family:Arial,Helvetica,sans-serif;font-size:0.666664em}
		.st3 {font-size:1em}
		.st4 {fill:none;visibility:hidden}
		.st5 {stroke:#000000;stroke-linecap:butt;stroke-width:0.8px}
		.st6 {stroke:#000000;stroke-dasharray:0.25,1;stroke-linecap:butt;stroke-width:0.25px}
		.st7 {fill:none;fill-rule:evenodd;font-size:12px;overflow:visible;stroke-linecap:square;stroke-miterlimit:3}]]></style><g xmlns:v="http://schemas.microsoft.com/visio/2003/SVGExtensions/"><title content="structured text">Page-1</title><g id="shape1-1" transform="translate(91.5087,-0.8)"><title content="structured text">Sheet.1</title><desc content="structured text">Variant</desc><rect x="0" y="12.3886" width="45.3543" height="28.3465" class="st1"/><text x="10" y="28.96" class="st2">Variant</text></g><g id="shape2-4" transform="translate(0.8,-0.8)"><title content="structured text">Sheet.2</title><desc content="structured text">Implementer</desc><rect x="0" y="12.3886" width="90.7087" height="28.3465" class="st1"/><text x="23.12" y="28.96" class="st2">Implementer</text></g><g id="shape3-7" transform="translate(0.8,-29.1465)"><title content="structured text">Sheet.3</title><desc content="structured text">31</desc><text x="1.22" y="37.47" class="st2">31</text></g><g id="shape4-9" transform="translate(91.5087,-29.1465)"><title content="structured text">Sheet.4</title><desc content="structured text">23</desc><text x="1.22" y="37.47" class="st2">23</text></g><g id="shape5-11" transform="translate(125.524,-29.1465)"><title content="structured text">Sheet.5</title><desc content="structured text">20</desc><text x="1.22" y="37.47" class="st2">20</text></g><g id="shape6-13" transform="translate(136.863,-29.1465)"><title content="structured text">Sheet.6</title><desc content="structured text">19</desc><text x="1.22" y="37.47" class="st2">19</text></g><g id="shape7-15" transform="translate(170.879,-29.1465)"><title content="structured text">Sheet.7</title><desc content="structured text">16</desc><text x="1.22" y="37.47" class="st2">16</text></g><g id="shape8-17" transform="translate(182.217,-29.1465)"><title content="structured text">Sheet.8</title><desc content="structured text">15</desc><text x="1.22" y="37.47" class="st2">15</text></g><g id="shape9-19" transform="translate(306.942,-29.1465)"><title content="structured text">Sheet.9</title><desc content="structured text">4</desc><text x="3.44" y="37.47" class="st2">4</text></g><g id="shape10-21" transform="translate(318.28,-29.1465)"><title content="structured text">Sheet.10</title><desc content="structured text">3</desc><text x="3.44" y="37.47" class="st2">3</text></g><g id="shape11-23" transform="translate(352.296,-29.1465)"><title content="structured text">Sheet.11</title><desc content="structured text">0</desc><text x="3.44" y="37.47" class="st2">0</text></g><g id="shape12-25" transform="translate(136.863,-0.8)"><title content="structured text">Sheet.12</title><desc content="structured text">Architecture</desc><rect x="0" y="12.3886" width="45.3543" height="28.3465" class="st1"/><text x="1.34" y="28.96" class="st2">Architecture</text></g><g id="shape13-28" transform="translate(182.217,-0.8)"><title content="structured text">Sheet.13</title><desc content="structured text">PartNum</desc><rect x="0" y="12.3886" width="136.063" height="28.3465" class="st1"/><text x="52.25" y="28.96" class="st2">P<tspan class="st3">art</tspan>N<tspan class="st3">um</tspan></text></g><g id="shape14-33" transform="translate(318.28,-0.8)"><title content="structured text">Sheet.14</title><desc content="structured text">Revision</desc><rect x="0" y="12.3886" width="45.3543" height="28.3465" class="st1"/><text x="7.34" y="28.96" class="st2">Revision</text></g><g id="shape15-36" transform="translate(0.8,-0.8)"><title content="structured text">Sheet.15</title><rect x="0" y="12.3886" width="362.835" height="28.3465" class="st4"/><rect x="0" y="12.3886" width="362.835" height="28.3465" class="st5"/></g><g id="shape16-39" transform="translate(91.5087,-0.8)"><title content="structured text">Sheet.16</title><path d="M0 12.39 L0 40.74" class="st5"/></g><g id="shape17-42" transform="translate(136.863,-0.8)"><title content="structured text">Sheet.17</title><path d="M0 12.39 L0 40.74" class="st5"/></g><g id="shape18-45" transform="translate(182.217,-0.8)"><title content="structured text">Sheet.18</title><path d="M0 12.39 L0 40.74" class="st5"/></g><g id="shape19-48" transform="translate(318.28,-0.8)"><title content="structured text">Sheet.19</title><path d="M0 12.39 L0 40.74" class="st5"/></g><g id="shape20-51" transform="translate(41.535,0.25) rotate(90)"><title content="structured text">Time division.56</title><path d="M0 40.74 L11.34 40.74" class="st6"/></g><g id="shape21-54" transform="translate(86.8894,0.25) rotate(90)"><title content="structured text">Time division.26</title><path d="M0 40.74 L11.34 40.74" class="st6"/></g><g id="shape22-57" transform="translate(132.244,0.25) rotate(90)"><title content="structured text">Time division.27</title><path d="M0 40.74 L11.34 40.74" class="st6"/></g><g id="shape23-60" transform="translate(177.598,0.25) rotate(90)"><title content="structured text">Time division.31</title><path d="M0 40.74 L11.34 40.74" class="st6"/></g><g id="shape24-63" transform="translate(222.952,0.25) rotate(90)"><title content="structured text">Time division.50</title><path d="M0 40.74 L11.34 40.74" class="st6"/></g><g id="shape25-66" transform="translate(268.307,0.25) rotate(90)"><title content="structured text">Time division.51</title><path d="M0 40.74 L11.34 40.74" class="st6"/></g><g id="shape26-69" transform="translate(313.661,0.25) rotate(90)"><title content="structured text">Sheet.26</title><path d="M0 40.74 L11.34 40.74" class="st6"/></g><g id="shape27-72" transform="translate(359.015,0.25) rotate(90)"><title content="structured text">Sheet.27</title><path d="M0 40.74 L11.34 40.74" class="st6"/></g><g id="shape28-75" transform="translate(404.37,0.25) rotate(90)"><title content="structured text">Sheet.28</title><path d="M0 40.74 L11.34 40.74" class="st6"/></g><g id="shape29-78" transform="translate(80.1701,-29.1465)"><title content="structured text">Sheet.29</title><desc content="structured text">24</desc><text x="1.22" y="37.47" class="st2">24</text></g></g></svg>