<?xml version="1.0" encoding="UTF-8" standalone="no"?><!-- Fixed up by svgfix.xsl 1.4  --><!-- Generated by Microsoft Visio 11.0, SVG Export, v1.0 trcstatr_bit_assignments.svg ARM -->
<!DOCTYPE svg
  PUBLIC "-//W3C//DTD SVG 1.0//EN" "http://www.w3.org/TR/2001/REC-SVG-20010904/DTD/svg10.dtd">
<svg xmlns:xlink="http://www.w3.org/1999/xlink" xmlns="http://www.w3.org/2000/svg" xmlns:ev="http://www.w3.org/2001/xml-events" width="530.411" height="119.006" viewBox="0 0 397.808 89.255" xml:space="preserve" color-interpolation-filters="sRGB" class="st13" preserveAspectRatio="xMidYMid meet" zoomAndPan="magnify" version="1.0" contentScriptType="text/ecmascript" contentStyleType="text/css"><style type="text/css" xml:space="preserve"><![CDATA[
	
		.st1 {fill:#ffffff;stroke:none;stroke-linecap:round;stroke-linejoin:round;stroke-width:0.2px}
		.st2 {fill:#000000;font-family:Arial,Helvetica,sans-serif;font-size:0.666664em}
		.st3 {fill:#ffffff;visibility:hidden}
		.st4 {stroke:#000000;stroke-linecap:butt;stroke-width:0.8px}
		.st5 {stroke:#000000;stroke-dasharray:0.25,1;stroke-linecap:butt;stroke-width:0.25px}
		.st6 {stroke:#000000;stroke-linecap:butt;stroke-width:0.5px}
		.st7 {fill:none;stroke:none;stroke-linecap:butt;stroke-width:0.5px}
		.st8 {fill:none;stroke:none;stroke-linecap:butt;stroke-width:0.499999px}
		.st9 {fill:#000000;font-family:Arial,Helvetica,sans-serif;font-size:0.533318em}
		.st10 {font-size:1.25003em}
		.st11 {fill:#eed9b3;stroke:none;stroke-linecap:round;stroke-linejoin:round;stroke-width:0.2px}
		.st12 {fill:#eed9b3;stroke:#000000;stroke-linecap:butt;stroke-width:0.5px}
		.st13 {fill:none;fill-rule:evenodd;font-size:12px;overflow:visible;stroke-linecap:square;stroke-miterlimit:3}]]></style><g xmlns:v="http://schemas.microsoft.com/visio/2003/SVGExtensions/"><title content="structured text">ARM</title><g id="shape1-1" transform="translate(363.635,-37.9811)"><title content="structured text">Sheet.1</title><rect x="0" y="60.9083" width="11.3386" height="28.3465" class="st1"/></g><g id="shape2-3" transform="translate(12.1386,-37.9811)"><title content="structured text">Sheet.2</title><rect x="0" y="60.9083" width="11.3386" height="28.3465" class="st1"/></g><g id="shape3-5" transform="translate(12.1386,-66.3276)"><title content="structured text">Sheet.3</title><desc content="structured text">31</desc><text x="1.22" y="85.99" class="st2">31</text></g><g id="shape33-7" transform="translate(352.296,-66.3276)"><title content="structured text">Sheet.33</title><desc content="structured text">1</desc><text x="3.44" y="85.99" class="st2">1</text></g><g id="shape34-9" transform="translate(363.635,-66.3276)"><title content="structured text">Sheet.34</title><desc content="structured text">0</desc><text x="3.44" y="85.99" class="st2">0</text></g><g id="shape35-11" transform="translate(23.4772,-37.9811)"><title content="structured text">Sheet.35</title><rect x="0" y="60.9083" width="11.3386" height="28.3465" class="st1"/></g><g id="shape36-13" transform="translate(34.8157,-37.9811)"><title content="structured text">Sheet.36</title><rect x="0" y="60.9083" width="11.3386" height="28.3465" class="st1"/></g><g id="shape37-15" transform="translate(46.1543,-37.9811)"><title content="structured text">Sheet.37</title><rect x="0" y="60.9083" width="11.3386" height="28.3465" class="st1"/></g><g id="shape38-17" transform="translate(57.4929,-37.9811)"><title content="structured text">Sheet.38</title><rect x="0" y="60.9083" width="11.3386" height="28.3465" class="st1"/></g><g id="shape39-19" transform="translate(68.8315,-37.9811)"><title content="structured text">Sheet.39</title><rect x="0" y="60.9083" width="11.3386" height="28.3465" class="st1"/></g><g id="shape40-21" transform="translate(80.1701,-37.9811)"><title content="structured text">Sheet.40</title><rect x="0" y="60.9083" width="11.3386" height="28.3465" class="st1"/></g><g id="shape41-23" transform="translate(91.5087,-37.9811)"><title content="structured text">Sheet.41</title><rect x="0" y="60.9083" width="11.3386" height="28.3465" class="st1"/></g><g id="shape42-25" transform="translate(102.847,-37.9811)"><title content="structured text">Sheet.42</title><rect x="0" y="60.9083" width="11.3386" height="28.3465" class="st1"/></g><g id="shape43-27" transform="translate(114.186,-37.9811)"><title content="structured text">Sheet.43</title><rect x="0" y="60.9083" width="11.3386" height="28.3465" class="st1"/></g><g id="shape44-29" transform="translate(125.524,-37.9811)"><title content="structured text">Sheet.44</title><rect x="0" y="60.9083" width="11.3386" height="28.3465" class="st1"/></g><g id="shape45-31" transform="translate(136.863,-37.9811)"><title content="structured text">Sheet.45</title><rect x="0" y="60.9083" width="11.3386" height="28.3465" class="st1"/></g><g id="shape46-33" transform="translate(148.202,-37.9811)"><title content="structured text">Sheet.46</title><rect x="0" y="60.9083" width="11.3386" height="28.3465" class="st1"/></g><g id="shape47-35" transform="translate(159.54,-37.9811)"><title content="structured text">Sheet.47</title><rect x="0" y="60.9083" width="11.3386" height="28.3465" class="st1"/></g><g id="shape48-37" transform="translate(170.879,-37.9811)"><title content="structured text">Sheet.48</title><rect x="0" y="60.9083" width="11.3386" height="28.3465" class="st1"/></g><g id="shape49-39" transform="translate(182.217,-37.9811)"><title content="structured text">Sheet.49</title><rect x="0" y="60.9083" width="11.3386" height="28.3465" class="st1"/></g><g id="shape50-41" transform="translate(193.556,-37.9811)"><title content="structured text">Sheet.50</title><rect x="0" y="60.9083" width="11.3386" height="28.3465" class="st1"/></g><g id="shape51-43" transform="translate(204.894,-37.9811)"><title content="structured text">Sheet.51</title><rect x="0" y="60.9083" width="11.3386" height="28.3465" class="st1"/></g><g id="shape52-45" transform="translate(216.233,-37.9811)"><title content="structured text">Sheet.52</title><rect x="0" y="60.9083" width="11.3386" height="28.3465" class="st1"/></g><g id="shape53-47" transform="translate(227.572,-37.9811)"><title content="structured text">Sheet.53</title><rect x="0" y="60.9083" width="11.3386" height="28.3465" class="st1"/></g><g id="shape54-49" transform="translate(238.91,-37.9811)"><title content="structured text">Sheet.54</title><rect x="0" y="60.9083" width="11.3386" height="28.3465" class="st1"/></g><g id="shape55-51" transform="translate(250.249,-37.9811)"><title content="structured text">Sheet.55</title><rect x="0" y="60.9083" width="11.3386" height="28.3465" class="st1"/></g><g id="shape56-53" transform="translate(261.587,-37.9811)"><title content="structured text">Sheet.56</title><rect x="0" y="60.9083" width="11.3386" height="28.3465" class="st1"/></g><g id="shape57-55" transform="translate(272.926,-37.9811)"><title content="structured text">Sheet.57</title><rect x="0" y="60.9083" width="11.3386" height="28.3465" class="st1"/></g><g id="shape58-57" transform="translate(284.265,-37.9811)"><title content="structured text">Sheet.58</title><rect x="0" y="60.9083" width="11.3386" height="28.3465" class="st1"/></g><g id="shape59-59" transform="translate(295.603,-37.9811)"><title content="structured text">Sheet.59</title><rect x="0" y="60.9083" width="11.3386" height="28.3465" class="st1"/></g><g id="shape60-61" transform="translate(306.942,-37.9811)"><title content="structured text">Sheet.60</title><rect x="0" y="60.9083" width="11.3386" height="28.3465" class="st1"/></g><g id="shape61-63" transform="translate(318.28,-37.9811)"><title content="structured text">Sheet.61</title><rect x="0" y="60.9083" width="11.3386" height="28.3465" class="st1"/></g><g id="shape62-65" transform="translate(329.619,-37.9811)"><title content="structured text">Sheet.62</title><rect x="0" y="60.9083" width="11.3386" height="28.3465" class="st1"/></g><g id="shape63-67" transform="translate(340.957,-37.9811)"><title content="structured text">Sheet.63</title><rect x="0" y="60.9083" width="11.3386" height="28.3465" class="st1"/></g><g id="shape64-69" transform="translate(352.296,-37.9811)"><title content="structured text">Sheet.64</title><rect x="0" y="60.9083" width="11.3386" height="28.3465" class="st1"/></g><g id="shape65-71" transform="translate(12.1386,-37.9811)"><title content="structured text">Sheet.65</title><rect x="0" y="60.9083" width="362.835" height="28.3465" class="st3"/><rect x="0" y="60.9083" width="362.835" height="28.3465" class="st4"/></g><g id="shape66-74" transform="translate(363.635,-37.9811)"><title content="structured text">Sheet.66</title><path d="M0 60.91 L0 89.25" class="st4"/></g><g id="shape67-77" transform="translate(418.874,11.5886) rotate(90)"><title content="structured text">Signal 0</title><path d="M0 89.25 L11.34 89.25" class="st5"/></g><g id="shape68-80" transform="translate(373.519,11.5886) rotate(90)"><title content="structured text">Signal 0.102</title><path d="M0 89.25 L11.34 89.25" class="st5"/></g><g id="shape69-83" transform="translate(328.165,11.5886) rotate(90)"><title content="structured text">Signal 0.103</title><path d="M0 89.25 L11.34 89.25" class="st5"/></g><g id="shape70-86" transform="translate(282.811,11.5886) rotate(90)"><title content="structured text">Signal 0.104</title><path d="M0 89.25 L11.34 89.25" class="st5"/></g><g id="shape71-89" transform="translate(237.456,11.5886) rotate(90)"><title content="structured text">Signal 0.105</title><path d="M0 89.25 L11.34 89.25" class="st5"/></g><g id="shape72-92" transform="translate(192.102,11.5886) rotate(90)"><title content="structured text">Signal 0.106</title><path d="M0 89.25 L11.34 89.25" class="st5"/></g><g id="shape73-95" transform="translate(146.748,11.5886) rotate(90)"><title content="structured text">Signal 0.107</title><path d="M0 89.25 L11.34 89.25" class="st5"/></g><g id="shape74-98" transform="translate(101.393,11.5886) rotate(90)"><title content="structured text">Signal 0.108</title><path d="M0 89.25 L11.34 89.25" class="st5"/></g><g id="shape75-101" transform="translate(464.228,11.5886) rotate(90)"><title content="structured text">Signal 0.109</title><path d="M0 89.25 L11.34 89.25" class="st5"/></g><g id="shape76-104" transform="translate(369.304,-35.1465)"><title content="structured text">Dynamic connector</title><path d="M0 89.25 L-0 106.26 L-22.68 106.26" class="st6"/></g><g id="shape77-107" transform="translate(326.784,-14.0283)"><title content="structured text">Sheet.77</title><desc content="structured text">IDLE</desc><rect x="0" y="81.0343" width="19.8425" height="8.22047" class="st7"/><text x="1.03" y="87.54" class="st2">IDLE</text></g><g id="shape79-110" transform="translate(340.957,-66.3276)"><title content="structured text">Sheet.79</title><desc content="structured text">2</desc><text x="3.44" y="85.99" class="st2">2</text></g><g id="shape80-112" transform="translate(352.296,-37.9811)"><title content="structured text">Sheet.80</title><path d="M0 60.91 L0 89.25" class="st4"/></g><g id="shape81-115" transform="translate(359.383,-39.3984)"><title content="structured text">Dynamic connector.69</title><path d="M-1.42 93.51 L-1.42 99.18 L-12.76 99.18" class="st6"/></g><g id="shape82-118" transform="translate(301.272,-25.3669)"><title content="structured text">Sheet.82</title><desc content="structured text">PMSTABLE</desc><rect x="0" y="81.0343" width="45.3543" height="8.22047" class="st7"/><text x="1.68" y="87.54" class="st2">PMSTABLE</text></g><g id="shape83-121" transform="translate(22.5786,-15.3039)"><title content="structured text">Rectangle No Fill No Fill.116</title><desc content="structured text">res0</desc><rect x="0" y="77.9162" width="19.8425" height="11.3386" class="st8"/><text x="1.24" y="85.99" class="st9">RES<tspan class="st10">0</tspan></text></g><g id="shape84-125" transform="translate(12.1386,-15.3039)"><title content="structured text">Graphic.117</title><rect x="0" y="77.9162" width="10.44" height="11.3386" class="st11"/></g><g id="shape78-127" transform="translate(12.189,-37.9843)"><title content="structured text">Sheet.78</title><rect x="0" y="60.9083" width="340.157" height="28.3465" class="st12"/></g></g></svg>