<?xml version="1.0" encoding="UTF-8" standalone="no"?><!-- Fixed up by svgfix.xsl 1.4  --><!-- Generated by Microsoft Visio 11.0, SVG Export, v1.0 lau1469111419711_low res.svg ARM -->
<!DOCTYPE svg
  PUBLIC "-//W3C//DTD SVG 1.0//EN" "http://www.w3.org/TR/2001/REC-SVG-20010904/DTD/svg10.dtd">
<svg xmlns:xlink="http://www.w3.org/1999/xlink" xmlns="http://www.w3.org/2000/svg" xmlns:ev="http://www.w3.org/2001/xml-events" width="564.313" height="182.671" viewBox="0 0 423.235 137.003" xml:space="preserve" color-interpolation-filters="sRGB" class="st13" preserveAspectRatio="xMidYMid meet" zoomAndPan="magnify" version="1.0" contentScriptType="text/ecmascript" contentStyleType="text/css"><style type="text/css" xml:space="preserve"><![CDATA[
	
		.st1 {fill:#eed9b3;stroke:none;stroke-linecap:round;stroke-linejoin:round;stroke-width:0.2px}
		.st2 {fill:#000000;font-family:Arial,Helvetica,sans-serif;font-size:0.666664em}
		.st3 {fill:#ffffff;visibility:hidden}
		.st4 {stroke:#000000;stroke-linecap:butt;stroke-width:0.8px}
		.st5 {stroke:#000000;stroke-dasharray:0.25,1;stroke-linecap:butt;stroke-width:0.25px}
		.st6 {fill:none}
		.st7 {stroke:#000000;stroke-linecap:butt;stroke-width:0.799997px}
		.st8 {stroke:#000000;stroke-linecap:butt;stroke-width:0.5px}
		.st9 {fill:none;stroke:none;stroke-linecap:butt;stroke-width:0.499999px}
		.st10 {fill:#000000;font-family:Arial,Helvetica,sans-serif;font-size:0.533318em}
		.st11 {font-size:1.25003em}
		.st12 {fill:none;stroke:none;stroke-linecap:round;stroke-linejoin:round;stroke-width:0.2px}
		.st13 {fill:none;fill-rule:evenodd;font-size:12px;overflow:visible;stroke-linecap:square;stroke-miterlimit:3}]]></style><g xmlns:v="http://schemas.microsoft.com/visio/2003/SVGExtensions/"><title content="structured text">ARM</title><g id="shape36-1" transform="translate(340.157,-85.1523)"><title content="structured text">Graphic.36</title><rect x="0" y="108.769" width="11.3386" height="28.2335" class="st1"/></g><g id="shape1-3" transform="translate(272.998,-85.9793)"><title content="structured text">Graphic.48</title><rect x="0" y="108.769" width="45.3543" height="28.2335" class="st1"/></g><g id="shape2-5" transform="translate(171.024,-85.9793)"><title content="structured text">Graphic.260</title><rect x="0" y="108.769" width="90.6362" height="28.2335" class="st1"/></g><g id="shape3-7" transform="translate(12.1386,-113.886)"><title content="structured text">Bit31</title><desc content="structured text">31</desc><text x="1.22" y="133.73" class="st2">31</text></g><g id="shape4-9" transform="translate(12.1386,-85.5394)"><title content="structured text">MainOutline+Bit00</title><desc content="structured text">0</desc><rect x="0" y="108.656" width="362.835" height="28.3465" class="st3"/><rect x="0" y="108.656" width="362.835" height="28.3465" class="st4"/><text x="354.94" y="105.39" class="st2">0</text></g><g id="shape5-13" transform="translate(466.622,11.7785) rotate(90)"><title content="structured text">Signal 0.48</title><path d="M0 137 L11.34 137" class="st5"/></g><g id="shape6-16" transform="translate(421.268,11.7785) rotate(90)"><title content="structured text">Signal 0.49</title><path d="M0 137 L11.34 137" class="st5"/></g><g id="shape7-19" transform="translate(375.913,11.7785) rotate(90)"><title content="structured text">Signal 0.50</title><path d="M0 137 L11.34 137" class="st5"/></g><g id="shape8-22" transform="translate(330.559,11.7785) rotate(90)"><title content="structured text">Signal 0.51</title><path d="M0 137 L11.34 137" class="st5"/></g><g id="shape9-25" transform="translate(285.205,11.7785) rotate(90)"><title content="structured text">Signal 0.52</title><path d="M0 137 L11.34 137" class="st5"/></g><g id="shape10-28" transform="translate(239.85,11.7785) rotate(90)"><title content="structured text">Signal 0.53</title><path d="M0 137 L11.34 137" class="st5"/></g><g id="shape11-31" transform="translate(194.496,11.7785) rotate(90)"><title content="structured text">Signal 0.54</title><path d="M0 137 L11.34 137" class="st5"/></g><g id="shape12-34" transform="translate(149.142,11.7785) rotate(90)"><title content="structured text">Signal 0.55</title><path d="M0 137 L11.34 137" class="st5"/></g><g id="shape13-37" transform="translate(511.976,11.7785) rotate(90)"><title content="structured text">Signal 0.56</title><path d="M0 137 L11.34 137" class="st5"/></g><g id="shape14-40" transform="translate(12.1386,-85.5394)"><title content="structured text">Sheet.14</title><path d="M0 137 L0 108.66" class="st4"/><path d="M362.83 137 L362.83 108.66" class="st4"/></g><g id="shape15-44" transform="translate(352.296,-113.886)"><title content="structured text">Bit31.14</title><desc content="structured text">1</desc><text x="3.44" y="133.73" class="st2">1</text></g><g id="shape16-46" transform="translate(340.957,-113.886)"><title content="structured text">Bit31.15</title><desc content="structured text">2</desc><text x="3.44" y="133.73" class="st2">2</text></g><g id="shape17-48" transform="translate(306.942,-113.886)"><title content="structured text">Bit31.16</title><desc content="structured text">5</desc><text x="3.44" y="133.73" class="st2">5</text></g><g id="shape20-50" transform="translate(272.926,-113.886)"><title content="structured text">Bit31.19</title><desc content="structured text">8</desc><text x="3.44" y="133.73" class="st2">8</text></g><g id="shape21-52" transform="translate(250.249,-113.886)"><title content="structured text">Bit31.20</title><desc content="structured text">10</desc><text x="1.22" y="133.73" class="st2">10</text></g><g id="shape25-54" transform="translate(159.613,-114.326)"><title content="structured text">Bit31.24</title><desc content="structured text">18</desc><text x="1.22" y="133.73" class="st2">18</text></g><g id="shape26-56" transform="translate(102.92,-114.326)"><title content="structured text">Bit31.25</title><desc content="structured text">23</desc><text x="1.22" y="133.73" class="st2">23</text></g><g id="shape27-58" transform="translate(363.635,-85.5394)"><title content="structured text">Graphic.37</title><path d="M0 108.65 L0 137 L0 108.65 Z" class="st6"/><path d="M0 108.65 L0 137" class="st7"/></g><g id="shape28-61" transform="translate(352.296,-85.5394)"><title content="structured text">Graphic.27</title><path d="M0 108.65 L0 137 L0 108.65 Z" class="st6"/><path d="M0 108.65 L0 137" class="st7"/></g><g id="shape34-64" transform="translate(170.951,-85.9759)"><title content="structured text">Graphic.35</title><path d="M0 108.65 L0 137 L0 108.65 Z" class="st6"/><path d="M0 108.65 L0 137" class="st7"/></g><g id="shape35-67" transform="translate(380.643,-77.0354) scale(-1,1)"><title content="structured text">Bit name 2</title><desc content="structured text">VENG0</desc><path d="M11.34 131.33 L11.34 137 L0 137" class="st8"/><text x="1" y="139.4" transform="scale(-1,1)" class="st2">VENG0</text></g><g id="shape37-71" transform="translate(380.715,-43.4596) scale(-1,1)"><title content="structured text">Bit name 2.37</title><desc content="structured text">VFIQEn</desc><path d="M45.35 97.32 L45.35 137 L0 137" class="st8"/><text x="1" y="139.4" transform="scale(-1,1)" class="st2">VFIQEn</text></g><g id="shape38-75" transform="translate(380.715,-32.1211) scale(-1,1)"><title content="structured text">Bit name 2.41</title><desc content="structured text">VCBPR</desc><path d="M56.69 85.98 L56.69 137 L0 137" class="st8"/><text x="1" y="139.4" transform="scale(-1,1)" class="st2">VCBPR</text></g><g id="group40-79" transform="translate(14.9732,-11.8386)"><title content="structured text">Sheet.40</title><g id="shape41-80" transform="translate(11.3386,0)"><title content="structured text">Rectangle No Fill No Fill.116</title><desc content="structured text">res0</desc><rect x="0" y="125.664" width="22.6772" height="11.3386" class="st9"/><text x="3.07" y="133.73" class="st10">RES<tspan class="st11">0</tspan></text></g><g id="shape42-84"><title content="structured text">Graphic.117</title><rect x="0" y="125.664" width="11.3386" height="11.3386" class="st1"/></g></g><g id="shape43-86" transform="translate(340.203,-85.5359)"><title content="structured text">Graphic.47</title><path d="M0 108.65 L0 137 L0 108.65 Z" class="st6"/><path d="M0 108.65 L0 137" class="st7"/></g><g id="shape44-89" transform="translate(329.619,-113.886)"><title content="structured text">Bit31.48</title><desc content="structured text">3</desc><text x="3.44" y="133.73" class="st2">3</text></g><g id="shape45-91" transform="translate(329.619,-85.5359)"><title content="structured text">Graphic.49</title><path d="M0 108.65 L0 137 L0 108.65 Z" class="st6"/><path d="M0 108.65 L0 137" class="st7"/></g><g id="shape46-94" transform="translate(318.28,-85.5359)"><title content="structured text">Graphic.50</title><path d="M0 108.65 L0 137 L0 108.65 Z" class="st6"/><path d="M0 108.65 L0 137" class="st7"/></g><g id="shape47-97" transform="translate(318.28,-113.886)"><title content="structured text">Bit31.51</title><desc content="structured text">4</desc><text x="3.44" y="133.73" class="st2">4</text></g><g id="shape49-99" transform="translate(380.715,-20.7825) scale(-1,1)"><title content="structured text">Bit name 2.53</title><desc content="structured text">VEOIM</desc><path d="M113.39 74.64 L113.39 137 L0 137" class="st8"/><text x="1" y="139.4" transform="scale(-1,1)" class="st2">VEOIM</text></g><g id="shape50-103" transform="translate(261.587,-85.5359)"><title content="structured text">Graphic.40</title><path d="M0 108.65 L0 137 L0 108.65 Z" class="st6"/><path d="M0 108.65 L0 137" class="st7"/></g><g id="shape55-106" transform="translate(102.92,-85.9759)"><title content="structured text">Graphic.57</title><path d="M0 108.65 L0 137 L0 108.65 Z" class="st6"/><path d="M0 108.65 L0 137" class="st7"/></g><g id="shape56-109" transform="translate(125.597,-114.326)"><title content="structured text">Bit31.58</title><desc content="structured text">21</desc><text x="1.22" y="133.73" class="st2">21</text></g><g id="shape57-111" transform="translate(12.1386,-86.4843)"><title content="structured text">Rectangle No Fill No Fill.33</title><desc content="structured text">C</desc><rect x="0" y="109.601" width="90.7811" height="27.4016" class="st12"/><text x="33.83" y="125.7" class="st2">VPMR</text></g><g id="shape62-114" transform="translate(91.5811,-114.326)"><title content="structured text">Bit31.62</title><desc content="structured text">24</desc><text x="1.22" y="133.73" class="st2">24</text></g><g id="shape63-116" transform="translate(136.935,-85.9759)"><title content="structured text">Graphic.63</title><path d="M0 108.65 L0 137 L0 108.65 Z" class="st6"/><path d="M0 108.65 L0 137" class="st7"/></g><g id="shape64-119" transform="translate(102.92,-86.4518)"><title content="structured text">Rectangle No Fill No Fill.64</title><desc content="structured text">C</desc><rect x="0" y="109.601" width="34.0157" height="27.4016" class="st12"/><text x="3.89" y="125.7" class="st2">VBPR0</text></g><g id="shape65-122" transform="translate(136.935,-114.326)"><title content="structured text">Bit31.65</title><desc content="structured text">20</desc><text x="1.22" y="133.73" class="st2">20</text></g><g id="shape66-124" transform="translate(136.935,-86.4518)"><title content="structured text">Rectangle No Fill No Fill.66</title><desc content="structured text">C</desc><rect x="0" y="109.601" width="34.0157" height="27.4016" class="st12"/><text x="3.89" y="125.7" class="st2">VBPR1</text></g><g id="shape67-127" transform="translate(170.951,-114.326)"><title content="structured text">Bit31.67</title><desc content="structured text">17</desc><text x="1.22" y="133.73" class="st2">17</text></g><g id="shape22-129" transform="translate(261.66,-114.326)"><title content="structured text">Bit31.22</title><desc content="structured text">9</desc><text x="3.44" y="133.73" class="st2">9</text></g><g id="shape23-131" transform="translate(272.998,-85.9759)"><title content="structured text">Graphic.23</title><path d="M0 108.65 L0 137 L0 108.65 Z" class="st6"/><path d="M0 108.65 L0 137" class="st7"/></g><g id="shape18-134" transform="translate(380.715,-66.1368) scale(-1,1)"><title content="structured text">Bit name 2.18</title><desc content="structured text">VENG1</desc><path d="M22.68 120 L22.68 137 L0 137" class="st8"/><text x="1" y="139.4" transform="scale(-1,1)" class="st2">VENG1</text></g></g></svg>