<?xml version="1.0" encoding="UTF-8" standalone="no"?><!-- Fixed up by svgfix.xsl 1.4  --><!-- Generated by Microsoft Visio 11.0, SVG Export, v1.0 lau1469109121122_low res.svg ARM -->
<!DOCTYPE svg
  PUBLIC "-//W3C//DTD SVG 1.0//EN" "http://www.w3.org/TR/2001/REC-SVG-20010904/DTD/svg10.dtd">
<svg xmlns:xlink="http://www.w3.org/1999/xlink" xmlns="http://www.w3.org/2000/svg" xmlns:ev="http://www.w3.org/2001/xml-events" width="575.555" height="193.09" viewBox="0 0 431.666 144.817" xml:space="preserve" color-interpolation-filters="sRGB" class="st13" preserveAspectRatio="xMidYMid meet" zoomAndPan="magnify" version="1.0" contentScriptType="text/ecmascript" contentStyleType="text/css"><style type="text/css" xml:space="preserve"><![CDATA[
	
		.st1 {fill:#eed9b3;stroke:none;stroke-linecap:round;stroke-linejoin:round;stroke-width:0.2px}
		.st2 {fill:#000000;font-family:Arial,Helvetica,sans-serif;font-size:0.666664em}
		.st3 {fill:#ffffff;visibility:hidden}
		.st4 {stroke:#000000;stroke-linecap:butt;stroke-width:0.8px}
		.st5 {stroke:#000000;stroke-dasharray:0.25,1;stroke-linecap:butt;stroke-width:0.25px}
		.st6 {fill:none}
		.st7 {stroke:#000000;stroke-linecap:butt;stroke-width:0.799997px}
		.st8 {stroke:#000000;stroke-linecap:butt;stroke-width:0.5px}
		.st9 {fill:none;stroke:none;stroke-linecap:butt;stroke-width:0.499999px}
		.st10 {fill:#000000;font-family:Arial,Helvetica,sans-serif;font-size:0.533318em}
		.st11 {font-size:1.25003em}
		.st12 {fill:none;stroke:none;stroke-linecap:round;stroke-linejoin:round;stroke-width:0.2px}
		.st13 {fill:none;fill-rule:evenodd;font-size:12px;overflow:visible;stroke-linecap:square;stroke-miterlimit:3}]]></style><g xmlns:v="http://schemas.microsoft.com/visio/2003/SVGExtensions/"><title content="structured text">ARM</title><g id="shape1-1" transform="translate(261.587,-93.6562)"><title content="structured text">Graphic.48</title><rect x="0" y="116.583" width="22.6772" height="28.2335" class="st1"/></g><g id="shape3-3" transform="translate(68.8315,-93.5433)"><title content="structured text">Graphic.260</title><rect x="0" y="116.583" width="136.063" height="28.2335" class="st1"/></g><g id="shape4-5" transform="translate(12.1386,-121.89)"><title content="structured text">Bit31</title><desc content="structured text">31</desc><text x="1.22" y="141.55" class="st2">31</text></g><g id="shape5-7" transform="translate(12.1386,-93.5433)"><title content="structured text">MainOutline+Bit00</title><desc content="structured text">0</desc><rect x="0" y="116.47" width="362.835" height="28.3465" class="st3"/><rect x="0" y="116.47" width="362.835" height="28.3465" class="st4"/><text x="354.94" y="113.2" class="st2">0</text></g><g id="shape6-11" transform="translate(474.436,11.5886) rotate(90)"><title content="structured text">Signal 0.48</title><path d="M0 144.82 L11.34 144.82" class="st5"/></g><g id="shape7-14" transform="translate(429.081,11.5886) rotate(90)"><title content="structured text">Signal 0.49</title><path d="M0 144.82 L11.34 144.82" class="st5"/></g><g id="shape8-17" transform="translate(383.727,11.5886) rotate(90)"><title content="structured text">Signal 0.50</title><path d="M0 144.82 L11.34 144.82" class="st5"/></g><g id="shape9-20" transform="translate(338.373,11.5886) rotate(90)"><title content="structured text">Signal 0.51</title><path d="M0 144.82 L11.34 144.82" class="st5"/></g><g id="shape10-23" transform="translate(293.019,11.5886) rotate(90)"><title content="structured text">Signal 0.52</title><path d="M0 144.82 L11.34 144.82" class="st5"/></g><g id="shape11-26" transform="translate(247.664,11.5886) rotate(90)"><title content="structured text">Signal 0.53</title><path d="M0 144.82 L11.34 144.82" class="st5"/></g><g id="shape12-29" transform="translate(202.31,11.5886) rotate(90)"><title content="structured text">Signal 0.54</title><path d="M0 144.82 L11.34 144.82" class="st5"/></g><g id="shape13-32" transform="translate(156.956,11.5886) rotate(90)"><title content="structured text">Signal 0.55</title><path d="M0 144.82 L11.34 144.82" class="st5"/></g><g id="shape14-35" transform="translate(519.79,11.5886) rotate(90)"><title content="structured text">Signal 0.56</title><path d="M0 144.82 L11.34 144.82" class="st5"/></g><g id="shape15-38" transform="translate(12.1386,-93.5433)"><title content="structured text">Sheet.15</title><path d="M0 144.82 L0 116.47" class="st4"/><path d="M362.83 144.82 L362.83 116.47" class="st4"/></g><g id="shape16-42" transform="translate(352.296,-121.89)"><title content="structured text">Bit31.14</title><desc content="structured text">1</desc><text x="3.44" y="141.55" class="st2">1</text></g><g id="shape17-44" transform="translate(340.957,-121.89)"><title content="structured text">Bit31.15</title><desc content="structured text">2</desc><text x="3.44" y="141.55" class="st2">2</text></g><g id="shape18-46" transform="translate(306.942,-121.89)"><title content="structured text">Bit31.16</title><desc content="structured text">5</desc><text x="3.44" y="141.55" class="st2">5</text></g><g id="shape19-48" transform="translate(295.603,-121.89)"><title content="structured text">Bit31.17</title><desc content="structured text">6</desc><text x="3.44" y="141.55" class="st2">6</text></g><g id="shape20-50" transform="translate(284.265,-121.89)"><title content="structured text">Bit31.18</title><desc content="structured text">7</desc><text x="3.44" y="141.55" class="st2">7</text></g><g id="shape21-52" transform="translate(272.926,-121.89)"><title content="structured text">Bit31.19</title><desc content="structured text">8</desc><text x="3.44" y="141.55" class="st2">8</text></g><g id="shape22-54" transform="translate(250.249,-121.89)"><title content="structured text">Bit31.20</title><desc content="structured text">10</desc><text x="1.22" y="141.55" class="st2">10</text></g><g id="shape23-56" transform="translate(238.91,-121.89)"><title content="structured text">Bit31.21</title><desc content="structured text">11</desc><text x="1.22" y="141.55" class="st2">11</text></g><g id="shape24-58" transform="translate(216.233,-121.89)"><title content="structured text">Bit31.22</title><desc content="structured text">13</desc><text x="1.22" y="141.55" class="st2">13</text></g><g id="shape25-60" transform="translate(204.894,-121.89)"><title content="structured text">Bit31.23</title><desc content="structured text">14</desc><text x="1.22" y="141.55" class="st2">14</text></g><g id="shape26-62" transform="translate(193.556,-121.89)"><title content="structured text">Bit31.24</title><desc content="structured text">15</desc><text x="1.22" y="141.55" class="st2">15</text></g><g id="shape27-64" transform="translate(68.8315,-121.89)"><title content="structured text">Bit31.25</title><desc content="structured text">26</desc><text x="1.22" y="141.55" class="st2">26</text></g><g id="shape28-66" transform="translate(363.635,-93.5433)"><title content="structured text">Graphic.37</title><path d="M0 116.47 L0 144.82 L0 116.47 Z" class="st6"/><path d="M0 116.47 L0 144.82" class="st7"/></g><g id="shape29-69" transform="translate(352.296,-93.5433)"><title content="structured text">Graphic.27</title><path d="M0 116.47 L0 144.82 L0 116.47 Z" class="st6"/><path d="M0 116.47 L0 144.82" class="st7"/></g><g id="shape30-72" transform="translate(295.603,-93.5398)"><title content="structured text">Graphic.28</title><path d="M0 116.47 L0 144.82 L0 116.47 Z" class="st6"/><path d="M0 116.47 L0 144.82" class="st7"/></g><g id="shape31-75" transform="translate(306.942,-93.5398)"><title content="structured text">Graphic.30</title><path d="M0 116.47 L0 144.82 L0 116.47 Z" class="st6"/><path d="M0 116.47 L0 144.82" class="st7"/></g><g id="shape32-78" transform="translate(284.265,-93.5433)"><title content="structured text">Graphic.31</title><path d="M0 116.47 L0 144.82 L0 116.47 Z" class="st6"/><path d="M0 116.47 L0 144.82" class="st7"/></g><g id="shape33-81" transform="translate(250.249,-93.5398)"><title content="structured text">Graphic.32</title><path d="M0 116.47 L0 144.82 L0 116.47 Z" class="st6"/><path d="M0 116.47 L0 144.82" class="st7"/></g><g id="shape34-84" transform="translate(216.233,-93.5433)"><title content="structured text">Graphic.34</title><path d="M0 116.47 L0 144.82 L0 116.47 Z" class="st6"/><path d="M0 116.47 L0 144.82" class="st7"/></g><g id="shape35-87" transform="translate(204.894,-93.5398)"><title content="structured text">Graphic.35</title><path d="M0 116.47 L0 144.82 L0 116.47 Z" class="st6"/><path d="M0 116.47 L0 144.82" class="st7"/></g><g id="shape37-90" transform="translate(380.643,-85.0394) scale(-1,1)"><title content="structured text">Bit name 2</title><desc content="structured text">En</desc><path d="M11.34 139.15 L11.34 144.82 L0 144.82" class="st8"/><text x="1" y="147.22" transform="scale(-1,1)" class="st2">En</text></g><g id="shape38-94" transform="translate(380.643,-73.7008) scale(-1,1)"><title content="structured text">Bit name 2.37</title><desc content="structured text">UIE</desc><path d="M22.68 127.81 L22.68 144.82 L0 144.82" class="st8"/><text x="1" y="147.22" transform="scale(-1,1)" class="st2">UIE</text></g><g id="shape39-98" transform="translate(380.643,-51.0236) scale(-1,1)"><title content="structured text">Bit name 2.39</title><desc content="structured text">NPIE</desc><path d="M45.35 105.13 L45.35 144.82 L0 144.82" class="st8"/><text x="1" y="147.22" transform="scale(-1,1)" class="st2">NPIE</text></g><g id="shape42-102" transform="translate(380.643,-39.685) scale(-1,1)"><title content="structured text">Bit name 2.41</title><desc content="structured text">VGrp0EIE</desc><path d="M56.69 93.79 L56.69 144.82 L0 144.82" class="st8"/><text x="1" y="147.22" transform="scale(-1,1)" class="st2">VGrp0EIE</text></g><g id="shape43-106" transform="translate(380.643,-28.3465) scale(-1,1)"><title content="structured text">Bit name 2.42</title><desc content="structured text">VGrp0DIE</desc><path d="M68.03 82.45 L68.03 144.82 L0 144.82" class="st8"/><text x="1" y="147.22" transform="scale(-1,1)" class="st2">VGrp0DIE</text></g><g id="group44-110" transform="translate(14.9732,-19.8425)"><title content="structured text">Sheet.44</title><g id="shape45-111" transform="translate(11.3386,2.84217E-014)"><title content="structured text">Rectangle No Fill No Fill.116</title><desc content="structured text">res0</desc><rect x="0" y="133.478" width="22.6772" height="11.3386" class="st9"/><text x="3.07" y="141.55" class="st10">RES<tspan class="st11">0</tspan></text></g><g id="shape46-115"><title content="structured text">Graphic.117</title><rect x="0" y="133.478" width="11.3386" height="11.3386" class="st1"/></g></g><g id="shape47-117" transform="translate(340.203,-93.5398)"><title content="structured text">Graphic.47</title><path d="M0 116.47 L0 144.82 L0 116.47 Z" class="st6"/><path d="M0 116.47 L0 144.82" class="st7"/></g><g id="shape48-120" transform="translate(329.619,-121.89)"><title content="structured text">Bit31.48</title><desc content="structured text">3</desc><text x="3.44" y="141.55" class="st2">3</text></g><g id="shape49-122" transform="translate(329.619,-93.5398)"><title content="structured text">Graphic.49</title><path d="M0 116.47 L0 144.82 L0 116.47 Z" class="st6"/><path d="M0 116.47 L0 144.82" class="st7"/></g><g id="shape50-125" transform="translate(318.28,-93.5398)"><title content="structured text">Graphic.50</title><path d="M0 116.47 L0 144.82 L0 116.47 Z" class="st6"/><path d="M0 116.47 L0 144.82" class="st7"/></g><g id="shape51-128" transform="translate(318.28,-121.89)"><title content="structured text">Bit31.51</title><desc content="structured text">4</desc><text x="3.44" y="141.55" class="st2">4</text></g><g id="shape52-130" transform="translate(380.643,-17.0079) scale(-1,1)"><title content="structured text">Bit name 2.52</title><desc content="structured text">VGrp1EIE</desc><path d="M79.37 71.12 L79.37 144.82 L0 144.82" class="st8"/><text x="1" y="147.22" transform="scale(-1,1)" class="st2">VGrp1EIE</text></g><g id="shape53-134" transform="translate(380.643,-5.66929) scale(-1,1)"><title content="structured text">Bit name 2.53</title><desc content="structured text">VGrp1DIE</desc><path d="M90.71 59.78 L90.71 144.82 L0 144.82" class="st8"/><text x="1" y="147.22" transform="scale(-1,1)" class="st2">VGrp1DIE</text></g><g id="shape40-138" transform="translate(261.587,-93.5398)"><title content="structured text">Graphic.40</title><path d="M0 116.47 L0 144.82 L0 116.47 Z" class="st6"/><path d="M0 116.47 L0 144.82" class="st7"/></g><g id="shape54-141" transform="translate(199.225,-85.0394)"><title content="structured text">Bit name 1</title><desc content="structured text">TDIR</desc><path d="M11.34 139.15 L11.34 144.82 L0 144.82" class="st8"/><text x="-19.66" y="147.22" class="st2">TDIR</text></g><g id="shape41-145" transform="translate(238.91,-93.5433)"><title content="structured text">Graphic.41</title><path d="M0 116.47 L0 144.82 L0 116.47 Z" class="st6"/><path d="M0 116.47 L0 144.82" class="st7"/></g><g id="shape55-148" transform="translate(227.572,-93.5433)"><title content="structured text">Graphic.55</title><path d="M0 116.47 L0 144.82 L0 116.47 Z" class="st6"/><path d="M0 116.47 L0 144.82" class="st7"/></g><g id="shape56-151" transform="translate(227.572,-121.89)"><title content="structured text">Bit31.56</title><desc content="structured text">12</desc><text x="1.22" y="141.55" class="st2">12</text></g><g id="shape57-153" transform="translate(68.8315,-93.5433)"><title content="structured text">Graphic.57</title><path d="M0 116.47 L0 144.82 L0 116.47 Z" class="st6"/><path d="M0 116.47 L0 144.82" class="st7"/></g><g id="shape58-156" transform="translate(57.4929,-121.89)"><title content="structured text">Bit31.58</title><desc content="structured text">27</desc><text x="1.22" y="141.55" class="st2">27</text></g><g id="shape36-158" transform="translate(12.1386,-94.4882)"><title content="structured text">Rectangle No Fill No Fill.33</title><desc content="structured text">C</desc><rect x="0" y="117.415" width="56.6929" height="27.4016" class="st12"/><text x="11.67" y="133.52" class="st2">EOIcount</text></g><g id="shape59-161" transform="translate(199.225,-73.7008)"><title content="structured text">Bit name 1.59</title><desc content="structured text">TSEI</desc><path d="M22.68 127.81 L22.68 144.82 L0 144.82" class="st8"/><text x="-18.78" y="147.22" class="st2">TSEI</text></g><g id="shape60-165" transform="translate(199.225,-62.3622)"><title content="structured text">Bit name 1.60</title><desc content="structured text">TALL1</desc><path d="M34.02 116.47 L34.02 144.82 L0 144.82" class="st8"/><text x="-24.57" y="147.22" class="st2">TALL1</text></g><g id="shape61-169" transform="translate(199.225,-51.0236)"><title content="structured text">Bit name 1.61</title><desc content="structured text">TALL0</desc><path d="M45.35 105.13 L45.35 144.82 L0 144.82" class="st8"/><text x="-24.57" y="147.22" class="st2">TALL0</text></g><g id="shape62-173" transform="translate(199.225,-39.685)"><title content="structured text">Bit name 1.62</title><desc content="structured text">TC</desc><path d="M56.69 93.79 L56.69 144.82 L0 144.82" class="st8"/><text x="-11.66" y="147.22" class="st2">TC</text></g><g id="shape63-177" transform="translate(379.843,-62.3622) scale(-1,1)"><title content="structured text">Bit name 2.63</title><desc content="structured text">LRENPIE</desc><path d="M34.02 116.47 L34.02 144.82 L0 144.82" class="st8"/><text x="1" y="147.22" transform="scale(-1,1)" class="st2">LRENPIE</text></g></g></svg>