<?xml version="1.0" encoding="UTF-8" standalone="no"?><!-- Fixed up by svgfix.xsl 1.4  --><!-- Generated by Microsoft Visio 11.0, SVG Export, v1.0 lni1471004828693_LowRes.svg ARM -->
<!DOCTYPE svg
  PUBLIC "-//W3C//DTD SVG 1.0//EN" "http://www.w3.org/TR/2001/REC-SVG-20010904/DTD/svg10.dtd">
<svg xmlns:xlink="http://www.w3.org/1999/xlink" xmlns="http://www.w3.org/2000/svg" xmlns:ev="http://www.w3.org/2001/xml-events" width="553.944" height="134.457" viewBox="0 0 415.458 100.843" xml:space="preserve" color-interpolation-filters="sRGB" class="st12" preserveAspectRatio="xMidYMid meet" zoomAndPan="magnify" version="1.0" contentScriptType="text/ecmascript" contentStyleType="text/css"><style type="text/css" xml:space="preserve"><![CDATA[
	
		.st1 {fill:#eed9b3;stroke:#000000;stroke-linecap:butt;stroke-width:0.8px}
		.st2 {fill:none;stroke:none;stroke-linecap:butt;stroke-width:0.75px}
		.st3 {fill:#000000;font-family:Arial,Helvetica,sans-serif;font-size:0.666664em}
		.st4 {fill:none;stroke:#000000;stroke-linecap:butt;stroke-width:0.8px}
		.st5 {fill:none;stroke:none;stroke-linecap:butt;stroke-width:0.8px}
		.st6 {fill:#eed9b3;stroke:none;stroke-linecap:butt;stroke-width:0.75px}
		.st7 {fill:#000000;font-family:Arial,Helvetica,sans-serif;font-size:0.583328em}
		.st8 {font-size:1.14286em}
		.st9 {stroke:#000000;stroke-linecap:butt;stroke-width:0.5px}
		.st10 {fill:#ffffff;stroke:none;stroke-linecap:butt;stroke-width:0.5px}
		.st11 {stroke:#000000;stroke-dasharray:0.25,1;stroke-linecap:butt;stroke-width:0.25px}
		.st12 {fill:none;fill-rule:evenodd;font-size:12px;overflow:visible;stroke-linecap:square;stroke-miterlimit:3}]]></style><g xmlns:v="http://schemas.microsoft.com/visio/2003/SVGExtensions/"><title content="structured text">ARM</title><g id="shape3-1" transform="translate(12.1386,-48.939)"><title content="structured text">Sheet.3</title><rect x="0" y="72.4961" width="232.441" height="28.3465" class="st1"/></g><g id="shape4-3" transform="translate(12.1386,-77.7201)"><title content="structured text">Sheet.4</title><desc content="structured text">63</desc><rect x="0" y="89.9386" width="11.3386" height="10.9039" class="st2"/><text x="1.22" y="97.79" class="st3">63</text></g><g id="shape5-6" transform="translate(233.241,-77.7201)"><title content="structured text">Sheet.5</title><desc content="structured text">25</desc><rect x="0" y="89.9386" width="11.3386" height="10.9039" class="st2"/><text x="1.22" y="97.79" class="st3">25</text></g><g id="shape14-9" transform="translate(244.58,-48.939)"><title content="structured text">Sheet.14</title><rect x="0" y="72.4961" width="11.3386" height="28.3465" class="st4"/></g><g id="shape15-11" transform="translate(244.58,-77.7201)"><title content="structured text">Sheet.15</title><desc content="structured text">24</desc><rect x="0" y="89.9386" width="11.3386" height="10.9039" class="st5"/><text x="1.22" y="97.79" class="st3">24</text></g><g id="shape17-14" transform="translate(255.918,-48.939)"><title content="structured text">Sheet.17</title><rect x="0" y="72.4961" width="147.402" height="28.3465" class="st4"/></g><g id="shape18-16" transform="translate(322.784,-57.8776)"><title content="structured text">Sheet.18</title><desc content="structured text">ISS</desc><rect x="0" y="91.2425" width="24" height="9.6" class="st2"/><text x="5.55" y="98.44" class="st3">ISS</text></g><g id="shape19-19" transform="translate(255.918,-77.7201)"><title content="structured text">Sheet.19</title><desc content="structured text">23</desc><rect x="0" y="89.9386" width="11.3386" height="10.9039" class="st2"/><text x="1.22" y="97.79" class="st3">23</text></g><g id="shape20-22" transform="translate(393.146,-77.7201)"><title content="structured text">Sheet.20</title><desc content="structured text">0</desc><rect x="0" y="89.9386" width="10.1732" height="10.9039" class="st2"/><text x="2.86" y="97.79" class="st3">0</text></g><g id="group32-25" transform="translate(12.1386,-12.0886)"><title content="structured text">Sheet.32</title><g id="shape33-26"><title content="structured text">Sheet.33</title><rect x="0" y="89.5039" width="11.3386" height="11.3386" class="st6"/></g><g id="shape34-28" transform="translate(14.1732,-0.734646)"><title content="structured text">Sheet.34</title><desc content="structured text">RES0</desc><rect x="0" y="92.4425" width="29" height="8.4" class="st2"/><text x="0" y="99.04" class="st7">RES<tspan class="st8">0</tspan></text></g></g><g id="shape163-32" transform="translate(261.587,-40.435) scale(-1,1)"><title content="structured text">Bit name 2</title><desc content="structured text">IDS</desc><path d="M11.34 95.17 L11.34 100.84 L0 100.84" class="st9"/><text x="1" y="103.24" transform="scale(-1,1)" class="st3">IDS</text></g><g id="group1-36" transform="translate(126.942,-46.1043)"><title content="structured text">Sheet.1</title><g id="group2-37" transform="translate(0,-28.3465)"><title content="structured text">Sheet.2</title><g id="shape13-38" transform="translate(0.566929,2.84217E-014)"><title content="structured text">Sheet.13</title><rect x="0" y="95.1732" width="1.88976" height="5.66929" class="st10"/></g><g id="shape16-40" transform="translate(101.899,111.684) rotate(99.4623)"><title content="structured text">Sheet.16</title><path d="M0 100.43 C0.15 100.64 0.72 100.81 1.15 100.84 C1.58 100.87 1.86 100.76 2.34 100.52 C2.63 100.38 2.98          100.2 3.29 100.08 C4.56 99.58 5.03 100.13 5.75 100.43" class="st9"/></g><g id="shape28-43" transform="translate(100.01,111.684) rotate(99.4623)"><title content="structured text">Sheet.28</title><path d="M0 100.43 C0.15 100.64 0.72 100.81 1.15 100.84 C1.58 100.87 1.86 100.76 2.34 100.52 C2.63 100.38 2.98          100.2 3.29 100.08 C4.56 99.58 5.03 100.13 5.75 100.43" class="st9"/></g></g><g id="group29-46"><title content="structured text">Sheet.29</title><g id="shape30-47" transform="translate(0.566929,2.84217E-014)"><title content="structured text">Sheet.30</title><rect x="0" y="95.1732" width="1.88976" height="5.66929" class="st10"/></g><g id="shape31-49" transform="translate(101.899,111.684) rotate(99.4623)"><title content="structured text">Sheet.31</title><path d="M0 100.43 C0.15 100.64 0.72 100.81 1.15 100.84 C1.58 100.87 1.86 100.76 2.34 100.52 C2.63 100.38 2.98          100.2 3.29 100.08 C4.56 99.58 5.03 100.13 5.75 100.43" class="st9"/></g><g id="shape164-52" transform="translate(100.01,111.684) rotate(99.4623)"><title content="structured text">Sheet.164</title><path d="M0 100.43 C0.15 100.64 0.72 100.81 1.15 100.84 C1.58 100.87 1.86 100.76 2.34 100.52 C2.63 100.38 2.98          100.2 3.29 100.08 C4.56 99.58 5.03 100.13 5.75 100.43" class="st9"/></g></g></g><g id="group6-55" transform="translate(328.202,-46.1043)"><title content="structured text">Sheet.6</title><g id="group7-56" transform="translate(0,-28.3465)"><title content="structured text">Sheet.7</title><g id="shape8-57" transform="translate(0.566929,2.84217E-014)"><title content="structured text">Sheet.8</title><rect x="0" y="95.1732" width="1.88976" height="5.66929" class="st10"/></g><g id="shape9-59" transform="translate(101.899,111.684) rotate(99.4623)"><title content="structured text">Sheet.9</title><path d="M0 100.43 C0.15 100.64 0.72 100.81 1.15 100.84 C1.58 100.87 1.86 100.76 2.34 100.52 C2.63 100.38 2.98          100.2 3.29 100.08 C4.56 99.58 5.03 100.13 5.75 100.43" class="st9"/></g><g id="shape10-62" transform="translate(100.01,111.684) rotate(99.4623)"><title content="structured text">Sheet.10</title><path d="M0 100.43 C0.15 100.64 0.72 100.81 1.15 100.84 C1.58 100.87 1.86 100.76 2.34 100.52 C2.63 100.38 2.98          100.2 3.29 100.08 C4.56 99.58 5.03 100.13 5.75 100.43" class="st9"/></g></g><g id="group11-65"><title content="structured text">Sheet.11</title><g id="shape12-66" transform="translate(0.566929,2.84217E-014)"><title content="structured text">Sheet.12</title><rect x="0" y="95.1732" width="1.88976" height="5.66929" class="st10"/></g><g id="shape21-68" transform="translate(101.899,111.684) rotate(99.4623)"><title content="structured text">Sheet.21</title><path d="M0 100.43 C0.15 100.64 0.72 100.81 1.15 100.84 C1.58 100.87 1.86 100.76 2.34 100.52 C2.63 100.38 2.98          100.2 3.29 100.08 C4.56 99.58 5.03 100.13 5.75 100.43" class="st9"/></g><g id="shape22-71" transform="translate(100.01,111.684) rotate(99.4623)"><title content="structured text">Sheet.22</title><path d="M0 100.43 C0.15 100.64 0.72 100.81 1.15 100.84 C1.58 100.87 1.86 100.76 2.34 100.52 C2.63 100.38 2.98          100.2 3.29 100.08 C4.56 99.58 5.03 100.13 5.75 100.43" class="st9"/></g></g></g><g id="shape23-74" transform="translate(504.162,12.2185) rotate(90)"><title content="structured text">Signal 0.107</title><path d="M0 100.84 L11.34 100.84" class="st11"/></g><g id="shape24-77" transform="translate(475.816,12.2185) rotate(90)"><title content="structured text">Signal 0.24</title><path d="M0 100.84 L11.34 100.84" class="st11"/></g><g id="shape25-80" transform="translate(453.139,12.2185) rotate(90)"><title content="structured text">Signal 0.25</title><path d="M0 100.84 L11.34 100.84" class="st11"/></g><g id="shape26-83" transform="translate(430.461,12.2185) rotate(90)"><title content="structured text">Signal 0.26</title><path d="M0 100.84 L11.34 100.84" class="st11"/></g><g id="shape27-86" transform="translate(407.784,12.2185) rotate(90)"><title content="structured text">Signal 0.27</title><path d="M0 100.84 L11.34 100.84" class="st11"/></g><g id="shape165-89" transform="translate(385.107,11.5886) rotate(90)"><title content="structured text">Signal 0.165</title><path d="M0 100.84 L11.34 100.84" class="st11"/></g><g id="shape166-92" transform="translate(356.761,11.7839) rotate(90)"><title content="structured text">Signal 0.166</title><path d="M0 100.84 L11.34 100.84" class="st11"/></g><g id="shape167-95" transform="translate(322.745,12.2185) rotate(90)"><title content="structured text">Signal 0.167</title><path d="M0 100.84 L11.34 100.84" class="st11"/></g><g id="shape168-98" transform="translate(300.068,12.2185) rotate(90)"><title content="structured text">Signal 0.168</title><path d="M0 100.84 L11.34 100.84" class="st11"/></g><g id="shape169-101" transform="translate(277.391,12.2185) rotate(90)"><title content="structured text">Signal 0.169</title><path d="M0 100.84 L11.34 100.84" class="st11"/></g><g id="shape170-104" transform="translate(254.713,12.2185) rotate(90)"><title content="structured text">Signal 0.170</title><path d="M0 100.84 L11.34 100.84" class="st11"/></g><g id="shape171-107" transform="translate(232.036,12.2185) rotate(90)"><title content="structured text">Signal 0.171</title><path d="M0 100.84 L11.34 100.84" class="st11"/></g><g id="shape172-110" transform="translate(209.359,12.2185) rotate(90)"><title content="structured text">Signal 0.172</title><path d="M0 100.84 L11.34 100.84" class="st11"/></g><g id="shape173-113" transform="translate(186.682,12.2185) rotate(90)"><title content="structured text">Signal 0.173</title><path d="M0 100.84 L11.34 100.84" class="st11"/></g><g id="shape174-116" transform="translate(164.005,12.2185) rotate(90)"><title content="structured text">Signal 0.174</title><path d="M0 100.84 L11.34 100.84" class="st11"/></g><g id="shape175-119" transform="translate(112.981,12.2185) rotate(90)"><title content="structured text">Signal 0.175</title><path d="M0 100.84 L11.34 100.84" class="st11"/></g><g id="shape176-122" transform="translate(141.328,12.2185) rotate(90)"><title content="structured text">Signal 0.176</title><path d="M0 100.84 L11.34 100.84" class="st11"/></g></g></svg>