<?xml version="1.0" encoding="UTF-8" standalone="no"?><!-- Fixed up by svgfix.xsl 1.4  --><!-- Generated by Microsoft Visio 11.0, SVG Export, v1.0 pat1464966833168_low res.svg ARM -->
<!DOCTYPE svg
  PUBLIC "-//W3C//DTD SVG 1.0//EN" "http://www.w3.org/TR/2001/REC-SVG-20010904/DTD/svg10.dtd">
<svg xmlns:xlink="http://www.w3.org/1999/xlink" xmlns="http://www.w3.org/2000/svg" xmlns:ev="http://www.w3.org/2001/xml-events" width="354.503" height="230.931" viewBox="0 0 265.877 173.198" xml:space="preserve" color-interpolation-filters="sRGB" class="st10" preserveAspectRatio="xMidYMid meet" zoomAndPan="magnify" version="1.0" contentScriptType="text/ecmascript" contentStyleType="text/css"><style type="text/css" xml:space="preserve"><![CDATA[
	
		.st1 {fill:#ffffff;stroke:#000000;stroke-linecap:butt;stroke-width:1px}
		.st2 {fill:#000000;font-family:Arial,Helvetica,sans-serif;font-size:0.75em}
		.st3 {fill:#c4d6a0;fill-opacity:0.6;stroke:#000000;stroke-dasharray:3.5,2.5;stroke-linecap:round;stroke-linejoin:round;stroke-width:0.5px}
		.st4 {fill:#ccc2d9;fill-opacity:0.6;stroke:#000000;stroke-dasharray:3.5,2.5;stroke-linecap:round;stroke-linejoin:round;stroke-width:0.5px}
		.st5 {fill:#92cddc;fill-opacity:0.6;stroke:#000000;stroke-dasharray:3.5,2.5;stroke-linecap:round;stroke-linejoin:round;stroke-width:0.5px}
		.st6 {fill:#f9c499;fill-opacity:0.6;stroke:#000000;stroke-dasharray:3.5,2.5;stroke-linecap:round;stroke-linejoin:round;stroke-width:0.5px}
		.st7 {fill:#17355d;fill-opacity:0.6;stroke:#000000;stroke-dasharray:3.5,2.5;stroke-linecap:round;stroke-linejoin:round;stroke-width:0.5px}
		.st8 {fill:#ffffff;fill-opacity:0;stroke:#ffffff;stroke-linecap:butt;stroke-opacity:0;stroke-width:0.5px}
		.st9 {fill:#000000;font-family:Arial,Helvetica,sans-serif;font-size:0.666664em}
		.st10 {fill:none;fill-rule:evenodd;font-size:12px;overflow:visible;stroke-linecap:square;stroke-miterlimit:3}]]></style><g xmlns:v="http://schemas.microsoft.com/visio/2003/SVGExtensions/"><title content="structured text">ARM</title><g id="shape1-1" transform="translate(12.3386,-100.688)"><title content="structured text">Block.36</title><desc content="structured text">Core 0</desc><rect x="0" y="113.027" width="57.6" height="60.1714" class="st1"/><text x="15.29" y="145.81" class="st2">Core 0</text></g><g id="shape2-4" transform="translate(12.3386,-60.0598)"><title content="structured text">Block.27</title><desc content="structured text">DSU</desc><rect x="0" y="134.627" width="241.2" height="38.5714" class="st1"/><text x="111.1" y="156.61" class="st2">DSU</text></g><g id="shape3-7" transform="translate(73.5386,-100.688)"><title content="structured text">Block.40</title><desc content="structured text">Core 1</desc><rect x="0" y="113.027" width="57.6" height="60.1714" class="st1"/><text x="15.29" y="145.81" class="st2">Core 1</text></g><g id="shape4-10" transform="translate(134.739,-100.688)"><title content="structured text">Block.68</title><desc content="structured text">Core 2</desc><rect x="0" y="113.027" width="57.6" height="60.1714" class="st1"/><text x="15.29" y="145.81" class="st2">Core 2</text></g><g id="shape5-13" transform="translate(195.939,-100.688)"><title content="structured text">Block.42</title><desc content="structured text">Core 3</desc><rect x="0" y="113.027" width="57.6" height="60.1714" class="st1"/><text x="15.29" y="145.81" class="st2">Core 3</text></g><g id="shape6-16" transform="translate(12.3386,-110.46)"><title content="structured text">Process.43</title><path d="M0 173.2 L57.6 173.2 L57.6 122.8 L0 122.8 L0 173.2 Z" class="st3"/></g><g id="shape7-18" transform="translate(73.5386,-110.46)"><title content="structured text">Process.32</title><path d="M0 173.2 L57.6 173.2 L57.6 122.8 L0 122.8 L0 173.2 Z" class="st4"/></g><g id="shape8-20" transform="translate(134.739,-110.46)"><title content="structured text">Process.45</title><path d="M0 173.2 L57.6 173.2 L57.6 122.8 L0 122.8 L0 173.2 Z" class="st5"/></g><g id="shape9-22" transform="translate(195.939,-110.46)"><title content="structured text">Process.46</title><path d="M0 173.2 L57.6 173.2 L57.6 122.8 L0 122.8 L0 173.2 Z" class="st6"/></g><g id="shape10-24" transform="translate(12.6283,-59.8394)"><title content="structured text">Process.47</title><path d="M0 173.2 L241.2 173.2 L241.2 122.8 L0 122.8 L0 173.2 Z" class="st7"/></g><g id="shape11-26" transform="translate(77.8394,-43.5583)"><title content="structured text">Process.48</title><path d="M0 173.2 L7.2 173.2 L7.2 166 L0 166 L0 173.2 Z" class="st3"/></g><g id="shape12-28" transform="translate(67.2457,-37.3504)"><title content="structured text">Block.37</title><desc content="structured text">VCPU0</desc><rect x="0" y="155.652" width="74.6929" height="17.5465" class="st8"/><text x="24.01" y="166.83" class="st9">VCPU0</text></g><g id="shape13-31" transform="translate(77.8394,-32.2197)"><title content="structured text">Process.50</title><path d="M0 173.2 L7.2 173.2 L7.2 166 L0 166 L0 173.2 Z" class="st4"/></g><g id="shape14-33" transform="translate(67.2457,-26.0118)"><title content="structured text">Block.51</title><desc content="structured text">VCPU1</desc><rect x="0" y="155.652" width="74.6929" height="17.5465" class="st8"/><text x="24.01" y="166.83" class="st9">VCPU1</text></g><g id="shape15-36" transform="translate(117.524,-18.0465)"><title content="structured text">Process.79</title><path d="M0 173.2 L7.2 173.2 L7.2 166 L0 166 L0 173.2 Z" class="st7"/></g><g id="shape16-38" transform="translate(109.539,-11.8386)"><title content="structured text">Block.80</title><desc content="structured text">VSYS</desc><rect x="0" y="155.652" width="63.4535" height="17.5465" class="st8"/><text x="21.06" y="166.83" class="st9">VSYS</text></g><g id="shape17-41" transform="translate(145.539,-43.5583)"><title content="structured text">Process.81</title><path d="M0 173.2 L7.2 173.2 L7.2 166 L0 166 L0 173.2 Z" class="st5"/></g><g id="shape18-43" transform="translate(134.739,-25.7039)"><title content="structured text">Block.55</title><desc content="structured text">VCPU3</desc><rect x="0" y="155.652" width="74.6929" height="17.5465" class="st8"/><text x="24.01" y="166.83" class="st9">VCPU3</text></g><g id="shape19-46" transform="translate(145.539,-32.2197)"><title content="structured text">Process.83</title><path d="M0 173.2 L7.2 173.2 L7.2 166 L0 166 L0 173.2 Z" class="st6"/></g><g id="shape20-48" transform="translate(134.739,-36.8969)"><title content="structured text">Block.57</title><desc content="structured text">VCPU2</desc><rect x="0" y="155.198" width="74.6929" height="18" class="st8"/><text x="24.01" y="166.6" class="st9">VCPU2</text></g></g></svg>