<?xml version="1.0" encoding="UTF-8" standalone="no"?><!-- Fixed up by svgfix.xsl 1.4  --><!-- Generated by Microsoft Visio, SVG Export ofy1477577549117_Source.svg ARM -->
<!DOCTYPE svg
  PUBLIC "-//W3C//DTD SVG 1.0//EN" "http://www.w3.org/TR/2001/REC-SVG-20010904/DTD/svg10.dtd">
<svg xmlns:xlink="http://www.w3.org/1999/xlink" xmlns="http://www.w3.org/2000/svg" xmlns:ev="http://www.w3.org/2001/xml-events" width="269.488" height="310.073" viewBox="0 0 202.116 232.555" xml:space="preserve" color-interpolation-filters="sRGB" class="st15" preserveAspectRatio="xMidYMid meet" zoomAndPan="magnify" version="1.1" contentScriptType="application/ecmascript" contentStyleType="text/css"><style type="text/css" xml:space="preserve"><![CDATA[
	
		.st1 {marker-end:url(#mrkr4-10);marker-start:url(#mrkr4-8);stroke:#000000;stroke-linecap:round;stroke-linejoin:round;stroke-width:0.75px}
		.st2 {fill:#000000;fill-opacity:1;stroke:#000000;stroke-opacity:1;stroke-width:0.34246575342466px}
		.st3 {marker-start:url(#mrkr4-8);stroke:#000000;stroke-linecap:butt;stroke-width:0.75px}
		.st4 {fill:#558ed5;stroke:none;stroke-linecap:round;stroke-linejoin:round;stroke-width:0.75px}
		.st5 {stroke:#173660;stroke-linecap:round;stroke-linejoin:round;stroke-width:1.80096px}
		.st6 {stroke:none;stroke-linecap:round;stroke-linejoin:round;stroke-width:0.75px}
		.st7 {fill:#000000;font-family:Arial,Helvetica,sans-serif;font-size:0.670029em}
		.st8 {fill:#f2f2f2;stroke:none;stroke-linecap:round;stroke-linejoin:round;stroke-width:0.75px}
		.st9 {stroke:#000000;stroke-linecap:round;stroke-linejoin:round;stroke-width:1px}
		.st10 {fill:#000000;font-family:Arial,Helvetica,sans-serif;font-size:0.666664em}
		.st11 {font-size:1em}
		.st12 {stroke:#1f497d;stroke-linecap:round;stroke-linejoin:round;stroke-width:1.80096px}
		.st13 {marker-end:url(#mrkr4-10);marker-start:url(#mrkr4-8);stroke:#000000;stroke-linecap:butt;stroke-width:0.75px}
		.st14 {marker-end:url(#mrkr4-10);stroke:#000000;stroke-linecap:round;stroke-linejoin:round;stroke-width:0.75px}
		.st15 {fill:none;fill-rule:evenodd;font-size:12px;overflow:visible;stroke-linecap:square;stroke-miterlimit:3}]]></style><defs xmlns:v="http://schemas.microsoft.com/visio/2003/SVGExtensions/" id="Markers"><g id="lend4"><path d="M 2 1 L 0 0 L 2 -1 L 2 1 " style="stroke:none"/></g><marker id="mrkr4-8" class="st2" refX="5.36" orient="auto" markerUnits="strokeWidth" overflow="visible" preserveAspectRatio="xMidYMid meet"><use xlink:href="#lend4" transform="scale(2.92) " xlink:type="simple" xlink:show="embed" xlink:actuate="onLoad"/></marker><marker id="mrkr4-10" class="st2" refX="-5.84" orient="auto" markerUnits="strokeWidth" overflow="visible" preserveAspectRatio="xMidYMid meet"><use xlink:href="#lend4" transform="scale(-2.92,-2.92) " xlink:type="simple" xlink:show="embed" xlink:actuate="onLoad"/></marker></defs><g xmlns:v="http://schemas.microsoft.com/visio/2003/SVGExtensions/"><title>ARM</title><g id="group1-1" transform="translate(13.1395,-35.9641)"><title>Sheet.1</title><g id="shape2-2" transform="translate(151.654,-71.5748)"><title>Sheet.2</title><path d="M0 228.53 L0 228.17 L0 218.51" class="st1"/></g><g id="shape3-11" transform="translate(151.654,-128.409)"><title>Sheet.3</title><path d="M0 228.53 L0 228.17 L0 218.51" class="st1"/></g><g id="shape4-18" transform="translate(49.0394,-18.4252)"><title>Sheet.4</title><path d="M4.02 232.55 L4.38 232.55 L26.65 232.55 A7.79528 7.79528 -180 0 0 34.44 224.76 L34.44 216.96" class="st3"/></g><g id="group5-23"><title>Sheet.5</title><g id="shape6-24"><title>Sheet.6</title><path d="M4.87 232.55 L43.44 232.55 L43.93 232.55 L44.42 232.44 L44.78 232.32 L45.27 232.21 L45.76 232.09 L46.12          231.86 L46.49 231.51 L46.85 231.28 L47.09 230.93 L47.34 230.58 L47.58 230.23 L47.82 229.76 L47.95          229.3 L48.07 228.95 L48.19 228.49 L48.19 228.02 L48.19 228.02 L48.19 200.35 L48.19 199.89 L48.07          199.42 L47.95 198.96 L47.82 198.49 L47.58 198.15 L47.34 197.8 L47.09 197.45 L46.85 197.1 L46.49          196.75 L46.12 196.52 L45.76 196.29 L45.27 196.05 L44.78 195.94 L44.42 195.82 L43.93 195.7 L43.44          195.7 L4.87 195.7 L4.38 195.7 L3.89 195.82 L3.41 195.94 L2.92 196.05 L2.56 196.29 L2.19 196.52 L1.83          196.75 L1.46 197.1 L1.1 197.45 L0.85 197.8 L0.61 198.15 L0.37 198.49 L0.24 198.96 L0.12 199.42 L0.12          199.89 L0 200.35 L0 228.02 L0.12 228.49 L0.12 228.95 L0.24 229.3 L0.37 229.76 L0.61 230.23 L0.85          230.58 L1.1 230.93 L1.46 231.28 L1.83 231.51 L2.19 231.86 L2.56 232.09 L2.92 232.21 L3.41 232.32          L3.89 232.44 L4.38 232.55 L4.87 232.55 L4.87 232.55 L4.87 232.55 Z" class="st4"/></g><g id="shape7-26"><title>Sheet.7</title><path d="M4.87 232.55 L43.44 232.55 L43.93 232.55 L44.42 232.44 L44.78 232.32 L45.27 232.21 L45.76 232.09 L46.12          231.86 L46.49 231.51 L46.85 231.28 L47.09 230.93 L47.34 230.58 L47.58 230.23 L47.82 229.76 L47.95          229.3 L48.07 228.95 L48.19 228.49 L48.19 228.02 L48.19 228.02 L48.19 200.35 L48.19 199.89 L48.07          199.42 L47.95 198.96 L47.82 198.49 L47.58 198.15 L47.34 197.8 L47.09 197.45 L46.85 197.1 L46.49          196.75 L46.12 196.52 L45.76 196.29 L45.27 196.05 L44.78 195.94 L44.42 195.82 L43.93 195.7 L43.44          195.7 L4.87 195.7 L4.38 195.7 L3.89 195.82 L3.41 195.94 L2.92 196.05 L2.56 196.29 L2.19 196.52 L1.83          196.75 L1.46 197.1 L1.1 197.45 L0.85 197.8 L0.61 198.15 L0.37 198.49 L0.24 198.96 L0.12 199.42 L0.12          199.89 L0 200.35 L0 228.02 L0.12 228.49 L0.12 228.95 L0.24 229.3 L0.37 229.76 L0.61 230.23 L0.85          230.58 L1.1 230.93 L1.46 231.28 L1.83 231.51 L2.19 231.86 L2.56 232.09 L2.92 232.21 L3.41 232.32          L3.89 232.44 L4.38 232.55 L4.87 232.55 L4.87 232.55" class="st5"/></g><g id="shape8-29"><title>Sheet.8</title><desc>Off</desc><path d="M48.19 195.7 L0 195.7 L0 232.55 L48.19 232.55 L48.19 195.7" class="st6"/><text x="18.73" y="216.54" class="st7">Off</text></g></g><g id="group9-33" transform="translate(59.5276,-34.0157)"><title>Sheet.9</title><g id="shape10-34"><title>Sheet.10</title><path d="M4.87 232.55 L43.44 232.55 L43.93 232.55 L44.42 232.44 L44.78 232.32 L45.27 232.21 L45.63 231.98 L46.12          231.74 L46.49 231.51 L46.85 231.16 L47.09 230.82 L47.34 230.47 L47.58 230.12 L47.82 229.66 L47.95          229.31 L48.07 228.85 L48.19 228.38 L48.19 227.92 L48.19 227.92 L48.19 200.34 L48.19 199.88 L48.07          199.41 L47.95 198.95 L47.82 198.6 L47.58 198.14 L47.34 197.79 L47.09 197.44 L46.85 197.09 L46.49          196.75 L46.12 196.52 L45.63 196.28 L45.27 196.05 L44.78 195.94 L44.42 195.82 L43.93 195.7 L43.44          195.7 L43.44 195.7 L4.87 195.7 L4.38 195.7 L3.89 195.82 L3.41 195.94 L2.92 196.05 L2.56 196.28 L2.07          196.52 L1.7 196.75 L1.46 197.09 L1.1 197.44 L0.85 197.79 L0.61 198.14 L0.37 198.6 L0.24 198.95 L0.12          199.41 L0 199.88 L0 200.34 L0 227.92 L0 228.38 L0.12 228.85 L0.24 229.31 L0.37 229.66 L0.61 230.12          L0.85 230.47 L1.1 230.82 L1.46 231.16 L1.7 231.51 L2.07 231.74 L2.56 231.98 L2.92 232.21 L3.41 232.32          L3.89 232.44 L4.38 232.55 L4.87 232.55 L4.87 232.55 L4.87 232.55 Z" class="st8"/></g><g id="shape11-36"><title>Sheet.11</title><path d="M4.87 232.55 L43.44 232.55 L43.93 232.55 L44.42 232.44 L44.78 232.32 L45.27 232.21 L45.63 231.98 L46.12          231.74 L46.49 231.51 L46.85 231.16 L47.09 230.82 L47.34 230.47 L47.58 230.12 L47.82 229.66 L47.95          229.31 L48.07 228.85 L48.19 228.38 L48.19 227.92 L48.19 227.92 L48.19 200.34 L48.19 199.88 L48.07          199.41 L47.95 198.95 L47.82 198.6 L47.58 198.14 L47.34 197.79 L47.09 197.44 L46.85 197.09 L46.49          196.75 L46.12 196.52 L45.63 196.28 L45.27 196.05 L44.78 195.94 L44.42 195.82 L43.93 195.7 L43.44          195.7 L43.44 195.7 L4.87 195.7 L4.38 195.7 L3.89 195.82 L3.41 195.94 L2.92 196.05 L2.56 196.28 L2.07          196.52 L1.7 196.75 L1.46 197.09 L1.1 197.44 L0.85 197.79 L0.61 198.14 L0.37 198.6 L0.24 198.95 L0.12          199.41 L0 199.88 L0 200.34 L0 227.92 L0 228.38 L0.12 228.85 L0.24 229.31 L0.37 229.66 L0.61 230.12          L0.85 230.47 L1.1 230.82 L1.46 231.16 L1.7 231.51 L2.07 231.74 L2.56 231.98 L2.92 232.21 L3.41 232.32          L3.89 232.44 L4.38 232.55 L4.87 232.55 L4.87 232.55" class="st9"/></g><g id="shape12-39"><title>Sheet.12</title><desc>Off (Emulated)</desc><path d="M48.19 195.7 L0 195.7 L0 232.55 L48.19 232.55 L48.19 195.7" class="st6"/><text x="18.76" y="211.73" class="st10">Off<tspan x="4.53" dy="1.2em" class="st11">(Emulated)</tspan></text></g></g><g id="group13-44" transform="translate(127.559,-34.0157)"><title>Sheet.13</title><g id="shape14-45"><title>Sheet.14</title><path d="M4.75 232.55 L43.32 232.55 L43.81 232.55 L44.29 232.44 L44.78 232.32 L45.27 232.21 L45.63 231.98 L46          231.74 L46.49 231.51 L46.73 231.16 L47.09 230.82 L47.34 230.47 L47.58 230.12 L47.82 229.66 L47.95          229.31 L48.07 228.85 L48.19 228.38 L48.19 227.92 L48.19 227.92 L48.19 200.34 L48.19 199.88 L48.07          199.41 L47.95 198.95 L47.82 198.6 L47.58 198.14 L47.34 197.79 L47.09 197.44 L46.73 197.09 L46.49          196.75 L46 196.52 L45.63 196.28 L45.27 196.05 L44.78 195.94 L44.29 195.82 L43.81 195.7 L43.32 195.7          L43.32 195.7 L4.75 195.7 L4.26 195.7 L3.77 195.82 L3.29 195.94 L2.92 196.05 L2.43 196.28 L2.07 196.52          L1.7 196.75 L1.34 197.09 L1.1 197.44 L0.73 197.79 L0.49 198.14 L0.37 198.6 L0.12 198.95 L0 199.41          L0 199.88 L0 200.34 L0 227.92 L0 228.38 L0 228.85 L0.12 229.31 L0.37 229.66 L0.49 230.12 L0.73 230.47          L1.1 230.82 L1.34 231.16 L1.7 231.51 L2.07 231.74 L2.43 231.98 L2.92 232.21 L3.29 232.32 L3.77 232.44          L4.26 232.55 L4.75 232.55 L4.75 232.55 L4.75 232.55 Z" class="st4"/></g><g id="shape15-47"><title>Sheet.15</title><path d="M4.75 232.55 L43.32 232.55 L43.81 232.55 L44.29 232.44 L44.78 232.32 L45.27 232.21 L45.63 231.98 L46          231.74 L46.49 231.51 L46.73 231.16 L47.09 230.82 L47.34 230.47 L47.58 230.12 L47.82 229.66 L47.95          229.31 L48.07 228.85 L48.19 228.38 L48.19 227.92 L48.19 227.92 L48.19 200.34 L48.19 199.88 L48.07          199.41 L47.95 198.95 L47.82 198.6 L47.58 198.14 L47.34 197.79 L47.09 197.44 L46.73 197.09 L46.49          196.75 L46 196.52 L45.63 196.28 L45.27 196.05 L44.78 195.94 L44.29 195.82 L43.81 195.7 L43.32 195.7          L43.32 195.7 L4.75 195.7 L4.26 195.7 L3.77 195.82 L3.29 195.94 L2.92 196.05 L2.43 196.28 L2.07 196.52          L1.7 196.75 L1.34 197.09 L1.1 197.44 L0.73 197.79 L0.49 198.14 L0.37 198.6 L0.12 198.95 L0 199.41          L0 199.88 L0 200.34 L0 227.92 L0 228.38 L0 228.85 L0.12 229.31 L0.37 229.66 L0.49 230.12 L0.73 230.47          L1.1 230.82 L1.34 231.16 L1.7 231.51 L2.07 231.74 L2.43 231.98 L2.92 232.21 L3.29 232.32 L3.77 232.44          L4.26 232.55 L4.75 232.55 L4.75 232.55" class="st5"/></g><g id="shape16-50"><title>Sheet.16</title><desc>Debug Recovery</desc><path d="M48.19 195.7 L0 195.7 L0 232.55 L48.19 232.55 L48.19 195.7" class="st6"/><text x="12.31" y="211.73" class="st10">Debug <tspan x="7.2" dy="1.2em" class="st11">Recovery</tspan></text></g></g><g id="group17-55" transform="translate(127.559,-90.7087)"><title>Sheet.17</title><g id="shape18-56"><title>Sheet.18</title><path d="M4.75 232.55 L43.32 232.55 L43.81 232.55 L44.29 232.44 L44.78 232.32 L45.27 232.21 L45.63 231.97 L46          231.74 L46.49 231.51 L46.73 231.16 L47.09 230.93 L47.34 230.58 L47.58 230.11 L47.82 229.76 L47.95          229.3 L48.07 228.83 L48.19 228.37 L48.19 227.9 L48.19 227.9 L48.19 200.35 L48.19 199.89 L48.07 199.42          L47.95 198.96 L47.82 198.49 L47.58 198.15 L47.34 197.68 L47.09 197.33 L46.73 196.98 L46.49 196.75          L46 196.52 L45.63 196.29 L45.27 196.05 L44.78 195.94 L44.29 195.82 L43.81 195.7 L43.32 195.7 L43.32          195.7 L4.75 195.7 L4.26 195.7 L3.77 195.82 L3.29 195.94 L2.92 196.05 L2.43 196.29 L2.07 196.52 L1.7          196.75 L1.34 196.98 L1.1 197.33 L0.73 197.68 L0.49 198.15 L0.37 198.49 L0.12 198.96 L0 199.42 L0          199.89 L0 200.35 L0 227.9 L0 228.37 L0 228.83 L0.12 229.3 L0.37 229.76 L0.49 230.11 L0.73 230.58          L1.1 230.93 L1.34 231.16 L1.7 231.51 L2.07 231.74 L2.43 231.97 L2.92 232.21 L3.29 232.32 L3.77 232.44          L4.26 232.55 L4.75 232.55 L4.75 232.55 L4.75 232.55 Z" class="st4"/></g><g id="shape19-58"><title>Sheet.19</title><path d="M4.75 232.55 L43.32 232.55 L43.81 232.55 L44.29 232.44 L44.78 232.32 L45.27 232.21 L45.63 231.97 L46          231.74 L46.49 231.51 L46.73 231.16 L47.09 230.93 L47.34 230.58 L47.58 230.11 L47.82 229.76 L47.95          229.3 L48.07 228.83 L48.19 228.37 L48.19 227.9 L48.19 227.9 L48.19 200.35 L48.19 199.89 L48.07 199.42          L47.95 198.96 L47.82 198.49 L47.58 198.15 L47.34 197.68 L47.09 197.33 L46.73 196.98 L46.49 196.75          L46 196.52 L45.63 196.29 L45.27 196.05 L44.78 195.94 L44.29 195.82 L43.81 195.7 L43.32 195.7 L43.32          195.7 L4.75 195.7 L4.26 195.7 L3.77 195.82 L3.29 195.94 L2.92 196.05 L2.43 196.29 L2.07 196.52 L1.7          196.75 L1.34 196.98 L1.1 197.33 L0.73 197.68 L0.49 198.15 L0.37 198.49 L0.12 198.96 L0 199.42 L0          199.89 L0 200.35 L0 227.9 L0 228.37 L0 228.83 L0.12 229.3 L0.37 229.76 L0.49 230.11 L0.73 230.58          L1.1 230.93 L1.34 231.16 L1.7 231.51 L2.07 231.74 L2.43 231.97 L2.92 232.21 L3.29 232.32 L3.77 232.44          L4.26 232.55 L4.75 232.55 L4.75 232.55" class="st12"/></g><g id="shape20-61"><title>Sheet.20</title><desc>On</desc><path d="M48.19 195.7 L0 195.7 L0 232.55 L48.19 232.55 L48.19 195.7" class="st6"/><text x="18.76" y="216.53" class="st10">On</text></g></g><g id="shape21-65" transform="translate(85.0394,-70.8661)"><title>Dynamic connector</title><path d="M0 228.53 L0 228.17 L0 212.71 A8.50394 8.50394 0 0 1 8.5 204.21 L37.29 204.21" class="st13"/></g><g id="shape22-72" transform="translate(23.9528,-37.7008)"><title>Dynamic connector.12</title><path d="M0 228.53 L0 228.17 L0 169.77 A8.50394 8.50394 0 0 1 8.5 161.26 L98.38 161.26" class="st13"/></g><g id="group23-79" transform="translate(127.559,-147.402)"><title>Sheet.23</title><g id="shape24-80"><title>Sheet.24</title><path d="M4.75 232.55 L43.32 232.55 L43.81 232.55 L44.29 232.44 L44.78 232.32 L45.27 232.21 L45.63 231.97 L46          231.74 L46.49 231.51 L46.73 231.28 L47.09 230.93 L47.34 230.58 L47.58 230.11 L47.82 229.76 L47.95          229.3 L48.07 228.83 L48.19 228.49 L48.19 227.9 L48.19 227.9 L48.19 227.9 L48.19 200.24 L48.19 199.77          L48.07 199.31 L47.95 198.96 L47.82 198.49 L47.58 198.03 L47.34 197.68 L47.09 197.33 L46.73 196.98          L46.49 196.75 L46 196.4 L45.63 196.17 L45.27 196.05 L44.78 195.82 L44.29 195.7 L43.81 195.7 L43.32          195.7 L43.32 195.7 L4.75 195.7 L4.26 195.7 L3.77 195.7 L3.29 195.82 L2.92 196.05 L2.43 196.17 L2.07          196.4 L1.7 196.75 L1.34 196.98 L1.1 197.33 L0.73 197.68 L0.49 198.03 L0.37 198.49 L0.12 198.96 L0          199.31 L0 199.77 L0 200.24 L0 200.24 L0 227.9 L0 228.49 L0 228.83 L0.12 229.3 L0.37 229.76 L0.49          230.11 L0.73 230.58 L1.1 230.93 L1.34 231.28 L1.7 231.51 L2.07 231.74 L2.43 231.97 L2.92 232.21          L3.29 232.32 L3.77 232.44 L4.26 232.55 L4.75 232.55 L4.75 232.55 L4.75 232.55 Z" class="st8"/></g><g id="shape25-82"><title>Sheet.25</title><path d="M4.75 232.55 L43.32 232.55 L43.81 232.55 L44.29 232.44 L44.78 232.32 L45.27 232.21 L45.63 231.97 L46          231.74 L46.49 231.51 L46.73 231.28 L47.09 230.93 L47.34 230.58 L47.58 230.11 L47.82 229.76 L47.95          229.3 L48.07 228.83 L48.19 228.49 L48.19 227.9 L48.19 227.9 L48.19 227.9 L48.19 200.24 L48.19 199.77          L48.07 199.31 L47.95 198.96 L47.82 198.49 L47.58 198.03 L47.34 197.68 L47.09 197.33 L46.73 196.98          L46.49 196.75 L46 196.4 L45.63 196.17 L45.27 196.05 L44.78 195.82 L44.29 195.7 L43.81 195.7 L43.32          195.7 L43.32 195.7 L4.75 195.7 L4.26 195.7 L3.77 195.7 L3.29 195.82 L2.92 196.05 L2.43 196.17 L2.07          196.4 L1.7 196.75 L1.34 196.98 L1.1 197.33 L0.73 197.68 L0.49 198.03 L0.37 198.49 L0.12 198.96 L0          199.31 L0 199.77 L0 200.24 L0 200.24 L0 227.9 L0 228.49 L0 228.83 L0.12 229.3 L0.37 229.76 L0.49          230.11 L0.73 230.58 L1.1 230.93 L1.34 231.28 L1.7 231.51 L2.07 231.74 L2.43 231.97 L2.92 232.21          L3.29 232.32 L3.77 232.44 L4.26 232.55 L4.75 232.55 L4.75 232.55" class="st9"/></g><g id="shape26-85"><title>Sheet.26</title><desc>Dynamic retention</desc><path d="M48.19 195.7 L0 195.7 L0 232.55 L48.19 232.55 L48.19 195.7" class="st6"/><text x="8.54" y="211.73" class="st10">Dynamic <tspan x="8.53" dy="1.2em" class="st11">retention</tspan></text></g></g></g><g id="shape27-90" transform="translate(164.882,-50.6986)"><title>Sheet.27</title><path d="M0 232.55 L0 218.51" class="st14"/></g><g id="shape32-95" transform="translate(140.315,-14.1732)"><title>Sheet.32</title><path d="M4.87 232.55 L43.44 232.55 L43.93 232.55 L44.42 232.44 L44.78 232.32 L45.27 232.21 L45.63 231.98 L46.12 231.74        L46.49 231.51 L46.85 231.16 L47.09 230.82 L47.34 230.47 L47.58 230.12 L47.82 229.66 L47.95 229.31 L48.07        228.85 L48.19 228.38 L48.19 227.92 L48.19 227.92 L48.19 200.34 L48.19 199.88 L48.07 199.41 L47.95 198.95        L47.82 198.6 L47.58 198.14 L47.34 197.79 L47.09 197.44 L46.85 197.09 L46.49 196.75 L46.12 196.52 L45.63        196.28 L45.27 196.05 L44.78 195.94 L44.42 195.82 L43.93 195.7 L43.44 195.7 L43.44 195.7 L4.87 195.7 L4.38        195.7 L3.89 195.82 L3.41 195.94 L2.92 196.05 L2.56 196.28 L2.07 196.52 L1.7 196.75 L1.46 197.09 L1.1 197.44        L0.85 197.79 L0.61 198.14 L0.37 198.6 L0.24 198.95 L0.12 199.41 L0 199.88 L0 200.34 L0 227.92 L0 228.38        L0.12 228.85 L0.24 229.31 L0.37 229.66 L0.61 230.12 L0.85 230.47 L1.1 230.82 L1.46 231.16 L1.7 231.51 L2.07        231.74 L2.56 231.98 L2.92 232.21 L3.41 232.32 L3.89 232.44 L4.38 232.55 L4.87 232.55 L4.87 232.55 L4.87        232.55 Z" class="st8"/></g><g id="shape33-97" transform="translate(140.315,-14.1732)"><title>Sheet.33</title><path d="M4.87 232.55 L43.44 232.55 L43.93 232.55 L44.42 232.44 L44.78 232.32 L45.27 232.21 L45.63 231.98 L46.12 231.74        L46.49 231.51 L46.85 231.16 L47.09 230.82 L47.34 230.47 L47.58 230.12 L47.82 229.66 L47.95 229.31 L48.07        228.85 L48.19 228.38 L48.19 227.92 L48.19 227.92 L48.19 200.34 L48.19 199.88 L48.07 199.41 L47.95 198.95        L47.82 198.6 L47.58 198.14 L47.34 197.79 L47.09 197.44 L46.85 197.09 L46.49 196.75 L46.12 196.52 L45.63        196.28 L45.27 196.05 L44.78 195.94 L44.42 195.82 L43.93 195.7 L43.44 195.7 L43.44 195.7 L4.87 195.7 L4.38        195.7 L3.89 195.82 L3.41 195.94 L2.92 196.05 L2.56 196.28 L2.07 196.52 L1.7 196.75 L1.46 197.09 L1.1 197.44        L0.85 197.79 L0.61 198.14 L0.37 198.6 L0.24 198.95 L0.12 199.41 L0 199.88 L0 200.34 L0 227.92 L0 228.38        L0.12 228.85 L0.24 229.31 L0.37 229.66 L0.61 230.12 L0.85 230.47 L1.1 230.82 L1.46 231.16 L1.7 231.51 L2.07        231.74 L2.56 231.98 L2.92 232.21 L3.41 232.32 L3.89 232.44 L4.38 232.55 L4.87 232.55 L4.87 232.55" class="st9"/></g><g id="shape34-100" transform="translate(140.315,-14.1732)"><title>Sheet.34</title><desc>From any power mode</desc><path d="M48.19 195.7 L0 195.7 L0 232.55 L48.19 232.55 L48.19 195.7" class="st6"/><text x="7.2" y="211.73" class="st10">From any <tspan x="2.08" dy="1.2em" class="st11">power mode</tspan></text></g></g></svg>