<?xml version="1.0" encoding="UTF-8" standalone="no"?><!-- Fixed up by svgfix.xsl 1.4  --><!-- Generated by Microsoft Visio 11.0, SVG Export, v1.0 PMPCSSR_bit_assignments.svg ARM -->
<!DOCTYPE svg
  PUBLIC "-//W3C//DTD SVG 1.0//EN" "http://www.w3.org/TR/2001/REC-SVG-20010904/DTD/svg10.dtd">
<svg xmlns:xlink="http://www.w3.org/1999/xlink" xmlns="http://www.w3.org/2000/svg" xmlns:ev="http://www.w3.org/2001/xml-events" width="516.142" height="137.4" viewBox="0 0 387.106 103.05" xml:space="preserve" color-interpolation-filters="sRGB" class="st12" preserveAspectRatio="xMidYMid meet" zoomAndPan="magnify" version="1.0" contentScriptType="text/ecmascript" contentStyleType="text/css"><style type="text/css" xml:space="preserve"><![CDATA[
	
		.st1 {fill:#eed9b3;stroke:none;stroke-linecap:round;stroke-linejoin:round;stroke-width:0.2px}
		.st2 {fill:none}
		.st3 {stroke:#000000;stroke-linecap:butt;stroke-width:0.799997px}
		.st4 {stroke:#000000;stroke-dasharray:0.249999,0.499999;stroke-linecap:butt;stroke-width:0.249999px}
		.st5 {fill:none;stroke:none;stroke-linecap:butt;stroke-width:0.499999px}
		.st6 {fill:#000000;font-family:Arial,Helvetica,sans-serif;font-size:0.666664em}
		.st7 {fill:none;stroke:none;stroke-linecap:round;stroke-linejoin:round;stroke-width:0.2px}
		.st8 {fill:#000000;font-family:Arial,Helvetica,sans-serif;font-size:0.533318em}
		.st9 {font-size:1.25003em}
		.st10 {stroke:#000000;stroke-linecap:butt;stroke-width:0.5px}
		.st11 {fill:#ffffff;stroke:none;stroke-linecap:butt;stroke-width:0.5px}
		.st12 {fill:none;fill-rule:evenodd;font-size:12px;overflow:visible;stroke-linecap:square;stroke-miterlimit:3}]]></style><g xmlns:v="http://schemas.microsoft.com/visio/2003/SVGExtensions/"><title content="structured text">ARM</title><g id="shape1-1" transform="translate(46.1516,-51.5236)"><title content="structured text">Graphic.8</title><rect x="0" y="74.7037" width="56.6929" height="28.3464" class="st1"/></g><g id="shape12-3" transform="translate(12.1386,-51.5236)"><title content="structured text">Graphic.11</title><path d="M362.83 74.7 L0 74.7 L0 103.05 L362.83 103.05 L362.83 74.7 Z" class="st2"/><path d="M362.83 74.7 L0 74.7 L0 103.05 L362.83 103.05" class="st3"/></g><g id="shape13-6" transform="translate(12.1336,-79.8736)"><title content="structured text">Graphic.12</title><path d="M0 91.71 L0 103.05 L0 91.71 Z" class="st2"/><path d="M0 91.71 L0 103.05" class="st4"/></g><g id="shape14-9" transform="translate(374.968,-51.5236)"><title content="structured text">Graphic.13</title><path d="M0 74.7 L0 103.05 L0 74.7 Z" class="st2"/><path d="M0 74.7 L0 103.05" class="st3"/></g><g id="shape15-12" transform="translate(57.4878,-79.8736)"><title content="structured text">Graphic.14</title><path d="M0 91.71 L0 103.05 L0 91.71 Z" class="st2"/><path d="M0 91.71 L0 103.05" class="st4"/></g><g id="shape16-15" transform="translate(102.842,-79.8736)"><title content="structured text">Graphic.15</title><path d="M0 91.71 L0 103.05 L0 91.71 Z" class="st2"/><path d="M0 91.71 L0 103.05" class="st4"/></g><g id="shape17-18" transform="translate(148.196,-79.8736)"><title content="structured text">Graphic.16</title><path d="M0 91.71 L0 103.05 L0 91.71 Z" class="st2"/><path d="M0 91.71 L0 103.05" class="st4"/></g><g id="shape18-21" transform="translate(193.55,-79.8736)"><title content="structured text">Graphic.17</title><path d="M0 91.71 L0 103.05 L0 91.71 Z" class="st2"/><path d="M0 91.71 L0 103.05" class="st4"/></g><g id="shape19-24" transform="translate(238.905,-79.8736)"><title content="structured text">Graphic.18</title><path d="M0 91.71 L0 103.05 L0 91.71 Z" class="st2"/><path d="M0 91.71 L0 103.05" class="st4"/></g><g id="shape20-27" transform="translate(329.613,-79.8736)"><title content="structured text">Graphic.19</title><path d="M0 91.71 L0 103.05 L0 91.71 Z" class="st2"/><path d="M0 91.71 L0 103.05" class="st4"/></g><g id="shape21-30" transform="translate(374.968,-79.8736)"><title content="structured text">Graphic.20</title><path d="M0 91.71 L0 103.05 L0 91.71 Z" class="st2"/><path d="M0 91.71 L0 103.05" class="st4"/></g><g id="shape22-33" transform="translate(12.1336,-79.873)"><title content="structured text">Rectangle No Fill No Fill.21</title><desc content="structured text">31</desc><rect x="0" y="91.7115" width="11.3386" height="11.3386" class="st5"/><text x="1.22" y="99.78" class="st6">63</text></g><g id="shape23-36" transform="translate(363.629,-79.873)"><title content="structured text">Rectangle No Fill No Fill.22</title><desc content="structured text">0</desc><rect x="0" y="91.7115" width="11.3386" height="11.3386" class="st5"/><text x="3.44" y="99.78" class="st6">0</text></g><g id="shape43-39" transform="translate(102.842,-51.5236)"><title content="structured text">Graphic.42</title><path d="M0 74.7 L0 103.05 L0 74.7 Z" class="st2"/><path d="M0 74.7 L0 103.05" class="st3"/></g><g id="shape47-42" transform="translate(102.844,-51.5236)"><title content="structured text">Rectangle No Fill No Fill.46</title><desc content="structured text">M</desc><rect x="0" y="74.7037" width="272.126" height="28.3464" class="st7"/><text x="130.5" y="91.28" class="st6">PC</text></g><g id="shape48-45" transform="translate(23.4744,-60.0276)"><title content="structured text">Rectangle No Fill No Fill.47</title><desc content="structured text">A</desc><rect x="0" y="91.7115" width="22.6772" height="11.3386" class="st7"/><text x="6.45" y="99.78" class="st6">EL</text></g><g id="shape51-48" transform="translate(91.5059,-79.8701)"><title content="structured text">Rectangle No Fill No Fill.79</title><desc content="structured text">26</desc><rect x="0" y="91.7115" width="11.3386" height="11.3386" class="st5"/><text x="1.22" y="99.78" class="st6">56</text></g><g id="shape74-51" transform="translate(102.844,-79.8701)"><title content="structured text">Rectangle No Fill No Fill.102</title><desc content="structured text">27</desc><rect x="0" y="91.7115" width="11.3386" height="11.3386" class="st5"/><text x="1.22" y="99.78" class="st6">55</text></g><g id="shape75-54" transform="translate(46.1492,-79.873)"><title content="structured text">Rectangle No Fill No Fill.103</title><desc content="structured text">28</desc><rect x="0" y="91.7115" width="11.3386" height="11.3386" class="st5"/><text x="1.22" y="99.78" class="st6">60</text></g><g id="shape76-57" transform="translate(34.8107,-79.873)"><title content="structured text">Rectangle No Fill No Fill.104</title><desc content="structured text">29</desc><rect x="0" y="91.7115" width="11.3386" height="11.3386" class="st5"/><text x="1.22" y="99.78" class="st6">61</text></g><g id="shape77-60" transform="translate(23.4722,-79.873)"><title content="structured text">Rectangle No Fill No Fill.105</title><desc content="structured text">30</desc><rect x="0" y="91.7115" width="11.3386" height="11.3386" class="st5"/><text x="1.22" y="99.78" class="st6">62</text></g><g id="shape78-63" transform="translate(46.1516,-51.5236)"><title content="structured text">Graphic.106</title><path d="M0 74.7 L0 103.05 L0 74.7 Z" class="st2"/><path d="M0 74.7 L0 103.05" class="st3"/></g><g id="group85-66" transform="translate(12.1358,-11.8386)"><title content="structured text">Sheet.85</title><g id="shape86-67" transform="translate(11.3386,0)"><title content="structured text">Rectangle No Fill No Fill.116</title><desc content="structured text">res0</desc><rect x="0" y="91.7115" width="22.6772" height="11.3386" class="st5"/><text x="3.07" y="99.78" class="st8">RES<tspan class="st9">0</tspan></text></g><g id="shape87-71"><title content="structured text">Graphic.117</title><rect x="0" y="91.7115" width="11.3386" height="11.3386" class="st1"/></g></g><g id="shape2-73" transform="translate(23.4744,-51.5236)"><title content="structured text">Graphic.2</title><path d="M0 74.7 L0 103.05 L0 74.7 Z" class="st2"/><path d="M0 74.7 L0 103.05" class="st3"/></g><g id="shape3-76" transform="translate(29.1437,-43.0197) scale(-1,1)"><title content="structured text">Bit name 2</title><desc content="structured text">NS</desc><path d="M11.34 97.38 L11.34 103.05 L0 103.05" class="st10"/><text x="1" y="105.45" transform="scale(-1,1)" class="st6">NS</text></g><g id="group4-80" transform="translate(236.693,-76.5354)"><title content="structured text">Disconnect</title><g id="shape5-81" transform="translate(0.566929,0)"><title content="structured text">Sheet.5</title><rect x="0" y="97.3808" width="1.88976" height="5.66929" class="st11"/></g><g id="shape6-83" transform="translate(104.077,114.255) rotate(99.4623)"><title content="structured text">Sheet.6</title><path d="M0 102.64 C0.15 102.84 0.72 103.01 1.15 103.04 C1.58 103.08 1.86 102.97 2.34 102.73 C2.63 102.59 2.98 102.41         3.29 102.28 C4.56 101.78 5.03 102.34 5.75 102.64" class="st10"/></g><g id="shape7-86" transform="translate(102.187,114.255) rotate(99.4623)"><title content="structured text">Sheet.7</title><path d="M0 102.64 C0.15 102.84 0.72 103.01 1.15 103.04 C1.58 103.08 1.86 102.97 2.34 102.73 C2.63 102.59 2.98 102.41         3.29 102.28 C4.56 101.78 5.03 102.34 5.75 102.64" class="st10"/></g></g><g id="group8-89" transform="translate(236.693,-48.189)"><title content="structured text">Disconnect.8</title><g id="shape9-90" transform="translate(0.566929,0)"><title content="structured text">Sheet.9</title><rect x="0" y="97.3808" width="1.88976" height="5.66929" class="st11"/></g><g id="shape10-92" transform="translate(104.077,114.255) rotate(99.4623)"><title content="structured text">Sheet.10</title><path d="M0 102.64 C0.15 102.84 0.72 103.01 1.15 103.04 C1.58 103.08 1.86 102.97 2.34 102.73 C2.63 102.59 2.98 102.41         3.29 102.28 C4.56 101.78 5.03 102.34 5.75 102.64" class="st10"/></g><g id="shape11-95" transform="translate(102.187,114.255) rotate(99.4623)"><title content="structured text">Sheet.11</title><path d="M0 102.64 C0.15 102.84 0.72 103.01 1.15 103.04 C1.58 103.08 1.86 102.97 2.34 102.73 C2.63 102.59 2.98 102.41         3.29 102.28 C4.56 101.78 5.03 102.34 5.75 102.64" class="st10"/></g></g></g></svg>