<?xml version="1.0" encoding="UTF-8" standalone="no"?><!-- Fixed up by svgfix.xsl 1.4  --><!-- Generated by Microsoft Visio 11.0, SVG Export, v1.0 AMCFGR_EL0_bit_assignments.svg ARM -->
<!DOCTYPE svg
  PUBLIC "-//W3C//DTD SVG 1.0//EN" "http://www.w3.org/TR/2001/REC-SVG-20010904/DTD/svg10.dtd">
<svg xmlns:xlink="http://www.w3.org/1999/xlink" xmlns="http://www.w3.org/2000/svg" xmlns:ev="http://www.w3.org/2001/xml-events" width="516.142" height="123.148" viewBox="0 0 387.106 92.361" xml:space="preserve" color-interpolation-filters="sRGB" class="st10" preserveAspectRatio="xMidYMid meet" zoomAndPan="magnify" version="1.0" contentScriptType="text/ecmascript" contentStyleType="text/css"><style type="text/css" xml:space="preserve"><![CDATA[
	
		.st1 {fill:#eed9b3;stroke:none;stroke-linecap:round;stroke-linejoin:round;stroke-width:0.2px}
		.st2 {fill:none}
		.st3 {stroke:#000000;stroke-linecap:butt;stroke-width:0.799997px}
		.st4 {stroke:#000000;stroke-dasharray:0.249999,0.499999;stroke-linecap:butt;stroke-width:0.249999px}
		.st5 {fill:none;stroke:none;stroke-linecap:butt;stroke-width:0.499999px}
		.st6 {fill:#000000;font-family:Arial,Helvetica,sans-serif;font-size:0.666664em}
		.st7 {fill:none;stroke:none;stroke-linecap:round;stroke-linejoin:round;stroke-width:0.2px}
		.st8 {fill:#000000;font-family:Arial,Helvetica,sans-serif;font-size:0.533318em}
		.st9 {font-size:1.25003em}
		.st10 {fill:none;fill-rule:evenodd;font-size:12px;overflow:visible;stroke-linecap:square;stroke-miterlimit:3}]]></style><g xmlns:v="http://schemas.microsoft.com/visio/2003/SVGExtensions/"><title content="structured text">ARM</title><g id="shape8-1" transform="translate(12.1336,-40.8379)"><title content="structured text">Graphic.8</title><rect x="0" y="64.0144" width="204.023" height="28.3464" class="st1"/></g><g id="shape11-3" transform="translate(12.1386,-40.8344)"><title content="structured text">Graphic.11</title><path d="M362.83 64.01 L0 64.01 L0 92.36 L362.83 92.36 L362.83 64.01 Z" class="st2"/><path d="M362.83 64.01 L0 64.01 L0 92.36 L362.83 92.36" class="st3"/></g><g id="shape12-6" transform="translate(12.1336,-69.1843)"><title content="structured text">Graphic.12</title><path d="M0 81.02 L0 92.36 L0 81.02 Z" class="st2"/><path d="M0 81.02 L0 92.36" class="st4"/></g><g id="shape13-9" transform="translate(374.968,-40.8344)"><title content="structured text">Graphic.13</title><path d="M0 64.01 L0 92.36 L0 64.01 Z" class="st2"/><path d="M0 64.01 L0 92.36" class="st3"/></g><g id="shape20-12" transform="translate(374.968,-69.1843)"><title content="structured text">Graphic.20</title><path d="M0 81.02 L0 92.36 L0 81.02 Z" class="st2"/><path d="M0 81.02 L0 92.36" class="st4"/></g><g id="shape21-15" transform="translate(12.1336,-69.1837)"><title content="structured text">Rectangle No Fill No Fill.21</title><desc content="structured text">31</desc><rect x="0" y="81.0223" width="11.3386" height="11.3386" class="st5"/><text x="1.22" y="89.09" class="st6">31</text></g><g id="shape22-18" transform="translate(363.629,-69.1837)"><title content="structured text">Rectangle No Fill No Fill.22</title><desc content="structured text">0</desc><rect x="0" y="81.0223" width="11.3386" height="11.3386" class="st5"/><text x="3.44" y="89.09" class="st6">0</text></g><g id="shape24-21" transform="translate(284.259,-40.8344)"><title content="structured text">Graphic.24</title><path d="M0 64.01 L0 92.36 L0 64.01 Z" class="st2"/><path d="M0 64.01 L0 92.36" class="st3"/></g><g id="shape36-24" transform="translate(216.227,-40.8344)"><title content="structured text">Graphic.36</title><path d="M0 64.01 L0 92.36 L0 64.01 Z" class="st2"/><path d="M0 64.01 L0 92.36" class="st3"/></g><g id="shape46-27" transform="translate(284.188,-40.8379)"><title content="structured text">Rectangle No Fill No Fill.46</title><desc content="structured text">M</desc><rect x="0" y="64.0144" width="90.7789" height="28.3464" class="st7"/><text x="42.5" y="80.59" class="st6">N</text></g><g id="shape88-30" transform="translate(204.889,-68.5315)"><title content="structured text">Rectangle No Fill No Fill.89</title><desc content="structured text">14</desc><rect x="0" y="81.0223" width="11.3386" height="11.3386" class="st5"/><text x="1.22" y="89.09" class="st6">14</text></g><g id="shape92-33" transform="translate(272.92,-69.1837)"><title content="structured text">Rectangle No Fill No Fill.93</title><desc content="structured text">8</desc><rect x="0" y="81.0223" width="11.3386" height="11.3386" class="st5"/><text x="3.44" y="89.09" class="st6">8</text></g><g id="shape94-36" transform="translate(284.259,-69.1837)"><title content="structured text">Rectangle No Fill No Fill.95</title><desc content="structured text">7</desc><rect x="0" y="81.0223" width="11.3386" height="11.3386" class="st5"/><text x="3.44" y="89.09" class="st6">7</text></g><g id="group115-39" transform="translate(12.0625,-11.8386)"><title content="structured text">Sheet.115</title><g id="shape116-40" transform="translate(11.3386,0)"><title content="structured text">Rectangle No Fill No Fill.116</title><desc content="structured text">res0</desc><rect x="0" y="81.0223" width="22.6772" height="11.3386" class="st5"/><text x="3.07" y="89.09" class="st8">RES<tspan class="st9">0</tspan></text></g><g id="shape117-44"><title content="structured text">Graphic.117</title><rect x="0" y="81.0223" width="11.3386" height="11.3386" class="st1"/></g></g><g id="shape1-46" transform="translate(216.157,-40.185)"><title content="structured text">Rectangle No Fill No Fill.1</title><desc content="structured text">SIZE</desc><rect x="0" y="64.0144" width="68.0315" height="28.3464" class="st7"/><text x="25.13" y="80.59" class="st6">SIZE</text></g><g id="shape2-49" transform="translate(216.157,-68.5315)"><title content="structured text">Rectangle No Fill No Fill.2</title><desc content="structured text">14</desc><rect x="0" y="81.0223" width="11.3386" height="11.3386" class="st5"/><text x="1.22" y="89.09" class="st6">13</text></g></g></svg>