<?xml version="1.0" encoding="UTF-8" standalone="no"?><!-- Fixed up by svgfix.xsl 1.4  --><!-- Generated by Microsoft Visio 11.0, SVG Export, v1.0 lau1466758747502_low res.svg ARM -->
<!DOCTYPE svg
  PUBLIC "-//W3C//DTD SVG 1.0//EN" "http://www.w3.org/TR/2001/REC-SVG-20010904/DTD/svg10.dtd">
<svg xmlns:xlink="http://www.w3.org/1999/xlink" xmlns="http://www.w3.org/2000/svg" xmlns:ev="http://www.w3.org/2001/xml-events" width="518.885" height="182.417" viewBox="0 0 389.163 136.813" xml:space="preserve" color-interpolation-filters="sRGB" class="st10" preserveAspectRatio="xMidYMid meet" zoomAndPan="magnify" version="1.0" contentScriptType="text/ecmascript" contentStyleType="text/css"><style type="text/css" xml:space="preserve"><![CDATA[
	
		.st1 {fill:#eed9b3;stroke:none;stroke-linecap:round;stroke-linejoin:round;stroke-width:0.2px}
		.st2 {fill:#000000;font-family:Arial,Helvetica,sans-serif;font-size:0.666664em}
		.st3 {fill:#ffffff;visibility:hidden}
		.st4 {stroke:#000000;stroke-linecap:butt;stroke-width:0.8px}
		.st5 {stroke:#000000;stroke-dasharray:0.25,1;stroke-linecap:butt;stroke-width:0.25px}
		.st6 {fill:none;stroke:none;stroke-linecap:butt;stroke-width:0.499999px}
		.st7 {fill:#000000;font-family:Arial,Helvetica,sans-serif;font-size:0.533318em}
		.st8 {font-size:1.25003em}
		.st9 {stroke:#000000;stroke-linecap:butt;stroke-width:0.5px}
		.st10 {fill:none;fill-rule:evenodd;font-size:12px;overflow:visible;stroke-linecap:square;stroke-miterlimit:3}]]></style><g xmlns:v="http://schemas.microsoft.com/visio/2003/SVGExtensions/"><title content="structured text">ARM</title><g id="shape37-1" transform="translate(365.686,-85.6523)"><title content="structured text">Graphic.37</title><rect x="0" y="108.579" width="11.0638" height="28.2335" class="st1"/></g><g id="shape22-3" transform="translate(36.8674,-85.6523)"><title content="structured text">Graphic.1</title><rect x="0" y="108.579" width="260.787" height="28.2335" class="st1"/></g><g id="shape2-5" transform="translate(14.1902,-113.886)"><title content="structured text">Bit31</title><desc content="structured text">31</desc><text x="1.22" y="133.54" class="st2">31</text></g><g id="shape9-7" transform="translate(14.1902,-85.5394)"><title content="structured text">MainOutline+Bit00</title><desc content="structured text">0</desc><rect x="0" y="108.467" width="362.835" height="28.3465" class="st3"/><rect x="0" y="108.467" width="362.835" height="28.3465" class="st4"/><text x="354.94" y="105.2" class="st2">0</text></g><g id="shape10-11" transform="translate(468.484,11.5886) rotate(90)"><title content="structured text">Signal 0</title><path d="M0 136.81 L11.34 136.81" class="st5"/></g><g id="shape11-14" transform="translate(423.129,11.5886) rotate(90)"><title content="structured text">Signal 0.102</title><path d="M0 136.81 L11.34 136.81" class="st5"/></g><g id="shape12-17" transform="translate(377.775,11.5886) rotate(90)"><title content="structured text">Signal 0.103</title><path d="M0 136.81 L11.34 136.81" class="st5"/></g><g id="shape13-20" transform="translate(332.421,11.5886) rotate(90)"><title content="structured text">Signal 0.104</title><path d="M0 136.81 L11.34 136.81" class="st5"/></g><g id="shape14-23" transform="translate(287.066,11.5886) rotate(90)"><title content="structured text">Signal 0.105</title><path d="M0 136.81 L11.34 136.81" class="st5"/></g><g id="shape15-26" transform="translate(241.712,11.5886) rotate(90)"><title content="structured text">Signal 0.106</title><path d="M0 136.81 L11.34 136.81" class="st5"/></g><g id="shape16-29" transform="translate(196.358,11.5886) rotate(90)"><title content="structured text">Signal 0.107</title><path d="M0 136.81 L11.34 136.81" class="st5"/></g><g id="shape17-32" transform="translate(151.003,11.5886) rotate(90)"><title content="structured text">Signal 0.108</title><path d="M0 136.81 L11.34 136.81" class="st5"/></g><g id="shape18-35" transform="translate(513.838,11.5886) rotate(90)"><title content="structured text">Signal 0.109</title><path d="M0 136.81 L11.34 136.81" class="st5"/></g><g id="group19-38" transform="translate(14.1732,-5.66929)"><title content="structured text">Sheet.19</title><g id="shape20-39" transform="translate(11.3386,0)"><title content="structured text">Rectangle No Fill No Fill.116</title><desc content="structured text">res0</desc><rect x="0" y="125.474" width="22.6772" height="11.3386" class="st6"/><text x="3.07" y="133.54" class="st7">RES<tspan class="st8">0</tspan></text></g><g id="shape21-43"><title content="structured text">Graphic.117</title><rect x="0" y="125.474" width="11.3386" height="11.3386" class="st1"/></g></g><g id="shape23-45" transform="translate(354.348,-113.886)"><title content="structured text">Sheet.23</title><desc content="structured text">1</desc><text x="3.44" y="133.54" class="st2">1</text></g><g id="shape24-47" transform="translate(25.5288,-85.5394)"><title content="structured text">Sheet.24</title><path d="M0 136.81 L0 108.47" class="st4"/><path d="M11.34 136.81 L11.34 108.47" class="st4"/></g><g id="shape25-51" transform="translate(25.5288,-113.886)"><title content="structured text">Sheet.25</title><desc content="structured text">30</desc><text x="1.22" y="133.54" class="st2">30</text></g><g id="shape26-53" transform="translate(36.8674,-113.886)"><title content="structured text">Sheet.26</title><desc content="structured text">29</desc><text x="1.22" y="133.54" class="st2">29</text></g><g id="shape27-55" transform="translate(343.009,-113.886)"><title content="structured text">Sheet.27</title><desc content="structured text">2</desc><text x="3.44" y="133.54" class="st2">2</text></g><g id="shape28-57" transform="translate(331.671,-113.886)"><title content="structured text">Sheet.28</title><desc content="structured text">3</desc><text x="3.44" y="133.54" class="st2">3</text></g><g id="shape29-59" transform="translate(320.332,-113.886)"><title content="structured text">Sheet.29</title><desc content="structured text">4</desc><text x="3.44" y="133.54" class="st2">4</text></g><g id="shape30-61" transform="translate(308.993,-113.886)"><title content="structured text">Sheet.30</title><desc content="structured text">5</desc><text x="3.44" y="133.54" class="st2">5</text></g><g id="shape31-63" transform="translate(297.655,-113.886)"><title content="structured text">Sheet.31</title><desc content="structured text">6</desc><text x="3.44" y="133.54" class="st2">6</text></g><g id="shape32-65" transform="translate(286.316,-113.886)"><title content="structured text">Sheet.32</title><desc content="structured text">7</desc><text x="3.44" y="133.54" class="st2">7</text></g><g id="shape33-67" transform="translate(354.348,-85.5394)"><title content="structured text">Sheet.33</title><path d="M0 136.81 L0 108.47" class="st4"/><path d="M11.34 136.81 L11.34 108.47" class="st4"/></g><g id="shape34-71" transform="translate(331.671,-85.5394)"><title content="structured text">Sheet.34</title><path d="M0 136.81 L0 108.47" class="st4"/><path d="M11.34 136.81 L11.34 108.47" class="st4"/></g><g id="shape35-75" transform="translate(308.993,-85.5394)"><title content="structured text">Sheet.35</title><path d="M0 136.81 L0 108.47" class="st4"/><path d="M11.34 136.81 L11.34 108.47" class="st4"/></g><g id="shape36-79" transform="translate(297.655,-85.5394)"><title content="structured text">Sheet.36</title><path d="M0 136.81 L0 108.47" class="st4"/><path d="M0 136.81 L0 108.47" class="st4"/></g><g id="shape1-83" transform="translate(42.5367,-77.0354) scale(-1,1)"><title content="structured text">Bit name 2</title><desc content="structured text">R</desc><path d="M11.34 131.14 L11.34 136.81 L0 136.81" class="st9"/><text x="1" y="139.21" transform="scale(-1,1)" class="st2">R</text></g><g id="shape3-87" transform="translate(42.5367,-65.6968) scale(-1,1)"><title content="structured text">Bit name 2.3</title><desc content="structured text">PFG</desc><path d="M22.68 119.81 L22.68 136.81 L0 136.81" class="st9"/><text x="1" y="139.21" transform="scale(-1,1)" class="st2">PFG</text></g><g id="shape4-91" transform="translate(291.985,-77.0354)"><title content="structured text">Bit name 1</title><desc content="structured text">CE</desc><path d="M11.34 131.14 L11.34 136.81 L0 136.81" class="st9"/><text x="-12.11" y="139.21" class="st2">CE</text></g><g id="shape5-95" transform="translate(291.985,-65.6968)"><title content="structured text">Bit name 1.5</title><desc content="structured text">DE</desc><path d="M22.68 119.81 L22.68 136.81 L0 136.81" class="st9"/><text x="-12.11" y="139.21" class="st2">DE</text></g><g id="shape6-99" transform="translate(291.969,-53.8583)"><title content="structured text">Bit name 1.6</title><desc content="structured text">UEO</desc><path d="M34.02 108.47 L34.02 136.81 L0 136.81" class="st9"/><text x="-18.34" y="139.21" class="st2">UEO</text></g><g id="shape7-103" transform="translate(291.969,-42.5197)"><title content="structured text">Bit name 1.7</title><desc content="structured text">UER</desc><path d="M45.35 97.13 L45.35 136.81 L0 136.81" class="st9"/><text x="-17.89" y="139.21" class="st2">UER</text></g><g id="shape38-107" transform="translate(291.969,-31.1811)"><title content="structured text">Bit name 1.38</title><desc content="structured text">UEU</desc><path d="M56.69 85.79 L56.69 136.81 L0 136.81" class="st9"/><text x="-17.89" y="139.21" class="st2">UEU</text></g><g id="shape39-111" transform="translate(291.969,-19.8425)"><title content="structured text">Bit name 1.39</title><desc content="structured text">UC</desc><path d="M68.03 74.45 L68.03 136.81 L0 136.81" class="st9"/><text x="-12.55" y="139.21" class="st2">UC</text></g></g></svg>