<?xml version="1.0" encoding="UTF-8" standalone="no"?><!-- Fixed up by svgfix.xsl 1.4  --><!-- Generated by Microsoft Visio 11.0, SVG Export, v1.0 ICC_SRE_bit_assignments.svg ARM -->
<!DOCTYPE svg
  PUBLIC "-//W3C//DTD SVG 1.0//EN" "http://www.w3.org/TR/2001/REC-SVG-20010904/DTD/svg10.dtd">
<svg xmlns:xlink="http://www.w3.org/1999/xlink" xmlns="http://www.w3.org/2000/svg" xmlns:ev="http://www.w3.org/2001/xml-events" width="549.098" height="182.417" viewBox="0 0 411.824 136.813" xml:space="preserve" color-interpolation-filters="sRGB" class="st12" preserveAspectRatio="xMidYMid meet" zoomAndPan="magnify" version="1.0" contentScriptType="text/ecmascript" contentStyleType="text/css"><style type="text/css" xml:space="preserve"><![CDATA[
	
		.st1 {fill:#eed9b3;stroke:none;stroke-linecap:round;stroke-linejoin:round;stroke-width:0.2px}
		.st2 {fill:#000000;font-family:Arial,Helvetica,sans-serif;font-size:0.666664em}
		.st3 {fill:#ffffff;visibility:hidden}
		.st4 {stroke:#000000;stroke-linecap:butt;stroke-width:0.8px}
		.st5 {stroke:#000000;stroke-dasharray:0.25,1;stroke-linecap:butt;stroke-width:0.25px}
		.st6 {fill:none}
		.st7 {stroke:#000000;stroke-linecap:butt;stroke-width:0.799997px}
		.st8 {stroke:#000000;stroke-linecap:butt;stroke-width:0.5px}
		.st9 {fill:none;stroke:none;stroke-linecap:butt;stroke-width:0.499999px}
		.st10 {fill:#000000;font-family:Arial,Helvetica,sans-serif;font-size:0.533318em}
		.st11 {font-size:1.25003em}
		.st12 {fill:none;fill-rule:evenodd;font-size:12px;overflow:visible;stroke-linecap:square;stroke-miterlimit:3}]]></style><g xmlns:v="http://schemas.microsoft.com/visio/2003/SVGExtensions/"><title content="structured text">ARM</title><g id="shape3-1" transform="translate(12.1386,-85.5394)"><title content="structured text">Graphic.260</title><rect x="0" y="108.579" width="328.819" height="28.2335" class="st1"/></g><g id="shape4-3" transform="translate(12.1386,-113.886)"><title content="structured text">Bit31</title><desc content="structured text">31</desc><text x="1.22" y="133.54" class="st2">31</text></g><g id="shape5-5" transform="translate(12.1386,-85.5394)"><title content="structured text">MainOutline+Bit00</title><desc content="structured text">0</desc><rect x="0" y="108.467" width="362.835" height="28.3465" class="st3"/><rect x="0" y="108.467" width="362.835" height="28.3465" class="st4"/><text x="354.94" y="105.2" class="st2">0</text></g><g id="shape6-9" transform="translate(466.432,11.5886) rotate(90)"><title content="structured text">Signal 0.48</title><path d="M0 136.81 L11.34 136.81" class="st5"/></g><g id="shape7-12" transform="translate(421.078,11.5886) rotate(90)"><title content="structured text">Signal 0.49</title><path d="M0 136.81 L11.34 136.81" class="st5"/></g><g id="shape8-15" transform="translate(375.723,11.5886) rotate(90)"><title content="structured text">Signal 0.50</title><path d="M0 136.81 L11.34 136.81" class="st5"/></g><g id="shape9-18" transform="translate(330.369,11.5886) rotate(90)"><title content="structured text">Signal 0.51</title><path d="M0 136.81 L11.34 136.81" class="st5"/></g><g id="shape10-21" transform="translate(285.015,11.5886) rotate(90)"><title content="structured text">Signal 0.52</title><path d="M0 136.81 L11.34 136.81" class="st5"/></g><g id="shape11-24" transform="translate(239.66,11.5886) rotate(90)"><title content="structured text">Signal 0.53</title><path d="M0 136.81 L11.34 136.81" class="st5"/></g><g id="shape12-27" transform="translate(194.306,11.5886) rotate(90)"><title content="structured text">Signal 0.54</title><path d="M0 136.81 L11.34 136.81" class="st5"/></g><g id="shape13-30" transform="translate(148.952,11.5886) rotate(90)"><title content="structured text">Signal 0.55</title><path d="M0 136.81 L11.34 136.81" class="st5"/></g><g id="shape14-33" transform="translate(511.786,11.5886) rotate(90)"><title content="structured text">Signal 0.56</title><path d="M0 136.81 L11.34 136.81" class="st5"/></g><g id="shape15-36" transform="translate(12.1386,-85.5394)"><title content="structured text">Sheet.15</title><path d="M0 136.81 L0 108.47" class="st4"/><path d="M362.83 136.81 L362.83 108.47" class="st4"/></g><g id="shape16-40" transform="translate(352.296,-113.886)"><title content="structured text">Bit31.14</title><desc content="structured text">1</desc><text x="3.44" y="133.54" class="st2">1</text></g><g id="shape17-42" transform="translate(340.957,-113.886)"><title content="structured text">Bit31.15</title><desc content="structured text">2</desc><text x="3.44" y="133.54" class="st2">2</text></g><g id="shape18-44" transform="translate(330.991,-113.761)"><title content="structured text">Bit31.16</title><desc content="structured text">3</desc><text x="3.44" y="133.54" class="st2">3</text></g><g id="shape28-46" transform="translate(363.635,-85.5394)"><title content="structured text">Graphic.37</title><path d="M0 108.46 L0 136.81 L0 108.46 Z" class="st6"/><path d="M0 108.46 L0 136.81" class="st7"/></g><g id="shape29-49" transform="translate(352.296,-85.5394)"><title content="structured text">Graphic.27</title><path d="M0 108.46 L0 136.81 L0 108.46 Z" class="st6"/><path d="M0 108.46 L0 136.81" class="st7"/></g><g id="shape33-52" transform="translate(340.957,-85.4144)"><title content="structured text">Graphic.32</title><path d="M0 108.46 L0 136.81 L0 108.46 Z" class="st6"/><path d="M0 108.46 L0 136.81" class="st7"/></g><g id="shape37-55" transform="translate(380.643,-77.0354) scale(-1,1)"><title content="structured text">Bit name 2</title><desc content="structured text">SRE</desc><path d="M11.34 131.14 L11.34 136.81 L0 136.81" class="st8"/><text x="1" y="139.21" transform="scale(-1,1)" class="st2">SRE</text></g><g id="shape38-59" transform="translate(380.643,-65.6968) scale(-1,1)"><title content="structured text">Bit name 2.37</title><desc content="structured text">DFB</desc><path d="M22.68 119.81 L22.68 136.81 L0 136.81" class="st8"/><text x="1" y="139.21" transform="scale(-1,1)" class="st2">DFB</text></g><g id="shape39-63" transform="translate(380.643,-54.2333) scale(-1,1)"><title content="structured text">Bit name 2.39</title><desc content="structured text">DIB</desc><path d="M34.02 108.47 L34.02 136.81 L0 136.81" class="st8"/><text x="1" y="139.21" transform="scale(-1,1)" class="st2">DIB</text></g><g id="group44-67" transform="translate(13.6016,-11.8386)"><title content="structured text">Sheet.44</title><g id="shape45-68" transform="translate(11.3386,0)"><title content="structured text">Rectangle No Fill No Fill.116</title><desc content="structured text">res0</desc><rect x="0" y="125.474" width="22.6772" height="11.3386" class="st9"/><text x="3.07" y="133.54" class="st10">RES<tspan class="st11">0</tspan></text></g><g id="shape46-72"><title content="structured text">Graphic.117</title><rect x="0" y="125.474" width="11.3386" height="11.3386" class="st1"/></g></g></g></svg>