<?xml version="1.0" encoding="UTF-8" standalone="no"?><!-- Fixed up by svgfix.xsl 1.4  --><!-- Generated by Microsoft Visio 11.0, SVG Export, v1.0 lau1443618644372_low res.svg ARM -->
<!DOCTYPE svg
  PUBLIC "-//W3C//DTD SVG 1.0//EN" "http://www.w3.org/TR/2001/REC-SVG-20010904/DTD/svg10.dtd">
<svg xmlns:xlink="http://www.w3.org/1999/xlink" xmlns="http://www.w3.org/2000/svg" xmlns:ev="http://www.w3.org/2001/xml-events" width="516.149" height="114.386" viewBox="0 0 387.112 85.789" xml:space="preserve" color-interpolation-filters="sRGB" class="st11" preserveAspectRatio="xMidYMid meet" zoomAndPan="magnify" version="1.0" contentScriptType="text/ecmascript" contentStyleType="text/css"><style type="text/css" xml:space="preserve"><![CDATA[
	
		.st1 {fill:#eed9b3;stroke:none;stroke-linecap:round;stroke-linejoin:round;stroke-width:0.2px}
		.st2 {fill:#eed9b3;stroke:#000000;stroke-linecap:butt;stroke-width:0.5px}
		.st3 {stroke:#000000;stroke-linecap:butt;stroke-width:0.8px}
		.st4 {stroke:#000000;stroke-dasharray:0.25,0.5;stroke-linecap:butt;stroke-width:0.25px}
		.st5 {fill:#000000;font-family:Arial,Helvetica,sans-serif;font-size:0.666664em}
		.st6 {fill:none;stroke:none;stroke-linecap:round;stroke-linejoin:round;stroke-width:0.2px}
		.st7 {fill:none;stroke:none;stroke-linecap:butt;stroke-width:0.499999px}
		.st8 {fill:#000000;font-family:Arial,Helvetica,sans-serif;font-size:0.533318em}
		.st9 {font-size:1.25003em}
		.st10 {fill:#eed9b3;stroke:none;stroke-linecap:round;stroke-linejoin:round;stroke-width:0.2px}
		.st11 {fill:none;fill-rule:evenodd;font-size:12px;overflow:visible;stroke-linecap:square;stroke-miterlimit:3}]]></style><g xmlns:v="http://schemas.microsoft.com/visio/2003/SVGExtensions/"><title content="structured text">ARM</title><g id="shape14-1" transform="translate(102.847,-34.5157)"><title content="structured text">64-bit register.88</title><rect x="0" y="57.4429" width="271.326" height="28.3465" class="st1"/></g><g id="shape102-3" transform="translate(12.189,-34.5827)"><title content="structured text">Sheet.102</title><rect x="0" y="57.4429" width="45.3543" height="28.3465" class="st2"/></g><g id="shape1-5" transform="translate(374.973,-34.5157) scale(-1,1)"><title content="structured text">64-bit register.156</title><path d="M0 57.44 L362.83 57.44 L362.83 85.79 L0 85.79" class="st3"/></g><g id="shape2-8" transform="translate(97.928,11.5886) rotate(90)"><title content="structured text">64-bit register.169</title><path d="M0 85.79 L11.34 85.79" class="st4"/></g><g id="shape3-11" transform="translate(374.973,-34.5157)"><title content="structured text">64-bit register.157</title><path d="M0 57.44 L0 85.79" class="st3"/></g><g id="shape4-14" transform="translate(143.282,11.5886) rotate(90)"><title content="structured text">64-bit register.11</title><path d="M0 85.79 L11.34 85.79" class="st4"/></g><g id="shape5-17" transform="translate(188.637,11.5886) rotate(90)"><title content="structured text">64-bit register.12</title><path d="M0 85.79 L11.34 85.79" class="st4"/></g><g id="shape6-20" transform="translate(233.991,11.5886) rotate(90)"><title content="structured text">64-bit register.13</title><path d="M0 85.79 L11.34 85.79" class="st4"/></g><g id="shape7-23" transform="translate(279.345,11.5886) rotate(90)"><title content="structured text">64-bit register.14</title><path d="M0 85.79 L11.34 85.79" class="st4"/></g><g id="shape8-26" transform="translate(324.7,11.5886) rotate(90)"><title content="structured text">64-bit register.15</title><path d="M0 85.79 L11.34 85.79" class="st4"/></g><g id="shape9-29" transform="translate(415.408,11.5886) rotate(90)"><title content="structured text">64-bit register.16</title><path d="M0 85.79 L11.34 85.79" class="st4"/></g><g id="shape10-32" transform="translate(460.763,11.5886) rotate(90)"><title content="structured text">64-bit register.17</title><path d="M0 85.79 L11.34 85.79" class="st4"/></g><g id="shape11-35" transform="translate(12.1386,-62.8622)"><title content="structured text">64-bit register.179</title><desc content="structured text">31</desc><text x="1.22" y="82.52" class="st5">31</text></g><g id="shape12-37" transform="translate(363.635,-62.8622)"><title content="structured text">64-bit register.19</title><desc content="structured text">0</desc><text x="3.44" y="82.52" class="st5">0</text></g><g id="shape13-39" transform="translate(143.282,11.5886) rotate(90)"><title content="structured text">64-bit register.23</title><path d="M0 85.79 L11.34 85.79" class="st4"/></g><g id="shape15-42" transform="translate(370.054,11.5886) rotate(90)"><title content="structured text">64-bit register.33</title><path d="M0 85.79 L11.34 85.79" class="st4"/></g><g id="shape20-45" transform="translate(46.1543,-62.8622)"><title content="structured text">Bit28.20</title><desc content="structured text">28</desc><text x="1.22" y="82.52" class="st5">28</text></g><g id="shape97-47" transform="translate(57.4929,-62.8622)"><title content="structured text">Bit27.97</title><desc content="structured text">27</desc><text x="1.22" y="82.52" class="st5">27</text></g><g id="shape98-49" transform="translate(91.5087,-62.8622)"><title content="structured text">Bit24.98</title><desc content="structured text">24</desc><text x="1.22" y="82.52" class="st5">24</text></g><g id="shape99-51" transform="translate(102.847,-62.8622)"><title content="structured text">Bit23.99</title><desc content="structured text">23</desc><text x="1.22" y="82.52" class="st5">23</text></g><g id="shape100-53" transform="translate(102.847,-34.5157)"><title content="structured text">64-bit register.100</title><path d="M0 57.44 L0 85.79" class="st3"/></g><g id="shape101-56" transform="translate(57.4929,-34.5157)"><title content="structured text">64-bit register.101</title><path d="M0 57.44 L0 85.79" class="st3"/></g><g id="shape103-59" transform="translate(374.973,-34.5157) scale(-1,1)"><title content="structured text">64-bit register.103</title><path d="M0 57.44 L362.83 57.44 L362.83 85.79 L0 85.79" class="st3"/></g><g id="shape104-62" transform="translate(57.4929,-34.5157)"><title content="structured text">64-bit register.104</title><desc content="structured text">AuxRegs</desc><rect x="0" y="57.4429" width="45.3543" height="28.3465" class="st6"/><text x="6.45" y="74.02" class="st5">AuxRegs</text></g><g id="shape105-65" transform="translate(22.5786,-11.8386)"><title content="structured text">Rectangle No Fill No Fill.116</title><desc content="structured text">res0</desc><rect x="0" y="74.4508" width="19.8425" height="11.3386" class="st7"/><text x="1.24" y="82.52" class="st8">RES<tspan class="st9">0</tspan></text></g><g id="shape106-69" transform="translate(12.1386,-11.8386)"><title content="structured text">Graphic.117</title><rect x="0" y="74.4508" width="10.44" height="11.3386" class="st10"/></g></g></svg>