<?xml version="1.0" encoding="UTF-8" standalone="no"?><!-- Fixed up by svgfix.xsl 1.4  --><!-- Generated by Microsoft Visio 11.0, SVG Export, v1.0 lau1456826367793_low res.svg ARM -->
<!DOCTYPE svg
  PUBLIC "-//W3C//DTD SVG 1.0//EN" "http://www.w3.org/TR/2001/REC-SVG-20010904/DTD/svg10.dtd">
<svg xmlns:xlink="http://www.w3.org/1999/xlink" xmlns="http://www.w3.org/2000/svg" xmlns:ev="http://www.w3.org/2001/xml-events" width="516.149" height="178.638" viewBox="0 0 387.112 133.978" xml:space="preserve" color-interpolation-filters="sRGB" class="st9" preserveAspectRatio="xMidYMid meet" zoomAndPan="magnify" version="1.0" contentScriptType="text/ecmascript" contentStyleType="text/css"><style type="text/css" xml:space="preserve"><![CDATA[
	
		.st1 {fill:#eed9b3;stroke:none;stroke-linecap:round;stroke-linejoin:round;stroke-width:0.2px}
		.st2 {stroke:#000000;stroke-linecap:butt;stroke-width:0.8px}
		.st3 {stroke:#000000;stroke-dasharray:0.25,0.5;stroke-linecap:butt;stroke-width:0.25px}
		.st4 {fill:#000000;font-family:Arial,Helvetica,sans-serif;font-size:0.666664em}
		.st5 {stroke:#000000;stroke-linecap:butt;stroke-width:0.5px}
		.st6 {fill:none;stroke:none;stroke-linecap:butt;stroke-width:0.499999px}
		.st7 {fill:#000000;font-family:Arial,Helvetica,sans-serif;font-size:0.583328em}
		.st8 {font-size:1.14286em}
		.st9 {fill:none;fill-rule:evenodd;font-size:12px;overflow:visible;stroke-linecap:square;stroke-miterlimit:3}]]></style><g xmlns:v="http://schemas.microsoft.com/visio/2003/SVGExtensions/"><title content="structured text">ARM</title><g id="shape32-1" transform="translate(12.0627,-82.7047)"><title content="structured text">Graphic.32</title><rect x="0" y="105.745" width="55.9688" height="28.2335" class="st1"/></g><g id="shape31-3" transform="translate(124.724,-82.7047)"><title content="structured text">Graphic.31</title><rect x="0" y="105.745" width="22.6772" height="28.2335" class="st1"/></g><g id="shape39-5" transform="translate(159.639,-82.7047)"><title content="structured text">Graphic.1</title><rect x="0" y="105.745" width="214.534" height="28.2335" class="st1"/></g><g id="shape1-7" transform="translate(374.973,-82.7047) scale(-1,1)"><title content="structured text">64-bit register.156</title><path d="M0 105.63 L362.83 105.63 L362.83 133.98 L0 133.98" class="st2"/></g><g id="shape2-10" transform="translate(146.117,11.5886) rotate(90)"><title content="structured text">64-bit register.169</title><path d="M0 133.98 L11.34 133.98" class="st3"/></g><g id="shape3-13" transform="translate(374.973,-82.7047)"><title content="structured text">64-bit register.157</title><path d="M0 105.63 L0 133.98" class="st2"/></g><g id="shape4-16" transform="translate(191.471,11.5886) rotate(90)"><title content="structured text">64-bit register.11</title><path d="M0 133.98 L11.34 133.98" class="st3"/></g><g id="shape5-19" transform="translate(236.826,11.5886) rotate(90)"><title content="structured text">64-bit register.12</title><path d="M0 133.98 L11.34 133.98" class="st3"/></g><g id="shape6-22" transform="translate(282.18,11.5886) rotate(90)"><title content="structured text">64-bit register.13</title><path d="M0 133.98 L11.34 133.98" class="st3"/></g><g id="shape7-25" transform="translate(327.534,11.5886) rotate(90)"><title content="structured text">64-bit register.14</title><path d="M0 133.98 L11.34 133.98" class="st3"/></g><g id="shape8-28" transform="translate(372.889,11.5886) rotate(90)"><title content="structured text">64-bit register.15</title><path d="M0 133.98 L11.34 133.98" class="st3"/></g><g id="shape9-31" transform="translate(463.597,11.5886) rotate(90)"><title content="structured text">64-bit register.16</title><path d="M0 133.98 L11.34 133.98" class="st3"/></g><g id="shape10-34" transform="translate(508.952,11.5886) rotate(90)"><title content="structured text">64-bit register.17</title><path d="M0 133.98 L11.34 133.98" class="st3"/></g><g id="shape11-37" transform="translate(12.1386,-111.051)"><title content="structured text">64-bit register.179</title><desc content="structured text">31</desc><text x="1.22" y="130.71" class="st4">31</text></g><g id="shape12-39" transform="translate(363.635,-111.051)"><title content="structured text">64-bit register.19</title><desc content="structured text">0</desc><text x="3.44" y="130.71" class="st4">0</text></g><g id="shape13-41" transform="translate(418.243,11.5886) rotate(90)"><title content="structured text">64-bit register.21</title><path d="M0 133.98 L11.34 133.98" class="st3"/></g><g id="shape14-44" transform="translate(68.8315,-82.7047)"><title content="structured text">64-bit register.74</title><path d="M0 105.63 L0 133.98" class="st2"/></g><g id="shape15-47" transform="translate(80.1701,-82.7047)"><title content="structured text">64-bit register.75</title><path d="M0 105.63 L0 133.98" class="st2"/></g><g id="shape16-50" transform="translate(57.4929,-111.051)"><title content="structured text">64-bit register.76</title><desc content="structured text">27</desc><text x="1.22" y="130.71" class="st4">27</text></g><g id="shape17-52" transform="translate(68.8315,-111.051)"><title content="structured text">64-bit register.77</title><desc content="structured text">26</desc><text x="1.22" y="130.71" class="st4">26</text></g><g id="shape18-54" transform="translate(91.5087,-82.7047)"><title content="structured text">64-bit register.78</title><path d="M0 105.63 L0 133.98" class="st2"/></g><g id="shape19-57" transform="translate(102.847,-82.7047)"><title content="structured text">64-bit register.79</title><path d="M0 105.63 L0 133.98" class="st2"/></g><g id="shape20-60" transform="translate(80.1701,-111.051)"><title content="structured text">64-bit register.80</title><desc content="structured text">25</desc><text x="1.22" y="130.71" class="st4">25</text></g><g id="shape21-62" transform="translate(91.5087,-111.051)"><title content="structured text">64-bit register.81</title><desc content="structured text">24</desc><text x="1.22" y="130.71" class="st4">24</text></g><g id="shape22-64" transform="translate(125.524,-82.7047)"><title content="structured text">64-bit register.82</title><path d="M0 105.63 L0 133.98" class="st2"/></g><g id="shape23-67" transform="translate(102.847,-111.051)"><title content="structured text">64-bit register.84</title><desc content="structured text">23</desc><text x="1.22" y="130.71" class="st4">23</text></g><g id="shape24-69" transform="translate(114.186,-111.051)"><title content="structured text">64-bit register.85</title><desc content="structured text">22</desc><text x="1.22" y="130.71" class="st4">22</text></g><g id="shape25-71" transform="translate(125.524,-111.051)"><title content="structured text">64-bit register.86</title><desc content="structured text">21</desc><text x="1.22" y="130.71" class="st4">21</text></g><g id="shape27-73" transform="translate(63.1622,-74.2008)"><title content="structured text">Bit name 1</title><desc content="structured text">AHP</desc><path d="M11.34 128.31 L11.34 133.98 L0 133.98" class="st5"/><text x="-17.45" y="136.38" class="st4">AHP</text></g><g id="shape28-77" transform="translate(63.1622,-62.8622)"><title content="structured text">Bit name 1.56</title><desc content="structured text">DN</desc><path d="M22.68 116.97 L22.68 133.98 L0 133.98" class="st5"/><text x="-12.55" y="136.38" class="st4">DN</text></g><g id="shape29-81" transform="translate(165.209,-74.2008) scale(-1,1)"><title content="structured text">Bit name 1.44</title><desc content="structured text">FZ16</desc><path d="M11.34 128.31 L11.34 133.98 L0 133.98" class="st5"/><text x="1" y="136.38" transform="scale(-1,1)" class="st4">FZ16</text></g><g id="shape33-85" transform="translate(148.202,-82.7047)"><title content="structured text">64-bit register.33</title><path d="M0 105.63 L0 133.98" class="st2"/></g><g id="shape34-88" transform="translate(159.54,-82.7047)"><title content="structured text">64-bit register.34</title><path d="M0 105.63 L0 133.98" class="st2"/></g><g id="shape35-91" transform="translate(136.863,-111.051)"><title content="structured text">Sheet.35</title><desc content="structured text">20</desc><text x="1.22" y="130.71" class="st4">20</text></g><g id="shape36-93" transform="translate(148.202,-111.051)"><title content="structured text">Sheet.36</title><desc content="structured text">19</desc><text x="1.22" y="130.71" class="st4">19</text></g><g id="shape37-95" transform="translate(159.54,-111.051)"><title content="structured text">Sheet.37</title><desc content="structured text">18</desc><text x="1.22" y="130.71" class="st4">18</text></g><g id="shape30-97" transform="translate(63.1622,-51.5236)"><title content="structured text">Bit name 1.30</title><desc content="structured text">FZ</desc><path d="M34.02 105.63 L34.02 133.98 L0 133.98" class="st5"/><text x="-10.77" y="136.38" class="st4">FZ</text></g><g id="shape38-101" transform="translate(63.1622,-40.185)"><title content="structured text">Bit name 1.38</title><desc content="structured text">RMode</desc><path d="M51.02 94.29 L51.02 133.98 L0 133.98" class="st5"/><text x="-26.79" y="136.38" class="st4">RMode</text></g><g id="shape26-105" transform="translate(17.9065,-5.6693)"><title content="structured text">Graphic.117</title><rect x="0" y="122.64" width="10.44" height="11.3386" class="st1"/></g><g id="shape40-107" transform="translate(22.6772,-5.66929)"><title content="structured text">Rectangle No Fill No Fill.116</title><desc content="structured text">res0</desc><rect x="0" y="122.64" width="29.7637" height="11.3386" class="st6"/><text x="9.93" y="130.71" class="st7">RES<tspan class="st8">0</tspan></text></g></g></svg>