<?xml version="1.0" encoding="UTF-8" standalone="no"?><!-- Fixed up by svgfix.xsl 1.4  --><!-- Generated by Microsoft Visio 11.0, SVG Export, v1.0 lau1442503295517_low res.svg ARM -->
<!DOCTYPE svg
  PUBLIC "-//W3C//DTD SVG 1.0//EN" "http://www.w3.org/TR/2001/REC-SVG-20010904/DTD/svg10.dtd">
<svg xmlns:xlink="http://www.w3.org/1999/xlink" xmlns="http://www.w3.org/2000/svg" xmlns:ev="http://www.w3.org/2001/xml-events" width="516.149" height="212.653" viewBox="0 0 387.112 159.49" xml:space="preserve" color-interpolation-filters="sRGB" class="st11" preserveAspectRatio="xMidYMid meet" zoomAndPan="magnify" version="1.0" contentScriptType="text/ecmascript" contentStyleType="text/css"><style type="text/css" xml:space="preserve"><![CDATA[
	
		.st1 {fill:#eed9b3;stroke:none;stroke-linecap:round;stroke-linejoin:round;stroke-width:0.2px}
		.st2 {stroke:#000000;stroke-linecap:butt;stroke-width:0.8px}
		.st3 {stroke:#000000;stroke-dasharray:0.25,0.5;stroke-linecap:butt;stroke-width:0.25px}
		.st4 {fill:#000000;font-family:Arial,Helvetica,sans-serif;font-size:0.666664em}
		.st5 {stroke:#000000;stroke-linecap:butt;stroke-width:0.5px}
		.st6 {fill:none;stroke:none;stroke-linecap:butt;stroke-width:0.5px}
		.st7 {font-size:1em}
		.st8 {fill:none;stroke:none;stroke-linecap:butt;stroke-width:0.499999px}
		.st9 {fill:#000000;font-family:Arial,Helvetica,sans-serif;font-size:0.583328em}
		.st10 {font-size:1.14286em}
		.st11 {fill:none;fill-rule:evenodd;font-size:12px;overflow:visible;stroke-linecap:square;stroke-miterlimit:3}]]></style><g xmlns:v="http://schemas.microsoft.com/visio/2003/SVGExtensions/"><title content="structured text">ARM</title><g id="shape27-1" transform="translate(295.603,-108.329)"><title content="structured text">Graphic.27</title><rect x="0" y="131.257" width="22.6772" height="28.2335" class="st1"/></g><g id="shape14-3" transform="translate(68.8315,-108.217)"><title content="structured text">Graphic.3</title><rect x="0" y="131.257" width="215.433" height="28.2335" class="st1"/></g><g id="shape1-5" transform="translate(374.973,-108.217) scale(-1,1)"><title content="structured text">64-bit register.156</title><path d="M0 131.14 L362.83 131.14 L362.83 159.49 L0 159.49" class="st2"/></g><g id="shape2-8" transform="translate(171.629,11.5886) rotate(90)"><title content="structured text">64-bit register.169</title><path d="M0 159.49 L11.34 159.49" class="st3"/></g><g id="shape3-11" transform="translate(374.973,-108.217)"><title content="structured text">64-bit register.157</title><path d="M0 131.14 L0 159.49" class="st2"/></g><g id="shape4-14" transform="translate(284.265,-108.217)"><title content="structured text">64-bit register.42</title><path d="M0 131.14 L0 159.49" class="st2"/></g><g id="shape5-17" transform="translate(216.983,11.5886) rotate(90)"><title content="structured text">64-bit register.11</title><path d="M0 159.49 L11.34 159.49" class="st3"/></g><g id="shape6-20" transform="translate(262.337,11.5886) rotate(90)"><title content="structured text">64-bit register.12</title><path d="M0 159.49 L11.34 159.49" class="st3"/></g><g id="shape7-23" transform="translate(307.692,11.5886) rotate(90)"><title content="structured text">64-bit register.13</title><path d="M0 159.49 L11.34 159.49" class="st3"/></g><g id="shape8-26" transform="translate(353.046,11.5886) rotate(90)"><title content="structured text">64-bit register.14</title><path d="M0 159.49 L11.34 159.49" class="st3"/></g><g id="shape9-29" transform="translate(398.4,11.5886) rotate(90)"><title content="structured text">64-bit register.15</title><path d="M0 159.49 L11.34 159.49" class="st3"/></g><g id="shape10-32" transform="translate(489.109,11.5886) rotate(90)"><title content="structured text">64-bit register.16</title><path d="M0 159.49 L11.34 159.49" class="st3"/></g><g id="shape11-35" transform="translate(534.463,11.5886) rotate(90)"><title content="structured text">64-bit register.17</title><path d="M0 159.49 L11.34 159.49" class="st3"/></g><g id="shape12-38" transform="translate(12.1386,-136.563)"><title content="structured text">64-bit register.179</title><desc content="structured text">31</desc><text x="1.22" y="156.22" class="st4">31</text></g><g id="shape13-40" transform="translate(363.635,-136.563)"><title content="structured text">64-bit register.19</title><desc content="structured text">0</desc><text x="3.44" y="156.22" class="st4">0</text></g><g id="shape15-42" transform="translate(443.755,11.5886) rotate(90)"><title content="structured text">64-bit register.21</title><path d="M0 159.49 L11.34 159.49" class="st3"/></g><g id="shape16-45" transform="translate(272.926,-136.563)"><title content="structured text">64-bit register.26</title><desc content="structured text">8</desc><text x="3.44" y="156.22" class="st4">8</text></g><g id="shape17-47" transform="translate(284.265,-136.563)"><title content="structured text">64-bit register.27</title><desc content="structured text">7</desc><text x="3.44" y="156.22" class="st4">7</text></g><g id="shape18-49" transform="translate(63.1622,-96.878)"><title content="structured text">Sheet.18</title><path d="M0 150.99 L0 159.49 L5.67 159.49" class="st5"/></g><g id="shape19-52" transform="translate(71.6661,-91.2087)"><title content="structured text">Sheet.19</title><desc content="structured text">QC</desc><rect x="0" y="148.152" width="17.0079" height="11.3386" class="st6"/><text x="0" y="156.22" class="st4">QC</text></g><g id="shape20-55" transform="translate(51.8236,-85.5394)"><title content="structured text">Sheet.20</title><path d="M0 139.65 L0 159.49 L17.01 159.49" class="st5"/></g><g id="shape21-58" transform="translate(40.485,-74.2008)"><title content="structured text">Sheet.21</title><path d="M0 128.31 L0 159.49 L28.35 159.49" class="st5"/></g><g id="shape22-61" transform="translate(258.753,-91.2087)"><title content="structured text">Sheet.22</title><desc content="structured text">IDC</desc><rect x="0" y="148.152" width="22.6772" height="11.3386" class="st6"/><text x="6.9" y="156.22" class="st4">IDC</text></g><g id="shape23-64" transform="translate(233.241,-57.1929)"><title content="structured text">Sheet.23</title><desc content="structured text">UFC</desc><rect x="0" y="148.152" width="48.189" height="11.3386" class="st6"/><text x="29.75" y="156.22" class="st4">UFC</text></g><g id="shape24-67" transform="translate(363.635,-108.217)"><title content="structured text">64-bit register.45</title><path d="M0 131.14 L0 159.49" class="st2"/></g><g id="shape25-70" transform="translate(352.296,-108.217)"><title content="structured text">64-bit register.48</title><path d="M0 131.14 L0 159.49" class="st2"/></g><g id="shape26-73" transform="translate(340.957,-108.217)"><title content="structured text">64-bit register.51</title><path d="M0 131.14 L0 159.49" class="st2"/></g><g id="shape28-76" transform="translate(295.603,-108.217)"><title content="structured text">64-bit register.55</title><path d="M0 131.14 L0 159.49" class="st2"/></g><g id="shape29-79" transform="translate(289.934,-96.878) scale(-1,1)"><title content="structured text">Sheet.29</title><path d="M0 150.99 L0 159.49 L5.67 159.49" class="st5"/></g><g id="shape30-82" transform="translate(68.8315,-108.217)"><title content="structured text">64-bit register.74</title><path d="M0 131.14 L0 159.49" class="st2"/></g><g id="shape31-85" transform="translate(57.4929,-136.563)"><title content="structured text">64-bit register.76</title><desc content="structured text">27</desc><text x="1.22" y="156.22" class="st4">27</text></g><g id="shape32-87" transform="translate(295.603,-136.563)"><title content="structured text">64-bit register.77</title><desc content="structured text">6</desc><text x="3.44" y="156.22" class="st4">6</text></g><g id="shape33-89" transform="translate(306.942,-136.563)"><title content="structured text">64-bit register.80</title><desc content="structured text">5</desc><text x="3.44" y="156.22" class="st4">5</text></g><g id="shape34-91" transform="translate(318.28,-136.563)"><title content="structured text">64-bit register.81</title><desc content="structured text">4</desc><text x="3.44" y="156.22" class="st4">4</text></g><g id="shape35-93" transform="translate(329.619,-136.563)"><title content="structured text">64-bit register.84</title><desc content="structured text">3</desc><text x="3.44" y="156.22" class="st4">3</text></g><g id="shape36-95" transform="translate(340.957,-136.563)"><title content="structured text">64-bit register.85</title><desc content="structured text">2</desc><text x="3.44" y="156.22" class="st4">2</text></g><g id="shape37-97" transform="translate(352.296,-136.563)"><title content="structured text">64-bit register.86</title><desc content="structured text">1</desc><text x="3.44" y="156.22" class="st4">1</text></g><g id="shape38-99" transform="translate(318.28,-108.217)"><title content="structured text">64-bit register.93</title><path d="M0 131.14 L0 159.49" class="st2"/></g><g id="shape39-102" transform="translate(329.619,-108.217)"><title content="structured text">64-bit register.94</title><path d="M0 131.14 L0 159.49" class="st2"/></g><g id="shape41-105" transform="translate(258.753,-34.5157)"><title content="structured text">Sheet.41</title><desc content="structured text">DZC</desc><rect x="0" y="148.152" width="22.6772" height="11.3386" class="st6"/><text x="4.24" y="156.22" class="st4">D<tspan class="st7">ZC</tspan></text></g><g id="shape42-109" transform="translate(323.95,-74.2008) scale(-1,1)"><title content="structured text">Sheet.42</title><path d="M0 128.31 L0 159.49 L39.69 159.49" class="st5"/></g><g id="shape43-112" transform="translate(258.753,-68.5315)"><title content="structured text">Sheet.43</title><desc content="structured text">IXC</desc><rect x="0" y="148.152" width="22.6772" height="11.3386" class="st6"/><text x="7.34" y="156.22" class="st4">IXC</text></g><g id="shape44-115" transform="translate(335.288,-62.8622) scale(-1,1)"><title content="structured text">Sheet.44</title><path d="M0 116.97 L0 159.49 L51.02 159.49" class="st5"/></g><g id="shape45-118" transform="translate(346.627,-51.5236) scale(-1,1)"><title content="structured text">Sheet.45</title><path d="M0 105.63 L0 159.49 L62.36 159.49" class="st5"/></g><g id="shape46-121" transform="translate(233.241,-45.8543)"><title content="structured text">Sheet.46</title><desc content="structured text">OFC</desc><rect x="0" y="148.152" width="48.189" height="11.3386" class="st6"/><text x="29.3" y="156.22" class="st4">OFC</text></g><g id="shape47-124" transform="translate(357.965,-40.185) scale(-1,1)"><title content="structured text">Sheet.47</title><path d="M0 94.29 L0 159.49 L73.7 159.49" class="st5"/></g><g id="shape48-127" transform="translate(369.304,-28.8465) scale(-1,1)"><title content="structured text">Sheet.48</title><path d="M0 82.95 L0 159.49 L85.04 159.49" class="st5"/></g><g id="shape49-130" transform="translate(29.1465,-62.8622)"><title content="structured text">Sheet.49</title><path d="M0 116.97 L0 159.49 L39.69 159.49" class="st5"/></g><g id="shape50-133" transform="translate(17.8079,-51.5236)"><title content="structured text">Sheet.50</title><path d="M0 105.63 L0 159.49 L51.02 159.49" class="st5"/></g><g id="shape51-136" transform="translate(71.6661,-79.8701)"><title content="structured text">Sheet.51</title><desc content="structured text">V</desc><rect x="0" y="148.152" width="19.8425" height="11.3386" class="st6"/><text x="0" y="156.22" class="st4">V</text></g><g id="shape52-139" transform="translate(71.6661,-68.5315)"><title content="structured text">Sheet.52</title><desc content="structured text">C</desc><rect x="0" y="148.152" width="19.8425" height="11.3386" class="st6"/><text x="0" y="156.22" class="st4">C</text></g><g id="shape53-142" transform="translate(71.6661,-57.1929)"><title content="structured text">Sheet.53</title><desc content="structured text">Z</desc><rect x="0" y="148.152" width="19.8425" height="11.3386" class="st6"/><text x="0" y="156.22" class="st4">Z</text></g><g id="shape54-145" transform="translate(71.6661,-45.8543)"><title content="structured text">Sheet.54</title><desc content="structured text">N</desc><rect x="0" y="148.152" width="19.8425" height="11.3386" class="st6"/><text x="0" y="156.22" class="st4">N</text></g><g id="shape55-148" transform="translate(57.4929,-108.217)"><title content="structured text">64-bit register.43</title><path d="M0 131.14 L0 159.49" class="st2"/></g><g id="shape56-151" transform="translate(46.1543,-108.217)"><title content="structured text">64-bit register.44</title><path d="M0 131.14 L0 159.49" class="st2"/></g><g id="shape57-154" transform="translate(23.4772,-108.217)"><title content="structured text">64-bit register.46</title><path d="M0 131.14 L0 159.49" class="st2"/></g><g id="shape58-157" transform="translate(34.8157,-108.217)"><title content="structured text">64-bit register.47</title><path d="M0 131.14 L0 159.49" class="st2"/></g><g id="shape59-160" transform="translate(23.4772,-136.563)"><title content="structured text">64-bit register.49</title><desc content="structured text">30</desc><text x="1.22" y="156.22" class="st4">30</text></g><g id="shape60-162" transform="translate(34.8157,-136.563)"><title content="structured text">64-bit register.50</title><desc content="structured text">29</desc><text x="1.22" y="156.22" class="st4">29</text></g><g id="shape61-164" transform="translate(46.1543,-136.563)"><title content="structured text">64-bit register.56</title><desc content="structured text">28</desc><text x="1.22" y="156.22" class="st4">28</text></g><g id="shape62-166" transform="translate(258.753,-23.1772)"><title content="structured text">Sheet.62</title><desc content="structured text">IOC</desc><rect x="0" y="148.152" width="22.6772" height="11.3386" class="st6"/><text x="6.45" y="156.22" class="st4">IOC</text></g><g id="shape63-169" transform="translate(68.8315,-136.563)"><title content="structured text">64-bit register.4</title><desc content="structured text">26</desc><text x="1.22" y="156.22" class="st4">26</text></g><g id="shape40-171" transform="translate(12.5879,-11.8386)"><title content="structured text">Graphic.117</title><rect x="0" y="148.152" width="10.44" height="11.3386" class="st1"/></g><g id="shape64-173" transform="translate(14.5276,-11.8386)"><title content="structured text">Rectangle No Fill No Fill.116</title><desc content="structured text">res0</desc><rect x="0" y="148.152" width="30.8267" height="11.3386" class="st8"/><text x="10.99" y="156.22" class="st9">RES<tspan class="st10">0</tspan></text></g></g></svg>