<?xml version="1.0" encoding="UTF-8" standalone="no"?><!-- Fixed up by svgfix.xsl 1.4  --><!-- Generated by Microsoft Visio 11.0, SVG Export, v1.0 trcitiatbinr_bit_assignments.svg Page-1 -->
<!DOCTYPE svg
  PUBLIC "-//W3C//DTD SVG 1.0//EN" "http://www.w3.org/TR/2001/REC-SVG-20010904/DTD/svg10.dtd">
<svg xmlns:xlink="http://www.w3.org/1999/xlink" xmlns="http://www.w3.org/2000/svg" width="485.913" height="95.488" viewBox="0 0 364.435 71.616" xml:space="preserve" color-interpolation-filters="sRGB" class="st7" preserveAspectRatio="xMidYMid meet" zoomAndPan="magnify" version="1.0" contentScriptType="text/ecmascript" contentStyleType="text/css"><style type="text/css" xml:space="preserve"><![CDATA[
	
		.st1 {fill:#000000;font-family:Arial,Helvetica,sans-serif;font-size:0.666664em}
		.st2 {fill:#ffffff;visibility:hidden}
		.st3 {stroke:#000000;stroke-linecap:butt;stroke-width:0.8px}
		.st4 {stroke:#000000;stroke-dasharray:0.25,0.5;stroke-linecap:butt;stroke-width:0.25px}
		.st5 {fill:none;stroke:none;stroke-linecap:butt;stroke-width:0.5px}
		.st6 {stroke:#000000;stroke-linecap:butt;stroke-width:0.5px}
		.st7 {fill:none;fill-rule:evenodd;font-size:12px;overflow:visible;stroke-linecap:square;stroke-miterlimit:3}]]></style><g xmlns:v="http://schemas.microsoft.com/visio/2003/SVGExtensions/"><title content="structured text">Page-1</title><g id="shape1-1" transform="translate(0.8,-60.0276)"><title content="structured text">Sheet.1</title><desc content="structured text">31</desc><text x="1.22" y="68.35" class="st1">31</text></g><g id="shape2-3" transform="translate(352.296,-60.0276)"><title content="structured text">Sheet.2</title><desc content="structured text">0</desc><text x="3.44" y="68.35" class="st1">0</text></g><g id="shape3-5" transform="translate(0.8,-31.6811)"><title content="structured text">Sheet.3</title><rect x="0" y="43.2697" width="362.835" height="28.3465" class="st2"/><rect x="0" y="43.2697" width="362.835" height="28.3465" class="st3"/></g><g id="shape4-8" transform="translate(340.957,-31.6811)"><title content="structured text">Sheet.4</title><path d="M0 43.27 L0 71.62" class="st3"/></g><g id="shape5-11" transform="translate(352.296,-31.6811)"><title content="structured text">Sheet.5</title><path d="M0 43.27 L0 71.62" class="st3"/></g><g id="shape6-14" transform="translate(389.896,0.25) rotate(90)"><title content="structured text">Signal 0</title><path d="M0 71.62 L11.34 71.62" class="st4"/></g><g id="shape7-17" transform="translate(344.542,0.25) rotate(90)"><title content="structured text">Signal 0.102</title><path d="M0 71.62 L11.34 71.62" class="st4"/></g><g id="shape8-20" transform="translate(299.188,0.25) rotate(90)"><title content="structured text">Signal 0.103</title><path d="M0 71.62 L11.34 71.62" class="st4"/></g><g id="shape9-23" transform="translate(253.833,0.25) rotate(90)"><title content="structured text">Signal 0.104</title><path d="M0 71.62 L11.34 71.62" class="st4"/></g><g id="shape10-26" transform="translate(208.479,0.25) rotate(90)"><title content="structured text">Signal 0.105</title><path d="M0 71.62 L11.34 71.62" class="st4"/></g><g id="shape11-29" transform="translate(163.125,0.25) rotate(90)"><title content="structured text">Signal 0.106</title><path d="M0 71.62 L11.34 71.62" class="st4"/></g><g id="shape12-32" transform="translate(117.77,0.25) rotate(90)"><title content="structured text">Signal 0.107</title><path d="M0 71.62 L11.34 71.62" class="st4"/></g><g id="shape13-35" transform="translate(72.4161,0.25) rotate(90)"><title content="structured text">Signal 0.108</title><path d="M0 71.62 L11.34 71.62" class="st4"/></g><g id="shape14-38" transform="translate(435.251,0.25) rotate(90)"><title content="structured text">Signal 0.109</title><path d="M0 71.62 L11.34 71.62" class="st4"/></g><g id="shape15-41" transform="translate(284.265,-11.8386)"><title content="structured text">Sheet.15</title><desc content="structured text">AFVALIDM</desc><rect x="0" y="60.2776" width="51.0236" height="11.3386" class="st5"/><text x="10.02" y="68.35" class="st1">AFVALIDM</text></g><g id="shape16-44" transform="translate(0.8,-31.6811)"><title content="structured text">Sheet.16</title><desc content="structured text">Reserved</desc><rect x="0" y="43.2697" width="340.157" height="28.3465" class="st5"/><text x="152.96" y="59.84" class="st1">Reserved</text></g><g id="shape17-47" transform="translate(346.627,-17.5079) scale(-1,1)"><title content="structured text">Sheet.17</title><path d="M0 60.28 L0 71.62 L11.34 71.62" class="st6"/></g><g id="shape18-50" transform="translate(329.619,-60.0276)"><title content="structured text">Sheet.18</title><desc content="structured text">2</desc><text x="3.44" y="68.35" class="st1">2</text></g><g id="shape19-52" transform="translate(340.957,-60.0276)"><title content="structured text">Sheet.19</title><desc content="structured text">1</desc><text x="3.44" y="68.35" class="st1">1</text></g><g id="shape20-54" transform="translate(284.265,-0.5)"><title content="structured text">Sheet.20</title><desc content="structured text">ATREADYM</desc><rect x="0" y="60.2776" width="51.0236" height="11.3386" class="st5"/><text x="5.58" y="68.35" class="st1">ATREADYM</text></g><g id="shape21-57" transform="translate(357.965,-6.16929) scale(-1,1)"><title content="structured text">Sheet.21</title><path d="M0 48.94 L0 71.62 L22.68 71.62" class="st6"/></g></g></svg>