<?xml version="1.0" encoding="UTF-8" standalone="no"?><!-- Fixed up by svgfix.xsl 1.4  --><!-- Generated by Microsoft Visio 11.0, SVG Export, v1.0 id_isar3_bit_assignments_LowRes.svg ARM -->
<!DOCTYPE svg
  PUBLIC "-//W3C//DTD SVG 1.0//EN" "http://www.w3.org/TR/2001/REC-SVG-20010904/DTD/svg10.dtd">
<svg xmlns:xlink="http://www.w3.org/1999/xlink" xmlns="http://www.w3.org/2000/svg" xmlns:ev="http://www.w3.org/2001/xml-events" width="516.149" height="84.55" viewBox="0 0 387.112 63.412" xml:space="preserve" color-interpolation-filters="sRGB" class="st7" preserveAspectRatio="xMidYMid meet" zoomAndPan="magnify" version="1.0" contentScriptType="text/ecmascript" contentStyleType="text/css"><style type="text/css" xml:space="preserve"><![CDATA[
	
		.st1 {fill:none;stroke:none;stroke-linecap:round;stroke-linejoin:round;stroke-width:0.2px}
		.st2 {fill:#000000;font-family:Arial,Helvetica,sans-serif;font-size:0.666664em}
		.st3 {fill:#ffffff;visibility:hidden}
		.st4 {stroke:#000000;stroke-linecap:butt;stroke-width:0.8px}
		.st5 {stroke:#000000;stroke-dasharray:0.25,0.5;stroke-linecap:butt;stroke-width:0.25px}
		.st6 {font-size:1em}
		.st7 {fill:none;fill-rule:evenodd;font-size:12px;overflow:visible;stroke-linecap:square;stroke-miterlimit:3}]]></style><g xmlns:v="http://schemas.microsoft.com/visio/2003/SVGExtensions/"><title content="structured text">ARM</title><g id="shape7-1" transform="translate(148.202,-12.1386)"><title content="structured text">Sheet.7</title><desc content="structured text">TabBranch</desc><rect x="0" y="36.4831" width="45.3543" height="26.9291" class="st1"/><text x="3.11" y="52.35" class="st2">TabBranch</text></g><g id="shape10-4" transform="translate(12.1386,-40.485)"><title content="structured text">Sheet.10</title><desc content="structured text">31</desc><text x="1.22" y="60.14" class="st2">31</text></g><g id="shape11-6" transform="translate(46.1543,-40.485)"><title content="structured text">Sheet.11</title><desc content="structured text">28</desc><text x="1.22" y="60.14" class="st2">28</text></g><g id="shape12-8" transform="translate(57.4929,-40.485)"><title content="structured text">Sheet.12</title><desc content="structured text">27</desc><text x="1.22" y="60.14" class="st2">27</text></g><g id="shape13-10" transform="translate(91.5087,-40.485)"><title content="structured text">Sheet.13</title><desc content="structured text">24</desc><text x="1.22" y="60.14" class="st2">24</text></g><g id="shape14-12" transform="translate(102.847,-40.485)"><title content="structured text">Sheet.14</title><desc content="structured text">23</desc><text x="1.22" y="60.14" class="st2">23</text></g><g id="shape15-14" transform="translate(136.863,-40.485)"><title content="structured text">Sheet.15</title><desc content="structured text">20</desc><text x="1.22" y="60.14" class="st2">20</text></g><g id="shape16-16" transform="translate(148.202,-40.485)"><title content="structured text">Sheet.16</title><desc content="structured text">19</desc><text x="1.22" y="60.14" class="st2">19</text></g><g id="shape17-18" transform="translate(182.217,-40.485)"><title content="structured text">Sheet.17</title><desc content="structured text">16</desc><text x="1.22" y="60.14" class="st2">16</text></g><g id="shape18-20" transform="translate(193.556,-40.485)"><title content="structured text">Sheet.18</title><desc content="structured text">15</desc><text x="1.22" y="60.14" class="st2">15</text></g><g id="shape19-22" transform="translate(227.572,-40.485)"><title content="structured text">Sheet.19</title><desc content="structured text">12</desc><text x="1.22" y="60.14" class="st2">12</text></g><g id="shape20-24" transform="translate(238.91,-40.485)"><title content="structured text">Sheet.20</title><desc content="structured text">11</desc><text x="1.22" y="60.14" class="st2">11</text></g><g id="shape21-26" transform="translate(272.926,-40.485)"><title content="structured text">Sheet.21</title><desc content="structured text">8</desc><text x="3.44" y="60.14" class="st2">8</text></g><g id="shape22-28" transform="translate(284.265,-40.485)"><title content="structured text">Sheet.22</title><desc content="structured text">7</desc><text x="3.44" y="60.14" class="st2">7</text></g><g id="shape23-30" transform="translate(318.28,-40.485)"><title content="structured text">Sheet.23</title><desc content="structured text">4</desc><text x="3.44" y="60.14" class="st2">4</text></g><g id="shape24-32" transform="translate(329.619,-40.485)"><title content="structured text">Sheet.24</title><desc content="structured text">3</desc><text x="3.44" y="60.14" class="st2">3</text></g><g id="shape25-34" transform="translate(363.635,-40.485)"><title content="structured text">Sheet.25</title><desc content="structured text">0</desc><text x="3.44" y="60.14" class="st2">0</text></g><g id="shape26-36" transform="translate(12.1386,-12.1386)"><title content="structured text">Sheet.26</title><rect x="0" y="35.0657" width="362.835" height="28.3465" class="st3"/><rect x="0" y="35.0657" width="362.835" height="28.3465" class="st4"/></g><g id="shape27-39" transform="translate(57.4929,-12.1386)"><title content="structured text">Sheet.27</title><path d="M0 35.07 L0 63.41" class="st4"/></g><g id="shape28-42" transform="translate(102.847,-12.1386)"><title content="structured text">Sheet.28</title><path d="M0 35.07 L0 63.41" class="st4"/></g><g id="shape29-45" transform="translate(148.202,-12.1386)"><title content="structured text">Sheet.29</title><path d="M0 35.07 L0 63.41" class="st4"/></g><g id="shape30-48" transform="translate(193.556,-12.1386)"><title content="structured text">Sheet.30</title><path d="M0 35.07 L0 63.41" class="st4"/></g><g id="shape31-51" transform="translate(238.91,-12.1386)"><title content="structured text">Sheet.31</title><path d="M0 35.07 L0 63.41" class="st4"/></g><g id="shape32-54" transform="translate(284.265,-12.1386)"><title content="structured text">Sheet.32</title><path d="M0 35.07 L0 63.41" class="st4"/></g><g id="shape33-57" transform="translate(329.619,-12.1386)"><title content="structured text">Sheet.33</title><path d="M0 35.07 L0 63.41" class="st4"/></g><g id="shape34-60" transform="translate(393.031,11.5886) rotate(90)"><title content="structured text">Signal 0</title><path d="M0 63.41 L11.34 63.41" class="st5"/></g><g id="shape35-63" transform="translate(347.677,11.5886) rotate(90)"><title content="structured text">Signal 0.102</title><path d="M0 63.41 L11.34 63.41" class="st5"/></g><g id="shape36-66" transform="translate(302.322,11.5886) rotate(90)"><title content="structured text">Signal 0.103</title><path d="M0 63.41 L11.34 63.41" class="st5"/></g><g id="shape37-69" transform="translate(256.968,11.5886) rotate(90)"><title content="structured text">Signal 0.104</title><path d="M0 63.41 L11.34 63.41" class="st5"/></g><g id="shape38-72" transform="translate(211.614,11.5886) rotate(90)"><title content="structured text">Signal 0.105</title><path d="M0 63.41 L11.34 63.41" class="st5"/></g><g id="shape39-75" transform="translate(166.259,11.5886) rotate(90)"><title content="structured text">Signal 0.106</title><path d="M0 63.41 L11.34 63.41" class="st5"/></g><g id="shape40-78" transform="translate(120.905,11.5886) rotate(90)"><title content="structured text">Signal 0.107</title><path d="M0 63.41 L11.34 63.41" class="st5"/></g><g id="shape41-81" transform="translate(75.5508,11.5886) rotate(90)"><title content="structured text">Signal 0.108</title><path d="M0 63.41 L11.34 63.41" class="st5"/></g><g id="shape42-84" transform="translate(438.385,11.5886) rotate(90)"><title content="structured text">Signal 0.109</title><path d="M0 63.41 L11.34 63.41" class="st5"/></g><g id="shape43-87" transform="translate(102.847,-12.1386)"><title content="structured text">Sheet.43</title><desc content="structured text">T32Copy</desc><rect x="0" y="35.0657" width="45.3543" height="28.3465" class="st1"/><text x="6.45" y="51.64" class="st2">T<tspan class="st6">32</tspan>Copy</text></g><g id="shape44-91" transform="translate(238.91,-12.1386)"><title content="structured text">Sheet.44</title><desc content="structured text">SVC</desc><rect x="0" y="35.0657" width="45.3543" height="28.3465" class="st1"/><text x="14.45" y="51.64" class="st2">SVC</text></g><g id="shape46-94" transform="translate(329.619,-12.1386)"><title content="structured text">Sheet.46</title><desc content="structured text">Saturate</desc><rect x="0" y="35.0657" width="45.3543" height="28.3465" class="st1"/><text x="7.56" y="51.64" class="st2">Saturate</text></g><g id="shape48-97" transform="translate(12.1386,-12.1386)"><title content="structured text">Sheet.48</title><desc content="structured text">T32EE</desc><rect x="0" y="35.0657" width="45.3543" height="28.3465" class="st1"/><text x="10.45" y="51.64" class="st2">T<tspan class="st6">32</tspan>EE</text></g><g id="shape49-101" transform="translate(193.556,-12.1386)"><title content="structured text">Sheet.49</title><desc content="structured text">SynchPrim</desc><rect x="0" y="35.0657" width="45.3543" height="28.3465" class="st1"/><text x="3.34" y="51.64" class="st2">SynchPrim</text></g><g id="shape50-104" transform="translate(284.265,-12.1386)"><title content="structured text">Sheet.50</title><desc content="structured text">SIMD</desc><rect x="0" y="35.0657" width="45.3543" height="28.3465" class="st1"/><text x="12.68" y="51.64" class="st2">SIMD</text></g><g id="shape51-107" transform="translate(57.4929,-12.1386)"><title content="structured text">Sheet.51</title><desc content="structured text">TrueNOP</desc><rect x="0" y="35.0657" width="45.3543" height="28.3465" class="st1"/><text x="5.78" y="51.64" class="st2">TrueNOP</text></g></g></svg>