<?xml version="1.0" encoding="UTF-8" standalone="no"?><!-- Fixed up by svgfix.xsl 1.4  --><!-- Generated by Microsoft Visio, SVG Export ste1441025446101_Source.svg ARM -->
<!DOCTYPE svg
  PUBLIC "-//W3C//DTD SVG 1.0//EN" "http://www.w3.org/TR/2001/REC-SVG-20010904/DTD/svg10.dtd">
<svg xmlns:xlink="http://www.w3.org/1999/xlink" xmlns="http://www.w3.org/2000/svg" xmlns:ev="http://www.w3.org/2001/xml-events" width="405.076" height="281.685" viewBox="0 0 303.807 211.264" xml:space="preserve" color-interpolation-filters="sRGB" class="st10" preserveAspectRatio="xMidYMid meet" zoomAndPan="magnify" version="1.1" contentScriptType="application/ecmascript" contentStyleType="text/css"><style type="text/css" xml:space="preserve"><![CDATA[
	
		.st1 {marker-end:url(#mrkr4-9);marker-start:url(#mrkr4-7);stroke:#000000;stroke-linecap:butt;stroke-width:1.5px}
		.st2 {fill:#000000;fill-opacity:1;stroke:#000000;stroke-opacity:1;stroke-width:0.45454545454545px}
		.st3 {fill:#ffffff;stroke:none;stroke-linecap:butt;stroke-width:7.2px}
		.st4 {fill:#000000;font-family:Arial,Helvetica,sans-serif;font-size:0.666664em}
		.st5 {fill:#ffffff;stroke:#000000;stroke-linecap:butt;stroke-width:0.5px}
		.st6 {font-size:1em}
		.st7 {fill:none;stroke:#000000;stroke-linecap:butt;stroke-width:0.5px}
		.st8 {fill:none;stroke:none;stroke-linecap:butt;stroke-width:0.5px}
		.st9 {font-size:0.749991em}
		.st10 {fill:none;fill-rule:evenodd;font-size:12px;overflow:visible;stroke-linecap:square;stroke-miterlimit:3}]]></style><defs xmlns:v="http://schemas.microsoft.com/visio/2003/SVGExtensions/" id="Markers"><g id="lend4"><path d="M 2 1 L 0 0 L 2 -1 L 2 1 " style="stroke:none"/></g><marker id="mrkr4-7" class="st2" refX="4.16" orient="auto" markerUnits="strokeWidth" overflow="visible" preserveAspectRatio="xMidYMid meet"><use xlink:href="#lend4" transform="scale(2.2) " xlink:type="simple" xlink:show="embed" xlink:actuate="onLoad"/></marker><marker id="mrkr4-9" class="st2" refX="-4.4" orient="auto" markerUnits="strokeWidth" overflow="visible" preserveAspectRatio="xMidYMid meet"><use xlink:href="#lend4" transform="scale(-2.2,-2.2) " xlink:type="simple" xlink:show="embed" xlink:actuate="onLoad"/></marker></defs><g xmlns:v="http://schemas.microsoft.com/visio/2003/SVGExtensions/"><title>ARM</title><g id="shape13-1" transform="translate(160.45,-162.075)"><title>Bus 3</title><desc>External memory interface</desc><path d="M6.24 211.26 L6.6 211.26 L116.41 211.26" class="st1"/><rect x="14.8239" y="206.464" width="93.3668" height="9.59985" class="st3"/><text x="14.82" y="213.66" class="st4">External memory interface  </text></g><g id="shape47-12" transform="translate(20.0501,-136.063)"><title>ESD circuit.47</title><rect x="0" y="176.081" width="59.5276" height="35.1831" class="st5"/></g><g id="shape37-14" transform="translate(87.874,-25.5118)"><title>ESD circuit.37</title><desc>DSU</desc><rect x="0" y="66.6969" width="48.189" height="144.567" class="st5"/><text x="15.65" y="141.38" class="st4">DSU</text></g><g id="shape38-17" transform="translate(160.157,-130.394)"><title>Bus 3.38</title><desc>Interrupt interface</desc><path d="M6.24 211.26 L6.6 211.26 L116.71 211.26" class="st1"/><rect x="30.3042" y="206.464" width="62.6987" height="9.59985" class="st3"/><text x="30.3" y="213.66" class="st4">Interrupt interface</text></g><g id="shape40-26" transform="translate(160.157,-96.878)"><title>Bus 3.40</title><desc>Power management and clock control</desc><path d="M6.24 211.26 L6.6 211.26 L116.71 211.26" class="st1"/><rect x="18.0718" y="201.664" width="87.1633" height="19.1997" class="st3"/><text x="18.07" y="208.86" class="st4">Power management and <tspan x="39.42" dy="1.2em" class="st6">clock control</tspan></text></g><g id="shape41-36" transform="translate(160.157,-65.6969)"><title>Bus 3.41</title><desc>DFT</desc><path d="M6.24 211.26 L6.6 211.26 L116.71 211.26" class="st1"/><rect x="53.8781" y="206.464" width="15.5509" height="9.59985" class="st3"/><text x="53.88" y="213.66" class="st4">DFT</text></g><g id="shape49-45" transform="translate(160.157,-34.5157)"><title>Bus 3.49</title><desc>CoreSight infrastructure</desc><path d="M6.24 211.26 L6.6 211.26 L116.71 211.26" class="st1"/><rect x="19.4135" y="206.464" width="84.4802" height="9.59985" class="st3"/><text x="19.41" y="213.66" class="st4">CoreSight infrastructure</text></g><g id="shape50-54" transform="translate(13.0483,-11.8386)"><title>ESD circuit.50</title><rect x="0" y="23.6772" width="157.03" height="187.587" class="st7"/></g><g id="shape58-56" transform="translate(14.1732,-184.252)"><title>Sheet.58</title><desc>DynamIQ™ Cluster</desc><rect x="0" y="199.925" width="152.155" height="11.3386" class="st8"/><text x="1" y="207.99" class="st4">DynamIQ™<tspan class="st9"> </tspan><tspan class="st6">Cluster</tspan></text></g><g id="shape1-61" transform="translate(19.8425,-99.2126)"><title>ESD circuit.1</title><rect x="0" y="176.081" width="59.5276" height="35.1831" class="st5"/></g><g id="shape2-63" transform="translate(20.0501,-62.3622)"><title>ESD circuit.2</title><rect x="0" y="176.081" width="59.5276" height="35.1831" class="st5"/></g><g id="shape3-65" transform="translate(20.0501,-25.5118)"><title>ESD circuit.3</title><rect x="0" y="176.081" width="59.5276" height="35.1831" class="st5"/></g><g id="shape4-67" transform="translate(19.8425,-145.734)"><title>Sheet.4</title><desc>Core 0</desc><rect x="0" y="199.925" width="59.5276" height="11.3386" class="st8"/><text x="17.76" y="207.99" class="st4">Core 0</text></g><g id="shape5-70" transform="translate(19.8425,-111.719)"><title>Sheet.5</title><desc>Core 1</desc><rect x="0" y="199.925" width="59.5276" height="11.3386" class="st8"/><text x="17.76" y="207.99" class="st4">Core 1</text></g><g id="shape6-73" transform="translate(19.8425,-74.8681)"><title>Sheet.6</title><desc>Core 2</desc><rect x="0" y="199.925" width="59.5276" height="11.3386" class="st8"/><text x="17.76" y="207.99" class="st4">Core 2</text></g><g id="shape7-76" transform="translate(20.0501,-38.0177)"><title>Sheet.7</title><desc>Core 3</desc><rect x="0" y="199.925" width="59.5276" height="11.3386" class="st8"/><text x="17.76" y="207.99" class="st4">Core 3</text></g></g></svg>