<?xml version="1.0" encoding="UTF-8" standalone="no"?><!-- Fixed up by svgfix.xsl 1.4  --><!-- Generated by Microsoft Visio 11.0, SVG Export, v1.0 AMUSERENER_EL0_bit_assignments.svg ARM -->
<!DOCTYPE svg
  PUBLIC "-//W3C//DTD SVG 1.0//EN" "http://www.w3.org/TR/2001/REC-SVG-20010904/DTD/svg10.dtd">
<svg xmlns:xlink="http://www.w3.org/1999/xlink" xmlns="http://www.w3.org/2000/svg" xmlns:ev="http://www.w3.org/2001/xml-events" width="516.142" height="124.13" viewBox="0 0 387.106 93.098" xml:space="preserve" color-interpolation-filters="sRGB" class="st10" preserveAspectRatio="xMidYMid meet" zoomAndPan="magnify" version="1.0" contentScriptType="text/ecmascript" contentStyleType="text/css"><style type="text/css" xml:space="preserve"><![CDATA[
	
		.st1 {fill:#eed9b3;stroke:none;stroke-linecap:round;stroke-linejoin:round;stroke-width:0.2px}
		.st2 {fill:none}
		.st3 {stroke:#000000;stroke-linecap:butt;stroke-width:0.799997px}
		.st4 {stroke:#000000;stroke-dasharray:0.249999,0.499999;stroke-linecap:butt;stroke-width:0.249999px}
		.st5 {fill:none;stroke:none;stroke-linecap:butt;stroke-width:0.499999px}
		.st6 {fill:#000000;font-family:Arial,Helvetica,sans-serif;font-size:0.666664em}
		.st7 {fill:#000000;font-family:Arial,Helvetica,sans-serif;font-size:0.533318em}
		.st8 {font-size:1.25003em}
		.st9 {stroke:#000000;stroke-linecap:butt;stroke-width:0.5px}
		.st10 {fill:none;fill-rule:evenodd;font-size:12px;overflow:visible;stroke-linecap:square;stroke-miterlimit:3}]]></style><g xmlns:v="http://schemas.microsoft.com/visio/2003/SVGExtensions/"><title content="structured text">ARM</title><g id="shape1-1" transform="translate(12.1336,-41.5324)"><title content="structured text">Graphic.8</title><rect x="0" y="64.7513" width="352.207" height="28.3464" class="st1"/></g><g id="shape2-3" transform="translate(12.1386,-41.5289)"><title content="structured text">Graphic.11</title><path d="M362.83 64.75 L0 64.75 L0 93.1 L362.83 93.1 L362.83 64.75 Z" class="st2"/><path d="M362.83 64.75 L0 64.75 L0 93.1 L362.83 93.1" class="st3"/></g><g id="shape3-6" transform="translate(12.1336,-69.1843)"><title content="structured text">Graphic.12</title><path d="M0 81.76 L0 93.1 L0 81.76 Z" class="st2"/><path d="M0 81.76 L0 93.1" class="st4"/></g><g id="shape4-9" transform="translate(374.968,-41.5289)"><title content="structured text">Graphic.13</title><path d="M0 64.75 L0 93.1 L0 64.75 Z" class="st2"/><path d="M0 64.75 L0 93.1" class="st3"/></g><g id="shape5-12" transform="translate(374.968,-69.1843)"><title content="structured text">Graphic.20</title><path d="M0 81.76 L0 93.1 L0 81.76 Z" class="st2"/><path d="M0 81.76 L0 93.1" class="st4"/></g><g id="shape6-15" transform="translate(12.1336,-69.1837)"><title content="structured text">Rectangle No Fill No Fill.21</title><desc content="structured text">31</desc><rect x="0" y="81.7592" width="11.3386" height="11.3386" class="st5"/><text x="1.22" y="89.83" class="st6">31</text></g><g id="shape7-18" transform="translate(363.629,-69.1837)"><title content="structured text">Rectangle No Fill No Fill.22</title><desc content="structured text">0</desc><rect x="0" y="81.7592" width="11.3386" height="11.3386" class="st5"/><text x="3.44" y="89.83" class="st6">0</text></g><g id="shape8-21" transform="translate(364.341,-41.5741)"><title content="structured text">Graphic.24</title><path d="M0 64.75 L0 93.1 L0 64.75 Z" class="st2"/><path d="M0 64.75 L0 93.1" class="st3"/></g><g id="shape13-24" transform="translate(353.002,-69.9206)"><title content="structured text">Rectangle No Fill No Fill.95</title><desc content="structured text">7</desc><rect x="0" y="81.7592" width="11.3386" height="11.3386" class="st5"/><text x="3.44" y="89.83" class="st6">1</text></g><g id="group14-27" transform="translate(12.0625,-11.8386)"><title content="structured text">Sheet.14</title><g id="shape15-28" transform="translate(11.3386,1.42109E-014)"><title content="structured text">Rectangle No Fill No Fill.116</title><desc content="structured text">res0</desc><rect x="0" y="81.7592" width="22.6772" height="11.3386" class="st5"/><text x="3.07" y="89.83" class="st7">RES<tspan class="st8">0</tspan></text></g><g id="shape16-32"><title content="structured text">Graphic.117</title><rect x="0" y="81.7592" width="11.3386" height="11.3386" class="st1"/></g></g><g id="shape9-34" transform="translate(358.671,-33.0702)"><title content="structured text">Bit name 1</title><desc content="structured text">EN</desc><path d="M11.34 87.43 L11.34 93.1 L0 93.1" class="st9"/><text x="-12.11" y="95.5" class="st6">EN</text></g></g></svg>