<?xml version="1.0" encoding="UTF-8" standalone="no"?><!-- Fixed up by svgfix.xsl 1.4  --><!-- Generated by Microsoft Visio 11.0, SVG Export, v1.0 key_to_timing_diagram_conventions.svg Page-1 -->
<!DOCTYPE svg
  PUBLIC "-//W3C//DTD SVG 1.0//EN" "http://www.w3.org/TR/2001/REC-SVG-20010904/DTD/svg10.dtd">
<svg xmlns:xlink="http://www.w3.org/1999/xlink" xmlns="http://www.w3.org/2000/svg" width="212.987" height="182.084" viewBox="0 0 159.74 136.563" xml:space="preserve" color-interpolation-filters="sRGB" class="st5" preserveAspectRatio="xMidYMid meet" zoomAndPan="magnify" version="1.0" contentScriptType="text/ecmascript" contentStyleType="text/css"><title xmlns:v="http://schemas.microsoft.com/visio/2003/SVGExtensions/" content="structured text">D:\Work\PrimeCells\DDI0277_mpmc_gx175_trm\graphics\Time_Key</title><style type="text/css" xml:space="preserve"><![CDATA[
	
		.st1 {stroke:#000000;stroke-linecap:butt;stroke-width:0.5px}
		.st2 {fill:none;stroke:none;stroke-linecap:butt;stroke-width:0.5px}
		.st3 {fill:#000000;font-family:Arial,Helvetica,sans-serif;font-size:0.666664em}
		.st4 {fill:#c0c0c0;stroke:#000000;stroke-linecap:butt;stroke-width:0.5px}
		.st5 {fill:none;fill-rule:evenodd;font-size:12px;overflow:visible;stroke-linecap:square;stroke-miterlimit:3}
		.st6 {stroke:#000000;stroke-dasharray:0.25,1;stroke-linecap:butt;stroke-width:0.25px}]]></style><defs xmlns:v="http://schemas.microsoft.com/visio/2003/SVGExtensions/" id="Masters"><symbol id="master7" class="st5" preserveAspectRatio="xMidYMid meet"><title content="structured text">0 to 0 Glitch</title><g id="group8-20"><title content="structured text">0 to 0 Glitch</title><g id="master-shape9-21" transform="translate(2.83465,0)"><title content="structured text">Sheet.9</title><path d="M0 136.56 L2.83 125.22 L5.67 136.56 L0 136.56 Z" class="st4"/></g><g id="master-shape10-23"><title content="structured text">Sheet.10</title><path d="M0 136.56 L45.35 136.56" class="st1"/></g></g></symbol><symbol id="master9" class="st5" preserveAspectRatio="xMidYMid meet"><title content="structured text">Stable</title><g id="master-shape5-42"><title content="structured text">Sheet.5</title><path d="M0 136.56 L45.35 136.56" class="st1"/></g></symbol></defs><g xmlns:v="http://schemas.microsoft.com/visio/2003/SVGExtensions/"><title content="structured text">Page-1</title><g id="shape1-1" transform="translate(113.886,-122.14)"><title content="structured text">Clock 1</title><path d="M0 130.89 L0 125.22 L22.68 125.22 L22.68 136.56 L45.35 136.56 L45.35 130.89" class="st1"/></g><g id="shape2-4" transform="translate(0.5,-122.14)"><title content="structured text">Sheet.2</title><desc content="structured text">Clock</desc><rect x="0" y="125.224" width="113.386" height="11.3386" class="st2"/><text x="91.4" y="133.29" class="st3">Clock</text></g><g id="shape3-7" transform="translate(0.5,-105.132)"><title content="structured text">Sheet.3</title><desc content="structured text">HIGH to LOW</desc><rect x="0" y="125.224" width="113.386" height="11.3386" class="st2"/><text x="62.06" y="133.29" class="st3">HIGH to LOW</text></g><g id="group4-10" transform="translate(113.886,156.656) scale(1,-1)"><title content="structured text">0 to 1</title><g id="shape5-11"><title content="structured text">Sheet.5</title><path d="M0 136.56 L5.67 136.56" class="st1"/></g><g id="shape6-14" transform="translate(14.1732,-11.3386)"><title content="structured text">Sheet.6</title><path d="M0 136.56 L31.18 136.56" class="st1"/></g><g id="shape7-17" transform="translate(5.66929,0)"><title content="structured text">Sheet.7</title><path d="M0 136.56 L2.83 125.22 L8.5 125.22 L5.67 136.56 L0 136.56 Z" class="st4"/></g></g><use id="shape8-19" xlink:href="#master7" transform="translate(113.886,173.663) scale(1,-1)" xlink:type="simple" xlink:show="embed" xlink:actuate="onLoad"><title content="structured text">0 to 0 Glitch</title></use><g id="shape11-26" transform="translate(0.5,-88.124)"><title content="structured text">Sheet.11</title><desc content="structured text">Transient</desc><rect x="0" y="125.224" width="113.386" height="11.3386" class="st2"/><text x="78.05" y="133.29" class="st3">Transient</text></g><g id="group12-29" transform="translate(113.886,-71.1161)"><title content="structured text">i to 1</title><g id="shape13-30" transform="translate(11.3858,-11.3386)"><title content="structured text">Sheet.13</title><path d="M0 136.56 L33.97 136.56" class="st1"/></g><g id="shape14-33" transform="translate(2.88189,0)"><title content="structured text">Sheet.14</title><path d="M0 136.56 L2.83 125.22 L8.5 125.22 L5.67 136.56 L0 136.56 Z" class="st4"/></g><g id="shape15-35"><title content="structured text">Sheet.15</title><path d="M0 136.56 L2.88 136.56 L5.72 125.22 L0 125.22" class="st1"/></g></g><g id="shape16-38" transform="translate(0.5,-71.1161)"><title content="structured text">Sheet.16</title><desc content="structured text">HIGH/LOW to HIGH</desc><rect x="0" y="125.224" width="113.386" height="11.3386" class="st2"/><text x="39.84" y="133.29" class="st3">HIGH/LOW to HIGH</text></g><use id="shape17-41" xlink:href="#master9" transform="translate(113.886,-65.4469)" xlink:type="simple" xlink:show="embed" xlink:actuate="onLoad"><title content="structured text">Stable</title></use><use id="shape18-45" xlink:href="#master9" transform="translate(113.886,-54.1083)" xlink:type="simple" xlink:show="embed" xlink:actuate="onLoad"><title content="structured text">Stable.18</title></use><g id="master-shape19-46" transform="translate(0.5,-54.1083)"><title content="structured text">Sheet.19</title><desc content="structured text">Bus stable</desc><rect x="0" y="125.224" width="113.386" height="11.3386" class="st2"/><text x="74.04" y="133.29" class="st3">Bus stable</text></g><g id="group20-49" transform="translate(113.886,-37.1004)"><title content="structured text">Bus to Z</title><g id="master-shape21-50" transform="translate(5.66929,-5.66929)"><title content="structured text">Sheet.21</title><path d="M0 136.56 L39.69 136.56" class="st1"/></g><g id="master-shape22-53"><title content="structured text">Sheet.22</title><path d="M0 125.22 L4.25 125.22 L5.67 130.89 L4.25 136.56 L0 136.56" class="st1"/></g></g><g id="master-shape23-56" transform="translate(0.5,-37.1004)"><title content="structured text">Sheet.23</title><desc content="structured text">Bus to high impedance</desc><rect x="0" y="125.224" width="113.386" height="11.3386" class="st2"/><text x="30.01" y="133.29" class="st3">Bus to high impedance</text></g><g id="master-shape24-59" transform="translate(0.5,-20.0925)"><title content="structured text">Sheet.24</title><desc content="structured text">Bus change</desc><rect x="0" y="125.224" width="113.386" height="11.3386" class="st2"/><text x="69.15" y="133.29" class="st3">Bus change</text></g><g id="group25-62" transform="translate(113.886,-20.0925)"><title content="structured text">Bus-End</title><g id="master-shape26-63" transform="translate(4.25197,0)"><title content="structured text">Sheet.26</title><path d="M0 130.89 L1.42 125.22 L4.25 125.22 L5.67 130.89 L4.25 136.56 L1.42 136.56 L0 130.89 Z" class="st4"/></g><g id="master-shape27-65"><title content="structured text">Sheet.27</title><path d="M0 125.22 L2.83 125.22 L4.25 130.89 L2.83 136.56 L0 136.56" class="st1"/></g><g id="master-shape28-68" transform="translate(9.92126,0)"><title content="structured text">Sheet.28</title><path d="M35.43 125.22 L1.42 125.22 L0 130.89 L1.42 136.56 L35.43 136.56" class="st1"/></g></g><g id="master-shape29-71" transform="translate(118.138,-3.08465)"><title content="structured text">Undefined bus</title><path d="M4.25 125.22 L1.42 125.22 L0 130.89 L1.42 136.56 L4.25 136.56 L5.67 130.89 L4.25 125.22 Z" class="st4"/></g><g id="master-shape30-73" transform="translate(113.886,-8.75394)"><title content="structured text">Stable.30</title><path d="M0 136.56 L4.25 136.56" class="st1"/></g><g id="group31-76" transform="translate(123.807,-3.08465)"><title content="structured text">Undefined bus right</title><g id="master-shape32-77"><title content="structured text">Sheet.32</title><path d="M35.43 125.22 L1.42 125.22 L0 130.89 L1.42 136.56 L35.43 136.56 L35.43 125.22 Z" class="st2"/></g><g id="master-shape33-79"><title content="structured text">Sheet.33</title><path d="M35.43 125.22 L1.42 125.22 L0 130.89 L1.42 136.56 L35.43 136.56" class="st1"/></g></g><g id="master-shape34-82" transform="translate(0.5,-3.08465)"><title content="structured text">Sheet.34</title><desc content="structured text">High impedance to stable bus</desc><rect x="0" y="125.224" width="113.386" height="11.3386" class="st2"/><text x="6" y="133.29" class="st3">High impedance to stable bus</text></g><g id="master-shape35-85" transform="translate(250.449,0.25) rotate(90)"><title content="structured text">Time division</title><path d="M0 136.56 L136.06 136.56" class="st6"/></g><g id="master-shape36-88" transform="translate(295.803,0.25) rotate(90)"><title content="structured text">Time division.36</title><path d="M0 136.56 L136.06 136.56" class="st6"/></g></g></svg>