<?xml version="1.0" encoding="UTF-8" standalone="no"?><!-- Fixed up by svgfix.xsl 1.4  --><!-- Generated by Microsoft Visio 11.0, SVG Export, v1.0 id_aa64mmfr2_el1_bit_assignments_LowRes.svg ARM -->
<!DOCTYPE svg
  PUBLIC "-//W3C//DTD SVG 1.0//EN" "http://www.w3.org/TR/2001/REC-SVG-20010904/DTD/svg10.dtd">
<svg xmlns:xlink="http://www.w3.org/1999/xlink" xmlns="http://www.w3.org/2000/svg" xmlns:ev="http://www.w3.org/2001/xml-events" width="652.212" height="125.724" viewBox="0 0 489.159 94.293" xml:space="preserve" color-interpolation-filters="sRGB" class="st12" preserveAspectRatio="xMidYMid meet" zoomAndPan="magnify" version="1.0" contentScriptType="text/ecmascript" contentStyleType="text/css"><style type="text/css" xml:space="preserve"><![CDATA[
	
		.st1 {fill:#eed9b3;stroke:none;stroke-linecap:round;stroke-linejoin:round;stroke-width:0.2px}
		.st2 {stroke:#000000;stroke-linecap:butt;stroke-width:0.8px}
		.st3 {stroke:#000000;stroke-dasharray:0.25,0.5;stroke-linecap:butt;stroke-width:0.25px}
		.st4 {fill:#000000;font-family:Arial,Helvetica,sans-serif;font-size:0.666664em}
		.st5 {fill:none;stroke:none;stroke-linecap:round;stroke-linejoin:round;stroke-width:0.2px}
		.st6 {fill:none;stroke:none;stroke-linecap:butt;stroke-width:0.499999px}
		.st7 {fill:#000000;font-family:Arial,Helvetica,sans-serif;font-size:0.533318em}
		.st8 {font-size:1.25003em}
		.st9 {fill:#eed9b3;stroke:none;stroke-linecap:round;stroke-linejoin:round;stroke-width:0.2px}
		.st10 {fill:#ffffff;stroke:none;stroke-linecap:butt;stroke-width:0.5px}
		.st11 {stroke:#000000;stroke-linecap:butt;stroke-width:0.5px}
		.st12 {fill:none;fill-rule:evenodd;font-size:12px;overflow:visible;stroke-linecap:square;stroke-miterlimit:3}]]></style><g xmlns:v="http://schemas.microsoft.com/visio/2003/SVGExtensions/"><title content="structured text">ARM</title><g id="shape14-1" transform="translate(12.1386,-43.0197)"><title content="structured text">64-bit register.88</title><rect x="0" y="65.9469" width="283.465" height="28.3465" class="st1"/></g><g id="shape1-3" transform="translate(477.02,-43.0197) scale(-1,1)"><title content="structured text">64-bit register.156</title><path d="M0 65.95 L464.88 65.95 L464.88 94.29 L0 94.29" class="st2"/></g><g id="shape2-6" transform="translate(106.432,11.5886) rotate(90)"><title content="structured text">64-bit register.169</title><path d="M0 94.29 L11.34 94.29" class="st3"/></g><g id="shape3-9" transform="translate(477.02,-43.0197)"><title content="structured text">64-bit register.157</title><path d="M0 65.95 L0 94.29" class="st2"/></g><g id="shape4-12" transform="translate(295.603,-43.0197)"><title content="structured text">64-bit register.39</title><path d="M0 65.95 L0 94.29" class="st2"/></g><g id="shape5-15" transform="translate(340.957,-43.0197)"><title content="structured text">64-bit register.41</title><path d="M0 65.95 L0 94.29" class="st2"/></g><g id="shape6-18" transform="translate(386.312,-43.0197)"><title content="structured text">64-bit register.42</title><path d="M0 65.95 L0 94.29" class="st2"/></g><g id="shape7-21" transform="translate(431.666,-43.0197)"><title content="structured text">64-bit register.52</title><path d="M0 65.95 L0 94.29" class="st2"/></g><g id="shape8-24" transform="translate(389.896,11.5886) rotate(90)"><title content="structured text">64-bit register.14</title><path d="M0 94.29 L11.34 94.29" class="st3"/></g><g id="shape9-27" transform="translate(435.251,11.5886) rotate(90)"><title content="structured text">64-bit register.15</title><path d="M0 94.29 L11.34 94.29" class="st3"/></g><g id="shape10-30" transform="translate(525.959,11.5886) rotate(90)"><title content="structured text">64-bit register.16</title><path d="M0 94.29 L11.34 94.29" class="st3"/></g><g id="shape11-33" transform="translate(571.314,11.5886) rotate(90)"><title content="structured text">64-bit register.17</title><path d="M0 94.29 L11.34 94.29" class="st3"/></g><g id="shape12-36" transform="translate(12.1386,-71.3661)"><title content="structured text">64-bit register.179</title><desc content="structured text">63</desc><text x="1.22" y="91.02" class="st4">63</text></g><g id="shape13-38" transform="translate(465.682,-71.3661)"><title content="structured text">64-bit register.19</title><desc content="structured text">0</desc><text x="3.44" y="91.02" class="st4">0</text></g><g id="shape15-40" transform="translate(480.605,11.5886) rotate(90)"><title content="structured text">64-bit register.21</title><path d="M0 94.29 L11.34 94.29" class="st3"/></g><g id="shape16-43" transform="translate(420.328,-71.3661)"><title content="structured text">64-bit register.35</title><desc content="structured text">4</desc><text x="3.44" y="91.02" class="st4">4</text></g><g id="shape17-45" transform="translate(431.666,-71.3661)"><title content="structured text">64-bit register.209</title><desc content="structured text">3</desc><text x="3.44" y="91.02" class="st4">3</text></g><g id="shape18-47" transform="translate(374.973,-71.3661)"><title content="structured text">64-bit register.210</title><desc content="structured text">8</desc><text x="3.44" y="91.02" class="st4">8</text></g><g id="shape19-49" transform="translate(386.312,-71.3661)"><title content="structured text">64-bit register.211</title><desc content="structured text">7</desc><text x="3.44" y="91.02" class="st4">7</text></g><g id="shape20-51" transform="translate(329.619,-71.3661)"><title content="structured text">64-bit register.212</title><desc content="structured text">12</desc><text x="1.22" y="91.02" class="st4">12</text></g><g id="shape21-53" transform="translate(340.957,-71.3661)"><title content="structured text">64-bit register.213</title><desc content="structured text">11</desc><text x="1.22" y="91.02" class="st4">11</text></g><g id="shape22-55" transform="translate(284.265,-71.3661)"><title content="structured text">64-bit register.214</title><desc content="structured text">16</desc><text x="1.22" y="91.02" class="st4">16</text></g><g id="shape23-57" transform="translate(295.603,-71.3661)"><title content="structured text">64-bit register.215</title><desc content="structured text">15</desc><text x="1.22" y="91.02" class="st4">15</text></g><g id="shape24-59" transform="translate(340.957,-43.0197)"><title content="structured text">64-bit register.223</title><desc content="structured text">LSM</desc><rect x="0" y="65.9469" width="45.3543" height="28.3465" class="st5"/><text x="14.45" y="82.52" class="st4">LSM</text></g><g id="shape25-62" transform="translate(386.312,-43.0197)"><title content="structured text">64-bit register.224</title><desc content="structured text">UAO</desc><rect x="0" y="65.9469" width="45.3543" height="28.3465" class="st5"/><text x="14.01" y="82.52" class="st4">UAO</text></g><g id="shape37-65" transform="translate(361.55,11.5886) rotate(90)"><title content="structured text">64-bit register.43</title><path d="M0 94.29 L11.34 94.29" class="st3"/></g><g id="shape38-68" transform="translate(295.603,-43.0197)"><title content="structured text">64-bit register.45</title><desc content="structured text">IESB</desc><rect x="0" y="65.9469" width="45.3543" height="28.3465" class="st5"/><text x="13.56" y="82.52" class="st4">IESB</text></g><g id="shape40-71" transform="translate(431.666,-43.0197)"><title content="structured text">64-bit register.47</title><desc content="structured text">CnP</desc><rect x="0" y="65.9469" width="45.3543" height="28.3465" class="st5"/><text x="14.9" y="82.52" class="st4">CnP</text></g><g id="shape44-74" transform="translate(338.873,11.5886) rotate(90)"><title content="structured text">Sheet.44</title><path d="M0 94.29 L11.34 94.29" class="st3"/></g><g id="shape49-77" transform="translate(316.196,11.5886) rotate(90)"><title content="structured text">Sheet.49</title><path d="M0 94.29 L11.34 94.29" class="st3"/></g><g id="shape54-80" transform="translate(293.519,11.5886) rotate(90)"><title content="structured text">Sheet.54</title><path d="M0 94.29 L11.34 94.29" class="st3"/></g><g id="shape47-83" transform="translate(270.841,11.5886) rotate(90)"><title content="structured text">Sheet.47</title><path d="M0 94.29 L11.34 94.29" class="st3"/></g><g id="shape52-86" transform="translate(248.164,11.5886) rotate(90)"><title content="structured text">Sheet.52</title><path d="M0 94.29 L11.34 94.29" class="st3"/></g><g id="shape35-89" transform="translate(225.487,11.6005) rotate(90)"><title content="structured text">Sheet.35</title><path d="M0 94.29 L11.34 94.29" class="st3"/></g><g id="shape36-92" transform="translate(202.81,11.5886) rotate(90)"><title content="structured text">Sheet.36</title><path d="M0 94.29 L11.34 94.29" class="st3"/></g><g id="shape43-95" transform="translate(180.133,11.5886) rotate(90)"><title content="structured text">Sheet.43</title><path d="M0 94.29 L11.34 94.29" class="st3"/></g><g id="shape53-98" transform="translate(157.456,11.5886) rotate(90)"><title content="structured text">Sheet.53</title><path d="M0 94.29 L11.34 94.29" class="st3"/></g><g id="shape55-101" transform="translate(134.778,11.5886) rotate(90)"><title content="structured text">Sheet.55</title><path d="M0 94.29 L11.34 94.29" class="st3"/></g><g id="group58-104" transform="translate(12.1386,-11.8386)"><title content="structured text">Sheet.58</title><g id="shape59-105" transform="translate(11.3386,1.42109E-014)"><title content="structured text">Rectangle No Fill No Fill.116</title><desc content="structured text">res0</desc><rect x="0" y="82.9547" width="22.6772" height="11.3386" class="st6"/><text x="3.07" y="91.02" class="st7">RES<tspan class="st8">0</tspan></text></g><g id="shape60-109"><title content="structured text">Graphic.117</title><rect x="0" y="82.9547" width="11.3386" height="11.3386" class="st9"/></g></g><g id="group57-111" transform="translate(152.454,-40.185)"><title content="structured text">Sheet.57</title><g id="group26-112" transform="translate(-5.7454E-015,-28.3465)"><title content="structured text">Disconnect</title><g id="shape27-113" transform="translate(0.566929,1.42109E-014)"><title content="structured text">Sheet.27</title><rect x="0" y="88.624" width="1.88976" height="5.66929" class="st10"/></g><g id="shape28-115" transform="translate(95.4393,104.058) rotate(99.4623)"><title content="structured text">Sheet.28</title><path d="M0 93.88 C0.15 94.09 0.72 94.26 1.15 94.29 C1.58 94.32 1.86 94.21 2.34 93.98 C2.63 93.84 2.98 93.65          3.29 93.53 C4.56 93.03 5.03 93.58 5.75 93.88" class="st11"/></g><g id="shape29-118" transform="translate(93.5495,104.058) rotate(99.4623)"><title content="structured text">Sheet.29</title><path d="M0 93.88 C0.15 94.09 0.72 94.26 1.15 94.29 C1.58 94.32 1.86 94.21 2.34 93.98 C2.63 93.84 2.98 93.65          3.29 93.53 C4.56 93.03 5.03 93.58 5.75 93.88" class="st11"/></g></g><g id="group30-121"><title content="structured text">Disconnect.12</title><g id="shape31-122" transform="translate(0.566929,1.42109E-014)"><title content="structured text">Sheet.31</title><rect x="0" y="88.624" width="1.88976" height="5.66929" class="st10"/></g><g id="shape32-124" transform="translate(95.4393,104.058) rotate(99.4623)"><title content="structured text">Sheet.32</title><path d="M0 93.88 C0.15 94.09 0.72 94.26 1.15 94.29 C1.58 94.32 1.86 94.21 2.34 93.98 C2.63 93.84 2.98 93.65          3.29 93.53 C4.56 93.03 5.03 93.58 5.75 93.88" class="st11"/></g><g id="shape33-127" transform="translate(93.5495,104.058) rotate(99.4623)"><title content="structured text">Sheet.33</title><path d="M0 93.88 C0.15 94.09 0.72 94.26 1.15 94.29 C1.58 94.32 1.86 94.21 2.34 93.98 C2.63 93.84 2.98 93.65          3.29 93.53 C4.56 93.03 5.03 93.58 5.75 93.88" class="st11"/></g></g></g></g></svg>