<?xml version="1.0" encoding="UTF-8" standalone="no"?><!-- Fixed up by svgfix.xsl 1.4  --><!-- Generated by Microsoft Visio 11.0, SVG Export, v1.0 rvbar_el3_bit_assignments.svg Page-1 -->
<!DOCTYPE svg
  PUBLIC "-//W3C//DTD SVG 1.0//EN" "http://www.w3.org/TR/2001/REC-SVG-20010904/DTD/svg10.dtd">
<svg xmlns:xlink="http://www.w3.org/1999/xlink" xmlns="http://www.w3.org/2000/svg" width="606.857" height="57.677" viewBox="0 0 455.143 43.258" xml:space="preserve" color-interpolation-filters="sRGB" class="st7" preserveAspectRatio="xMidYMid meet" zoomAndPan="magnify" version="1.0" contentScriptType="text/ecmascript" contentStyleType="text/css"><style type="text/css" xml:space="preserve"><![CDATA[
	
		.st1 {fill:#ffffff;visibility:hidden}
		.st2 {stroke:#000000;stroke-linecap:butt;stroke-width:0.8px}
		.st3 {stroke:#000000;stroke-dasharray:0.25,1;stroke-linecap:butt;stroke-width:0.25px}
		.st4 {fill:#000000;font-family:Arial,Helvetica,sans-serif;font-size:0.666664em}
		.st5 {fill:#ffffff;stroke:#000000;stroke-linecap:butt;stroke-width:0.5px}
		.st6 {font-size:1em}
		.st7 {fill:none;fill-rule:evenodd;font-size:12px;overflow:visible;stroke-linecap:square;stroke-miterlimit:3}
		.st8 {fill:#ffffff;stroke:none;stroke-linecap:butt;stroke-width:0.5px}
		.st9 {stroke:#000000;stroke-linecap:butt;stroke-width:0.5px}]]></style><defs xmlns:v="http://schemas.microsoft.com/visio/2003/SVGExtensions/" id="Masters"><symbol id="master5" class="st7" preserveAspectRatio="xMidYMid meet"><title content="structured text">Master.5</title><g id="group47-45"><title content="structured text">Sheet.47</title><g id="group48-46" transform="translate(0,-28.3465)"><title content="structured text">Sheet.48</title><g id="master-shape50-47" transform="translate(0.566929,3.55271E-014)"><title content="structured text">Sheet.50</title><rect x="0" y="37.5885" width="1.88976" height="5.66929" class="st8"/></g><g id="master-shape51-49" transform="translate(45.0982,44.6324) rotate(99.4623)"><title content="structured text">Sheet.51</title><path d="M0 42.85 C0.15 43.05 0.72 43.22 1.15 43.25 C1.58 43.28 1.86 43.18 2.34 42.94 C2.63 42.8 2.98 42.61           3.29 42.49 C4.56 41.99 5.03 42.54 5.75 42.85" class="st9"/></g><g id="master-shape52-52" transform="translate(43.2084,44.6324) rotate(99.4623)"><title content="structured text">Sheet.52</title><path d="M0 42.85 C0.15 43.05 0.72 43.22 1.15 43.25 C1.58 43.28 1.86 43.18 2.34 42.94 C2.63 42.8 2.98 42.61           3.29 42.49 C4.56 41.99 5.03 42.54 5.75 42.85" class="st9"/></g></g><g id="group57-55"><title content="structured text">Sheet.57</title><g id="master-shape58-56" transform="translate(0.566929,3.55271E-014)"><title content="structured text">Sheet.58</title><rect x="0" y="37.5885" width="1.88976" height="5.66929" class="st8"/></g><g id="master-shape59-58" transform="translate(45.0982,44.6324) rotate(99.4623)"><title content="structured text">Sheet.59</title><path d="M0 42.85 C0.15 43.05 0.72 43.22 1.15 43.25 C1.58 43.28 1.86 43.18 2.34 42.94 C2.63 42.8 2.98 42.61           3.29 42.49 C4.56 41.99 5.03 42.54 5.75 42.85" class="st9"/></g><g id="master-shape60-61" transform="translate(43.2084,44.6324) rotate(99.4623)"><title content="structured text">Sheet.60</title><path d="M0 42.85 C0.15 43.05 0.72 43.22 1.15 43.25 C1.58 43.28 1.86 43.18 2.34 42.94 C2.63 42.8 2.98 42.61           3.29 42.49 C4.56 41.99 5.03 42.54 5.75 42.85" class="st9"/></g></g></g></symbol></defs><g xmlns:v="http://schemas.microsoft.com/visio/2003/SVGExtensions/"><title content="structured text">Page-1</title><g id="shape37-1" transform="translate(0.8,-3.32276)"><title content="structured text">64-bit register.37</title><rect x="0" y="14.9113" width="453.543" height="28.3465" class="st1"/><rect x="0" y="14.9113" width="453.543" height="28.3465" class="st2"/></g><g id="shape38-4" transform="translate(497.601,0.25) rotate(90)"><title content="structured text">Signal 0.109</title><path d="M0 43.26 L11.34 43.26" class="st3"/></g><g id="shape39-7" transform="translate(440.908,0.25) rotate(90)"><title content="structured text">Signal 0.80</title><path d="M0 43.26 L11.34 43.26" class="st3"/></g><g id="shape40-10" transform="translate(384.215,0.25) rotate(90)"><title content="structured text">Signal 0.81</title><path d="M0 43.26 L11.34 43.26" class="st3"/></g><g id="shape41-13" transform="translate(327.522,0.25) rotate(90)"><title content="structured text">Signal 0.82</title><path d="M0 43.26 L11.34 43.26" class="st3"/></g><g id="shape42-16" transform="translate(270.829,0.25) rotate(90)"><title content="structured text">Signal 0.83</title><path d="M0 43.26 L11.34 43.26" class="st3"/></g><g id="shape43-19" transform="translate(214.137,0.25) rotate(90)"><title content="structured text">Signal 0.84</title><path d="M0 43.26 L11.34 43.26" class="st3"/></g><g id="shape44-22" transform="translate(157.444,0.25) rotate(90)"><title content="structured text">Signal 0.85</title><path d="M0 43.26 L11.34 43.26" class="st3"/></g><g id="shape45-25" transform="translate(100.751,0.25) rotate(90)"><title content="structured text">Signal 0.86</title><path d="M0 43.26 L11.34 43.26" class="st3"/></g><g id="shape46-28" transform="translate(44.0578,0.25) rotate(90)"><title content="structured text">Signal 0.87</title><path d="M0 43.26 L11.34 43.26" class="st3"/></g><g id="shape49-31" transform="translate(443.005,-31.6692)"><title content="structured text">Bit01.2</title><desc content="structured text">0</desc><text x="3.44" y="39.99" class="st4">0</text></g><g id="shape53-33" transform="translate(384.215,0.25) rotate(90)"><title content="structured text">Signal 0.91</title><path d="M0 43.26 L11.34 43.26" class="st3"/></g><g id="group55-36" transform="translate(0.8,-3.32276)"><title content="structured text">Sheet.55</title><g id="shape56-37"><title content="structured text">Block</title><rect x="0" y="14.9113" width="453.543" height="28.3465" class="st5"/></g></g><g id="shape54-39" transform="translate(0.8,-0.900359)"><title content="structured text">16-bit field</title><desc content="structured text">Reset Vector Base Address</desc><text x="177.64" y="28.65" class="st4">Reset Vector Base Address</text></g><g id="shape36-41" transform="translate(0.8,-31.6692)"><title content="structured text">64-bit register.36</title><desc content="structured text">63</desc><text x="1.22" y="39.99" class="st4">6<tspan class="st6">3</tspan></text></g><use id="shape47-44" xlink:href="#master5" transform="translate(225.138,-0.5)" xlink:type="simple" xlink:show="embed" xlink:actuate="onLoad"><title content="structured text">Sheet.47</title></use></g></svg>