<?xml version="1.0" encoding="UTF-8" standalone="no"?><!-- Fixed up by svgfix.xsl 1.4  --><!-- Generated by Microsoft Visio 11.0, SVG Export, v1.0 pmcr_el0_64_bit_assignments.svg ARM -->
<!DOCTYPE svg
  PUBLIC "-//W3C//DTD SVG 1.0//EN" "http://www.w3.org/TR/2001/REC-SVG-20010904/DTD/svg10.dtd">
<svg xmlns:xlink="http://www.w3.org/1999/xlink" xmlns="http://www.w3.org/2000/svg" xmlns:ev="http://www.w3.org/2001/xml-events" width="516.149" height="114.386" viewBox="0 0 387.112 85.789" xml:space="preserve" color-interpolation-filters="sRGB" class="st11" preserveAspectRatio="xMidYMid meet" zoomAndPan="magnify" version="1.0" contentScriptType="text/ecmascript" contentStyleType="text/css"><style type="text/css" xml:space="preserve"><![CDATA[
	
		.st1 {fill:none;stroke:none;stroke-linecap:round;stroke-linejoin:round;stroke-width:0.2px}
		.st2 {fill:#000000;font-family:Arial,Helvetica,sans-serif;font-size:0.666664em}
		.st3 {fill:#eed9b3;stroke:none;stroke-linecap:round;stroke-linejoin:round;stroke-width:0.2px}
		.st4 {fill:none;visibility:hidden}
		.st5 {stroke:#000000;stroke-linecap:butt;stroke-width:0.8px}
		.st6 {stroke:#000000;stroke-dasharray:0.25,0.5;stroke-linecap:butt;stroke-width:0.25px}
		.st7 {fill:none;stroke:none;stroke-linecap:butt;stroke-width:0.499999px}
		.st8 {fill:#000000;font-family:Arial,Helvetica,sans-serif;font-size:0.533318em}
		.st9 {font-size:1.25003em}
		.st10 {fill:#eed9b3;stroke:none;stroke-linecap:round;stroke-linejoin:round;stroke-width:0.2px}
		.st11 {fill:none;fill-rule:evenodd;font-size:12px;overflow:visible;stroke-linecap:square;stroke-miterlimit:3}]]></style><g xmlns:v="http://schemas.microsoft.com/visio/2003/SVGExtensions/"><title content="structured text">ARM</title><g id="group1-1" transform="translate(12.1386,-34.5157)"><title content="structured text">32-bit register.17</title><g id="shape2-2" transform="translate(351.496,-1.42109E-014)"><title content="structured text">Sheet.2</title><desc content="structured text">E</desc><rect x="0" y="57.4429" width="11.3386" height="28.3465" class="st1"/><text x="3" y="74.02" class="st2">E</text></g><g id="shape3-5" transform="translate(8.49321E-014,-28.3465)"><title content="structured text">Sheet.3</title><desc content="structured text">31</desc><text x="1.22" y="82.52" class="st2">31</text></g><g id="shape4-7" transform="translate(79.3701,-28.3465)"><title content="structured text">Sheet.4</title><desc content="structured text">24</desc><text x="1.22" y="82.52" class="st2">24</text></g><g id="shape5-9" transform="translate(90.7087,-28.3465)"><title content="structured text">Sheet.5</title><desc content="structured text">23</desc><text x="1.22" y="82.52" class="st2">23</text></g><g id="shape6-11" transform="translate(170.079,-28.3465)"><title content="structured text">Sheet.6</title><desc content="structured text">16</desc><text x="1.22" y="82.52" class="st2">16</text></g><g id="shape7-13" transform="translate(181.417,-28.3465)"><title content="structured text">Sheet.7</title><desc content="structured text">15</desc><text x="1.22" y="82.52" class="st2">15</text></g><g id="shape8-15" transform="translate(226.772,-28.3465)"><title content="structured text">Sheet.8</title><desc content="structured text">11</desc><text x="1.22" y="82.52" class="st2">11</text></g><g id="shape9-17" transform="translate(238.11,-28.3465)"><title content="structured text">Sheet.9</title><desc content="structured text">10</desc><text x="1.22" y="82.52" class="st2">10</text></g><g id="shape10-19" transform="translate(283.465,-28.3465)"><title content="structured text">Sheet.10</title><desc content="structured text">6</desc><text x="3.44" y="82.52" class="st2">6</text></g><g id="shape11-21" transform="translate(294.803,-28.3465)"><title content="structured text">Sheet.11</title><desc content="structured text">5</desc><text x="3.44" y="82.52" class="st2">5</text></g><g id="shape12-23" transform="translate(306.142,-28.3465)"><title content="structured text">Sheet.12</title><desc content="structured text">4</desc><text x="3.44" y="82.52" class="st2">4</text></g><g id="shape13-25" transform="translate(317.48,-28.3465)"><title content="structured text">Sheet.13</title><desc content="structured text">3</desc><text x="3.44" y="82.52" class="st2">3</text></g><g id="shape14-27" transform="translate(328.819,-28.3465)"><title content="structured text">Sheet.14</title><desc content="structured text">2</desc><text x="3.44" y="82.52" class="st2">2</text></g><g id="shape15-29" transform="translate(340.157,-28.3465)"><title content="structured text">Sheet.15</title><desc content="structured text">1</desc><text x="3.44" y="82.52" class="st2">1</text></g><g id="shape16-31" transform="translate(351.496,-28.3465)"><title content="structured text">Sheet.16</title><desc content="structured text">0</desc><text x="3.44" y="82.52" class="st2">0</text></g><g id="shape17-33"><title content="structured text">Sheet.17</title><desc content="structured text">IMP</desc><rect x="0" y="57.4429" width="90.7087" height="28.3465" class="st1"/><text x="38.24" y="74.02" class="st2">IMP</text></g><g id="shape18-36" transform="translate(90.7087,-1.42109E-014)"><title content="structured text">Sheet.18</title><desc content="structured text">IDCODE</desc><rect x="0" y="57.4429" width="90.7087" height="28.3465" class="st1"/><text x="29.8" y="74.02" class="st2">IDCODE</text></g><g id="shape19-39" transform="translate(181.417,-1.42109E-014)"><title content="structured text">Sheet.19</title><desc content="structured text">N</desc><rect x="0" y="57.4429" width="56.6929" height="28.3465" class="st1"/><text x="25.46" y="74.02" class="st2">N</text></g><g id="shape20-42" transform="translate(238.11,-1.42109E-014)"><title content="structured text">Sheet.20</title><rect x="0" y="57.4429" width="45.3543" height="28.3465" class="st3"/></g><g id="shape21-44" transform="translate(294.803,-1.42109E-014)"><title content="structured text">Sheet.21</title><desc content="structured text">DP</desc><rect x="0" y="57.4429" width="11.3386" height="28.3465" class="st1"/><text x="0.11" y="74.02" class="st2">DP</text></g><g id="shape22-47" transform="translate(306.142,-1.42109E-014)"><title content="structured text">Sheet.22</title><desc content="structured text">X</desc><rect x="0" y="57.4429" width="11.3386" height="28.3465" class="st1"/><text x="3" y="74.02" class="st2">X</text></g><g id="shape23-50" transform="translate(317.48,-1.42109E-014)"><title content="structured text">Sheet.23</title><desc content="structured text">D</desc><rect x="0" y="57.4429" width="11.3386" height="28.3465" class="st1"/><text x="2.78" y="74.02" class="st2">D</text></g><g id="shape24-53" transform="translate(328.819,-1.42109E-014)"><title content="structured text">Sheet.24</title><desc content="structured text">C</desc><rect x="0" y="57.4429" width="11.3386" height="28.3465" class="st1"/><text x="2.78" y="74.02" class="st2">C</text></g><g id="shape25-56" transform="translate(340.157,-1.42109E-014)"><title content="structured text">Sheet.25</title><desc content="structured text">P</desc><rect x="0" y="57.4429" width="11.3386" height="28.3465" class="st1"/><text x="3" y="74.02" class="st2">P</text></g><g id="shape26-59"><title content="structured text">Sheet.26</title><rect x="0" y="57.4429" width="362.835" height="28.3465" class="st4"/><rect x="0" y="57.4429" width="362.835" height="28.3465" class="st5"/></g><g id="shape27-62" transform="translate(90.7087,-1.42109E-014)"><title content="structured text">Sheet.27</title><path d="M0 57.44 L0 85.79" class="st5"/></g><g id="shape28-65" transform="translate(181.417,-1.42109E-014)"><title content="structured text">Sheet.28</title><path d="M0 57.44 L0 85.79" class="st5"/></g><g id="shape29-68" transform="translate(238.11,-1.42109E-014)"><title content="structured text">Sheet.29</title><path d="M0 57.44 L0 85.79" class="st5"/></g><g id="shape30-71" transform="translate(294.803,-1.42109E-014)"><title content="structured text">Sheet.30</title><path d="M0 57.44 L0 85.79" class="st5"/></g><g id="shape31-74" transform="translate(306.142,-1.42109E-014)"><title content="structured text">Sheet.31</title><path d="M0 57.44 L0 85.79" class="st5"/></g><g id="shape32-77" transform="translate(317.48,-1.42109E-014)"><title content="structured text">Sheet.32</title><path d="M0 57.44 L0 85.79" class="st5"/></g><g id="shape33-80" transform="translate(328.819,-1.42109E-014)"><title content="structured text">Sheet.33</title><path d="M0 57.44 L0 85.79" class="st5"/></g><g id="shape34-83" transform="translate(340.157,-1.42109E-014)"><title content="structured text">Sheet.34</title><path d="M0 57.44 L0 85.79" class="st5"/></g><g id="shape35-86" transform="translate(351.496,-1.42109E-014)"><title content="structured text">Sheet.35</title><path d="M0 57.44 L0 85.79" class="st5"/></g><g id="shape36-89" transform="translate(403.27,46.1043) rotate(90)"><title content="structured text">Signal 0</title><path d="M0 85.79 L11.34 85.79" class="st6"/></g><g id="shape37-92" transform="translate(357.915,46.1043) rotate(90)"><title content="structured text">Signal 0.102</title><path d="M0 85.79 L11.34 85.79" class="st6"/></g><g id="shape38-95" transform="translate(312.561,46.1043) rotate(90)"><title content="structured text">Signal 0.103</title><path d="M0 85.79 L11.34 85.79" class="st6"/></g><g id="shape39-98" transform="translate(267.207,46.1043) rotate(90)"><title content="structured text">Signal 0.104</title><path d="M0 85.79 L11.34 85.79" class="st6"/></g><g id="shape40-101" transform="translate(221.852,46.1043) rotate(90)"><title content="structured text">Signal 0.105</title><path d="M0 85.79 L11.34 85.79" class="st6"/></g><g id="shape41-104" transform="translate(176.498,46.1043) rotate(90)"><title content="structured text">Signal 0.106</title><path d="M0 85.79 L11.34 85.79" class="st6"/></g><g id="shape42-107" transform="translate(131.144,46.1043) rotate(90)"><title content="structured text">Signal 0.107</title><path d="M0 85.79 L11.34 85.79" class="st6"/></g><g id="shape43-110" transform="translate(85.7894,46.1043) rotate(90)"><title content="structured text">Signal 0.108</title><path d="M0 85.79 L11.34 85.79" class="st6"/></g><g id="shape44-113" transform="translate(448.624,46.1043) rotate(90)"><title content="structured text">Signal 0.109</title><path d="M0 85.79 L11.34 85.79" class="st6"/></g></g><g id="shape45-116" transform="translate(295.603,-34.5157)"><title content="structured text">32-bit register.92</title><path d="M0 57.44 L0 85.79" class="st5"/></g><g id="shape46-119" transform="translate(295.603,-34.5157)"><title content="structured text">32-bit register.61</title><desc content="structured text">LC</desc><rect x="0" y="57.4429" width="11.3386" height="28.3465" class="st1"/><text x="0.56" y="74.02" class="st2">LC</text></g><g id="shape47-122" transform="translate(284.265,-62.8622)"><title content="structured text">32-bit register.29</title><desc content="structured text">7</desc><text x="3.44" y="82.52" class="st2">7</text></g><g id="shape48-124" transform="translate(22.5786,-11.8386)"><title content="structured text">Rectangle No Fill No Fill.116</title><desc content="structured text">res0</desc><rect x="0" y="74.4508" width="19.8425" height="11.3386" class="st7"/><text x="1.24" y="82.52" class="st8">RES<tspan class="st9">0</tspan></text></g><g id="shape49-128" transform="translate(12.1386,-11.8386)"><title content="structured text">Graphic.117</title><rect x="0" y="74.4508" width="10.44" height="11.3386" class="st10"/></g></g></svg>