<?xml version="1.0" encoding="UTF-8" standalone="no"?><!-- Fixed up by svgfix.xsl 1.4  --><!-- Generated by Microsoft Visio, SVG Export lau1469112731483_LowRes.svg ARM -->
<!DOCTYPE svg
  PUBLIC "-//W3C//DTD SVG 1.0//EN" "http://www.w3.org/TR/2001/REC-SVG-20010904/DTD/svg10.dtd">
<svg xmlns:xlink="http://www.w3.org/1999/xlink" xmlns="http://www.w3.org/2000/svg" xmlns:ev="http://www.w3.org/2001/xml-events" width="516.149" height="182.772" viewBox="0 0 387.112 137.079" xml:space="preserve" color-interpolation-filters="sRGB" class="st13" preserveAspectRatio="xMidYMid meet" zoomAndPan="magnify" version="1.1" contentScriptType="application/ecmascript" contentStyleType="text/css"><style type="text/css" xml:space="preserve"><![CDATA[
	
		.st1 {fill:#eed9b3;stroke:none;stroke-linecap:round;stroke-linejoin:round;stroke-width:0.2px}
		.st2 {fill:#000000;font-family:Arial,Helvetica,sans-serif;font-size:0.666664em}
		.st3 {fill:#ffffff;visibility:hidden}
		.st4 {stroke:#000000;stroke-linecap:butt;stroke-width:0.8px}
		.st5 {stroke:#000000;stroke-dasharray:0.25,1;stroke-linecap:butt;stroke-width:0.25px}
		.st6 {fill:none;stroke:none;stroke-linecap:butt;stroke-width:0.499999px}
		.st7 {fill:#000000;font-family:Arial,Helvetica,sans-serif;font-size:0.533318em}
		.st8 {font-size:1.25003em}
		.st9 {fill:none}
		.st10 {stroke:#000000;stroke-linecap:butt;stroke-width:0.799997px}
		.st11 {fill:none;stroke:none;stroke-linecap:round;stroke-linejoin:round;stroke-width:0.2px}
		.st12 {stroke:#000000;stroke-linecap:butt;stroke-width:0.5px}
		.st13 {fill:none;fill-rule:evenodd;font-size:12px;overflow:visible;stroke-linecap:square;stroke-miterlimit:3}]]></style><g xmlns:v="http://schemas.microsoft.com/visio/2003/SVGExtensions/"><title>ARM</title><g id="shape2-1" transform="translate(159.54,-85.7411)"><title>Graphic.260</title><rect x="0" y="108.733" width="158.74" height="28.3465" class="st1"/></g><g id="shape3-3" transform="translate(12.1386,-113.886)"><title>Bit31</title><desc>31</desc><text x="1.22" y="133.81" class="st2">31</text></g><g id="shape4-5" transform="translate(12.1386,-85.5394)"><title>MainOutline+Bit00</title><desc>0</desc><rect x="0" y="108.733" width="362.835" height="28.3465" class="st3"/><rect x="0" y="108.733" width="362.835" height="28.3465" class="st4"/><text x="354.94" y="105.46" class="st2">0</text></g><g id="shape5-9" transform="translate(466.698,11.8551) rotate(90)"><title>Signal 0.48</title><path d="M0 137.08 L11.34 137.08" class="st5"/></g><g id="shape6-12" transform="translate(421.344,11.8551) rotate(90)"><title>Signal 0.49</title><path d="M0 137.08 L11.34 137.08" class="st5"/></g><g id="shape7-15" transform="translate(375.99,11.8551) rotate(90)"><title>Signal 0.50</title><path d="M0 137.08 L11.34 137.08" class="st5"/></g><g id="shape8-18" transform="translate(330.635,11.8551) rotate(90)"><title>Signal 0.51</title><path d="M0 137.08 L11.34 137.08" class="st5"/></g><g id="shape9-21" transform="translate(285.281,11.8551) rotate(90)"><title>Signal 0.52</title><path d="M0 137.08 L11.34 137.08" class="st5"/></g><g id="shape10-24" transform="translate(239.927,11.8551) rotate(90)"><title>Signal 0.53</title><path d="M0 137.08 L11.34 137.08" class="st5"/></g><g id="shape11-27" transform="translate(194.572,11.8551) rotate(90)"><title>Signal 0.54</title><path d="M0 137.08 L11.34 137.08" class="st5"/></g><g id="shape12-30" transform="translate(149.218,11.8551) rotate(90)"><title>Signal 0.55</title><path d="M0 137.08 L11.34 137.08" class="st5"/></g><g id="shape13-33" transform="translate(512.053,11.8551) rotate(90)"><title>Signal 0.56</title><path d="M0 137.08 L11.34 137.08" class="st5"/></g><g id="shape14-36" transform="translate(12.1386,-85.5394)"><title>Sheet.14</title><path d="M0 137.08 L0 108.73" class="st4"/><path d="M362.83 137.08 L362.83 108.73" class="st4"/></g><g id="shape17-40" transform="translate(306.942,-113.886)"><title>Bit31.16</title><desc>5</desc><text x="3.44" y="133.81" class="st2">5</text></g><g id="shape20-42" transform="translate(159.613,-114.326)"><title>Bit31.24</title><desc>18</desc><text x="1.22" y="133.81" class="st2">18</text></g><g id="shape21-44" transform="translate(102.92,-114.326)"><title>Bit31.25</title><desc>23</desc><text x="1.22" y="133.81" class="st2">23</text></g><g id="group29-46" transform="translate(14.9732,-11.8386)"><title>Sheet.29</title><g id="shape30-47" transform="translate(11.3386,0)"><title>Rectangle No Fill No Fill.116</title><desc>res0</desc><rect x="0" y="125.741" width="22.6772" height="11.3386" class="st6"/><text x="3.07" y="133.81" class="st7">RES<tspan class="st8">0</tspan></text></g><g id="shape31-51"><title>Graphic.117</title><rect x="0" y="125.741" width="11.3386" height="11.3386" class="st1"/></g></g><g id="shape35-53" transform="translate(318.28,-85.7976)"><title>Graphic.50</title><path d="M0 108.73 L0 137.08 L0 108.73 Z" class="st9"/><path d="M0 108.73 L0 137.08" class="st10"/></g><g id="shape36-56" transform="translate(318.28,-113.886)"><title>Bit31.51</title><desc>4</desc><text x="3.44" y="133.81" class="st2">4</text></g><g id="shape39-58" transform="translate(114.186,-85.7941)"><title>Graphic.57</title><path d="M0 108.73 L0 137.08 L0 108.73 Z" class="st9"/><path d="M0 108.73 L0 137.08" class="st10"/></g><g id="shape40-61" transform="translate(125.597,-114.326)"><title>Bit31.58</title><desc>21</desc><text x="1.22" y="133.81" class="st2">21</text></g><g id="shape41-63" transform="translate(13.5921,-87.0008)"><title>Rectangle No Fill No Fill.33</title><desc>C</desc><rect x="0" y="109.678" width="31.1811" height="27.4016" class="st11"/><text x="2.7" y="125.78" class="st2">PRIbits</text></g><g id="shape43-66" transform="translate(136.863,-85.7941)"><title>Graphic.63</title><path d="M0 108.73 L0 137.08 L0 108.73 Z" class="st9"/><path d="M0 108.73 L0 137.08" class="st10"/></g><g id="shape45-69" transform="translate(136.935,-114.326)"><title>Bit31.65</title><desc>20</desc><text x="1.22" y="133.81" class="st2">20</text></g><g id="shape46-71" transform="translate(318.317,-86.0559)"><title>Rectangle No Fill No Fill.66</title><desc>C</desc><rect x="0" y="109.678" width="56.6929" height="27.4016" class="st11"/><text x="12.78" y="125.78" class="st2">ListRegs</text></g><g id="shape51-74" transform="translate(34.852,-114.402)"><title>Sheet.51</title><desc>29</desc><text x="1.22" y="133.81" class="st2">29</text></g><g id="shape52-76" transform="translate(46.1543,-85.7976)"><title>Graphic.52</title><path d="M0 108.73 L0 137.08 L0 108.73 Z" class="st9"/><path d="M0 108.73 L0 137.08" class="st10"/></g><g id="shape53-79" transform="translate(46.1906,-86.0559)"><title>Rectangle No Fill No Fill.53</title><desc>C</desc><rect x="0" y="109.678" width="34.0157" height="27.4016" class="st11"/><text x="2.56" y="125.78" class="st2">PREbits</text></g><g id="shape54-82" transform="translate(46.1906,-114.402)"><title>Sheet.54</title><desc>28</desc><text x="1.22" y="133.81" class="st2">28</text></g><g id="shape55-84" transform="translate(68.8677,-114.402)"><title>Bit31.55</title><desc>26</desc><text x="1.22" y="133.81" class="st2">26</text></g><g id="shape56-86" transform="translate(80.1701,-85.7976)"><title>Graphic.56</title><path d="M0 108.73 L0 137.08 L0 108.73 Z" class="st9"/><path d="M0 108.73 L0 137.08" class="st10"/></g><g id="shape57-89" transform="translate(80.2063,-114.402)"><title>Bit31.57</title><desc>25</desc><text x="1.22" y="133.81" class="st2">25</text></g><g id="shape42-91" transform="translate(81.6236,-86.0559)"><title>Rectangle No Fill No Fill.42</title><desc>C</desc><rect x="0" y="109.678" width="31.1811" height="27.4016" class="st11"/><text x="5.37" y="125.78" class="st2">IDbits</text></g><g id="shape58-94" transform="translate(114.222,-114.402)"><title>Sheet.58</title><desc>22</desc><text x="1.22" y="133.81" class="st2">22</text></g><g id="shape59-96" transform="translate(125.524,-85.7976)"><title>Graphic.59</title><path d="M0 108.73 L0 137.08 L0 108.73 Z" class="st9"/><path d="M0 108.73 L0 137.08" class="st10"/></g><g id="shape60-99" transform="translate(148.238,-114.402)"><title>Bit31.60</title><desc>19</desc><text x="1.22" y="133.81" class="st2">19</text></g><g id="shape61-101" transform="translate(148.202,-85.7941)"><title>Graphic.61</title><path d="M0 108.73 L0 137.08 L0 108.73 Z" class="st9"/><path d="M0 108.73 L0 137.08" class="st10"/></g><g id="shape62-104" transform="translate(159.54,-85.7941)"><title>Graphic.62</title><path d="M0 108.73 L0 137.08 L0 108.73 Z" class="st9"/><path d="M0 108.73 L0 137.08" class="st10"/></g><g id="shape1-107" transform="translate(165.246,-77.5519) scale(-1,1)"><title>Bit name 2</title><desc>TDS</desc><path d="M11.34 131.41 L11.34 137.08 L0 137.08" class="st12"/><text x="1" y="139.48" transform="scale(-1,1)" class="st2">TDS</text></g><g id="shape15-111" transform="translate(165.246,-66.2133) scale(-1,1)"><title>Bit name 2.15</title><desc>nV4</desc><path d="M22.68 120.07 L22.68 137.08 L0 137.08" class="st12"/><text x="1" y="139.48" transform="scale(-1,1)" class="st2">nV4</text></g><g id="shape16-115" transform="translate(165.246,-54.8748) scale(-1,1)"><title>Bit name 2.16</title><desc>A3V</desc><path d="M34.02 108.73 L34.02 137.08 L0 137.08" class="st12"/><text x="1" y="139.48" transform="scale(-1,1)" class="st2">A3V</text></g><g id="shape18-119" transform="translate(165.246,-43.5362) scale(-1,1)"><title>Bit name 2.18</title><desc>SEIS</desc><path d="M45.35 97.39 L45.35 137.08 L0 137.08" class="st12"/><text x="1" y="139.48" transform="scale(-1,1)" class="st2">SEIS</text></g></g></svg>