<?xml version="1.0" encoding="UTF-8" standalone="no"?><!-- Fixed up by svgfix.xsl 1.4  --><!-- Generated by Microsoft Visio 11.0, SVG Export, v1.0 trcauthstatus_bit_assignments.svg ARM -->
<!DOCTYPE svg
  PUBLIC "-//W3C//DTD SVG 1.0//EN" "http://www.w3.org/TR/2001/REC-SVG-20010904/DTD/svg10.dtd">
<svg xmlns:xlink="http://www.w3.org/1999/xlink" xmlns="http://www.w3.org/2000/svg" xmlns:ev="http://www.w3.org/2001/xml-events" width="516.149" height="156.802" viewBox="0 0 387.112 117.601" xml:space="preserve" color-interpolation-filters="sRGB" class="st13" preserveAspectRatio="xMidYMid meet" zoomAndPan="magnify" version="1.0" contentScriptType="text/ecmascript" contentStyleType="text/css"><style type="text/css" xml:space="preserve"><![CDATA[
	
		.st1 {fill:#ffffff;stroke:none;stroke-linecap:round;stroke-linejoin:round;stroke-width:0.2px}
		.st2 {fill:#eed9b3;stroke:none;stroke-linecap:round;stroke-linejoin:round;stroke-width:0.2px}
		.st3 {fill:#000000;font-family:Arial,Helvetica,sans-serif;font-size:0.666664em}
		.st4 {fill:#ffffff;visibility:hidden}
		.st5 {stroke:#000000;stroke-linecap:butt;stroke-width:0.8px}
		.st6 {stroke:#000000;stroke-dasharray:0.25,1;stroke-linecap:butt;stroke-width:0.25px}
		.st7 {fill:none;stroke:none;stroke-linecap:butt;stroke-width:0.5px}
		.st8 {stroke:#000000;stroke-linecap:butt;stroke-width:0.5px}
		.st9 {fill:none;stroke:none;stroke-linecap:butt;stroke-width:0.499999px}
		.st10 {fill:#000000;font-family:Arial,Helvetica,sans-serif;font-size:0.533318em}
		.st11 {font-size:1.25003em}
		.st12 {fill:#eed9b3;stroke:none;stroke-linecap:round;stroke-linejoin:round;stroke-width:0.2px}
		.st13 {fill:none;fill-rule:evenodd;font-size:12px;overflow:visible;stroke-linecap:square;stroke-miterlimit:3}]]></style><g xmlns:v="http://schemas.microsoft.com/visio/2003/SVGExtensions/"><title content="structured text">ARM</title><g id="shape1-1" transform="translate(284.265,-66.3276)"><title content="structured text">Sheet.1</title><rect x="0" y="89.2547" width="22.6772" height="28.3465" class="st1"/></g><g id="shape2-3" transform="translate(306.942,-66.3276)"><title content="structured text">Sheet.2</title><rect x="0" y="89.2547" width="22.6772" height="28.3465" class="st1"/></g><g id="shape3-5" transform="translate(329.619,-66.3276)"><title content="structured text">Sheet.3</title><rect x="0" y="89.2547" width="22.6772" height="28.3465" class="st1"/></g><g id="shape4-7" transform="translate(352.296,-66.3276)"><title content="structured text">Sheet.4</title><rect x="0" y="89.2547" width="22.6772" height="28.3465" class="st1"/></g><g id="shape5-9" transform="translate(12.1386,-66.3276)"><title content="structured text">Sheet.5</title><rect x="0" y="89.2547" width="272.126" height="28.3465" class="st2"/></g><g id="shape6-11" transform="translate(12.1386,-94.674)"><title content="structured text">Sheet.6</title><desc content="structured text">31</desc><text x="1.22" y="114.33" class="st3">31</text></g><g id="shape7-13" transform="translate(352.296,-94.674)"><title content="structured text">Sheet.7</title><desc content="structured text">1</desc><text x="3.44" y="114.33" class="st3">1</text></g><g id="shape8-15" transform="translate(363.635,-94.674)"><title content="structured text">Sheet.8</title><desc content="structured text">0</desc><text x="3.44" y="114.33" class="st3">0</text></g><g id="shape9-17" transform="translate(12.1386,-66.3276)"><title content="structured text">Sheet.9</title><rect x="0" y="89.2547" width="362.835" height="28.3465" class="st4"/><rect x="0" y="89.2547" width="362.835" height="28.3465" class="st5"/></g><g id="shape10-20" transform="translate(447.22,11.5886) rotate(90)"><title content="structured text">Signal 0</title><path d="M0 117.6 L11.34 117.6" class="st6"/></g><g id="shape11-23" transform="translate(401.866,11.5886) rotate(90)"><title content="structured text">Signal 0.102</title><path d="M0 117.6 L11.34 117.6" class="st6"/></g><g id="shape12-26" transform="translate(356.511,11.5886) rotate(90)"><title content="structured text">Signal 0.103</title><path d="M0 117.6 L11.34 117.6" class="st6"/></g><g id="shape13-29" transform="translate(311.157,11.5886) rotate(90)"><title content="structured text">Signal 0.104</title><path d="M0 117.6 L11.34 117.6" class="st6"/></g><g id="shape14-32" transform="translate(265.803,11.5886) rotate(90)"><title content="structured text">Signal 0.105</title><path d="M0 117.6 L11.34 117.6" class="st6"/></g><g id="shape15-35" transform="translate(220.448,11.5886) rotate(90)"><title content="structured text">Signal 0.106</title><path d="M0 117.6 L11.34 117.6" class="st6"/></g><g id="shape16-38" transform="translate(175.094,11.5886) rotate(90)"><title content="structured text">Signal 0.107</title><path d="M0 117.6 L11.34 117.6" class="st6"/></g><g id="shape17-41" transform="translate(129.74,11.5886) rotate(90)"><title content="structured text">Signal 0.108</title><path d="M0 117.6 L11.34 117.6" class="st6"/></g><g id="shape18-44" transform="translate(492.574,11.5886) rotate(90)"><title content="structured text">Signal 0.109</title><path d="M0 117.6 L11.34 117.6" class="st6"/></g><g id="shape19-47" transform="translate(241.745,-46.485)"><title content="structured text">Sheet.19</title><desc content="structured text">SNID</desc><rect x="0" y="106.263" width="42.5197" height="11.3386" class="st7"/><text x="22.41" y="114.33" class="st3">SNID</text></g><g id="shape20-50" transform="translate(318.28,-63.4929)"><title content="structured text">Dynamic connector.10</title><path d="M0 117.6 L0 140.28 L-34.02 140.28" class="st8"/></g><g id="shape21-53" transform="translate(340.957,-94.674)"><title content="structured text">Sheet.21</title><desc content="structured text">2</desc><text x="3.44" y="114.33" class="st3">2</text></g><g id="shape22-55" transform="translate(352.296,-66.3276)"><title content="structured text">Sheet.22</title><path d="M0 89.25 L0 117.6" class="st5"/></g><g id="shape23-58" transform="translate(297.02,-64.9102)"><title content="structured text">Dynamic connector.111</title><path d="M-1.42 119.02 L-1.42 130.36 L-12.76 130.36" class="st8"/></g><g id="shape24-61" transform="translate(241.745,-35.1465)"><title content="structured text">Sheet.24</title><desc content="structured text">SID</desc><rect x="0" y="106.263" width="42.5197" height="11.3386" class="st7"/><text x="28.18" y="114.33" class="st3">SID</text></g><g id="shape25-64" transform="translate(318.28,-94.674)"><title content="structured text">Sheet.25</title><desc content="structured text">4</desc><text x="3.44" y="114.33" class="st3">4</text></g><g id="shape26-66" transform="translate(329.619,-94.674)"><title content="structured text">Sheet.26</title><desc content="structured text">3</desc><text x="3.44" y="114.33" class="st3">3</text></g><g id="shape27-68" transform="translate(306.942,-94.674)"><title content="structured text">Sheet.27</title><desc content="structured text">5</desc><text x="3.44" y="114.33" class="st3">5</text></g><g id="shape28-70" transform="translate(284.265,-94.674)"><title content="structured text">Sheet.28</title><desc content="structured text">7</desc><text x="3.44" y="114.33" class="st3">7</text></g><g id="shape29-72" transform="translate(295.603,-94.674)"><title content="structured text">Sheet.29</title><desc content="structured text">6</desc><text x="3.44" y="114.33" class="st3">6</text></g><g id="shape30-74" transform="translate(272.926,-94.674)"><title content="structured text">Sheet.30</title><desc content="structured text">8</desc><text x="3.44" y="114.33" class="st3">8</text></g><g id="shape31-76" transform="translate(284.265,-66.3276)"><title content="structured text">Sheet.31</title><path d="M0 89.25 L0 117.6" class="st5"/></g><g id="shape32-79" transform="translate(306.942,-66.3276)"><title content="structured text">Sheet.32</title><path d="M0 89.25 L0 117.6" class="st5"/></g><g id="shape33-82" transform="translate(329.619,-66.3276)"><title content="structured text">Sheet.33</title><path d="M0 89.25 L0 117.6" class="st5"/></g><g id="shape34-85" transform="translate(340.957,-63.4929)"><title content="structured text">Dynamic connector.67</title><path d="M0 117.6 L0 151.62 L-56.69 151.62" class="st8"/></g><g id="shape35-88" transform="translate(363.635,-63.4929)"><title content="structured text">Dynamic connector.68</title><path d="M0 117.6 L0 162.96 L-79.37 162.96" class="st8"/></g><g id="shape36-91" transform="translate(241.745,-23.8079)"><title content="structured text">Sheet.36</title><desc content="structured text">NSNID</desc><rect x="0" y="106.263" width="42.5197" height="11.3386" class="st7"/><text x="16.63" y="114.33" class="st3">NSNID</text></g><g id="shape37-94" transform="translate(241.745,-12.4693)"><title content="structured text">Sheet.37</title><desc content="structured text">NSID</desc><rect x="0" y="106.263" width="42.5197" height="11.3386" class="st7"/><text x="22.41" y="114.33" class="st3">NSID</text></g><g id="shape38-97" transform="translate(22.5786,-43.6504)"><title content="structured text">Rectangle No Fill No Fill.116</title><desc content="structured text">res0</desc><rect x="0" y="106.263" width="19.8425" height="11.3386" class="st9"/><text x="1.24" y="114.33" class="st10">RES<tspan class="st11">0</tspan></text></g><g id="shape39-101" transform="translate(12.1386,-43.6504)"><title content="structured text">Graphic.117</title><rect x="0" y="106.263" width="10.44" height="11.3386" class="st12"/></g></g></svg>