<?xml version="1.0" encoding="UTF-8" standalone="no"?><!-- Fixed up by svgfix.xsl 1.4  --><!-- Generated by Microsoft Visio 11.0, SVG Export, v1.0 ID_AA64DFR0_EL1.svg Page-1 -->
<!DOCTYPE svg
  PUBLIC "-//W3C//DTD SVG 1.0//EN" "http://www.w3.org/TR/2001/REC-SVG-20010904/DTD/svg10.dtd">
<svg xmlns:xlink="http://www.w3.org/1999/xlink" xmlns="http://www.w3.org/2000/svg" width="606.857" height="99.268" viewBox="0 0 455.143 74.451" xml:space="preserve" color-interpolation-filters="sRGB" class="st8" preserveAspectRatio="xMidYMid meet" zoomAndPan="magnify" version="1.0" contentScriptType="text/ecmascript" contentStyleType="text/css"><style type="text/css" xml:space="preserve"><![CDATA[
	
		.st1 {fill:#eed9b3;stroke:none;stroke-linecap:round;stroke-linejoin:round;stroke-width:0.2px}
		.st2 {fill:#000000;font-family:Arial,Helvetica,sans-serif;font-size:0.666664em}
		.st3 {fill:#ffffff;visibility:hidden}
		.st4 {stroke:#000000;stroke-linecap:butt;stroke-width:0.8px}
		.st5 {stroke:#000000;stroke-dasharray:0.25,1;stroke-linecap:butt;stroke-width:0.25px}
		.st6 {fill:none;stroke:none;stroke-linecap:round;stroke-linejoin:round;stroke-width:0.2px}
		.st7 {font-size:1em}
		.st8 {fill:none;fill-rule:evenodd;font-size:12px;overflow:visible;stroke-linecap:square;stroke-miterlimit:3}
		.st9 {fill:#ffffff;stroke:none;stroke-linecap:butt;stroke-width:0.5px}
		.st10 {stroke:#000000;stroke-linecap:butt;stroke-width:0.5px}
		.st11 {fill:none;stroke:none;stroke-linecap:butt;stroke-width:0.499999px}
		.st12 {fill:#000000;font-family:Arial,Helvetica,sans-serif;font-size:0.533318em}
		.st13 {font-size:1.25003em}
		.st14 {fill:#eed9b3;stroke:none;stroke-linecap:round;stroke-linejoin:round;stroke-width:0.2px}]]></style><defs xmlns:v="http://schemas.microsoft.com/visio/2003/SVGExtensions/" id="Masters"><symbol id="master4" class="st8" preserveAspectRatio="xMidYMid meet"><title content="structured text">Master.4</title><g id="group89-116"><title content="structured text">Sheet.89</title><g id="group90-117" transform="translate(0,-28.3465)"><title content="structured text">Sheet.90</title><g id="master-shape91-118" transform="translate(0.566929,4.26326E-014)"><title content="structured text">Sheet.91</title><rect x="0" y="68.7815" width="1.88976" height="5.66929" class="st9"/></g><g id="master-shape92-120" transform="translate(75.8667,80.9535) rotate(99.4623)"><title content="structured text">Sheet.92</title><path d="M0 74.04 C0.15 74.24 0.72 74.41 1.15 74.45 C1.58 74.48 1.86 74.37 2.34 74.13 C2.63 73.99 2.98 73.81           3.29 73.69 C4.56 73.18 5.03 73.74 5.75 74.04" class="st10"/></g><g id="master-shape93-123" transform="translate(73.977,80.9535) rotate(99.4623)"><title content="structured text">Sheet.93</title><path d="M0 74.04 C0.15 74.24 0.72 74.41 1.15 74.45 C1.58 74.48 1.86 74.37 2.34 74.13 C2.63 73.99 2.98 73.81           3.29 73.69 C4.56 73.18 5.03 73.74 5.75 74.04" class="st10"/></g></g><g id="group94-126"><title content="structured text">Sheet.94</title><g id="master-shape95-127" transform="translate(0.566929,4.26326E-014)"><title content="structured text">Sheet.95</title><rect x="0" y="68.7815" width="1.88976" height="5.66929" class="st9"/></g><g id="master-shape96-129" transform="translate(75.8667,80.9535) rotate(99.4623)"><title content="structured text">Sheet.96</title><path d="M0 74.04 C0.15 74.24 0.72 74.41 1.15 74.45 C1.58 74.48 1.86 74.37 2.34 74.13 C2.63 73.99 2.98 73.81           3.29 73.69 C4.56 73.18 5.03 73.74 5.75 74.04" class="st10"/></g><g id="master-shape97-132" transform="translate(73.977,80.9535) rotate(99.4623)"><title content="structured text">Sheet.97</title><path d="M0 74.04 C0.15 74.24 0.72 74.41 1.15 74.45 C1.58 74.48 1.86 74.37 2.34 74.13 C2.63 73.99 2.98 73.81           3.29 73.69 C4.56 73.18 5.03 73.74 5.75 74.04" class="st10"/></g></g></g></symbol></defs><g xmlns:v="http://schemas.microsoft.com/visio/2003/SVGExtensions/"><title content="structured text">Page-1</title><g id="shape77-1" transform="translate(227.572,-34.5157)"><title content="structured text">64-bit register.77</title><rect x="0" y="46.1043" width="45.3543" height="28.3465" class="st1"/></g><g id="shape76-3" transform="translate(136.863,-34.5157)"><title content="structured text">64-bit register.76</title><rect x="0" y="46.1043" width="45.3543" height="28.3465" class="st1"/></g><g id="shape88-5" transform="translate(0.8,-34.5157)"><title content="structured text">64-bit register.88</title><rect x="0" y="46.1043" width="90.7087" height="28.3465" class="st1"/></g><g id="shape21-7" transform="translate(397.65,-62.8622)"><title content="structured text">64-bit register.35</title><desc content="structured text">4</desc><text x="3.44" y="71.18" class="st2">4</text></g><g id="shape35-9" transform="translate(408.989,-62.8622)"><title content="structured text">64-bit register.209</title><desc content="structured text">3</desc><text x="3.44" y="71.18" class="st2">3</text></g><g id="shape36-11" transform="translate(352.296,-62.8622)"><title content="structured text">64-bit register.210</title><desc content="structured text">8</desc><text x="3.44" y="71.18" class="st2">8</text></g><g id="shape37-13" transform="translate(363.635,-62.8622)"><title content="structured text">64-bit register.211</title><desc content="structured text">7</desc><text x="3.44" y="71.18" class="st2">7</text></g><g id="shape38-15" transform="translate(306.942,-62.8622)"><title content="structured text">64-bit register.212</title><desc content="structured text">12</desc><text x="1.22" y="71.18" class="st2">12</text></g><g id="shape39-17" transform="translate(318.28,-62.8622)"><title content="structured text">64-bit register.213</title><desc content="structured text">11</desc><text x="1.22" y="71.18" class="st2">11</text></g><g id="shape40-19" transform="translate(261.587,-62.8622)"><title content="structured text">64-bit register.214</title><desc content="structured text">16</desc><text x="1.22" y="71.18" class="st2">16</text></g><g id="shape41-21" transform="translate(272.926,-62.8622)"><title content="structured text">64-bit register.215</title><desc content="structured text">15</desc><text x="1.22" y="71.18" class="st2">15</text></g><g id="shape52-23" transform="translate(216.233,-62.8622)"><title content="structured text">64-bit register.232</title><desc content="structured text">20</desc><text x="1.22" y="71.18" class="st2">20</text></g><g id="shape53-25" transform="translate(227.572,-62.8622)"><title content="structured text">64-bit register.233</title><desc content="structured text">19</desc><text x="1.22" y="71.18" class="st2">19</text></g><g id="shape54-27" transform="translate(170.879,-62.8622)"><title content="structured text">64-bit register.234</title><desc content="structured text">24</desc><text x="1.22" y="71.18" class="st2">24</text></g><g id="shape55-29" transform="translate(182.217,-62.8622)"><title content="structured text">64-bit register.235</title><desc content="structured text">23</desc><text x="1.22" y="71.18" class="st2">23</text></g><g id="shape56-31" transform="translate(125.524,-62.8622)"><title content="structured text">64-bit register.236</title><desc content="structured text">28</desc><text x="1.22" y="71.18" class="st2">28</text></g><g id="shape57-33" transform="translate(136.863,-62.8622)"><title content="structured text">64-bit register.237</title><desc content="structured text">27</desc><text x="1.22" y="71.18" class="st2">27</text></g><g id="group58-35" transform="translate(0.8,-34.5157)"><title content="structured text">64-bit register.0</title><g id="shape59-36"><title content="structured text">64-bit register</title><rect x="0" y="46.1043" width="453.543" height="28.3465" class="st3"/><rect x="0" y="46.1043" width="453.543" height="28.3465" class="st4"/></g><g id="shape60-39" transform="translate(527.994,34.7657) rotate(90)"><title content="structured text">Signal 0.109</title><path d="M0 74.45 L11.34 74.45" class="st5"/></g><g id="shape61-42" transform="translate(482.64,34.7657) rotate(90)"><title content="structured text">Signal 0.80</title><path d="M0 74.45 L11.34 74.45" class="st5"/></g><g id="shape62-45" transform="translate(346.577,34.7657) rotate(90)"><title content="structured text">Signal 0.81</title><path d="M0 74.45 L11.34 74.45" class="st5"/></g><g id="shape63-48" transform="translate(255.868,34.7657) rotate(90)"><title content="structured text">Signal 0.82</title><path d="M0 74.45 L11.34 74.45" class="st5"/></g><g id="shape64-51" transform="translate(301.222,34.7657) rotate(90)"><title content="structured text">Signal 0.83</title><path d="M0 74.45 L11.34 74.45" class="st5"/></g><g id="shape65-54" transform="translate(210.514,34.7657) rotate(90)"><title content="structured text">Signal 0.84</title><path d="M0 74.45 L11.34 74.45" class="st5"/></g><g id="shape66-57" transform="translate(165.159,34.7657) rotate(90)"><title content="structured text">Signal 0.85</title><path d="M0 74.45 L11.34 74.45" class="st5"/></g><g id="shape68-60" transform="translate(74.4508,34.7657) rotate(90)"><title content="structured text">Signal 0.87</title><path d="M0 74.45 L11.34 74.45" class="st5"/></g><g id="shape71-63" transform="translate(442.205,-28.3465)"><title content="structured text">Bit01.2</title><desc content="structured text">0</desc><text x="3.44" y="71.18" class="st2">0</text></g><g id="shape72-65" transform="translate(3.9968E-014,-28.3465)"><title content="structured text">Bit01.88</title><desc content="structured text">63</desc><text x="1.22" y="71.18" class="st2">63</text></g><g id="shape75-67" transform="translate(391.931,34.7657) rotate(90)"><title content="structured text">Signal 0.91</title><path d="M0 74.45 L11.34 74.45" class="st5"/></g></g><g id="shape78-70" transform="translate(408.989,-34.5157)"><title content="structured text">64-bit register.78</title><desc content="structured text">DebugVer</desc><rect x="0" y="46.1043" width="45.3543" height="28.3465" class="st6"/><text x="4.67" y="62.68" class="st2">Debug<tspan class="st7">Ver</tspan></text></g><g id="shape79-74" transform="translate(363.635,-34.5157)"><title content="structured text">64-bit register.79</title><desc content="structured text">TraceVer</desc><rect x="0" y="46.1043" width="45.3543" height="28.3465" class="st6"/><text x="6.23" y="62.68" class="st2">Trace<tspan class="st7">V</tspan>er</text></g><g id="shape80-78" transform="translate(318.28,-34.5157)"><title content="structured text">64-bit register.80</title><desc content="structured text">PMUVer</desc><rect x="0" y="46.1043" width="45.3543" height="28.3465" class="st6"/><text x="7.56" y="62.68" class="st2">PMU<tspan class="st7">V</tspan>er</text></g><g id="shape81-82" transform="translate(272.926,-34.5157)"><title content="structured text">64-bit register.81</title><desc content="structured text">BRPs</desc><rect x="0" y="46.1043" width="45.3543" height="28.3465" class="st6"/><text x="12.45" y="62.68" class="st2">BRPs</text></g><g id="shape82-85" transform="translate(182.217,-34.5157)"><title content="structured text">64-bit register.82</title><desc content="structured text">WRPs</desc><rect x="0" y="46.1043" width="45.3543" height="28.3465" class="st6"/><text x="11.35" y="62.68" class="st2">WRPs</text></g><g id="shape83-88" transform="translate(91.5087,-34.5157)"><title content="structured text">64-bit register.83</title><desc content="structured text">CTX_CMPs</desc><rect x="0" y="46.1043" width="45.3543" height="28.3465" class="st6"/><text x="1.56" y="62.68" class="st2">CTX_CMPs</text></g><g id="shape84-91" transform="translate(408.989,-34.5157)"><title content="structured text">64-bit register.84</title><path d="M0 46.1 L0 74.45" class="st4"/></g><g id="shape85-94" transform="translate(363.635,-34.5157)"><title content="structured text">64-bit register.85</title><path d="M0 46.1 L0 74.45" class="st4"/></g><g id="shape86-97" transform="translate(318.263,-34.5157)"><title content="structured text">64-bit register.86</title><path d="M0 46.1 L0 74.45" class="st4"/></g><g id="shape87-100" transform="translate(272.926,-34.5157)"><title content="structured text">64-bit register.87</title><path d="M0 46.1 L0 74.45" class="st4"/></g><g id="shape69-103" transform="translate(136.863,-34.5157)"><title content="structured text">64-bit register.69</title><path d="M0 46.1 L0 74.45" class="st4"/></g><g id="shape70-106" transform="translate(182.217,-34.5157)"><title content="structured text">64-bit register.70</title><path d="M0 46.1 L0 74.45" class="st4"/></g><g id="shape73-109" transform="translate(227.572,-34.5157)"><title content="structured text">64-bit register.73</title><path d="M0 46.1 L0 74.45" class="st4"/></g><g id="shape74-112" transform="translate(91.5087,-34.5157)"><title content="structured text">64-bit register.74</title><path d="M0 46.1 L0 74.45" class="st4"/></g><use id="shape89-115" xlink:href="#master4" transform="translate(44.737,-31.6811)" xlink:type="simple" xlink:show="embed" xlink:actuate="onLoad"><title content="structured text">Sheet.89</title></use><g id="shape1-135" transform="translate(438.085,0.25) rotate(90)"><title content="structured text">Signal 0.80</title><path d="M0 74.45 L11.34 74.45" class="st5"/></g><g id="shape98-138" transform="translate(80.1701,-62.8622)"><title content="structured text">64-bit register.98</title><desc content="structured text">32</desc><text x="1.22" y="71.18" class="st2">32</text></g><g id="shape99-140" transform="translate(91.5087,-62.8622)"><title content="structured text">64-bit register.99</title><desc content="structured text">31</desc><text x="1.22" y="71.18" class="st2">31</text></g><g id="shape100-142" transform="translate(143.282,0.25) rotate(90)"><title content="structured text">Signal 0.85</title><path d="M0 74.45 L11.34 74.45" class="st5"/></g><g id="shape101-145" transform="translate(97.928,0.25) rotate(90)"><title content="structured text">Signal 0.101</title><path d="M0 74.45 L11.34 74.45" class="st5"/></g><g id="shape102-148" transform="translate(120.605,0.25) rotate(90)"><title content="structured text">Signal 0.102</title><path d="M0 74.45 L11.34 74.45" class="st5"/></g><g id="group105-151" transform="translate(0.8,-0.499999)"><title content="structured text">Sheet.105</title><g id="shape106-152" transform="translate(11.3386,0)"><title content="structured text">Rectangle No Fill No Fill.116</title><desc content="structured text">res0</desc><rect x="0" y="63.1122" width="22.6772" height="11.3386" class="st11"/><text x="3.07" y="71.18" class="st12">RES<tspan class="st13">0</tspan></text></g><g id="shape107-156"><title content="structured text">Graphic.117</title><rect x="0" y="63.1122" width="11.3386" height="11.3386" class="st14"/></g></g></g></svg>