<?xml version="1.0" encoding="UTF-8" standalone="no"?><!-- Fixed up by svgfix.xsl 1.4  --><!-- Generated by Microsoft Visio 11.0, SVG Export, v1.0 id_mmfr3_el1_bit_assignments_LowRes.svg ARM -->
<!DOCTYPE svg
  PUBLIC "-//W3C//DTD SVG 1.0//EN" "http://www.w3.org/TR/2001/REC-SVG-20010904/DTD/svg10.dtd">
<svg xmlns:xlink="http://www.w3.org/1999/xlink" xmlns="http://www.w3.org/2000/svg" xmlns:ev="http://www.w3.org/2001/xml-events" width="516.149" height="84.55" viewBox="0 0 387.112 63.412" xml:space="preserve" color-interpolation-filters="sRGB" class="st6" preserveAspectRatio="xMidYMid meet" zoomAndPan="magnify" version="1.0" contentScriptType="text/ecmascript" contentStyleType="text/css"><style type="text/css" xml:space="preserve"><![CDATA[
	
		.st1 {fill:#000000;font-family:Arial,Helvetica,sans-serif;font-size:0.666664em}
		.st2 {fill:none;visibility:hidden}
		.st3 {stroke:#000000;stroke-linecap:butt;stroke-width:0.8px}
		.st4 {stroke:#000000;stroke-dasharray:0.25,0.5;stroke-linecap:butt;stroke-width:0.25px}
		.st5 {fill:none;stroke:none;stroke-linecap:round;stroke-linejoin:round;stroke-width:0.2px}
		.st6 {fill:none;fill-rule:evenodd;font-size:12px;overflow:visible;stroke-linecap:square;stroke-miterlimit:3}]]></style><g xmlns:v="http://schemas.microsoft.com/visio/2003/SVGExtensions/"><title content="structured text">ARM</title><g id="shape1-1" transform="translate(12.1386,-40.485)"><title content="structured text">Sheet.1</title><desc content="structured text">31</desc><text x="1.22" y="60.14" class="st1">31</text></g><g id="shape2-3" transform="translate(227.572,-40.485)"><title content="structured text">Sheet.2</title><desc content="structured text">12</desc><text x="1.22" y="60.14" class="st1">12</text></g><g id="shape3-5" transform="translate(238.91,-40.485)"><title content="structured text">Sheet.3</title><desc content="structured text">11</desc><text x="1.22" y="60.14" class="st1">11</text></g><g id="shape4-7" transform="translate(272.926,-40.485)"><title content="structured text">Sheet.4</title><desc content="structured text">8</desc><text x="3.44" y="60.14" class="st1">8</text></g><g id="shape5-9" transform="translate(284.265,-40.485)"><title content="structured text">Sheet.5</title><desc content="structured text">7</desc><text x="3.44" y="60.14" class="st1">7</text></g><g id="shape6-11" transform="translate(363.635,-40.485)"><title content="structured text">Sheet.6</title><desc content="structured text">0</desc><text x="3.44" y="60.14" class="st1">0</text></g><g id="shape8-13" transform="translate(12.1386,-12.1386)"><title content="structured text">Sheet.8</title><rect x="0" y="35.0657" width="362.835" height="28.3465" class="st2"/><rect x="0" y="35.0657" width="362.835" height="28.3465" class="st3"/></g><g id="shape9-16" transform="translate(238.556,-12.1386)"><title content="structured text">Sheet.9</title><path d="M0 35.07 L0 63.41" class="st3"/></g><g id="shape10-19" transform="translate(283.91,-12.1386)"><title content="structured text">Sheet.10</title><path d="M0 35.07 L0 63.41" class="st3"/></g><g id="shape11-22" transform="translate(392.677,11.5886) rotate(90)"><title content="structured text">Signal 0</title><path d="M0 63.41 L11.34 63.41" class="st4"/></g><g id="shape12-25" transform="translate(347.677,11.5886) rotate(90)"><title content="structured text">Signal 0.102</title><path d="M0 63.41 L11.34 63.41" class="st4"/></g><g id="shape13-28" transform="translate(302.322,11.5886) rotate(90)"><title content="structured text">Signal 0.103</title><path d="M0 63.41 L11.34 63.41" class="st4"/></g><g id="shape14-31" transform="translate(256.968,11.5886) rotate(90)"><title content="structured text">Signal 0.104</title><path d="M0 63.41 L11.34 63.41" class="st4"/></g><g id="shape15-34" transform="translate(211.614,11.5886) rotate(90)"><title content="structured text">Signal 0.105</title><path d="M0 63.41 L11.34 63.41" class="st4"/></g><g id="shape16-37" transform="translate(166.259,11.5886) rotate(90)"><title content="structured text">Signal 0.106</title><path d="M0 63.41 L11.34 63.41" class="st4"/></g><g id="shape17-40" transform="translate(120.905,11.5886) rotate(90)"><title content="structured text">Signal 0.107</title><path d="M0 63.41 L11.34 63.41" class="st4"/></g><g id="shape18-43" transform="translate(75.5508,11.5886) rotate(90)"><title content="structured text">Signal 0.108</title><path d="M0 63.41 L11.34 63.41" class="st4"/></g><g id="shape19-46" transform="translate(438.385,11.5886) rotate(90)"><title content="structured text">Signal 0.109</title><path d="M0 63.41 L11.34 63.41" class="st4"/></g><g id="shape20-49" transform="translate(318.28,-40.485)"><title content="structured text">32-bit register.215</title><desc content="structured text">4</desc><text x="3.44" y="60.14" class="st1">4</text></g><g id="shape21-51" transform="translate(329.619,-40.485)"><title content="structured text">32-bit register.216</title><desc content="structured text">3</desc><text x="3.44" y="60.14" class="st1">3</text></g><g id="shape22-53" transform="translate(329.265,-12.1386)"><title content="structured text">Sheet.22</title><path d="M0 35.07 L0 63.41" class="st3"/></g><g id="shape26-56" transform="translate(46.1543,-40.485)"><title content="structured text">32-bit register.323</title><desc content="structured text">28</desc><text x="1.22" y="60.14" class="st1">28</text></g><g id="shape27-58" transform="translate(57.1386,-12.1386)"><title content="structured text">32-bit register.324</title><path d="M0 35.07 L0 63.41" class="st3"/></g><g id="shape28-61" transform="translate(57.4929,-40.485)"><title content="structured text">32-bit register.325</title><desc content="structured text">27</desc><text x="1.22" y="60.14" class="st1">27</text></g><g id="shape29-63" transform="translate(91.5087,-40.485)"><title content="structured text">32-bit register.326</title><desc content="structured text">24</desc><text x="1.22" y="60.14" class="st1">24</text></g><g id="shape30-65" transform="translate(102.493,-12.1386)"><title content="structured text">32-bit register.327</title><path d="M0 35.07 L0 63.41" class="st3"/></g><g id="shape31-68" transform="translate(102.493,-40.485)"><title content="structured text">32-bit register.328</title><desc content="structured text">23</desc><text x="1.22" y="60.14" class="st1">23</text></g><g id="shape32-70" transform="translate(136.863,-40.485)"><title content="structured text">32-bit register.329</title><desc content="structured text">20</desc><text x="1.22" y="60.14" class="st1">20</text></g><g id="shape33-72" transform="translate(147.847,-12.1386)"><title content="structured text">32-bit register.330</title><path d="M0 35.07 L0 63.41" class="st3"/></g><g id="shape34-75" transform="translate(148.202,-40.485)"><title content="structured text">32-bit register.331</title><desc content="structured text">19</desc><text x="1.22" y="60.14" class="st1">19</text></g><g id="shape35-77" transform="translate(182.217,-40.485)"><title content="structured text">32-bit register.332</title><desc content="structured text">16</desc><text x="1.22" y="60.14" class="st1">16</text></g><g id="shape36-79" transform="translate(193.202,-12.1386)"><title content="structured text">32-bit register.333</title><path d="M0 35.07 L0 63.41" class="st3"/></g><g id="shape37-82" transform="translate(193.556,-40.485)"><title content="structured text">32-bit register.334</title><desc content="structured text">15</desc><text x="1.22" y="60.14" class="st1">15</text></g><g id="shape45-84" transform="translate(148.202,-12.1386)"><title content="structured text">Sheet.45</title><desc content="structured text">PAN</desc><rect x="0" y="35.0657" width="45.3543" height="28.3465" class="st5"/><text x="14.45" y="51.64" class="st1">PAN</text></g><g id="shape50-87" transform="translate(102.847,-12.1386)"><title content="structured text">Sheet.50</title><desc content="structured text">CohWalk</desc><rect x="0" y="35.0657" width="45.3543" height="28.3465" class="st5"/><text x="6.45" y="51.64" class="st1">CohWalk</text></g><g id="shape51-90" transform="translate(57.4929,-12.1386)"><title content="structured text">Sheet.51</title><desc content="structured text">CMemSz</desc><rect x="0" y="35.0657" width="45.3543" height="28.3465" class="st5"/><text x="6.23" y="51.64" class="st1">CMemSz</text></g><g id="shape52-93" transform="translate(12.1386,-12.1386)"><title content="structured text">Sheet.52</title><desc content="structured text">Supersec</desc><rect x="0" y="35.0657" width="45.3543" height="28.3465" class="st5"/><text x="5.78" y="51.64" class="st1">Supersec</text></g><g id="shape53-96" transform="translate(193.556,-12.1386)"><title content="structured text">Sheet.53</title><desc content="structured text">MaintBcst</desc><rect x="0" y="35.0657" width="45.3543" height="28.3465" class="st5"/><text x="5.12" y="51.64" class="st1">MaintBcst</text></g><g id="shape54-99" transform="translate(238.91,-12.1386)"><title content="structured text">Sheet.54</title><desc content="structured text">BPMaint</desc><rect x="0" y="35.0657" width="45.3543" height="28.3465" class="st5"/><text x="7.56" y="51.64" class="st1">BPMaint</text></g><g id="shape55-102" transform="translate(284.265,-12.1386)"><title content="structured text">Sheet.55</title><desc content="structured text">CMaintSW</desc><rect x="0" y="35.0657" width="45.3543" height="28.3465" class="st5"/><text x="3.56" y="51.64" class="st1">CMaintSW</text></g><g id="shape56-105" transform="translate(329.619,-12.1386)"><title content="structured text">Sheet.56</title><desc content="structured text">CMaintVA</desc><rect x="0" y="35.0657" width="45.3543" height="28.3465" class="st5"/><text x="4.67" y="51.64" class="st1">CMaintVA</text></g></g></svg>