<?xml version="1.0" encoding="UTF-8" standalone="no"?><!-- Fixed up by svgfix.xsl 1.4  --><!-- Generated by Microsoft Visio 11.0, SVG Export, v1.0 trceventctl0r_bit_assignments.svg ARM -->
<!DOCTYPE svg
  PUBLIC "-//W3C//DTD SVG 1.0//EN" "http://www.w3.org/TR/2001/REC-SVG-20010904/DTD/svg10.dtd">
<svg xmlns:xlink="http://www.w3.org/1999/xlink" xmlns="http://www.w3.org/2000/svg" xmlns:ev="http://www.w3.org/2001/xml-events" width="530.411" height="125.724" viewBox="0 0 397.808 94.293" xml:space="preserve" color-interpolation-filters="sRGB" class="st14" preserveAspectRatio="xMidYMid meet" zoomAndPan="magnify" version="1.0" contentScriptType="text/ecmascript" contentStyleType="text/css"><style type="text/css" xml:space="preserve"><![CDATA[
	
		.st1 {fill:#eed9b3;stroke:none;stroke-linecap:round;stroke-linejoin:round;stroke-width:0.2px}
		.st2 {fill:#ffffff;stroke:none;stroke-linecap:round;stroke-linejoin:round;stroke-width:0.2px}
		.st3 {fill:#000000;font-family:Arial,Helvetica,sans-serif;font-size:0.666664em}
		.st4 {fill:#ffffff;visibility:hidden}
		.st5 {stroke:#000000;stroke-linecap:butt;stroke-width:0.8px}
		.st6 {stroke:#000000;stroke-dasharray:0.25,1;stroke-linecap:butt;stroke-width:0.25px}
		.st7 {stroke:#000000;stroke-linecap:butt;stroke-width:0.5px}
		.st8 {fill:none;stroke:none;stroke-linecap:butt;stroke-width:0.5px}
		.st9 {font-size:1em}
		.st10 {fill:none;stroke:none;stroke-linecap:butt;stroke-width:0.499999px}
		.st11 {fill:#000000;font-family:Arial,Helvetica,sans-serif;font-size:0.533318em}
		.st12 {font-size:1.25003em}
		.st13 {fill:#eed9b3;stroke:none;stroke-linecap:round;stroke-linejoin:round;stroke-width:0.2px}
		.st14 {fill:none;fill-rule:evenodd;font-size:12px;overflow:visible;stroke-linecap:square;stroke-miterlimit:3}]]></style><g xmlns:v="http://schemas.microsoft.com/visio/2003/SVGExtensions/"><title content="structured text">ARM</title><g id="shape23-1" transform="translate(306.299,-43.0197)"><title content="structured text">Sheet.23</title><rect x="0" y="65.9468" width="34.0157" height="28.3465" class="st1"/></g><g id="shape16-3" transform="translate(215.591,-43.0197)"><title content="structured text">Sheet.16</title><rect x="0" y="65.9468" width="34.0157" height="28.3465" class="st1"/></g><g id="shape15-5" transform="translate(124.882,-43.0197)"><title content="structured text">Sheet.15</title><rect x="0" y="65.9468" width="34.0157" height="28.3465" class="st1"/></g><g id="group1-7" transform="translate(22.8346,-43.0197)"><title content="structured text">32-bit register</title><g id="shape2-8" transform="translate(351.496,-1.42109E-014)"><title content="structured text">Sheet.2</title><rect x="0" y="65.9468" width="11.3386" height="28.3465" class="st2"/></g><g id="shape3-10"><title content="structured text">Sheet.3</title><rect x="0" y="65.9468" width="11.3386" height="28.3465" class="st2"/></g><g id="shape4-12" transform="translate(8.49321E-014,-28.3465)"><title content="structured text">Sheet.4</title><desc content="structured text">31</desc><text x="1.22" y="91.02" class="st3">31</text></g><g id="shape5-14" transform="translate(170.079,-28.3465)"><title content="structured text">Sheet.5</title><desc content="structured text">16</desc><text x="1.22" y="91.02" class="st3">16</text></g><g id="shape6-16" transform="translate(181.417,-28.3465)"><title content="structured text">Sheet.6</title><desc content="structured text">15</desc><text x="1.22" y="91.02" class="st3">15</text></g><g id="shape7-18" transform="translate(192.756,-28.3465)"><title content="structured text">Sheet.7</title><desc content="structured text">14</desc><text x="1.22" y="91.02" class="st3">14</text></g><g id="shape8-20" transform="translate(215.433,-28.3465)"><title content="structured text">Sheet.8</title><desc content="structured text">12</desc><text x="1.22" y="91.02" class="st3">12</text></g><g id="shape9-22" transform="translate(226.772,-28.3465)"><title content="structured text">Sheet.9</title><desc content="structured text">11</desc><text x="1.22" y="91.02" class="st3">11</text></g><g id="shape10-24" transform="translate(260.787,-28.3465)"><title content="structured text">Sheet.10</title><desc content="structured text">8</desc><text x="3.44" y="91.02" class="st3">8</text></g><g id="shape11-26" transform="translate(272.126,-28.3465)"><title content="structured text">Sheet.11</title><desc content="structured text">7</desc><text x="3.44" y="91.02" class="st3">7</text></g><g id="shape12-28" transform="translate(306.142,-28.3465)"><title content="structured text">Sheet.12</title><desc content="structured text">4</desc><text x="3.44" y="91.02" class="st3">4</text></g><g id="shape13-30" transform="translate(317.48,-28.3465)"><title content="structured text">Sheet.13</title><desc content="structured text">3</desc><text x="3.44" y="91.02" class="st3">3</text></g><g id="shape14-32" transform="translate(351.496,-28.3465)"><title content="structured text">Sheet.14</title><desc content="structured text">0</desc><text x="3.44" y="91.02" class="st3">0</text></g><g id="shape17-34" transform="translate(11.3386,-1.42109E-014)"><title content="structured text">Sheet.17</title><rect x="0" y="65.9468" width="34.0157" height="28.3465" class="st1"/></g><g id="shape18-36" transform="translate(45.3543,-1.42109E-014)"><title content="structured text">Sheet.18</title><rect x="0" y="65.9468" width="11.3386" height="28.3465" class="st2"/></g><g id="shape19-38" transform="translate(56.6929,-1.42109E-014)"><title content="structured text">Sheet.19</title><rect x="0" y="65.9468" width="11.3386" height="28.3465" class="st2"/></g><g id="shape20-40" transform="translate(68.0315,-1.42109E-014)"><title content="structured text">Sheet.20</title><rect x="0" y="65.9468" width="11.3386" height="28.3465" class="st2"/></g><g id="shape21-42" transform="translate(79.3701,-1.42109E-014)"><title content="structured text">Sheet.21</title><rect x="0" y="65.9468" width="11.3386" height="28.3465" class="st2"/></g><g id="shape22-44" transform="translate(90.7087,-1.42109E-014)"><title content="structured text">Sheet.22</title><rect x="0" y="65.9468" width="11.3386" height="28.3465" class="st2"/></g><g id="shape26-46" transform="translate(136.063,-1.42109E-014)"><title content="structured text">Sheet.26</title><rect x="0" y="65.9468" width="11.3386" height="28.3465" class="st2"/></g><g id="shape27-48" transform="translate(147.402,-1.42109E-014)"><title content="structured text">Sheet.27</title><rect x="0" y="65.9468" width="11.3386" height="28.3465" class="st2"/></g><g id="shape28-50" transform="translate(158.74,-1.42109E-014)"><title content="structured text">Sheet.28</title><rect x="0" y="65.9468" width="11.3386" height="28.3465" class="st2"/></g><g id="shape29-52" transform="translate(170.079,-1.42109E-014)"><title content="structured text">Sheet.29</title><rect x="0" y="65.9468" width="11.3386" height="28.3465" class="st2"/></g><g id="shape30-54" transform="translate(181.417,-1.42109E-014)"><title content="structured text">Sheet.30</title><rect x="0" y="65.9468" width="11.3386" height="28.3465" class="st2"/></g><g id="shape34-56" transform="translate(226.772,-1.42109E-014)"><title content="structured text">Sheet.34</title><rect x="0" y="65.9468" width="11.3386" height="28.3465" class="st2"/></g><g id="shape35-58" transform="translate(238.11,-1.42109E-014)"><title content="structured text">Sheet.35</title><rect x="0" y="65.9468" width="11.3386" height="28.3465" class="st2"/></g><g id="shape36-60" transform="translate(249.449,-1.42109E-014)"><title content="structured text">Sheet.36</title><rect x="0" y="65.9468" width="11.3386" height="28.3465" class="st2"/></g><g id="shape37-62" transform="translate(260.787,-1.42109E-014)"><title content="structured text">Sheet.37</title><rect x="0" y="65.9468" width="11.3386" height="28.3465" class="st2"/></g><g id="shape38-64" transform="translate(272.126,-1.42109E-014)"><title content="structured text">Sheet.38</title><rect x="0" y="65.9468" width="11.3386" height="28.3465" class="st2"/></g><g id="shape42-66" transform="translate(317.48,-1.42109E-014)"><title content="structured text">Sheet.42</title><rect x="0" y="65.9468" width="11.3386" height="28.3465" class="st2"/></g><g id="shape43-68" transform="translate(328.819,-1.42109E-014)"><title content="structured text">Sheet.43</title><rect x="0" y="65.9468" width="11.3386" height="28.3465" class="st2"/></g><g id="shape44-70" transform="translate(340.157,-1.42109E-014)"><title content="structured text">Sheet.44</title><rect x="0" y="65.9468" width="11.3386" height="28.3465" class="st2"/></g><g id="shape45-72"><title content="structured text">Sheet.45</title><rect x="0" y="65.9468" width="362.835" height="28.3465" class="st4"/><rect x="0" y="65.9468" width="362.835" height="28.3465" class="st5"/></g><g id="shape46-75" transform="translate(136.063,-1.42109E-014)"><title content="structured text">Sheet.46</title><path d="M0 65.95 L0 94.29" class="st5"/></g><g id="shape47-78" transform="translate(181.417,-1.42109E-014)"><title content="structured text">Sheet.47</title><path d="M0 65.95 L0 94.29" class="st5"/></g><g id="shape48-81" transform="translate(226.772,-1.42109E-014)"><title content="structured text">Sheet.48</title><path d="M0 65.95 L0 94.29" class="st5"/></g><g id="shape49-84" transform="translate(272.126,-1.42109E-014)"><title content="structured text">Sheet.49</title><path d="M0 65.95 L0 94.29" class="st5"/></g><g id="shape50-87" transform="translate(317.48,-1.42109E-014)"><title content="structured text">Sheet.50</title><path d="M0 65.95 L0 94.29" class="st5"/></g><g id="shape51-90" transform="translate(411.774,54.6083) rotate(90)"><title content="structured text">Signal 0</title><path d="M0 94.29 L11.34 94.29" class="st6"/></g><g id="shape52-93" transform="translate(366.419,54.6083) rotate(90)"><title content="structured text">Signal 0.102</title><path d="M0 94.29 L11.34 94.29" class="st6"/></g><g id="shape53-96" transform="translate(321.065,54.6083) rotate(90)"><title content="structured text">Signal 0.103</title><path d="M0 94.29 L11.34 94.29" class="st6"/></g><g id="shape54-99" transform="translate(275.711,54.6083) rotate(90)"><title content="structured text">Signal 0.104</title><path d="M0 94.29 L11.34 94.29" class="st6"/></g><g id="shape55-102" transform="translate(230.356,54.6083) rotate(90)"><title content="structured text">Signal 0.105</title><path d="M0 94.29 L11.34 94.29" class="st6"/></g><g id="shape56-105" transform="translate(185.002,54.6083) rotate(90)"><title content="structured text">Signal 0.106</title><path d="M0 94.29 L11.34 94.29" class="st6"/></g><g id="shape57-108" transform="translate(139.648,54.6083) rotate(90)"><title content="structured text">Signal 0.107</title><path d="M0 94.29 L11.34 94.29" class="st6"/></g><g id="shape58-111" transform="translate(94.2933,54.6083) rotate(90)"><title content="structured text">Signal 0.108</title><path d="M0 94.29 L11.34 94.29" class="st6"/></g><g id="shape59-114" transform="translate(457.128,54.6083) rotate(90)"><title content="structured text">Signal 0.109</title><path d="M0 94.29 L11.34 94.29" class="st6"/></g></g><g id="shape60-117" transform="translate(27.0866,-44.437)"><title content="structured text">Dynamic connector</title><path d="M1.42 98.55 L1.42 104.21 L12.76 104.21" class="st7"/></g><g id="shape61-120" transform="translate(68.189,-30.2638) scale(-1,1)"><title content="structured text">Sheet.61</title><desc content="structured text">TYPE3</desc><rect x="0" y="85.7894" width="28.3465" height="8.50394" class="st8"/><text x="-26.84" y="92.44" transform="scale(-1,1)" class="st3">TYPE3</text></g><g id="shape62-123" transform="translate(249.606,-47.2716)"><title content="structured text">Sheet.62</title><desc content="structured text">SEL1</desc><rect x="0" y="74.4508" width="45.3543" height="19.8425" class="st8"/><text x="12.89" y="86.77" class="st3">SEL1</text></g><g id="shape63-126" transform="translate(34.1732,-43.0197)"><title content="structured text">32-bit register.112</title><path d="M0 65.95 L0 94.29" class="st5"/></g><g id="shape64-129" transform="translate(34.1732,-71.3661)"><title content="structured text">32-bit register.113</title><desc content="structured text">30</desc><text x="1.22" y="91.02" class="st3">3<tspan class="st9">0</tspan></text></g><g id="shape65-132" transform="translate(68.189,-43.0197)"><title content="structured text">32-bit register.114</title><path d="M0 65.95 L0 94.29" class="st5"/></g><g id="shape66-135" transform="translate(56.8504,-71.3661)"><title content="structured text">32-bit register.115</title><desc content="structured text">28</desc><text x="1.22" y="91.02" class="st3">28</text></g><g id="shape67-137" transform="translate(68.189,-71.3661)"><title content="structured text">32-bit register.116</title><desc content="structured text">27</desc><text x="1.22" y="91.02" class="st3">27</text></g><g id="shape68-139" transform="translate(113.543,-43.0197)"><title content="structured text">32-bit register.117</title><path d="M0 65.95 L0 94.29" class="st5"/></g><g id="shape69-142" transform="translate(124.882,-43.0197)"><title content="structured text">32-bit register.118</title><path d="M0 65.95 L0 94.29" class="st5"/></g><g id="shape70-145" transform="translate(102.205,-71.3661)"><title content="structured text">32-bit register.119</title><desc content="structured text">24</desc><text x="1.22" y="91.02" class="st3">24</text></g><g id="shape71-147" transform="translate(113.543,-71.3661)"><title content="structured text">32-bit register.120</title><desc content="structured text">23</desc><text x="1.22" y="91.02" class="st3">23</text></g><g id="shape72-149" transform="translate(124.882,-71.3661)"><title content="structured text">32-bit register.121</title><desc content="structured text">22</desc><text x="1.22" y="91.02" class="st3">22</text></g><g id="shape73-151" transform="translate(147.559,-71.3661)"><title content="structured text">32-bit register.122</title><desc content="structured text">20</desc><text x="1.22" y="91.02" class="st3">20</text></g><g id="shape74-153" transform="translate(158.898,-71.3661)"><title content="structured text">32-bit register.123</title><desc content="structured text">19</desc><text x="1.22" y="91.02" class="st3">1<tspan class="st9">9</tspan></text></g><g id="shape75-156" transform="translate(215.591,-43.0197)"><title content="structured text">32-bit register.17</title><path d="M0 65.95 L0 94.29" class="st5"/></g><g id="shape76-159" transform="translate(68.189,-47.2716)"><title content="structured text">Sheet.76</title><desc content="structured text">SEL3</desc><rect x="0" y="74.4508" width="45.3543" height="19.8425" class="st8"/><text x="12.89" y="86.77" class="st3">SEL3</text></g><g id="shape77-162" transform="translate(158.898,-47.2716)"><title content="structured text">Sheet.77</title><desc content="structured text">SEL2</desc><rect x="0" y="74.4508" width="45.3543" height="19.8425" class="st8"/><text x="12.89" y="86.77" class="st3">SEL2</text></g><g id="shape78-165" transform="translate(120.63,-44.437)"><title content="structured text">Dynamic connector.79</title><path d="M-1.42 98.55 L-1.42 104.21 L-12.76 104.21" class="st7"/></g><g id="shape79-168" transform="translate(79.5276,-30.2638)"><title content="structured text">Sheet.79</title><desc content="structured text">TYPE2</desc><rect x="0" y="85.7894" width="28.3465" height="8.50394" class="st8"/><text x="1.5" y="92.44" class="st3">TYPE2</text></g><g id="shape80-171" transform="translate(302.047,-44.437)"><title content="structured text">Dynamic connector.8</title><path d="M-1.42 98.55 L-1.42 104.21 L-12.76 104.21" class="st7"/></g><g id="shape81-174" transform="translate(260.945,-30.2638)"><title content="structured text">Sheet.81</title><desc content="structured text">TYPE0</desc><rect x="0" y="85.7894" width="28.3465" height="8.50394" class="st8"/><text x="1.5" y="92.44" class="st3">TYPE0</text></g><g id="shape82-177" transform="translate(211.339,-44.437)"><title content="structured text">Dynamic connector.10</title><path d="M-1.42 98.55 L-1.42 104.21 L-12.76 104.21" class="st7"/></g><g id="shape83-180" transform="translate(170.236,-30.2638)"><title content="structured text">Sheet.83</title><desc content="structured text">TYPE1</desc><rect x="0" y="85.7894" width="28.3465" height="8.50394" class="st8"/><text x="1.5" y="92.44" class="st3">TYPE1</text></g><g id="shape84-183" transform="translate(340.315,-45.8543)"><title content="structured text">Sheet.84</title><desc content="structured text">SEL0</desc><rect x="0" y="74.4508" width="45.3543" height="19.8425" class="st8"/><text x="12.89" y="86.77" class="st3">SEL0</text></g><g id="shape85-186" transform="translate(306.299,-43.0197)"><title content="structured text">32-bit register.6</title><path d="M0 65.95 L0 94.29" class="st5"/></g><g id="shape86-189" transform="translate(306.299,-71.3661)"><title content="structured text">32-bit register.15</title><desc content="structured text">6</desc><text x="3.44" y="91.02" class="st3">6</text></g><g id="shape87-191" transform="translate(33.2746,-11.8386)"><title content="structured text">Rectangle No Fill No Fill.116</title><desc content="structured text">res0</desc><rect x="0" y="82.9547" width="19.8425" height="11.3386" class="st10"/><text x="1.24" y="91.02" class="st11">RES<tspan class="st12">0</tspan></text></g><g id="shape88-195" transform="translate(22.8346,-11.8386)"><title content="structured text">Graphic.117</title><rect x="0" y="82.9547" width="10.44" height="11.3386" class="st13"/></g></g></svg>