<?xml version="1.0" encoding="UTF-8" standalone="no"?><!-- Fixed up by svgfix.xsl 1.4  --><!-- Generated by Microsoft Visio 11.0, SVG Export, v1.0 trcoslsr_bit_assignments.svg ARM -->
<!DOCTYPE svg
  PUBLIC "-//W3C//DTD SVG 1.0//EN" "http://www.w3.org/TR/2001/REC-SVG-20010904/DTD/svg10.dtd">
<svg xmlns:xlink="http://www.w3.org/1999/xlink" xmlns="http://www.w3.org/2000/svg" xmlns:ev="http://www.w3.org/2001/xml-events" width="516.149" height="155.961" viewBox="0 0 387.112 116.97" xml:space="preserve" color-interpolation-filters="sRGB" class="st13" preserveAspectRatio="xMidYMid meet" zoomAndPan="magnify" version="1.0" contentScriptType="text/ecmascript" contentStyleType="text/css"><style type="text/css" xml:space="preserve"><![CDATA[
	
		.st1 {fill:#ffffff;stroke:none;stroke-linecap:round;stroke-linejoin:round;stroke-width:0.2px}
		.st2 {fill:#000000;font-family:Arial,Helvetica,sans-serif;font-size:0.666664em}
		.st3 {fill:#eed9b3;stroke:none;stroke-linecap:round;stroke-linejoin:round;stroke-width:0.2px}
		.st4 {fill:#ffffff;visibility:hidden}
		.st5 {stroke:#000000;stroke-linecap:butt;stroke-width:0.8px}
		.st6 {stroke:#000000;stroke-dasharray:0.25,1;stroke-linecap:butt;stroke-width:0.25px}
		.st7 {stroke:#000000;stroke-linecap:butt;stroke-width:0.5px}
		.st8 {fill:none;stroke:none;stroke-linecap:butt;stroke-width:0.5px}
		.st9 {fill:none;stroke:none;stroke-linecap:butt;stroke-width:0.499999px}
		.st10 {fill:#000000;font-family:Arial,Helvetica,sans-serif;font-size:0.533318em}
		.st11 {font-size:1.25003em}
		.st12 {fill:#eed9b3;stroke:none;stroke-linecap:round;stroke-linejoin:round;stroke-width:0.2px}
		.st13 {fill:none;fill-rule:evenodd;font-size:12px;overflow:visible;stroke-linecap:square;stroke-miterlimit:3}]]></style><g xmlns:v="http://schemas.microsoft.com/visio/2003/SVGExtensions/"><title content="structured text">ARM</title><g id="shape1-1" transform="translate(352.296,-65.6969)"><title content="structured text">Sheet.1</title><rect x="0" y="88.624" width="11.3386" height="28.3465" class="st1"/></g><g id="shape2-3" transform="translate(340.957,-65.6969)"><title content="structured text">Sheet.2</title><rect x="0" y="88.624" width="11.3386" height="28.3465" class="st1"/></g><g id="shape3-5" transform="translate(329.619,-65.6969)"><title content="structured text">Sheet.3</title><rect x="0" y="88.624" width="11.3386" height="28.3465" class="st1"/></g><g id="shape4-7" transform="translate(363.635,-65.6969)"><title content="structured text">Sheet.4</title><rect x="0" y="88.624" width="11.3386" height="28.3465" class="st1"/></g><g id="shape5-9" transform="translate(12.1386,-94.0433)"><title content="structured text">Sheet.5</title><desc content="structured text">31</desc><text x="1.22" y="113.7" class="st2">31</text></g><g id="shape6-11" transform="translate(352.296,-94.0433)"><title content="structured text">Sheet.6</title><desc content="structured text">1</desc><text x="3.44" y="113.7" class="st2">1</text></g><g id="shape7-13" transform="translate(363.635,-94.0433)"><title content="structured text">Sheet.7</title><desc content="structured text">0</desc><text x="3.44" y="113.7" class="st2">0</text></g><g id="shape8-15" transform="translate(12.1386,-65.6969)"><title content="structured text">Sheet.8</title><rect x="0" y="88.624" width="317.48" height="28.3465" class="st3"/></g><g id="shape9-17" transform="translate(12.1386,-65.6969)"><title content="structured text">Sheet.9</title><rect x="0" y="88.624" width="362.835" height="28.3465" class="st4"/><rect x="0" y="88.624" width="362.835" height="28.3465" class="st5"/></g><g id="shape10-20" transform="translate(363.635,-65.6969)"><title content="structured text">Sheet.10</title><path d="M0 88.62 L0 116.97" class="st5"/></g><g id="shape11-23" transform="translate(446.589,11.5886) rotate(90)"><title content="structured text">Signal 0</title><path d="M0 116.97 L11.34 116.97" class="st6"/></g><g id="shape12-26" transform="translate(401.235,11.5886) rotate(90)"><title content="structured text">Signal 0.102</title><path d="M0 116.97 L11.34 116.97" class="st6"/></g><g id="shape13-29" transform="translate(355.881,11.5886) rotate(90)"><title content="structured text">Signal 0.103</title><path d="M0 116.97 L11.34 116.97" class="st6"/></g><g id="shape14-32" transform="translate(310.526,11.5886) rotate(90)"><title content="structured text">Signal 0.104</title><path d="M0 116.97 L11.34 116.97" class="st6"/></g><g id="shape15-35" transform="translate(265.172,11.5886) rotate(90)"><title content="structured text">Signal 0.105</title><path d="M0 116.97 L11.34 116.97" class="st6"/></g><g id="shape16-38" transform="translate(219.818,11.5886) rotate(90)"><title content="structured text">Signal 0.106</title><path d="M0 116.97 L11.34 116.97" class="st6"/></g><g id="shape17-41" transform="translate(174.463,11.5886) rotate(90)"><title content="structured text">Signal 0.107</title><path d="M0 116.97 L11.34 116.97" class="st6"/></g><g id="shape18-44" transform="translate(129.109,11.5886) rotate(90)"><title content="structured text">Signal 0.108</title><path d="M0 116.97 L11.34 116.97" class="st6"/></g><g id="shape19-47" transform="translate(491.944,11.5886) rotate(90)"><title content="structured text">Signal 0.109</title><path d="M0 116.97 L11.34 116.97" class="st6"/></g><g id="shape20-50" transform="translate(452.259,54.1083) rotate(90)"><title content="structured text">Line 0.5 (0).1</title><path d="M0 116.97 L11.34 116.97" class="st7"/></g><g id="shape21-53" transform="translate(323.95,-51.5236)"><title content="structured text">Signal 0.37</title><path d="M0 116.97 L11.34 116.97" class="st7"/></g><g id="shape22-56" transform="translate(278.595,-45.8543)"><title content="structured text">Sheet.22</title><desc content="structured text">OSLM[1]</desc><rect x="0" y="105.632" width="45.3543" height="11.3386" class="st8"/><text x="12.79" y="113.7" class="st2">OSLM[1]</text></g><g id="shape23-59" transform="translate(329.619,-94.0433)"><title content="structured text">Sheet.23</title><desc content="structured text">3</desc><text x="3.44" y="113.7" class="st2">3</text></g><g id="shape24-61" transform="translate(340.957,-94.0433)"><title content="structured text">Sheet.24</title><desc content="structured text">2</desc><text x="3.44" y="113.7" class="st2">2</text></g><g id="shape25-63" transform="translate(318.28,-94.0433)"><title content="structured text">Sheet.25</title><desc content="structured text">4</desc><text x="3.44" y="113.7" class="st2">4</text></g><g id="shape26-65" transform="translate(352.296,-65.6969)"><title content="structured text">Sheet.26</title><path d="M0 88.62 L0 116.97" class="st5"/></g><g id="shape27-68" transform="translate(340.957,-65.6969)"><title content="structured text">Sheet.27</title><path d="M0 88.62 L0 116.97" class="st5"/></g><g id="shape28-71" transform="translate(329.619,-65.6969)"><title content="structured text">Sheet.28</title><path d="M0 88.62 L0 116.97" class="st5"/></g><g id="shape29-74" transform="translate(463.597,54.1083) rotate(90)"><title content="structured text">Line 0.5 (0).116</title><path d="M0 116.97 L22.68 116.97" class="st7"/></g><g id="shape30-77" transform="translate(323.95,-40.185)"><title content="structured text">Signal 0.117</title><path d="M0 116.97 L22.68 116.97" class="st7"/></g><g id="shape31-80" transform="translate(278.595,-34.5157)"><title content="structured text">Sheet.31</title><desc content="structured text">nTT</desc><rect x="0" y="105.632" width="45.3543" height="11.3386" class="st8"/><text x="30.13" y="113.7" class="st2">nTT</text></g><g id="shape32-83" transform="translate(474.936,54.1083) rotate(90)"><title content="structured text">Line 0.5 (0).119</title><path d="M0 116.97 L34.02 116.97" class="st7"/></g><g id="shape33-86" transform="translate(323.95,-28.8465)"><title content="structured text">Signal 0.120</title><path d="M0 116.97 L34.02 116.97" class="st7"/></g><g id="shape34-89" transform="translate(278.595,-23.1772)"><title content="structured text">Sheet.34</title><desc content="structured text">OSLK</desc><rect x="0" y="105.632" width="45.3543" height="11.3386" class="st8"/><text x="23.01" y="113.7" class="st2">OSLK</text></g><g id="shape35-92" transform="translate(486.274,54.1083) rotate(90)"><title content="structured text">Line 0.5 (0).122</title><path d="M0 116.97 L45.35 116.97" class="st7"/></g><g id="shape36-95" transform="translate(323.95,-17.5079)"><title content="structured text">Signal 0.123</title><path d="M0 116.97 L45.35 116.97" class="st7"/></g><g id="shape37-98" transform="translate(278.595,-11.8386)"><title content="structured text">Sheet.37</title><desc content="structured text">OSLM[0]</desc><rect x="0" y="105.632" width="45.3543" height="11.3386" class="st8"/><text x="12.79" y="113.7" class="st2">OSLM[0]</text></g><g id="shape38-101" transform="translate(22.5786,-43.0197)"><title content="structured text">Rectangle No Fill No Fill.116</title><desc content="structured text">res0</desc><rect x="0" y="105.632" width="19.8425" height="11.3386" class="st9"/><text x="1.24" y="113.7" class="st10">RES<tspan class="st11">0</tspan></text></g><g id="shape39-105" transform="translate(12.1386,-43.0197)"><title content="structured text">Graphic.117</title><rect x="0" y="105.632" width="10.44" height="11.3386" class="st12"/></g></g></svg>