<?xml version="1.0" encoding="UTF-8" standalone="no"?><!-- Fixed up by svgfix.xsl 1.4  --><!-- Generated by Microsoft Visio 11.0, SVG Export, v1.0 cptr_el2_bit_assignments_LowRes.svg ARM -->
<!DOCTYPE svg
  PUBLIC "-//W3C//DTD SVG 1.0//EN" "http://www.w3.org/TR/2001/REC-SVG-20010904/DTD/svg10.dtd">
<svg xmlns:xlink="http://www.w3.org/1999/xlink" xmlns="http://www.w3.org/2000/svg" xmlns:ev="http://www.w3.org/2001/xml-events" width="516.149" height="163.42" viewBox="0 0 387.112 122.565" xml:space="preserve" color-interpolation-filters="sRGB" class="st13" preserveAspectRatio="xMidYMid meet" zoomAndPan="magnify" version="1.0" contentScriptType="text/ecmascript" contentStyleType="text/css"><style type="text/css" xml:space="preserve"><![CDATA[
	
		.st1 {fill:#ccdfdb;stroke:none;stroke-linecap:round;stroke-linejoin:round;stroke-width:0.2px}
		.st2 {fill:#eed9b3;stroke:none;stroke-linecap:round;stroke-linejoin:round;stroke-width:0.2px}
		.st3 {stroke:#000000;stroke-linecap:butt;stroke-width:0.8px}
		.st4 {stroke:#000000;stroke-dasharray:0.25,0.5;stroke-linecap:butt;stroke-width:0.25px}
		.st5 {fill:#000000;font-family:Arial,Helvetica,sans-serif;font-size:0.666664em}
		.st6 {stroke:#000000;stroke-linecap:butt;stroke-width:0.5px}
		.st7 {fill:none;stroke:none;stroke-linecap:butt;stroke-width:0.5px}
		.st8 {fill:none;stroke:none;stroke-linecap:butt;stroke-width:0.499999px}
		.st9 {fill:#000000;font-family:Arial,Helvetica,sans-serif;font-size:0.533318em}
		.st10 {font-size:1.25003em}
		.st11 {fill:#eed9b3;stroke:none;stroke-linecap:round;stroke-linejoin:round;stroke-width:0.2px}
		.st12 {fill:#ccdfdb;stroke:none;stroke-linecap:round;stroke-linejoin:round;stroke-width:0.2px}
		.st13 {fill:none;fill-rule:evenodd;font-size:12px;overflow:visible;stroke-linecap:square;stroke-miterlimit:3}]]></style><g xmlns:v="http://schemas.microsoft.com/visio/2003/SVGExtensions/"><title content="structured text">ARM</title><g id="shape15-1" transform="translate(261.587,-71.291)"><title content="structured text">64-bit register.225</title><rect x="0" y="94.2181" width="113.386" height="28.3465" class="st1"/></g><g id="shape44-3" transform="translate(216.233,-71.291)"><title content="structured text">64-bit register.44</title><rect x="0" y="94.2181" width="22.6772" height="28.3465" class="st1"/></g><g id="shape14-5" transform="translate(23.4772,-71.291)"><title content="structured text">64-bit register.26</title><rect x="0" y="94.2181" width="113.386" height="28.3465" class="st2"/></g><g id="shape36-7" transform="translate(148.202,-71.291)"><title content="structured text">64-bit register.36</title><rect x="0" y="94.2181" width="68.0315" height="28.3465" class="st2"/></g><g id="shape53-9" transform="translate(238.91,-71.291)"><title content="structured text">64-bit register.53</title><rect x="0" y="94.2181" width="11.3386" height="28.3465" class="st2"/></g><g id="shape1-11" transform="translate(374.973,-71.291) scale(-1,1)"><title content="structured text">64-bit register.156</title><path d="M0 94.22 L362.83 94.22 L362.83 122.56 L0 122.56" class="st3"/></g><g id="shape2-14" transform="translate(134.703,11.5886) rotate(90)"><title content="structured text">64-bit register.169</title><path d="M0 122.56 L11.34 122.56" class="st4"/></g><g id="shape3-17" transform="translate(374.973,-71.291)"><title content="structured text">64-bit register.157</title><path d="M0 94.22 L0 122.56" class="st3"/></g><g id="shape4-20" transform="translate(180.058,11.5886) rotate(90)"><title content="structured text">64-bit register.11</title><path d="M0 122.56 L11.34 122.56" class="st4"/></g><g id="shape5-23" transform="translate(225.412,11.5886) rotate(90)"><title content="structured text">64-bit register.12</title><path d="M0 122.56 L11.34 122.56" class="st4"/></g><g id="shape6-26" transform="translate(270.766,11.5886) rotate(90)"><title content="structured text">64-bit register.13</title><path d="M0 122.56 L11.34 122.56" class="st4"/></g><g id="shape7-29" transform="translate(316.12,11.5886) rotate(90)"><title content="structured text">64-bit register.14</title><path d="M0 122.56 L11.34 122.56" class="st4"/></g><g id="shape8-32" transform="translate(361.475,11.5886) rotate(90)"><title content="structured text">64-bit register.15</title><path d="M0 122.56 L11.34 122.56" class="st4"/></g><g id="shape9-35" transform="translate(452.183,11.5886) rotate(90)"><title content="structured text">64-bit register.16</title><path d="M0 122.56 L11.34 122.56" class="st4"/></g><g id="shape10-38" transform="translate(497.538,11.5886) rotate(90)"><title content="structured text">64-bit register.17</title><path d="M0 122.56 L11.34 122.56" class="st4"/></g><g id="shape11-41" transform="translate(12.1386,-99.6374)"><title content="structured text">64-bit register.179</title><desc content="structured text">31</desc><text x="1.22" y="119.3" class="st5">31</text></g><g id="shape12-43" transform="translate(363.635,-99.6374)"><title content="structured text">64-bit register.19</title><desc content="structured text">0</desc><text x="3.44" y="119.3" class="st5">0</text></g><g id="shape13-45" transform="translate(406.829,11.5886) rotate(90)"><title content="structured text">64-bit register.21</title><path d="M0 122.56 L11.34 122.56" class="st4"/></g><g id="shape16-48" transform="translate(255.918,-62.787)"><title content="structured text">Sheet.16</title><path d="M0 116.9 L0 122.56 L5.67 122.56" class="st6"/></g><g id="shape17-51" transform="translate(261.587,-57.1177)"><title content="structured text">Sheet.17</title><desc content="structured text">TFP</desc><rect x="0" y="111.226" width="22.6772" height="11.3386" class="st7"/><text x="0" y="119.3" class="st5">TFP</text></g><g id="shape18-54" transform="translate(23.4772,-71.291)"><title content="structured text">64-bit register.153</title><path d="M0 94.22 L0 122.56" class="st3"/></g><g id="shape21-57" transform="translate(261.587,-71.291)"><title content="structured text">64-bit register.33</title><path d="M0 94.22 L0 122.56" class="st3"/></g><g id="shape22-60" transform="translate(250.249,-71.291)"><title content="structured text">64-bit register.34</title><path d="M0 94.22 L0 122.56" class="st3"/></g><g id="shape25-63" transform="translate(17.8079,-62.787)"><title content="structured text">Sheet.25</title><path d="M0 116.9 L0 122.56 L5.67 122.56" class="st6"/></g><g id="shape27-66" transform="translate(23.4772,-57.1177)"><title content="structured text">Sheet.27</title><desc content="structured text">TCPAC</desc><rect x="0" y="111.226" width="31.1811" height="11.3386" class="st7"/><text x="0" y="119.3" class="st5">TCPAC</text></g><g id="shape28-69" transform="translate(136.863,-99.6374)"><title content="structured text">64-bit register.158</title><desc content="structured text">20</desc><text x="1.22" y="119.3" class="st5">20</text></g><g id="shape29-71" transform="translate(148.202,-99.6374)"><title content="structured text">64-bit register.159</title><desc content="structured text">19</desc><text x="1.22" y="119.3" class="st5">19</text></g><g id="shape30-73" transform="translate(125.524,-99.6374)"><title content="structured text">64-bit register.160</title><desc content="structured text">21</desc><text x="1.22" y="119.3" class="st5">21</text></g><g id="shape31-75" transform="translate(250.249,-99.6374)"><title content="structured text">64-bit register.161</title><desc content="structured text">10</desc><text x="1.22" y="119.3" class="st5">10</text></g><g id="shape32-77" transform="translate(261.587,-99.6374)"><title content="structured text">64-bit register.162</title><desc content="structured text">9</desc><text x="3.44" y="119.3" class="st5">9</text></g><g id="shape33-79" transform="translate(238.91,-99.6374)"><title content="structured text">64-bit register.163</title><desc content="structured text">11</desc><text x="1.22" y="119.3" class="st5">11</text></g><g id="shape34-81" transform="translate(148.202,-71.291)"><title content="structured text">Sheet.34</title><path d="M0 94.22 L0 122.56" class="st3"/></g><g id="shape35-84" transform="translate(136.863,-71.291)"><title content="structured text">Sheet.35</title><path d="M0 94.22 L0 122.56" class="st3"/></g><g id="shape37-87" transform="translate(142.532,-62.787)"><title content="structured text">Sheet.37</title><path d="M0 116.9 L0 122.56 L5.67 122.56" class="st6"/></g><g id="shape38-90" transform="translate(148.202,-57.1177)"><title content="structured text">Sheet.38</title><desc content="structured text">TTA</desc><rect x="0" y="111.226" width="22.6772" height="11.3386" class="st7"/><text x="0" y="119.3" class="st5">TTA</text></g><g id="shape39-93" transform="translate(216.233,-99.6374)"><title content="structured text">64-bit register.39</title><desc content="structured text">13</desc><text x="1.22" y="119.3" class="st5">13</text></g><g id="shape40-95" transform="translate(227.572,-99.6374)"><title content="structured text">64-bit register.40</title><desc content="structured text">12</desc><text x="1.22" y="119.3" class="st5">12</text></g><g id="shape41-97" transform="translate(204.894,-99.6374)"><title content="structured text">64-bit register.41</title><desc content="structured text">14</desc><text x="1.22" y="119.3" class="st5">14</text></g><g id="shape42-99" transform="translate(216.233,-71.291)"><title content="structured text">64-bit register.42</title><path d="M0 94.22 L0 122.56" class="st3"/></g><g id="shape43-102" transform="translate(238.91,-71.291)"><title content="structured text">64-bit register.43</title><path d="M0 94.22 L0 122.56" class="st3"/></g><g id="shape47-105" transform="translate(23.4772,-99.6374)"><title content="structured text">64-bit register.47</title><desc content="structured text">30</desc><text x="1.22" y="119.3" class="st5">30</text></g><g id="group54-107" transform="translate(12.1386,-11.8386)"><title content="structured text">Sheet.54</title><g id="shape55-108" transform="translate(11.3386,0)"><title content="structured text">Rectangle No Fill No Fill.116</title><desc content="structured text">res0</desc><rect x="0" y="111.226" width="22.6772" height="11.3386" class="st8"/><text x="3.07" y="119.29" class="st9">RES<tspan class="st10">0</tspan></text></g><g id="shape56-112"><title content="structured text">Graphic.117</title><rect x="0" y="111.226" width="11.3386" height="11.3386" class="st11"/></g></g><g id="group57-114" transform="translate(12.1386,-25.9367)"><title content="structured text">Sheet.57</title><g id="shape58-115" transform="translate(11.3386,0)"><title content="structured text">Rectangle No Fill No Fill.119</title><desc content="structured text">res1</desc><rect x="0" y="111.226" width="22.6772" height="11.3386" class="st8"/><text x="3.07" y="119.29" class="st9">RES<tspan class="st10">1</tspan></text></g><g id="shape59-119"><title content="structured text">Rectangle Fill:Soapstone.120</title><rect x="0" y="111.226" width="11.3386" height="11.3386" class="st12"/></g></g></g></svg>