<?xml version="1.0" encoding="UTF-8" standalone="no"?><!-- Fixed up by svgfix.xsl 1.4  --><!-- Generated by Microsoft Visio 11.0, SVG Export, v1.0 err0addr_Enyo_LowRes.svg ARM -->
<!DOCTYPE svg
  PUBLIC "-//W3C//DTD SVG 1.0//EN" "http://www.w3.org/TR/2001/REC-SVG-20010904/DTD/svg10.dtd">
<svg xmlns:xlink="http://www.w3.org/1999/xlink" xmlns="http://www.w3.org/2000/svg" xmlns:ev="http://www.w3.org/2001/xml-events" width="546.676" height="156.961" viewBox="0 0 410.007 117.721" xml:space="preserve" color-interpolation-filters="sRGB" class="st18" preserveAspectRatio="xMidYMid meet" zoomAndPan="magnify" version="1.0" contentScriptType="text/ecmascript" contentStyleType="text/css"><style type="text/css" xml:space="preserve"><![CDATA[
	
		.st1 {fill:#000000;font-family:Arial,Helvetica,sans-serif;font-size:0.666664em}
		.st2 {fill:none}
		.st3 {stroke:#000000;stroke-dasharray:0.25,1;stroke-linecap:butt;stroke-width:0.25px}
		.st4 {fill:none;stroke:none;stroke-linecap:butt;stroke-width:0.499998px}
		.st5 {fill:#000000;font-family:Arial,Helvetica,sans-serif;font-size:0.533318em}
		.st6 {font-size:1.25003em}
		.st7 {fill:#eed9b3;stroke:none;stroke-linecap:round;stroke-linejoin:round;stroke-width:0.2px}
		.st8 {fill:#eed9b3;stroke:none;stroke-linecap:round;stroke-linejoin:round;stroke-width:0.2px}
		.st9 {fill:#ffffff;stroke:none;stroke-width:1px;visibility:hidden}
		.st10 {fill:none;stroke:#000000;stroke-linecap:butt;stroke-width:0.8px}
		.st11 {fill:none;stroke:none;stroke-width:1px}
		.st12 {stroke:#000000;stroke-linecap:butt;stroke-width:0.499999px}
		.st13 {fill:none;stroke:none;stroke-linecap:butt;stroke-width:0.499999px}
		.st14 {stroke:#000000;stroke-linecap:butt;stroke-width:0.8px}
		.st15 {fill:none;stroke:none;stroke-linecap:butt;stroke-width:0.5px}
		.st16 {fill:#ffffff;stroke:none;stroke-linecap:butt;stroke-width:0.5px}
		.st17 {stroke:#000000;stroke-linecap:butt;stroke-width:0.5px}
		.st18 {fill:none;fill-rule:evenodd;font-size:12px;overflow:visible;stroke-linecap:square;stroke-miterlimit:3}]]></style><g xmlns:v="http://schemas.microsoft.com/visio/2003/SVGExtensions/"><title content="structured text">ARM</title><g id="shape1-1" transform="translate(12.1386,-94.0433)"><title content="structured text">Bit31</title><desc content="structured text">63</desc><text x="1.22" y="114.45" class="st1">63</text></g><g id="shape6-3" transform="translate(402.015,12.3386) rotate(90)"><title content="structured text">Signal 0.93</title><path d="M0 117.72 L11.34 117.72 L0 117.72 Z" class="st2"/><path d="M0 117.72 L11.34 117.72" class="st3"/></g><g id="shape7-6" transform="translate(356.631,12.3386) rotate(90)"><title content="structured text">Signal 0.94</title><path d="M0 117.72 L11.34 117.72 L0 117.72 Z" class="st2"/><path d="M0 117.72 L11.34 117.72" class="st3"/></g><g id="shape8-9" transform="translate(311.306,12.3386) rotate(90)"><title content="structured text">Signal 0.95</title><path d="M0 117.72 L11.34 117.72 L0 117.72 Z" class="st2"/><path d="M0 117.72 L11.34 117.72" class="st3"/></g><g id="shape9-12" transform="translate(265.952,12.3386) rotate(90)"><title content="structured text">Signal 0.96</title><path d="M0 117.72 L11.34 117.72 L0 117.72 Z" class="st2"/><path d="M0 117.72 L11.34 117.72" class="st3"/></g><g id="shape10-15" transform="translate(243.245,12.3386) rotate(90)"><title content="structured text">Signal 0.97</title><path d="M0 117.72 L11.34 117.72 L0 117.72 Z" class="st2"/><path d="M0 117.72 L11.34 117.72" class="st3"/></g><g id="shape11-18" transform="translate(197.92,12.3386) rotate(90)"><title content="structured text">Signal 0.98</title><path d="M0 117.72 L11.34 117.72 L0 117.72 Z" class="st2"/><path d="M0 117.72 L11.34 117.72" class="st3"/></g><g id="shape12-21" transform="translate(220.598,12.3386) rotate(90)"><title content="structured text">Signal 0.99</title><path d="M0 117.72 L11.34 117.72 L0 117.72 Z" class="st2"/><path d="M0 117.72 L11.34 117.72" class="st3"/></g><g id="shape13-24" transform="translate(492.694,12.3386) rotate(90)"><title content="structured text">Signal 0.100</title><path d="M0 117.72 L11.34 117.72 L0 117.72 Z" class="st2"/><path d="M0 117.72 L11.34 117.72" class="st3"/></g><g id="shape14-27" transform="translate(175.242,12.3386) rotate(90)"><title content="structured text">Signal 0.288</title><path d="M0 117.72 L11.34 117.72 L0 117.72 Z" class="st2"/><path d="M0 117.72 L11.34 117.72" class="st3"/></g><g id="shape15-30" transform="translate(447.369,12.3386) rotate(90)"><title content="structured text">Signal 0.290</title><path d="M0 117.72 L11.34 117.72 L0 117.72 Z" class="st2"/><path d="M0 117.72 L11.34 117.72" class="st3"/></g><g id="shape16-33" transform="translate(129.888,12.3386) rotate(90)"><title content="structured text">Signal 0.87</title><path d="M0 117.72 L11.34 117.72 L0 117.72 Z" class="st2"/><path d="M0 117.72 L11.34 117.72" class="st3"/></g><g id="shape21-36" transform="translate(333.954,12.3386) rotate(90)"><title content="structured text">Signal 0.105</title><path d="M0 117.72 L11.34 117.72 L0 117.72 Z" class="st2"/><path d="M0 117.72 L11.34 117.72" class="st3"/></g><g id="group22-39" transform="translate(12.1386,-11.8386)"><title content="structured text">Sheet.22</title><g id="shape23-40" transform="translate(11.3386,0)"><title content="structured text">Rectangle No Fill No Fill.116</title><desc content="structured text">res0</desc><rect x="0" y="106.382" width="22.6772" height="11.3386" class="st4"/><text x="3.1" y="114.45" class="st5">RES<tspan class="st6">0</tspan></text></g><g id="shape24-44"><title content="structured text">Graphic.117</title><rect x="0" y="106.382" width="11.3386" height="11.3386" class="st7"/></g></g><g id="shape25-46" transform="translate(23.4772,-66.1221)"><title content="structured text">64-bit register.292</title><rect x="0" y="90.1394" width="147.402" height="27.5811" class="st8"/></g><g id="shape35-48" transform="translate(386.312,-94.0433)"><title content="structured text">Sheet.35</title><desc content="structured text">0</desc><text x="3.5" y="114.45" class="st1">0</text></g><g id="group36-50" transform="translate(12.1386,-65.6969)"><title content="structured text">MainOutline+Bit00.298</title><g id="shape37-51"><title content="structured text">Sheet.37</title><rect x="0" y="89.374" width="385.512" height="28.3465" class="st9"/></g><g id="shape38-53"><title content="structured text">Sheet.38</title><rect x="0" y="89.374" width="385.512" height="28.3465" class="st10"/></g></g><g id="group39-55" transform="translate(515.389,12.339) rotate(90)"><title content="structured text">Signal 0.301</title><g id="shape40-56"><title content="structured text">Sheet.40</title><path d="M0 117.72 L11.34 117.72 L0 117.72 Z" class="st11"/></g><g id="shape41-58"><title content="structured text">Sheet.41</title><path d="M0 117.72 L11.34 117.72 L0 117.72 Z" class="st2"/><path d="M0 117.72 L11.34 117.72" class="st3"/></g></g><g id="group42-61" transform="translate(470.034,12.339) rotate(90)"><title content="structured text">Signal 0.302</title><g id="shape43-62"><title content="structured text">Sheet.43</title><path d="M0 117.72 L11.34 117.72 L0 117.72 Z" class="st11"/></g><g id="shape44-64"><title content="structured text">Sheet.44</title><path d="M0 117.72 L11.34 117.72 L0 117.72 Z" class="st2"/><path d="M0 117.72 L11.34 117.72" class="st3"/></g></g><g id="group45-67" transform="translate(288.618,12.339) rotate(90)"><title content="structured text">Signal 0.303</title><g id="shape46-68"><title content="structured text">Sheet.46</title><path d="M0 117.72 L11.34 117.72 L0 117.72 Z" class="st11"/></g><g id="shape47-70"><title content="structured text">Sheet.47</title><path d="M0 117.72 L11.34 117.72 L0 117.72 Z" class="st2"/><path d="M0 117.72 L11.34 117.72" class="st3"/></g></g><g id="group48-73" transform="translate(424.68,12.339) rotate(90)"><title content="structured text">Signal 0.305</title><g id="shape49-74"><title content="structured text">Sheet.49</title><path d="M0 117.72 L11.34 117.72 L0 117.72 Z" class="st11"/></g><g id="shape50-76"><title content="structured text">Sheet.50</title><path d="M0 117.72 L11.34 117.72 L0 117.72 Z" class="st2"/><path d="M0 117.72 L11.34 117.72" class="st3"/></g></g><g id="group51-79" transform="translate(197.909,12.339) rotate(90)"><title content="structured text">Signal 0.306</title><g id="shape52-80"><title content="structured text">Sheet.52</title><path d="M0 117.72 L11.34 117.72 L0 117.72 Z" class="st11"/></g><g id="shape53-82"><title content="structured text">Sheet.53</title><path d="M0 117.72 L11.34 117.72 L0 117.72 Z" class="st2"/><path d="M0 117.72 L11.34 117.72" class="st3"/></g></g><g id="group57-85" transform="translate(197.909,12.339) rotate(90)"><title content="structured text">Signal 0.308</title><g id="shape58-86"><title content="structured text">Sheet.58</title><path d="M0 117.72 L11.34 117.72 L0 117.72 Z" class="st11"/></g><g id="shape59-88"><title content="structured text">Sheet.59</title><path d="M0 117.72 L11.34 117.72 L0 117.72 Z" class="st2"/><path d="M0 117.72 L11.34 117.72" class="st3"/></g></g><g id="group60-91" transform="translate(515.389,12.339) rotate(90)"><title content="structured text">Signal 0.309</title><g id="shape61-92"><title content="structured text">Sheet.61</title><path d="M0 117.72 L11.34 117.72 L0 117.72 Z" class="st11"/></g><g id="shape62-94"><title content="structured text">Sheet.62</title><path d="M0 117.72 L11.34 117.72 L0 117.72 Z" class="st2"/><path d="M0 117.72 L11.34 117.72" class="st3"/></g></g><g id="group66-97" transform="translate(515.389,12.339) rotate(90)"><title content="structured text">Signal 0.311</title><g id="shape67-98"><title content="structured text">Sheet.67</title><path d="M0 117.72 L11.34 117.72 L0 117.72 Z" class="st11"/></g><g id="shape68-100"><title content="structured text">Sheet.68</title><path d="M0 117.72 L11.34 117.72 L0 117.72 Z" class="st2"/><path d="M0 117.72 L11.34 117.72" class="st3"/></g></g><g id="group72-103" transform="translate(424.68,12.339) rotate(90)"><title content="structured text">Signal 0.314</title><g id="shape73-104"><title content="structured text">Sheet.73</title><path d="M0 117.72 L11.34 117.72 L0 117.72 Z" class="st11"/></g><g id="shape74-106"><title content="structured text">Sheet.74</title><path d="M0 117.72 L11.34 117.72 L0 117.72 Z" class="st2"/><path d="M0 117.72 L11.34 117.72" class="st3"/></g></g><g id="group81-109" transform="translate(515.389,12.339) rotate(90)"><title content="structured text">Signal 0.317</title><g id="shape82-110"><title content="structured text">Sheet.82</title><path d="M0 117.72 L11.34 117.72 L0 117.72 Z" class="st11"/></g><g id="shape83-112"><title content="structured text">Sheet.83</title><path d="M0 117.72 L11.34 117.72 L0 117.72 Z" class="st2"/><path d="M0 117.72 L11.34 117.72" class="st3"/></g></g><g id="group87-115" transform="translate(17.8037,-34.5196)"><title content="structured text">Sheet.87</title><g id="shape88-116"><title content="structured text">Sheet.88</title><path d="M0 89.37 L0 117.72 L34.02 117.72 L0 89.37 Z" class="st11"/></g><g id="shape89-118"><title content="structured text">Sheet.89</title><path d="M0 89.37 L0 117.72 L34.02 117.72 L0 89.37 Z" class="st2"/><path d="M0 89.37 L0 117.72 L34.02 117.72" class="st12"/></g></g><g id="group96-121" transform="translate(288.618,12.3386) rotate(90)"><title content="structured text">Signal 0.63</title><g id="shape97-122"><title content="structured text">Sheet.97</title><path d="M0 117.72 L11.34 117.72 L0 117.72 Z" class="st11"/></g><g id="shape98-124"><title content="structured text">Sheet.98</title><path d="M0 117.72 L11.34 117.72 L0 117.72 Z" class="st2"/><path d="M0 117.72 L11.34 117.72" class="st3"/></g></g><g id="group99-127" transform="translate(470.034,12.339) rotate(90)"><title content="structured text">Signal 0.64</title><g id="shape100-128"><title content="structured text">Sheet.100</title><path d="M0 117.72 L11.34 117.72 L0 117.72 Z" class="st11"/></g><g id="shape101-130"><title content="structured text">Sheet.101</title><path d="M0 117.72 L11.34 117.72 L0 117.72 Z" class="st2"/><path d="M0 117.72 L11.34 117.72" class="st3"/></g></g><g id="shape105-133" transform="translate(148.202,-65.6966)"><title content="structured text">Sheet.105</title><desc content="structured text">SERR</desc><rect x="0" y="89.374" width="249.463" height="28.3465" class="st13"/><text x="110.73" y="105.95" class="st1">PADDR</text></g><g id="shape106-136" transform="translate(159.54,-94.0433)"><title content="structured text">64-bit register.2</title><desc content="structured text">31</desc><text x="1.22" y="114.45" class="st1">40</text></g><g id="shape107-138" transform="translate(170.879,-94.0433)"><title content="structured text">64-bit register.293</title><desc content="structured text">31</desc><text x="1.22" y="114.45" class="st1">39</text></g><g id="group111-140" transform="translate(23.4772,-65.7002)"><title content="structured text">Sheet.111</title><g id="shape112-141"><title content="structured text">Sheet.112</title><path d="M0 89.37 L0 117.72 L0 89.37 Z" class="st11"/></g><g id="shape113-143"><title content="structured text">Sheet.113</title><path d="M0 89.37 L0 117.72 L0 89.37 Z" class="st2"/><path d="M0 89.37 L0 117.72" class="st14"/></g></g><g id="shape114-146" transform="translate(379.308,12.3388) rotate(90)"><title content="structured text">Signal 0.294</title><path d="M0 117.72 L11.34 117.72 L0 117.72 Z" class="st2"/><path d="M0 117.72 L11.34 117.72" class="st3"/></g><g id="shape115-149" transform="translate(23.4772,-94.0433)"><title content="structured text">Bit31.358</title><desc content="structured text">62</desc><text x="1.22" y="114.45" class="st1">62</text></g><g id="group237-151" transform="translate(170.879,-65.6933)"><title content="structured text">Sheet.237</title><g id="shape238-152"><title content="structured text">Sheet.238</title><path d="M0 89.37 L0 117.72 L0 89.37 Z" class="st11"/></g><g id="shape239-154"><title content="structured text">Sheet.239</title><path d="M0 89.37 L0 117.72 L0 89.37 Z" class="st2"/><path d="M0 89.37 L0 117.72" class="st14"/></g></g><g id="shape20-157" transform="translate(51.8236,-28.8465)"><title content="structured text">Sheet.20</title><desc content="structured text">NS</desc><rect x="0" y="106.382" width="17.0079" height="11.3386" class="st15"/><text x="2" y="114.45" class="st1">NS</text></g><g id="group75-160" transform="translate(95.1242,-62.6476)"><title content="structured text">Sheet.75</title><g id="group76-161" transform="translate(0,-28.3465)"><title content="structured text">Sheet.76</title><g id="shape77-162" transform="translate(0.999403,-0.142473)"><title content="structured text">Sheet.77</title><rect x="0" y="112.051" width="1.88976" height="5.66929" class="st16"/></g><g id="shape78-164" transform="translate(118.954,131.19) rotate(99.4623)"><title content="structured text">Sheet.78</title><path d="M0 117.28 C0.15 117.49 0.72 117.66 1.15 117.69 C1.58 117.72 1.86 117.61 2.34 117.38 C2.63 117.24 2.98          117.05 3.29 116.93 C4.56 116.43 5.03 116.98 5.75 117.28 L0 117.28 Z" class="st2"/><path d="M0 117.28 C0.15 117.49 0.72 117.66 1.15 117.69 C1.58 117.72 1.86 117.61 2.34 117.38 C2.63 117.24 2.98          117.05 3.29 116.93 C4.56 116.43 5.03 116.98 5.75 117.28" class="st17"/></g><g id="shape79-167" transform="translate(117.064,131.19) rotate(99.4623)"><title content="structured text">Sheet.79</title><path d="M0 117.28 C0.15 117.49 0.72 117.66 1.15 117.69 C1.58 117.72 1.86 117.61 2.34 117.38 C2.63 117.24 2.98          117.05 3.29 116.93 C4.56 116.43 5.03 116.98 5.75 117.28 L0 117.28 Z" class="st2"/><path d="M0 117.28 C0.15 117.49 0.72 117.66 1.15 117.69 C1.58 117.72 1.86 117.61 2.34 117.38 C2.63 117.24 2.98          117.05 3.29 116.93 C4.56 116.43 5.03 116.98 5.75 117.28" class="st17"/></g></g><g id="group80-170"><title content="structured text">Sheet.80</title><g id="shape84-171" transform="translate(0.999403,-0.142473)"><title content="structured text">Sheet.84</title><rect x="0" y="112.051" width="1.88976" height="5.66929" class="st16"/></g><g id="shape85-173" transform="translate(118.954,131.19) rotate(99.4623)"><title content="structured text">Sheet.85</title><path d="M0 117.28 C0.15 117.49 0.72 117.66 1.15 117.69 C1.58 117.72 1.86 117.61 2.34 117.38 C2.63 117.24 2.98          117.05 3.29 116.93 C4.56 116.43 5.03 116.98 5.75 117.28 L0 117.28 Z" class="st2"/><path d="M0 117.28 C0.15 117.49 0.72 117.66 1.15 117.69 C1.58 117.72 1.86 117.61 2.34 117.38 C2.63 117.24 2.98          117.05 3.29 116.93 C4.56 116.43 5.03 116.98 5.75 117.28" class="st17"/></g><g id="shape86-176" transform="translate(117.064,131.19) rotate(99.4623)"><title content="structured text">Sheet.86</title><path d="M0 117.28 C0.15 117.49 0.72 117.66 1.15 117.69 C1.58 117.72 1.86 117.61 2.34 117.38 C2.63 117.24 2.98          117.05 3.29 116.93 C4.56 116.43 5.03 116.98 5.75 117.28 L0 117.28 Z" class="st2"/><path d="M0 117.28 C0.15 117.49 0.72 117.66 1.15 117.69 C1.58 117.72 1.86 117.61 2.34 117.38 C2.63 117.24 2.98          117.05 3.29 116.93 C4.56 116.43 5.03 116.98 5.75 117.28" class="st17"/></g></g></g><g id="group26-179" transform="translate(270.872,-62.7198)"><title content="structured text">Sheet.26</title><g id="group27-180" transform="translate(0,-28.3465)"><title content="structured text">Sheet.27</title><g id="shape28-181" transform="translate(0.999403,-0.142473)"><title content="structured text">Sheet.28</title><rect x="0" y="112.051" width="1.88976" height="5.66929" class="st16"/></g><g id="shape29-183" transform="translate(118.954,131.19) rotate(99.4623)"><title content="structured text">Sheet.29</title><path d="M0 117.28 C0.15 117.49 0.72 117.66 1.15 117.69 C1.58 117.72 1.86 117.61 2.34 117.38 C2.63 117.24 2.98          117.05 3.29 116.93 C4.56 116.43 5.03 116.98 5.75 117.28 L0 117.28 Z" class="st2"/><path d="M0 117.28 C0.15 117.49 0.72 117.66 1.15 117.69 C1.58 117.72 1.86 117.61 2.34 117.38 C2.63 117.24 2.98          117.05 3.29 116.93 C4.56 116.43 5.03 116.98 5.75 117.28" class="st17"/></g><g id="shape30-186" transform="translate(117.064,131.19) rotate(99.4623)"><title content="structured text">Sheet.30</title><path d="M0 117.28 C0.15 117.49 0.72 117.66 1.15 117.69 C1.58 117.72 1.86 117.61 2.34 117.38 C2.63 117.24 2.98          117.05 3.29 116.93 C4.56 116.43 5.03 116.98 5.75 117.28 L0 117.28 Z" class="st2"/><path d="M0 117.28 C0.15 117.49 0.72 117.66 1.15 117.69 C1.58 117.72 1.86 117.61 2.34 117.38 C2.63 117.24 2.98          117.05 3.29 116.93 C4.56 116.43 5.03 116.98 5.75 117.28" class="st17"/></g></g><g id="group31-189"><title content="structured text">Sheet.31</title><g id="shape32-190" transform="translate(0.999403,-0.142473)"><title content="structured text">Sheet.32</title><rect x="0" y="112.051" width="1.88976" height="5.66929" class="st16"/></g><g id="shape33-192" transform="translate(118.954,131.19) rotate(99.4623)"><title content="structured text">Sheet.33</title><path d="M0 117.28 C0.15 117.49 0.72 117.66 1.15 117.69 C1.58 117.72 1.86 117.61 2.34 117.38 C2.63 117.24 2.98          117.05 3.29 116.93 C4.56 116.43 5.03 116.98 5.75 117.28 L0 117.28 Z" class="st2"/><path d="M0 117.28 C0.15 117.49 0.72 117.66 1.15 117.69 C1.58 117.72 1.86 117.61 2.34 117.38 C2.63 117.24 2.98          117.05 3.29 116.93 C4.56 116.43 5.03 116.98 5.75 117.28" class="st17"/></g><g id="shape34-195" transform="translate(117.064,131.19) rotate(99.4623)"><title content="structured text">Sheet.34</title><path d="M0 117.28 C0.15 117.49 0.72 117.66 1.15 117.69 C1.58 117.72 1.86 117.61 2.34 117.38 C2.63 117.24 2.98          117.05 3.29 116.93 C4.56 116.43 5.03 116.98 5.75 117.28 L0 117.28 Z" class="st2"/><path d="M0 117.28 C0.15 117.49 0.72 117.66 1.15 117.69 C1.58 117.72 1.86 117.61 2.34 117.38 C2.63 117.24 2.98          117.05 3.29 116.93 C4.56 116.43 5.03 116.98 5.75 117.28" class="st17"/></g></g></g></g></svg>