<?xml version="1.0" encoding="UTF-8" standalone="no"?><!-- Fixed up by svgfix.xsl 1.4  --><!-- Generated by Microsoft Visio 11.0, SVG Export, v1.0 trcitidatar_bit_assignments.svg ARM -->
<!DOCTYPE svg
  PUBLIC "-//W3C//DTD SVG 1.0//EN" "http://www.w3.org/TR/2001/REC-SVG-20010904/DTD/svg10.dtd">
<svg xmlns:xlink="http://www.w3.org/1999/xlink" xmlns="http://www.w3.org/2000/svg" xmlns:ev="http://www.w3.org/2001/xml-events" width="516.149" height="167.299" viewBox="0 0 387.112 125.474" xml:space="preserve" color-interpolation-filters="sRGB" class="st14" preserveAspectRatio="xMidYMid meet" zoomAndPan="magnify" version="1.0" contentScriptType="text/ecmascript" contentStyleType="text/css"><style type="text/css" xml:space="preserve"><![CDATA[
	
		.st1 {fill:#eed9b3;stroke:#000000;stroke-linecap:butt;stroke-width:0.5px}
		.st2 {fill:#ffffff;stroke:none;stroke-linecap:round;stroke-linejoin:round;stroke-width:0.2px}
		.st3 {fill:#000000;font-family:Arial,Helvetica,sans-serif;font-size:0.666664em}
		.st4 {fill:#ffffff;visibility:hidden}
		.st5 {stroke:#000000;stroke-linecap:butt;stroke-width:0.8px}
		.st6 {stroke:#000000;stroke-dasharray:0.25,1;stroke-linecap:butt;stroke-width:0.25px}
		.st7 {fill:none;stroke:none;stroke-linecap:butt;stroke-width:0.5px}
		.st8 {font-size:1em}
		.st9 {stroke:#000000;stroke-linecap:butt;stroke-width:0.5px}
		.st10 {fill:none;stroke:none;stroke-linecap:butt;stroke-width:0.499999px}
		.st11 {fill:#000000;font-family:Arial,Helvetica,sans-serif;font-size:0.533318em}
		.st12 {font-size:1.25003em}
		.st13 {fill:#eed9b3;stroke:none;stroke-linecap:round;stroke-linejoin:round;stroke-width:0.2px}
		.st14 {fill:none;fill-rule:evenodd;font-size:12px;overflow:visible;stroke-linecap:square;stroke-miterlimit:3}]]></style><g xmlns:v="http://schemas.microsoft.com/visio/2003/SVGExtensions/"><title content="structured text">ARM</title><g id="shape1-1" transform="translate(12.1386,-74.2008)"><title content="structured text">Sheet.1</title><rect x="0" y="97.128" width="306.142" height="28.3465" class="st1"/></g><g id="shape119-3" transform="translate(318.28,-74.2008)"><title content="structured text">Sheet.119</title><rect x="0" y="97.128" width="56.6929" height="28.3465" class="st2"/></g><g id="shape4-5" transform="translate(12.1386,-102.547)"><title content="structured text">Sheet.4</title><desc content="structured text">31</desc><text x="1.22" y="122.21" class="st3">31</text></g><g id="shape35-7" transform="translate(363.635,-102.547)"><title content="structured text">Sheet.35</title><desc content="structured text">0</desc><text x="3.44" y="122.21" class="st3">0</text></g><g id="shape66-9" transform="translate(12.1386,-74.2008)"><title content="structured text">Sheet.66</title><rect x="0" y="97.128" width="362.835" height="28.3465" class="st4"/><rect x="0" y="97.128" width="362.835" height="28.3465" class="st5"/></g><g id="shape98-12" transform="translate(455.093,11.5886) rotate(90)"><title content="structured text">Signal 0</title><path d="M0 125.47 L11.34 125.47" class="st6"/></g><g id="shape99-15" transform="translate(409.739,11.5886) rotate(90)"><title content="structured text">Signal 0.102</title><path d="M0 125.47 L11.34 125.47" class="st6"/></g><g id="shape100-18" transform="translate(364.385,11.5886) rotate(90)"><title content="structured text">Signal 0.103</title><path d="M0 125.47 L11.34 125.47" class="st6"/></g><g id="shape101-21" transform="translate(319.03,11.5886) rotate(90)"><title content="structured text">Signal 0.104</title><path d="M0 125.47 L11.34 125.47" class="st6"/></g><g id="shape102-24" transform="translate(273.676,11.5886) rotate(90)"><title content="structured text">Signal 0.105</title><path d="M0 125.47 L11.34 125.47" class="st6"/></g><g id="shape103-27" transform="translate(228.322,11.5886) rotate(90)"><title content="structured text">Signal 0.106</title><path d="M0 125.47 L11.34 125.47" class="st6"/></g><g id="shape104-30" transform="translate(182.967,11.5886) rotate(90)"><title content="structured text">Signal 0.107</title><path d="M0 125.47 L11.34 125.47" class="st6"/></g><g id="shape105-33" transform="translate(137.613,11.5886) rotate(90)"><title content="structured text">Signal 0.108</title><path d="M0 125.47 L11.34 125.47" class="st6"/></g><g id="shape106-36" transform="translate(500.448,11.5886) rotate(90)"><title content="structured text">Signal 0.109</title><path d="M0 125.47 L11.34 125.47" class="st6"/></g><g id="shape120-39" transform="translate(352.296,-74.2008)"><title content="structured text">Sheet.120</title><path d="M0 97.13 L0 125.47" class="st5"/></g><g id="shape122-42" transform="translate(340.957,-102.547)"><title content="structured text">Sheet.122</title><desc content="structured text">2</desc><text x="3.44" y="122.21" class="st3">2</text></g><g id="shape123-44" transform="translate(352.296,-102.547)"><title content="structured text">Sheet.123</title><desc content="structured text">1</desc><text x="3.44" y="122.21" class="st3">1</text></g><g id="shape5-46" transform="translate(253.083,-56.9279)"><title content="structured text">Sheet.5</title><desc content="structured text">ATDATAM[31]</desc><rect x="0" y="113.871" width="58.8442" height="11.6036" class="st7"/><text x="6.28" y="122.07" class="st3">ATDATAM<tspan class="st8">[</tspan><tspan class="st8">31</tspan><tspan class="st8">]</tspan></text></g><g id="shape6-52" transform="translate(312.611,-62.8622)"><title content="structured text">Sheet.6</title><path d="M0 125.47 L11.34 125.47 L11.34 116.97" class="st9"/></g><g id="shape124-55" transform="translate(363.635,-74.2008)"><title content="structured text">Sheet.124</title><path d="M0 97.13 L0 125.47" class="st5"/></g><g id="shape125-58" transform="translate(340.957,-74.2008)"><title content="structured text">Sheet.125</title><path d="M0 97.13 L0 125.47" class="st5"/></g><g id="shape126-61" transform="translate(329.619,-74.2008)"><title content="structured text">Sheet.126</title><path d="M0 97.13 L0 125.47" class="st5"/></g><g id="shape127-64" transform="translate(318.28,-74.2008)"><title content="structured text">Sheet.127</title><path d="M0 97.13 L0 125.47" class="st5"/></g><g id="shape128-67" transform="translate(329.619,-102.547)"><title content="structured text">Sheet.128</title><desc content="structured text">3</desc><text x="3.44" y="122.21" class="st3">3</text></g><g id="shape129-69" transform="translate(318.28,-102.547)"><title content="structured text">Sheet.129</title><desc content="structured text">4</desc><text x="3.44" y="122.21" class="st3">4</text></g><g id="shape130-71" transform="translate(306.942,-102.547)"><title content="structured text">Sheet.130</title><desc content="structured text">5</desc><text x="3.44" y="122.21" class="st3">5</text></g><g id="shape131-73" transform="translate(312.611,-51.5236)"><title content="structured text">Sheet.131</title><path d="M0 125.47 L22.68 125.47 L22.68 105.63" class="st9"/></g><g id="shape132-76" transform="translate(312.611,-40.185)"><title content="structured text">Sheet.132</title><path d="M0 125.47 L34.02 125.47 L34.02 94.29" class="st9"/></g><g id="shape133-79" transform="translate(312.611,-28.8465)"><title content="structured text">Sheet.133</title><path d="M0 125.47 L45.35 125.47 L45.35 82.95" class="st9"/></g><g id="shape134-82" transform="translate(312.611,-17.5079)"><title content="structured text">Sheet.134</title><path d="M0 125.47 L56.69 125.47 L56.69 71.62" class="st9"/></g><g id="shape135-85" transform="translate(241.745,-45.7218)"><title content="structured text">Sheet.135</title><desc content="structured text">ATDATAM[23]</desc><rect x="0" y="113.871" width="70.1827" height="11.6036" class="st7"/><text x="17.62" y="122.07" class="st3">ATDATAM<tspan class="st8">[</tspan><tspan class="st8">23</tspan><tspan class="st8">]</tspan></text></g><g id="shape136-91" transform="translate(244.58,-34.3833)"><title content="structured text">Sheet.136</title><desc content="structured text">ATDATAM[15]</desc><rect x="0" y="113.871" width="67.3481" height="11.6036" class="st7"/><text x="14.78" y="122.07" class="st3">ATDATAM<tspan class="st8">[</tspan><tspan class="st8">15</tspan><tspan class="st8">]</tspan></text></g><g id="shape137-97" transform="translate(236.076,-23.0447)"><title content="structured text">Sheet.137</title><desc content="structured text">ATDATAM[7]</desc><rect x="0" y="113.871" width="75.852" height="11.6036" class="st7"/><text x="27.74" y="122.07" class="st3">ATDATAM<tspan class="st8">[</tspan><tspan class="st8">7</tspan><tspan class="st8">]</tspan></text></g><g id="shape138-103" transform="translate(241.745,-11.8386)"><title content="structured text">Sheet.138</title><desc content="structured text">ATDATAM[0]</desc><rect x="0" y="113.871" width="70.1827" height="11.6036" class="st7"/><text x="22.07" y="122.07" class="st3">ATDATAM<tspan class="st8">[</tspan><tspan class="st8">0</tspan><tspan class="st8">]</tspan></text></g><g id="shape2-109" transform="translate(22.5786,-51.5236)"><title content="structured text">Rectangle No Fill No Fill.116</title><desc content="structured text">res0</desc><rect x="0" y="114.136" width="19.8425" height="11.3386" class="st10"/><text x="1.24" y="122.2" class="st11">RES<tspan class="st12">0</tspan></text></g><g id="shape3-113" transform="translate(12.1386,-51.5236)"><title content="structured text">Graphic.117</title><rect x="0" y="114.136" width="10.44" height="11.3386" class="st13"/></g></g></svg>