<?xml version="1.0" encoding="UTF-8" standalone="no"?><!-- Fixed up by svgfix.xsl 1.4  --><!-- Generated by Microsoft Visio 11.0, SVG Export, v1.0 AMXEVTYPER_EL0_bit_assignments.svg ARM -->
<!DOCTYPE svg
  PUBLIC "-//W3C//DTD SVG 1.0//EN" "http://www.w3.org/TR/2001/REC-SVG-20010904/DTD/svg10.dtd">
<svg xmlns:xlink="http://www.w3.org/1999/xlink" xmlns="http://www.w3.org/2000/svg" xmlns:ev="http://www.w3.org/2001/xml-events" width="516.147" height="125.252" viewBox="0 0 387.11 93.939" xml:space="preserve" color-interpolation-filters="sRGB" class="st10" preserveAspectRatio="xMidYMid meet" zoomAndPan="magnify" version="1.0" contentScriptType="text/ecmascript" contentStyleType="text/css"><style type="text/css" xml:space="preserve"><![CDATA[
	
		.st1 {fill:#eed9b3;stroke:none;stroke-linecap:round;stroke-linejoin:round;stroke-width:0.2px}
		.st2 {fill:none}
		.st3 {stroke:#000000;stroke-linecap:butt;stroke-width:0.799997px}
		.st4 {stroke:#000000;stroke-dasharray:0.249999,0.499999;stroke-linecap:butt;stroke-width:0.249999px}
		.st5 {fill:none;stroke:none;stroke-linecap:butt;stroke-width:0.499999px}
		.st6 {fill:#000000;font-family:Arial,Helvetica,sans-serif;font-size:0.666664em}
		.st7 {fill:#000000;font-family:Arial,Helvetica,sans-serif;font-size:0.533318em}
		.st8 {font-size:1.25003em}
		.st9 {fill:none;stroke:none;stroke-linecap:round;stroke-linejoin:round;stroke-width:0.2px}
		.st10 {fill:none;fill-rule:evenodd;font-size:12px;overflow:visible;stroke-linecap:square;stroke-miterlimit:3}]]></style><g xmlns:v="http://schemas.microsoft.com/visio/2003/SVGExtensions/"><title content="structured text">ARM</title><g id="shape1-1" transform="translate(12.1376,-42.3698)"><title content="structured text">Graphic.8</title><rect x="0" y="65.5925" width="260.787" height="28.3464" class="st1"/></g><g id="shape2-3" transform="translate(12.1426,-42.3663)"><title content="structured text">Graphic.11</title><path d="M362.83 65.59 L0 65.59 L0 93.94 L362.83 93.94 L362.83 65.59 Z" class="st2"/><path d="M362.83 65.59 L0 65.59 L0 93.94 L362.83 93.94" class="st3"/></g><g id="shape3-6" transform="translate(12.1376,-69.1843)"><title content="structured text">Graphic.12</title><path d="M0 82.6 L0 93.94 L0 82.6 Z" class="st2"/><path d="M0 82.6 L0 93.94" class="st4"/></g><g id="shape4-9" transform="translate(374.972,-42.3663)"><title content="structured text">Graphic.13</title><path d="M0 65.59 L0 93.94 L0 65.59 Z" class="st2"/><path d="M0 65.59 L0 93.94" class="st3"/></g><g id="shape5-12" transform="translate(374.972,-69.1843)"><title content="structured text">Graphic.20</title><path d="M0 82.6 L0 93.94 L0 82.6 Z" class="st2"/><path d="M0 82.6 L0 93.94" class="st4"/></g><g id="shape6-15" transform="translate(12.1376,-69.1837)"><title content="structured text">Rectangle No Fill No Fill.21</title><desc content="structured text">31</desc><rect x="0" y="82.6004" width="11.3386" height="11.3386" class="st5"/><text x="1.22" y="90.67" class="st6">31</text></g><g id="shape7-18" transform="translate(363.633,-70.7615)"><title content="structured text">Rectangle No Fill No Fill.22</title><desc content="structured text">0</desc><rect x="0" y="82.6004" width="11.3386" height="11.3386" class="st5"/><text x="3.44" y="90.67" class="st6">0</text></g><g id="shape8-21" transform="translate(272.925,-42.4119)"><title content="structured text">Graphic.24</title><path d="M0 65.59 L0 93.94 L0 65.59 Z" class="st2"/><path d="M0 65.59 L0 93.94" class="st3"/></g><g id="group9-24" transform="translate(11.3556,-11.8386)"><title content="structured text">Sheet.9</title><g id="shape10-25" transform="translate(11.3386,1.42109E-014)"><title content="structured text">Rectangle No Fill No Fill.116</title><desc content="structured text">res0</desc><rect x="0" y="82.6004" width="22.6772" height="11.3386" class="st5"/><text x="3.07" y="90.67" class="st7">RES<tspan class="st8">0</tspan></text></g><g id="shape11-29"><title content="structured text">Graphic.117</title><rect x="0" y="82.6004" width="11.3386" height="11.3386" class="st1"/></g></g><g id="shape12-31" transform="translate(272.925,-70.7618)"><title content="structured text">Rectangle No Fill No Fill.14</title><desc content="structured text">7</desc><rect x="0" y="82.6004" width="11.3386" height="11.3386" class="st5"/><text x="3.44" y="90.67" class="st6">9</text></g><g id="shape13-34" transform="translate(272.925,-42.415)"><title content="structured text">Rectangle No Fill No Fill.48</title><desc content="structured text">C</desc><rect x="0" y="65.5925" width="101.252" height="28.3464" class="st9"/><text x="34.61" y="82.17" class="st6">evtCount</text></g><g id="shape14-37" transform="translate(261.586,-70.7618)"><title content="structured text">Rectangle No Fill No Fill.9</title><desc content="structured text">7</desc><rect x="0" y="82.6004" width="11.3386" height="11.3386" class="st5"/><text x="1.22" y="90.67" class="st6">10</text></g></g></svg>