<?xml version="1.0" encoding="UTF-8" standalone="no"?><!-- Fixed up by svgfix.xsl 1.4  --><!-- Generated by Microsoft Visio, SVG Export CPUECTLR_EL1_bit_assignments_LowRes.svg ARM -->
<!DOCTYPE svg
  PUBLIC "-//W3C//DTD SVG 1.0//EN" "http://www.w3.org/TR/2001/REC-SVG-20010904/DTD/svg10.dtd">
<svg xmlns:xlink="http://www.w3.org/1999/xlink" xmlns="http://www.w3.org/2000/svg" xmlns:ev="http://www.w3.org/2001/xml-events" width="744.567" height="587.343" viewBox="0 0 558.425 440.508" xml:space="preserve" color-interpolation-filters="sRGB" class="st10" preserveAspectRatio="xMidYMid meet" zoomAndPan="magnify" version="1.1" contentScriptType="application/ecmascript" contentStyleType="text/css"><style type="text/css" xml:space="preserve"><![CDATA[
	
		.st1 {fill:#eed9b3;stroke:none;stroke-linecap:round;stroke-linejoin:round;stroke-width:0.2px}
		.st2 {fill:#ffffff;visibility:hidden}
		.st3 {stroke:#000000;stroke-linecap:butt;stroke-width:0.8px}
		.st4 {stroke:#000000;stroke-dasharray:0.25,1;stroke-linecap:butt;stroke-width:0.25px}
		.st5 {fill:#000000;font-family:Arial,Helvetica,sans-serif;font-size:0.666664em}
		.st6 {fill:none;stroke:none;stroke-linecap:butt;stroke-width:0.499999px}
		.st7 {fill:#000000;font-family:Arial,Helvetica,sans-serif;font-size:0.533318em}
		.st8 {font-size:1.25003em}
		.st9 {stroke:#000000;stroke-linecap:butt;stroke-width:0.5px}
		.st10 {fill:none;fill-rule:evenodd;font-size:12px;overflow:visible;stroke-linecap:square;stroke-miterlimit:3}]]></style><g xmlns:v="http://schemas.microsoft.com/visio/2003/SVGExtensions/"><title>ARM</title><g id="shape514-1" transform="translate(379.843,-187.587)"><title>Graphic.514</title><rect x="0" y="412.161" width="11.3386" height="28.3464" class="st1"/></g><g id="shape229-3" transform="translate(323.15,-187.587)"><title>Graphic.229</title><rect x="0" y="412.161" width="34.0157" height="28.3464" class="st1"/></g><g id="shape486-5" transform="translate(289.134,-187.587)"><title>Graphic.486</title><rect x="0" y="412.161" width="11.3386" height="28.3464" class="st1"/></g><g id="shape230-7" transform="translate(141.732,-187.587)"><title>Graphic.230</title><rect x="0" y="412.161" width="11.3386" height="28.3464" class="st1"/></g><g id="shape479-9" transform="translate(436.535,-388.846)"><title>Graphic.479</title><rect x="0" y="412.161" width="11.3386" height="28.3464" class="st1"/></g><g id="shape478-11" transform="translate(334.488,-388.846)"><title>Graphic.478</title><rect x="0" y="412.161" width="11.3386" height="28.3464" class="st1"/></g><g id="shape475-13" transform="translate(300.472,-388.846)"><title>Graphic.475</title><rect x="0" y="412.161" width="22.6772" height="28.3464" class="st1"/></g><g id="shape446-15" transform="translate(96.378,-388.846)"><title>Graphic.446</title><rect x="0" y="412.161" width="22.6772" height="28.3464" class="st1"/></g><g id="shape67-17" transform="translate(266.457,-187.587)"><title>Graphic.67</title><rect x="0" y="412.161" width="11.3386" height="28.3464" class="st1"/></g><g id="shape52-19" transform="translate(425.197,-187.587)"><title>Graphic.52</title><rect x="0" y="412.161" width="22.6772" height="28.3464" class="st1"/></g><g id="shape2-21" transform="translate(96.378,-187.357)"><title>64-bit register</title><rect x="0" y="412.161" width="362.835" height="28.3465" class="st2"/><rect x="0" y="412.161" width="362.835" height="28.3465" class="st3"/></g><g id="shape3-24" transform="translate(899.72,213.236) rotate(90)"><title>Signal 0.109</title><path d="M0 440.51 L11.34 440.51" class="st4"/></g><g id="shape4-27" transform="translate(536.886,213.236) rotate(90)"><title>Signal 0.80</title><path d="M0 440.51 L11.34 440.51" class="st4"/></g><g id="shape5-30" transform="translate(672.949,213.236) rotate(90)"><title>Signal 0.81</title><path d="M0 440.51 L11.34 440.51" class="st4"/></g><g id="shape6-33" transform="translate(718.303,213.465) rotate(90)"><title>Signal 0.82</title><path d="M0 440.51 L11.34 440.51" class="st4"/></g><g id="shape7-36" transform="translate(718.303,213.236) rotate(90)"><title>Signal 0.83</title><path d="M0 440.51 L11.34 440.51" class="st4"/></g><g id="shape8-39" transform="translate(809.012,213.236) rotate(90)"><title>Signal 0.84</title><path d="M0 440.51 L11.34 440.51" class="st4"/></g><g id="shape9-42" transform="translate(582.24,213.465) rotate(90)"><title>Signal 0.85</title><path d="M0 440.51 L11.34 440.51" class="st4"/></g><g id="shape10-45" transform="translate(763.657,213.236) rotate(90)"><title>Signal 0.86</title><path d="M0 440.51 L11.34 440.51" class="st4"/></g><g id="shape11-48" transform="translate(809.012,213.236) rotate(90)"><title>Signal 0.87</title><path d="M0 440.51 L11.34 440.51" class="st4"/></g><g id="shape12-51" transform="translate(447.874,-215.704)"><title>Bit01.2</title><desc>0</desc><text x="3.44" y="437.24" class="st5">0</text></g><g id="shape13-53" transform="translate(96.378,-215.704)"><title>Bit01.88</title><desc>31</desc><text x="1.22" y="437.24" class="st5">31</text></g><g id="shape14-55" transform="translate(899.72,213.236) rotate(90)"><title>Signal 0.91</title><path d="M0 440.51 L11.34 440.51" class="st4"/></g><g id="shape24-58" transform="translate(854.366,213.236) rotate(90)"><title>Signal 0.56</title><path d="M0 440.51 L11.34 440.51" class="st4"/></g><g id="shape25-61" transform="translate(854.366,213.236) rotate(90)"><title>Signal 0.70</title><path d="M0 440.51 L11.34 440.51" class="st4"/></g><g id="shape26-64" transform="translate(763.657,213.236) rotate(90)"><title>Signal 0.95</title><path d="M0 440.51 L11.34 440.51" class="st4"/></g><g id="shape27-67" transform="translate(672.949,213.236) rotate(90)"><title>Signal 0.96</title><path d="M0 440.51 L11.34 440.51" class="st4"/></g><g id="shape28-70" transform="translate(627.594,213.236) rotate(90)"><title>Signal 0.97</title><path d="M0 440.51 L11.34 440.51" class="st4"/></g><g id="shape29-73" transform="translate(536.886,213.236) rotate(90)"><title>Signal 0.98</title><path d="M0 440.51 L11.34 440.51" class="st4"/></g><g id="shape30-76" transform="translate(582.24,213.465) rotate(90)"><title>Signal 0.99</title><path d="M0 440.51 L11.34 440.51" class="st4"/></g><g id="group31-79" transform="translate(96.378,-11.8386)"><title>Sheet.31</title><g id="shape32-80" transform="translate(11.3386,5.68434E-14)"><title>Rectangle No Fill No Fill.116</title><desc>res0</desc><rect x="0" y="429.169" width="22.6772" height="11.3386" class="st6"/><text x="3.07" y="437.24" class="st7">RES<tspan class="st8">0</tspan></text></g><g id="shape33-84"><title>Graphic.117</title><rect x="0" y="429.169" width="11.3386" height="11.3386" class="st1"/></g></g><g id="shape39-86" transform="translate(391.181,-215.933)"><title>Bit01.39</title><desc>5</desc><text x="3.44" y="437.24" class="st5">5</text></g><g id="shape41-88" transform="translate(391.181,-187.587)"><title>32-bit register.41</title><path d="M0 412.16 L0 440.51" class="st3"/></g><g id="shape42-91" transform="translate(379.843,-215.933)"><title>Bit01.42</title><desc>6</desc><text x="3.44" y="437.24" class="st5">6</text></g><g id="shape43-93" transform="translate(368.504,-215.933)"><title>Bit01.43</title><desc>7</desc><text x="3.44" y="437.24" class="st5">7</text></g><g id="shape44-95" transform="translate(357.165,-215.933)"><title>Bit01.44</title><desc>8</desc><text x="3.44" y="437.24" class="st5">8</text></g><g id="shape45-97" transform="translate(345.827,-215.933)"><title>Bit01.45</title><desc>9</desc><text x="3.44" y="437.24" class="st5">9</text></g><g id="shape47-99" transform="translate(323.15,-215.933)"><title>Bit01.47</title><desc>11</desc><text x="1.22" y="437.24" class="st5">11</text></g><g id="shape48-101" transform="translate(379.843,-187.587)"><title>32-bit register.48</title><path d="M0 412.16 L0 440.51" class="st3"/></g><g id="shape49-104" transform="translate(368.504,-187.587)"><title>32-bit register.49</title><path d="M0 412.16 L0 440.51" class="st3"/></g><g id="shape50-107" transform="translate(413.858,-187.587)"><title>32-bit register.50</title><path d="M0 412.16 L0 440.51" class="st3"/></g><g id="shape51-110" transform="translate(357.165,-187.587)"><title>32-bit register.51</title><path d="M0 412.16 L0 440.51" class="st3"/></g><g id="shape35-113" transform="translate(464.882,-179.083) scale(-1,1)"><title>Bit name 2</title><desc>EXTLLC</desc><path d="M11.34 434.84 L11.34 440.51 L0 440.51" class="st9"/><text x="1" y="442.91" transform="scale(-1,1)" class="st5">EXTLLC</text></g><g id="shape57-117" transform="translate(436.535,-215.933)"><title>Bit01.57</title><desc>1</desc><text x="3.44" y="437.24" class="st5">1</text></g><g id="shape40-119" transform="translate(255.118,-215.933)"><title>Bit01.40</title><desc>17</desc><text x="1.22" y="437.24" class="st5">17</text></g><g id="shape53-121" transform="translate(266.457,-187.587)"><title>32-bit register.53</title><path d="M0 412.16 L0 440.51" class="st3"/></g><g id="shape54-124" transform="translate(232.441,-215.933)"><title>Bit01.54</title><desc>19</desc><text x="1.22" y="437.24" class="st5">19</text></g><g id="shape55-126" transform="translate(243.78,-215.933)"><title>Bit01.55</title><desc>18</desc><text x="1.22" y="437.24" class="st5">18</text></g><g id="shape56-128" transform="translate(221.102,-215.933)"><title>Bit01.56</title><desc>20</desc><text x="1.22" y="437.24" class="st5">20</text></g><g id="shape59-130" transform="translate(209.764,-215.933)"><title>Bit01.59</title><desc>21</desc><text x="1.22" y="437.24" class="st5">21</text></g><g id="shape61-132" transform="translate(198.425,-215.933)"><title>Bit01.61</title><desc>22</desc><text x="1.22" y="437.24" class="st5">22</text></g><g id="shape62-134" transform="translate(187.087,-215.933)"><title>Bit01.62</title><desc>23</desc><text x="1.22" y="437.24" class="st5">23</text></g><g id="shape63-136" transform="translate(175.748,-215.933)"><title>Bit01.63</title><desc>24</desc><text x="1.22" y="437.24" class="st5">24</text></g><g id="shape64-138" transform="translate(209.764,-187.587)"><title>32-bit register.64</title><path d="M0 412.16 L0 440.51" class="st3"/></g><g id="shape65-141" transform="translate(255.118,-187.587)"><title>32-bit register.65</title><path d="M0 412.16 L0 440.51" class="st3"/></g><g id="shape66-144" transform="translate(187.087,-187.587)"><title>32-bit register.66</title><path d="M0 412.16 L0 440.51" class="st3"/></g><g id="shape71-147" transform="translate(141.732,-122.39)"><title>Bit name 1.71</title><desc>DTLB_CABT_EN</desc><path d="M17.01 378.15 L17.01 440.51 L0 440.51" class="st9"/><text x="-62.8" y="442.91" class="st5">DTLB_CABT_EN  </text></g><g id="shape72-151" transform="translate(153.071,-99.7126)"><title>Bit name 1.72</title><desc>WS_THR_L2</desc><path d="M22.68 355.47 L22.68 440.51 L0 440.51" class="st9"/><text x="-48.12" y="442.91" class="st5">WS_THR_L2</text></g><g id="shape73-155" transform="translate(153.071,-88.374)"><title>Bit name 1.73</title><desc>WS_THR_L3</desc><path d="M45.35 344.13 L45.35 440.51 L0 440.51" class="st9"/><text x="-48.12" y="442.91" class="st5">WS_THR_L3</text></g><g id="shape74-159" transform="translate(153.071,-77.0354)"><title>Bit name 1.74</title><desc>WS_THR_L4</desc><path d="M68.03 332.79 L68.03 440.51 L0 440.51" class="st9"/><text x="-48.12" y="442.91" class="st5">WS_THR_L4</text></g><g id="shape75-163" transform="translate(153.071,-65.6968)"><title>Bit name 1.75</title><desc>WS_THR_DRAM</desc><path d="M90.71 321.45 L90.71 440.51 L0 440.51" class="st9"/><text x="-62.78" y="442.91" class="st5">WS_THR_DRAM</text></g><g id="shape80-167" transform="translate(413.858,-215.933)"><title>Bit01.80</title><desc>3</desc><text x="3.44" y="437.24" class="st5">3</text></g><g id="shape81-169" transform="translate(447.874,-187.587)"><title>32-bit register.81</title><path d="M0 412.16 L0 440.51" class="st3"/></g><g id="shape82-172" transform="translate(402.52,-215.933)"><title>Bit01.82</title><desc>4</desc><text x="3.44" y="437.24" class="st5">4</text></g><g id="shape83-174" transform="translate(402.52,-187.587)"><title>32-bit register.83</title><path d="M0 412.16 L0 440.51" class="st3"/></g><g id="shape84-177" transform="translate(153.071,-54.3583)"><title>Bit name 1.84</title><desc>WS_THR_DCZVA</desc><path d="M107.72 310.11 L107.72 440.51 L0 440.51" class="st9"/><text x="-66.34" y="442.91" class="st5">WS_THR_DCZVA</text></g><g id="shape85-181" transform="translate(277.795,-215.933)"><title>Bit01.85</title><desc>15</desc><text x="1.22" y="437.24" class="st5">15</text></g><g id="shape86-183" transform="translate(277.795,-187.587)"><title>32-bit register.86</title><path d="M0 412.16 L0 440.51" class="st3"/></g><g id="shape87-186" transform="translate(266.457,-215.933)"><title>Bit01.87</title><desc>16</desc><text x="1.22" y="437.24" class="st5">16</text></g><g id="shape231-188" transform="translate(130.394,-388.846)"><title>Graphic.231</title><rect x="0" y="412.161" width="22.6772" height="28.3464" class="st1"/></g><g id="shape232-190" transform="translate(96.378,-389.005)"><title>64-bit register.232</title><rect x="0" y="412.161" width="362.835" height="28.3465" class="st2"/><rect x="0" y="412.161" width="362.835" height="28.3465" class="st3"/></g><g id="shape233-193" transform="translate(899.72,11.5886) rotate(90)"><title>Signal 0.233</title><path d="M0 440.51 L11.34 440.51" class="st4"/></g><g id="shape234-196" transform="translate(718.303,11.8179) rotate(90)"><title>Signal 0.234</title><path d="M0 440.51 L11.34 440.51" class="st4"/></g><g id="shape235-199" transform="translate(672.949,11.8179) rotate(90)"><title>Signal 0.235</title><path d="M0 440.51 L11.34 440.51" class="st4"/></g><g id="shape236-202" transform="translate(763.657,11.5886) rotate(90)"><title>Signal 0.236</title><path d="M0 440.51 L11.34 440.51" class="st4"/></g><g id="shape237-205" transform="translate(718.303,11.5886) rotate(90)"><title>Signal 0.237</title><path d="M0 440.51 L11.34 440.51" class="st4"/></g><g id="shape238-208" transform="translate(854.366,11.5886) rotate(90)"><title>Signal 0.238</title><path d="M0 440.51 L11.34 440.51" class="st4"/></g><g id="shape239-211" transform="translate(809.012,11.8179) rotate(90)"><title>Signal 0.239</title><path d="M0 440.51 L11.34 440.51" class="st4"/></g><g id="shape240-214" transform="translate(763.657,11.5886) rotate(90)"><title>Signal 0.240</title><path d="M0 440.51 L11.34 440.51" class="st4"/></g><g id="shape241-217" transform="translate(536.886,11.5886) rotate(90)"><title>Signal 0.241</title><path d="M0 440.51 L11.34 440.51" class="st4"/></g><g id="shape243-220" transform="translate(96.378,-417.351)"><title>Bit01.243</title><desc>63</desc><text x="1.22" y="437.24" class="st5">63</text></g><g id="shape244-222" transform="translate(763.657,11.5886) rotate(90)"><title>Signal 0.244</title><path d="M0 440.51 L11.34 440.51" class="st4"/></g><g id="shape254-225" transform="translate(809.012,11.5886) rotate(90)"><title>Signal 0.254</title><path d="M0 440.51 L11.34 440.51" class="st4"/></g><g id="shape255-228" transform="translate(627.594,11.5886) rotate(90)"><title>Signal 0.255</title><path d="M0 440.51 L11.34 440.51" class="st4"/></g><g id="shape256-231" transform="translate(672.949,11.5886) rotate(90)"><title>Signal 0.256</title><path d="M0 440.51 L11.34 440.51" class="st4"/></g><g id="shape257-234" transform="translate(627.594,11.8179) rotate(90)"><title>Signal 0.257</title><path d="M0 440.51 L11.34 440.51" class="st4"/></g><g id="shape258-237" transform="translate(672.949,11.8179) rotate(90)"><title>Signal 0.258</title><path d="M0 440.51 L11.34 440.51" class="st4"/></g><g id="shape259-240" transform="translate(536.886,11.5886) rotate(90)"><title>Signal 0.259</title><path d="M0 440.51 L11.34 440.51" class="st4"/></g><g id="shape260-243" transform="translate(582.24,11.5886) rotate(90)"><title>Signal 0.260</title><path d="M0 440.51 L11.34 440.51" class="st4"/></g><g id="shape262-246" transform="translate(141.732,-187.587)"><title>32-bit register.262</title><path d="M0 412.16 L0 440.51" class="st3"/></g><g id="shape267-249" transform="translate(447.874,-417.581)"><title>Bit01.267</title><desc>32</desc><text x="1.22" y="437.24" class="st5">32</text></g><g id="shape268-251" transform="translate(436.535,-417.581)"><title>Bit01.268</title><desc>33</desc><text x="1.22" y="437.24" class="st5">33</text></g><g id="shape269-253" transform="translate(130.394,-187.587)"><title>32-bit register.269</title><path d="M0 412.16 L0 440.51" class="st3"/></g><g id="shape270-256" transform="translate(119.055,-187.587)"><title>32-bit register.270</title><path d="M0 412.16 L0 440.51" class="st3"/></g><g id="shape271-259" transform="translate(107.717,-187.587)"><title>32-bit register.271</title><path d="M0 412.16 L0 440.51" class="st3"/></g><g id="shape272-262" transform="translate(447.874,-389.234)"><title>32-bit register.272</title><path d="M0 412.16 L0 440.51" class="st3"/></g><g id="shape273-265" transform="translate(464.882,-380.343) scale(-1,1)"><title>Bit name 2.273</title><desc>ATOMIC_ACQ_NEAR</desc><path d="M11.34 434.84 L11.34 440.51 L0 440.51" class="st9"/><text x="1" y="442.91" transform="scale(-1,1)" class="st5">ATOMIC_ACQ_NEAR</text></g><g id="shape275-269" transform="translate(164.409,-187.587)"><title>32-bit register.275</title><path d="M0 412.16 L0 440.51" class="st3"/></g><g id="shape276-272" transform="translate(436.535,-389.234)"><title>32-bit register.276</title><path d="M0 412.16 L0 440.51" class="st3"/></g><g id="shape277-275" transform="translate(402.52,-417.581)"><title>Bit01.277</title><desc>36</desc><text x="1.22" y="437.24" class="st5">36</text></g><g id="shape278-277" transform="translate(413.858,-388.846)"><title>32-bit register.278</title><path d="M0 412.16 L0 440.51" class="st3"/></g><g id="shape279-280" transform="translate(379.843,-417.581)"><title>Bit01.279</title><desc>38</desc><text x="1.22" y="437.24" class="st5">38</text></g><g id="shape280-282" transform="translate(391.181,-417.581)"><title>Bit01.280</title><desc>37</desc><text x="1.22" y="437.24" class="st5">37</text></g><g id="shape281-284" transform="translate(368.504,-417.581)"><title>Bit01.281</title><desc>39</desc><text x="1.22" y="437.24" class="st5">39</text></g><g id="shape282-286" transform="translate(357.165,-417.581)"><title>Bit01.282</title><desc>40</desc><text x="1.22" y="437.24" class="st5">40</text></g><g id="shape283-288" transform="translate(345.827,-417.581)"><title>Bit01.283</title><desc>41</desc><text x="1.22" y="437.24" class="st5">41</text></g><g id="shape284-290" transform="translate(334.488,-417.581)"><title>Bit01.284</title><desc>42</desc><text x="1.22" y="437.24" class="st5">42</text></g><g id="shape285-292" transform="translate(323.15,-417.581)"><title>Bit01.285</title><desc>43</desc><text x="1.22" y="437.24" class="st5">43</text></g><g id="shape286-294" transform="translate(368.504,-389.234)"><title>32-bit register.286</title><path d="M0 412.16 L0 440.51" class="st3"/></g><g id="shape287-297" transform="translate(391.181,-389.234)"><title>32-bit register.287</title><path d="M0 412.16 L0 440.51" class="st3"/></g><g id="shape288-300" transform="translate(334.488,-389.234)"><title>32-bit register.288</title><path d="M0 412.16 L0 440.51" class="st3"/></g><g id="shape289-303" transform="translate(192.756,-346.327)"><title>Bit name 1.289</title><desc>MM_VMID_THR</desc><path d="M11.34 400.82 L11.34 440.51 L0 440.51" class="st9"/><text x="-59.67" y="442.91" class="st5">MM_VMID_THR</text></g><g id="shape290-307" transform="translate(192.756,-334.988)"><title>Bit name 1.290</title><desc>MM_ASP_EN</desc><path d="M22.68 389.48 L22.68 440.51 L0 440.51" class="st9"/><text x="-50.35" y="442.91" class="st5">MM_ASP_EN</text></g><g id="shape291-311" transform="translate(192.756,-323.65)"><title>Bit name 1.291</title><desc>MM_CH_DIS</desc><path d="M34.02 378.15 L34.02 440.51 L0 440.51" class="st9"/><text x="-48.12" y="442.91" class="st5">MM_CH_DIS</text></g><g id="shape292-315" transform="translate(113.386,-380.343)"><title>Bit name 1.292</title><desc>MXP_EN</desc><path d="M11.34 434.84 L11.34 440.51 L0 440.51" class="st9"/><text x="-33.9" y="442.91" class="st5">MXP_EN</text></g><g id="shape293-319" transform="translate(113.386,-369.004)"><title>Bit name 1.293</title><desc>MXP_TP</desc><path d="M51.02 423.5 L51.02 440.51 L0 440.51" class="st9"/><text x="-33.01" y="442.91" class="st5">MXP_TP</text></g><g id="shape294-323" transform="translate(113.386,-357.665)"><title>Bit name 1.294</title><desc>MXP_ATHR</desc><path d="M73.7 412.16 L73.7 440.51 L0 440.51" class="st9"/><text x="-44.56" y="442.91" class="st5">MXP_ATHR</text></g><g id="shape298-327" transform="translate(232.441,-187.587)"><title>32-bit register.298</title><path d="M0 412.16 L0 440.51" class="st3"/></g><g id="shape300-330" transform="translate(153.071,-187.587)"><title>32-bit register.300</title><path d="M0 412.16 L0 440.51" class="st3"/></g><g id="shape302-333" transform="translate(425.197,-417.581)"><title>Bit01.302</title><desc>34</desc><text x="1.22" y="437.24" class="st5">34</text></g><g id="shape303-335" transform="translate(425.197,-389.234)"><title>32-bit register.303</title><path d="M0 412.16 L0 440.51" class="st3"/></g><g id="shape304-338" transform="translate(413.858,-417.581)"><title>Bit01.304</title><desc>35</desc><text x="1.22" y="437.24" class="st5">35</text></g><g id="shape442-340" transform="translate(107.717,-417.193)"><title>Bit01.442</title><desc>62</desc><text x="1.22" y="437.24" class="st5">62</text></g><g id="shape443-342" transform="translate(119.055,-388.846)"><title>32-bit register.443</title><path d="M0 412.16 L0 440.51" class="st3"/></g><g id="shape444-345" transform="translate(153.071,-388.846)"><title>32-bit register.444</title><path d="M0 412.16 L0 440.51" class="st3"/></g><g id="shape445-348" transform="translate(130.394,-388.846)"><title>32-bit register.445</title><path d="M0 412.16 L0 440.51" class="st3"/></g><g id="shape447-351" transform="translate(119.055,-417.193)"><title>Bit01.447</title><desc>61</desc><text x="1.22" y="437.24" class="st5">61</text></g><g id="shape448-353" transform="translate(130.394,-417.193)"><title>Bit01.448</title><desc>60</desc><text x="1.22" y="437.24" class="st5">60</text></g><g id="shape449-355" transform="translate(141.732,-417.193)"><title>Bit01.449</title><desc>59</desc><text x="1.22" y="437.24" class="st5">59</text></g><g id="shape450-357" transform="translate(345.827,-388.846)"><title>32-bit register.450</title><path d="M0 412.16 L0 440.51" class="st3"/></g><g id="shape451-360" transform="translate(175.748,-388.846)"><title>32-bit register.451</title><path d="M0 412.16 L0 440.51" class="st3"/></g><g id="shape452-363" transform="translate(198.425,-388.846)"><title>32-bit register.452</title><path d="M0 412.16 L0 440.51" class="st3"/></g><g id="shape453-366" transform="translate(277.795,-388.846)"><title>32-bit register.453</title><path d="M0 412.16 L0 440.51" class="st3"/></g><g id="shape454-369" transform="translate(209.764,-388.846)"><title>32-bit register.454</title><path d="M0 412.16 L0 440.51" class="st3"/></g><g id="shape455-372" transform="translate(232.441,-388.846)"><title>32-bit register.455</title><path d="M0 412.16 L0 440.51" class="st3"/></g><g id="shape456-375" transform="translate(221.102,-388.846)"><title>32-bit register.456</title><path d="M0 412.16 L0 440.51" class="st3"/></g><g id="shape457-378" transform="translate(164.409,-417.193)"><title>Bit01.457</title><desc>57</desc><text x="1.22" y="437.24" class="st5">57</text></g><g id="shape458-380" transform="translate(198.425,-417.193)"><title>Bit01.458</title><desc>54</desc><text x="1.22" y="437.24" class="st5">54</text></g><g id="shape459-382" transform="translate(175.748,-417.193)"><title>Bit01.459</title><desc>56</desc><text x="1.22" y="437.24" class="st5">56</text></g><g id="shape460-384" transform="translate(209.764,-417.193)"><title>Bit01.460</title><desc>53</desc><text x="1.22" y="437.24" class="st5">53</text></g><g id="shape461-386" transform="translate(221.102,-417.193)"><title>Bit01.461</title><desc>52</desc><text x="1.22" y="437.24" class="st5">52</text></g><g id="shape462-388" transform="translate(187.087,-417.193)"><title>Bit01.462</title><desc>55</desc><text x="1.22" y="437.24" class="st5">55</text></g><g id="shape463-390" transform="translate(153.071,-417.193)"><title>Bit01.463</title><desc>58</desc><text x="1.22" y="437.24" class="st5">58</text></g><g id="shape464-392" transform="translate(300.472,-388.846)"><title>32-bit register.464</title><path d="M0 412.16 L0 440.51" class="st3"/></g><g id="shape465-395" transform="translate(289.134,-388.846)"><title>32-bit register.465</title><path d="M0 412.16 L0 440.51" class="st3"/></g><g id="shape466-398" transform="translate(243.78,-388.846)"><title>32-bit register.466</title><path d="M0 412.16 L0 440.51" class="st3"/></g><g id="shape467-401" transform="translate(266.457,-388.846)"><title>32-bit register.467</title><path d="M0 412.16 L0 440.51" class="st3"/></g><g id="shape468-404" transform="translate(323.15,-388.846)"><title>32-bit register.468</title><path d="M0 412.16 L0 440.51" class="st3"/></g><g id="shape469-407" transform="translate(232.441,-417.193)"><title>Bit01.469</title><desc>51</desc><text x="1.22" y="437.24" class="st5">51</text></g><g id="shape470-409" transform="translate(255.118,-417.193)"><title>Bit01.470</title><desc>49</desc><text x="1.22" y="437.24" class="st5">49</text></g><g id="shape471-411" transform="translate(243.78,-417.193)"><title>Bit01.471</title><desc>50</desc><text x="1.22" y="437.24" class="st5">50</text></g><g id="shape472-413" transform="translate(277.795,-417.193)"><title>Bit01.472</title><desc>47</desc><text x="1.22" y="437.24" class="st5">47</text></g><g id="shape473-415" transform="translate(289.134,-417.193)"><title>Bit01.473</title><desc>46</desc><text x="1.22" y="437.24" class="st5">46</text></g><g id="shape474-417" transform="translate(266.457,-417.193)"><title>Bit01.474</title><desc>48</desc><text x="1.22" y="437.24" class="st5">48</text></g><g id="shape476-419" transform="translate(300.472,-417.193)"><title>Bit01.476</title><desc>45</desc><text x="1.22" y="437.24" class="st5">45</text></g><g id="shape477-421" transform="translate(311.811,-417.193)"><title>Bit01.477</title><desc>44</desc><text x="1.22" y="437.24" class="st5">44</text></g><g id="shape480-423" transform="translate(141.732,-215.933)"><title>Bit01.480</title><desc>27</desc><text x="1.22" y="437.24" class="st5">27</text></g><g id="shape481-425" transform="translate(153.071,-215.933)"><title>Bit01.481</title><desc>26</desc><text x="1.22" y="437.24" class="st5">26</text></g><g id="shape482-427" transform="translate(130.394,-215.933)"><title>Bit01.482</title><desc>28</desc><text x="1.22" y="437.24" class="st5">28</text></g><g id="shape483-429" transform="translate(107.717,-215.933)"><title>Bit01.483</title><desc>30</desc><text x="1.22" y="437.24" class="st5">30</text></g><g id="shape484-431" transform="translate(119.055,-215.933)"><title>Bit01.484</title><desc>29</desc><text x="1.22" y="437.24" class="st5">29</text></g><g id="shape485-433" transform="translate(164.409,-215.933)"><title>Bit01.485</title><desc>25</desc><text x="1.22" y="437.24" class="st5">25</text></g><g id="shape487-435" transform="translate(300.472,-187.587)"><title>32-bit register.487</title><path d="M0 412.16 L0 440.51" class="st3"/></g><g id="shape488-438" transform="translate(289.134,-187.587)"><title>32-bit register.488</title><path d="M0 412.16 L0 440.51" class="st3"/></g><g id="shape489-441" transform="translate(289.134,-215.933)"><title>Bit01.489</title><desc>14</desc><text x="1.22" y="437.24" class="st5">14</text></g><g id="shape490-443" transform="translate(300.472,-215.933)"><title>Bit01.490</title><desc>13</desc><text x="1.22" y="437.24" class="st5">13</text></g><g id="shape491-445" transform="translate(311.811,-215.933)"><title>Bit01.491</title><desc>12</desc><text x="1.22" y="437.24" class="st5">12</text></g><g id="shape492-447" transform="translate(323.15,-187.768)"><title>32-bit register.492</title><path d="M0 412.16 L0 440.51" class="st3"/></g><g id="shape493-450" transform="translate(192.756,-312.311)"><title>Bit name 1.493</title><desc>MM_TLBPF_DIS</desc><path d="M45.35 366.81 L45.35 440.51 L0 440.51" class="st9"/><text x="-61.46" y="442.91" class="st5">MM_TLBPF_DIS</text></g><g id="shape494-454" transform="translate(442.205,-357.665) scale(-1,1)"><title>Bit name 2.494</title><desc>CA_EVICT_DIS</desc><path d="M11.34 412.16 L11.34 440.51 L0 440.51" class="st9"/><text x="1" y="442.91" transform="scale(-1,1)" class="st5">CA_EVICT_DIS</text></g><g id="shape495-458" transform="translate(442.205,-346.327) scale(-1,1)"><title>Bit name 2.495</title><desc>CA_UCLEAN_EVICT_EN</desc><path d="M22.68 400.82 L22.68 440.51 L0 440.51" class="st9"/><text x="1" y="442.91" transform="scale(-1,1)" class="st5">CA_UCLEAN_EVICT_EN</text></g><g id="shape496-462" transform="translate(413.858,-323.65) scale(-1,1)"><title>Bit name 2.496</title><desc>PFT_IF</desc><path d="M11.34 378.15 L11.34 440.51 L0 440.51" class="st9"/><text x="1" y="442.91" transform="scale(-1,1)" class="st5">PFT_IF</text></g><g id="shape497-466" transform="translate(413.858,-312.311) scale(-1,1)"><title>Bit name 2.497</title><desc>PFT_LS</desc><path d="M34.02 366.81 L34.02 440.51 L0 440.51" class="st9"/><text x="1" y="442.91" transform="scale(-1,1)" class="st5">PFT_LS</text></g><g id="shape498-470" transform="translate(413.858,-300.972) scale(-1,1)"><title>Bit name 2.498</title><desc>PFT_MM</desc><path d="M56.69 355.47 L56.69 440.51 L0 440.51" class="st9"/><text x="1" y="442.91" transform="scale(-1,1)" class="st5">PFT_MM</text></g><g id="shape499-474" transform="translate(340.157,-278.295) scale(-1,1)"><title>Bit name 2.499</title><desc>L2_FLUSH</desc><path d="M11.34 332.79 L11.34 440.51 L0 440.51" class="st9"/><text x="1" y="442.91" transform="scale(-1,1)" class="st5">L2_FLUSH</text></g><g id="shape500-478" transform="translate(243.78,-289.634)"><title>Bit name 1.500</title><desc>HPA_MODE</desc><path d="M11.34 344.13 L11.34 440.51 L0 440.51" class="st9"/><text x="-45.9" y="442.91" class="st5">HPA_MODE</text></g><g id="shape501-482" transform="translate(243.78,-278.295)"><title>Bit name 1.501</title><desc>HPA_CAP</desc><path d="M28.35 332.79 L28.35 440.51 L0 440.51" class="st9"/><text x="-38.35" y="442.91" class="st5">HPA_CAP</text></g><g id="shape502-486" transform="translate(243.78,-266.957)"><title>Bit name 1.502</title><desc>HPA_L1_DIS</desc><path d="M39.69 321.45 L39.69 440.51 L0 440.51" class="st9"/><text x="-48.58" y="442.91" class="st5">HPA_L1_DIS</text></g><g id="shape503-490" transform="translate(243.78,-255.618)"><title>Bit name 1.503</title><desc>HPA_DIS</desc><path d="M51.02 310.11 L51.02 440.51 L0 440.51" class="st9"/><text x="-35.23" y="442.91" class="st5">HPA_DIS</text></g><g id="shape504-494" transform="translate(90.7087,-179.083)"><title>Bit name 1.504</title><desc>ATOMIC_ST_NEAR</desc><path d="M11.34 434.84 L11.34 440.51 L0 440.51" class="st9"/><text x="-73.46" y="442.91" class="st5">ATOMIC_ST_NEAR</text></g><g id="shape505-498" transform="translate(90.7087,-167.744)"><title>Bit name 1.505</title><desc>ATOMIC_REL_NEAR</desc><path d="M22.68 423.5 L22.68 440.51 L0 440.51" class="st9"/><text x="-78.8" y="442.91" class="st5">ATOMIC_REL_NEAR</text></g><g id="shape506-502" transform="translate(90.7087,-156.406)"><title>Bit name 1.506</title><desc>ATOMIC_LD_NEAR</desc><path d="M34.02 412.16 L34.02 440.51 L0 440.51" class="st9"/><text x="-73.46" y="442.91" class="st5">ATOMIC_LD_NEAR</text></g><g id="shape507-506" transform="translate(119.055,-133.728)"><title>Bit name 1.507</title><desc>TLD_PRED_DIS</desc><path d="M17.01 389.48 L17.01 440.51 L0 440.51" class="st9"/><text x="-60.57" y="442.91" class="st5">TLD_PRED_DIS</text></g><g id="shape508-510" transform="translate(385.512,-111.051) scale(-1,1)"><title>Bit name 2.508</title><desc>PF_STS_DIS</desc><path d="M11.34 366.81 L11.34 440.51 L0 440.51" class="st9"/><text x="1" y="442.91" transform="scale(-1,1)" class="st5">PF_STS_DIS</text></g><g id="shape509-514" transform="translate(323.15,-91.2086) scale(-1,1)"><title>Bit name 2.509</title><desc>PF_SS_L2_DIST</desc><path d="M11.34 346.96 L11.34 440.51 L0 440.51" class="st9"/><text x="1" y="442.91" transform="scale(-1,1)" class="st5">PF_SS_L2_DIST</text></g><g id="shape510-518" transform="translate(385.512,-99.7126) scale(-1,1)"><title>Bit name 2.510</title><desc>PF_STI_DIS</desc><path d="M22.68 355.47 L22.68 440.51 L0 440.51" class="st9"/><text x="1" y="442.91" transform="scale(-1,1)" class="st5">PF_STI_DIS</text></g><g id="shape511-522" transform="translate(323.15,-79.8701) scale(-1,1)"><title>Bit name 2.511</title><desc>PF_DIS</desc><path d="M39.69 335.63 L39.69 440.51 L0 440.51" class="st9"/><text x="1" y="442.91" transform="scale(-1,1)" class="st5">PF_DIS</text></g><g id="shape512-526" transform="translate(430.866,-156.406) scale(-1,1)"><title>Bit name 2.512</title><desc>RPF_LO_CONF</desc><path d="M22.68 412.16 L22.68 440.51 L0 440.51" class="st9"/><text x="1" y="442.91" transform="scale(-1,1)" class="st5">RPF_LO_CONF</text></g><g id="shape513-530" transform="translate(430.866,-145.067) scale(-1,1)"><title>Bit name 2.513</title><desc>RPF_DIS</desc><path d="M34.02 400.82 L34.02 440.51 L0 440.51" class="st9"/><text x="1" y="442.91" transform="scale(-1,1)" class="st5">RPF_DIS</text></g><g id="shape515-534" transform="translate(425.197,-215.933)"><title>Bit01.515</title><desc>2</desc><text x="3.44" y="437.24" class="st5">2</text></g><g id="shape516-536" transform="translate(425.197,-187.587)"><title>32-bit register.516</title><path d="M0 412.16 L0 440.51" class="st3"/></g><g id="shape517-539" transform="translate(430.866,-167.744) scale(-1,1)"><title>Bit name 2.517</title><desc>RPF_PHIT_EN</desc><path d="M11.34 423.5 L11.34 440.51 L0 440.51" class="st9"/><text x="1" y="442.91" transform="scale(-1,1)" class="st5">RPF_PHIT_EN</text></g></g></svg>