<?xml version="1.0" encoding="UTF-8" standalone="no"?><!-- Fixed up by svgfix.xsl 1.4  --><!-- Generated by Microsoft Visio, SVG Export ID_AA64PFR1_EL1.svg ARM -->
<!DOCTYPE svg
  PUBLIC "-//W3C//DTD SVG 1.0//EN" "http://www.w3.org/TR/2001/REC-SVG-20010904/DTD/svg10.dtd">
<svg xmlns:xlink="http://www.w3.org/1999/xlink" xmlns="http://www.w3.org/2000/svg" xmlns:ev="http://www.w3.org/2001/xml-events" width="576.621" height="137.063" viewBox="0 0 432.466 102.797" xml:space="preserve" color-interpolation-filters="sRGB" class="st12" preserveAspectRatio="xMidYMid meet" zoomAndPan="magnify" version="1.1" contentScriptType="application/ecmascript" contentStyleType="text/css"><style type="text/css" xml:space="preserve"><![CDATA[
	
		.st1 {fill:#eed9b3;stroke:none;stroke-linecap:round;stroke-linejoin:round;stroke-width:0.2px}
		.st2 {stroke:#000000;stroke-linecap:butt;stroke-width:0.8px}
		.st3 {stroke:#000000;stroke-dasharray:0.25,0.5;stroke-linecap:butt;stroke-width:0.25px}
		.st4 {fill:#000000;font-family:Arial,Helvetica,sans-serif;font-size:0.666664em}
		.st5 {fill:none;stroke:none;stroke-linecap:round;stroke-linejoin:round;stroke-width:0.2px}
		.st6 {fill:#ffffff;stroke:none;stroke-linecap:butt;stroke-width:0.5px}
		.st7 {stroke:#000000;stroke-linecap:butt;stroke-width:0.5px}
		.st8 {fill:none;stroke:none;stroke-linecap:butt;stroke-width:0.499999px}
		.st9 {fill:#000000;font-family:Arial,Helvetica,sans-serif;font-size:0.533318em}
		.st10 {font-size:1.25003em}
		.st11 {fill:#eed9b3;stroke:none;stroke-linecap:round;stroke-linejoin:round;stroke-width:0.2px}
		.st12 {fill:none;fill-rule:evenodd;font-size:12px;overflow:visible;stroke-linecap:square;stroke-miterlimit:3}]]></style><g xmlns:v="http://schemas.microsoft.com/visio/2003/SVGExtensions/"><title>ARM</title><g id="shape70-1" transform="translate(374.973,-51.5236)"><title>64-bit register.70</title><rect x="0" y="74.4508" width="45.3543" height="28.3465" class="st1"/></g><g id="shape20-3" transform="translate(12.1386,-51.5236)"><title>64-bit register.88</title><rect x="0" y="74.4508" width="317.48" height="28.3465" class="st1"/></g><g id="shape1-5" transform="translate(420.328,-51.5236) scale(-1,1)"><title>64-bit register.156</title><path d="M0 74.45 L408.19 74.45 L408.19 102.8 L0 102.8" class="st2"/></g><g id="shape2-8" transform="translate(160.29,11.5886) rotate(90)"><title>64-bit register.169</title><path d="M0 102.8 L11.34 102.8" class="st3"/></g><g id="shape3-11" transform="translate(420.328,-51.5236)"><title>64-bit register.157</title><path d="M0 74.45 L0 102.8" class="st2"/></g><g id="shape14-14" transform="translate(341.707,11.5886) rotate(90)"><title>64-bit register.14</title><path d="M0 102.8 L11.34 102.8" class="st3"/></g><g id="shape15-17" transform="translate(387.062,11.5886) rotate(90)"><title>64-bit register.15</title><path d="M0 102.8 L11.34 102.8" class="st3"/></g><g id="shape16-20" transform="translate(477.77,11.5886) rotate(90)"><title>64-bit register.16</title><path d="M0 102.8 L11.34 102.8" class="st3"/></g><g id="shape17-23" transform="translate(523.125,11.5886) rotate(90)"><title>64-bit register.17</title><path d="M0 102.8 L11.34 102.8" class="st3"/></g><g id="shape19-26" transform="translate(408.989,-79.8701)"><title>64-bit register.19</title><desc>0</desc><text x="3.44" y="99.53" class="st4">0</text></g><g id="shape21-28" transform="translate(432.416,11.5886) rotate(90)"><title>64-bit register.21</title><path d="M0 102.8 L11.34 102.8" class="st3"/></g><g id="shape26-31" transform="translate(363.635,-79.8701)"><title>64-bit register.35</title><desc>4</desc><text x="3.44" y="99.53" class="st4">4</text></g><g id="shape27-33" transform="translate(374.973,-79.8701)"><title>64-bit register.209</title><desc>3</desc><text x="3.44" y="99.53" class="st4">3</text></g><g id="shape28-35" transform="translate(318.28,-79.8701)"><title>64-bit register.210</title><desc>8</desc><text x="3.44" y="99.53" class="st4">8</text></g><g id="shape29-37" transform="translate(329.619,-79.8701)"><title>64-bit register.211</title><desc>7</desc><text x="3.44" y="99.53" class="st4">7</text></g><g id="shape36-39" transform="translate(329.619,-51.5236)"><title>64-bit register.224</title><desc>SSBS</desc><rect x="0" y="74.4508" width="45.3543" height="28.3465" class="st5"/><text x="12.01" y="91.02" class="st4">SSBS</text></g><g id="shape39-42" transform="translate(329.619,-51.5236)"><title>64-bit register.39</title><path d="M0 74.45 L0 102.8" class="st2"/></g><g id="shape40-45" transform="translate(374.973,-51.5236)"><title>64-bit register.40</title><path d="M0 74.45 L0 102.8" class="st2"/></g><g id="shape46-48" transform="translate(250.999,11.5886) rotate(90)"><title>64-bit register.46</title><path d="M0 102.8 L11.34 102.8" class="st3"/></g><g id="shape47-51" transform="translate(296.353,11.5886) rotate(90)"><title>64-bit register.47</title><path d="M0 102.8 L11.34 102.8" class="st3"/></g><g id="shape57-54" transform="translate(205.644,11.5886) rotate(90)"><title>64-bit register.57</title><path d="M0 102.8 L11.34 102.8" class="st3"/></g><g id="group59-57" transform="translate(169.461,-48.689)"><title>Sheet.59</title><g id="group4-58" transform="translate(-1.4988E-15,-28.3465)"><title>Disconnect</title><g id="shape5-59" transform="translate(0.566929,0)"><title>Sheet.5</title><rect x="0" y="97.1279" width="1.88976" height="5.66929" class="st6"/></g><g id="shape7-61" transform="translate(103.827,113.96) rotate(99.4623)"><title>Sheet.7</title><path d="M0 102.39 C0.15 102.59 0.72 102.76 1.15 102.79 C1.58 102.82 1.86 102.72 2.34 102.48 C2.63 102.34 2.98          102.15 3.29 102.03 C4.56 101.53 5.03 102.08 5.75 102.39" class="st7"/></g><g id="shape8-64" transform="translate(101.938,113.96) rotate(99.4623)"><title>Sheet.8</title><path d="M0 102.39 C0.15 102.59 0.72 102.76 1.15 102.79 C1.58 102.82 1.86 102.72 2.34 102.48 C2.63 102.34 2.98          102.15 3.29 102.03 C4.56 101.53 5.03 102.08 5.75 102.39" class="st7"/></g></g><g id="group9-67"><title>Disconnect.9</title><g id="shape10-68" transform="translate(0.566929,0)"><title>Sheet.10</title><rect x="0" y="97.1279" width="1.88976" height="5.66929" class="st6"/></g><g id="shape22-70" transform="translate(103.827,113.96) rotate(99.4623)"><title>Sheet.22</title><path d="M0 102.39 C0.15 102.59 0.72 102.76 1.15 102.79 C1.58 102.82 1.86 102.72 2.34 102.48 C2.63 102.34 2.98          102.15 3.29 102.03 C4.56 101.53 5.03 102.08 5.75 102.39" class="st7"/></g><g id="shape23-73" transform="translate(101.938,113.96) rotate(99.4623)"><title>Sheet.23</title><path d="M0 102.39 C0.15 102.59 0.72 102.76 1.15 102.79 C1.58 102.82 1.86 102.72 2.34 102.48 C2.63 102.34 2.98          102.15 3.29 102.03 C4.56 101.53 5.03 102.08 5.75 102.39" class="st7"/></g></g></g><g id="shape61-76" transform="translate(12.1386,-79.8701)"><title>64-bit register.61</title><desc>63</desc><text x="1.22" y="99.53" class="st4">63</text></g><g id="shape62-78" transform="translate(114.936,11.5886) rotate(90)"><title>64-bit register.62</title><path d="M0 102.8 L11.34 102.8" class="st3"/></g><g id="group67-81" transform="translate(12.1386,-11.8386)"><title>Sheet.67</title><g id="shape68-82" transform="translate(11.3386,0)"><title>Rectangle No Fill No Fill.116</title><desc>res0</desc><rect x="0" y="91.4587" width="22.6772" height="11.3386" class="st8"/><text x="3.07" y="99.53" class="st9">RES<tspan class="st10">0</tspan></text></g><g id="shape69-86"><title>Graphic.117</title><rect x="0" y="91.4587" width="11.3386" height="11.3386" class="st11"/></g></g></g></svg>