<?xml version="1.0" encoding="UTF-8" standalone="no"?><!-- Fixed up by svgfix.xsl 1.4  --><!-- Generated by Microsoft Visio, SVG Export axp1531441361654_Source.svg ARM -->
<!DOCTYPE svg
  PUBLIC "-//W3C//DTD SVG 1.0//EN" "http://www.w3.org/TR/2001/REC-SVG-20010904/DTD/svg10.dtd">
<svg xmlns:xlink="http://www.w3.org/1999/xlink" xmlns="http://www.w3.org/2000/svg" xmlns:ev="http://www.w3.org/2001/xml-events" width="516.149" height="129.504" viewBox="0 0 387.112 97.128" xml:space="preserve" color-interpolation-filters="sRGB" class="st11" preserveAspectRatio="xMidYMid meet" zoomAndPan="magnify" version="1.1" contentScriptType="application/ecmascript" contentStyleType="text/css"><style type="text/css" xml:space="preserve"><![CDATA[
	
		.st1 {fill:#000000;font-family:Arial,Helvetica,sans-serif;font-size:0.666664em}
		.st2 {fill:#eed9b3;stroke:none;stroke-linecap:round;stroke-linejoin:round;stroke-width:0.2px}
		.st3 {fill:none;visibility:hidden}
		.st4 {stroke:#000000;stroke-linecap:butt;stroke-width:0.8px}
		.st5 {stroke:#000000;stroke-dasharray:0.25,0.5;stroke-linecap:butt;stroke-width:0.25px}
		.st6 {fill:none;stroke:none;stroke-linecap:round;stroke-linejoin:round;stroke-width:0.2px}
		.st7 {fill:none;stroke:none;stroke-linecap:butt;stroke-width:0.499999px}
		.st8 {fill:#000000;font-family:Arial,Helvetica,sans-serif;font-size:0.533318em}
		.st9 {font-size:1.25003em}
		.st10 {fill:#eed9b3;stroke:none;stroke-linecap:round;stroke-linejoin:round;stroke-width:0.2px}
		.st11 {fill:none;fill-rule:evenodd;font-size:12px;overflow:visible;stroke-linecap:square;stroke-miterlimit:3}]]></style><g xmlns:v="http://schemas.microsoft.com/visio/2003/SVGExtensions/"><title>ARM</title><g id="shape1-1" transform="translate(12.1386,-74.2008)"><title>Sheet.1</title><desc>31</desc><text x="1.22" y="93.86" class="st1">31</text></g><g id="shape6-3" transform="translate(363.635,-74.2008)"><title>Sheet.6</title><desc>0</desc><text x="3.44" y="93.86" class="st1">0</text></g><g id="shape7-5" transform="translate(12.1386,-45.8543)"><title>Sheet.7</title><rect x="0" y="68.7815" width="272.126" height="28.3465" class="st2"/></g><g id="shape10-7" transform="translate(12.1386,-45.8543)"><title>Sheet.10</title><rect x="0" y="68.7815" width="362.835" height="28.3465" class="st3"/><rect x="0" y="68.7815" width="362.835" height="28.3465" class="st4"/></g><g id="shape13-10" transform="translate(426.747,11.5886) rotate(90)"><title>Signal 0</title><path d="M0 97.13 L11.34 97.13" class="st5"/></g><g id="shape14-13" transform="translate(381.393,11.5886) rotate(90)"><title>Signal 0.102</title><path d="M0 97.13 L11.34 97.13" class="st5"/></g><g id="shape15-16" transform="translate(336.038,11.5886) rotate(90)"><title>Signal 0.103</title><path d="M0 97.13 L11.34 97.13" class="st5"/></g><g id="shape16-19" transform="translate(290.684,11.5886) rotate(90)"><title>Signal 0.104</title><path d="M0 97.13 L11.34 97.13" class="st5"/></g><g id="shape17-22" transform="translate(245.33,11.5886) rotate(90)"><title>Signal 0.105</title><path d="M0 97.13 L11.34 97.13" class="st5"/></g><g id="shape18-25" transform="translate(199.975,11.5886) rotate(90)"><title>Signal 0.106</title><path d="M0 97.13 L11.34 97.13" class="st5"/></g><g id="shape19-28" transform="translate(154.621,11.5886) rotate(90)"><title>Signal 0.107</title><path d="M0 97.13 L11.34 97.13" class="st5"/></g><g id="shape20-31" transform="translate(109.267,11.5886) rotate(90)"><title>Signal 0.108</title><path d="M0 97.13 L11.34 97.13" class="st5"/></g><g id="shape21-34" transform="translate(472.101,11.5886) rotate(90)"><title>Signal 0.109</title><path d="M0 97.13 L11.34 97.13" class="st5"/></g><g id="shape24-37" transform="translate(318.28,-74.2008)"><title>32-bit register.215</title><desc>4</desc><text x="3.44" y="93.86" class="st1">4</text></g><g id="shape25-39" transform="translate(329.619,-74.2008)"><title>32-bit register.216</title><desc>3</desc><text x="3.44" y="93.86" class="st1">3</text></g><g id="shape26-41" transform="translate(329.619,-45.8543)"><title>Sheet.26</title><path d="M0 68.78 L0 97.13" class="st4"/></g><g id="shape28-44" transform="translate(329.619,-45.8543)"><title>Sheet.28</title><desc>CSV3</desc><rect x="0" y="68.7815" width="45.3543" height="28.3465" class="st6"/><text x="12.23" y="85.35" class="st1">CSV3</text></g><g id="group36-47" transform="translate(12.1386,-11.8386)"><title>Sheet.36</title><g id="shape37-48" transform="translate(11.3386,0)"><title>Rectangle No Fill No Fill.116</title><desc>res0</desc><rect x="0" y="85.7894" width="22.6772" height="11.3386" class="st7"/><text x="3.07" y="93.86" class="st8">RES<tspan class="st9">0</tspan></text></g><g id="shape38-52"><title>Graphic.117</title><rect x="0" y="85.7894" width="11.3386" height="11.3386" class="st10"/></g></g><g id="shape39-54" transform="translate(284.265,-45.8543)"><title>Sheet.39</title><path d="M0 68.78 L0 97.13" class="st4"/></g><g id="shape40-57" transform="translate(284.265,-74.2008)"><title>32-bit register.40</title><desc>7</desc><text x="3.44" y="93.86" class="st1">7</text></g><g id="shape41-59" transform="translate(284.265,-45.8543)"><title>Sheet.41</title><desc>SSBS</desc><rect x="0" y="68.7815" width="45.3543" height="28.3465" class="st6"/><text x="12.01" y="85.35" class="st1">SSBS</text></g></g></svg>