<?xml version="1.0" encoding="UTF-8" standalone="no"?><!-- Fixed up by svgfix.xsl 1.4  --><!-- Generated by Microsoft Visio 11.0, SVG Export, v1.0 AMXEVCNTR_EL0_bit_assignments.svg ARM -->
<!DOCTYPE svg
  PUBLIC "-//W3C//DTD SVG 1.0//EN" "http://www.w3.org/TR/2001/REC-SVG-20010904/DTD/svg10.dtd">
<svg xmlns:xlink="http://www.w3.org/1999/xlink" xmlns="http://www.w3.org/2000/svg" xmlns:ev="http://www.w3.org/2001/xml-events" width="516.142" height="84.948" viewBox="0 0 387.106 63.711" xml:space="preserve" color-interpolation-filters="sRGB" class="st7" preserveAspectRatio="xMidYMid meet" zoomAndPan="magnify" version="1.0" contentScriptType="text/ecmascript" contentStyleType="text/css"><style type="text/css" xml:space="preserve"><![CDATA[
	
		.st1 {fill:none}
		.st2 {stroke:#000000;stroke-linecap:butt;stroke-width:0.799997px}
		.st3 {stroke:#000000;stroke-dasharray:0.249999,0.499999;stroke-linecap:butt;stroke-width:0.249999px}
		.st4 {fill:none;stroke:none;stroke-linecap:butt;stroke-width:0.499999px}
		.st5 {fill:#000000;font-family:Arial,Helvetica,sans-serif;font-size:0.666664em}
		.st6 {fill:none;stroke:none;stroke-linecap:round;stroke-linejoin:round;stroke-width:0.2px}
		.st7 {fill:none;fill-rule:evenodd;font-size:12px;overflow:visible;stroke-linecap:square;stroke-miterlimit:3}]]></style><g xmlns:v="http://schemas.microsoft.com/visio/2003/SVGExtensions/"><title content="structured text">ARM</title><g id="shape2-1" transform="translate(12.1386,-12.1386)"><title content="structured text">Graphic.11</title><path d="M362.83 35.36 L0 35.36 L0 63.71 L362.83 63.71 L362.83 35.36 Z" class="st1"/><path d="M362.83 35.36 L0 35.36 L0 63.71 L362.83 63.71" class="st2"/></g><g id="shape3-4" transform="translate(12.1336,-38.9566)"><title content="structured text">Graphic.12</title><path d="M0 52.37 L0 63.71 L0 52.37 Z" class="st1"/><path d="M0 52.37 L0 63.71" class="st3"/></g><g id="shape4-7" transform="translate(374.968,-12.1386)"><title content="structured text">Graphic.13</title><path d="M0 35.36 L0 63.71 L0 35.36 Z" class="st1"/><path d="M0 35.36 L0 63.71" class="st2"/></g><g id="shape5-10" transform="translate(374.968,-38.9566)"><title content="structured text">Graphic.20</title><path d="M0 52.37 L0 63.71 L0 52.37 Z" class="st1"/><path d="M0 52.37 L0 63.71" class="st3"/></g><g id="shape6-13" transform="translate(12.1336,-38.956)"><title content="structured text">Rectangle No Fill No Fill.21</title><desc content="structured text">31</desc><rect x="0" y="52.3723" width="11.3386" height="11.3386" class="st4"/><text x="1.22" y="60.44" class="st5">63</text></g><g id="shape7-16" transform="translate(363.629,-40.5337)"><title content="structured text">Rectangle No Fill No Fill.22</title><desc content="structured text">0</desc><rect x="0" y="52.3723" width="11.3386" height="11.3386" class="st4"/><text x="3.44" y="60.44" class="st5">0</text></g><g id="shape13-19" transform="translate(12.8445,-12.1873)"><title content="structured text">Rectangle No Fill No Fill.48</title><desc content="structured text">C</desc><rect x="0" y="35.3645" width="361.329" height="28.3464" class="st6"/><text x="169.76" y="51.94" class="st5">ACNT</text></g></g></svg>