<?xml version="1.0" encoding="UTF-8" standalone="no"?><!-- Fixed up by svgfix.xsl 1.4  --><!-- Generated by Microsoft Visio 11.0, SVG Export, v1.0 err0status_ARES_LowRes.svg ARM -->
<!DOCTYPE svg
  PUBLIC "-//W3C//DTD SVG 1.0//EN" "http://www.w3.org/TR/2001/REC-SVG-20010904/DTD/svg10.dtd">
<svg xmlns:xlink="http://www.w3.org/1999/xlink" xmlns="http://www.w3.org/2000/svg" xmlns:ev="http://www.w3.org/2001/xml-events" width="540.678" height="208.874" viewBox="0 0 405.509 156.656" xml:space="preserve" color-interpolation-filters="sRGB" class="st11" preserveAspectRatio="xMidYMid meet" zoomAndPan="magnify" version="1.0" contentScriptType="text/ecmascript" contentStyleType="text/css"><style type="text/css" xml:space="preserve"><![CDATA[
	
		.st1 {fill:#ffffff;stroke:#000000;stroke-linecap:butt;stroke-width:0.5px}
		.st2 {fill:#000000;font-family:Arial,Helvetica,sans-serif;font-size:0.666664em}
		.st3 {fill:#eed9b3;stroke:none;stroke-linecap:round;stroke-linejoin:round;stroke-width:0.2px}
		.st4 {fill:#ffffff;visibility:hidden}
		.st5 {stroke:#000000;stroke-linecap:butt;stroke-width:0.8px}
		.st6 {stroke:#000000;stroke-dasharray:0.25,1;stroke-linecap:butt;stroke-width:0.25px}
		.st7 {fill:none;stroke:none;stroke-linecap:butt;stroke-width:0.499999px}
		.st8 {fill:#000000;font-family:Arial,Helvetica,sans-serif;font-size:0.533318em}
		.st9 {font-size:1.25003em}
		.st10 {stroke:#000000;stroke-linecap:butt;stroke-width:0.5px}
		.st11 {fill:none;fill-rule:evenodd;font-size:12px;overflow:visible;stroke-linecap:square;stroke-miterlimit:3}]]></style><g xmlns:v="http://schemas.microsoft.com/visio/2003/SVGExtensions/"><title content="structured text">ARM</title><g id="shape1-1" transform="translate(98.5669,-105.382)"><title content="structured text">Block.1</title><desc content="structured text">CE</desc><rect x="0" y="128.309" width="22.6772" height="28.3465" class="st1"/><text x="5.78" y="144.88" class="st2">CE</text></g><g id="shape2-4" transform="translate(333.843,-105.382)"><title content="structured text">Block</title><desc content="structured text">SERR</desc><rect x="0" y="128.309" width="59.5276" height="28.3465" class="st1"/><text x="18.65" y="144.88" class="st2">SERR</text></g><g id="shape3-7" transform="translate(166.598,-105.495)"><title content="structured text">Graphic.1</title><rect x="0" y="128.422" width="170.079" height="28.2335" class="st3"/></g><g id="shape4-9" transform="translate(30.5354,-133.728)"><title content="structured text">Bit31</title><desc content="structured text">31</desc><text x="1.22" y="153.39" class="st2">31</text></g><g id="shape5-11" transform="translate(41.874,-133.728)"><title content="structured text">Bit30</title><desc content="structured text">30</desc><text x="1.22" y="153.39" class="st2">30</text></g><g id="shape10-13" transform="translate(30.5354,-105.382)"><title content="structured text">MainOutline+Bit00</title><rect x="0" y="128.309" width="362.835" height="28.3465" class="st4"/><rect x="0" y="128.309" width="362.835" height="28.3465" class="st5"/></g><g id="shape11-16" transform="translate(504.671,11.5886) rotate(90)"><title content="structured text">Signal 0</title><path d="M0 156.66 L11.34 156.66" class="st6"/></g><g id="shape12-19" transform="translate(459.317,11.5886) rotate(90)"><title content="structured text">Signal 0.102</title><path d="M0 156.66 L11.34 156.66" class="st6"/></g><g id="shape13-22" transform="translate(413.963,11.5886) rotate(90)"><title content="structured text">Signal 0.103</title><path d="M0 156.66 L11.34 156.66" class="st6"/></g><g id="shape14-25" transform="translate(368.608,11.5886) rotate(90)"><title content="structured text">Signal 0.104</title><path d="M0 156.66 L11.34 156.66" class="st6"/></g><g id="shape15-28" transform="translate(323.254,11.5886) rotate(90)"><title content="structured text">Signal 0.105</title><path d="M0 156.66 L11.34 156.66" class="st6"/></g><g id="shape16-31" transform="translate(277.9,11.5886) rotate(90)"><title content="structured text">Signal 0.106</title><path d="M0 156.66 L11.34 156.66" class="st6"/></g><g id="shape17-34" transform="translate(232.545,11.5886) rotate(90)"><title content="structured text">Signal 0.107</title><path d="M0 156.66 L11.34 156.66" class="st6"/></g><g id="shape18-37" transform="translate(187.191,11.5886) rotate(90)"><title content="structured text">Signal 0.108</title><path d="M0 156.66 L11.34 156.66" class="st6"/></g><g id="shape19-40" transform="translate(550.026,11.5886) rotate(90)"><title content="structured text">Signal 0.109</title><path d="M0 156.66 L11.34 156.66" class="st6"/></g><g id="shape20-43" transform="translate(143.921,-105.382)"><title content="structured text">Sheet.20</title><path d="M0 156.66 L0 128.31" class="st5"/><path d="M22.68 156.66 L22.68 128.31" class="st5"/></g><g id="shape21-47" transform="translate(30.5354,-105.382)"><title content="structured text">Sheet.21</title><path d="M0 156.66 L0 128.31" class="st5"/><path d="M11.34 156.66 L11.34 128.31" class="st5"/></g><g id="shape25-51" transform="translate(53.2126,-105.382)"><title content="structured text">Sheet.25</title><path d="M0 156.66 L0 128.31" class="st5"/><path d="M283.46 156.66 L283.46 128.31" class="st5"/></g><g id="shape26-55" transform="translate(336.677,-133.728)"><title content="structured text">Bit06.31</title><desc content="structured text">4</desc><text x="3.44" y="153.39" class="st2">4</text></g><g id="shape27-57" transform="translate(121.244,-105.382)"><title content="structured text">Sheet.27</title><path d="M0 156.66 L0 128.31" class="st5"/><path d="M11.34 156.66 L11.34 128.31" class="st5"/></g><g id="shape31-61" transform="translate(53.2126,-133.728)"><title content="structured text">Bit30.36</title><desc content="structured text">29</desc><text x="1.22" y="153.39" class="st2">29</text></g><g id="group32-63" transform="translate(30.5354,-11.8386)"><title content="structured text">Sheet.32</title><g id="shape33-64" transform="translate(11.3386,2.84217E-014)"><title content="structured text">Rectangle No Fill No Fill.116</title><desc content="structured text">res0</desc><rect x="0" y="145.317" width="22.6772" height="11.3386" class="st7"/><text x="3.07" y="153.39" class="st8">RES<tspan class="st9">0</tspan></text></g><g id="shape34-68"><title content="structured text">Graphic.117</title><rect x="0" y="145.317" width="11.3386" height="11.3386" class="st3"/></g></g><g id="shape35-70" transform="translate(64.5512,-133.728)"><title content="structured text">Bit30.35</title><desc content="structured text">28</desc><text x="1.22" y="153.39" class="st2">28</text></g><g id="shape36-72" transform="translate(75.8898,-133.728)"><title content="structured text">Sheet.36</title><desc content="structured text">27</desc><text x="1.22" y="153.39" class="st2">27</text></g><g id="shape37-74" transform="translate(87.2284,-133.728)"><title content="structured text">Sheet.37</title><desc content="structured text">26</desc><text x="1.22" y="153.39" class="st2">26</text></g><g id="shape38-76" transform="translate(98.5669,-133.728)"><title content="structured text">Sheet.38</title><desc content="structured text">25</desc><text x="1.22" y="153.39" class="st2">25</text></g><g id="shape39-78" transform="translate(110.551,-133.728)"><title content="structured text">Sheet.39</title><desc content="structured text">24</desc><text x="1.22" y="153.39" class="st2">24</text></g><g id="shape40-80" transform="translate(121.89,-133.728)"><title content="structured text">Sheet.40</title><desc content="structured text">23</desc><text x="1.22" y="153.39" class="st2">23</text></g><g id="shape41-82" transform="translate(133.228,-133.728)"><title content="structured text">Sheet.41</title><desc content="structured text">22</desc><text x="1.22" y="153.39" class="st2">22</text></g><g id="shape42-84" transform="translate(143.921,-133.728)"><title content="structured text">Sheet.42</title><desc content="structured text">21</desc><text x="1.22" y="153.39" class="st2">21</text></g><g id="shape43-86" transform="translate(155.906,-133.728)"><title content="structured text">Sheet.43</title><desc content="structured text">20</desc><text x="1.22" y="153.39" class="st2">20</text></g><g id="shape44-88" transform="translate(167.244,-133.728)"><title content="structured text">Sheet.44</title><desc content="structured text">19</desc><text x="1.22" y="153.39" class="st2">19</text></g><g id="shape47-90" transform="translate(325.339,-133.728)"><title content="structured text">Bit06.47</title><desc content="structured text">5</desc><text x="3.44" y="153.39" class="st2">5</text></g><g id="shape6-92" transform="translate(87.2284,-105.382)"><title content="structured text">Sheet.6</title><path d="M0 156.66 L0 128.31" class="st5"/><path d="M11.34 156.66 L11.34 128.31" class="st5"/></g><g id="shape7-96" transform="translate(64.5512,-105.382)"><title content="structured text">Sheet.7</title><path d="M0 156.66 L0 128.31" class="st5"/><path d="M11.34 156.66 L11.34 128.31" class="st5"/></g><g id="shape8-100" transform="translate(167.244,-96.8779) scale(-1,1)"><title content="structured text">Bit name 2</title><desc content="structured text">UET</desc><path d="M11.34 150.99 L11.34 156.66 L0 156.66" class="st10"/><text x="1" y="159.06" transform="scale(-1,1)" class="st2">UET</text></g><g id="shape9-104" transform="translate(167.244,-85.5394) scale(-1,1)"><title content="structured text">Bit name 2.9</title><desc content="structured text">PN</desc><path d="M28.35 139.65 L28.35 156.66 L0 156.66" class="st10"/><text x="1" y="159.06" transform="scale(-1,1)" class="st2">PN</text></g><g id="shape22-108" transform="translate(167.244,-74.2008) scale(-1,1)"><title content="structured text">Bit name 2.22</title><desc content="structured text">DE</desc><path d="M39.69 128.31 L39.69 156.66 L0 156.66" class="st10"/><text x="1" y="159.06" transform="scale(-1,1)" class="st2">DE</text></g><g id="shape23-112" transform="translate(25.5118,-96.8779)"><title content="structured text">Bit name 1</title><desc content="structured text">AV</desc><path d="M11.34 150.99 L11.34 156.66 L0 156.66" class="st10"/><text x="-11.67" y="159.06" class="st2">AV</text></g><g id="shape24-116" transform="translate(25.5118,-85.5394)"><title content="structured text">Bit name 1.24</title><desc content="structured text">V</desc><path d="M22.68 139.65 L22.68 156.66 L0 156.66" class="st10"/><text x="-6.34" y="159.06" class="st2">V</text></g><g id="shape28-120" transform="translate(25.5118,-74.2008)"><title content="structured text">Bit name 1.28</title><desc content="structured text">UE</desc><path d="M34.02 128.31 L34.02 156.66 L0 156.66" class="st10"/><text x="-12.11" y="159.06" class="st2">UE</text></g><g id="shape29-124" transform="translate(25.5118,-62.8622)"><title content="structured text">Bit name 1.29</title><desc content="structured text">ER</desc><path d="M45.35 116.97 L45.35 156.66 L0 156.66" class="st10"/><text x="-12.11" y="159.06" class="st2">ER</text></g><g id="shape30-128" transform="translate(25.5118,-51.5236)"><title content="structured text">Bit name 1.30</title><desc content="structured text">OF</desc><path d="M56.69 105.63 L56.69 156.66 L0 156.66" class="st10"/><text x="-12.11" y="159.06" class="st2">OF</text></g><g id="shape45-132" transform="translate(25.5118,-40.185)"><title content="structured text">Bit name 1.45</title><desc content="structured text">MV</desc><path d="M68.03 94.29 L68.03 156.66 L0 156.66" class="st10"/><text x="-13" y="159.06" class="st2">MV</text></g><g id="shape176-136" transform="translate(382.032,-133.728)"><title content="structured text">Bit06.176</title><desc content="structured text">0</desc><text x="3.44" y="153.39" class="st2">0</text></g></g></svg>