<?xml version="1.0" encoding="UTF-8" standalone="no"?><!-- Fixed up by svgfix.xsl 1.4  --><!-- Generated by Microsoft Visio, SVG Export cgj1479057369310_LowRes.svg ARM -->
<!DOCTYPE svg
  PUBLIC "-//W3C//DTD SVG 1.0//EN" "http://www.w3.org/TR/2001/REC-SVG-20010904/DTD/svg10.dtd">
<svg xmlns:xlink="http://www.w3.org/1999/xlink" xmlns="http://www.w3.org/2000/svg" xmlns:ev="http://www.w3.org/2001/xml-events" width="799.213" height="420.528" viewBox="0 0 599.41 315.396" xml:space="preserve" color-interpolation-filters="sRGB" class="st14" preserveAspectRatio="xMidYMid meet" zoomAndPan="magnify" version="1.1" contentScriptType="application/ecmascript" contentStyleType="text/css"><style type="text/css" xml:space="preserve"><![CDATA[
	
		.st1 {fill:#ccdfdb;stroke:none;stroke-linecap:round;stroke-linejoin:round;stroke-width:0.2px}
		.st2 {fill:#eed9b3;stroke:none;stroke-linecap:butt;stroke-width:0.8px}
		.st3 {stroke:#000000;stroke-dasharray:0.25,0.5;stroke-linecap:butt;stroke-width:0.25px}
		.st4 {fill:#000000;font-family:Arial,Helvetica,sans-serif;font-size:0.666664em}
		.st5 {stroke:#000000;stroke-linecap:butt;stroke-width:0.8px}
		.st6 {stroke:#000000;stroke-linecap:butt;stroke-width:0.5px}
		.st7 {fill:none;stroke:none;stroke-linecap:butt;stroke-width:0.5px}
		.st8 {font-size:1em}
		.st9 {fill:#ffffff;stroke:none;stroke-linecap:butt;stroke-width:0.5px}
		.st10 {fill:none;stroke:none;stroke-linecap:butt;stroke-width:0.499999px}
		.st11 {fill:#000000;font-family:Arial,Helvetica,sans-serif;font-size:0.533318em}
		.st12 {font-size:1.25003em}
		.st13 {fill:#eed9b3;stroke:none;stroke-linecap:round;stroke-linejoin:round;stroke-width:0.2px}
		.st14 {fill:none;fill-rule:evenodd;font-size:12px;overflow:visible;stroke-linecap:square;stroke-miterlimit:3}]]></style><g xmlns:v="http://schemas.microsoft.com/visio/2003/SVGExtensions/"><title>ARM</title><g id="shape354-1" transform="translate(522.824,-264.235)"><title>Rectangle Fill:Soapstone.2</title><rect x="0" y="287.162" width="10.44" height="28.2335" class="st1"/></g><g id="shape342-3" transform="translate(12.1386,-264.122)"><title>Sheet.342</title><rect x="0" y="287.049" width="90.7087" height="28.3465" class="st2"/></g><g id="shape1-5" transform="translate(497.613,11.5886) rotate(90)"><title>64-bit register.169</title><path d="M0 315.4 L11.34 315.4" class="st3"/></g><g id="shape2-8" transform="translate(542.967,11.5886) rotate(90)"><title>64-bit register.11</title><path d="M0 315.4 L11.34 315.4" class="st3"/></g><g id="shape3-11" transform="translate(588.322,11.5886) rotate(90)"><title>64-bit register.12</title><path d="M0 315.4 L11.34 315.4" class="st3"/></g><g id="shape4-14" transform="translate(633.676,11.5886) rotate(90)"><title>64-bit register.13</title><path d="M0 315.4 L11.34 315.4" class="st3"/></g><g id="shape5-17" transform="translate(679.03,11.5886) rotate(90)"><title>64-bit register.14</title><path d="M0 315.4 L11.34 315.4" class="st3"/></g><g id="shape6-20" transform="translate(724.385,11.5886) rotate(90)"><title>64-bit register.15</title><path d="M0 315.4 L11.34 315.4" class="st3"/></g><g id="shape7-23" transform="translate(815.093,11.5886) rotate(90)"><title>64-bit register.16</title><path d="M0 315.4 L11.34 315.4" class="st3"/></g><g id="shape8-26" transform="translate(860.448,11.5886) rotate(90)"><title>64-bit register.17</title><path d="M0 315.4 L11.34 315.4" class="st3"/></g><g id="shape9-29" transform="translate(182.217,-292.468)"><title>64-bit register.179</title><desc>31</desc><text x="1.22" y="312.13" class="st4">31</text></g><g id="shape10-31" transform="translate(533.713,-292.468)"><title>64-bit register.19</title><desc>0</desc><text x="3.44" y="312.13" class="st4">0</text></g><g id="shape24-33" transform="translate(522.375,-292.468)"><title>64-bit register.25</title><desc>1</desc><text x="3.44" y="312.13" class="st4">1</text></g><g id="shape25-35" transform="translate(511.036,-292.468)"><title>64-bit register.26</title><desc>2</desc><text x="3.44" y="312.13" class="st4">2</text></g><g id="shape26-37" transform="translate(408.989,-292.468)"><title>64-bit register.9</title><desc>11</desc><text x="1.22" y="312.13" class="st4">11</text></g><g id="shape27-39" transform="translate(397.65,-292.468)"><title>64-bit register.28</title><desc>12</desc><text x="1.22" y="312.13" class="st4">12</text></g><g id="shape28-41" transform="translate(769.739,11.5886) rotate(90)"><title>64-bit register.29</title><path d="M0 315.4 L11.34 315.4" class="st3"/></g><g id="shape30-44" transform="translate(545.052,-264.122) scale(-1,1)"><title>64-bit register.42</title><path d="M0 287.05 L532.91 287.05 L532.91 315.4 L0 315.4" class="st5"/></g><g id="shape31-47" transform="translate(545.052,-264.122)"><title>64-bit register.43</title><path d="M0 287.05 L0 315.4" class="st5"/></g><g id="shape32-50" transform="translate(227.572,-264.122)"><title>64-bit register.44</title><path d="M0 287.05 L0 315.4" class="st5"/></g><g id="shape33-53" transform="translate(272.926,-264.122)"><title>64-bit register.45</title><path d="M0 287.05 L0 315.4" class="st5"/></g><g id="shape34-56" transform="translate(318.28,-264.122)"><title>64-bit register.38</title><path d="M0 287.05 L0 315.4" class="st5"/></g><g id="shape35-59" transform="translate(363.635,-264.122)"><title>64-bit register.39</title><path d="M0 287.05 L0 315.4" class="st5"/></g><g id="shape36-62" transform="translate(408.989,-264.122)"><title>64-bit register.48</title><path d="M0 287.05 L0 315.4" class="st5"/></g><g id="shape37-65" transform="translate(454.343,-264.122)"><title>64-bit register.49</title><path d="M0 287.05 L0 315.4" class="st5"/></g><g id="shape38-68" transform="translate(499.698,-264.122)"><title>64-bit register.50</title><path d="M0 287.05 L0 315.4" class="st5"/></g><g id="shape39-71" transform="translate(369.304,-94.0433)"><title>Sheet.39</title><path d="M0 148.15 L0 315.4 L68.03 315.4" class="st6"/></g><g id="shape40-74" transform="translate(187.887,-156.406) scale(-1,1)"><title>Sheet.40</title><path d="M0 210.51 L0 315.4 L39.69 315.4" class="st6"/></g><g id="shape41-77" transform="translate(119.855,-139.398)"><title>Sheet.41</title><desc>TRVM</desc><rect x="0" y="304.057" width="28.3465" height="11.3386" class="st7"/><text x="3.68" y="312.13" class="st4">TRVM</text></g><g id="shape42-80" transform="translate(108.517,-150.736)"><title>Sheet.42</title><desc>RW</desc><rect x="0" y="304.057" width="39.685" height="11.3386" class="st7"/><text x="24.36" y="312.13" class="st4">RW</text></g><g id="shape43-83" transform="translate(193.556,-264.122)"><title>64-bit register.59</title><path d="M0 287.05 L0 315.4" class="st5"/></g><g id="shape44-86" transform="translate(204.894,-264.122)"><title>64-bit register.60</title><path d="M0 287.05 L0 315.4" class="st5"/></g><g id="shape45-89" transform="translate(216.233,-264.122)"><title>64-bit register.61</title><path d="M0 287.05 L0 315.4" class="st5"/></g><g id="shape46-92" transform="translate(199.225,-145.067) scale(-1,1)"><title>Sheet.46</title><path d="M0 199.18 L0 315.4 L51.02 315.4" class="st6"/></g><g id="shape47-95" transform="translate(210.564,-133.728) scale(-1,1)"><title>Sheet.47</title><path d="M0 187.84 L0 315.4 L62.36 315.4" class="st6"/></g><g id="shape48-98" transform="translate(221.902,-116.72) scale(-1,1)"><title>Sheet.48</title><path d="M0 170.83 L0 315.4 L22.68 315.4" class="st6"/></g><g id="shape49-101" transform="translate(233.241,-105.382) scale(-1,1)"><title>Sheet.49</title><path d="M0 159.49 L0 315.4 L34.02 315.4" class="st6"/></g><g id="shape50-104" transform="translate(244.58,-94.0433) scale(-1,1)"><title>Sheet.50</title><path d="M0 148.15 L0 315.4 L45.35 315.4" class="st6"/></g><g id="shape51-107" transform="translate(255.918,-82.7047) scale(-1,1)"><title>Sheet.51</title><path d="M0 136.81 L0 315.4 L56.69 315.4" class="st6"/></g><g id="shape52-110" transform="translate(267.257,-68.5315) scale(-1,1)"><title>Sheet.52</title><path d="M0 122.64 L0 315.4 L22.68 315.4" class="st6"/></g><g id="shape53-113" transform="translate(284.265,-264.122)"><title>64-bit register.69</title><path d="M0 287.05 L0 315.4" class="st5"/></g><g id="shape54-116" transform="translate(238.91,-264.122)"><title>64-bit register.70</title><path d="M0 287.05 L0 315.4" class="st5"/></g><g id="shape55-119" transform="translate(250.249,-264.122)"><title>64-bit register.71</title><path d="M0 287.05 L0 315.4" class="st5"/></g><g id="shape56-122" transform="translate(261.587,-264.122)"><title>64-bit register.72</title><path d="M0 287.05 L0 315.4" class="st5"/></g><g id="shape57-125" transform="translate(295.603,-264.122)"><title>64-bit register.73</title><path d="M0 287.05 L0 315.4" class="st5"/></g><g id="shape58-128" transform="translate(306.942,-264.122)"><title>64-bit register.74</title><path d="M0 287.05 L0 315.4" class="st5"/></g><g id="shape59-131" transform="translate(329.619,-264.122)"><title>64-bit register.75</title><path d="M0 287.05 L0 315.4" class="st5"/></g><g id="shape60-134" transform="translate(340.957,-264.122)"><title>64-bit register.76</title><path d="M0 287.05 L0 315.4" class="st5"/></g><g id="shape61-137" transform="translate(352.296,-264.122)"><title>64-bit register.77</title><path d="M0 287.05 L0 315.4" class="st5"/></g><g id="shape62-140" transform="translate(374.973,-264.122)"><title>64-bit register.78</title><path d="M0 287.05 L0 315.4" class="st5"/></g><g id="shape63-143" transform="translate(386.312,-264.122)"><title>64-bit register.79</title><path d="M0 287.05 L0 315.4" class="st5"/></g><g id="shape64-146" transform="translate(397.65,-264.122)"><title>64-bit register.80</title><path d="M0 287.05 L0 315.4" class="st5"/></g><g id="shape65-149" transform="translate(431.666,-264.122)"><title>64-bit register.82</title><path d="M0 287.05 L0 315.4" class="st5"/></g><g id="shape66-152" transform="translate(443.005,-264.122)"><title>64-bit register.83</title><path d="M0 287.05 L0 315.4" class="st5"/></g><g id="shape67-155" transform="translate(465.682,-264.122)"><title>64-bit register.84</title><path d="M0 287.05 L0 315.4" class="st5"/></g><g id="shape68-158" transform="translate(477.02,-264.122)"><title>64-bit register.85</title><path d="M0 287.05 L0 315.4" class="st5"/></g><g id="shape69-161" transform="translate(488.359,-264.122)"><title>64-bit register.86</title><path d="M0 287.05 L0 315.4" class="st5"/></g><g id="shape70-164" transform="translate(511.036,-264.122)"><title>64-bit register.87</title><path d="M0 287.05 L0 315.4" class="st5"/></g><g id="shape71-167" transform="translate(522.375,-264.122)"><title>Sheet.71</title><path d="M0 287.05 L0 315.4" class="st5"/></g><g id="shape72-170" transform="translate(533.713,-264.122)"><title>64-bit register.89</title><path d="M0 287.05 L0 315.4" class="st5"/></g><g id="shape73-173" transform="translate(278.595,-57.1929) scale(-1,1)"><title>Sheet.73</title><path d="M0 111.3 L0 315.4 L34.02 315.4" class="st6"/></g><g id="shape74-176" transform="translate(289.934,-45.8543) scale(-1,1)"><title>Sheet.74</title><path d="M0 99.96 L0 315.4 L45.35 315.4" class="st6"/></g><g id="shape75-179" transform="translate(301.272,-34.5157) scale(-1,1)"><title>Sheet.75</title><path d="M0 88.62 L0 315.4 L56.69 315.4" class="st6"/></g><g id="shape76-182" transform="translate(312.611,-34.5157) scale(-1,1)"><title>Sheet.76</title><path d="M0 88.62 L0 315.4" class="st6"/></g><g id="shape77-185" transform="translate(323.95,-45.8543) scale(-1,1)"><title>Sheet.77</title><path d="M0 99.96 L0 315.4" class="st6"/></g><g id="shape80-188" transform="translate(357.965,-82.7047)"><title>Sheet.80</title><path d="M0 136.81 L0 315.4 L79.37 315.4" class="st6"/></g><g id="shape81-191" transform="translate(380.643,-105.382)"><title>Sheet.81</title><path d="M0 159.49 L0 315.4 L56.69 315.4" class="st6"/></g><g id="shape82-194" transform="translate(391.981,-116.72)"><title>Sheet.82</title><path d="M0 170.83 L0 315.4 L45.35 315.4" class="st6"/></g><g id="shape83-197" transform="translate(403.32,-128.059)"><title>Sheet.83</title><path d="M0 182.17 L0 315.4 L68.03 315.4" class="st6"/></g><g id="shape84-200" transform="translate(437.335,-150.736)"><title>Sheet.84</title><path d="M0 204.84 L0 315.4 L34.02 315.4" class="st6"/></g><g id="shape85-203" transform="translate(448.674,-162.075)"><title>Sheet.85</title><path d="M0 216.18 L0 315.4 L22.68 315.4" class="st6"/></g><g id="shape86-206" transform="translate(460.013,-173.413)"><title>Sheet.86</title><path d="M0 227.52 L0 315.4 L56.69 315.4" class="st6"/></g><g id="shape87-209" transform="translate(471.351,-184.752)"><title>Sheet.87</title><path d="M0 238.86 L0 315.4 L45.35 315.4" class="st6"/></g><g id="shape88-212" transform="translate(482.69,-196.091)"><title>Sheet.88</title><path d="M0 250.2 L0 315.4 L34.02 315.4" class="st6"/></g><g id="shape89-215" transform="translate(494.028,-207.429)"><title>Sheet.89</title><path d="M0 261.54 L0 315.4 L22.68 315.4" class="st6"/></g><g id="shape90-218" transform="translate(505.367,-218.768)"><title>Sheet.90</title><path d="M0 272.88 L0 315.4 L39.69 315.4" class="st6"/></g><g id="shape91-221" transform="translate(516.706,-230.106)"><title>Sheet.91</title><path d="M0 284.21 L0 315.4 L28.35 315.4" class="st6"/></g><g id="shape92-224" transform="translate(420.328,-139.398)"><title>Sheet.92</title><path d="M0 193.51 L0 315.4 L51.02 315.4" class="st6"/></g><g id="shape97-227" transform="translate(547.887,-224.437)"><title>Sheet.97</title><desc>PTW</desc><rect x="0" y="304.057" width="28.3465" height="11.3386" class="st7"/><text x="2" y="312.13" class="st4">PTW</text></g><g id="shape98-230" transform="translate(547.887,-213.098)"><title>Sheet.98</title><desc>FMO</desc><rect x="0" y="304.057" width="39.685" height="11.3386" class="st7"/><text x="2" y="312.13" class="st4">FMO</text></g><g id="shape99-233" transform="translate(516.706,-201.76)"><title>Sheet.99</title><desc>IMO</desc><rect x="0" y="304.057" width="19.8425" height="11.3386" class="st7"/><text x="2" y="312.13" class="st4">IMO</text></g><g id="shape100-236" transform="translate(516.706,-190.421)"><title>Sheet.100</title><desc>AMO</desc><rect x="0" y="304.057" width="22.6772" height="11.3386" class="st7"/><text x="2" y="312.13" class="st4">AMO</text></g><g id="shape101-239" transform="translate(516.706,-179.083)"><title>Sheet.101</title><desc>VF</desc><rect x="0" y="304.057" width="19.8425" height="11.3386" class="st7"/><text x="2" y="312.13" class="st4">VF</text></g><g id="shape102-242" transform="translate(516.706,-167.744)"><title>Sheet.102</title><desc>VI</desc><rect x="0" y="304.057" width="19.8425" height="11.3386" class="st7"/><text x="2" y="312.13" class="st4">VI</text></g><g id="shape103-245" transform="translate(471.351,-156.406)"><title>Sheet.103</title><desc>VSE</desc><rect x="0" y="304.057" width="25.5118" height="11.3386" class="st7"/><text x="2" y="312.13" class="st4">VSE</text></g><g id="shape104-248" transform="translate(471.351,-145.067)"><title>Sheet.104</title><desc>FB</desc><rect x="0" y="304.057" width="25.5118" height="11.3386" class="st7"/><text x="2" y="312.13" class="st4">FB</text></g><g id="shape105-251" transform="translate(471.351,-133.728)"><title>Sheet.105</title><desc>BSU</desc><rect x="0" y="304.057" width="31.1811" height="11.3386" class="st7"/><text x="2" y="312.13" class="st4">BSU</text></g><g id="shape106-254" transform="translate(471.351,-122.39)"><title>Sheet.106</title><desc>DC</desc><rect x="0" y="304.057" width="25.5118" height="11.3386" class="st7"/><text x="2" y="312.13" class="st4">DC</text></g><g id="shape107-257" transform="translate(437.335,-111.051)"><title>Sheet.107</title><desc>TWI</desc><rect x="0" y="304.057" width="31.1811" height="11.3386" class="st7"/><text x="2" y="312.13" class="st4">TWI</text></g><g id="shape108-260" transform="translate(437.335,-99.7126)"><title>Sheet.108</title><desc>TWE</desc><rect x="0" y="304.057" width="28.3465" height="11.3386" class="st7"/><text x="2" y="312.13" class="st4">TWE</text></g><g id="shape109-263" transform="translate(437.335,-88.374)"><title>Sheet.109</title><desc>TID0</desc><rect x="0" y="304.057" width="28.3465" height="11.3386" class="st7"/><text x="2" y="312.13" class="st4">T<tspan class="st8">ID</tspan>0</text></g><g id="shape110-267" transform="translate(119.855,-128.059)"><title>Sheet.110</title><desc>HCD</desc><rect x="0" y="304.057" width="28.3465" height="11.3386" class="st7"/><text x="9.01" y="312.13" class="st4">HCD</text></g><g id="shape111-270" transform="translate(156.706,-111.051)"><title>Sheet.111</title><desc>TDZ</desc><rect x="0" y="304.057" width="39.685" height="11.3386" class="st7"/><text x="22.13" y="312.13" class="st4">TDZ</text></g><g id="shape112-273" transform="translate(168.044,-99.7126)"><title>Sheet.112</title><desc>TGE</desc><rect x="0" y="304.057" width="28.3465" height="11.3386" class="st7"/><text x="9.9" y="312.13" class="st4">TGE</text></g><g id="shape113-276" transform="translate(168.044,-88.374)"><title>Sheet.113</title><desc>TVM</desc><rect x="0" y="304.057" width="28.3465" height="11.3386" class="st7"/><text x="9.46" y="312.13" class="st4">TVM</text></g><g id="shape114-279" transform="translate(168.044,-77.0354)"><title>Sheet.114</title><desc>TTLB</desc><rect x="0" y="304.057" width="28.3465" height="11.3386" class="st7"/><text x="6.79" y="312.13" class="st4">TTLB</text></g><g id="shape115-282" transform="translate(216.233,-62.8622)"><title>Sheet.115</title><desc>TPU</desc><rect x="0" y="304.057" width="28.3465" height="11.3386" class="st7"/><text x="10.35" y="312.13" class="st4">TPU</text></g><g id="shape116-285" transform="translate(216.233,-40.185)"><title>Sheet.116</title><desc>TSW</desc><rect x="0" y="304.057" width="28.3465" height="11.3386" class="st7"/><text x="8.57" y="312.13" class="st4">TSW</text></g><g id="shape117-288" transform="translate(216.233,-28.8464)"><title>Sheet.117</title><desc>TACR</desc><rect x="0" y="304.057" width="28.3465" height="11.3386" class="st7"/><text x="4.57" y="312.13" class="st4">TAC<tspan class="st8">R</tspan></text></g><g id="shape118-292" transform="translate(369.304,-28.8464)"><title>Sheet.118</title><desc>TIDCP</desc><rect x="0" y="304.057" width="28.3465" height="11.3386" class="st7"/><text x="2.35" y="312.13" class="st4">TIDCP</text></g><g id="shape119-295" transform="translate(360.8,-40.185)"><title>Sheet.119</title><desc>TSC</desc><rect x="0" y="304.057" width="28.3465" height="11.3386" class="st7"/><text x="10.35" y="312.13" class="st4">TSC</text></g><g id="shape120-298" transform="translate(369.304,-54.3583)"><title>Sheet.120</title><desc>TID3</desc><rect x="0" y="304.057" width="28.3465" height="11.3386" class="st7"/><text x="2" y="312.13" class="st4">TID3</text></g><g id="shape121-301" transform="translate(369.304,-65.6968)"><title>Sheet.121</title><desc>TID2</desc><rect x="0" y="304.057" width="28.3465" height="11.3386" class="st7"/><text x="2" y="312.13" class="st4">TID2</text></g><g id="shape122-304" transform="translate(465.682,-77.0354) scale(-1,1)"><title>Sheet.122</title><desc>TID1</desc><rect x="0" y="304.057" width="28.3465" height="11.3386" class="st7"/><text x="-26.35" y="312.13" transform="scale(-1,1)" class="st4">TID1</text></g><g id="shape123-307" transform="translate(216.233,-51.5236)"><title>Sheet.123</title><desc>TPC</desc><rect x="0" y="304.057" width="28.3465" height="11.3386" class="st7"/><text x="10.35" y="312.13" class="st4">TPC</text></g><g id="shape128-310" transform="translate(528.044,-241.445)"><title>Sheet.128</title><path d="M0 295.55 L0 315.4 L17.01 315.4" class="st6"/></g><g id="shape129-313" transform="translate(547.887,-235.776)"><title>Sheet.129</title><desc>SWIO</desc><rect x="0" y="304.057" width="39.685" height="11.3386" class="st7"/><text x="2" y="312.13" class="st4">SWIO</text></g><g id="shape130-316" transform="translate(539.383,-252.783)"><title>Sheet.130</title><path d="M0 306.89 L0 315.4 L5.67 315.4" class="st6"/></g><g id="shape131-319" transform="translate(547.887,-247.114)"><title>Sheet.131</title><desc>VM</desc><rect x="0" y="304.057" width="19.8425" height="11.3386" class="st7"/><text x="2" y="312.13" class="st4">VM</text></g><g id="shape132-322" transform="translate(193.556,-292.468)"><title>64-bit register.132</title><desc>30</desc><text x="1.22" y="312.13" class="st4">30</text></g><g id="shape133-324" transform="translate(204.894,-292.468)"><title>64-bit register.133</title><desc>29</desc><text x="1.22" y="312.13" class="st4">29</text></g><g id="shape134-326" transform="translate(216.233,-292.468)"><title>64-bit register.134</title><desc>28</desc><text x="1.22" y="312.13" class="st4">28</text></g><g id="shape135-328" transform="translate(227.572,-292.468)"><title>64-bit register.135</title><desc>27</desc><text x="1.22" y="312.13" class="st4">27</text></g><g id="shape136-330" transform="translate(238.91,-292.468)"><title>64-bit register.136</title><desc>26</desc><text x="1.22" y="312.13" class="st4">26</text></g><g id="shape137-332" transform="translate(250.249,-292.468)"><title>64-bit register.137</title><desc>25</desc><text x="1.22" y="312.13" class="st4">25</text></g><g id="shape138-334" transform="translate(261.587,-292.468)"><title>64-bit register.138</title><desc>24</desc><text x="1.22" y="312.13" class="st4">24</text></g><g id="shape139-336" transform="translate(272.926,-292.468)"><title>64-bit register.139</title><desc>23</desc><text x="1.22" y="312.13" class="st4">23</text></g><g id="shape140-338" transform="translate(284.265,-292.468)"><title>64-bit register.140</title><desc>22</desc><text x="1.22" y="312.13" class="st4">22</text></g><g id="shape141-340" transform="translate(295.603,-292.468)"><title>64-bit register.141</title><desc>21</desc><text x="1.22" y="312.13" class="st4">21</text></g><g id="shape142-342" transform="translate(306.942,-292.468)"><title>64-bit register.142</title><desc>20</desc><text x="1.22" y="312.13" class="st4">20</text></g><g id="shape143-344" transform="translate(318.28,-292.468)"><title>64-bit register.143</title><desc>19</desc><text x="1.22" y="312.13" class="st4">19</text></g><g id="shape144-346" transform="translate(329.619,-292.468)"><title>64-bit register.144</title><desc>18</desc><text x="1.22" y="312.13" class="st4">18</text></g><g id="shape145-348" transform="translate(340.957,-292.468)"><title>64-bit register.145</title><desc>17</desc><text x="1.22" y="312.13" class="st4">17</text></g><g id="shape146-350" transform="translate(352.296,-292.468)"><title>64-bit register.146</title><desc>16</desc><text x="1.22" y="312.13" class="st4">16</text></g><g id="shape147-352" transform="translate(363.635,-292.468)"><title>64-bit register.147</title><desc>15</desc><text x="1.22" y="312.13" class="st4">15</text></g><g id="shape148-354" transform="translate(374.973,-292.468)"><title>64-bit register.148</title><desc>14</desc><text x="1.22" y="312.13" class="st4">14</text></g><g id="shape149-356" transform="translate(386.312,-292.468)"><title>64-bit register.149</title><desc>13</desc><text x="1.22" y="312.13" class="st4">13</text></g><g id="shape150-358" transform="translate(420.328,-292.468)"><title>64-bit register.150</title><desc>10</desc><text x="1.22" y="312.13" class="st4">10</text></g><g id="shape151-360" transform="translate(431.666,-292.468)"><title>64-bit register.151</title><desc>9</desc><text x="3.44" y="312.13" class="st4">9</text></g><g id="shape152-362" transform="translate(443.005,-292.468)"><title>64-bit register.152</title><desc>8</desc><text x="3.44" y="312.13" class="st4">8</text></g><g id="shape153-364" transform="translate(454.343,-292.468)"><title>64-bit register.153</title><desc>7</desc><text x="3.44" y="312.13" class="st4">7</text></g><g id="shape154-366" transform="translate(465.682,-292.468)"><title>64-bit register.154</title><desc>6</desc><text x="3.44" y="312.13" class="st4">6</text></g><g id="shape155-368" transform="translate(477.02,-292.468)"><title>64-bit register.155</title><desc>5</desc><text x="3.44" y="312.13" class="st4">5</text></g><g id="shape156-370" transform="translate(488.359,-292.468)"><title>64-bit register.156</title><desc>4</desc><text x="3.44" y="312.13" class="st4">4</text></g><g id="shape157-372" transform="translate(499.698,-292.468)"><title>64-bit register.157</title><desc>3</desc><text x="3.44" y="312.13" class="st4">3</text></g><g id="shape179-374" transform="translate(170.879,-292.468)"><title>Sheet.179</title><desc>32</desc><text x="1.22" y="312.13" class="st4">32</text></g><g id="shape180-376" transform="translate(159.54,-264.122)"><title>Sheet.180</title><path d="M0 287.05 L0 315.4" class="st5"/></g><g id="shape181-379" transform="translate(170.879,-264.122)"><title>64-bit register.181</title><path d="M0 287.05 L0 315.4" class="st5"/></g><g id="shape182-382" transform="translate(159.54,-292.468)"><title>Sheet.182</title><desc>33</desc><text x="1.22" y="312.13" class="st4">33</text></g><g id="shape183-384" transform="translate(148.202,-292.468)"><title>Sheet.183</title><desc>34</desc><text x="1.22" y="312.13" class="st4">34</text></g><g id="shape185-386" transform="translate(134.028,-162.075)"><title>Sheet.185</title><desc>CD</desc><rect x="0" y="304.057" width="14.1732" height="11.3386" class="st7"/><text x="0.62" y="312.13" class="st4">C<tspan class="st8">D</tspan></text></g><g id="shape186-390" transform="translate(91.5087,-179.083)"><title>Sheet.186</title><desc>ID</desc><rect x="0" y="304.057" width="11.3386" height="11.3386" class="st7"/><text x="1.34" y="312.13" class="st4">I<tspan class="st8">D</tspan></text></g><g id="shape187-394" transform="translate(176.548,-167.744) scale(-1,1)"><title>Sheet.187</title><path d="M0 221.85 L0 315.4 L28.35 315.4" class="st6"/></g><g id="shape188-397" transform="translate(165.537,-184.752) scale(-1,1)"><title>Sheet.188</title><path d="M0 238.86 L0 315.4 L62.69 315.4" class="st6"/></g><g id="shape176-400" transform="translate(12.1386,-292.468)"><title>Sheet.176</title><desc>63</desc><text x="1.22" y="312.13" class="st4">63</text></g><g id="group184-402" transform="translate(56.0756,-261.287)"><title>Sheet.184</title><g id="group189-403" transform="translate(0,-28.3465)"><title>Sheet.189</title><g id="shape190-404" transform="translate(0.566929,5.68434E-14)"><title>Sheet.190</title><rect x="0" y="309.726" width="1.88976" height="5.66929" class="st9"/></g><g id="shape191-406" transform="translate(313.533,361.509) rotate(99.4623)"><title>Sheet.191</title><path d="M0 314.98 C0.15 315.19 0.72 315.36 1.15 315.39 C1.58 315.42 1.86 315.32 2.34 315.08 C2.63 314.94 2.98          314.75 3.29 314.63 C4.56 314.13 5.03 314.68 5.75 314.98" class="st6"/></g><g id="shape192-409" transform="translate(311.644,361.509) rotate(99.4623)"><title>Sheet.192</title><path d="M0 314.98 C0.15 315.19 0.72 315.36 1.15 315.39 C1.58 315.42 1.86 315.32 2.34 315.08 C2.63 314.94 2.98          314.75 3.29 314.63 C4.56 314.13 5.03 314.68 5.75 314.98" class="st6"/></g></g><g id="group193-412"><title>Sheet.193</title><g id="shape194-413" transform="translate(0.566929,5.68434E-14)"><title>Sheet.194</title><rect x="0" y="309.726" width="1.88976" height="5.66929" class="st9"/></g><g id="shape195-415" transform="translate(313.533,361.509) rotate(99.4623)"><title>Sheet.195</title><path d="M0 314.98 C0.15 315.19 0.72 315.36 1.15 315.39 C1.58 315.42 1.86 315.32 2.34 315.08 C2.63 314.94 2.98          314.75 3.29 314.63 C4.56 314.13 5.03 314.68 5.75 314.98" class="st6"/></g><g id="shape196-418" transform="translate(311.644,361.509) rotate(99.4623)"><title>Sheet.196</title><path d="M0 314.98 C0.15 315.19 0.72 315.36 1.15 315.39 C1.58 315.42 1.86 315.32 2.34 315.08 C2.63 314.94 2.98          314.75 3.29 314.63 C4.56 314.13 5.03 314.68 5.75 314.98" class="st6"/></g></g></g><g id="shape324-421" transform="translate(182.217,-264.122)"><title>Sheet.324</title><path d="M0 287.05 L0 315.4" class="st5"/></g><g id="shape325-424" transform="translate(148.202,-264.122)"><title>Sheet.325</title><path d="M0 287.05 L0 315.4" class="st5"/></g><g id="shape326-427" transform="translate(136.863,-264.122)"><title>Sheet.326</title><path d="M0 287.05 L0 315.4" class="st5"/></g><g id="shape327-430" transform="translate(114.186,-264.122)"><title>Sheet.327</title><path d="M0 287.05 L0 315.4" class="st5"/></g><g id="shape328-433" transform="translate(102.847,-264.122)"><title>Sheet.328</title><path d="M0 287.05 L0 315.4" class="st5"/></g><g id="shape329-436" transform="translate(452.259,11.5886) rotate(90)"><title>64-bit register.329</title><path d="M0 315.4 L11.34 315.4" class="st3"/></g><g id="shape330-439" transform="translate(136.863,-292.468)"><title>Sheet.330</title><desc>35</desc><text x="1.22" y="312.13" class="st4">35</text></g><g id="shape331-441" transform="translate(125.524,-292.468)"><title>Sheet.331</title><desc>36</desc><text x="1.22" y="312.13" class="st4">36</text></g><g id="shape332-443" transform="translate(114.186,-292.468)"><title>Sheet.332</title><desc>37</desc><text x="1.22" y="312.13" class="st4">37</text></g><g id="shape333-445" transform="translate(102.847,-292.468)"><title>Sheet.333</title><desc>38</desc><text x="1.22" y="312.13" class="st4">38</text></g><g id="shape334-447" transform="translate(91.5087,-292.468)"><title>Sheet.334</title><desc>39</desc><text x="1.22" y="312.13" class="st4">39</text></g><g id="shape335-449" transform="translate(406.904,11.5886) rotate(90)"><title>64-bit register.335</title><path d="M0 315.4 L11.34 315.4" class="st3"/></g><g id="shape336-452" transform="translate(395.566,11.5886) rotate(90)"><title>64-bit register.336</title><path d="M0 315.4 L11.34 315.4" class="st3"/></g><g id="shape337-455" transform="translate(384.227,11.5886) rotate(90)"><title>64-bit register.337</title><path d="M0 315.4 L11.34 315.4" class="st3"/></g><g id="shape338-458" transform="translate(372.889,11.5886) rotate(90)"><title>64-bit register.338</title><path d="M0 315.4 L11.34 315.4" class="st3"/></g><g id="shape339-461" transform="translate(361.55,11.5886) rotate(90)"><title>64-bit register.339</title><path d="M0 315.4 L11.34 315.4" class="st3"/></g><g id="shape340-464" transform="translate(350.211,11.5886) rotate(90)"><title>64-bit register.340</title><path d="M0 315.4 L11.34 315.4" class="st3"/></g><g id="shape341-467" transform="translate(327.534,11.5886) rotate(90)"><title>64-bit register.341</title><path d="M0 315.4 L11.34 315.4" class="st3"/></g><g id="shape344-470" transform="translate(108.517,-252.783) scale(-1,1)"><title>Sheet.344</title><path d="M0 306.89 L0 315.4 L5.67 315.4" class="st6"/></g><g id="shape345-473" transform="translate(57.4929,-247.114)"><title>Sheet.345</title><desc>MIOCNCE</desc><rect x="0" y="304.057" width="45.3543" height="11.3386" class="st7"/><text x="5.58" y="312.13" class="st4">MIOCNCE</text></g><g id="shape346-476" transform="translate(142.532,-207.429) scale(-1,1)"><title>Sheet.346</title><path d="M0 261.54 L0 315.4 L39.69 315.4" class="st6"/></g><g id="shape347-479" transform="translate(153.871,-196.091) scale(-1,1)"><title>Sheet.347</title><path d="M0 250.2 L0 315.4 L51.02 315.4" class="st6"/></g><g id="shape348-482" transform="translate(73.8709,-200.343)"><title>Sheet.348</title><desc>TLOR</desc><rect x="0" y="304.057" width="28.9764" height="11.3386" class="st7"/><text x="5.64" y="312.13" class="st4">TLOR</text></g><g id="shape349-485" transform="translate(80.1701,-189.004)"><title>Sheet.349</title><desc>E2H</desc><rect x="0" y="304.057" width="22.6772" height="11.3386" class="st7"/><text x="5.11" y="312.13" class="st4">E2H</text></g><g id="shape350-488" transform="translate(346.627,-71.3661)"><title>Sheet.350</title><path d="M0 125.47 L0 315.4 L22.68 315.4" class="st6"/></g><g id="shape78-491" transform="translate(335.288,-60.0275)"><title>Sheet.78</title><path d="M0 114.14 L0 315.4 L34.02 315.4" class="st6"/></g><g id="group79-494" transform="translate(12.1386,-28.8465)"><title>Sheet.79</title><g id="shape93-495" transform="translate(11.3386,0)"><title>Rectangle No Fill No Fill.116</title><desc>res0</desc><rect x="0" y="304.057" width="22.6772" height="11.3386" class="st10"/><text x="3.07" y="312.13" class="st11">RES<tspan class="st12">0</tspan></text></g><g id="shape94-499"><title>Graphic.117</title><rect x="0" y="304.057" width="11.3386" height="11.3386" class="st13"/></g></g><g id="group351-501" transform="translate(12.1386,-11.8386)"><title>Sheet.351</title><g id="shape352-502" transform="translate(11.3386,0)"><title>Rectangle No Fill No Fill.119</title><desc>res1</desc><rect x="0" y="304.057" width="22.6772" height="11.3386" class="st10"/><text x="3.07" y="312.13" class="st11">RES<tspan class="st12">1</tspan></text></g><g id="shape353-506"><title>Rectangle Fill:Soapstone.120</title><rect x="0" y="304.057" width="11.3386" height="11.3386" class="st1"/></g></g><g id="shape343-508" transform="translate(125.524,-264.122)"><title>Sheet.343</title><path d="M0 287.05 L0 315.4" class="st5"/></g><g id="shape355-511" transform="translate(323.95,-45.8543)"><title>Sheet.355</title><path d="M0 315.4 L45.35 315.4" class="st6"/></g><g id="shape356-514" transform="translate(312.611,-34.5157)"><title>Sheet.356</title><path d="M0 315.4 L56.69 315.4" class="st6"/></g><g id="shape357-517" transform="translate(119.855,-238.61) scale(-1,1)"><title>Sheet.357</title><path d="M0 292.72 L0 315.4 L17.01 315.4" class="st6"/></g><g id="shape358-520" transform="translate(57.4929,-231.524)"><title>Sheet.358</title><desc>TEA</desc><rect x="0" y="304.057" width="45.3543" height="11.3386" class="st7"/><text x="27.8" y="312.13" class="st4">TEA</text></g><g id="shape359-523" transform="translate(131.194,-227.272) scale(-1,1)"><title>Sheet.359</title><path d="M0 281.38 L0 315.4 L28.35 315.4" class="st6"/></g><g id="shape360-526" transform="translate(57.4929,-220.185)"><title>Sheet.360</title><desc>TERR</desc><rect x="0" y="304.057" width="45.3543" height="11.3386" class="st7"/><text x="21.58" y="312.13" class="st4">TERR</text></g></g></svg>