<?xml version="1.0" encoding="UTF-8" standalone="no"?><!-- Fixed up by svgfix.xsl 1.4  --><!-- Generated by Microsoft Visio, SVG Export actlr_el2_bit_assignments_LowRes.svg Page-1 -->
<!DOCTYPE svg
  PUBLIC "-//W3C//DTD SVG 1.0//EN" "http://www.w3.org/TR/2001/REC-SVG-20010904/DTD/svg10.dtd">
<svg xmlns:xlink="http://www.w3.org/1999/xlink" xmlns="http://www.w3.org/2000/svg" xmlns:ev="http://www.w3.org/2001/xml-events" width="534.446" height="250.316" viewBox="0 0 400.835 187.737" xml:space="preserve" color-interpolation-filters="sRGB" class="st16" preserveAspectRatio="xMidYMid meet" zoomAndPan="magnify" version="1.1" contentScriptType="application/ecmascript" contentStyleType="text/css"><style type="text/css" xml:space="preserve"><![CDATA[
	
		.st1 {fill:#eed9b3;stroke:none;stroke-linecap:round;stroke-linejoin:round;stroke-width:0.2px}
		.st2 {fill:#ffffff;stroke:none;stroke-linecap:round;stroke-linejoin:round;stroke-width:0.2px}
		.st3 {fill:#000000;font-family:Arial,Helvetica,sans-serif;font-size:0.666664em}
		.st4 {fill:#ffffff;stroke:none;stroke-width:0.999998px;visibility:hidden}
		.st5 {fill:none;stroke:#000000;stroke-linecap:butt;stroke-width:0.799998px}
		.st6 {fill:none;stroke:none;stroke-width:0.999999px}
		.st7 {fill:none}
		.st8 {stroke:#000000;stroke-linecap:butt;stroke-width:0.799998px}
		.st9 {stroke:#000000;stroke-dasharray:0.25,0.499999;stroke-linecap:butt;stroke-width:0.25px}
		.st10 {stroke:#000000;stroke-linecap:butt;stroke-width:0.499998px}
		.st11 {fill:none;stroke:none;stroke-linecap:butt;stroke-width:0.499998px}
		.st12 {fill:none;stroke:none;stroke-linecap:butt;stroke-width:0.499997px}
		.st13 {fill:#000000;font-family:Arial,Helvetica,sans-serif;font-size:0.533318em}
		.st14 {font-size:1.25003em}
		.st15 {fill:#eed9b3;stroke:none;stroke-linecap:round;stroke-linejoin:round;stroke-width:0.2px}
		.st16 {fill:none;fill-rule:evenodd;font-size:12px;overflow:visible;stroke-linecap:square;stroke-miterlimit:3}]]></style><g xmlns:v="http://schemas.microsoft.com/visio/2003/SVGExtensions/"><title>Page-1</title><g id="shape1-1" transform="translate(257.405,-129.051)"><title>Sheet.1</title><rect x="0" y="159.39" width="34.0157" height="28.3465" class="st1"/></g><g id="shape2-3" transform="translate(336.48,-129.051)"><title>Sheet.2</title><rect x="0" y="159.39" width="22.9719" height="28.3465" class="st1"/></g><g id="shape3-5" transform="translate(19.2956,-129.051)"><title>Sheet.3</title><rect x="0" y="159.39" width="215.433" height="28.3465" class="st1"/></g><g id="shape4-7" transform="translate(370.79,-129.051)"><title>Sheet.4</title><rect x="0" y="159.39" width="11.3386" height="28.3465" class="st2"/></g><g id="shape5-9" transform="translate(359.453,-129.051)"><title>Sheet.5</title><rect x="0" y="159.39" width="11.3386" height="28.3465" class="st2"/></g><g id="shape7-11" transform="translate(302.76,-129.051)"><title>Sheet.7</title><rect x="0" y="159.39" width="11.3386" height="28.3465" class="st2"/></g><g id="shape8-13" transform="translate(302.76,-129.051)"><title>Sheet.8</title><rect x="0" y="159.39" width="11.3386" height="28.3465" class="st1"/></g><g id="shape9-15" transform="translate(19.2449,-157.398)"><title>Sheet.9</title><desc>31</desc><text x="1.27" y="184.47" class="st3">63</text></g><g id="shape10-17" transform="translate(291.37,-157.398)"><title>Sheet.10</title><desc>7</desc><text x="3.5" y="184.47" class="st3">7</text></g><g id="shape11-19" transform="translate(302.709,-157.398)"><title>Sheet.11</title><desc>6</desc><text x="3.5" y="184.47" class="st3">6</text></g><g id="shape12-21" transform="translate(314.047,-157.398)"><title>Sheet.12</title><desc>5</desc><text x="3.5" y="184.47" class="st3">5</text></g><g id="shape13-23" transform="translate(359.402,-157.398)"><title>Sheet.13</title><desc>1</desc><text x="3.5" y="184.47" class="st3">1</text></g><g id="shape14-25" transform="translate(370.739,-157.398)"><title>Sheet.14</title><desc>0</desc><text x="3.5" y="184.47" class="st3">0</text></g><g id="group15-27" transform="translate(19.0002,-129.051)"><title>Sheet.15</title><g id="shape16-28"><title>Sheet.16</title><rect x="0" y="159.39" width="362.834" height="28.3465" class="st4"/></g><g id="shape17-30"><title>Sheet.17</title><rect x="0" y="159.39" width="362.834" height="28.3465" class="st5"/></g></g><g id="group18-32" transform="translate(302.76,-129.051)"><title>Sheet.18</title><g id="shape19-33"><title>Sheet.19</title><path d="M0 159.4 L0 187.74 L0 159.4 Z" class="st6"/></g><g id="shape20-35"><title>Sheet.20</title><path d="M0 159.4 L0 187.74 L0 159.4 Z" class="st7"/><path d="M0 159.4 L0 187.74" class="st8"/></g></g><g id="group21-38" transform="translate(314.098,-129.051)"><title>Sheet.21</title><g id="shape22-39"><title>Sheet.22</title><path d="M0 159.4 L0 187.74 L0 159.4 Z" class="st6"/></g><g id="shape23-41"><title>Sheet.23</title><path d="M0 159.4 L0 187.74 L0 159.4 Z" class="st7"/><path d="M0 159.4 L0 187.74" class="st8"/></g></g><g id="group24-44" transform="translate(524.217,19.0005) rotate(90)"><title>Signal 0</title><g id="shape25-45"><title>Sheet.25</title><path d="M0 187.74 L11.34 187.74 L0 187.74 Z" class="st6"/></g><g id="shape26-47"><title>Sheet.26</title><path d="M0 187.74 L11.34 187.74 L0 187.74 Z" class="st7"/><path d="M0 187.74 L11.34 187.74" class="st9"/></g></g><g id="group27-50" transform="translate(478.863,19.0005) rotate(90)"><title>Signal 0.102</title><g id="shape28-51"><title>Sheet.28</title><path d="M0 187.74 L11.34 187.74 L0 187.74 Z" class="st6"/></g><g id="shape29-53"><title>Sheet.29</title><path d="M0 187.74 L11.34 187.74 L0 187.74 Z" class="st7"/><path d="M0 187.74 L11.34 187.74" class="st9"/></g></g><g id="group30-56" transform="translate(433.509,19.0005) rotate(90)"><title>Signal 0.103</title><g id="shape31-57"><title>Sheet.31</title><path d="M0 187.74 L11.34 187.74 L0 187.74 Z" class="st6"/></g><g id="shape32-59"><title>Sheet.32</title><path d="M0 187.74 L11.34 187.74 L0 187.74 Z" class="st7"/><path d="M0 187.74 L11.34 187.74" class="st9"/></g></g><g id="group33-62" transform="translate(388.154,19.0005) rotate(90)"><title>Signal 0.104</title><g id="shape34-63"><title>Sheet.34</title><path d="M0 187.74 L11.34 187.74 L0 187.74 Z" class="st6"/></g><g id="shape35-65"><title>Sheet.35</title><path d="M0 187.74 L11.34 187.74 L0 187.74 Z" class="st7"/><path d="M0 187.74 L11.34 187.74" class="st9"/></g></g><g id="group36-68" transform="translate(342.8,19.0005) rotate(90)"><title>Signal 0.105</title><g id="shape37-69"><title>Sheet.37</title><path d="M0 187.74 L11.34 187.74 L0 187.74 Z" class="st6"/></g><g id="shape38-71"><title>Sheet.38</title><path d="M0 187.74 L11.34 187.74 L0 187.74 Z" class="st7"/><path d="M0 187.74 L11.34 187.74" class="st9"/></g></g><g id="group39-74" transform="translate(297.446,19) rotate(90)"><title>Signal 0.106</title><g id="shape40-75"><title>Sheet.40</title><path d="M0 187.74 L11.34 187.74 L0 187.74 Z" class="st6"/></g><g id="shape41-77"><title>Sheet.41</title><path d="M0 187.74 L11.34 187.74 L0 187.74 Z" class="st7"/><path d="M0 187.74 L11.34 187.74" class="st9"/></g></g><g id="group42-80" transform="translate(252.091,19.0005) rotate(90)"><title>Signal 0.107</title><g id="shape43-81"><title>Sheet.43</title><path d="M0 187.74 L11.34 187.74 L0 187.74 Z" class="st6"/></g><g id="shape44-83"><title>Sheet.44</title><path d="M0 187.74 L11.34 187.74 L0 187.74 Z" class="st7"/><path d="M0 187.74 L11.34 187.74" class="st9"/></g></g><g id="group45-86" transform="translate(206.737,19.0005) rotate(90)"><title>Signal 0.108</title><g id="shape46-87"><title>Sheet.46</title><path d="M0 187.74 L11.34 187.74 L0 187.74 Z" class="st6"/></g><g id="shape47-89"><title>Sheet.47</title><path d="M0 187.74 L11.34 187.74 L0 187.74 Z" class="st7"/><path d="M0 187.74 L11.34 187.74" class="st9"/></g></g><g id="group48-92" transform="translate(569.572,19.0005) rotate(90)"><title>Signal 0.109</title><g id="shape49-93"><title>Sheet.49</title><path d="M0 187.74 L11.34 187.74 L0 187.74 Z" class="st6"/></g><g id="shape50-95"><title>Sheet.50</title><path d="M0 187.74 L11.34 187.74 L0 187.74 Z" class="st7"/><path d="M0 187.74 L11.34 187.74" class="st9"/></g></g><g id="group51-98" transform="translate(234.433,-106.375)"><title>Sheet.51</title><g id="group52-99" transform="translate(204.742,167.895) rotate(90)"><title>Signal 0.2</title><g id="shape53-100"><title>Sheet.53</title><path d="M0 187.74 L19.84 187.74 L0 187.74 Z" class="st6"/></g><g id="shape54-102"><title>Sheet.54</title><path d="M0 187.74 L19.84 187.74 L0 187.74 Z" class="st7"/><path d="M0 187.74 L19.84 187.74" class="st10"/></g></g><g id="group55-105"><title>Signal 0.3</title><g id="shape56-106"><title>Sheet.56</title><path d="M0 187.74 L17.01 187.74 L0 187.74 Z" class="st6"/></g><g id="shape57-108"><title>Sheet.57</title><path d="M0 187.74 L17.01 187.74 L0 187.74 Z" class="st7"/><path d="M0 187.74 L17.01 187.74" class="st10"/></g></g></g><g id="shape58-111" transform="translate(325.386,-157.398)"><title>Sheet.58</title><desc>4</desc><text x="3.5" y="184.47" class="st3">4</text></g><g id="shape59-113" transform="translate(348.063,-157.398)"><title>Sheet.59</title><desc>2</desc><text x="3.5" y="184.47" class="st3">2</text></g><g id="group60-115" transform="translate(325.437,-129.051)"><title>Sheet.60</title><g id="shape61-116"><title>Sheet.61</title><path d="M0 159.4 L0 187.74 L0 159.4 Z" class="st6"/></g><g id="shape62-118"><title>Sheet.62</title><path d="M0 159.4 L0 187.74 L0 159.4 Z" class="st7"/><path d="M0 159.4 L0 187.74" class="st8"/></g></g><g id="group63-121" transform="translate(359.453,-129.051)"><title>Sheet.63</title><g id="shape64-122"><title>Sheet.64</title><path d="M0 159.4 L0 187.74 L0 159.4 Z" class="st6"/></g><g id="shape65-124"><title>Sheet.65</title><path d="M0 159.4 L0 187.74 L0 159.4 Z" class="st7"/><path d="M0 159.4 L0 187.74" class="st8"/></g></g><g id="group66-127" transform="translate(370.79,-129.051)"><title>Sheet.66</title><g id="shape67-128"><title>Sheet.67</title><path d="M0 159.4 L0 187.74 L0 159.4 Z" class="st6"/></g><g id="shape68-130"><title>Sheet.68</title><path d="M0 159.4 L0 187.74 L0 159.4 Z" class="st7"/><path d="M0 159.4 L0 187.74" class="st8"/></g></g><g id="group69-133" transform="translate(280.083,-95.0361)"><title>Sheet.69</title><g id="group70-134" transform="translate(204.744,156.556) rotate(90)"><title>Signal 0.2</title><g id="shape71-135"><title>Sheet.71</title><path d="M0 187.74 L28.35 187.74 L0 187.74 Z" class="st6"/></g><g id="shape72-137"><title>Sheet.72</title><path d="M0 187.74 L31.18 187.74 L0 187.74 Z" class="st7"/><path d="M0 187.74 L31.18 187.74" class="st10"/></g></g><g id="group73-140"><title>Signal 0.3</title><g id="shape74-141"><title>Sheet.74</title><path d="M0 187.74 L17.01 187.74 L0 187.74 Z" class="st6"/></g><g id="shape75-143"><title>Sheet.75</title><path d="M0 187.74 L17.01 187.74 L0 187.74 Z" class="st7"/><path d="M0 187.74 L17.01 187.74" class="st10"/></g></g></g><g id="group76-146" transform="translate(350.949,-49.677)"><title>Sheet.76</title><g id="group77-147" transform="translate(201.91,111.197) rotate(90)"><title>Signal 0.2</title><g id="shape78-148"><title>Sheet.78</title><path d="M0 187.74 L76.54 187.74 L0 187.74 Z" class="st6"/></g><g id="shape79-150"><title>Sheet.79</title><path d="M0 187.74 L76.54 187.74 L0 187.74 Z" class="st7"/><path d="M0 187.74 L76.54 187.74" class="st10"/></g></g><g id="group80-153" transform="translate(0,-0.00429998)"><title>Signal 0.3</title><g id="shape81-154"><title>Sheet.81</title><path d="M0 187.74 L14.17 187.74 L0 187.74 Z" class="st6"/></g><g id="shape82-156"><title>Sheet.82</title><path d="M0 187.74 L14.17 187.74 L0 187.74 Z" class="st7"/><path d="M0 187.74 L14.17 187.74" class="st10"/></g></g></g><g id="group83-159" transform="translate(350.949,-38.3427)"><title>Sheet.83</title><g id="group84-160" transform="translate(213.248,99.8627) rotate(90)"><title>Signal 0.2</title><g id="shape85-161"><title>Sheet.85</title><path d="M0 187.74 L87.87 187.74 L0 187.74 Z" class="st6"/></g><g id="shape86-163"><title>Sheet.86</title><path d="M0 187.74 L87.87 187.74 L0 187.74 Z" class="st7"/><path d="M0 187.74 L87.87 187.74" class="st10"/></g></g><g id="group87-166"><title>Signal 0.3</title><g id="shape88-167"><title>Sheet.88</title><path d="M0 187.74 L25.51 187.74 L0 187.74 Z" class="st6"/></g><g id="shape89-169"><title>Sheet.89</title><path d="M0 187.74 L25.51 187.74 L0 187.74 Z" class="st7"/><path d="M0 187.74 L25.51 187.74" class="st10"/></g></g></g><g id="shape90-172" transform="translate(234.728,-100.704) scale(-1,1)"><title>Sheet.90</title><desc>SMEN</desc><rect x="0" y="176.398" width="121.89" height="11.3386" class="st11"/><text x="-25.09" y="184.47" transform="scale(-1,1)" class="st3">SMEN</text></g><g id="shape91-175" transform="translate(280.083,-89.3668) scale(-1,1)"><title>Sheet.91</title><desc>PWREN</desc><rect x="0" y="176.398" width="121.89" height="11.3386" class="st11"/><text x="-31.75" y="184.47" transform="scale(-1,1)" class="st3">PWREN</text></g><g id="shape92-178" transform="translate(350.949,-44.0118) scale(-1,1)"><title>Sheet.92</title><desc>ECTLREN</desc><rect x="0" y="176.398" width="102.047" height="11.3386" class="st11"/><text x="-39.31" y="184.47" transform="scale(-1,1)" class="st3">ECTLREN</text></g><g id="shape93-181" transform="translate(350.949,-32.6732) scale(-1,1)"><title>Sheet.93</title><desc>ACTLREN</desc><rect x="0" y="176.398" width="102.047" height="11.3386" class="st11"/><text x="-39.31" y="184.47" transform="scale(-1,1)" class="st3">ACTLREN</text></g><g id="group94-184" transform="translate(291.421,-129.051)"><title>Sheet.94</title><g id="shape95-185"><title>Sheet.95</title><path d="M0 159.4 L0 187.74 L0 159.4 Z" class="st6"/></g><g id="shape96-187"><title>Sheet.96</title><path d="M0 159.4 L0 187.74 L0 159.4 Z" class="st7"/><path d="M0 159.4 L0 187.74" class="st8"/></g></g><g id="group97-190" transform="translate(257.405,-129.051)"><title>Sheet.97</title><g id="shape98-191"><title>Sheet.98</title><path d="M0 159.4 L0 187.74 L0 159.4 Z" class="st6"/></g><g id="shape99-193"><title>Sheet.99</title><path d="M0 159.4 L0 187.74 L0 159.4 Z" class="st7"/><path d="M0 159.4 L0 187.74" class="st8"/></g></g><g id="shape100-196" transform="translate(280.032,-157.398)"><title>Sheet.100</title><desc>8</desc><text x="3.5" y="184.47" class="st3">8</text></g><g id="shape101-198" transform="translate(257.354,-157.398)"><title>Sheet.101</title><desc>10</desc><text x="1.27" y="184.47" class="st3">10</text></g><g id="group102-200" transform="translate(234.433,-117.713)"><title>Sheet.102</title><g id="group103-201" transform="translate(193.405,179.233) rotate(90)"><title>Signal 0.2</title><g id="shape104-202"><title>Sheet.104</title><path d="M0 187.74 L8.5 187.74 L0 187.74 Z" class="st6"/></g><g id="shape105-204"><title>Sheet.105</title><path d="M0 187.74 L8.5 187.74 L0 187.74 Z" class="st7"/><path d="M0 187.74 L8.5 187.74" class="st10"/></g></g><g id="group106-207"><title>Signal 0.3</title><g id="shape107-208"><title>Sheet.107</title><path d="M0 187.74 L5.67 187.74 L0 187.74 Z" class="st6"/></g><g id="shape108-210"><title>Sheet.108</title><path d="M0 187.74 L5.67 187.74 L0 187.74 Z" class="st7"/><path d="M0 187.74 L5.67 187.74" class="st10"/></g></g></g><g id="shape109-213" transform="translate(246.016,-157.398)"><title>Sheet.109</title><desc>11</desc><text x="1.27" y="184.47" class="st3">11</text></g><g id="shape110-215" transform="translate(234.677,-157.398)"><title>Sheet.110</title><desc>12</desc><text x="1.27" y="184.47" class="st3">12</text></g><g id="shape111-217" transform="translate(223.339,-157.398)"><title>Sheet.111</title><desc>13</desc><text x="1.27" y="184.47" class="st3">13</text></g><g id="group112-219" transform="translate(234.728,-129.051)"><title>Sheet.112</title><g id="shape113-220"><title>Sheet.113</title><path d="M0 159.4 L0 187.74 L0 159.4 Z" class="st6"/></g><g id="shape114-222"><title>Sheet.114</title><path d="M0 159.4 L0 187.74 L0 159.4 Z" class="st7"/><path d="M0 159.4 L0 187.74" class="st8"/></g></g><g id="group115-225" transform="translate(245.772,-129.051)"><title>Sheet.115</title><g id="shape116-226"><title>Sheet.116</title><path d="M0 159.4 L0 187.74 L0 159.4 Z" class="st6"/></g><g id="shape117-228"><title>Sheet.117</title><path d="M0 159.4 L0 187.74 L0 159.4 Z" class="st7"/><path d="M0 159.4 L0 187.74" class="st8"/></g></g><g id="shape118-231" transform="translate(280.083,-78.0282) scale(-1,1)"><title>Sheet.118</title><desc>ERXPFGEN</desc><rect x="0" y="176.398" width="121.89" height="11.3386" class="st11"/><text x="-45.98" y="184.47" transform="scale(-1,1)" class="st3">ERXPFGEN</text></g><g id="group119-234" transform="translate(280.083,-83.6975)"><title>Sheet.119</title><g id="group120-235" transform="translate(227.421,145.217) rotate(90)"><title>Signal 0.2</title><g id="shape121-236"><title>Sheet.121</title><path d="M0 187.74 L42.52 187.74 L0 187.74 Z" class="st6"/></g><g id="shape122-238"><title>Sheet.122</title><path d="M0 187.74 L42.52 187.74 L0 187.74 Z" class="st7"/><path d="M0 187.74 L42.52 187.74" class="st10"/></g></g><g id="group123-241" transform="translate(0,-0.00102627)"><title>Signal 0.3</title><g id="shape124-242"><title>Sheet.124</title><path d="M0 187.74 L39.69 187.74 L0 187.74 Z" class="st6"/></g><g id="shape125-244"><title>Sheet.125</title><path d="M0 187.74 L39.69 187.74 L0 187.74 Z" class="st7"/><path d="M0 187.74 L39.69 187.74" class="st10"/></g></g></g><g id="group126-247" transform="translate(19.2956,-18.5)"><title>Sheet.126</title><g id="shape127-248" transform="translate(11.3386,2.84217E-14)"><title>Rectangle No Fill No Fill.116</title><desc>res0</desc><rect x="0" y="176.398" width="22.6772" height="11.3386" class="st12"/><text x="3.1" y="184.47" class="st13">RES<tspan class="st14">0</tspan></text></g><g id="shape128-252"><title>Graphic.117</title><rect x="0" y="176.398" width="11.3386" height="11.3386" class="st15"/></g></g><g id="shape129-254" transform="translate(234.728,-112.043) scale(-1,1)"><title>Sheet.129</title><desc>CLUSTERPMUEN</desc><rect x="0" y="176.398" width="121.89" height="11.3386" class="st11"/><text x="-68.2" y="184.47" transform="scale(-1,1)" class="st3">CLUSTERPMUEN</text></g><g id="group130-257" transform="translate(336.48,-129.052)"><title>Sheet.130</title><g id="shape131-258"><title>Sheet.131</title><path d="M0 159.4 L0 187.74 L0 159.4 Z" class="st6"/></g><g id="shape132-260"><title>Sheet.132</title><path d="M0 159.4 L0 187.74 L0 159.4 Z" class="st7"/><path d="M0 159.4 L0 187.74" class="st8"/></g></g><g id="shape133-263" transform="translate(336.48,-157.398)"><title>Sheet.133</title><desc>4</desc><text x="3.5" y="184.47" class="st3">3</text></g><g id="shape134-265" transform="translate(279.787,-66.6896) scale(-1,1)"><title>Sheet.134</title><desc>ERXPFGEN</desc><rect x="0" y="176.398" width="121.89" height="11.3386" class="st11"/><text x="-25.09" y="184.47" transform="scale(-1,1)" class="st3">AMEN</text></g><g id="group136-268" transform="translate(518.548,61.5193) rotate(90)"><title>Signal 0.2</title><g id="shape137-269"><title>Sheet.137</title><path d="M0 187.74 L53.86 187.74 L0 187.74 Z" class="st6"/></g><g id="shape138-271"><title>Sheet.138</title><path d="M0 187.74 L53.86 187.74 L0 187.74 Z" class="st7"/><path d="M0 187.74 L53.86 187.74" class="st10"/></g></g><g id="group139-274" transform="translate(279.787,-72.3589)"><title>Signal 0.3</title><g id="shape140-275"><title>Sheet.140</title><path d="M0 187.74 L51.02 187.74 L0 187.74 Z" class="st6"/></g><g id="shape141-277"><title>Sheet.141</title><path d="M0 187.74 L51.02 187.74 L0 187.74 Z" class="st7"/><path d="M0 187.74 L51.02 187.74" class="st10"/></g></g></g></svg>