<?xml version="1.0" encoding="UTF-8" standalone="no"?><!-- Fixed up by svgfix.xsl 1.4  --><!-- Generated by Microsoft Visio, SVG Export id_aa64pfr0_el1_bit_assignments_LowRes.svg ARM -->
<!DOCTYPE svg
  PUBLIC "-//W3C//DTD SVG 1.0//EN" "http://www.w3.org/TR/2001/REC-SVG-20010904/DTD/svg10.dtd">
<svg xmlns:xlink="http://www.w3.org/1999/xlink" xmlns="http://www.w3.org/2000/svg" xmlns:ev="http://www.w3.org/2001/xml-events" width="697.567" height="137.063" viewBox="0 0 523.175 102.797" xml:space="preserve" color-interpolation-filters="sRGB" class="st13" preserveAspectRatio="xMidYMid meet" zoomAndPan="magnify" version="1.1" contentScriptType="application/ecmascript" contentStyleType="text/css"><style type="text/css" xml:space="preserve"><![CDATA[
	
		.st1 {fill:#eed9b3;stroke:none;stroke-linecap:round;stroke-linejoin:round;stroke-width:0.2px}
		.st2 {stroke:#000000;stroke-linecap:butt;stroke-width:0.8px}
		.st3 {stroke:#000000;stroke-dasharray:0.25,0.5;stroke-linecap:butt;stroke-width:0.25px}
		.st4 {fill:#000000;font-family:Arial,Helvetica,sans-serif;font-size:0.666664em}
		.st5 {fill:none;stroke:none;stroke-linecap:round;stroke-linejoin:round;stroke-width:0.2px}
		.st6 {font-size:1em}
		.st7 {fill:#ffffff;stroke:none;stroke-linecap:butt;stroke-width:0.5px}
		.st8 {stroke:#000000;stroke-linecap:butt;stroke-width:0.5px}
		.st9 {fill:none;stroke:none;stroke-linecap:butt;stroke-width:0.499999px}
		.st10 {fill:#000000;font-family:Arial,Helvetica,sans-serif;font-size:0.533318em}
		.st11 {font-size:1.25003em}
		.st12 {fill:#eed9b3;stroke:none;stroke-linecap:round;stroke-linejoin:round;stroke-width:0.2px}
		.st13 {fill:none;fill-rule:evenodd;font-size:12px;overflow:visible;stroke-linecap:square;stroke-miterlimit:3}]]></style><g xmlns:v="http://schemas.microsoft.com/visio/2003/SVGExtensions/"><title>ARM</title><g id="shape20-1" transform="translate(102.847,-51.5236)"><title>64-bit register.88</title><rect x="0" y="74.4508" width="45.3543" height="28.3465" class="st1"/></g><g id="shape1-3" transform="translate(511.036,-51.5236) scale(-1,1)"><title>64-bit register.156</title><path d="M0 74.45 L498.9 74.45 L498.9 102.8 L0 102.8" class="st2"/></g><g id="shape2-6" transform="translate(250.999,11.5886) rotate(90)"><title>64-bit register.169</title><path d="M0 102.8 L11.34 102.8" class="st3"/></g><g id="shape3-9" transform="translate(511.036,-51.5236)"><title>64-bit register.157</title><path d="M0 74.45 L0 102.8" class="st2"/></g><g id="shape6-12" transform="translate(329.619,-51.5236)"><title>64-bit register.38</title><path d="M0 74.45 L0 102.8" class="st2"/></g><g id="shape14-15" transform="translate(432.416,11.5886) rotate(90)"><title>64-bit register.14</title><path d="M0 102.8 L11.34 102.8" class="st3"/></g><g id="shape15-18" transform="translate(477.77,11.5886) rotate(90)"><title>64-bit register.15</title><path d="M0 102.8 L11.34 102.8" class="st3"/></g><g id="shape16-21" transform="translate(568.479,11.5886) rotate(90)"><title>64-bit register.16</title><path d="M0 102.8 L11.34 102.8" class="st3"/></g><g id="shape17-24" transform="translate(613.833,11.5886) rotate(90)"><title>64-bit register.17</title><path d="M0 102.8 L11.34 102.8" class="st3"/></g><g id="shape18-27" transform="translate(148.202,-79.8701)"><title>64-bit register.179</title><desc>31</desc><text x="1.22" y="99.53" class="st4">31</text></g><g id="shape19-29" transform="translate(499.698,-79.8701)"><title>64-bit register.19</title><desc>0</desc><text x="3.44" y="99.53" class="st4">0</text></g><g id="shape21-31" transform="translate(523.125,11.5886) rotate(90)"><title>64-bit register.21</title><path d="M0 102.8 L11.34 102.8" class="st3"/></g><g id="shape26-34" transform="translate(454.343,-79.8701)"><title>64-bit register.35</title><desc>4</desc><text x="3.44" y="99.53" class="st4">4</text></g><g id="shape27-36" transform="translate(465.682,-79.8701)"><title>64-bit register.209</title><desc>3</desc><text x="3.44" y="99.53" class="st4">3</text></g><g id="shape28-38" transform="translate(408.989,-79.8701)"><title>64-bit register.210</title><desc>8</desc><text x="3.44" y="99.53" class="st4">8</text></g><g id="shape29-40" transform="translate(420.328,-79.8701)"><title>64-bit register.211</title><desc>7</desc><text x="3.44" y="99.53" class="st4">7</text></g><g id="shape30-42" transform="translate(363.635,-79.8701)"><title>64-bit register.212</title><desc>12</desc><text x="1.22" y="99.53" class="st4">12</text></g><g id="shape31-44" transform="translate(374.973,-79.8701)"><title>64-bit register.213</title><desc>11</desc><text x="1.22" y="99.53" class="st4">11</text></g><g id="shape32-46" transform="translate(318.28,-79.8701)"><title>64-bit register.214</title><desc>16</desc><text x="1.22" y="99.53" class="st4">16</text></g><g id="shape33-48" transform="translate(329.619,-79.8701)"><title>64-bit register.215</title><desc>15</desc><text x="1.22" y="99.53" class="st4">15</text></g><g id="shape34-50" transform="translate(329.619,-51.5236)"><title>64-bit register.222</title><desc>EL3 handling</desc><rect x="0" y="74.4508" width="45.3543" height="28.3465" class="st5"/><text x="15.56" y="86.22" class="st4">EL3 <tspan x="7.55" dy="1.2em" class="st6">handling</tspan></text></g><g id="shape35-54" transform="translate(374.973,-51.5236)"><title>64-bit register.223</title><desc>EL2 handling</desc><rect x="0" y="74.4508" width="45.3543" height="28.3465" class="st5"/><text x="15.56" y="86.22" class="st4">EL2 <tspan x="7.55" dy="1.2em" class="st6">handling</tspan></text></g><g id="shape36-58" transform="translate(420.328,-51.5236)"><title>64-bit register.224</title><desc>EL1 handling</desc><rect x="0" y="74.4508" width="45.3543" height="28.3465" class="st5"/><text x="15.56" y="86.22" class="st4">EL1 <tspan x="7.55" dy="1.2em" class="st6">handling</tspan></text></g><g id="shape37-62" transform="translate(465.682,-51.5236)"><title>64-bit register.225</title><desc>EL0 handling</desc><rect x="0" y="74.4508" width="45.3543" height="28.3465" class="st5"/><text x="15.56" y="86.22" class="st4">EL0 <tspan x="7.55" dy="1.2em" class="st6">handling</tspan></text></g><g id="shape38-66" transform="translate(374.973,-51.5236)"><title>Sheet.38</title><path d="M0 74.45 L0 102.8" class="st2"/></g><g id="shape39-69" transform="translate(420.328,-51.5236)"><title>64-bit register.39</title><path d="M0 74.45 L0 102.8" class="st2"/></g><g id="shape40-72" transform="translate(465.682,-51.5236)"><title>64-bit register.40</title><path d="M0 74.45 L0 102.8" class="st2"/></g><g id="shape42-75" transform="translate(238.91,-51.5236)"><title>64-bit register.42</title><desc>AdvSIMD</desc><rect x="0" y="74.4508" width="45.3543" height="28.3465" class="st5"/><text x="5.78" y="91.02" class="st4">AdvSIMD</text></g><g id="shape43-78" transform="translate(284.265,-51.5236)"><title>64-bit register.43</title><desc>FP</desc><rect x="0" y="74.4508" width="45.3543" height="28.3465" class="st5"/><text x="17.57" y="91.02" class="st4">FP</text></g><g id="shape44-81" transform="translate(284.265,-51.5236)"><title>Sheet.44</title><path d="M0 74.45 L0 102.8" class="st2"/></g><g id="shape45-84" transform="translate(238.91,-51.5236)"><title>Sheet.45</title><path d="M0 74.45 L0 102.8" class="st2"/></g><g id="shape46-87" transform="translate(341.707,11.5886) rotate(90)"><title>64-bit register.46</title><path d="M0 102.8 L11.34 102.8" class="st3"/></g><g id="shape47-90" transform="translate(387.062,11.5886) rotate(90)"><title>64-bit register.47</title><path d="M0 102.8 L11.34 102.8" class="st3"/></g><g id="shape48-93" transform="translate(272.926,-79.8701)"><title>64-bit register.48</title><desc>20</desc><text x="1.22" y="99.53" class="st4">20</text></g><g id="shape49-95" transform="translate(284.265,-79.8701)"><title>64-bit register.49</title><desc>19</desc><text x="1.22" y="99.53" class="st4">19</text></g><g id="shape50-97" transform="translate(227.572,-79.8701)"><title>64-bit register.50</title><desc>24</desc><text x="1.22" y="99.53" class="st4">24</text></g><g id="shape51-99" transform="translate(238.91,-79.8701)"><title>64-bit register.51</title><desc>23</desc><text x="1.22" y="99.53" class="st4">23</text></g><g id="shape52-101" transform="translate(193.556,-51.5236)"><title>64-bit register.52</title><desc>GIC</desc><rect x="0" y="74.4508" width="45.3543" height="28.3465" class="st5"/><text x="15.57" y="91.02" class="st4">GIC</text></g><g id="shape54-104" transform="translate(182.217,-79.8701)"><title>64-bit register.54</title><desc>28</desc><text x="1.22" y="99.53" class="st4">28</text></g><g id="shape55-106" transform="translate(193.556,-79.8701)"><title>64-bit register.55</title><desc>27</desc><text x="1.22" y="99.53" class="st4">27</text></g><g id="shape56-108" transform="translate(193.556,-51.5236)"><title>Sheet.56</title><path d="M0 74.45 L0 102.8" class="st2"/></g><g id="shape57-111" transform="translate(296.353,11.5886) rotate(90)"><title>64-bit register.57</title><path d="M0 102.8 L11.34 102.8" class="st3"/></g><g id="shape58-114" transform="translate(148.202,-51.5236)"><title>Sheet.58</title><path d="M0 74.45 L0 102.8" class="st2"/></g><g id="group59-117" transform="translate(122.69,-48.689)"><title>Sheet.59</title><g id="group4-118" transform="translate(-1.4988E-15,-28.3465)"><title>Disconnect</title><g id="shape5-119" transform="translate(0.566929,0)"><title>Sheet.5</title><rect x="0" y="97.1279" width="1.88976" height="5.66929" class="st7"/></g><g id="shape7-121" transform="translate(103.827,113.96) rotate(99.4623)"><title>Sheet.7</title><path d="M0 102.39 C0.15 102.59 0.72 102.76 1.15 102.79 C1.58 102.82 1.86 102.72 2.34 102.48 C2.63 102.34 2.98          102.15 3.29 102.03 C4.56 101.53 5.03 102.08 5.75 102.39" class="st8"/></g><g id="shape8-124" transform="translate(101.938,113.96) rotate(99.4623)"><title>Sheet.8</title><path d="M0 102.39 C0.15 102.59 0.72 102.76 1.15 102.79 C1.58 102.82 1.86 102.72 2.34 102.48 C2.63 102.34 2.98          102.15 3.29 102.03 C4.56 101.53 5.03 102.08 5.75 102.39" class="st8"/></g></g><g id="group9-127"><title>Disconnect.9</title><g id="shape10-128" transform="translate(0.566929,0)"><title>Sheet.10</title><rect x="0" y="97.1279" width="1.88976" height="5.66929" class="st7"/></g><g id="shape22-130" transform="translate(103.827,113.96) rotate(99.4623)"><title>Sheet.22</title><path d="M0 102.39 C0.15 102.59 0.72 102.76 1.15 102.79 C1.58 102.82 1.86 102.72 2.34 102.48 C2.63 102.34 2.98          102.15 3.29 102.03 C4.56 101.53 5.03 102.08 5.75 102.39" class="st8"/></g><g id="shape23-133" transform="translate(101.938,113.96) rotate(99.4623)"><title>Sheet.23</title><path d="M0 102.39 C0.15 102.59 0.72 102.76 1.15 102.79 C1.58 102.82 1.86 102.72 2.34 102.48 C2.63 102.34 2.98          102.15 3.29 102.03 C4.56 101.53 5.03 102.08 5.75 102.39" class="st8"/></g></g></g><g id="shape60-136" transform="translate(136.863,-79.8701)"><title>64-bit register.60</title><desc>32</desc><text x="1.22" y="99.53" class="st4">32</text></g><g id="shape61-138" transform="translate(12.1386,-79.8701)"><title>64-bit register.61</title><desc>63</desc><text x="1.22" y="99.53" class="st4">63</text></g><g id="shape62-140" transform="translate(205.644,11.5886) rotate(90)"><title>64-bit register.62</title><path d="M0 102.8 L11.34 102.8" class="st3"/></g><g id="shape63-143" transform="translate(148.202,-51.5236)"><title>64-bit register.63</title><desc>RAS</desc><rect x="0" y="74.4508" width="45.3543" height="28.3465" class="st5"/><text x="14.45" y="91.02" class="st4">RAS</text></g><g id="group67-146" transform="translate(12.1386,-11.8386)"><title>Sheet.67</title><g id="shape68-147" transform="translate(11.3386,0)"><title>Rectangle No Fill No Fill.116</title><desc>res0</desc><rect x="0" y="91.4587" width="22.6772" height="11.3386" class="st9"/><text x="3.07" y="99.53" class="st10">RES<tspan class="st11">0</tspan></text></g><g id="shape69-151"><title>Graphic.117</title><rect x="0" y="91.4587" width="11.3386" height="11.3386" class="st12"/></g></g><g id="shape72-153" transform="translate(102.847,-51.5236)"><title>Sheet.72</title><path d="M0 74.45 L0 102.8" class="st2"/></g><g id="shape73-156" transform="translate(57.4929,-51.5236)"><title>Sheet.73</title><path d="M0 74.45 L0 102.8" class="st2"/></g><g id="shape74-159" transform="translate(114.936,11.5886) rotate(90)"><title>64-bit register.74</title><path d="M0 102.8 L11.34 102.8" class="st3"/></g><g id="shape75-162" transform="translate(160.29,11.5886) rotate(90)"><title>64-bit register.75</title><path d="M0 102.8 L11.34 102.8" class="st3"/></g><g id="shape76-165" transform="translate(46.1543,-79.8701)"><title>64-bit register.76</title><desc>60</desc><text x="1.22" y="99.53" class="st4">60</text></g><g id="shape77-167" transform="translate(57.4929,-79.8701)"><title>64-bit register.77</title><desc>59</desc><text x="1.22" y="99.53" class="st4">59</text></g><g id="shape78-169" transform="translate(91.5087,-79.8701)"><title>64-bit register.78</title><desc>56</desc><text x="1.22" y="99.53" class="st4">56</text></g><g id="shape79-171" transform="translate(102.847,-79.8701)"><title>64-bit register.79</title><desc>55</desc><text x="1.22" y="99.53" class="st4">55</text></g><g id="shape80-173" transform="translate(12.1386,-51.5236)"><title>64-bit register.80</title><desc>CSV3</desc><rect x="0" y="74.4508" width="45.3543" height="28.3465" class="st5"/><text x="12.23" y="91.02" class="st4">CSV3</text></g><g id="shape81-176" transform="translate(57.4929,-51.5236)"><title>64-bit register.81</title><desc>CSV2</desc><rect x="0" y="74.4508" width="45.3543" height="28.3465" class="st5"/><text x="12.23" y="91.02" class="st4">CSV2</text></g></g></svg>