<?xml version="1.0" encoding="UTF-8" standalone="no"?><!-- Fixed up by svgfix.xsl 1.4  --><!-- Generated by Microsoft Visio 11.0, SVG Export, v1.0 PMSSSR bit assignments.svg ARM -->
<!DOCTYPE svg
  PUBLIC "-//W3C//DTD SVG 1.0//EN" "http://www.w3.org/TR/2001/REC-SVG-20010904/DTD/svg10.dtd">
<svg xmlns:xlink="http://www.w3.org/1999/xlink" xmlns="http://www.w3.org/2000/svg" xmlns:ev="http://www.w3.org/2001/xml-events" width="516.142" height="122.282" viewBox="0 0 387.106 91.712" xml:space="preserve" color-interpolation-filters="sRGB" class="st10" preserveAspectRatio="xMidYMid meet" zoomAndPan="magnify" version="1.0" contentScriptType="text/ecmascript" contentStyleType="text/css"><style type="text/css" xml:space="preserve"><![CDATA[
	
		.st1 {fill:#eed9b3;stroke:none;stroke-linecap:round;stroke-linejoin:round;stroke-width:0.2px}
		.st2 {fill:none}
		.st3 {stroke:#000000;stroke-linecap:butt;stroke-width:0.799997px}
		.st4 {stroke:#000000;stroke-dasharray:0.249999,0.499999;stroke-linecap:butt;stroke-width:0.249999px}
		.st5 {fill:none;stroke:none;stroke-linecap:butt;stroke-width:0.499999px}
		.st6 {fill:#000000;font-family:Arial,Helvetica,sans-serif;font-size:0.666664em}
		.st7 {stroke:#000000;stroke-linecap:butt;stroke-width:0.5px}
		.st8 {fill:#000000;font-family:Arial,Helvetica,sans-serif;font-size:0.533318em}
		.st9 {font-size:1.25003em}
		.st10 {fill:none;fill-rule:evenodd;font-size:12px;overflow:visible;stroke-linecap:square;stroke-miterlimit:3}]]></style><g xmlns:v="http://schemas.microsoft.com/visio/2003/SVGExtensions/"><title content="structured text">ARM</title><g id="shape19-1" transform="translate(12.5851,-40.185)"><title content="structured text">Graphic.10</title><rect x="0" y="63.478" width="351.047" height="28.2335" class="st1"/></g><g id="shape1-3" transform="translate(12.1386,-40.185)"><title content="structured text">Graphic.11</title><path d="M362.83 63.36 L0 63.36 L0 91.71 L362.83 91.71 L362.83 63.36 Z" class="st2"/><path d="M362.83 63.36 L0 63.36 L0 91.71 L362.83 91.71" class="st3"/></g><g id="shape2-6" transform="translate(12.1336,-68.535)"><title content="structured text">Graphic.12</title><path d="M0 80.37 L0 91.71 L0 80.37 Z" class="st2"/><path d="M0 80.37 L0 91.71" class="st4"/></g><g id="shape3-9" transform="translate(374.968,-40.185)"><title content="structured text">Graphic.13</title><path d="M0 63.36 L0 91.71 L0 63.36 Z" class="st2"/><path d="M0 63.36 L0 91.71" class="st3"/></g><g id="shape4-12" transform="translate(57.4878,-68.535)"><title content="structured text">Graphic.14</title><path d="M0 80.37 L0 91.71 L0 80.37 Z" class="st2"/><path d="M0 80.37 L0 91.71" class="st4"/></g><g id="shape5-15" transform="translate(102.842,-68.535)"><title content="structured text">Graphic.15</title><path d="M0 80.37 L0 91.71 L0 80.37 Z" class="st2"/><path d="M0 80.37 L0 91.71" class="st4"/></g><g id="shape6-18" transform="translate(148.196,-68.535)"><title content="structured text">Graphic.16</title><path d="M0 80.37 L0 91.71 L0 80.37 Z" class="st2"/><path d="M0 80.37 L0 91.71" class="st4"/></g><g id="shape7-21" transform="translate(193.55,-68.535)"><title content="structured text">Graphic.17</title><path d="M0 80.37 L0 91.71 L0 80.37 Z" class="st2"/><path d="M0 80.37 L0 91.71" class="st4"/></g><g id="shape8-24" transform="translate(238.905,-68.535)"><title content="structured text">Graphic.18</title><path d="M0 80.37 L0 91.71 L0 80.37 Z" class="st2"/><path d="M0 80.37 L0 91.71" class="st4"/></g><g id="shape9-27" transform="translate(329.613,-68.535)"><title content="structured text">Graphic.19</title><path d="M0 80.37 L0 91.71 L0 80.37 Z" class="st2"/><path d="M0 80.37 L0 91.71" class="st4"/></g><g id="shape10-30" transform="translate(374.968,-68.535)"><title content="structured text">Graphic.20</title><path d="M0 80.37 L0 91.71 L0 80.37 Z" class="st2"/><path d="M0 80.37 L0 91.71" class="st4"/></g><g id="shape11-33" transform="translate(12.1336,-68.5344)"><title content="structured text">Rectangle No Fill No Fill.21</title><desc content="structured text">31</desc><rect x="0" y="80.373" width="11.3386" height="11.3386" class="st5"/><text x="1.22" y="88.44" class="st6">31</text></g><g id="shape12-36" transform="translate(363.629,-68.5344)"><title content="structured text">Rectangle No Fill No Fill.22</title><desc content="structured text">0</desc><rect x="0" y="80.373" width="11.3386" height="11.3386" class="st5"/><text x="3.44" y="88.44" class="st6">0</text></g><g id="shape14-39" transform="translate(352.293,-68.5315)"><title content="structured text">Rectangle No Fill No Fill.105</title><desc content="structured text">30</desc><rect x="0" y="80.373" width="11.3386" height="11.3386" class="st5"/><text x="3.44" y="88.44" class="st6">1</text></g><g id="shape15-42" transform="translate(363.632,-40.1816)"><title content="structured text">Graphic.2</title><path d="M0 63.36 L0 91.71 L0 63.36 Z" class="st2"/><path d="M0 63.36 L0 91.71" class="st3"/></g><g id="shape16-45" transform="translate(357.963,-31.6811)"><title content="structured text">Bit name 1</title><desc content="structured text">NC</desc><path d="M11.34 86.04 L11.34 91.71 L0 91.71" class="st7"/><text x="-12.55" y="94.11" class="st6">NC</text></g><g id="group13-49" transform="translate(12.1358,-11.8386)"><title content="structured text">Sheet.13</title><g id="shape17-50" transform="translate(11.3386,0)"><title content="structured text">Rectangle No Fill No Fill.116</title><desc content="structured text">res0</desc><rect x="0" y="80.373" width="22.6772" height="11.3386" class="st5"/><text x="3.07" y="88.44" class="st8">RES<tspan class="st9">0</tspan></text></g><g id="shape18-54"><title content="structured text">Graphic.117</title><rect x="0" y="80.373" width="11.3386" height="11.3386" class="st1"/></g></g></g></svg>