<?xml version="1.0" encoding="UTF-8" standalone="no"?><!-- Fixed up by svgfix.xsl 1.4  --><!-- Generated by Microsoft Visio 11.0, SVG Export, v1.0 joh1445870137181_low res.svg ARM -->
<!DOCTYPE svg
  PUBLIC "-//W3C//DTD SVG 1.0//EN" "http://www.w3.org/TR/2001/REC-SVG-20010904/DTD/svg10.dtd">
<svg xmlns:xlink="http://www.w3.org/1999/xlink" xmlns="http://www.w3.org/2000/svg" xmlns:ev="http://www.w3.org/2001/xml-events" width="516.149" height="129.504" viewBox="0 0 387.112 97.128" xml:space="preserve" color-interpolation-filters="sRGB" class="st11" preserveAspectRatio="xMidYMid meet" zoomAndPan="magnify" version="1.0" contentScriptType="text/ecmascript" contentStyleType="text/css"><style type="text/css" xml:space="preserve"><![CDATA[
	
		.st1 {fill:#eed9b3;stroke:none;stroke-linecap:round;stroke-linejoin:round;stroke-width:0.2px}
		.st2 {fill:#000000;font-family:Arial,Helvetica,sans-serif;font-size:0.666664em}
		.st3 {stroke:#000000;stroke-dasharray:0.25,0.5;stroke-linecap:butt;stroke-width:0.25px}
		.st4 {stroke:#000000;stroke-linecap:butt;stroke-width:0.8px}
		.st5 {stroke:#000000;stroke-linecap:butt;stroke-width:0.5px}
		.st6 {fill:none;stroke:none;stroke-linecap:butt;stroke-width:0.5px}
		.st7 {fill:none;stroke:none;stroke-linecap:butt;stroke-width:0.499999px}
		.st8 {fill:#000000;font-family:Arial,Helvetica,sans-serif;font-size:0.533318em}
		.st9 {font-size:1.25003em}
		.st10 {fill:#eed9b3;stroke:none;stroke-linecap:round;stroke-linejoin:round;stroke-width:0.2px}
		.st11 {fill:none;fill-rule:evenodd;font-size:12px;overflow:visible;stroke-linecap:square;stroke-miterlimit:3}]]></style><g xmlns:v="http://schemas.microsoft.com/visio/2003/SVGExtensions/"><title content="structured text">ARM</title><g id="shape30-1" transform="translate(12.1386,-45.8543)"><title content="structured text">64-bit register.225</title><rect x="0" y="68.7815" width="351.496" height="28.3465" class="st1"/></g><g id="shape2-3" transform="translate(12.1386,-74.2008)"><title content="structured text">Sheet.2</title><desc content="structured text">63</desc><text x="1.57" y="93.86" class="st2">63</text></g><g id="shape3-5" transform="translate(363.635,-74.2008)"><title content="structured text">Sheet.3</title><desc content="structured text">0</desc><text x="3.8" y="93.86" class="st2">0</text></g><g id="shape4-7" transform="translate(472.101,11.5886) rotate(90)"><title content="structured text">Signal 0.98</title><path d="M0 97.13 L11.34 97.13" class="st3"/></g><g id="shape5-10" transform="translate(381.393,11.5886) rotate(90)"><title content="structured text">Signal 0.5</title><path d="M0 97.13 L11.34 97.13" class="st3"/></g><g id="shape6-13" transform="translate(336.038,11.5886) rotate(90)"><title content="structured text">Signal 0.100</title><path d="M0 97.13 L11.34 97.13" class="st3"/></g><g id="shape7-16" transform="translate(290.684,11.5886) rotate(90)"><title content="structured text">Signal 0.101</title><path d="M0 97.13 L11.34 97.13" class="st3"/></g><g id="shape8-19" transform="translate(245.33,11.5886) rotate(90)"><title content="structured text">Sheet.8</title><path d="M0 97.13 L11.34 97.13" class="st3"/></g><g id="shape9-22" transform="translate(199.975,11.5886) rotate(90)"><title content="structured text">Sheet.9</title><path d="M0 97.13 L11.34 97.13" class="st3"/></g><g id="shape10-25" transform="translate(154.621,11.5886) rotate(90)"><title content="structured text">Sheet.10</title><path d="M0 97.13 L11.34 97.13" class="st3"/></g><g id="shape11-28" transform="translate(109.267,11.5886) rotate(90)"><title content="structured text">Sheet.11</title><path d="M0 97.13 L11.34 97.13" class="st3"/></g><g id="shape12-31" transform="translate(472.101,11.5886) rotate(90)"><title content="structured text">Sheet.12</title><path d="M0 97.13 L11.34 97.13" class="st3"/></g><g id="shape16-34" transform="translate(12.1386,-45.8543)"><title content="structured text">Sheet.16</title><path d="M0 68.78 L362.83 68.78 L362.83 97.13 L0 97.13" class="st4"/></g><g id="shape17-37" transform="translate(12.1386,-45.8543)"><title content="structured text">Sheet.17</title><path d="M0 68.78 L0 97.13" class="st4"/></g><g id="shape33-40" transform="translate(363.635,-45.8543)"><title content="structured text">64-bit register.153</title><path d="M0 68.78 L0 97.13" class="st4"/></g><g id="shape42-43" transform="translate(351.587,-74.2008)"><title content="structured text">64-bit register.162</title><desc content="structured text">1</desc><text x="3.8" y="93.86" class="st2">1</text></g><g id="shape56-45" transform="translate(369.304,-37.3504) scale(-1,1)"><title content="structured text">Sheet.56</title><path d="M0 91.46 L0 97.13 L11.34 97.13" class="st5"/></g><g id="shape57-48" transform="translate(357.965,-31.6811) scale(-1,1)"><title content="structured text">Sheet.57</title><desc content="structured text">SEL</desc><rect x="0" y="85.7894" width="24.0945" height="11.3386" class="st6"/><text x="-17.12" y="93.86" transform="scale(-1,1)" class="st2">SEL</text></g><g id="shape195-51" transform="translate(426.747,11.5886) rotate(90)"><title content="structured text">Signal 0.99</title><path d="M0 97.13 L11.34 97.13" class="st3"/></g><g id="shape13-54" transform="translate(23.4772,-11.8386)"><title content="structured text">Rectangle No Fill No Fill.116</title><desc content="structured text">res0</desc><rect x="0" y="85.7894" width="22.6772" height="11.3386" class="st7"/><text x="3.07" y="93.86" class="st8">RES<tspan class="st9">0</tspan></text></g><g id="shape14-58" transform="translate(12.1386,-11.8386)"><title content="structured text">Graphic.14</title><rect x="0" y="85.7894" width="11.3386" height="11.3386" class="st10"/></g></g></svg>