<?xml version="1.0" encoding="UTF-8" standalone="no"?><!-- Fixed up by svgfix.xsl 1.4  --><!-- Generated by Microsoft Visio 11.0, SVG Export, v1.0 joh1460536465889_low res.svg ARM -->
<!DOCTYPE svg
  PUBLIC "-//W3C//DTD SVG 1.0//EN" "http://www.w3.org/TR/2001/REC-SVG-20010904/DTD/svg10.dtd">
<svg xmlns:xlink="http://www.w3.org/1999/xlink" xmlns="http://www.w3.org/2000/svg" xmlns:ev="http://www.w3.org/2001/xml-events" width="516.149" height="118.165" viewBox="0 0 387.112 88.624" xml:space="preserve" color-interpolation-filters="sRGB" class="st9" preserveAspectRatio="xMidYMid meet" zoomAndPan="magnify" version="1.0" contentScriptType="text/ecmascript" contentStyleType="text/css"><style type="text/css" xml:space="preserve"><![CDATA[
	
		.st1 {fill:#eed9b3;stroke:none;stroke-linecap:round;stroke-linejoin:round;stroke-width:0.2px}
		.st2 {fill:#ffffff;visibility:hidden}
		.st3 {stroke:#000000;stroke-linecap:butt;stroke-width:0.8px}
		.st4 {stroke:#000000;stroke-dasharray:0.25,1;stroke-linecap:butt;stroke-width:0.25px}
		.st5 {fill:#000000;font-family:Arial,Helvetica,sans-serif;font-size:0.666664em}
		.st6 {fill:none;stroke:none;stroke-linecap:butt;stroke-width:0.499999px}
		.st7 {fill:#000000;font-family:Arial,Helvetica,sans-serif;font-size:0.533318em}
		.st8 {font-size:1.25003em}
		.st9 {fill:none;fill-rule:evenodd;font-size:12px;overflow:visible;stroke-linecap:square;stroke-miterlimit:3}]]></style><g xmlns:v="http://schemas.microsoft.com/visio/2003/SVGExtensions/"><title content="structured text">ARM</title><g id="shape74-1" transform="translate(12.1386,-37.3504)"><title content="structured text">Graphic.8</title><rect x="0" y="60.2776" width="362.835" height="28.3464" class="st1"/></g><g id="shape57-3" transform="translate(12.1386,-37.3504)"><title content="structured text">64-bit register</title><rect x="0" y="60.2775" width="362.835" height="28.3465" class="st2"/><rect x="0" y="60.2775" width="362.835" height="28.3465" class="st3"/></g><g id="shape58-6" transform="translate(463.597,11.5886) rotate(90)"><title content="structured text">Signal 0.109</title><path d="M0 88.62 L11.34 88.62" class="st4"/></g><g id="shape59-9" transform="translate(418.243,11.5886) rotate(90)"><title content="structured text">Signal 0.80</title><path d="M0 88.62 L11.34 88.62" class="st4"/></g><g id="shape60-12" transform="translate(372.889,11.5886) rotate(90)"><title content="structured text">Signal 0.81</title><path d="M0 88.62 L11.34 88.62" class="st4"/></g><g id="shape61-15" transform="translate(327.534,11.5886) rotate(90)"><title content="structured text">Signal 0.82</title><path d="M0 88.62 L11.34 88.62" class="st4"/></g><g id="shape62-18" transform="translate(282.18,11.5886) rotate(90)"><title content="structured text">Signal 0.83</title><path d="M0 88.62 L11.34 88.62" class="st4"/></g><g id="shape63-21" transform="translate(282.18,11.5886) rotate(90)"><title content="structured text">Signal 0.84</title><path d="M0 88.62 L11.34 88.62" class="st4"/></g><g id="shape64-24" transform="translate(236.826,11.5886) rotate(90)"><title content="structured text">Signal 0.85</title><path d="M0 88.62 L11.34 88.62" class="st4"/></g><g id="shape65-27" transform="translate(191.471,11.5886) rotate(90)"><title content="structured text">Signal 0.86</title><path d="M0 88.62 L11.34 88.62" class="st4"/></g><g id="shape66-30" transform="translate(236.826,11.5886) rotate(90)"><title content="structured text">Signal 0.87</title><path d="M0 88.62 L11.34 88.62" class="st4"/></g><g id="shape67-33" transform="translate(363.635,-65.6968)"><title content="structured text">Bit01.2</title><desc content="structured text">0</desc><text x="3.44" y="85.35" class="st5">0</text></g><g id="shape68-35" transform="translate(12.1386,-65.6968)"><title content="structured text">Bit01.88</title><desc content="structured text">31</desc><text x="1.22" y="85.35" class="st5">31</text></g><g id="shape69-37" transform="translate(418.243,11.5886) rotate(90)"><title content="structured text">Signal 0.91</title><path d="M0 88.62 L11.34 88.62" class="st4"/></g><g id="shape56-40" transform="translate(372.889,11.5886) rotate(90)"><title content="structured text">Signal 0.56</title><path d="M0 88.62 L11.34 88.62" class="st4"/></g><g id="shape70-43" transform="translate(327.534,11.5886) rotate(90)"><title content="structured text">Signal 0.70</title><path d="M0 88.62 L11.34 88.62" class="st4"/></g><g id="shape95-46" transform="translate(191.471,11.5886) rotate(90)"><title content="structured text">Signal 0.95</title><path d="M0 88.62 L11.34 88.62" class="st4"/></g><g id="shape96-49" transform="translate(146.117,11.5886) rotate(90)"><title content="structured text">Signal 0.96</title><path d="M0 88.62 L11.34 88.62" class="st4"/></g><g id="shape97-52" transform="translate(146.117,11.5886) rotate(90)"><title content="structured text">Signal 0.97</title><path d="M0 88.62 L11.34 88.62" class="st4"/></g><g id="shape98-55" transform="translate(100.763,11.5886) rotate(90)"><title content="structured text">Signal 0.98</title><path d="M0 88.62 L11.34 88.62" class="st4"/></g><g id="shape99-58" transform="translate(100.763,11.5886) rotate(90)"><title content="structured text">Signal 0.99</title><path d="M0 88.62 L11.34 88.62" class="st4"/></g><g id="group71-61" transform="translate(12.1386,-11.8386)"><title content="structured text">Sheet.71</title><g id="shape72-62" transform="translate(11.3386,0)"><title content="structured text">Rectangle No Fill No Fill.116</title><desc content="structured text">res0</desc><rect x="0" y="77.2854" width="22.6772" height="11.3386" class="st6"/><text x="3.07" y="85.35" class="st7">RES<tspan class="st8">0</tspan></text></g><g id="shape73-66"><title content="structured text">Graphic.117</title><rect x="0" y="77.2854" width="11.3386" height="11.3386" class="st1"/></g></g></g></svg>