<?xml version="1.0" encoding="UTF-8" standalone="no"?><!-- Fixed up by svgfix.xsl 1.4  -->
<!DOCTYPE svg
  PUBLIC "-//W3C//DTD SVG 1.0//EN" "http://www.w3.org/TR/2001/REC-SVG-20010904/DTD/svg10.dtd">
<svg xmlns:xlink="http://www.w3.org/1999/xlink" xmlns="http://www.w3.org/2000/svg" color-interpolation-filters="sRGB" height="141.732" width="491.339" xml:space="preserve" preserveAspectRatio="xMidYMid meet" zoomAndPan="magnify" version="1.0" contentScriptType="text/ecmascript" contentStyleType="text/css"><!--Created by CPG register generator--><title content="structured text">ERR1CTLR_bit_assignments</title><style type="text/css" xml:space="preserve"><![CDATA[        .txtleft {fill:#000000;font-family:Arial,Helvetica,sans-serif;font-size:8pt;text-anchor:start}        .txtright {fill:#000000;font-family:Arial,Helvetica,sans-serif;font-size:8pt;text-anchor:end}        .smcaps {font-size:7pt}        .txtmid {fill:#000000;font-family:Arial,Helvetica,sans-serif;font-size:8pt;text-anchor:middle }        .regoutline {fill:none;stroke:#000000;stroke-linecap:butt;stroke-width:0.8px}        .elbow {fill:none;stroke:#000000;stroke-linecap:butt;stroke-width:0.5px}        .nbvert1 {stroke:#000000;stroke-dasharray:0.25,0.5;stroke-linecap:butt;stroke-width:0.25px}        .nbvert {stroke:#000000;stroke-dasharray:0.25,0.5;stroke-linecap:butt;stroke-width:0.5px}        .wibble {fill:none;stroke:#000000;stroke-linecap:butt;stroke-width:0.5px}        .wibbleback {fill:#ffffff;stroke:none;stroke-linecap:butt;stroke-width:0.5px}]]></style><g id="ERR1CTLR"><g><rect class="regoutline" height="10mm" style="fill:#eed9b3" width="92mm" x="1mm" y="5mm"/><text class="txtmid" x="3.0mm" y="4mm">63</text><text class="txtmid" x="91.0mm" y="4mm">9</text><g><rect class="wibbleback" height="1.5mm" width="0.7mm" x="47.15mm" y="4.25mm"/><path class="wibble" d="M178.42499999999998 16.04375 C178.12499999999997 15.743749999999999 177.42499999999998 17.54375 177.42499999999998 18.04375  S178.325 19.74375 178.42499999999998 20.04375  S177.725 22.34375 177.42499999999998 22.04375 "/><path class="wibble" d="M181.0675 16.04375 C180.76749999999998 15.743749999999999 180.0675 17.54375 180.0675 18.04375  S180.9675 19.74375 181.0675 20.04375  S180.3675 22.34375 180.0675 22.04375 "/><rect class="wibbleback" height="1.5mm" width="0.7mm" x="47.15mm" y="14.25mm"/><path class="wibble" d="M178.42499999999998 53.793749999999996 C178.12499999999997 53.49375 177.42499999999998 55.293749999999996 177.42499999999998 55.793749999999996  S178.325 57.49375 178.42499999999998 57.793749999999996  S177.725 60.09374999999999 177.42499999999998 59.793749999999996 "/><path class="wibble" d="M181.0675 53.793749999999996 C180.76749999999998 53.49375 180.0675 55.293749999999996 180.0675 55.793749999999996  S180.9675 57.49375 181.0675 57.793749999999996  S180.3675 60.09374999999999 180.0675 59.793749999999996 "/></g></g><g><rect class="regoutline" height="10mm" width="4mm" x="93mm" y="5mm"/><text class="txtmid" x="95.0mm" y="4mm">8</text></g><g><rect class="regoutline" height="10mm" style="fill:#eed9b3" width="16mm" x="97mm" y="5mm"/><text class="txtmid" x="99.0mm" y="4mm">7</text><text class="txtmid" x="111.0mm" y="4mm">4</text></g><g><rect class="regoutline" height="10mm" width="4mm" x="113mm" y="5mm"/><text class="txtmid" x="115.0mm" y="4mm">3</text></g><g><rect class="regoutline" height="10mm" width="4mm" x="117mm" y="5mm"/><text class="txtmid" x="119.0mm" y="4mm">2</text></g><g><rect class="regoutline" height="10mm" style="fill:#eed9b3" width="4mm" x="121mm" y="5mm"/><text class="txtmid" x="123.0mm" y="4mm">1</text></g><g><rect class="regoutline" height="10mm" width="4mm" x="125mm" y="5mm"/><text class="txtmid" x="127.0mm" y="4mm">0</text></g></g><g><text class="txtright" x="92.5mm" y="19.5mm">CFI</text><line class="elbow" x1="95mm" x2="95mm" y1="15mm" y2="18.5mm"/><line class="elbow" x1="95mm" x2="93mm" y1="18.5mm" y2="18.5mm"/><text class="txtright" x="112.5mm" y="23.0mm">FI</text><line class="elbow" x1="115mm" x2="115mm" y1="15mm" y2="22.0mm"/><line class="elbow" x1="115mm" x2="113mm" y1="22.0mm" y2="22.0mm"/><text class="txtright" x="116.5mm" y="26.5mm">UI</text><line class="elbow" x1="119mm" x2="119mm" y1="15mm" y2="25.5mm"/><line class="elbow" x1="119mm" x2="117mm" y1="25.5mm" y2="25.5mm"/><text class="txtright" x="124.5mm" y="30.0mm">ED</text><line class="elbow" x1="127mm" x2="127mm" y1="15mm" y2="29.0mm"/><line class="elbow" x1="127mm" x2="125mm" y1="29.0mm" y2="29.0mm"/></g><g><rect height="4mm" style="fill:#eed9b3" width="4mm" x="1mm" y="32.5mm"/><text class="txtleft" x="6mm" y="35.5mm"><tspan class="smcaps">RES</tspan>0</text></g><!-- register = ['ERR1CTLR', [RES0[63:9], CFI[8:8], RES0[7:4], FI[3:3], UI[2:2], RES0[1:1], ED[0:0]]]--></svg>