<?xml version="1.0" encoding="UTF-8" standalone="no"?><!-- Fixed up by svgfix.xsl 1.4  --><!-- Generated by Microsoft Visio 11.0, SVG Export, v1.0 id_aa64isar1_el1_bit_assignments_LowRes.svg ARM -->
<!DOCTYPE svg
  PUBLIC "-//W3C//DTD SVG 1.0//EN" "http://www.w3.org/TR/2001/REC-SVG-20010904/DTD/svg10.dtd">
<svg xmlns:xlink="http://www.w3.org/1999/xlink" xmlns="http://www.w3.org/2000/svg" xmlns:ev="http://www.w3.org/2001/xml-events" width="485.913" height="140.843" viewBox="0 0 364.435 105.632" xml:space="preserve" color-interpolation-filters="sRGB" class="st12" preserveAspectRatio="xMidYMid meet" zoomAndPan="magnify" version="1.0" contentScriptType="text/ecmascript" contentStyleType="text/css"><style type="text/css" xml:space="preserve"><![CDATA[
	
		.st1 {fill:#eed9b3;stroke:none;stroke-linecap:round;stroke-linejoin:round;stroke-width:0.2px}
		.st2 {stroke:#000000;stroke-linecap:butt;stroke-width:0.8px}
		.st3 {stroke:#000000;stroke-dasharray:0.25,0.5;stroke-linecap:butt;stroke-width:0.25px}
		.st4 {fill:#000000;font-family:Arial,Helvetica,sans-serif;font-size:0.666664em}
		.st5 {fill:none;stroke:none;stroke-linecap:round;stroke-linejoin:round;stroke-width:0.2px}
		.st6 {fill:#ffffff;stroke:none;stroke-linecap:butt;stroke-width:0.5px}
		.st7 {stroke:#000000;stroke-linecap:butt;stroke-width:0.5px}
		.st8 {fill:none;stroke:none;stroke-linecap:butt;stroke-width:0.499999px}
		.st9 {fill:#000000;font-family:Arial,Helvetica,sans-serif;font-size:0.533318em}
		.st10 {font-size:1.25003em}
		.st11 {fill:#eed9b3;stroke:none;stroke-linecap:round;stroke-linejoin:round;stroke-width:0.2px}
		.st12 {fill:none;fill-rule:evenodd;font-size:12px;overflow:visible;stroke-linecap:square;stroke-miterlimit:3}]]></style><g xmlns:v="http://schemas.microsoft.com/visio/2003/SVGExtensions/"><title content="structured text">ARM</title><g id="shape27-1" transform="translate(204.894,-54.3583)"><title content="structured text">64-bit register.27</title><rect x="0" y="77.2854" width="102.047" height="28.3465" class="st1"/></g><g id="shape20-3" transform="translate(12.1386,-54.3583)"><title content="structured text">64-bit register.88</title><rect x="0" y="77.2854" width="147.402" height="28.3465" class="st1"/></g><g id="shape1-5" transform="translate(352.296,-54.3583) scale(-1,1)"><title content="structured text">64-bit register.156</title><path d="M0 77.29 L340.16 77.29 L340.16 105.63 L0 105.63" class="st2"/></g><g id="shape2-8" transform="translate(191.471,11.5886) rotate(90)"><title content="structured text">64-bit register.169</title><path d="M0 105.63 L11.34 105.63" class="st3"/></g><g id="shape3-11" transform="translate(352.296,-54.3583)"><title content="structured text">64-bit register.157</title><path d="M0 77.29 L0 105.63" class="st2"/></g><g id="shape10-14" transform="translate(306.942,-54.3583)"><title content="structured text">64-bit register.52</title><path d="M0 77.29 L0 105.63" class="st2"/></g><g id="shape14-17" transform="translate(338.873,11.5886) rotate(90)"><title content="structured text">64-bit register.14</title><path d="M0 105.63 L11.34 105.63" class="st3"/></g><g id="shape15-20" transform="translate(361.55,11.5886) rotate(90)"><title content="structured text">64-bit register.15</title><path d="M0 105.63 L11.34 105.63" class="st3"/></g><g id="shape16-23" transform="translate(412.574,11.5886) rotate(90)"><title content="structured text">64-bit register.16</title><path d="M0 105.63 L11.34 105.63" class="st3"/></g><g id="shape17-26" transform="translate(457.928,11.5886) rotate(90)"><title content="structured text">64-bit register.17</title><path d="M0 105.63 L11.34 105.63" class="st3"/></g><g id="shape18-29" transform="translate(12.1386,-82.7047)"><title content="structured text">64-bit register.179</title><desc content="structured text">63</desc><text x="1.22" y="102.36" class="st4">63</text></g><g id="shape19-31" transform="translate(340.957,-82.7047)"><title content="structured text">64-bit register.19</title><desc content="structured text">0</desc><text x="3.44" y="102.36" class="st4">0</text></g><g id="shape21-33" transform="translate(384.227,11.5886) rotate(90)"><title content="structured text">64-bit register.21</title><path d="M0 105.63 L11.34 105.63" class="st3"/></g><g id="shape26-36" transform="translate(306.942,-54.3583)"><title content="structured text">64-bit register.26</title><desc content="structured text">DC CVAP</desc><rect x="0" y="77.2854" width="45.3543" height="28.3465" class="st5"/><text x="4.9" y="93.86" class="st4">DC CVAP</text></g><g id="shape25-39" transform="translate(295.603,-82.7047)"><title content="structured text">64-bit register.25</title><desc content="structured text">4</desc><text x="3.44" y="102.36" class="st4">4</text></g><g id="shape30-41" transform="translate(306.942,-82.7047)"><title content="structured text">64-bit register.30</title><desc content="structured text">3</desc><text x="3.44" y="102.36" class="st4">3</text></g><g id="shape39-43" transform="translate(204.894,-54.3583)"><title content="structured text">Sheet.39</title><path d="M0 77.29 L0 105.63" class="st2"/></g><g id="shape41-46" transform="translate(193.556,-82.7047)"><title content="structured text">Sheet.41</title><desc content="structured text">20</desc><text x="1.22" y="102.36" class="st4">20</text></g><g id="shape42-48" transform="translate(204.894,-82.7047)"><title content="structured text">Sheet.42</title><desc content="structured text">19</desc><text x="1.22" y="102.36" class="st4">19</text></g><g id="shape43-50" transform="translate(310.526,11.5886) rotate(90)"><title content="structured text">64-bit register.43</title><path d="M0 105.63 L11.34 105.63" class="st3"/></g><g id="shape44-53" transform="translate(214.148,11.5886) rotate(90)"><title content="structured text">64-bit register.44</title><path d="M0 105.63 L11.34 105.63" class="st3"/></g><g id="shape45-56" transform="translate(168.794,11.5886) rotate(90)"><title content="structured text">64-bit register.45</title><path d="M0 105.63 L11.34 105.63" class="st3"/></g><g id="shape46-59" transform="translate(265.172,11.5886) rotate(90)"><title content="structured text">64-bit register.46</title><path d="M0 105.63 L11.34 105.63" class="st3"/></g><g id="shape47-62" transform="translate(236.826,11.5886) rotate(90)"><title content="structured text">64-bit register.47</title><path d="M0 105.63 L11.34 105.63" class="st3"/></g><g id="shape53-65" transform="translate(159.54,-54.3583)"><title content="structured text">Sheet.53</title><path d="M0 77.29 L0 105.63" class="st2"/></g><g id="shape54-68" transform="translate(159.54,-54.3583)"><title content="structured text">64-bit register.54</title><desc content="structured text">LRCPC</desc><rect x="0" y="77.2854" width="45.3543" height="28.3465" class="st5"/><text x="9.12" y="93.86" class="st4">LRCPC</text></g><g id="shape55-71" transform="translate(159.54,-82.7047)"><title content="structured text">Sheet.55</title><desc content="structured text">23</desc><text x="1.22" y="102.36" class="st4">23</text></g><g id="shape56-73" transform="translate(148.202,-82.7047)"><title content="structured text">Sheet.56</title><desc content="structured text">24</desc><text x="1.22" y="102.36" class="st4">24</text></g><g id="group62-75" transform="translate(84.422,-51.5236)"><title content="structured text">Sheet.62</title><g id="group31-76"><title content="structured text">Disconnect</title><g id="shape32-77" transform="translate(0.566929,0)"><title content="structured text">Sheet.32</title><rect x="0" y="99.9626" width="1.88976" height="5.66929" class="st6"/></g><g id="shape33-79" transform="translate(106.624,117.261) rotate(99.4623)"><title content="structured text">Sheet.33</title><path d="M0 105.22 C0.15 105.42 0.72 105.59 1.15 105.63 C1.58 105.66 1.86 105.55 2.34 105.31 C2.63 105.17 2.98          104.99 3.29 104.87 C4.56 104.37 5.03 104.92 5.75 105.22" class="st7"/></g><g id="shape34-82" transform="translate(104.734,117.261) rotate(99.4623)"><title content="structured text">Sheet.34</title><path d="M0 105.22 C0.15 105.42 0.72 105.59 1.15 105.63 C1.58 105.66 1.86 105.55 2.34 105.31 C2.63 105.17 2.98          104.99 3.29 104.87 C4.56 104.37 5.03 104.92 5.75 105.22" class="st7"/></g></g><g id="group35-85" transform="translate(-1.4988E-015,-28.3465)"><title content="structured text">Disconnect.35</title><g id="shape36-86" transform="translate(0.566929,0)"><title content="structured text">Sheet.36</title><rect x="0" y="99.9626" width="1.88976" height="5.66929" class="st6"/></g><g id="shape37-88" transform="translate(106.624,117.261) rotate(99.4623)"><title content="structured text">Sheet.37</title><path d="M0 105.22 C0.15 105.42 0.72 105.59 1.15 105.63 C1.58 105.66 1.86 105.55 2.34 105.31 C2.63 105.17 2.98          104.99 3.29 104.87 C4.56 104.37 5.03 104.92 5.75 105.22" class="st7"/></g><g id="shape38-91" transform="translate(104.734,117.261) rotate(99.4623)"><title content="structured text">Sheet.38</title><path d="M0 105.22 C0.15 105.42 0.72 105.59 1.15 105.63 C1.58 105.66 1.86 105.55 2.34 105.31 C2.63 105.17 2.98          104.99 3.29 104.87 C4.56 104.37 5.03 104.92 5.75 105.22" class="st7"/></g></g></g><g id="shape64-94" transform="translate(146.117,11.5886) rotate(90)"><title content="structured text">64-bit register.64</title><path d="M0 105.63 L11.34 105.63" class="st3"/></g><g id="shape65-97" transform="translate(117.77,11.5886) rotate(90)"><title content="structured text">64-bit register.65</title><path d="M0 105.63 L11.34 105.63" class="st3"/></g><g id="group5-100" transform="translate(254.501,-51.5236)"><title content="structured text">Sheet.5</title><g id="group6-101"><title content="structured text">Disconnect</title><g id="shape7-102" transform="translate(0.566929,0)"><title content="structured text">Sheet.7</title><rect x="0" y="99.9626" width="1.88976" height="5.66929" class="st6"/></g><g id="shape9-104" transform="translate(106.624,117.261) rotate(99.4623)"><title content="structured text">Sheet.9</title><path d="M0 105.22 C0.15 105.42 0.72 105.59 1.15 105.63 C1.58 105.66 1.86 105.55 2.34 105.31 C2.63 105.17 2.98          104.99 3.29 104.87 C4.56 104.37 5.03 104.92 5.75 105.22" class="st7"/></g><g id="shape11-107" transform="translate(104.734,117.261) rotate(99.4623)"><title content="structured text">Sheet.11</title><path d="M0 105.22 C0.15 105.42 0.72 105.59 1.15 105.63 C1.58 105.66 1.86 105.55 2.34 105.31 C2.63 105.17 2.98          104.99 3.29 104.87 C4.56 104.37 5.03 104.92 5.75 105.22" class="st7"/></g></g><g id="group12-110" transform="translate(-1.4988E-015,-28.3465)"><title content="structured text">Disconnect.35</title><g id="shape13-111" transform="translate(0.566929,0)"><title content="structured text">Sheet.13</title><rect x="0" y="99.9626" width="1.88976" height="5.66929" class="st6"/></g><g id="shape22-113" transform="translate(106.624,117.261) rotate(99.4623)"><title content="structured text">Sheet.22</title><path d="M0 105.22 C0.15 105.42 0.72 105.59 1.15 105.63 C1.58 105.66 1.86 105.55 2.34 105.31 C2.63 105.17 2.98          104.99 3.29 104.87 C4.56 104.37 5.03 104.92 5.75 105.22" class="st7"/></g><g id="shape23-116" transform="translate(104.734,117.261) rotate(99.4623)"><title content="structured text">Sheet.23</title><path d="M0 105.22 C0.15 105.42 0.72 105.59 1.15 105.63 C1.58 105.66 1.86 105.55 2.34 105.31 C2.63 105.17 2.98          104.99 3.29 104.87 C4.56 104.37 5.03 104.92 5.75 105.22" class="st7"/></g></g></g><g id="group73-119" transform="translate(12.1386,-11.8386)"><title content="structured text">Sheet.73</title><g id="shape74-120" transform="translate(11.3386,0)"><title content="structured text">Rectangle No Fill No Fill.116</title><desc content="structured text">res0</desc><rect x="0" y="94.2933" width="22.6772" height="11.3386" class="st8"/><text x="3.07" y="102.36" class="st9">RES<tspan class="st10">0</tspan></text></g><g id="shape75-124"><title content="structured text">Graphic.117</title><rect x="0" y="94.2933" width="11.3386" height="11.3386" class="st11"/></g></g></g></svg>