<?xml version="1.0" encoding="UTF-8" standalone="no"?><!-- Fixed up by svgfix.xsl 1.4  --><!-- Generated by Microsoft Visio 11.0, SVG Export, v1.0 par_64-bit_F0_bit_assignments_LowRes.svg ARM -->
<!DOCTYPE svg
  PUBLIC "-//W3C//DTD SVG 1.0//EN" "http://www.w3.org/TR/2001/REC-SVG-20010904/DTD/svg10.dtd">
<svg xmlns:xlink="http://www.w3.org/1999/xlink" xmlns="http://www.w3.org/2000/svg" xmlns:ev="http://www.w3.org/2001/xml-events" width="621.976" height="152.181" viewBox="0 0 466.482 114.136" xml:space="preserve" color-interpolation-filters="sRGB" class="st12" preserveAspectRatio="xMidYMid meet" zoomAndPan="magnify" version="1.0" contentScriptType="text/ecmascript" contentStyleType="text/css"><style type="text/css" xml:space="preserve"><![CDATA[
	
		.st1 {fill:#eed9b3;stroke:none;stroke-linecap:round;stroke-linejoin:round;stroke-width:0.2px}
		.st2 {stroke:#000000;stroke-linecap:butt;stroke-width:0.8px}
		.st3 {stroke:#000000;stroke-dasharray:0.25,0.5;stroke-linecap:butt;stroke-width:0.25px}
		.st4 {fill:#000000;font-family:Arial,Helvetica,sans-serif;font-size:0.666664em}
		.st5 {fill:none;stroke:none;stroke-linecap:round;stroke-linejoin:round;stroke-width:0.2px}
		.st6 {stroke:#000000;stroke-linecap:butt;stroke-width:0.5px}
		.st7 {fill:#ffffff;stroke:none;stroke-linecap:butt;stroke-width:0.5px}
		.st8 {fill:none;stroke:none;stroke-linecap:butt;stroke-width:0.499999px}
		.st9 {fill:#000000;font-family:Arial,Helvetica,sans-serif;font-size:0.533318em}
		.st10 {font-size:1.25003em}
		.st11 {fill:#eed9b3;stroke:none;stroke-linecap:round;stroke-linejoin:round;stroke-width:0.2px}
		.st12 {fill:none;fill-rule:evenodd;font-size:12px;overflow:visible;stroke-linecap:square;stroke-miterlimit:3}]]></style><g xmlns:v="http://schemas.microsoft.com/visio/2003/SVGExtensions/"><title content="structured text">ARM</title><g id="shape204-1" transform="translate(68.8315,-62.8622)"><title content="structured text">Sheet.204</title><rect x="0" y="85.7894" width="102.047" height="28.3465" class="st1"/></g><g id="shape41-3" transform="translate(397.65,-62.8622)"><title content="structured text">Sheet.41</title><rect x="0" y="85.7894" width="45.3543" height="28.3465" class="st1"/></g><g id="shape1-5" transform="translate(454.343,-62.8622) scale(-1,1)"><title content="structured text">64-bit register.156</title><path d="M0 85.79 L442.2 85.79 L442.2 114.14 L0 114.14" class="st2"/></g><g id="shape2-8" transform="translate(336.038,11.5886) rotate(90)"><title content="structured text">64-bit register.169</title><path d="M0 114.14 L11.34 114.14" class="st3"/></g><g id="shape3-11" transform="translate(454.343,-62.8622)"><title content="structured text">64-bit register.157</title><path d="M0 85.79 L0 114.14" class="st2"/></g><g id="shape4-14" transform="translate(397.65,-62.8622)"><title content="structured text">64-bit register.4</title><path d="M0 85.79 L0 114.14" class="st2"/></g><g id="shape6-17" transform="translate(358.715,11.5886) rotate(90)"><title content="structured text">64-bit register.11</title><path d="M0 114.14 L11.34 114.14" class="st3"/></g><g id="shape7-20" transform="translate(381.393,11.5886) rotate(90)"><title content="structured text">64-bit register.12</title><path d="M0 114.14 L11.34 114.14" class="st3"/></g><g id="shape8-23" transform="translate(404.07,11.5886) rotate(90)"><title content="structured text">64-bit register.13</title><path d="M0 114.14 L11.34 114.14" class="st3"/></g><g id="shape9-26" transform="translate(426.747,11.5886) rotate(90)"><title content="structured text">64-bit register.14</title><path d="M0 114.14 L11.34 114.14" class="st3"/></g><g id="shape10-29" transform="translate(455.093,11.5886) rotate(90)"><title content="structured text">64-bit register.15</title><path d="M0 114.14 L11.34 114.14" class="st3"/></g><g id="shape11-32" transform="translate(534.463,11.5886) rotate(90)"><title content="structured text">64-bit register.16</title><path d="M0 114.14 L11.34 114.14" class="st3"/></g><g id="shape12-35" transform="translate(568.479,11.5886) rotate(90)"><title content="structured text">64-bit register.17</title><path d="M0 114.14 L11.34 114.14" class="st3"/></g><g id="shape13-38" transform="translate(12.1386,-91.2086)"><title content="structured text">64-bit register.179</title><desc content="structured text">63</desc><text x="1.22" y="110.87" class="st4">63</text></g><g id="shape14-40" transform="translate(443.005,-91.2086)"><title content="structured text">64-bit register.19</title><desc content="structured text">0</desc><text x="3.44" y="110.87" class="st4">0</text></g><g id="shape16-42" transform="translate(500.448,11.5886) rotate(90)"><title content="structured text">64-bit register.21</title><path d="M0 114.14 L11.34 114.14" class="st3"/></g><g id="shape19-45" transform="translate(397.65,-91.2086)"><title content="structured text">64-bit register.31</title><desc content="structured text">6</desc><text x="3.44" y="110.87" class="st4">6</text></g><g id="shape20-47" transform="translate(386.312,-91.2086)"><title content="structured text">64-bit register.32</title><desc content="structured text">7</desc><text x="3.44" y="110.87" class="st4">7</text></g><g id="shape21-49" transform="translate(431.666,-91.2086)"><title content="structured text">64-bit register.33</title><desc content="structured text">1</desc><text x="3.44" y="110.87" class="st4">1</text></g><g id="shape27-51" transform="translate(329.619,-91.2086)"><title content="structured text">Sheet.27</title><desc content="structured text">12</desc><text x="1.22" y="110.87" class="st4">12</text></g><g id="shape33-53" transform="translate(374.973,-62.8622)"><title content="structured text">64-bit register.48</title><path d="M0 85.79 L0 114.14" class="st2"/></g><g id="shape47-56" transform="translate(170.879,-62.8622)"><title content="structured text">Sheet.47</title><desc content="structured text">PA</desc><rect x="0" y="85.7894" width="170.079" height="28.3465" class="st5"/><text x="79.7" y="102.36" class="st4">PA</text></g><g id="shape34-59" transform="translate(363.635,-62.8622)"><title content="structured text">Sheet.34</title><path d="M0 85.79 L0 114.14" class="st2"/></g><g id="shape35-62" transform="translate(68.8315,-62.8622)"><title content="structured text">Sheet.35</title><path d="M0 85.79 L0 114.14" class="st2"/></g><g id="shape50-65" transform="translate(340.957,-62.8622)"><title content="structured text">Sheet.50</title><path d="M0 85.79 L0 114.14" class="st2"/></g><g id="shape15-68" transform="translate(170.879,-62.8622)"><title content="structured text">Sheet.15</title><path d="M0 85.79 L0 114.14" class="st2"/></g><g id="shape17-71" transform="translate(443.005,-62.8622)"><title content="structured text">Sheet.17</title><path d="M0 85.79 L0 114.14" class="st2"/></g><g id="shape39-74" transform="translate(255.168,82.4547) rotate(-90)"><title content="structured text">Sheet.39</title><path d="M0 85.79 L0 114.14 L28.35 114.14" class="st6"/></g><g id="shape57-77" transform="translate(352.296,-62.8622)"><title content="structured text">Sheet.57</title><path d="M0 85.79 L0 114.14" class="st2"/></g><g id="shape28-80" transform="translate(346.627,-54.3583) scale(-1,1)"><title content="structured text">Sheet.28</title><path d="M0 108.47 L0 114.14 L5.67 114.14" class="st6"/></g><g id="shape45-83" transform="translate(315.446,-48.689)"><title content="structured text">Sheet.45</title><desc content="structured text">LPAE</desc><rect x="0" y="102.797" width="25.5118" height="11.3386" class="st5"/><text x="3.06" y="110.87" class="st4">LPAE</text></g><g id="shape48-86" transform="translate(323.95,-26.0118)"><title content="structured text">Sheet.48</title><desc content="structured text">NS</desc><rect x="0" y="102.797" width="17.0079" height="11.3386" class="st5"/><text x="3.89" y="110.87" class="st4">NS</text></g><g id="shape61-89" transform="translate(374.973,-91.2086)"><title content="structured text">64-bit register.61</title><desc content="structured text">8</desc><text x="3.44" y="110.87" class="st4">8</text></g><g id="shape62-91" transform="translate(363.635,-91.2086)"><title content="structured text">64-bit register.62</title><desc content="structured text">9</desc><text x="3.44" y="110.87" class="st4">9</text></g><g id="shape63-93" transform="translate(352.296,-91.2086)"><title content="structured text">64-bit register.63</title><desc content="structured text">10</desc><text x="1.22" y="110.87" class="st4">10</text></g><g id="shape64-95" transform="translate(340.957,-91.2086)"><title content="structured text">64-bit register.64</title><desc content="structured text">11</desc><text x="1.22" y="110.87" class="st4">11</text></g><g id="shape36-97" transform="translate(357.965,-43.0197) scale(-1,1)"><title content="structured text">Sheet.36</title><path d="M0 97.13 L0 114.14 L17.01 114.14" class="st6"/></g><g id="shape42-100" transform="translate(304.107,-37.3504)"><title content="structured text">Sheet.42</title><desc content="structured text">IMP DEF</desc><rect x="0" y="102.797" width="36.8504" height="11.3386" class="st5"/><text x="2.41" y="110.87" class="st4">IMP DEF</text></g><g id="shape43-103" transform="translate(443.005,-62.8622)"><title content="structured text">Sheet.43</title><desc content="structured text">F</desc><rect x="0" y="85.7894" width="11.3386" height="28.3465" class="st5"/><text x="3.23" y="102.36" class="st4">F</text></g><g id="group55-106" transform="translate(39.9413,-60.0394)"><title content="structured text">Sheet.55</title><g id="group56-107" transform="translate(0,-28.3465)"><title content="structured text">Sheet.56</title><g id="shape58-108" transform="translate(0.566929,4.26326E-014)"><title content="structured text">Sheet.58</title><rect x="0" y="108.467" width="1.88976" height="5.66929" class="st7"/></g><g id="shape59-110" transform="translate(115.012,127.163) rotate(99.4623)"><title content="structured text">Sheet.59</title><path d="M0 113.72 C0.15 113.93 0.72 114.1 1.15 114.13 C1.58 114.16 1.86 114.06 2.34 113.82 C2.63 113.68 2.98          113.49 3.29 113.37 C4.56 112.87 5.03 113.42 5.75 113.72" class="st6"/></g><g id="shape60-113" transform="translate(113.122,127.163) rotate(99.4623)"><title content="structured text">Sheet.60</title><path d="M0 113.72 C0.15 113.93 0.72 114.1 1.15 114.13 C1.58 114.16 1.86 114.06 2.34 113.82 C2.63 113.68 2.98          113.49 3.29 113.37 C4.56 112.87 5.03 113.42 5.75 113.72" class="st6"/></g></g><g id="group193-116"><title content="structured text">Sheet.193</title><g id="shape194-117" transform="translate(0.566929,4.26326E-014)"><title content="structured text">Sheet.194</title><rect x="0" y="108.467" width="1.88976" height="5.66929" class="st7"/></g><g id="shape195-119" transform="translate(115.012,127.163) rotate(99.4623)"><title content="structured text">Sheet.195</title><path d="M0 113.72 C0.15 113.93 0.72 114.1 1.15 114.13 C1.58 114.16 1.86 114.06 2.34 113.82 C2.63 113.68 2.98          113.49 3.29 113.37 C4.56 112.87 5.03 113.42 5.75 113.72" class="st6"/></g><g id="shape196-122" transform="translate(113.122,127.163) rotate(99.4623)"><title content="structured text">Sheet.196</title><path d="M0 113.72 C0.15 113.93 0.72 114.1 1.15 114.13 C1.58 114.16 1.86 114.06 2.34 113.82 C2.63 113.68 2.98          113.49 3.29 113.37 C4.56 112.87 5.03 113.42 5.75 113.72" class="st6"/></g></g></g><g id="group18-125" transform="translate(419.784,-60.0394)"><title content="structured text">Sheet.18</title><g id="group22-126" transform="translate(0,-28.3465)"><title content="structured text">Sheet.22</title><g id="shape23-127" transform="translate(0.566929,4.26326E-014)"><title content="structured text">Sheet.23</title><rect x="0" y="108.467" width="1.88976" height="5.66929" class="st7"/></g><g id="shape24-129" transform="translate(115.012,127.163) rotate(99.4623)"><title content="structured text">Sheet.24</title><path d="M0 113.72 C0.15 113.93 0.72 114.1 1.15 114.13 C1.58 114.16 1.86 114.06 2.34 113.82 C2.63 113.68 2.98          113.49 3.29 113.37 C4.56 112.87 5.03 113.42 5.75 113.72" class="st6"/></g><g id="shape25-132" transform="translate(113.122,127.163) rotate(99.4623)"><title content="structured text">Sheet.25</title><path d="M0 113.72 C0.15 113.93 0.72 114.1 1.15 114.13 C1.58 114.16 1.86 114.06 2.34 113.82 C2.63 113.68 2.98          113.49 3.29 113.37 C4.56 112.87 5.03 113.42 5.75 113.72" class="st6"/></g></g><g id="group26-135"><title content="structured text">Sheet.26</title><g id="shape29-136" transform="translate(0.566929,4.26326E-014)"><title content="structured text">Sheet.29</title><rect x="0" y="108.467" width="1.88976" height="5.66929" class="st7"/></g><g id="shape30-138" transform="translate(115.012,127.163) rotate(99.4623)"><title content="structured text">Sheet.30</title><path d="M0 113.72 C0.15 113.93 0.72 114.1 1.15 114.13 C1.58 114.16 1.86 114.06 2.34 113.82 C2.63 113.68 2.98          113.49 3.29 113.37 C4.56 112.87 5.03 113.42 5.75 113.72" class="st6"/></g><g id="shape32-141" transform="translate(113.122,127.163) rotate(99.4623)"><title content="structured text">Sheet.32</title><path d="M0 113.72 C0.15 113.93 0.72 114.1 1.15 114.13 C1.58 114.16 1.86 114.06 2.34 113.82 C2.63 113.68 2.98          113.49 3.29 113.37 C4.56 112.87 5.03 113.42 5.75 113.72" class="st6"/></g></g></g><g id="shape37-144" transform="translate(374.973,-62.8622)"><title content="structured text">Sheet.37</title><desc content="structured text">SH</desc><rect x="0" y="85.7894" width="22.6772" height="28.3465" class="st5"/><text x="5.78" y="102.36" class="st4">SH</text></g><g id="shape31-147" transform="translate(313.361,11.5886) rotate(90)"><title content="structured text">Sheet.31</title><path d="M0 114.14 L11.34 114.14" class="st3"/></g><g id="shape38-150" transform="translate(285.015,11.5886) rotate(90)"><title content="structured text">64-bit register.38</title><path d="M0 114.14 L11.34 114.14" class="st3"/></g><g id="shape40-153" transform="translate(170.879,-91.2086)"><title content="structured text">64-bit register.40</title><desc content="structured text">39</desc><text x="1.22" y="110.87" class="st4">39</text></g><g id="group44-155" transform="translate(254.501,-60.0275)"><title content="structured text">Sheet.44</title><g id="group46-156" transform="translate(0,-28.3465)"><title content="structured text">Sheet.46</title><g id="shape49-157" transform="translate(0.566929,4.26326E-014)"><title content="structured text">Sheet.49</title><rect x="0" y="108.467" width="1.88976" height="5.66929" class="st7"/></g><g id="shape51-159" transform="translate(115.012,127.163) rotate(99.4623)"><title content="structured text">Sheet.51</title><path d="M0 113.72 C0.15 113.93 0.72 114.1 1.15 114.13 C1.58 114.16 1.86 114.06 2.34 113.82 C2.63 113.68 2.98          113.49 3.29 113.37 C4.56 112.87 5.03 113.42 5.75 113.72" class="st6"/></g><g id="shape52-162" transform="translate(113.122,127.163) rotate(99.4623)"><title content="structured text">Sheet.52</title><path d="M0 113.72 C0.15 113.93 0.72 114.1 1.15 114.13 C1.58 114.16 1.86 114.06 2.34 113.82 C2.63 113.68 2.98          113.49 3.29 113.37 C4.56 112.87 5.03 113.42 5.75 113.72" class="st6"/></g></g><g id="group53-165"><title content="structured text">Sheet.53</title><g id="shape54-166" transform="translate(0.566929,4.26326E-014)"><title content="structured text">Sheet.54</title><rect x="0" y="108.467" width="1.88976" height="5.66929" class="st7"/></g><g id="shape197-168" transform="translate(115.012,127.163) rotate(99.4623)"><title content="structured text">Sheet.197</title><path d="M0 113.72 C0.15 113.93 0.72 114.1 1.15 114.13 C1.58 114.16 1.86 114.06 2.34 113.82 C2.63 113.68 2.98          113.49 3.29 113.37 C4.56 112.87 5.03 113.42 5.75 113.72" class="st6"/></g><g id="shape198-171" transform="translate(113.122,127.163) rotate(99.4623)"><title content="structured text">Sheet.198</title><path d="M0 113.72 C0.15 113.93 0.72 114.1 1.15 114.13 C1.58 114.16 1.86 114.06 2.34 113.82 C2.63 113.68 2.98          113.49 3.29 113.37 C4.56 112.87 5.03 113.42 5.75 113.72" class="st6"/></g></g></g><g id="shape199-174" transform="translate(159.54,-91.2086)"><title content="structured text">64-bit register.199</title><desc content="structured text">40</desc><text x="1.22" y="110.87" class="st4">40</text></g><g id="shape200-176" transform="translate(182.967,11.5886) rotate(90)"><title content="structured text">64-bit register.200</title><path d="M0 114.14 L11.34 114.14" class="st3"/></g><g id="shape201-179" transform="translate(256.668,11.5886) rotate(90)"><title content="structured text">64-bit register.201</title><path d="M0 114.14 L11.34 114.14" class="st3"/></g><g id="shape202-182" transform="translate(233.991,11.5886) rotate(90)"><title content="structured text">64-bit register.202</title><path d="M0 114.14 L11.34 114.14" class="st3"/></g><g id="shape203-185" transform="translate(211.314,11.5886) rotate(90)"><title content="structured text">64-bit register.203</title><path d="M0 114.14 L11.34 114.14" class="st3"/></g><g id="shape205-188" transform="translate(68.8315,-91.2086)"><title content="structured text">64-bit register.205</title><desc content="structured text">55</desc><text x="1.22" y="110.87" class="st4">55</text></g><g id="shape206-190" transform="translate(57.4929,-91.2086)"><title content="structured text">64-bit register.206</title><desc content="structured text">56</desc><text x="1.22" y="110.87" class="st4">56</text></g><g id="shape207-192" transform="translate(126.274,11.5886) rotate(90)"><title content="structured text">64-bit register.207</title><path d="M0 114.14 L11.34 114.14" class="st3"/></g><g id="shape208-195" transform="translate(154.621,11.5886) rotate(90)"><title content="structured text">64-bit register.208</title><path d="M0 114.14 L11.34 114.14" class="st3"/></g><g id="shape209-198" transform="translate(12.1386,-62.8622)"><title content="structured text">Sheet.209</title><desc content="structured text">ATTR</desc><rect x="0" y="85.7894" width="56.6929" height="28.3465" class="st5"/><text x="17.9" y="102.36" class="st4">ATTR</text></g><g id="group210-201" transform="translate(119.311,-60.0394)"><title content="structured text">Sheet.210</title><g id="group211-202" transform="translate(0,-28.3465)"><title content="structured text">Sheet.211</title><g id="shape212-203" transform="translate(0.566929,4.26326E-014)"><title content="structured text">Sheet.212</title><rect x="0" y="108.467" width="1.88976" height="5.66929" class="st7"/></g><g id="shape213-205" transform="translate(115.012,127.163) rotate(99.4623)"><title content="structured text">Sheet.213</title><path d="M0 113.72 C0.15 113.93 0.72 114.1 1.15 114.13 C1.58 114.16 1.86 114.06 2.34 113.82 C2.63 113.68 2.98          113.49 3.29 113.37 C4.56 112.87 5.03 113.42 5.75 113.72" class="st6"/></g><g id="shape214-208" transform="translate(113.122,127.163) rotate(99.4623)"><title content="structured text">Sheet.214</title><path d="M0 113.72 C0.15 113.93 0.72 114.1 1.15 114.13 C1.58 114.16 1.86 114.06 2.34 113.82 C2.63 113.68 2.98          113.49 3.29 113.37 C4.56 112.87 5.03 113.42 5.75 113.72" class="st6"/></g></g><g id="group215-211"><title content="structured text">Sheet.215</title><g id="shape216-212" transform="translate(0.566929,4.26326E-014)"><title content="structured text">Sheet.216</title><rect x="0" y="108.467" width="1.88976" height="5.66929" class="st7"/></g><g id="shape217-214" transform="translate(115.012,127.163) rotate(99.4623)"><title content="structured text">Sheet.217</title><path d="M0 113.72 C0.15 113.93 0.72 114.1 1.15 114.13 C1.58 114.16 1.86 114.06 2.34 113.82 C2.63 113.68 2.98          113.49 3.29 113.37 C4.56 112.87 5.03 113.42 5.75 113.72" class="st6"/></g><g id="shape218-217" transform="translate(113.122,127.163) rotate(99.4623)"><title content="structured text">Sheet.218</title><path d="M0 113.72 C0.15 113.93 0.72 114.1 1.15 114.13 C1.58 114.16 1.86 114.06 2.34 113.82 C2.63 113.68 2.98          113.49 3.29 113.37 C4.56 112.87 5.03 113.42 5.75 113.72" class="st6"/></g></g></g><g id="group5-220" transform="translate(12.1386,-11.8386)"><title content="structured text">Sheet.5</title><g id="shape65-221" transform="translate(11.3386,1.42109E-014)"><title content="structured text">Rectangle No Fill No Fill.116</title><desc content="structured text">res0</desc><rect x="0" y="102.797" width="22.6772" height="11.3386" class="st8"/><text x="3.07" y="110.87" class="st9">RES<tspan class="st10">0</tspan></text></g><g id="shape66-225"><title content="structured text">Graphic.117</title><rect x="0" y="102.797" width="11.3386" height="11.3386" class="st11"/></g></g></g></svg>