<?xml version="1.0" encoding="UTF-8" standalone="no"?><!-- Fixed up by svgfix.xsl 1.4  --><!-- Generated by Microsoft Visio 11.0, SVG Export, v1.0 pmcr_bit_assignments_LowRes.svg ARM -->
<!DOCTYPE svg
  PUBLIC "-//W3C//DTD SVG 1.0//EN" "http://www.w3.org/TR/2001/REC-SVG-20010904/DTD/svg10.dtd">
<svg xmlns:xlink="http://www.w3.org/1999/xlink" xmlns="http://www.w3.org/2000/svg" xmlns:ev="http://www.w3.org/2001/xml-events" width="516.149" height="137.063" viewBox="0 0 387.112 102.797" xml:space="preserve" color-interpolation-filters="sRGB" class="st11" preserveAspectRatio="xMidYMid meet" zoomAndPan="magnify" version="1.0" contentScriptType="text/ecmascript" contentStyleType="text/css"><style type="text/css" xml:space="preserve"><![CDATA[
	
		.st1 {fill:#eed9b3;stroke:none;stroke-linecap:round;stroke-linejoin:round;stroke-width:0.2px}
		.st2 {stroke:#000000;stroke-linecap:butt;stroke-width:0.8px}
		.st3 {stroke:#000000;stroke-dasharray:0.25,0.5;stroke-linecap:butt;stroke-width:0.25px}
		.st4 {fill:#000000;font-family:Arial,Helvetica,sans-serif;font-size:0.666664em}
		.st5 {fill:none;stroke:none;stroke-linecap:round;stroke-linejoin:round;stroke-width:0.2px}
		.st6 {stroke:#000000;stroke-linecap:butt;stroke-width:0.5px}
		.st7 {fill:none;stroke:none;stroke-linecap:butt;stroke-width:0.499999px}
		.st8 {fill:#000000;font-family:Arial,Helvetica,sans-serif;font-size:0.533318em}
		.st9 {font-size:1.25003em}
		.st10 {fill:#eed9b3;stroke:none;stroke-linecap:round;stroke-linejoin:round;stroke-width:0.2px}
		.st11 {fill:none;fill-rule:evenodd;font-size:12px;overflow:visible;stroke-linecap:square;stroke-miterlimit:3}]]></style><g xmlns:v="http://schemas.microsoft.com/visio/2003/SVGExtensions/"><title content="structured text">ARM</title><g id="shape56-1" transform="translate(250.249,-51.5236)"><title content="structured text">Sheet.56</title><rect x="0" y="74.4508" width="45.3543" height="28.3465" class="st1"/></g><g id="shape1-3" transform="translate(374.973,-51.5236) scale(-1,1)"><title content="structured text">64-bit register.156</title><path d="M0 74.45 L362.83 74.45 L362.83 102.8 L0 102.8" class="st2"/></g><g id="shape2-6" transform="translate(114.936,11.5886) rotate(90)"><title content="structured text">64-bit register.169</title><path d="M0 102.8 L11.34 102.8" class="st3"/></g><g id="shape3-9" transform="translate(374.973,-51.5236)"><title content="structured text">64-bit register.157</title><path d="M0 74.45 L0 102.8" class="st2"/></g><g id="shape4-12" transform="translate(295.603,-51.5236)"><title content="structured text">64-bit register.4</title><path d="M0 74.45 L0 102.8" class="st2"/></g><g id="shape5-15" transform="translate(306.942,-51.5236)"><title content="structured text">64-bit register.7</title><path d="M0 74.45 L0 102.8" class="st2"/></g><g id="shape6-18" transform="translate(160.29,11.5886) rotate(90)"><title content="structured text">64-bit register.11</title><path d="M0 102.8 L11.34 102.8" class="st3"/></g><g id="shape7-21" transform="translate(205.644,11.5886) rotate(90)"><title content="structured text">64-bit register.12</title><path d="M0 102.8 L11.34 102.8" class="st3"/></g><g id="shape8-24" transform="translate(250.999,11.5886) rotate(90)"><title content="structured text">64-bit register.13</title><path d="M0 102.8 L11.34 102.8" class="st3"/></g><g id="shape9-27" transform="translate(296.353,11.5886) rotate(90)"><title content="structured text">64-bit register.14</title><path d="M0 102.8 L11.34 102.8" class="st3"/></g><g id="shape10-30" transform="translate(341.707,11.5886) rotate(90)"><title content="structured text">64-bit register.15</title><path d="M0 102.8 L11.34 102.8" class="st3"/></g><g id="shape11-33" transform="translate(432.416,11.5886) rotate(90)"><title content="structured text">64-bit register.16</title><path d="M0 102.8 L11.34 102.8" class="st3"/></g><g id="shape12-36" transform="translate(477.77,11.5886) rotate(90)"><title content="structured text">64-bit register.17</title><path d="M0 102.8 L11.34 102.8" class="st3"/></g><g id="shape13-39" transform="translate(12.1386,-79.8701)"><title content="structured text">64-bit register.179</title><desc content="structured text">31</desc><text x="1.22" y="99.53" class="st4">31</text></g><g id="shape14-41" transform="translate(363.635,-79.8701)"><title content="structured text">64-bit register.19</title><desc content="structured text">0</desc><text x="3.44" y="99.53" class="st4">0</text></g><g id="shape16-43" transform="translate(387.062,11.5886) rotate(90)"><title content="structured text">64-bit register.21</title><path d="M0 102.8 L11.34 102.8" class="st3"/></g><g id="shape18-46" transform="translate(306.942,-79.8701)"><title content="structured text">64-bit register.30</title><desc content="structured text">5</desc><text x="3.44" y="99.53" class="st4">5</text></g><g id="shape19-48" transform="translate(295.603,-79.8701)"><title content="structured text">64-bit register.31</title><desc content="structured text">6</desc><text x="3.44" y="99.53" class="st4">6</text></g><g id="shape20-50" transform="translate(284.265,-79.8701)"><title content="structured text">64-bit register.32</title><desc content="structured text">7</desc><text x="3.44" y="99.53" class="st4">7</text></g><g id="shape21-52" transform="translate(352.296,-79.8701)"><title content="structured text">64-bit register.33</title><desc content="structured text">1</desc><text x="3.44" y="99.53" class="st4">1</text></g><g id="shape22-54" transform="translate(340.957,-79.8701)"><title content="structured text">64-bit register.34</title><desc content="structured text">2</desc><text x="3.44" y="99.53" class="st4">2</text></g><g id="shape23-56" transform="translate(250.249,-79.8701)"><title content="structured text">64-bit register.35</title><desc content="structured text">10</desc><text x="1.22" y="99.53" class="st4">10</text></g><g id="shape24-58" transform="translate(238.91,-79.8701)"><title content="structured text">64-bit register.36</title><desc content="structured text">11</desc><text x="1.22" y="99.53" class="st4">11</text></g><g id="shape25-60" transform="translate(193.556,-79.8701)"><title content="structured text">64-bit register.37</title><desc content="structured text">15</desc><text x="1.22" y="99.53" class="st4">15</text></g><g id="shape26-62" transform="translate(182.217,-79.8701)"><title content="structured text">Sheet.26</title><desc content="structured text">16</desc><text x="1.22" y="99.53" class="st4">16</text></g><g id="shape27-64" transform="translate(102.847,-79.8701)"><title content="structured text">Sheet.27</title><desc content="structured text">23</desc><text x="1.22" y="99.53" class="st4">23</text></g><g id="shape31-66" transform="translate(193.556,-51.5236)"><title content="structured text">64-bit register.43</title><path d="M0 74.45 L0 102.8" class="st2"/></g><g id="shape32-69" transform="translate(250.249,-51.5236)"><title content="structured text">64-bit register.45</title><path d="M0 74.45 L0 102.8" class="st2"/></g><g id="shape33-72" transform="translate(340.957,-51.5236)"><title content="structured text">64-bit register.48</title><path d="M0 74.45 L0 102.8" class="st2"/></g><g id="shape47-75" transform="translate(12.1386,-51.5236)"><title content="structured text">Sheet.47</title><desc content="structured text">IMP</desc><rect x="0" y="74.4508" width="90.7087" height="28.3465" class="st5"/><text x="38.24" y="91.02" class="st4">IMP</text></g><g id="shape34-78" transform="translate(318.28,-51.5236)"><title content="structured text">Sheet.34</title><path d="M0 74.45 L0 102.8" class="st2"/></g><g id="shape35-81" transform="translate(329.619,-51.5236)"><title content="structured text">Sheet.35</title><path d="M0 74.45 L0 102.8" class="st2"/></g><g id="shape37-84" transform="translate(318.28,-51.5236)"><title content="structured text">Sheet.37</title><desc content="structured text">X</desc><rect x="0" y="74.4508" width="11.3386" height="28.3465" class="st5"/><text x="3" y="91.02" class="st4">X</text></g><g id="shape41-87" transform="translate(329.619,-79.8701)"><title content="structured text">64-bit register.41</title><desc content="structured text">3</desc><text x="3.44" y="99.53" class="st4">3</text></g><g id="shape46-89" transform="translate(318.28,-79.8701)"><title content="structured text">64-bit register.46</title><desc content="structured text">4</desc><text x="3.44" y="99.53" class="st4">4</text></g><g id="shape50-91" transform="translate(102.847,-51.5236)"><title content="structured text">Sheet.50</title><path d="M0 74.45 L0 102.8" class="st2"/></g><g id="shape51-94" transform="translate(312.611,-43.0197)"><title content="structured text">Sheet.51</title><path d="M0 97.13 L0 102.8 L5.67 102.8" class="st6"/></g><g id="shape53-97" transform="translate(91.5087,-79.8701)"><title content="structured text">64-bit register.53</title><desc content="structured text">24</desc><text x="1.22" y="99.53" class="st4">24</text></g><g id="shape54-99" transform="translate(102.847,-51.5236)"><title content="structured text">Sheet.54</title><desc content="structured text">IDCODE</desc><rect x="0" y="74.4508" width="90.7087" height="28.3465" class="st5"/><text x="29.8" y="91.02" class="st4">IDCODE</text></g><g id="shape55-102" transform="translate(193.556,-51.5236)"><title content="structured text">Sheet.55</title><desc content="structured text">N</desc><rect x="0" y="74.4508" width="56.6929" height="28.3465" class="st5"/><text x="25.46" y="91.02" class="st4">N</text></g><g id="shape15-105" transform="translate(352.296,-51.5236)"><title content="structured text">Sheet.15</title><path d="M0 74.45 L0 102.8" class="st2"/></g><g id="shape17-108" transform="translate(363.635,-51.5236)"><title content="structured text">Sheet.17</title><path d="M0 74.45 L0 102.8" class="st2"/></g><g id="shape28-111" transform="translate(363.635,-51.5236)"><title content="structured text">Sheet.28</title><desc content="structured text">E</desc><rect x="0" y="74.4508" width="11.3386" height="28.3465" class="st5"/><text x="3" y="91.02" class="st4">E</text></g><g id="shape29-114" transform="translate(352.296,-51.5236)"><title content="structured text">Sheet.29</title><desc content="structured text">P</desc><rect x="0" y="74.4508" width="11.3386" height="28.3465" class="st5"/><text x="3" y="91.02" class="st4">P</text></g><g id="shape30-117" transform="translate(340.957,-51.5236)"><title content="structured text">Sheet.30</title><desc content="structured text">C</desc><rect x="0" y="74.4508" width="11.3386" height="28.3465" class="st5"/><text x="2.78" y="91.02" class="st4">C</text></g><g id="shape38-120" transform="translate(329.619,-51.5236)"><title content="structured text">Sheet.38</title><desc content="structured text">D</desc><rect x="0" y="74.4508" width="11.3386" height="28.3465" class="st5"/><text x="2.78" y="91.02" class="st4">D</text></g><g id="shape36-123" transform="translate(321.115,-37.3504)"><title content="structured text">Sheet.36</title><desc content="structured text">DP</desc><rect x="0" y="91.4586" width="17.0079" height="11.3386" class="st5"/><text x="0" y="99.53" class="st4">DP</text></g><g id="shape39-126" transform="translate(301.272,-31.6811)"><title content="structured text">Sheet.39</title><path d="M0 85.79 L0 102.8 L17.01 102.8" class="st6"/></g><g id="shape40-129" transform="translate(321.115,-26.0118)"><title content="structured text">Sheet.40</title><desc content="structured text">LC</desc><rect x="0" y="91.4586" width="17.0079" height="11.3386" class="st5"/><text x="0" y="99.53" class="st4">LC</text></g><g id="group42-132" transform="translate(12.1386,-11.8386)"><title content="structured text">Sheet.42</title><g id="shape43-133" transform="translate(11.3386,1.42109E-014)"><title content="structured text">Rectangle No Fill No Fill.116</title><desc content="structured text">res0</desc><rect x="0" y="91.4587" width="22.6772" height="11.3386" class="st7"/><text x="3.07" y="99.53" class="st8">RES<tspan class="st9">0</tspan></text></g><g id="shape44-137"><title content="structured text">Graphic.117</title><rect x="0" y="91.4587" width="11.3386" height="11.3386" class="st10"/></g></g></g></svg>