<?xml version="1.0" encoding="UTF-8" standalone="no"?><!-- Fixed up by svgfix.xsl 1.4  --><!-- Generated by Microsoft Visio 11.0, SVG Export, v1.0 joh1467114477013_LowRes.svg ARM -->
<!DOCTYPE svg
  PUBLIC "-//W3C//DTD SVG 1.0//EN" "http://www.w3.org/TR/2001/REC-SVG-20010904/DTD/svg10.dtd">
<svg xmlns:xlink="http://www.w3.org/1999/xlink" xmlns="http://www.w3.org/2000/svg" xmlns:ev="http://www.w3.org/2001/xml-events" width="606.857" height="133.284" viewBox="0 0 455.143 99.963" xml:space="preserve" color-interpolation-filters="sRGB" class="st12" preserveAspectRatio="xMidYMid meet" zoomAndPan="magnify" version="1.0" contentScriptType="text/ecmascript" contentStyleType="text/css"><style type="text/css" xml:space="preserve"><![CDATA[
	
		.st1 {fill:#eed9b3;stroke:none;stroke-linecap:round;stroke-linejoin:round;stroke-width:0.2px}
		.st2 {fill:#000000;font-family:Arial,Helvetica,sans-serif;font-size:0.666664em}
		.st3 {fill:#ffffff;visibility:hidden}
		.st4 {stroke:#000000;stroke-linecap:butt;stroke-width:0.8px}
		.st5 {stroke:#000000;stroke-dasharray:0.25,1;stroke-linecap:butt;stroke-width:0.25px}
		.st6 {fill:none;stroke:none;stroke-linecap:butt;stroke-width:0.499999px}
		.st7 {fill:#000000;font-family:Arial,Helvetica,sans-serif;font-size:0.533318em}
		.st8 {font-size:1.25003em}
		.st9 {stroke:#000000;stroke-linecap:butt;stroke-width:0.5px}
		.st10 {fill:none;stroke:none;stroke-linecap:butt;stroke-width:0.5px}
		.st11 {fill:#ffffff;stroke:none;stroke-linecap:butt;stroke-width:0.5px}
		.st12 {fill:none;fill-rule:evenodd;font-size:12px;overflow:visible;stroke-linecap:square;stroke-miterlimit:3}]]></style><g xmlns:v="http://schemas.microsoft.com/visio/2003/SVGExtensions/"><title content="structured text">ARM</title><g id="shape31-1" transform="translate(12.1386,-48.689)"><title content="structured text">Graphic.117</title><rect x="0" y="71.6162" width="192.756" height="28.3464" class="st1"/></g><g id="shape1-3" transform="translate(12.1386,-77.0354)"><title content="structured text">Bit31</title><desc content="structured text">63</desc><text x="1.22" y="96.69" class="st2">63</text></g><g id="shape14-5" transform="translate(12.1386,-48.689)"><title content="structured text">MainOutline+Bit00</title><rect x="0" y="71.6161" width="192.756" height="28.3465" class="st3"/><rect x="0" y="71.6161" width="192.756" height="28.3465" class="st4"/></g><g id="shape15-8" transform="translate(253.833,11.5886) rotate(90)"><title content="structured text">Signal 0</title><path d="M0 99.96 L11.34 99.96" class="st5"/></g><g id="shape16-11" transform="translate(231.156,11.5886) rotate(90)"><title content="structured text">Signal 0.102</title><path d="M0 99.96 L11.34 99.96" class="st5"/></g><g id="shape17-14" transform="translate(208.479,11.5886) rotate(90)"><title content="structured text">Signal 0.103</title><path d="M0 99.96 L11.34 99.96" class="st5"/></g><g id="shape18-17" transform="translate(185.802,11.5886) rotate(90)"><title content="structured text">Signal 0.104</title><path d="M0 99.96 L11.34 99.96" class="st5"/></g><g id="shape19-20" transform="translate(163.125,11.5886) rotate(90)"><title content="structured text">Signal 0.105</title><path d="M0 99.96 L11.34 99.96" class="st5"/></g><g id="shape20-23" transform="translate(140.448,11.5886) rotate(90)"><title content="structured text">Signal 0.106</title><path d="M0 99.96 L11.34 99.96" class="st5"/></g><g id="shape21-26" transform="translate(112.101,11.5886) rotate(90)"><title content="structured text">Signal 0.107</title><path d="M0 99.96 L11.34 99.96" class="st5"/></g><g id="shape22-29" transform="translate(112.101,11.5886) rotate(90)"><title content="structured text">Signal 0.108</title><path d="M0 99.96 L11.34 99.96" class="st5"/></g><g id="shape23-32" transform="translate(276.511,11.5886) rotate(90)"><title content="structured text">Signal 0.109</title><path d="M0 99.96 L11.34 99.96" class="st5"/></g><g id="group42-35" transform="translate(12.1386,-11.8386)"><title content="structured text">Sheet.42</title><g id="shape43-36" transform="translate(11.3386,0)"><title content="structured text">Rectangle No Fill No Fill.116</title><desc content="structured text">res0</desc><rect x="0" y="88.624" width="22.6772" height="11.3386" class="st6"/><text x="3.07" y="96.69" class="st7">RES<tspan class="st8">0</tspan></text></g><g id="shape44-40"><title content="structured text">Graphic.117</title><rect x="0" y="88.624" width="11.3386" height="11.3386" class="st1"/></g></g><g id="shape52-42" transform="translate(216.233,-48.689)"><title content="structured text">Graphic.52</title><rect x="0" y="71.6162" width="68.0315" height="28.3464" class="st1"/></g><g id="shape53-44" transform="translate(204.894,-77.0354)"><title content="structured text">Bit31.53</title><desc content="structured text">31</desc><text x="1.22" y="96.69" class="st2">31</text></g><g id="shape65-46" transform="translate(12.1386,-48.689)"><title content="structured text">MainOutline+Bit00.65</title><desc content="structured text">0</desc><rect x="0" y="71.6161" width="430.866" height="28.3465" class="st3"/><rect x="0" y="71.6161" width="430.866" height="28.3465" class="st4"/><text x="422.97" y="68.35" class="st2">0</text></g><g id="shape66-50" transform="translate(514.621,11.5886) rotate(90)"><title content="structured text">Signal 0.66</title><path d="M0 99.96 L11.34 99.96" class="st5"/></g><g id="shape67-53" transform="translate(491.944,11.5886) rotate(90)"><title content="structured text">Signal 0.67</title><path d="M0 99.96 L11.34 99.96" class="st5"/></g><g id="shape68-56" transform="translate(469.267,11.5886) rotate(90)"><title content="structured text">Signal 0.68</title><path d="M0 99.96 L11.34 99.96" class="st5"/></g><g id="shape69-59" transform="translate(446.589,11.5886) rotate(90)"><title content="structured text">Signal 0.69</title><path d="M0 99.96 L11.34 99.96" class="st5"/></g><g id="shape70-62" transform="translate(423.912,11.5886) rotate(90)"><title content="structured text">Signal 0.70</title><path d="M0 99.96 L11.34 99.96" class="st5"/></g><g id="shape71-65" transform="translate(395.566,11.5886) rotate(90)"><title content="structured text">Signal 0.71</title><path d="M0 99.96 L11.34 99.96" class="st5"/></g><g id="shape72-68" transform="translate(350.211,11.5886) rotate(90)"><title content="structured text">Signal 0.72</title><path d="M0 99.96 L11.34 99.96" class="st5"/></g><g id="shape73-71" transform="translate(304.857,11.5886) rotate(90)"><title content="structured text">Signal 0.73</title><path d="M0 99.96 L11.34 99.96" class="st5"/></g><g id="shape74-74" transform="translate(542.967,11.5886) rotate(90)"><title content="structured text">Signal 0.74</title><path d="M0 99.96 L11.34 99.96" class="st5"/></g><g id="shape79-77" transform="translate(301.272,-40.185) scale(-1,1)"><title content="structured text">Bit name 2.79</title><desc content="structured text">IDS</desc><path d="M11.34 94.29 L11.34 99.96 L0 99.96" class="st9"/><text x="2" y="102.36" transform="scale(-1,1)" class="st2">IDS</text></g><g id="shape81-81" transform="translate(204.894,-48.689)"><title content="structured text">Sheet.81</title><path d="M0 99.96 L0 71.62" class="st4"/><path d="M11.34 99.96 L11.34 71.62" class="st4"/></g><g id="shape82-85" transform="translate(204.894,-48.689)"><title content="structured text">Bit name 2.82</title><desc content="structured text">A</desc><rect x="0" y="71.6161" width="11.3386" height="28.3465" class="st10"/><text x="3.5" y="88.19" class="st2">A</text></g><g id="shape84-88" transform="translate(295.603,-48.689)"><title content="structured text">Bit name 2.84</title><desc content="structured text">ISS</desc><rect x="0" y="71.6161" width="147.402" height="28.3465" class="st10"/><text x="67.75" y="88.19" class="st2">ISS</text></g><g id="shape87-91" transform="translate(216.233,-77.0354)"><title content="structured text">Bit18.87</title><desc content="structured text">30</desc><text x="1.22" y="96.69" class="st2">30</text></g><g id="group210-93" transform="translate(107.099,-45.8662)"><title content="structured text">Sheet.210</title><g id="group211-94" transform="translate(0,-28.3465)"><title content="structured text">Sheet.211</title><g id="shape212-95" transform="translate(0.566929,2.84217E-014)"><title content="structured text">Sheet.212</title><rect x="0" y="94.2933" width="1.88976" height="5.66929" class="st11"/></g><g id="shape213-97" transform="translate(101.031,110.659) rotate(99.4623)"><title content="structured text">Sheet.213</title><path d="M0 99.55 C0.15 99.76 0.72 99.93 1.15 99.96 C1.58 99.99 1.86 99.88 2.34 99.64 C2.63 99.5 2.98 99.32 3.29          99.2 C4.56 98.7 5.03 99.25 5.75 99.55" class="st9"/></g><g id="shape214-100" transform="translate(99.1417,110.659) rotate(99.4623)"><title content="structured text">Sheet.214</title><path d="M0 99.55 C0.15 99.76 0.72 99.93 1.15 99.96 C1.58 99.99 1.86 99.88 2.34 99.64 C2.63 99.5 2.98 99.32 3.29          99.2 C4.56 98.7 5.03 99.25 5.75 99.55" class="st9"/></g></g><g id="group215-103"><title content="structured text">Sheet.215</title><g id="shape216-104" transform="translate(0.566929,2.84217E-014)"><title content="structured text">Sheet.216</title><rect x="0" y="94.2933" width="1.88976" height="5.66929" class="st11"/></g><g id="shape217-106" transform="translate(101.031,110.659) rotate(99.4623)"><title content="structured text">Sheet.217</title><path d="M0 99.55 C0.15 99.76 0.72 99.93 1.15 99.96 C1.58 99.99 1.86 99.88 2.34 99.64 C2.63 99.5 2.98 99.32 3.29          99.2 C4.56 98.7 5.03 99.25 5.75 99.55" class="st9"/></g><g id="shape218-109" transform="translate(99.1417,110.659) rotate(99.4623)"><title content="structured text">Sheet.218</title><path d="M0 99.55 C0.15 99.76 0.72 99.93 1.15 99.96 C1.58 99.99 1.86 99.88 2.34 99.64 C2.63 99.5 2.98 99.32 3.29          99.2 C4.56 98.7 5.03 99.25 5.75 99.55" class="st9"/></g></g></g><g id="shape219-112" transform="translate(284.265,-77.0354)"><title content="structured text">Bit31.219</title><desc content="structured text">24</desc><text x="1.22" y="96.69" class="st2">24</text></g><g id="shape220-114" transform="translate(284.265,-48.689)"><title content="structured text">Sheet.220</title><path d="M0 99.96 L0 71.62" class="st4"/><path d="M11.34 99.96 L11.34 71.62" class="st4"/></g><g id="shape222-118" transform="translate(272.926,-77.0354)"><title content="structured text">Bit31.222</title><desc content="structured text">25</desc><text x="1.22" y="96.69" class="st2">25</text></g><g id="shape223-120" transform="translate(295.603,-77.0354)"><title content="structured text">Bit31.223</title><desc content="structured text">23</desc><text x="1.22" y="96.69" class="st2">23</text></g><g id="shape352-122" transform="translate(193.556,-77.0354)"><title content="structured text">Bit18.352</title><desc content="structured text">32</desc><text x="1.22" y="96.69" class="st2">32</text></g><g id="group353-124" transform="translate(367.887,-45.8543)"><title content="structured text">Sheet.353</title><g id="group354-125" transform="translate(0,-28.3465)"><title content="structured text">Sheet.354</title><g id="shape355-126" transform="translate(0.566929,2.84217E-014)"><title content="structured text">Sheet.355</title><rect x="0" y="94.2933" width="1.88976" height="5.66929" class="st11"/></g><g id="shape356-128" transform="translate(101.031,110.659) rotate(99.4623)"><title content="structured text">Sheet.356</title><path d="M0 99.55 C0.15 99.76 0.72 99.93 1.15 99.96 C1.58 99.99 1.86 99.88 2.34 99.64 C2.63 99.5 2.98 99.32 3.29          99.2 C4.56 98.7 5.03 99.25 5.75 99.55" class="st9"/></g><g id="shape357-131" transform="translate(99.1417,110.659) rotate(99.4623)"><title content="structured text">Sheet.357</title><path d="M0 99.55 C0.15 99.76 0.72 99.93 1.15 99.96 C1.58 99.99 1.86 99.88 2.34 99.64 C2.63 99.5 2.98 99.32 3.29          99.2 C4.56 98.7 5.03 99.25 5.75 99.55" class="st9"/></g></g><g id="group358-134"><title content="structured text">Sheet.358</title><g id="shape359-135" transform="translate(0.566929,2.84217E-014)"><title content="structured text">Sheet.359</title><rect x="0" y="94.2933" width="1.88976" height="5.66929" class="st11"/></g><g id="shape360-137" transform="translate(101.031,110.659) rotate(99.4623)"><title content="structured text">Sheet.360</title><path d="M0 99.55 C0.15 99.76 0.72 99.93 1.15 99.96 C1.58 99.99 1.86 99.88 2.34 99.64 C2.63 99.5 2.98 99.32 3.29          99.2 C4.56 98.7 5.03 99.25 5.75 99.55" class="st9"/></g><g id="shape361-140" transform="translate(99.1417,110.659) rotate(99.4623)"><title content="structured text">Sheet.361</title><path d="M0 99.55 C0.15 99.76 0.72 99.93 1.15 99.96 C1.58 99.99 1.86 99.88 2.34 99.64 C2.63 99.5 2.98 99.32 3.29          99.2 C4.56 98.7 5.03 99.25 5.75 99.55" class="st9"/></g></g></g></g></svg>