<?xml version="1.0" encoding="UTF-8" standalone="no"?><!-- Fixed up by svgfix.xsl 1.4  --><!-- Generated by Microsoft Visio, SVG Export CLIDR_EL1_bit_assignments_LowRes.svg ARM -->
<!DOCTYPE svg
  PUBLIC "-//W3C//DTD SVG 1.0//EN" "http://www.w3.org/TR/2001/REC-SVG-20010904/DTD/svg10.dtd">
<svg xmlns:xlink="http://www.w3.org/1999/xlink" xmlns="http://www.w3.org/2000/svg" xmlns:ev="http://www.w3.org/2001/xml-events" width="705.126" height="137.299" viewBox="0 0 528.844 102.974" xml:space="preserve" color-interpolation-filters="sRGB" class="st14" preserveAspectRatio="xMidYMid meet" zoomAndPan="magnify" version="1.1" contentScriptType="application/ecmascript" contentStyleType="text/css"><style type="text/css" xml:space="preserve"><![CDATA[
	
		.st1 {fill:#eed9b3;stroke:none;stroke-linecap:round;stroke-linejoin:round;stroke-width:0.2px}
		.st2 {fill:none;stroke:none;stroke-linecap:round;stroke-linejoin:round;stroke-width:0.2px}
		.st3 {fill:#000000;font-family:Arial,Helvetica,sans-serif;font-size:0.666664em}
		.st4 {stroke:#000000;stroke-linecap:butt;stroke-width:0.8px}
		.st5 {stroke:#000000;stroke-dasharray:0.25,1;stroke-linecap:butt;stroke-width:0.25px}
		.st6 {fill:none;visibility:hidden}
		.st7 {fill:#ffffff;stroke:none;stroke-linecap:butt;stroke-width:0.5px}
		.st8 {stroke:#000000;stroke-linecap:butt;stroke-width:0.5px}
		.st9 {fill:none;stroke:none;stroke-linecap:butt;stroke-width:0.499999px}
		.st10 {fill:#000000;font-family:Arial,Helvetica,sans-serif;font-size:0.533318em}
		.st11 {font-size:1.25003em}
		.st12 {fill:#eed9b3;stroke:none;stroke-linecap:round;stroke-linejoin:round;stroke-width:0.2px}
		.st13 {font-size:1em}
		.st14 {fill:none;fill-rule:evenodd;font-size:12px;overflow:visible;stroke-linecap:square;stroke-miterlimit:3}]]></style><g xmlns:v="http://schemas.microsoft.com/visio/2003/SVGExtensions/"><title>ARM</title><g id="shape391-1" transform="translate(12.1386,-51.5236)"><title>Sheet.391</title><rect x="0" y="74.6279" width="187.087" height="28.3465" class="st1"/></g><g id="shape350-3" transform="translate(335.288,-51.7008)"><title>Sheet.350</title><rect x="0" y="74.6279" width="79.3701" height="28.3465" class="st1"/></g><g id="shape351-5" transform="translate(414.658,-51.7008)"><title>Sheet.351</title><desc>Ctype3</desc><rect x="0" y="74.6279" width="34.0157" height="28.3465" class="st2"/><text x="4.33" y="91.2" class="st3">Ctype3</text></g><g id="shape352-8" transform="translate(448.674,-51.7008)"><title>Sheet.352</title><desc>Ctype2</desc><rect x="0" y="74.6279" width="34.0157" height="28.3465" class="st2"/><text x="4.33" y="91.2" class="st3">Ctype2</text></g><g id="shape353-11" transform="translate(482.69,-51.7008)"><title>Sheet.353</title><desc>Ctype1</desc><rect x="0" y="74.6279" width="34.0157" height="28.3465" class="st2"/><text x="4.33" y="91.2" class="st3">Ctype1</text></g><g id="shape355-14" transform="translate(221.902,-80.0472)"><title>Sheet.355</title><desc>30</desc><text x="1.22" y="99.71" class="st3">30</text></g><g id="shape356-16" transform="translate(233.241,-80.0472)"><title>Sheet.356</title><desc>29</desc><text x="1.22" y="99.71" class="st3">29</text></g><g id="shape357-18" transform="translate(255.918,-80.0472)"><title>Sheet.357</title><desc>27</desc><text x="1.22" y="99.71" class="st3">27</text></g><g id="shape358-20" transform="translate(267.257,-80.0472)"><title>Sheet.358</title><desc>26</desc><text x="1.22" y="99.71" class="st3">26</text></g><g id="shape359-22" transform="translate(289.934,-80.0472)"><title>Sheet.359</title><desc>24</desc><text x="1.22" y="99.71" class="st3">24</text></g><g id="shape360-24" transform="translate(301.272,-80.0472)"><title>Sheet.360</title><desc>23</desc><text x="1.22" y="99.71" class="st3">23</text></g><g id="shape361-26" transform="translate(323.95,-80.0472)"><title>Sheet.361</title><desc>21</desc><text x="1.22" y="99.71" class="st3">21</text></g><g id="shape362-28" transform="translate(335.288,-80.0472)"><title>Sheet.362</title><desc>20</desc><text x="1.22" y="99.71" class="st3">20</text></g><g id="shape363-30" transform="translate(403.32,-80.0472)"><title>Sheet.363</title><desc>9</desc><text x="3.44" y="99.71" class="st3">9</text></g><g id="shape364-32" transform="translate(414.658,-80.0472)"><title>Sheet.364</title><desc>8</desc><text x="3.44" y="99.71" class="st3">8</text></g><g id="shape365-34" transform="translate(437.335,-80.0472)"><title>Sheet.365</title><desc>6</desc><text x="3.44" y="99.71" class="st3">6</text></g><g id="shape366-36" transform="translate(448.674,-80.0472)"><title>Sheet.366</title><desc>5</desc><text x="3.44" y="99.71" class="st3">5</text></g><g id="shape367-38" transform="translate(471.351,-80.0472)"><title>Sheet.367</title><desc>3</desc><text x="3.44" y="99.71" class="st3">3</text></g><g id="shape368-40" transform="translate(482.69,-80.0472)"><title>Sheet.368</title><desc>2</desc><text x="3.44" y="99.71" class="st3">2</text></g><g id="shape369-42" transform="translate(505.367,-80.0472)"><title>Sheet.369</title><desc>0</desc><text x="3.44" y="99.71" class="st3">0</text></g><g id="shape370-44" transform="translate(233.241,-51.7008)"><title>Sheet.370</title><desc>LoUU</desc><rect x="0" y="74.6279" width="34.0157" height="28.3465" class="st2"/><text x="6.78" y="91.2" class="st3">LoUU</text></g><g id="shape371-47" transform="translate(267.257,-51.7008)"><title>Sheet.371</title><desc>LoC</desc><rect x="0" y="74.6279" width="34.0157" height="28.3465" class="st2"/><text x="9.67" y="91.2" class="st3">LoC</text></g><g id="shape372-50" transform="translate(233.241,-51.7008)"><title>Sheet.372</title><path d="M0 74.63 L0 102.97" class="st4"/></g><g id="shape373-53" transform="translate(267.257,-51.7008)"><title>Sheet.373</title><path d="M0 74.63 L0 102.97" class="st4"/></g><g id="shape374-56" transform="translate(301.272,-51.7008)"><title>Sheet.374</title><path d="M0 74.63 L0 102.97" class="st4"/></g><g id="shape375-59" transform="translate(335.288,-51.7008)"><title>Sheet.375</title><path d="M0 74.63 L0 102.97" class="st4"/></g><g id="shape376-62" transform="translate(414.658,-51.7008)"><title>Sheet.376</title><path d="M0 74.63 L0 102.97" class="st4"/></g><g id="shape377-65" transform="translate(448.674,-51.7008)"><title>Sheet.377</title><path d="M0 74.63 L0 102.97" class="st4"/></g><g id="shape378-68" transform="translate(482.69,-51.7008)"><title>Sheet.378</title><path d="M0 74.63 L0 102.97" class="st4"/></g><g id="shape379-71" transform="translate(574.326,11.5886) rotate(90)"><title>Time division.36</title><path d="M0 102.97 L11.34 102.97" class="st5"/></g><g id="shape380-74" transform="translate(528.971,11.5886) rotate(90)"><title>Time division.103</title><path d="M0 102.97 L11.34 102.97" class="st5"/></g><g id="shape381-77" transform="translate(494.956,11.5886) rotate(90)"><title>Time division.104</title><path d="M0 102.97 L11.34 102.97" class="st5"/></g><g id="shape382-80" transform="translate(472.278,11.5886) rotate(90)"><title>Time division.105</title><path d="M0 102.97 L11.34 102.97" class="st5"/></g><g id="shape383-83" transform="translate(449.601,11.5886) rotate(90)"><title>Time division.106</title><path d="M0 102.97 L11.34 102.97" class="st5"/></g><g id="shape384-86" transform="translate(404.247,11.5886) rotate(90)"><title>Time division.107</title><path d="M0 102.97 L11.34 102.97" class="st5"/></g><g id="shape385-89" transform="translate(358.893,11.5886) rotate(90)"><title>Time division.108</title><path d="M0 102.97 L11.34 102.97" class="st5"/></g><g id="shape386-92" transform="translate(619.68,11.5886) rotate(90)"><title>Time division.5</title><path d="M0 102.97 L11.34 102.97" class="st5"/></g><g id="shape387-95" transform="translate(313.538,11.5886) rotate(90)"><title>Time division.109</title><path d="M0 102.97 L11.34 102.97" class="st5"/></g><g id="shape388-98" transform="translate(12.1386,-51.7008)"><title>Sheet.388</title><rect x="0" y="74.6279" width="504.567" height="28.3465" class="st6"/><rect x="0" y="74.6279" width="504.567" height="28.3465" class="st4"/></g><g id="shape389-101" transform="translate(199.225,-51.3465)"><title>Sheet.389</title><desc>ICB</desc><rect x="0" y="74.6279" width="34.0157" height="28.3465" class="st2"/><text x="10.34" y="91.2" class="st3">ICB</text></g><g id="group392-104" transform="translate(373.556,-48.689)"><title>Sheet.392</title><g id="group393-105" transform="translate(0,-28.3465)"><title>Sheet.393</title><g id="shape394-106" transform="translate(0.566929,2.84217E-14)"><title>Sheet.394</title><rect x="0" y="97.3051" width="1.88976" height="5.66929" class="st7"/></g><g id="shape395-108" transform="translate(104.002,114.166) rotate(99.4623)"><title>Sheet.395</title><path d="M0 102.56 C0.15 102.77 0.72 102.94 1.15 102.97 C1.58 103 1.86 102.89 2.34 102.66 C2.63 102.52 2.98 102.33          3.29 102.21 C4.56 101.71 5.03 102.26 5.75 102.56" class="st8"/></g><g id="shape396-111" transform="translate(102.112,114.166) rotate(99.4623)"><title>Sheet.396</title><path d="M0 102.56 C0.15 102.77 0.72 102.94 1.15 102.97 C1.58 103 1.86 102.89 2.34 102.66 C2.63 102.52 2.98 102.33          3.29 102.21 C4.56 101.71 5.03 102.26 5.75 102.56" class="st8"/></g></g><g id="group397-114"><title>Sheet.397</title><g id="shape398-115" transform="translate(0.566929,2.84217E-14)"><title>Sheet.398</title><rect x="0" y="97.3051" width="1.88976" height="5.66929" class="st7"/></g><g id="shape399-117" transform="translate(104.002,114.166) rotate(99.4623)"><title>Sheet.399</title><path d="M0 102.56 C0.15 102.77 0.72 102.94 1.15 102.97 C1.58 103 1.86 102.89 2.34 102.66 C2.63 102.52 2.98 102.33          3.29 102.21 C4.56 101.71 5.03 102.26 5.75 102.56" class="st8"/></g><g id="shape400-120" transform="translate(102.112,114.166) rotate(99.4623)"><title>Sheet.400</title><path d="M0 102.56 C0.15 102.77 0.72 102.94 1.15 102.97 C1.58 103 1.86 102.89 2.34 102.66 C2.63 102.52 2.98 102.33          3.29 102.21 C4.56 101.71 5.03 102.26 5.75 102.56" class="st8"/></g></g></g><g id="shape401-123" transform="translate(199.225,-51.5236)"><title>Sheet.401</title><path d="M0 74.63 L0 102.97" class="st4"/></g><g id="shape402-126" transform="translate(12.1386,-79.8701)"><title>Bit31</title><desc>63</desc><text x="1.22" y="99.71" class="st3">63</text></g><g id="shape403-128" transform="translate(115.113,11.7657) rotate(90)"><title>Time division.403</title><path d="M0 102.97 L11.34 102.97" class="st5"/></g><g id="shape404-131" transform="translate(279.522,11.5886) rotate(90)"><title>Time division.404</title><path d="M0 102.97 L11.34 102.97" class="st5"/></g><g id="shape405-134" transform="translate(256.845,11.5886) rotate(90)"><title>Time division.405</title><path d="M0 102.97 L11.34 102.97" class="st5"/></g><g id="shape406-137" transform="translate(234.168,11.5886) rotate(90)"><title>Time division.406</title><path d="M0 102.97 L11.34 102.97" class="st5"/></g><g id="shape407-140" transform="translate(211.491,11.7657) rotate(90)"><title>Time division.407</title><path d="M0 102.97 L11.34 102.97" class="st5"/></g><g id="shape408-143" transform="translate(188.814,11.7657) rotate(90)"><title>Time division.408</title><path d="M0 102.97 L11.34 102.97" class="st5"/></g><g id="shape409-146" transform="translate(166.137,11.7657) rotate(90)"><title>Time division.409</title><path d="M0 102.97 L11.34 102.97" class="st5"/></g><g id="shape410-149" transform="translate(143.459,11.5886) rotate(90)"><title>Time division.410</title><path d="M0 102.97 L11.34 102.97" class="st5"/></g><g id="group390-152" transform="translate(104.265,-48.689)"><title>Sheet.390</title><g id="group411-153" transform="translate(0,-28.3465)"><title>Sheet.411</title><g id="shape412-154" transform="translate(0.566929,2.84217E-14)"><title>Sheet.412</title><rect x="0" y="97.3051" width="1.88976" height="5.66929" class="st7"/></g><g id="shape413-156" transform="translate(104.002,114.166) rotate(99.4623)"><title>Sheet.413</title><path d="M0 102.56 C0.15 102.77 0.72 102.94 1.15 102.97 C1.58 103 1.86 102.89 2.34 102.66 C2.63 102.52 2.98 102.33          3.29 102.21 C4.56 101.71 5.03 102.26 5.75 102.56" class="st8"/></g><g id="shape414-159" transform="translate(102.112,114.166) rotate(99.4623)"><title>Sheet.414</title><path d="M0 102.56 C0.15 102.77 0.72 102.94 1.15 102.97 C1.58 103 1.86 102.89 2.34 102.66 C2.63 102.52 2.98 102.33          3.29 102.21 C4.56 101.71 5.03 102.26 5.75 102.56" class="st8"/></g></g><g id="group415-162"><title>Sheet.415</title><g id="shape416-163" transform="translate(0.566929,2.84217E-14)"><title>Sheet.416</title><rect x="0" y="97.3051" width="1.88976" height="5.66929" class="st7"/></g><g id="shape417-165" transform="translate(104.002,114.166) rotate(99.4623)"><title>Sheet.417</title><path d="M0 102.56 C0.15 102.77 0.72 102.94 1.15 102.97 C1.58 103 1.86 102.89 2.34 102.66 C2.63 102.52 2.98 102.33          3.29 102.21 C4.56 101.71 5.03 102.26 5.75 102.56" class="st8"/></g><g id="shape418-168" transform="translate(102.112,114.166) rotate(99.4623)"><title>Sheet.418</title><path d="M0 102.56 C0.15 102.77 0.72 102.94 1.15 102.97 C1.58 103 1.86 102.89 2.34 102.66 C2.63 102.52 2.98 102.33          3.29 102.21 C4.56 101.71 5.03 102.26 5.75 102.56" class="st8"/></g></g></g><g id="shape2-171" transform="translate(199.225,-79.8701)"><title>Sheet.2</title><desc>32</desc><text x="1.22" y="99.71" class="st3">32</text></g><g id="group3-173" transform="translate(12.1386,-11.8386)"><title>Sheet.3</title><g id="shape4-174" transform="translate(11.3386,0)"><title>Rectangle No Fill No Fill.116</title><desc>res0</desc><rect x="0" y="91.6358" width="22.6772" height="11.3386" class="st9"/><text x="3.07" y="99.7" class="st10">RES<tspan class="st11">0</tspan></text></g><g id="shape5-178"><title>Graphic.117</title><rect x="0" y="91.6358" width="11.3386" height="11.3386" class="st12"/></g></g><g id="shape288-180" transform="translate(301.272,-51.5236)"><title>Sheet.288</title><desc>LoUIS</desc><rect x="0" y="74.6279" width="34.0157" height="28.3465" class="st2"/><text x="5.89" y="91.2" class="st3">Lo<tspan class="st13">UIS</tspan></text></g><g id="shape419-184" transform="translate(187.887,-79.8701)"><title>Sheet.419</title><desc>33</desc><text x="1.22" y="99.71" class="st3">33</text></g></g></svg>