<?xml version="1.0" encoding="UTF-8" standalone="no"?><!-- Fixed up by svgfix.xsl 1.4  --><!-- Generated by Microsoft Visio 11.0, SVG Export, v1.0 id_mmfr4_bit_assignments_LowRes.svg ARM -->
<!DOCTYPE svg
  PUBLIC "-//W3C//DTD SVG 1.0//EN" "http://www.w3.org/TR/2001/REC-SVG-20010904/DTD/svg10.dtd">
<svg xmlns:xlink="http://www.w3.org/1999/xlink" xmlns="http://www.w3.org/2000/svg" xmlns:ev="http://www.w3.org/2001/xml-events" width="516.149" height="84.55" viewBox="0 0 387.112 63.412" xml:space="preserve" color-interpolation-filters="sRGB" class="st6" preserveAspectRatio="xMidYMid meet" zoomAndPan="magnify" version="1.0" contentScriptType="text/ecmascript" contentStyleType="text/css"><style type="text/css" xml:space="preserve"><![CDATA[
	
		.st1 {fill:#000000;font-family:Arial,Helvetica,sans-serif;font-size:0.666664em}
		.st2 {fill:none;visibility:hidden}
		.st3 {stroke:#000000;stroke-linecap:butt;stroke-width:0.8px}
		.st4 {stroke:#000000;stroke-dasharray:0.25,0.5;stroke-linecap:butt;stroke-width:0.25px}
		.st5 {fill:none;stroke:none;stroke-linecap:round;stroke-linejoin:round;stroke-width:0.2px}
		.st6 {fill:none;fill-rule:evenodd;font-size:12px;overflow:visible;stroke-linecap:square;stroke-miterlimit:3}]]></style><g xmlns:v="http://schemas.microsoft.com/visio/2003/SVGExtensions/"><title content="structured text">ARM</title><g id="shape1-1" transform="translate(12.1386,-40.485)"><title content="structured text">Sheet.1</title><desc content="structured text">31</desc><text x="1.22" y="60.14" class="st1">31</text></g><g id="shape4-3" transform="translate(272.926,-40.485)"><title content="structured text">Sheet.4</title><desc content="structured text">8</desc><text x="3.44" y="60.14" class="st1">8</text></g><g id="shape5-5" transform="translate(284.265,-40.485)"><title content="structured text">Sheet.5</title><desc content="structured text">7</desc><text x="3.44" y="60.14" class="st1">7</text></g><g id="shape6-7" transform="translate(363.635,-40.485)"><title content="structured text">Sheet.6</title><desc content="structured text">0</desc><text x="3.44" y="60.14" class="st1">0</text></g><g id="shape8-9" transform="translate(12.1386,-12.1386)"><title content="structured text">Sheet.8</title><rect x="0" y="35.0657" width="362.835" height="28.3465" class="st2"/><rect x="0" y="35.0657" width="362.835" height="28.3465" class="st3"/></g><g id="shape10-12" transform="translate(283.91,-12.1386)"><title content="structured text">Sheet.10</title><path d="M0 35.07 L0 63.41" class="st3"/></g><g id="shape11-15" transform="translate(392.677,11.5886) rotate(90)"><title content="structured text">Signal 0</title><path d="M0 63.41 L11.34 63.41" class="st4"/></g><g id="shape12-18" transform="translate(347.677,11.5886) rotate(90)"><title content="structured text">Signal 0.102</title><path d="M0 63.41 L11.34 63.41" class="st4"/></g><g id="shape13-21" transform="translate(302.322,11.5886) rotate(90)"><title content="structured text">Signal 0.103</title><path d="M0 63.41 L11.34 63.41" class="st4"/></g><g id="shape14-24" transform="translate(256.968,11.5886) rotate(90)"><title content="structured text">Signal 0.104</title><path d="M0 63.41 L11.34 63.41" class="st4"/></g><g id="shape15-27" transform="translate(211.614,11.5886) rotate(90)"><title content="structured text">Signal 0.105</title><path d="M0 63.41 L11.34 63.41" class="st4"/></g><g id="shape16-30" transform="translate(166.259,11.5886) rotate(90)"><title content="structured text">Signal 0.106</title><path d="M0 63.41 L11.34 63.41" class="st4"/></g><g id="shape17-33" transform="translate(120.905,11.5886) rotate(90)"><title content="structured text">Signal 0.107</title><path d="M0 63.41 L11.34 63.41" class="st4"/></g><g id="shape18-36" transform="translate(75.5508,11.5886) rotate(90)"><title content="structured text">Signal 0.108</title><path d="M0 63.41 L11.34 63.41" class="st4"/></g><g id="shape19-39" transform="translate(438.385,11.5886) rotate(90)"><title content="structured text">Signal 0.109</title><path d="M0 63.41 L11.34 63.41" class="st4"/></g><g id="shape20-42" transform="translate(318.28,-40.485)"><title content="structured text">32-bit register.215</title><desc content="structured text">4</desc><text x="3.44" y="60.14" class="st1">4</text></g><g id="shape21-44" transform="translate(329.619,-40.485)"><title content="structured text">32-bit register.216</title><desc content="structured text">3</desc><text x="3.44" y="60.14" class="st1">3</text></g><g id="shape22-46" transform="translate(329.265,-12.1386)"><title content="structured text">Sheet.22</title><path d="M0 35.07 L0 63.41" class="st3"/></g><g id="shape52-49" transform="translate(12.1386,-12.1386)"><title content="structured text">Sheet.52</title><desc content="structured text">RAZ</desc><rect x="0" y="35.0657" width="90.7087" height="28.3465" class="st5"/><text x="37.35" y="51.64" class="st1">RAZ</text></g><g id="shape55-52" transform="translate(284.265,-12.1386)"><title content="structured text">Sheet.55</title><desc content="structured text">AC2</desc><rect x="0" y="35.0657" width="45.3543" height="28.3465" class="st5"/><text x="14.9" y="51.64" class="st1">AC2</text></g><g id="shape56-55" transform="translate(329.619,-12.1386)"><title content="structured text">Sheet.56</title><desc content="structured text">SpecSEI</desc><rect x="0" y="35.0657" width="45.3543" height="28.3465" class="st5"/><text x="7.11" y="51.64" class="st1">SpecSEI</text></g><g id="shape57-58" transform="translate(148.202,-12.1386)"><title content="structured text">Sheet.57</title><desc content="structured text">HD</desc><rect x="0" y="35.0657" width="45.3543" height="28.3465" class="st5"/><text x="16.9" y="51.64" class="st1">HD</text></g><g id="shape58-61" transform="translate(193.556,-12.1386)"><title content="structured text">Sheet.58</title><desc content="structured text">CNP</desc><rect x="0" y="35.0657" width="45.3543" height="28.3465" class="st5"/><text x="14.23" y="51.64" class="st1">CNP</text></g><g id="shape59-64" transform="translate(102.847,-12.1386)"><title content="structured text">Sheet.59</title><desc content="structured text">LSM</desc><rect x="0" y="35.0657" width="45.3543" height="28.3465" class="st5"/><text x="14.45" y="51.64" class="st1">LSM</text></g><g id="shape60-67" transform="translate(193.556,-12.1386)"><title content="structured text">Sheet.60</title><path d="M0 35.07 L0 63.41" class="st3"/></g><g id="shape61-70" transform="translate(238.91,-12.1386)"><title content="structured text">Sheet.61</title><path d="M0 35.07 L0 63.41" class="st3"/></g><g id="shape62-73" transform="translate(148.202,-12.1386)"><title content="structured text">Sheet.62</title><path d="M0 35.07 L0 63.41" class="st3"/></g><g id="shape63-76" transform="translate(102.847,-12.1386)"><title content="structured text">Sheet.63</title><path d="M0 35.07 L0 63.41" class="st3"/></g><g id="shape64-79" transform="translate(238.91,-12.1386)"><title content="structured text">Sheet.64</title><desc content="structured text">XNX</desc><rect x="0" y="35.0657" width="45.3543" height="28.3465" class="st5"/><text x="14.45" y="51.64" class="st1">XNX</text></g><g id="shape65-82" transform="translate(238.91,-40.485)"><title content="structured text">Sheet.65</title><desc content="structured text">11</desc><text x="1.22" y="60.14" class="st1">11</text></g><g id="shape66-84" transform="translate(227.572,-40.485)"><title content="structured text">Sheet.66</title><desc content="structured text">12</desc><text x="1.22" y="60.14" class="st1">12</text></g><g id="shape67-86" transform="translate(193.556,-40.485)"><title content="structured text">Sheet.67</title><desc content="structured text">15</desc><text x="1.22" y="60.14" class="st1">15</text></g><g id="shape68-88" transform="translate(182.217,-40.485)"><title content="structured text">Sheet.68</title><desc content="structured text">16</desc><text x="1.22" y="60.14" class="st1">16</text></g><g id="shape69-90" transform="translate(148.202,-40.485)"><title content="structured text">Sheet.69</title><desc content="structured text">19</desc><text x="1.22" y="60.14" class="st1">19</text></g><g id="shape70-92" transform="translate(136.863,-40.485)"><title content="structured text">Sheet.70</title><desc content="structured text">20</desc><text x="1.22" y="60.14" class="st1">20</text></g><g id="shape71-94" transform="translate(102.847,-40.485)"><title content="structured text">Sheet.71</title><desc content="structured text">23</desc><text x="1.22" y="60.14" class="st1">23</text></g><g id="shape72-96" transform="translate(91.5087,-40.485)"><title content="structured text">Sheet.72</title><desc content="structured text">24</desc><text x="1.22" y="60.14" class="st1">24</text></g></g></svg>