<?xml version="1.0" encoding="UTF-8" standalone="no"?><!-- Fixed up by svgfix.xsl 1.4  --><!-- Generated by Microsoft Visio 11.0, SVG Export, v1.0 joh1447944434472_Source.svg Page-1 -->
<!DOCTYPE svg
  PUBLIC "-//W3C//DTD SVG 1.0//EN" "http://www.w3.org/TR/2001/REC-SVG-20010904/DTD/svg10.dtd">
<svg xmlns:xlink="http://www.w3.org/1999/xlink" xmlns="http://www.w3.org/2000/svg" xmlns:ev="http://www.w3.org/2001/xml-events" width="485.913" height="72.08" viewBox="0 0 364.435 54.06" xml:space="preserve" color-interpolation-filters="sRGB" class="st8" preserveAspectRatio="xMidYMid meet" zoomAndPan="magnify" version="1.0" contentScriptType="text/ecmascript" contentStyleType="text/css"><style type="text/css" xml:space="preserve"><![CDATA[
	
		.st1 {fill:none;stroke:none;stroke-linecap:round;stroke-linejoin:round;stroke-width:0.2px}
		.st2 {fill:#000000;font-family:Arial,Helvetica,sans-serif;font-size:0.666664em}
		.st3 {fill:#1f1a17;font-family:Arial,Helvetica,sans-serif;font-size:0.666664em}
		.st4 {fill:#ffffff;visibility:hidden}
		.st5 {stroke:#000000;stroke-linecap:butt;stroke-width:0.8px}
		.st6 {stroke:#000000;stroke-dasharray:0.25,1;stroke-linecap:butt;stroke-width:0.25px}
		.st7 {stroke:#000000;stroke-linecap:butt;stroke-width:0.5px}
		.st8 {fill:none;fill-rule:evenodd;font-size:12px;overflow:visible;stroke-linecap:square;stroke-miterlimit:3}]]></style><g xmlns:v="http://schemas.microsoft.com/visio/2003/SVGExtensions/"><title content="structured text">Page-1</title><g id="group17-1" transform="translate(0.8,-5.66929)"><title content="structured text">Sheet.17</title><g id="shape1-2" transform="translate(1.43885E-013,-8.50394)"><title content="structured text">Sheet.1</title><desc content="structured text">EC</desc><rect x="0" y="25.7138" width="68.0315" height="28.3465" class="st1"/><text x="28.46" y="42.29" class="st2">EC</text></g><g id="shape2-5" transform="translate(0.0377495,-36.8024)"><title content="structured text">Sheet.2</title><desc content="structured text">31</desc><text x="1.2" y="50.79" class="st3">31</text></g><g id="shape3-7" transform="translate(351.496,-36.8024)"><title content="structured text">Sheet.3</title><desc content="structured text">0</desc><text x="3.44" y="50.79" class="st3">0</text></g><g id="shape4-9" transform="translate(0,-8.4559)"><title content="structured text">Sheet.4</title><rect x="0" y="25.7138" width="362.835" height="28.3465" class="st4"/><rect x="0" y="25.7138" width="362.835" height="28.3465" class="st5"/></g><g id="shape6-12" transform="translate(54.0602,5.91929) rotate(90)"><title content="structured text">Time division.56</title><path d="M0 54.06 L11.34 54.06" class="st6"/></g><g id="shape7-15" transform="translate(99.4146,5.91929) rotate(90)"><title content="structured text">Time division.26</title><path d="M0 54.06 L11.34 54.06" class="st6"/></g><g id="shape8-18" transform="translate(144.769,5.91929) rotate(90)"><title content="structured text">Time division.27</title><path d="M0 54.06 L11.34 54.06" class="st6"/></g><g id="shape9-21" transform="translate(190.123,5.91929) rotate(90)"><title content="structured text">Time division.31</title><path d="M0 54.06 L11.34 54.06" class="st6"/></g><g id="shape10-24" transform="translate(235.478,5.91929) rotate(90)"><title content="structured text">Time division.50</title><path d="M0 54.06 L11.34 54.06" class="st6"/></g><g id="shape11-27" transform="translate(280.832,5.91929) rotate(90)"><title content="structured text">Time division.51</title><path d="M0 54.06 L11.34 54.06" class="st6"/></g><g id="shape12-30" transform="translate(326.186,5.91929) rotate(90)"><title content="structured text">Sheet.12</title><path d="M0 54.06 L11.34 54.06" class="st6"/></g><g id="shape13-33" transform="translate(371.541,5.91929) rotate(90)"><title content="structured text">Sheet.13</title><path d="M0 54.06 L11.34 54.06" class="st6"/></g><g id="shape14-36" transform="translate(416.895,5.91929) rotate(90)"><title content="structured text">Sheet.14</title><path d="M0 54.06 L11.34 54.06" class="st6"/></g><g id="shape15-39" transform="translate(79.3701,-8.50394)"><title content="structured text">Sheet.15</title><desc content="structured text">ISS</desc><rect x="0" y="25.7138" width="283.465" height="28.3465" class="st1"/><text x="135.29" y="42.29" class="st2">ISS</text></g><g id="shape16-42" transform="translate(79.3701,-36.8504)"><title content="structured text">Sheet.16</title><desc content="structured text">24</desc><text x="1.22" y="50.79" class="st3">24</text></g><g id="shape18-44" transform="translate(56.6929,-36.8504)"><title content="structured text">Sheet.18</title><desc content="structured text">26</desc><text x="1.2" y="50.79" class="st3">26</text></g><g id="shape19-46" transform="translate(68.0315,-8.50394)"><title content="structured text">Sheet.19</title><path d="M0 25.71 L0 54.06" class="st5"/></g><g id="shape20-49" transform="translate(68.0692,-36.8504)"><title content="structured text">Sheet.20</title><desc content="structured text">25</desc><text x="1.2" y="50.79" class="st3">25</text></g><g id="shape21-51" transform="translate(79.3701,-8.50394)"><title content="structured text">Sheet.21</title><path d="M0 25.71 L0 54.06" class="st5"/></g><g id="shape5-54" transform="translate(85.0394,7.10543E-015) scale(-1,1)"><title content="structured text">Bit name 2</title><desc content="structured text">IL</desc><path d="M11.34 48.39 L11.34 54.06 L0 54.06" class="st7"/><text x="1" y="56.46" transform="scale(-1,1)" class="st2">IL</text></g></g></g></svg>