<?xml version="1.0" encoding="UTF-8" standalone="no"?><!-- Fixed up by svgfix.xsl 1.4  --><!-- Generated by Microsoft Visio 11.0, SVG Export, v1.0 trcstallctlr_bit_assignments.svg ARM -->
<!DOCTYPE svg
  PUBLIC "-//W3C//DTD SVG 1.0//EN" "http://www.w3.org/TR/2001/REC-SVG-20010904/DTD/svg10.dtd">
<svg xmlns:xlink="http://www.w3.org/1999/xlink" xmlns="http://www.w3.org/2000/svg" xmlns:ev="http://www.w3.org/2001/xml-events" width="516.172" height="114.16" viewBox="0 0 387.129 85.62" xml:space="preserve" color-interpolation-filters="sRGB" class="st13" preserveAspectRatio="xMidYMid meet" zoomAndPan="magnify" version="1.0" contentScriptType="text/ecmascript" contentStyleType="text/css"><style type="text/css" xml:space="preserve"><![CDATA[
	
		.st1 {fill:#eed9b3;stroke:#000000;stroke-linecap:butt;stroke-width:0.5px}
		.st2 {fill:#eed9b3;stroke:none;stroke-linecap:round;stroke-linejoin:round;stroke-width:0.2px}
		.st3 {fill:#000000;font-family:Arial,Helvetica,sans-serif;font-size:0.666664em}
		.st4 {fill:none;visibility:hidden}
		.st5 {stroke:#000000;stroke-linecap:butt;stroke-width:0.8px}
		.st6 {stroke:#000000;stroke-dasharray:0.25,1;stroke-linecap:butt;stroke-width:0.25px}
		.st7 {stroke:#000000;stroke-linecap:butt;stroke-width:0.5px}
		.st8 {fill:none;stroke:none;stroke-linecap:butt;stroke-width:0.5px}
		.st9 {fill:none;stroke:none;stroke-linecap:butt;stroke-width:0.499999px}
		.st10 {fill:#000000;font-family:Arial,Helvetica,sans-serif;font-size:0.533318em}
		.st11 {font-size:1.25003em}
		.st12 {fill:#eed9b3;stroke:none;stroke-linecap:round;stroke-linejoin:round;stroke-width:0.2px}
		.st13 {fill:none;fill-rule:evenodd;font-size:12px;overflow:visible;stroke-linecap:square;stroke-miterlimit:3}]]></style><g xmlns:v="http://schemas.microsoft.com/visio/2003/SVGExtensions/"><title content="structured text">ARM</title><g id="shape32-1" transform="translate(352.346,-34.2992)"><title content="structured text">Sheet.32</title><rect x="0" y="57.2736" width="22.6772" height="28.3465" class="st1"/></g><g id="shape30-3" transform="translate(284.315,-34.2992)"><title content="structured text">Sheet.30</title><rect x="0" y="57.2736" width="45.3543" height="28.3465" class="st1"/></g><g id="shape26-5" transform="translate(12.1556,-34.3464)"><title content="structured text">Sheet.26</title><rect x="0" y="57.2736" width="260.787" height="28.3465" class="st2"/></g><g id="shape1-7" transform="translate(12.1556,-62.6929)"><title content="structured text">Sheet.1</title><desc content="structured text">31</desc><text x="1.22" y="82.35" class="st3">31</text></g><g id="shape2-9" transform="translate(363.652,-62.6929)"><title content="structured text">Sheet.2</title><desc content="structured text">0</desc><text x="3.44" y="82.35" class="st3">0</text></g><g id="shape4-11" transform="translate(12.1556,-34.3464)"><title content="structured text">Sheet.4</title><rect x="0" y="57.2736" width="362.835" height="28.3465" class="st4"/><rect x="0" y="57.2736" width="362.835" height="28.3465" class="st5"/></g><g id="shape5-14" transform="translate(415.256,11.5886) rotate(90)"><title content="structured text">Signal 0</title><path d="M0 85.62 L11.34 85.62" class="st6"/></g><g id="shape6-17" transform="translate(369.902,11.5886) rotate(90)"><title content="structured text">Signal 0.102</title><path d="M0 85.62 L11.34 85.62" class="st6"/></g><g id="shape7-20" transform="translate(324.547,11.5886) rotate(90)"><title content="structured text">Signal 0.103</title><path d="M0 85.62 L11.34 85.62" class="st6"/></g><g id="shape8-23" transform="translate(279.193,11.5886) rotate(90)"><title content="structured text">Signal 0.104</title><path d="M0 85.62 L11.34 85.62" class="st6"/></g><g id="shape9-26" transform="translate(233.839,11.5886) rotate(90)"><title content="structured text">Signal 0.105</title><path d="M0 85.62 L11.34 85.62" class="st6"/></g><g id="shape10-29" transform="translate(188.484,11.5886) rotate(90)"><title content="structured text">Signal 0.106</title><path d="M0 85.62 L11.34 85.62" class="st6"/></g><g id="shape11-32" transform="translate(143.13,11.5886) rotate(90)"><title content="structured text">Signal 0.107</title><path d="M0 85.62 L11.34 85.62" class="st6"/></g><g id="shape12-35" transform="translate(97.7756,11.5886) rotate(90)"><title content="structured text">Signal 0.108</title><path d="M0 85.62 L11.34 85.62" class="st6"/></g><g id="shape13-38" transform="translate(460.61,11.5886) rotate(90)"><title content="structured text">Signal 0.109</title><path d="M0 85.62 L11.34 85.62" class="st6"/></g><g id="shape14-41" transform="translate(329.636,-34.3464)"><title content="structured text">Sheet.14</title><path d="M0 57.27 L0 85.62" class="st5"/></g><g id="shape15-44" transform="translate(284.282,-62.6929)"><title content="structured text">Sheet.15</title><desc content="structured text">7</desc><text x="3.44" y="82.35" class="st3">7</text></g><g id="shape16-46" transform="translate(318.297,-62.6929)"><title content="structured text">Sheet.16</title><desc content="structured text">4</desc><text x="3.44" y="82.35" class="st3">4</text></g><g id="shape18-48" transform="translate(284.282,-34.3464)"><title content="structured text">Sheet.18</title><path d="M0 57.27 L0 85.62" class="st5"/></g><g id="shape19-51" transform="translate(329.636,-62.6929)"><title content="structured text">Sheet.19</title><desc content="structured text">3</desc><text x="3.44" y="82.35" class="st3">3</text></g><g id="shape21-53" transform="translate(272.943,-62.6929)"><title content="structured text">Sheet.21</title><desc content="structured text">8</desc><text x="3.44" y="82.35" class="st3">8</text></g><g id="shape22-55" transform="translate(261.604,-62.6929)"><title content="structured text">Sheet.22</title><desc content="structured text">9</desc><text x="3.44" y="82.35" class="st3">9</text></g><g id="shape23-57" transform="translate(272.943,-34.3464)"><title content="structured text">Sheet.23</title><path d="M0 57.27 L0 85.62" class="st5"/></g><g id="shape25-60" transform="translate(12.1556,-34.3464)"><title content="structured text">Sheet.25</title><rect x="0" y="57.2736" width="362.835" height="28.3465" class="st4"/><rect x="0" y="57.2736" width="362.835" height="28.3465" class="st5"/></g><g id="shape27-63" transform="translate(12.1556,-34.3464)"><title content="structured text">Sheet.27</title><rect x="0" y="57.2736" width="362.835" height="28.3465" class="st4"/><rect x="0" y="57.2736" width="362.835" height="28.3465" class="st5"/></g><g id="shape29-66" transform="translate(12.1556,-34.3464)"><title content="structured text">Sheet.29</title><rect x="0" y="57.2736" width="362.835" height="28.3465" class="st4"/><rect x="0" y="57.2736" width="362.835" height="28.3465" class="st5"/></g><g id="shape31-69" transform="translate(352.313,-34.3464)"><title content="structured text">Sheet.31</title><path d="M0 57.27 L0 85.62" class="st5"/></g><g id="shape33-72" transform="translate(340.974,-62.6929)"><title content="structured text">Sheet.33</title><desc content="structured text">2</desc><text x="3.44" y="82.35" class="st3">2</text></g><g id="shape34-74" transform="translate(352.313,-62.6929)"><title content="structured text">Sheet.34</title><desc content="structured text">1</desc><text x="3.44" y="82.35" class="st3">1</text></g><g id="shape17-76" transform="translate(192.992,54.1083) rotate(-90) scale(-1,1)"><title content="structured text">Bit name 1.17</title><path d="M8.5 74.28 L8.5 85.62 L0 85.62" class="st7"/></g><g id="shape24-79" transform="translate(255.354,54.1083) rotate(-90) scale(-1,1)"><title content="structured text">Bit name 1.24</title><path d="M8.5 74.28 L8.5 85.62 L0 85.62" class="st7"/></g><g id="shape28-82" transform="translate(236.093,-18.0079)"><title content="structured text">Sheet.28</title><desc content="structured text">ISTALL</desc><rect x="0" y="75.6201" width="29.1575" height="10" class="st8"/><text x="1.24" y="83.02" class="st3">ISTALL</text></g><g id="shape20-85" transform="translate(298.455,-18.0079)"><title content="structured text">Sheet.20</title><desc content="structured text">LEVEL</desc><rect x="0" y="75.6201" width="29.1575" height="10" class="st8"/><text x="2.13" y="83.02" class="st3">LEVEL</text></g><g id="shape35-88" transform="translate(21.7955,-11.8386)"><title content="structured text">Rectangle No Fill No Fill.116</title><desc content="structured text">res0</desc><rect x="0" y="74.2815" width="19.8425" height="11.3386" class="st9"/><text x="1.24" y="82.35" class="st10">RES<tspan class="st11">0</tspan></text></g><g id="shape36-92" transform="translate(11.3556,-11.8386)"><title content="structured text">Graphic.117</title><rect x="0" y="74.2815" width="10.44" height="11.3386" class="st12"/></g></g></svg>