<?xml version="1.0" encoding="UTF-8" standalone="no"?><!-- Fixed up by svgfix.xsl 1.4  --><!-- Generated by Microsoft Visio 11.0, SVG Export, v1.0 MDCR_bit_assignments_LowRes.svg ARM -->
<!DOCTYPE svg
  PUBLIC "-//W3C//DTD SVG 1.0//EN" "http://www.w3.org/TR/2001/REC-SVG-20010904/DTD/svg10.dtd">
<svg xmlns:xlink="http://www.w3.org/1999/xlink" xmlns="http://www.w3.org/2000/svg" xmlns:ev="http://www.w3.org/2001/xml-events" width="516.149" height="148.402" viewBox="0 0 387.112 111.301" xml:space="preserve" color-interpolation-filters="sRGB" class="st11" preserveAspectRatio="xMidYMid meet" zoomAndPan="magnify" version="1.0" contentScriptType="text/ecmascript" contentStyleType="text/css"><style type="text/css" xml:space="preserve"><![CDATA[
	
		.st1 {fill:#eed9b3;stroke:none;stroke-linecap:round;stroke-linejoin:round;stroke-width:0.2px}
		.st2 {stroke:#000000;stroke-linecap:butt;stroke-width:0.8px}
		.st3 {stroke:#000000;stroke-dasharray:0.25,0.5;stroke-linecap:butt;stroke-width:0.25px}
		.st4 {fill:#000000;font-family:Arial,Helvetica,sans-serif;font-size:0.666664em}
		.st5 {stroke:#000000;stroke-linecap:butt;stroke-width:0.5px}
		.st6 {fill:none;stroke:none;stroke-linecap:butt;stroke-width:0.5px}
		.st7 {fill:none;stroke:none;stroke-linecap:butt;stroke-width:0.499999px}
		.st8 {fill:#000000;font-family:Arial,Helvetica,sans-serif;font-size:0.533318em}
		.st9 {font-size:1.25003em}
		.st10 {fill:#eed9b3;stroke:none;stroke-linecap:round;stroke-linejoin:round;stroke-width:0.2px}
		.st11 {fill:none;fill-rule:evenodd;font-size:12px;overflow:visible;stroke-linecap:square;stroke-miterlimit:3}]]></style><g xmlns:v="http://schemas.microsoft.com/visio/2003/SVGExtensions/"><title content="structured text">ARM</title><g id="shape60-1" transform="translate(216.233,-60.0276)"><title content="structured text">64-bit register.60</title><rect x="0" y="82.9547" width="34.0157" height="28.3465" class="st1"/></g><g id="shape71-3" transform="translate(193.556,-60.0276)"><title content="structured text">64-bit register.71</title><rect x="0" y="82.9547" width="22.6772" height="28.3465" class="st1"/></g><g id="shape18-5" transform="translate(12.1386,-60.0276)"><title content="structured text">64-bit register.88</title><rect x="0" y="82.9547" width="113.386" height="28.3465" class="st1"/></g><g id="shape67-7" transform="translate(148.202,-60.0276)"><title content="structured text">64-bit register.67</title><rect x="0" y="82.9547" width="22.6772" height="28.3465" class="st1"/></g><g id="shape51-9" transform="translate(272.926,-60.0276)"><title content="structured text">64-bit register.51</title><rect x="0" y="82.9547" width="22.6772" height="28.3465" class="st1"/></g><g id="shape46-11" transform="translate(306.942,-60.0276)"><title content="structured text">64-bit register.4</title><rect x="0" y="82.9547" width="68.0315" height="28.3465" class="st1"/></g><g id="shape1-13" transform="translate(374.973,-60.0276) scale(-1,1)"><title content="structured text">64-bit register.156</title><path d="M0 82.95 L362.83 82.95 L362.83 111.3 L0 111.3" class="st2"/></g><g id="shape2-16" transform="translate(123.44,11.5886) rotate(90)"><title content="structured text">64-bit register.169</title><path d="M0 111.3 L11.34 111.3" class="st3"/></g><g id="shape3-19" transform="translate(374.973,-60.0276)"><title content="structured text">64-bit register.157</title><path d="M0 82.95 L0 111.3" class="st2"/></g><g id="shape4-22" transform="translate(250.249,-60.0276)"><title content="structured text">64-bit register.38</title><path d="M0 82.95 L0 111.3" class="st2"/></g><g id="shape5-25" transform="translate(261.587,-60.0276)"><title content="structured text">64-bit register.39</title><path d="M0 82.95 L0 111.3" class="st2"/></g><g id="shape6-28" transform="translate(272.926,-60.0276)"><title content="structured text">64-bit register.41</title><path d="M0 82.95 L0 111.3" class="st2"/></g><g id="shape7-31" transform="translate(295.603,-60.0276)"><title content="structured text">64-bit register.42</title><path d="M0 82.95 L0 111.3" class="st2"/></g><g id="shape8-34" transform="translate(306.942,-60.0276)"><title content="structured text">64-bit register.52</title><path d="M0 82.95 L0 111.3" class="st2"/></g><g id="shape9-37" transform="translate(168.794,11.5886) rotate(90)"><title content="structured text">64-bit register.11</title><path d="M0 111.3 L11.34 111.3" class="st3"/></g><g id="shape10-40" transform="translate(214.148,11.5886) rotate(90)"><title content="structured text">64-bit register.12</title><path d="M0 111.3 L11.34 111.3" class="st3"/></g><g id="shape11-43" transform="translate(259.503,11.5886) rotate(90)"><title content="structured text">64-bit register.13</title><path d="M0 111.3 L11.34 111.3" class="st3"/></g><g id="shape12-46" transform="translate(304.857,11.5886) rotate(90)"><title content="structured text">64-bit register.14</title><path d="M0 111.3 L11.34 111.3" class="st3"/></g><g id="shape13-49" transform="translate(350.211,11.5886) rotate(90)"><title content="structured text">64-bit register.15</title><path d="M0 111.3 L11.34 111.3" class="st3"/></g><g id="shape14-52" transform="translate(440.92,11.5886) rotate(90)"><title content="structured text">64-bit register.16</title><path d="M0 111.3 L11.34 111.3" class="st3"/></g><g id="shape15-55" transform="translate(486.274,11.5886) rotate(90)"><title content="structured text">64-bit register.17</title><path d="M0 111.3 L11.34 111.3" class="st3"/></g><g id="shape16-58" transform="translate(12.1386,-88.374)"><title content="structured text">64-bit register.179</title><desc content="structured text">31</desc><text x="1.22" y="108.03" class="st4">31</text></g><g id="shape17-60" transform="translate(363.635,-88.374)"><title content="structured text">64-bit register.19</title><desc content="structured text">0</desc><text x="3.44" y="108.03" class="st4">0</text></g><g id="shape19-62" transform="translate(395.566,11.5886) rotate(90)"><title content="structured text">64-bit register.21</title><path d="M0 111.3 L11.34 111.3" class="st3"/></g><g id="shape20-65" transform="translate(301.272,-51.5236)"><title content="structured text">Sheet.20</title><path d="M0 105.63 L0 111.3 L5.67 111.3" class="st5"/></g><g id="shape21-68" transform="translate(309.776,-45.8543)"><title content="structured text">Sheet.21</title><desc content="structured text">TPM</desc><rect x="0" y="99.9626" width="22.6772" height="11.3386" class="st6"/><text x="0" y="108.03" class="st4">TPM</text></g><g id="shape22-71" transform="translate(136.863,-88.374)"><title content="structured text">64-bit register.26</title><desc content="structured text">20</desc><text x="1.22" y="108.03" class="st4">20</text></g><g id="shape23-73" transform="translate(148.202,-88.374)"><title content="structured text">64-bit register.27</title><desc content="structured text">19</desc><text x="1.22" y="108.03" class="st4">19</text></g><g id="shape24-75" transform="translate(125.524,-88.374)"><title content="structured text">64-bit register.28</title><desc content="structured text">21</desc><text x="1.22" y="108.03" class="st4">21</text></g><g id="shape25-77" transform="translate(114.186,-88.374)"><title content="structured text">64-bit register.29</title><desc content="structured text">22</desc><text x="1.22" y="108.03" class="st4">22</text></g><g id="shape26-79" transform="translate(182.217,-88.374)"><title content="structured text">64-bit register.30</title><desc content="structured text">16</desc><text x="1.22" y="108.03" class="st4">16</text></g><g id="shape27-81" transform="translate(193.556,-88.374)"><title content="structured text">64-bit register.31</title><desc content="structured text">15</desc><text x="1.22" y="108.03" class="st4">15</text></g><g id="shape28-83" transform="translate(170.879,-88.374)"><title content="structured text">64-bit register.32</title><desc content="structured text">17</desc><text x="1.22" y="108.03" class="st4">17</text></g><g id="shape29-85" transform="translate(159.54,-88.374)"><title content="structured text">64-bit register.33</title><desc content="structured text">18</desc><text x="1.22" y="108.03" class="st4">18</text></g><g id="shape30-87" transform="translate(204.894,-88.374)"><title content="structured text">64-bit register.34</title><desc content="structured text">14</desc><text x="1.22" y="108.03" class="st4">14</text></g><g id="shape31-89" transform="translate(216.233,-88.374)"><title content="structured text">64-bit register.35</title><desc content="structured text">13</desc><text x="1.22" y="108.03" class="st4">13</text></g><g id="shape32-91" transform="translate(238.91,-88.374)"><title content="structured text">64-bit register.36</title><desc content="structured text">11</desc><text x="1.22" y="108.03" class="st4">11</text></g><g id="shape33-93" transform="translate(250.249,-88.374)"><title content="structured text">64-bit register.37</title><desc content="structured text">10</desc><text x="1.22" y="108.03" class="st4">10</text></g><g id="shape34-95" transform="translate(261.587,-88.374)"><title content="structured text">Sheet.34</title><desc content="structured text">9</desc><text x="3.44" y="108.03" class="st4">9</text></g><g id="shape35-97" transform="translate(295.603,-88.374)"><title content="structured text">Sheet.35</title><desc content="structured text">6</desc><text x="3.44" y="108.03" class="st4">6</text></g><g id="shape36-99" transform="translate(284.265,-88.374)"><title content="structured text">64-bit register.40</title><desc content="structured text">7</desc><text x="3.44" y="108.03" class="st4">7</text></g><g id="shape37-101" transform="translate(272.926,-88.374)"><title content="structured text">Sheet.37</title><desc content="structured text">8</desc><text x="3.44" y="108.03" class="st4">8</text></g><g id="shape38-103" transform="translate(304.107,-88.374)"><title content="structured text">Sheet.38</title><desc content="structured text">5</desc><text x="3.44" y="108.03" class="st4">5</text></g><g id="shape39-105" transform="translate(193.556,-60.0276)"><title content="structured text">64-bit register.43</title><path d="M0 82.95 L0 111.3" class="st2"/></g><g id="shape40-108" transform="translate(216.233,-60.0276)"><title content="structured text">64-bit register.44</title><path d="M0 82.95 L0 111.3" class="st2"/></g><g id="shape41-111" transform="translate(182.217,-60.0276)"><title content="structured text">64-bit register.45</title><path d="M0 82.95 L0 111.3" class="st2"/></g><g id="shape42-114" transform="translate(170.879,-60.0276)"><title content="structured text">64-bit register.46</title><path d="M0 82.95 L0 111.3" class="st2"/></g><g id="shape43-117" transform="translate(148.202,-60.0276)"><title content="structured text">64-bit register.47</title><path d="M0 82.95 L0 111.3" class="st2"/></g><g id="shape44-120" transform="translate(136.863,-60.0276)"><title content="structured text">64-bit register.48</title><path d="M0 82.95 L0 111.3" class="st2"/></g><g id="shape45-123" transform="translate(125.524,-60.0276)"><title content="structured text">64-bit register.49</title><path d="M0 82.95 L0 111.3" class="st2"/></g><g id="shape49-126" transform="translate(267.257,-51.5236)"><title content="structured text">Sheet.49</title><path d="M0 105.63 L0 111.3 L5.67 111.3" class="st5"/></g><g id="shape50-129" transform="translate(255.918,-40.185)"><title content="structured text">Sheet.50</title><path d="M0 94.29 L0 111.3 L17.01 111.3" class="st5"/></g><g id="shape52-132" transform="translate(204.894,-40.185)"><title content="structured text">Sheet.52</title><path d="M0 94.29 L0 111.3 L5.67 111.3" class="st5"/></g><g id="shape53-135" transform="translate(187.887,-28.8465)"><title content="structured text">Sheet.53</title><path d="M0 82.95 L0 111.3 L22.68 111.3" class="st5"/></g><g id="shape54-138" transform="translate(275.761,-45.8543)"><title content="structured text">Sheet.54</title><desc content="structured text">TDA</desc><rect x="0" y="99.9626" width="22.6772" height="11.3386" class="st6"/><text x="0" y="108.03" class="st4">TDA</text></g><g id="shape55-141" transform="translate(275.761,-34.5157)"><title content="structured text">Sheet.55</title><desc content="structured text">TDOSA</desc><rect x="0" y="99.9626" width="32.5984" height="11.3386" class="st6"/><text x="0" y="108.03" class="st4">TDOSA</text></g><g id="shape57-144" transform="translate(213.398,-34.5157)"><title content="structured text">Sheet.57</title><desc content="structured text">SPD32</desc><rect x="0" y="99.9626" width="28.3465" height="11.3386" class="st6"/><text x="0" y="108.03" class="st4">SPD32</text></g><g id="shape58-147" transform="translate(213.398,-23.1772)"><title content="structured text">Sheet.58</title><desc content="structured text">SDD</desc><rect x="0" y="99.9626" width="19.8425" height="11.3386" class="st6"/><text x="0" y="108.03" class="st4">SDD</text></g><g id="shape59-150" transform="translate(176.548,-17.5079)"><title content="structured text">Sheet.59</title><path d="M0 71.62 L0 111.3 L34.02 111.3" class="st5"/></g><g id="shape61-153" transform="translate(142.532,-40.185) scale(-1,1)"><title content="structured text">Sheet.61</title><path d="M0 94.29 L0 111.3 L17.01 111.3" class="st5"/></g><g id="shape62-156" transform="translate(131.194,-51.5236) scale(-1,1)"><title content="structured text">Sheet.62</title><path d="M0 105.63 L0 111.3 L5.67 111.3" class="st5"/></g><g id="shape63-159" transform="translate(213.398,-11.8386)"><title content="structured text">Sheet.63</title><desc content="structured text">SPME</desc><rect x="0" y="99.9626" width="28.3465" height="11.3386" class="st6"/><text x="0" y="108.03" class="st4">SPME</text></g><g id="shape65-162" transform="translate(125.524,-34.5157) scale(-1,1)"><title content="structured text">Sheet.65</title><desc content="structured text">EDAD</desc><rect x="0" y="99.9626" width="25.5118" height="11.3386" class="st6"/><text x="-24.23" y="108.03" transform="scale(-1,1)" class="st4">EDAD</text></g><g id="shape66-165" transform="translate(125.524,-45.8543) scale(-1,1)"><title content="structured text">Sheet.66</title><desc content="structured text">EPMAD</desc><rect x="0" y="99.9626" width="31.1811" height="11.3386" class="st6"/><text x="-30.45" y="108.03" transform="scale(-1,1)" class="st4">EPMAD</text></g><g id="group68-168" transform="translate(12.1386,-11.8386)"><title content="structured text">Sheet.68</title><g id="shape69-169" transform="translate(11.3386,0)"><title content="structured text">Rectangle No Fill No Fill.116</title><desc content="structured text">res0</desc><rect x="0" y="99.9626" width="22.6772" height="11.3386" class="st7"/><text x="3.07" y="108.03" class="st8">RES<tspan class="st9">0</tspan></text></g><g id="shape70-173"><title content="structured text">Graphic.117</title><rect x="0" y="99.9626" width="11.3386" height="11.3386" class="st10"/></g></g></g></svg>