<?xml version="1.0" encoding="UTF-8" standalone="no"?><!-- Fixed up by svgfix.xsl 1.4  --><!-- Generated by Microsoft Visio 11.0, SVG Export, v1.0 id_pfr1_el1_bit_assignments_prometheus.svg ARM -->
<!DOCTYPE svg
  PUBLIC "-//W3C//DTD SVG 1.0//EN" "http://www.w3.org/TR/2001/REC-SVG-20010904/DTD/svg10.dtd">
<svg xmlns:xlink="http://www.w3.org/1999/xlink" xmlns="http://www.w3.org/2000/svg" xmlns:ev="http://www.w3.org/2001/xml-events" width="516.149" height="102.403" viewBox="0 0 387.112 76.802" xml:space="preserve" color-interpolation-filters="sRGB" class="st7" preserveAspectRatio="xMidYMid meet" zoomAndPan="magnify" version="1.0" contentScriptType="text/ecmascript" contentStyleType="text/css"><style type="text/css" xml:space="preserve"><![CDATA[
	
		.st1 {fill:#000000;font-family:Arial,Helvetica,sans-serif;font-size:0.666664em}
		.st2 {fill:none;stroke:none;stroke-linecap:round;stroke-linejoin:round;stroke-width:0.2px}
		.st3 {fill:none;visibility:hidden}
		.st4 {stroke:#000000;stroke-linecap:butt;stroke-width:0.8px}
		.st5 {stroke:#000000;stroke-dasharray:0.25,0.5;stroke-linecap:butt;stroke-width:0.25px}
		.st6 {stroke:#000000;stroke-linecap:butt;stroke-width:0.5px}
		.st7 {fill:none;fill-rule:evenodd;font-size:12px;overflow:visible;stroke-linecap:square;stroke-miterlimit:3}]]></style><g xmlns:v="http://schemas.microsoft.com/visio/2003/SVGExtensions/"><title content="structured text">ARM</title><g id="shape2-1" transform="translate(12.1386,-53.8752)"><title content="structured text">Sheet.2</title><desc content="structured text">31</desc><text x="1.22" y="73.53" class="st1">31</text></g><g id="shape3-3" transform="translate(227.572,-53.8752)"><title content="structured text">Sheet.3</title><desc content="structured text">12</desc><text x="1.22" y="73.53" class="st1">12</text></g><g id="shape4-5" transform="translate(238.91,-53.8752)"><title content="structured text">Sheet.4</title><desc content="structured text">11</desc><text x="1.22" y="73.53" class="st1">11</text></g><g id="shape5-7" transform="translate(272.926,-53.8752)"><title content="structured text">Sheet.5</title><desc content="structured text">8</desc><text x="3.44" y="73.53" class="st1">8</text></g><g id="shape6-9" transform="translate(284.265,-53.8752)"><title content="structured text">Sheet.6</title><desc content="structured text">7</desc><text x="3.44" y="73.53" class="st1">7</text></g><g id="shape7-11" transform="translate(363.635,-53.8752)"><title content="structured text">Sheet.7</title><desc content="structured text">0</desc><text x="3.44" y="73.53" class="st1">0</text></g><g id="shape8-13" transform="translate(12.1386,-25.5288)"><title content="structured text">Sheet.8</title><desc content="structured text">GIC CPU</desc><rect x="0" y="48.4559" width="45.3543" height="28.3465" class="st2"/><text x="6.01" y="65.03" class="st1">GIC CPU</text></g><g id="shape9-16" transform="translate(12.1386,-25.5288)"><title content="structured text">Sheet.9</title><rect x="0" y="48.4559" width="362.835" height="28.3465" class="st3"/><rect x="0" y="48.4559" width="362.835" height="28.3465" class="st4"/></g><g id="shape10-19" transform="translate(238.91,-25.5288)"><title content="structured text">Sheet.10</title><path d="M0 48.46 L0 76.8" class="st4"/></g><g id="shape11-22" transform="translate(284.265,-25.5288)"><title content="structured text">Sheet.11</title><path d="M0 48.46 L0 76.8" class="st4"/></g><g id="shape12-25" transform="translate(406.421,11.5886) rotate(90)"><title content="structured text">Signal 0</title><path d="M0 76.8 L11.34 76.8" class="st5"/></g><g id="shape13-28" transform="translate(361.067,11.5886) rotate(90)"><title content="structured text">Signal 0.102</title><path d="M0 76.8 L11.34 76.8" class="st5"/></g><g id="shape14-31" transform="translate(315.713,11.5886) rotate(90)"><title content="structured text">Signal 0.103</title><path d="M0 76.8 L11.34 76.8" class="st5"/></g><g id="shape15-34" transform="translate(270.358,11.5886) rotate(90)"><title content="structured text">Signal 0.104</title><path d="M0 76.8 L11.34 76.8" class="st5"/></g><g id="shape16-37" transform="translate(225.004,11.5886) rotate(90)"><title content="structured text">Signal 0.105</title><path d="M0 76.8 L11.34 76.8" class="st5"/></g><g id="shape17-40" transform="translate(179.65,11.5886) rotate(90)"><title content="structured text">Signal 0.106</title><path d="M0 76.8 L11.34 76.8" class="st5"/></g><g id="shape18-43" transform="translate(134.295,11.5886) rotate(90)"><title content="structured text">Signal 0.107</title><path d="M0 76.8 L11.34 76.8" class="st5"/></g><g id="shape19-46" transform="translate(88.941,11.5886) rotate(90)"><title content="structured text">Signal 0.108</title><path d="M0 76.8 L11.34 76.8" class="st5"/></g><g id="shape20-49" transform="translate(451.776,11.5886) rotate(90)"><title content="structured text">Signal 0.109</title><path d="M0 76.8 L11.34 76.8" class="st5"/></g><g id="shape21-52" transform="translate(318.28,-53.8752)"><title content="structured text">32-bit register.215</title><desc content="structured text">4</desc><text x="3.44" y="73.53" class="st1">4</text></g><g id="shape22-54" transform="translate(329.619,-53.8752)"><title content="structured text">32-bit register.216</title><desc content="structured text">3</desc><text x="3.44" y="73.53" class="st1">3</text></g><g id="shape23-56" transform="translate(329.619,-25.5288)"><title content="structured text">Sheet.23</title><path d="M0 48.46 L0 76.8" class="st4"/></g><g id="shape24-59" transform="translate(182.217,-53.8752)"><title content="structured text">32-bit register.323</title><desc content="structured text">16</desc><text x="1.22" y="73.53" class="st1">16</text></g><g id="shape25-61" transform="translate(193.556,-25.5288)"><title content="structured text">Sheet.25</title><path d="M0 48.46 L0 76.8" class="st4"/></g><g id="shape26-64" transform="translate(193.556,-53.8752)"><title content="structured text">32-bit register.325</title><desc content="structured text">15</desc><text x="1.22" y="73.53" class="st1">15</text></g><g id="shape27-66" transform="translate(156.706,-11.3556)"><title content="structured text">Sheet.27</title><desc content="structured text">Virtualization</desc><rect x="0" y="65.4638" width="48.189" height="11.3386" class="st2"/><text x="2.39" y="73.53" class="st1">Virtualization</text></g><g id="shape28-69" transform="translate(204.894,-17.0248)"><title content="structured text">Sheet.28</title><path d="M11.34 71.13 L11.34 76.8 L0 76.8" class="st6"/></g><g id="shape29-72" transform="translate(136.863,-53.8752)"><title content="structured text">32-bit register.434</title><desc content="structured text">20</desc><text x="1.22" y="73.53" class="st1">20</text></g><g id="shape30-74" transform="translate(148.202,-53.8752)"><title content="structured text">32-bit register.435</title><desc content="structured text">19</desc><text x="1.22" y="73.53" class="st1">19</text></g><g id="shape31-76" transform="translate(57.4929,-25.5288)"><title content="structured text">Sheet.31</title><path d="M0 48.46 L0 76.8" class="st4"/></g><g id="shape32-79" transform="translate(57.4929,-53.8752)"><title content="structured text">32-bit register.45</title><desc content="structured text">27</desc><text x="1.22" y="73.53" class="st1">27</text></g><g id="shape33-81" transform="translate(46.1543,-53.8752)"><title content="structured text">32-bit register.46</title><desc content="structured text">28</desc><text x="1.22" y="73.53" class="st1">28</text></g><g id="shape34-83" transform="translate(148.202,-25.5288)"><title content="structured text">Sheet.34</title><path d="M0 48.46 L0 76.8" class="st4"/></g><g id="shape35-86" transform="translate(148.202,-25.5288)"><title content="structured text">Sheet.35</title><desc content="structured text">GenTimer</desc><rect x="0" y="48.4559" width="45.3543" height="28.3465" class="st2"/><text x="4.9" y="65.03" class="st1">GenTimer</text></g><g id="shape36-89" transform="translate(238.91,-25.5288)"><title content="structured text">Sheet.36</title><desc content="structured text">MProgMod</desc><rect x="0" y="48.4559" width="45.3543" height="28.3465" class="st2"/><text x="3.11" y="65.03" class="st1">MProgMod</text></g><g id="shape37-92" transform="translate(284.265,-25.5288)"><title content="structured text">Sheet.37</title><desc content="structured text">Security</desc><rect x="0" y="48.4559" width="45.3543" height="28.3465" class="st2"/><text x="8.23" y="65.03" class="st1">Security</text></g><g id="shape38-95" transform="translate(329.619,-25.5288)"><title content="structured text">Sheet.38</title><desc content="structured text">ProgMod</desc><rect x="0" y="48.4559" width="45.3543" height="28.3465" class="st2"/><text x="6.45" y="65.03" class="st1">ProgMod</text></g><g id="shape1-98" transform="translate(91.5087,-53.8752)"><title content="structured text">32-bit register.1</title><desc content="structured text">24</desc><text x="1.22" y="73.53" class="st1">24</text></g><g id="shape39-100" transform="translate(102.847,-53.8752)"><title content="structured text">32-bit register.39</title><desc content="structured text">23</desc><text x="1.22" y="73.53" class="st1">23</text></g><g id="shape40-102" transform="translate(102.847,-25.5288)"><title content="structured text">Sheet.40</title><path d="M0 48.46 L0 76.8" class="st4"/></g><g id="shape41-105" transform="translate(57.4929,-25.5288)"><title content="structured text">Sheet.41</title><desc content="structured text">Virt_frac</desc><rect x="0" y="48.4559" width="45.3543" height="28.3465" class="st2"/><text x="7.78" y="65.03" class="st1">Virt_frac</text></g><g id="shape42-108" transform="translate(102.847,-25.5288)"><title content="structured text">Sheet.42</title><desc content="structured text">Sec_frac</desc><rect x="0" y="48.4559" width="45.3543" height="28.3465" class="st2"/><text x="6.89" y="65.03" class="st1">Sec_frac</text></g></g></svg>