<?xml version="1.0" encoding="UTF-8" standalone="no"?><!-- Fixed up by svgfix.xsl 1.4  --><!-- Generated by Microsoft Visio 11.0, SVG Export, v1.0 trcidr3_bit_assignments.svg ARM -->
<!DOCTYPE svg
  PUBLIC "-//W3C//DTD SVG 1.0//EN" "http://www.w3.org/TR/2001/REC-SVG-20010904/DTD/svg10.dtd">
<svg xmlns:xlink="http://www.w3.org/1999/xlink" xmlns="http://www.w3.org/2000/svg" xmlns:ev="http://www.w3.org/2001/xml-events" width="516.149" height="239.11" viewBox="0 0 387.112 179.333" xml:space="preserve" color-interpolation-filters="sRGB" class="st13" preserveAspectRatio="xMidYMid meet" zoomAndPan="magnify" version="1.0" contentScriptType="text/ecmascript" contentStyleType="text/css"><style type="text/css" xml:space="preserve"><![CDATA[
	
		.st1 {fill:#eed9b3;stroke:#000000;stroke-linecap:butt;stroke-width:0.5px}
		.st2 {stroke:#000000;stroke-linecap:butt;stroke-width:0.8px}
		.st3 {stroke:#000000;stroke-dasharray:0.25,0.5;stroke-linecap:butt;stroke-width:0.25px}
		.st4 {fill:#000000;font-family:Arial,Helvetica,sans-serif;font-size:0.666664em}
		.st5 {fill:none;stroke:none;stroke-linecap:round;stroke-linejoin:round;stroke-width:0.2px}
		.st6 {stroke:#000000;stroke-linecap:butt;stroke-width:0.5px}
		.st7 {fill:none;stroke:none;stroke-linecap:butt;stroke-width:0.5px}
		.st8 {font-size:1em}
		.st9 {fill:none;stroke:none;stroke-linecap:butt;stroke-width:0.499999px}
		.st10 {fill:#000000;font-family:Arial,Helvetica,sans-serif;font-size:0.533318em}
		.st11 {font-size:1.25003em}
		.st12 {fill:#eed9b3;stroke:none;stroke-linecap:round;stroke-linejoin:round;stroke-width:0.2px}
		.st13 {fill:none;fill-rule:evenodd;font-size:12px;overflow:visible;stroke-linecap:square;stroke-miterlimit:3}]]></style><g xmlns:v="http://schemas.microsoft.com/visio/2003/SVGExtensions/"><title content="structured text">ARM</title><g id="shape33-1" transform="translate(193.606,-128.126)"><title content="structured text">Sheet.33</title><rect x="0" y="150.986" width="45.3543" height="28.3465" class="st1"/></g><g id="shape1-3" transform="translate(374.973,-128.059) scale(-1,1)"><title content="structured text">64-bit register.156</title><path d="M0 150.99 L362.83 150.99 L362.83 179.33 L0 179.33" class="st2"/></g><g id="shape2-6" transform="translate(191.471,11.5886) rotate(90)"><title content="structured text">64-bit register.169</title><path d="M0 179.33 L11.34 179.33" class="st3"/></g><g id="shape3-9" transform="translate(374.973,-128.059)"><title content="structured text">64-bit register.157</title><path d="M0 150.99 L0 179.33" class="st2"/></g><g id="shape4-12" transform="translate(57.4929,-128.059)"><title content="structured text">64-bit register.7</title><path d="M0 150.99 L0 179.33" class="st2"/></g><g id="shape5-15" transform="translate(148.202,-128.059)"><title content="structured text">64-bit register.39</title><path d="M0 150.99 L0 179.33" class="st2"/></g><g id="shape6-18" transform="translate(238.91,-128.059)"><title content="structured text">64-bit register.41</title><path d="M0 150.99 L0 179.33" class="st2"/></g><g id="shape7-21" transform="translate(236.826,11.5886) rotate(90)"><title content="structured text">64-bit register.11</title><path d="M0 179.33 L11.34 179.33" class="st3"/></g><g id="shape8-24" transform="translate(282.18,11.5886) rotate(90)"><title content="structured text">64-bit register.12</title><path d="M0 179.33 L11.34 179.33" class="st3"/></g><g id="shape9-27" transform="translate(327.534,11.5886) rotate(90)"><title content="structured text">64-bit register.13</title><path d="M0 179.33 L11.34 179.33" class="st3"/></g><g id="shape10-30" transform="translate(372.889,11.5886) rotate(90)"><title content="structured text">64-bit register.14</title><path d="M0 179.33 L11.34 179.33" class="st3"/></g><g id="shape11-33" transform="translate(418.243,11.5886) rotate(90)"><title content="structured text">64-bit register.15</title><path d="M0 179.33 L11.34 179.33" class="st3"/></g><g id="shape12-36" transform="translate(508.952,11.5886) rotate(90)"><title content="structured text">64-bit register.16</title><path d="M0 179.33 L11.34 179.33" class="st3"/></g><g id="shape13-39" transform="translate(554.306,11.5886) rotate(90)"><title content="structured text">64-bit register.17</title><path d="M0 179.33 L11.34 179.33" class="st3"/></g><g id="shape14-42" transform="translate(12.1386,-156.406)"><title content="structured text">64-bit register.179</title><desc content="structured text">31</desc><text x="1.22" y="176.06" class="st4">31</text></g><g id="shape15-44" transform="translate(363.635,-156.406)"><title content="structured text">64-bit register.19</title><desc content="structured text">0</desc><text x="3.44" y="176.06" class="st4">0</text></g><g id="shape16-46" transform="translate(463.597,11.5886) rotate(90)"><title content="structured text">64-bit register.21</title><path d="M0 179.33 L11.34 179.33" class="st3"/></g><g id="shape17-49" transform="translate(80.1701,-156.406)"><title content="structured text">64-bit register.4</title><desc content="structured text">25</desc><text x="1.22" y="176.06" class="st4">25</text></g><g id="shape18-51" transform="translate(91.5087,-156.406)"><title content="structured text">64-bit register.6</title><desc content="structured text">24</desc><text x="1.22" y="176.06" class="st4">24</text></g><g id="shape19-53" transform="translate(182.217,-156.406)"><title content="structured text">64-bit register.26</title><desc content="structured text">16</desc><text x="1.22" y="176.06" class="st4">16</text></g><g id="shape20-55" transform="translate(193.556,-156.406)"><title content="structured text">64-bit register.27</title><desc content="structured text">15</desc><text x="1.22" y="176.06" class="st4">15</text></g><g id="shape21-57" transform="translate(238.91,-156.406)"><title content="structured text">64-bit register.28</title><desc content="structured text">11</desc><text x="1.22" y="176.06" class="st4">11</text></g><g id="shape22-59" transform="translate(227.572,-156.406)"><title content="structured text">64-bit register.29</title><desc content="structured text">12</desc><text x="1.22" y="176.06" class="st4">12</text></g><g id="shape23-61" transform="translate(306.942,-156.406)"><title content="structured text">64-bit register.32</title><desc content="structured text">5</desc><text x="3.44" y="176.06" class="st4">5</text></g><g id="shape24-63" transform="translate(318.28,-156.406)"><title content="structured text">64-bit register.33</title><desc content="structured text">4</desc><text x="3.44" y="176.06" class="st4">4</text></g><g id="shape25-65" transform="translate(238.91,-128.059)"><title content="structured text">64-bit register.36</title><desc content="structured text">CCITMIN</desc><rect x="0" y="150.986" width="136.063" height="28.3465" class="st5"/><text x="51.37" y="167.56" class="st4">CCITMIN</text></g><g id="shape26-68" transform="translate(170.879,-113.886)"><title content="structured text">Sheet.26</title><path d="M0 167.99 L0 179.33 L11.34 179.33" class="st6"/></g><g id="shape27-71" transform="translate(23.4772,-156.406)"><title content="structured text">64-bit register.22</title><desc content="structured text">30</desc><text x="1.22" y="176.06" class="st4">30</text></g><g id="shape28-73" transform="translate(46.1543,-156.406)"><title content="structured text">64-bit register.23</title><desc content="structured text">28</desc><text x="1.22" y="176.06" class="st4">28</text></g><g id="shape29-75" transform="translate(91.5087,-128.059)"><title content="structured text">64-bit register.24</title><path d="M0 150.99 L0 179.33" class="st2"/></g><g id="shape30-78" transform="translate(136.863,-156.406)"><title content="structured text">64-bit register.40</title><desc content="structured text">20</desc><text x="1.22" y="176.06" class="st4">20</text></g><g id="shape31-80" transform="translate(148.202,-156.406)"><title content="structured text">Sheet.31</title><desc content="structured text">19</desc><text x="1.22" y="176.06" class="st4">19</text></g><g id="shape32-82" transform="translate(193.556,-128.059)"><title content="structured text">Sheet.32</title><path d="M0 150.99 L0 179.33" class="st2"/></g><g id="shape34-85" transform="translate(102.847,-128.059)"><title content="structured text">64-bit register.48</title><path d="M0 150.99 L0 179.33" class="st2"/></g><g id="shape35-88" transform="translate(102.847,-156.406)"><title content="structured text">64-bit register.49</title><desc content="structured text">23</desc><text x="1.22" y="176.06" class="st4">23</text></g><g id="shape36-90" transform="translate(57.4929,-156.406)"><title content="structured text">64-bit register.54</title><desc content="structured text">27</desc><text x="1.22" y="176.06" class="st4">27</text></g><g id="shape37-92" transform="translate(68.8315,-156.406)"><title content="structured text">64-bit register.55</title><desc content="structured text">26</desc><text x="1.22" y="176.06" class="st4">26</text></g><g id="shape38-94" transform="translate(23.4772,-128.059)"><title content="structured text">64-bit register.56</title><path d="M0 150.99 L0 179.33" class="st2"/></g><g id="shape39-97" transform="translate(125.524,-102.547)"><title content="structured text">Sheet.39</title><path d="M0 156.66 L0 179.33 L56.69 179.33" class="st6"/></g><g id="shape40-100" transform="translate(97.178,-91.2086)"><title content="structured text">Sheet.40</title><path d="M0 145.32 L0 179.33 L85.04 179.33" class="st6"/></g><g id="shape41-103" transform="translate(85.8394,-79.8701)"><title content="structured text">Sheet.41</title><path d="M0 133.98 L0 179.33 L96.38 179.33" class="st6"/></g><g id="shape42-106" transform="translate(17.8079,-34.5157)"><title content="structured text">Sheet.42</title><path d="M0 88.62 L0 179.33 L164.41 179.33" class="st6"/></g><g id="shape43-109" transform="translate(40.485,-45.8543)"><title content="structured text">Sheet.43</title><path d="M0 99.96 L0 179.33 L141.73 179.33" class="st6"/></g><g id="shape44-112" transform="translate(185.052,-108.217)"><title content="structured text">Sheet.44</title><desc content="structured text">EXLEVEL_S</desc><rect x="0" y="167.994" width="48.189" height="11.3386" class="st7"/><text x="0" y="176.06" class="st4">EXLEVEL_S</text></g><g id="shape45-115" transform="translate(185.052,-96.8779)"><title content="structured text">Sheet.45</title><desc content="structured text">EXLEVEL_NS</desc><rect x="0" y="167.994" width="68.0315" height="11.3386" class="st7"/><text x="0" y="176.06" class="st4">EXLEVEL_NS</text></g><g id="shape46-118" transform="translate(185.052,-28.8464)"><title content="structured text">Sheet.46</title><desc content="structured text">NOOVERFLOW</desc><rect x="0" y="167.994" width="62.3622" height="11.3386" class="st7"/><text x="0" y="176.06" class="st4">NOOVERFLOW</text></g><g id="shape47-121" transform="translate(185.052,-40.185)"><title content="structured text">Sheet.47</title><desc content="structured text">NUMPROC</desc><rect x="0" y="167.994" width="48.189" height="11.3386" class="st7"/><text x="0" y="176.06" class="st4">NUMPROC</text></g><g id="shape48-124" transform="translate(185.052,-51.5236)"><title content="structured text">Sheet.48</title><desc content="structured text">SYSSTALL</desc><rect x="0" y="167.994" width="42.5197" height="11.3386" class="st7"/><text x="0" y="176.06" class="st4">SYS<tspan class="st8">S</tspan>TALL</text></g><g id="shape49-128" transform="translate(68.8315,-128.059)"><title content="structured text">64-bit register.75</title><path d="M0 150.99 L0 179.33" class="st2"/></g><g id="shape50-131" transform="translate(80.1701,-128.059)"><title content="structured text">64-bit register.76</title><path d="M0 150.99 L0 179.33" class="st2"/></g><g id="shape51-134" transform="translate(74.5008,-68.5315)"><title content="structured text">Sheet.51</title><path d="M0 122.64 L0 179.33 L107.72 179.33" class="st6"/></g><g id="shape52-137" transform="translate(63.1622,-57.1929)"><title content="structured text">Sheet.52</title><path d="M0 111.3 L0 179.33 L119.06 179.33" class="st6"/></g><g id="shape53-140" transform="translate(185.052,-62.8622)"><title content="structured text">Sheet.53</title><desc content="structured text">STALLCTL</desc><rect x="0" y="167.994" width="45.3543" height="11.3386" class="st7"/><text x="0" y="176.06" class="st4">STALLCTL</text></g><g id="shape54-143" transform="translate(185.052,-74.2008)"><title content="structured text">Sheet.54</title><desc content="structured text">SYNCPR</desc><rect x="0" y="167.994" width="39.685" height="11.3386" class="st7"/><text x="0" y="176.06" class="st4">SYNCPR</text></g><g id="shape55-146" transform="translate(185.052,-85.5394)"><title content="structured text">Sheet.55</title><desc content="structured text">TRCERR</desc><rect x="0" y="167.994" width="39.685" height="11.3386" class="st7"/><text x="0" y="176.06" class="st4">TRCERR</text></g><g id="shape56-149" transform="translate(22.5786,-11.8386)"><title content="structured text">Rectangle No Fill No Fill.116</title><desc content="structured text">res0</desc><rect x="0" y="167.994" width="19.8425" height="11.3386" class="st9"/><text x="1.24" y="176.06" class="st10">RES<tspan class="st11">0</tspan></text></g><g id="shape57-153" transform="translate(12.1386,-11.8386)"><title content="structured text">Graphic.117</title><rect x="0" y="167.994" width="10.44" height="11.3386" class="st12"/></g></g></svg>