<?xml version="1.0" encoding="UTF-8" standalone="no"?><!-- Fixed up by svgfix.xsl 1.4  --><!-- Generated by Microsoft Visio 11.0, SVG Export, v1.0 lau1464782471185_low res.svg ARM -->
<!DOCTYPE svg
  PUBLIC "-//W3C//DTD SVG 1.0//EN" "http://www.w3.org/TR/2001/REC-SVG-20010904/DTD/svg10.dtd">
<svg xmlns:xlink="http://www.w3.org/1999/xlink" xmlns="http://www.w3.org/2000/svg" xmlns:ev="http://www.w3.org/2001/xml-events" width="591.739" height="122.435" viewBox="0 0 443.805 91.826" xml:space="preserve" color-interpolation-filters="sRGB" class="st13" preserveAspectRatio="xMidYMid meet" zoomAndPan="magnify" version="1.0" contentScriptType="text/ecmascript" contentStyleType="text/css"><style type="text/css" xml:space="preserve"><![CDATA[
	
		.st1 {fill:#eed9b3;stroke:none;stroke-linecap:round;stroke-linejoin:round;stroke-width:0.2px}
		.st2 {fill:#ffffff;visibility:hidden}
		.st3 {stroke:#000000;stroke-linecap:butt;stroke-width:0.8px}
		.st4 {stroke:#000000;stroke-dasharray:0.25,1;stroke-linecap:butt;stroke-width:0.25px}
		.st5 {fill:#000000;font-family:Arial,Helvetica,sans-serif;font-size:0.666664em}
		.st6 {fill:#ffffff;stroke:none;stroke-linecap:butt;stroke-width:0.5px}
		.st7 {stroke:#000000;stroke-linecap:butt;stroke-width:0.5px}
		.st8 {fill:none;stroke:none;stroke-linecap:butt;stroke-width:0.499999px}
		.st9 {fill:#000000;font-family:Arial,Helvetica,sans-serif;font-size:0.533318em}
		.st10 {font-size:1.25003em}
		.st11 {fill:#eed9b3;stroke:none;stroke-linecap:round;stroke-linejoin:round;stroke-width:0.2px}
		.st12 {fill:none;stroke:none;stroke-linecap:butt;stroke-width:0.5px}
		.st13 {fill:none;fill-rule:evenodd;font-size:12px;overflow:visible;stroke-linecap:square;stroke-miterlimit:3}]]></style><g xmlns:v="http://schemas.microsoft.com/visio/2003/SVGExtensions/"><title content="structured text">ARM</title><g id="shape1-1" transform="translate(386.312,-40.0073)"><title content="structured text">Sheet.1</title><rect x="0" y="63.4796" width="34.0157" height="28.3465" class="st1"/></g><g id="shape2-3" transform="translate(12.1386,-39.9954)"><title content="structured text">Sheet.2</title><rect x="0" y="63.4796" width="419.528" height="28.3465" class="st2"/><rect x="0" y="63.4796" width="419.528" height="28.3465" class="st3"/></g><g id="shape3-6" transform="translate(523.492,12.3234) rotate(90)"><title content="structured text">Signal 0.109</title><path d="M0 91.83 L11.34 91.83" class="st4"/></g><g id="shape4-9" transform="translate(478.138,11.956) rotate(90)"><title content="structured text">Signal 0.80</title><path d="M0 91.83 L11.71 91.83" class="st4"/></g><g id="shape5-12" transform="translate(449.791,12.3115) rotate(90)"><title content="structured text">Signal 0.81</title><path d="M0 91.83 L11.34 91.83" class="st4"/></g><g id="shape6-15" transform="translate(404.437,11.956) rotate(90)"><title content="structured text">Signal 0.82</title><path d="M0 91.83 L11.71 91.83" class="st4"/></g><g id="shape7-18" transform="translate(381.76,11.956) rotate(90)"><title content="structured text">Signal 0.83</title><path d="M0 91.83 L11.71 91.83" class="st4"/></g><g id="shape8-21" transform="translate(313.728,12.3234) rotate(90)"><title content="structured text">Signal 0.84</title><path d="M0 91.83 L11.34 91.83" class="st4"/></g><g id="shape9-24" transform="translate(291.051,11.956) rotate(90)"><title content="structured text">Signal 0.85</title><path d="M0 91.83 L11.71 91.83" class="st4"/></g><g id="shape10-27" transform="translate(268.374,11.956) rotate(90)"><title content="structured text">Signal 0.86</title><path d="M0 91.83 L11.71 91.83" class="st4"/></g><g id="shape11-30" transform="translate(103.965,12.3234) rotate(90)"><title content="structured text">Signal 0.87</title><path d="M0 91.83 L11.34 91.83" class="st4"/></g><g id="shape12-33" transform="translate(12.1386,-68.1641)"><title content="structured text">Bit01.88</title><desc content="structured text">63</desc><text x="1.22" y="88.56" class="st5">63</text></g><g id="shape13-35" transform="translate(427.114,11.956) rotate(90)"><title content="structured text">Signal 0.91</title><path d="M0 91.83 L11.71 91.83" class="st4"/></g><g id="shape14-38" transform="translate(419.923,-68.1641)"><title content="structured text">Bit01.1</title><desc content="structured text">0</desc><text x="3.44" y="88.56" class="st5">0</text></g><g id="group15-40" transform="translate(254.501,-37.1726)"><title content="structured text">Sheet.15</title><g id="group16-41" transform="translate(0,-28.3465)"><title content="structured text">Sheet.16</title><g id="shape17-42" transform="translate(0.566929,4.26326E-014)"><title content="structured text">Sheet.17</title><rect x="0" y="86.1568" width="1.88976" height="5.66929" class="st6"/></g><g id="shape18-44" transform="translate(93.0056,101.185) rotate(99.4623)"><title content="structured text">Sheet.18</title><path d="M0 91.41 C0.15 91.62 0.72 91.79 1.15 91.82 C1.58 91.85 1.86 91.75 2.34 91.51 C2.63 91.37 2.98 91.18          3.29 91.06 C4.56 90.56 5.03 91.11 5.75 91.41" class="st7"/></g><g id="shape19-47" transform="translate(91.1158,101.185) rotate(99.4623)"><title content="structured text">Sheet.19</title><path d="M0 91.41 C0.15 91.62 0.72 91.79 1.15 91.82 C1.58 91.85 1.86 91.75 2.34 91.51 C2.63 91.37 2.98 91.18          3.29 91.06 C4.56 90.56 5.03 91.11 5.75 91.41" class="st7"/></g></g><g id="group20-50"><title content="structured text">Sheet.20</title><g id="shape21-51" transform="translate(0.566929,4.26326E-014)"><title content="structured text">Sheet.21</title><rect x="0" y="86.1568" width="1.88976" height="5.66929" class="st6"/></g><g id="shape22-53" transform="translate(93.0056,101.185) rotate(99.4623)"><title content="structured text">Sheet.22</title><path d="M0 91.41 C0.15 91.62 0.72 91.79 1.15 91.82 C1.58 91.85 1.86 91.75 2.34 91.51 C2.63 91.37 2.98 91.18          3.29 91.06 C4.56 90.56 5.03 91.11 5.75 91.41" class="st7"/></g><g id="shape23-56" transform="translate(91.1158,101.185) rotate(99.4623)"><title content="structured text">Sheet.23</title><path d="M0 91.41 C0.15 91.62 0.72 91.79 1.15 91.82 C1.58 91.85 1.86 91.75 2.34 91.51 C2.63 91.37 2.98 91.18          3.29 91.06 C4.56 90.56 5.03 91.11 5.75 91.41" class="st7"/></g></g></g><g id="group24-59" transform="translate(12.1386,-11.8386)"><title content="structured text">Sheet.24</title><g id="shape25-60" transform="translate(11.3386,0)"><title content="structured text">Rectangle No Fill No Fill.116</title><desc content="structured text">res0</desc><rect x="0" y="80.4875" width="22.6772" height="11.3386" class="st8"/><text x="3.07" y="88.56" class="st9">RES<tspan class="st10">0</tspan></text></g><g id="shape26-64"><title content="structured text">Graphic.117</title><rect x="0" y="80.4875" width="11.3386" height="11.3386" class="st11"/></g></g><g id="shape28-66" transform="translate(420.125,-40.3628)"><title content="structured text">Sheet.28</title><path d="M0 63.48 L0 91.83" class="st3"/></g><g id="shape27-69" transform="translate(408.787,-68.5315)"><title content="structured text">Bit01.27</title><desc content="structured text">1</desc><text x="3.44" y="88.56" class="st5">1</text></g><g id="shape157-71" transform="translate(386.312,-68.5315)"><title content="structured text">Bit01.157</title><desc content="structured text">3</desc><text x="3.44" y="88.56" class="st5">3</text></g><g id="shape158-73" transform="translate(386.312,-40.3628)"><title content="structured text">Sheet.158</title><path d="M0 63.48 L0 91.83" class="st3"/></g><g id="shape159-76" transform="translate(380.643,-26.0118)"><title content="structured text">Sheet.159</title><desc content="structured text">CnP</desc><rect x="0" y="80.4875" width="34.0157" height="11.3386" class="st12"/><text x="16.45" y="88.56" class="st5">CnP</text></g><g id="shape160-79" transform="translate(425.997,-31.8588) scale(-1,1)"><title content="structured text">Sheet.160</title><path d="M0 86.16 L0 91.83 L11.34 91.83" class="st7"/></g><g id="shape161-82" transform="translate(125.524,-40.3628)"><title content="structured text">Sheet.161</title><desc content="structured text">BADDR</desc><rect x="0" y="63.4796" width="260.787" height="28.3465" class="st12"/><text x="116.39" y="80.05" class="st5">BADDR</text></g><g id="shape162-85" transform="translate(374.973,-68.5315)"><title content="structured text">Bit01.162</title><desc content="structured text">4</desc><text x="3.44" y="88.56" class="st5">4</text></g><g id="shape163-87" transform="translate(132.311,11.956) rotate(90)"><title content="structured text">Signal 0.163</title><path d="M0 91.83 L11.53 91.83" class="st4"/></g><g id="shape164-90" transform="translate(336.406,11.956) rotate(90)"><title content="structured text">Signal 0.164</title><path d="M0 91.83 L11.71 91.83" class="st4"/></g><g id="shape165-93" transform="translate(359.083,11.956) rotate(90)"><title content="structured text">Signal 0.165</title><path d="M0 91.83 L11.71 91.83" class="st4"/></g><g id="shape166-96" transform="translate(125.524,-68.5315)"><title content="structured text">Bit01.166</title><desc content="structured text">47</desc><text x="1.22" y="88.56" class="st5">47</text></g><g id="shape167-98" transform="translate(245.697,11.956) rotate(90)"><title content="structured text">Signal 0.167</title><path d="M0 91.83 L11.71 91.83" class="st4"/></g><g id="shape168-101" transform="translate(217.35,11.956) rotate(90)"><title content="structured text">Signal 0.168</title><path d="M0 91.83 L11.71 91.83" class="st4"/></g><g id="shape169-104" transform="translate(189.004,11.956) rotate(90)"><title content="structured text">Signal 0.169</title><path d="M0 91.83 L11.71 91.83" class="st4"/></g><g id="shape170-107" transform="translate(160.658,11.5886) rotate(90)"><title content="structured text">Signal 0.170</title><path d="M0 91.83 L11.71 91.83" class="st4"/></g><g id="shape171-110" transform="translate(103.965,11.956) rotate(90)"><title content="structured text">Signal 0.171</title><path d="M0 91.83 L11.71 91.83" class="st4"/></g><g id="shape172-113" transform="translate(114.186,-68.5315)"><title content="structured text">Bit01.172</title><desc content="structured text">48</desc><text x="1.22" y="88.56" class="st5">48</text></g><g id="shape173-115" transform="translate(125.524,-40.3628)"><title content="structured text">Sheet.173</title><path d="M0 63.48 L0 91.83" class="st3"/></g><g id="group178-118" transform="translate(65.9969,-36.9949)"><title content="structured text">Sheet.178</title><g id="group179-119" transform="translate(0,-28.3465)"><title content="structured text">Sheet.179</title><g id="shape180-120" transform="translate(0.566929,4.26326E-014)"><title content="structured text">Sheet.180</title><rect x="0" y="86.1568" width="1.88976" height="5.66929" class="st6"/></g><g id="shape181-122" transform="translate(93.0056,101.185) rotate(99.4623)"><title content="structured text">Sheet.181</title><path d="M0 91.41 C0.15 91.62 0.72 91.79 1.15 91.82 C1.58 91.85 1.86 91.75 2.34 91.51 C2.63 91.37 2.98 91.18          3.29 91.06 C4.56 90.56 5.03 91.11 5.75 91.41" class="st7"/></g><g id="shape182-125" transform="translate(91.1158,101.185) rotate(99.4623)"><title content="structured text">Sheet.182</title><path d="M0 91.41 C0.15 91.62 0.72 91.79 1.15 91.82 C1.58 91.85 1.86 91.75 2.34 91.51 C2.63 91.37 2.98 91.18          3.29 91.06 C4.56 90.56 5.03 91.11 5.75 91.41" class="st7"/></g></g><g id="group183-128"><title content="structured text">Sheet.183</title><g id="shape184-129" transform="translate(0.566929,4.26326E-014)"><title content="structured text">Sheet.184</title><rect x="0" y="86.1568" width="1.88976" height="5.66929" class="st6"/></g><g id="shape185-131" transform="translate(93.0056,101.185) rotate(99.4623)"><title content="structured text">Sheet.185</title><path d="M0 91.41 C0.15 91.62 0.72 91.79 1.15 91.82 C1.58 91.85 1.86 91.75 2.34 91.51 C2.63 91.37 2.98 91.18          3.29 91.06 C4.56 90.56 5.03 91.11 5.75 91.41" class="st7"/></g><g id="shape186-134" transform="translate(91.1158,101.185) rotate(99.4623)"><title content="structured text">Sheet.186</title><path d="M0 91.41 C0.15 91.62 0.72 91.79 1.15 91.82 C1.58 91.85 1.86 91.75 2.34 91.51 C2.63 91.37 2.98 91.18          3.29 91.06 C4.56 90.56 5.03 91.11 5.75 91.41" class="st7"/></g></g></g><g id="shape196-137" transform="translate(12.1386,-40.185)"><title content="structured text">Sheet.196</title><desc content="structured text">VMID</desc><rect x="0" y="63.4796" width="113.386" height="28.3465" class="st12"/><text x="46.69" y="80.05" class="st5">VMID</text></g></g></svg>