<?xml version="1.0" encoding="UTF-8" standalone="no"?><!-- Fixed up by svgfix.xsl 1.4  --><!-- Generated by Microsoft Visio 11.0, SVG Export, v1.0 lau1457026251621_LowRes.svg ARM -->
<!DOCTYPE svg
  PUBLIC "-//W3C//DTD SVG 1.0//EN" "http://www.w3.org/TR/2001/REC-SVG-20010904/DTD/svg10.dtd">
<svg xmlns:xlink="http://www.w3.org/1999/xlink" xmlns="http://www.w3.org/2000/svg" xmlns:ev="http://www.w3.org/2001/xml-events" width="637.094" height="118.149" viewBox="0 0 477.82 88.612" xml:space="preserve" color-interpolation-filters="sRGB" class="st14" preserveAspectRatio="xMidYMid meet" zoomAndPan="magnify" version="1.0" contentScriptType="text/ecmascript" contentStyleType="text/css"><style type="text/css" xml:space="preserve"><![CDATA[
	
		.st1 {fill:#eed9b3;stroke:none;stroke-linecap:round;stroke-linejoin:round;stroke-width:0.2px}
		.st2 {fill:none;stroke:none;stroke-linecap:round;stroke-linejoin:round;stroke-width:0.2px}
		.st3 {fill:#000000;font-family:Arial,Helvetica,sans-serif;font-size:0.666664em}
		.st4 {font-size:1em}
		.st5 {stroke:#000000;stroke-linecap:butt;stroke-width:0.8px}
		.st6 {fill:#ffffff;visibility:hidden}
		.st7 {stroke:#000000;stroke-dasharray:0.25,1;stroke-linecap:butt;stroke-width:0.25px}
		.st8 {fill:#ffffff;stroke:none;stroke-linecap:butt;stroke-width:0.5px}
		.st9 {stroke:#000000;stroke-linecap:butt;stroke-width:0.5px}
		.st10 {fill:none;stroke:none;stroke-linecap:butt;stroke-width:0.499999px}
		.st11 {fill:#000000;font-family:Arial,Helvetica,sans-serif;font-size:0.533318em}
		.st12 {font-size:1.25003em}
		.st13 {fill:#eed9b3;stroke:none;stroke-linecap:round;stroke-linejoin:round;stroke-width:0.2px}
		.st14 {fill:none;fill-rule:evenodd;font-size:12px;overflow:visible;stroke-linecap:square;stroke-miterlimit:3}]]></style><g xmlns:v="http://schemas.microsoft.com/visio/2003/SVGExtensions/"><title content="structured text">ARM</title><g id="shape3-1" transform="translate(12.003,-37.3504)"><title content="structured text">Sheet.3</title><rect x="0" y="60.2657" width="113.386" height="28.3465" class="st1"/></g><g id="shape1-3" transform="translate(125.524,-37.3385)"><title content="structured text">64-bit register.41</title><desc content="structured text">BADDR[47:x]</desc><rect x="0" y="60.2657" width="340.157" height="28.3465" class="st2"/><text x="146.29" y="76.84" class="st3">BADDR<tspan class="st4">[</tspan><tspan class="st4">47</tspan><tspan class="st4">:</tspan><tspan class="st4">x</tspan><tspan class="st4">]</tspan></text></g><g id="shape2-11" transform="translate(125.524,-37.3385)"><title content="structured text">Sheet.2</title><path d="M0 60.27 L0 88.61" class="st5"/></g><g id="shape4-14" transform="translate(125.524,-65.685)"><title content="structured text">64-bit register.44</title><desc content="structured text">47</desc><text x="1.22" y="85.34" class="st3">47</text></g><g id="shape5-16" transform="translate(114.186,-65.685)"><title content="structured text">64-bit register.45</title><desc content="structured text">48</desc><text x="1.22" y="85.34" class="st3">48</text></g><g id="shape6-18" transform="translate(12.1386,-37.3385)"><title content="structured text">Sheet.6</title><rect x="0" y="60.2657" width="453.543" height="28.3465" class="st6"/><rect x="0" y="60.2657" width="453.543" height="28.3465" class="st5"/></g><g id="shape7-21" transform="translate(554.294,11.5886) rotate(90)"><title content="structured text">Signal 0.109</title><path d="M0 88.61 L11.34 88.61" class="st7"/></g><g id="shape8-24" transform="translate(497.601,11.5886) rotate(90)"><title content="structured text">Signal 0.80</title><path d="M0 88.61 L11.34 88.61" class="st7"/></g><g id="shape9-27" transform="translate(440.908,11.5886) rotate(90)"><title content="structured text">Signal 0.81</title><path d="M0 88.61 L11.34 88.61" class="st7"/></g><g id="shape10-30" transform="translate(384.215,11.5886) rotate(90)"><title content="structured text">Signal 0.82</title><path d="M0 88.61 L11.34 88.61" class="st7"/></g><g id="shape11-33" transform="translate(327.522,11.5886) rotate(90)"><title content="structured text">Signal 0.83</title><path d="M0 88.61 L11.34 88.61" class="st7"/></g><g id="shape12-36" transform="translate(270.829,11.5886) rotate(90)"><title content="structured text">Signal 0.84</title><path d="M0 88.61 L11.34 88.61" class="st7"/></g><g id="shape13-39" transform="translate(214.137,11.5886) rotate(90)"><title content="structured text">Signal 0.85</title><path d="M0 88.61 L11.34 88.61" class="st7"/></g><g id="shape14-42" transform="translate(157.444,11.5886) rotate(90)"><title content="structured text">Signal 0.86</title><path d="M0 88.61 L11.34 88.61" class="st7"/></g><g id="shape15-45" transform="translate(100.751,11.5886) rotate(90)"><title content="structured text">Signal 0.87</title><path d="M0 88.61 L11.34 88.61" class="st7"/></g><g id="shape16-48" transform="translate(454.343,-65.685)"><title content="structured text">Bit01.2</title><desc content="structured text">0</desc><text x="3.44" y="85.34" class="st3">0</text></g><g id="shape17-50" transform="translate(12.1386,-65.685)"><title content="structured text">Bit01.88</title><desc content="structured text">63</desc><text x="1.22" y="85.34" class="st3">63</text></g><g id="shape18-52" transform="translate(440.908,11.5886) rotate(90)"><title content="structured text">Signal 0.91</title><path d="M0 88.61 L11.34 88.61" class="st7"/></g><g id="group19-55" transform="translate(66.398,-34.5157)"><title content="structured text">Sheet.19</title><g id="group20-56" transform="translate(0,-28.3465)"><title content="structured text">Sheet.20</title><g id="shape21-57" transform="translate(0.566929,2.84217E-014)"><title content="structured text">Sheet.21</title><rect x="0" y="82.9428" width="1.88976" height="5.66929" class="st8"/></g><g id="shape22-59" transform="translate(89.8354,97.443) rotate(99.4623)"><title content="structured text">Sheet.22</title><path d="M0 88.2 C0.15 88.41 0.72 88.57 1.15 88.61 C1.58 88.64 1.86 88.53 2.34 88.29 C2.63 88.15 2.98 87.97 3.29          87.85 C4.56 87.35 5.03 87.9 5.75 88.2" class="st9"/></g><g id="shape23-62" transform="translate(87.9456,97.443) rotate(99.4623)"><title content="structured text">Sheet.23</title><path d="M0 88.2 C0.15 88.41 0.72 88.57 1.15 88.61 C1.58 88.64 1.86 88.53 2.34 88.29 C2.63 88.15 2.98 87.97 3.29          87.85 C4.56 87.35 5.03 87.9 5.75 88.2" class="st9"/></g></g><g id="group24-65"><title content="structured text">Sheet.24</title><g id="shape25-66" transform="translate(0.566929,2.84217E-014)"><title content="structured text">Sheet.25</title><rect x="0" y="82.9428" width="1.88976" height="5.66929" class="st8"/></g><g id="shape26-68" transform="translate(89.8354,97.443) rotate(99.4623)"><title content="structured text">Sheet.26</title><path d="M0 88.2 C0.15 88.41 0.72 88.57 1.15 88.61 C1.58 88.64 1.86 88.53 2.34 88.29 C2.63 88.15 2.98 87.97 3.29          87.85 C4.56 87.35 5.03 87.9 5.75 88.2" class="st9"/></g><g id="shape27-71" transform="translate(87.9456,97.443) rotate(99.4623)"><title content="structured text">Sheet.27</title><path d="M0 88.2 C0.15 88.41 0.72 88.57 1.15 88.61 C1.58 88.64 1.86 88.53 2.34 88.29 C2.63 88.15 2.98 87.97 3.29          87.85 C4.56 87.35 5.03 87.9 5.75 88.2" class="st9"/></g></g></g><g id="group28-74" transform="translate(293.17,-34.5157)"><title content="structured text">Sheet.28</title><g id="group29-75" transform="translate(0,-28.3465)"><title content="structured text">Sheet.29</title><g id="shape30-76" transform="translate(0.566929,2.84217E-014)"><title content="structured text">Sheet.30</title><rect x="0" y="82.9428" width="1.88976" height="5.66929" class="st8"/></g><g id="shape31-78" transform="translate(89.8354,97.443) rotate(99.4623)"><title content="structured text">Sheet.31</title><path d="M0 88.2 C0.15 88.41 0.72 88.57 1.15 88.61 C1.58 88.64 1.86 88.53 2.34 88.29 C2.63 88.15 2.98 87.97 3.29          87.85 C4.56 87.35 5.03 87.9 5.75 88.2" class="st9"/></g><g id="shape32-81" transform="translate(87.9456,97.443) rotate(99.4623)"><title content="structured text">Sheet.32</title><path d="M0 88.2 C0.15 88.41 0.72 88.57 1.15 88.61 C1.58 88.64 1.86 88.53 2.34 88.29 C2.63 88.15 2.98 87.97 3.29          87.85 C4.56 87.35 5.03 87.9 5.75 88.2" class="st9"/></g></g><g id="group33-84"><title content="structured text">Sheet.33</title><g id="shape34-85" transform="translate(0.566929,2.84217E-014)"><title content="structured text">Sheet.34</title><rect x="0" y="82.9428" width="1.88976" height="5.66929" class="st8"/></g><g id="shape35-87" transform="translate(89.8354,97.443) rotate(99.4623)"><title content="structured text">Sheet.35</title><path d="M0 88.2 C0.15 88.41 0.72 88.57 1.15 88.61 C1.58 88.64 1.86 88.53 2.34 88.29 C2.63 88.15 2.98 87.97 3.29          87.85 C4.56 87.35 5.03 87.9 5.75 88.2" class="st9"/></g><g id="shape36-90" transform="translate(87.9456,97.443) rotate(99.4623)"><title content="structured text">Sheet.36</title><path d="M0 88.2 C0.15 88.41 0.72 88.57 1.15 88.61 C1.58 88.64 1.86 88.53 2.34 88.29 C2.63 88.15 2.98 87.97 3.29          87.85 C4.56 87.35 5.03 87.9 5.75 88.2" class="st9"/></g></g></g><g id="shape37-93" transform="translate(454.343,-37.3504)"><title content="structured text">Sheet.37</title><path d="M0 60.27 L0 88.61" class="st5"/></g><g id="shape38-96" transform="translate(443.005,-65.6968)"><title content="structured text">Bit01.38</title><desc content="structured text">1</desc><text x="3.44" y="85.34" class="st3">1</text></g><g id="shape39-98" transform="translate(448.674,-28.8465)"><title content="structured text">Bit name 1</title><desc content="structured text">CnP</desc><path d="M11.34 82.94 L11.34 88.61 L0 88.61" class="st9"/><text x="-16.56" y="91.01" class="st3">CnP</text></g><g id="group40-102" transform="translate(12.1386,-11.8386)"><title content="structured text">Sheet.40</title><g id="shape41-103" transform="translate(11.3386,0)"><title content="structured text">Rectangle No Fill No Fill.116</title><desc content="structured text">res0</desc><rect x="0" y="77.2736" width="22.6772" height="11.3386" class="st10"/><text x="3.07" y="85.34" class="st11">RES<tspan class="st12">0</tspan></text></g><g id="shape42-107"><title content="structured text">Graphic.117</title><rect x="0" y="77.2736" width="11.3386" height="11.3386" class="st13"/></g></g></g></svg>