<?xml version="1.0" encoding="UTF-8" standalone="no"?><!-- Fixed up by svgfix.xsl 1.4  --><!-- Generated by Microsoft Visio 11.0, SVG Export, v1.0 trcseqevrn_bit_assignments.svg ARM -->
<!DOCTYPE svg
  PUBLIC "-//W3C//DTD SVG 1.0//EN" "http://www.w3.org/TR/2001/REC-SVG-20010904/DTD/svg10.dtd">
<svg xmlns:xlink="http://www.w3.org/1999/xlink" xmlns="http://www.w3.org/2000/svg" xmlns:ev="http://www.w3.org/2001/xml-events" width="516.149" height="114.386" viewBox="0 0 387.112 85.789" xml:space="preserve" color-interpolation-filters="sRGB" class="st14" preserveAspectRatio="xMidYMid meet" zoomAndPan="magnify" version="1.0" contentScriptType="text/ecmascript" contentStyleType="text/css"><style type="text/css" xml:space="preserve"><![CDATA[
	
		.st1 {fill:#ffffff;stroke:none;stroke-linecap:round;stroke-linejoin:round;stroke-width:0.2px}
		.st2 {fill:#000000;font-family:Arial,Helvetica,sans-serif;font-size:0.666664em}
		.st3 {fill:#eed9b3;stroke:#000000;stroke-linecap:butt;stroke-width:0.5px}
		.st4 {fill:#ffffff;visibility:hidden}
		.st5 {stroke:#000000;stroke-linecap:butt;stroke-width:0.8px}
		.st6 {stroke:#000000;stroke-dasharray:0.25,1;stroke-linecap:butt;stroke-width:0.25px}
		.st7 {font-size:1em}
		.st8 {fill:none;stroke:none;stroke-linecap:butt;stroke-width:0.5px}
		.st9 {stroke:#000000;stroke-linecap:butt;stroke-width:0.5px}
		.st10 {fill:none;stroke:none;stroke-linecap:butt;stroke-width:0.499999px}
		.st11 {fill:#000000;font-family:Arial,Helvetica,sans-serif;font-size:0.533318em}
		.st12 {font-size:1.25003em}
		.st13 {fill:#eed9b3;stroke:none;stroke-linecap:round;stroke-linejoin:round;stroke-width:0.2px}
		.st14 {fill:none;fill-rule:evenodd;font-size:12px;overflow:visible;stroke-linecap:square;stroke-miterlimit:3}]]></style><g xmlns:v="http://schemas.microsoft.com/visio/2003/SVGExtensions/"><title content="structured text">ARM</title><g id="shape1-1" transform="translate(363.635,-34.5157)"><title content="structured text">Sheet.1</title><rect x="0" y="57.4429" width="11.3386" height="28.3465" class="st1"/></g><g id="shape2-3" transform="translate(12.1386,-34.5157)"><title content="structured text">Sheet.2</title><rect x="0" y="57.4429" width="11.3386" height="28.3465" class="st1"/></g><g id="shape3-5" transform="translate(12.1386,-62.8622)"><title content="structured text">Sheet.3</title><desc content="structured text">31</desc><text x="1.22" y="82.52" class="st2">31</text></g><g id="shape33-7" transform="translate(363.635,-62.8622)"><title content="structured text">Sheet.33</title><desc content="structured text">0</desc><text x="3.44" y="82.52" class="st2">0</text></g><g id="shape34-9" transform="translate(23.4772,-34.5157)"><title content="structured text">Sheet.34</title><rect x="0" y="57.4429" width="11.3386" height="28.3465" class="st1"/></g><g id="shape35-11" transform="translate(34.8157,-34.5157)"><title content="structured text">Sheet.35</title><rect x="0" y="57.4429" width="11.3386" height="28.3465" class="st1"/></g><g id="shape36-13" transform="translate(46.1543,-34.5157)"><title content="structured text">Sheet.36</title><rect x="0" y="57.4429" width="11.3386" height="28.3465" class="st1"/></g><g id="shape37-15" transform="translate(57.4929,-34.5157)"><title content="structured text">Sheet.37</title><rect x="0" y="57.4429" width="11.3386" height="28.3465" class="st1"/></g><g id="shape38-17" transform="translate(68.8315,-34.5157)"><title content="structured text">Sheet.38</title><rect x="0" y="57.4429" width="11.3386" height="28.3465" class="st1"/></g><g id="shape39-19" transform="translate(80.1701,-34.5157)"><title content="structured text">Sheet.39</title><rect x="0" y="57.4429" width="11.3386" height="28.3465" class="st1"/></g><g id="shape40-21" transform="translate(91.5087,-34.5157)"><title content="structured text">Sheet.40</title><rect x="0" y="57.4429" width="11.3386" height="28.3465" class="st1"/></g><g id="shape41-23" transform="translate(102.847,-34.5157)"><title content="structured text">Sheet.41</title><rect x="0" y="57.4429" width="11.3386" height="28.3465" class="st1"/></g><g id="shape42-25" transform="translate(114.186,-34.5157)"><title content="structured text">Sheet.42</title><rect x="0" y="57.4429" width="11.3386" height="28.3465" class="st1"/></g><g id="shape43-27" transform="translate(125.524,-34.5157)"><title content="structured text">Sheet.43</title><rect x="0" y="57.4429" width="11.3386" height="28.3465" class="st1"/></g><g id="shape44-29" transform="translate(136.863,-34.5157)"><title content="structured text">Sheet.44</title><rect x="0" y="57.4429" width="11.3386" height="28.3465" class="st1"/></g><g id="shape45-31" transform="translate(148.202,-34.5157)"><title content="structured text">Sheet.45</title><rect x="0" y="57.4429" width="11.3386" height="28.3465" class="st1"/></g><g id="shape46-33" transform="translate(159.54,-34.5157)"><title content="structured text">Sheet.46</title><rect x="0" y="57.4429" width="11.3386" height="28.3465" class="st1"/></g><g id="shape47-35" transform="translate(170.879,-34.5157)"><title content="structured text">Sheet.47</title><rect x="0" y="57.4429" width="11.3386" height="28.3465" class="st1"/></g><g id="shape48-37" transform="translate(182.217,-34.5157)"><title content="structured text">Sheet.48</title><rect x="0" y="57.4429" width="11.3386" height="28.3465" class="st1"/></g><g id="shape75-39" transform="translate(12.189,-34.5827)"><title content="structured text">Sheet.75</title><rect x="0" y="57.4429" width="181.417" height="28.3465" class="st3"/></g><g id="shape49-41" transform="translate(193.556,-34.5157)"><title content="structured text">Sheet.49</title><rect x="0" y="57.4429" width="11.3386" height="28.3465" class="st1"/></g><g id="shape50-43" transform="translate(204.894,-34.5157)"><title content="structured text">Sheet.50</title><rect x="0" y="57.4429" width="11.3386" height="28.3465" class="st1"/></g><g id="shape51-45" transform="translate(216.233,-34.5157)"><title content="structured text">Sheet.51</title><rect x="0" y="57.4429" width="11.3386" height="28.3465" class="st1"/></g><g id="shape52-47" transform="translate(227.572,-34.5157)"><title content="structured text">Sheet.52</title><rect x="0" y="57.4429" width="11.3386" height="28.3465" class="st1"/></g><g id="shape99-49" transform="translate(204.945,-34.5827)"><title content="structured text">Sheet.99</title><rect x="0" y="57.4429" width="34.0157" height="28.3465" class="st3"/></g><g id="shape53-51" transform="translate(238.91,-34.5157)"><title content="structured text">Sheet.53</title><rect x="0" y="57.4429" width="11.3386" height="28.3465" class="st1"/></g><g id="shape54-53" transform="translate(250.249,-34.5157)"><title content="structured text">Sheet.54</title><rect x="0" y="57.4429" width="11.3386" height="28.3465" class="st1"/></g><g id="shape55-55" transform="translate(261.587,-34.5157)"><title content="structured text">Sheet.55</title><rect x="0" y="57.4429" width="11.3386" height="28.3465" class="st1"/></g><g id="shape56-57" transform="translate(272.926,-34.5157)"><title content="structured text">Sheet.56</title><rect x="0" y="57.4429" width="11.3386" height="28.3465" class="st1"/></g><g id="shape57-59" transform="translate(284.265,-34.5157)"><title content="structured text">Sheet.57</title><rect x="0" y="57.4429" width="11.3386" height="28.3465" class="st1"/></g><g id="shape58-61" transform="translate(295.603,-34.5157)"><title content="structured text">Sheet.58</title><rect x="0" y="57.4429" width="11.3386" height="28.3465" class="st1"/></g><g id="shape59-63" transform="translate(306.942,-34.5157)"><title content="structured text">Sheet.59</title><rect x="0" y="57.4429" width="11.3386" height="28.3465" class="st1"/></g><g id="shape60-65" transform="translate(318.28,-34.5157)"><title content="structured text">Sheet.60</title><rect x="0" y="57.4429" width="11.3386" height="28.3465" class="st1"/></g><g id="shape100-67" transform="translate(295.654,-34.5827)"><title content="structured text">Sheet.100</title><rect x="0" y="57.4429" width="34.0157" height="28.3465" class="st3"/></g><g id="shape61-69" transform="translate(329.619,-34.5157)"><title content="structured text">Sheet.61</title><rect x="0" y="57.4429" width="11.3386" height="28.3465" class="st1"/></g><g id="shape62-71" transform="translate(340.957,-34.5157)"><title content="structured text">Sheet.62</title><rect x="0" y="57.4429" width="11.3386" height="28.3465" class="st1"/></g><g id="shape63-73" transform="translate(352.296,-34.5157)"><title content="structured text">Sheet.63</title><rect x="0" y="57.4429" width="11.3386" height="28.3465" class="st1"/></g><g id="shape64-75" transform="translate(12.1386,-34.5157)"><title content="structured text">Sheet.64</title><rect x="0" y="57.4429" width="362.835" height="28.3465" class="st4"/><rect x="0" y="57.4429" width="362.835" height="28.3465" class="st5"/></g><g id="shape65-78" transform="translate(284.265,-34.5157)"><title content="structured text">Sheet.65</title><path d="M0 57.44 L0 85.79" class="st5"/></g><g id="shape66-81" transform="translate(415.408,11.5886) rotate(90)"><title content="structured text">Signal 0</title><path d="M0 85.79 L11.34 85.79" class="st6"/></g><g id="shape67-84" transform="translate(370.054,11.5886) rotate(90)"><title content="structured text">Signal 0.67</title><path d="M0 85.79 L11.34 85.79" class="st6"/></g><g id="shape68-87" transform="translate(324.7,11.5886) rotate(90)"><title content="structured text">Signal 0.68</title><path d="M0 85.79 L11.34 85.79" class="st6"/></g><g id="shape69-90" transform="translate(279.345,11.5886) rotate(90)"><title content="structured text">Signal 0.69</title><path d="M0 85.79 L11.34 85.79" class="st6"/></g><g id="shape70-93" transform="translate(233.991,11.5886) rotate(90)"><title content="structured text">Signal 0.70</title><path d="M0 85.79 L11.34 85.79" class="st6"/></g><g id="shape71-96" transform="translate(188.637,11.5886) rotate(90)"><title content="structured text">Signal 0.106</title><path d="M0 85.79 L11.34 85.79" class="st6"/></g><g id="shape72-99" transform="translate(143.282,11.5886) rotate(90)"><title content="structured text">Signal 0.107</title><path d="M0 85.79 L11.34 85.79" class="st6"/></g><g id="shape73-102" transform="translate(97.928,11.5886) rotate(90)"><title content="structured text">Signal 0.108</title><path d="M0 85.79 L11.34 85.79" class="st6"/></g><g id="shape74-105" transform="translate(460.763,11.5886) rotate(90)"><title content="structured text">Signal 0.109</title><path d="M0 85.79 L11.34 85.79" class="st6"/></g><g id="shape76-108" transform="translate(193.556,-34.5157)"><title content="structured text">32-bit register.111</title><path d="M0 57.44 L0 85.79" class="st5"/></g><g id="shape77-111" transform="translate(182.217,-62.8622)"><title content="structured text">32-bit register.226</title><desc content="structured text">16</desc><text x="1.22" y="82.52" class="st2">1<tspan class="st7">6</tspan></text></g><g id="shape78-114" transform="translate(238.91,-41.2949)"><title content="structured text">Sheet.78</title><desc content="structured text">B SEL</desc><rect x="0" y="71.0012" width="45.3543" height="14.7882" class="st8"/><text x="11.34" y="80.8" class="st2">B SEL</text></g><g id="shape79-117" transform="translate(329.619,-34.5157)"><title content="structured text">Sheet.79</title><desc content="structured text">F SEL</desc><rect x="0" y="57.4429" width="45.3543" height="28.3465" class="st8"/><text x="11.56" y="74.02" class="st2">F SEL</text></g><g id="shape80-120" transform="translate(193.556,-62.8622)"><title content="structured text">32-bit register.228</title><desc content="structured text">15</desc><text x="1.22" y="82.52" class="st2">1<tspan class="st7">5</tspan></text></g><g id="shape81-123" transform="translate(272.926,-62.8622)"><title content="structured text">32-bit register.229</title><desc content="structured text">8</desc><text x="3.44" y="82.52" class="st2">8</text></g><g id="shape82-125" transform="translate(284.265,-62.8622)"><title content="structured text">32-bit register.230</title><desc content="structured text">7</desc><text x="3.44" y="82.52" class="st2">7</text></g><g id="shape83-127" transform="translate(238.91,-62.8622)"><title content="structured text">32-bit register.1</title><desc content="structured text">11</desc><text x="1.22" y="82.52" class="st2">11</text></g><g id="shape84-129" transform="translate(227.572,-62.8622)"><title content="structured text">32-bit register.34</title><desc content="structured text">12</desc><text x="1.22" y="82.52" class="st2">12</text></g><g id="shape85-131" transform="translate(204.894,-62.8622)"><title content="structured text">32-bit register.68</title><desc content="structured text">14</desc><text x="1.22" y="82.52" class="st2">14</text></g><g id="shape86-133" transform="translate(204.894,-34.5157)"><title content="structured text">32-bit register.69</title><path d="M0 57.44 L0 85.79" class="st5"/></g><g id="shape87-136" transform="translate(238.91,-34.5157)"><title content="structured text">32-bit register.70</title><path d="M0 57.44 L0 85.79" class="st5"/></g><g id="shape88-139" transform="translate(318.28,-62.8622)"><title content="structured text">32-bit register.72</title><desc content="structured text">4</desc><text x="3.44" y="82.52" class="st2">4</text></g><g id="shape89-141" transform="translate(329.619,-62.8622)"><title content="structured text">32-bit register.73</title><desc content="structured text">3</desc><text x="3.44" y="82.52" class="st2">3</text></g><g id="shape90-143" transform="translate(295.603,-34.5157)"><title content="structured text">Sheet.90</title><path d="M0 57.44 L0 85.79" class="st5"/></g><g id="shape91-146" transform="translate(329.619,-34.5157)"><title content="structured text">Sheet.91</title><path d="M0 57.44 L0 85.79" class="st5"/></g><g id="shape92-149" transform="translate(295.603,-62.8622)"><title content="structured text">32-bit register.76</title><desc content="structured text">6</desc><text x="3.44" y="82.52" class="st2">6</text></g><g id="shape93-151" transform="translate(187.887,-26.0118)"><title content="structured text">Signal 0.93</title><path d="M0 85.79 L11.34 85.79" class="st9"/></g><g id="shape94-154" transform="translate(113.436,59.7776) rotate(-90)"><title content="structured text">Signal 0.94</title><path d="M0 85.79 L5.67 85.79" class="st9"/></g><g id="shape95-157" transform="translate(278.595,-26.0118)"><title content="structured text">Signal 0.97</title><path d="M0 85.79 L11.34 85.79" class="st9"/></g><g id="shape96-160" transform="translate(204.144,59.7776) rotate(-90)"><title content="structured text">Signal 0.98</title><path d="M0 85.79 L5.67 85.79" class="st9"/></g><g id="shape97-163" transform="translate(153.871,-20.3425)"><title content="structured text">Sheet.97</title><desc content="structured text">B TYPE</desc><rect x="0" y="74.4508" width="34.0157" height="11.3386" class="st8"/><text x="4.56" y="82.52" class="st2">B TYPE</text></g><g id="shape98-166" transform="translate(244.58,-20.3425)"><title content="structured text">Sheet.98</title><desc content="structured text">F TYPE</desc><rect x="0" y="74.4508" width="34.0157" height="11.3386" class="st8"/><text x="5.01" y="82.52" class="st2">F TYPE</text></g><g id="shape107-169" transform="translate(22.5786,-11.8386)"><title content="structured text">Rectangle No Fill No Fill.116</title><desc content="structured text">res0</desc><rect x="0" y="74.4508" width="19.8425" height="11.3386" class="st10"/><text x="1.24" y="82.52" class="st11">RES<tspan class="st12">0</tspan></text></g><g id="shape108-173" transform="translate(12.1386,-11.8386)"><title content="structured text">Graphic.117</title><rect x="0" y="74.4508" width="10.44" height="11.3386" class="st13"/></g></g></svg>