<?xml version="1.0" encoding="UTF-8" standalone="no"?><!-- Fixed up by svgfix.xsl 1.4  --><!-- Generated by Microsoft Visio 11.0, SVG Export, v1.0 trccntctlr0_bit_assignments.svg ARM -->
<!DOCTYPE svg
  PUBLIC "-//W3C//DTD SVG 1.0//EN" "http://www.w3.org/TR/2001/REC-SVG-20010904/DTD/svg10.dtd">
<svg xmlns:xlink="http://www.w3.org/1999/xlink" xmlns="http://www.w3.org/2000/svg" xmlns:ev="http://www.w3.org/2001/xml-events" width="516.149" height="118.165" viewBox="0 0 387.112 88.624" xml:space="preserve" color-interpolation-filters="sRGB" class="st13" preserveAspectRatio="xMidYMid meet" zoomAndPan="magnify" version="1.0" contentScriptType="text/ecmascript" contentStyleType="text/css"><style type="text/css" xml:space="preserve"><![CDATA[
	
		.st1 {fill:#eed9b3;stroke:none;stroke-linecap:round;stroke-linejoin:round;stroke-width:0.2px}
		.st2 {fill:#ffffff;stroke:none;stroke-linecap:round;stroke-linejoin:round;stroke-width:0.2px}
		.st3 {fill:#000000;font-family:Arial,Helvetica,sans-serif;font-size:0.666664em}
		.st4 {fill:#ffffff;visibility:hidden}
		.st5 {stroke:#000000;stroke-linecap:butt;stroke-width:0.8px}
		.st6 {stroke:#000000;stroke-dasharray:0.25,1;stroke-linecap:butt;stroke-width:0.25px}
		.st7 {stroke:#000000;stroke-linecap:butt;stroke-width:0.5px}
		.st8 {fill:none;stroke:none;stroke-linecap:butt;stroke-width:0.5px}
		.st9 {fill:none;stroke:none;stroke-linecap:butt;stroke-width:0.499999px}
		.st10 {fill:#000000;font-family:Arial,Helvetica,sans-serif;font-size:0.533318em}
		.st11 {font-size:1.25003em}
		.st12 {fill:#eed9b3;stroke:none;stroke-linecap:round;stroke-linejoin:round;stroke-width:0.2px}
		.st13 {fill:none;fill-rule:evenodd;font-size:12px;overflow:visible;stroke-linecap:square;stroke-miterlimit:3}]]></style><g xmlns:v="http://schemas.microsoft.com/visio/2003/SVGExtensions/"><title content="structured text">ARM</title><g id="shape54-1" transform="translate(238.91,-37.3504) scale(-1,1)"><title content="structured text">Sheet.54</title><rect x="0" y="60.2776" width="34.0157" height="28.3465" class="st1"/></g><g id="shape55-3" transform="translate(329.619,-37.3504) scale(-1,1)"><title content="structured text">Sheet.55</title><rect x="0" y="60.2776" width="34.0157" height="28.3465" class="st1"/></g><g id="shape1-5" transform="translate(182.217,-37.3504)"><title content="structured text">Sheet.1</title><rect x="0" y="60.2776" width="11.3386" height="28.3465" class="st2"/></g><g id="shape2-7" transform="translate(182.217,-37.3504) scale(-1,1)"><title content="structured text">Sheet.2</title><rect x="0" y="60.2776" width="170.079" height="28.3465" class="st1"/></g><g id="shape3-9" transform="translate(12.1386,-65.6969)"><title content="structured text">Sheet.3</title><desc content="structured text">31</desc><text x="1.22" y="85.35" class="st3">31</text></g><g id="shape4-11" transform="translate(182.217,-65.6969)"><title content="structured text">Sheet.4</title><desc content="structured text">16</desc><text x="1.22" y="85.35" class="st3">16</text></g><g id="shape5-13" transform="translate(193.556,-65.6969)"><title content="structured text">Sheet.5</title><desc content="structured text">15</desc><text x="1.22" y="85.35" class="st3">15</text></g><g id="shape6-15" transform="translate(204.894,-65.6969)"><title content="structured text">Sheet.6</title><desc content="structured text">14</desc><text x="1.22" y="85.35" class="st3">14</text></g><g id="shape7-17" transform="translate(227.572,-65.6969)"><title content="structured text">Sheet.7</title><desc content="structured text">12</desc><text x="1.22" y="85.35" class="st3">12</text></g><g id="shape8-19" transform="translate(238.91,-65.6969)"><title content="structured text">Sheet.8</title><desc content="structured text">11</desc><text x="1.22" y="85.35" class="st3">11</text></g><g id="shape9-21" transform="translate(272.926,-65.6969)"><title content="structured text">Sheet.9</title><desc content="structured text">8</desc><text x="3.44" y="85.35" class="st3">8</text></g><g id="shape10-23" transform="translate(284.265,-65.6969)"><title content="structured text">Sheet.10</title><desc content="structured text">7</desc><text x="3.44" y="85.35" class="st3">7</text></g><g id="shape11-25" transform="translate(295.603,-65.6969)"><title content="structured text">Sheet.11</title><desc content="structured text">6</desc><text x="3.44" y="85.35" class="st3">6</text></g><g id="shape12-27" transform="translate(318.28,-65.6969)"><title content="structured text">Sheet.12</title><desc content="structured text">4</desc><text x="3.44" y="85.35" class="st3">4</text></g><g id="shape13-29" transform="translate(329.619,-65.6969)"><title content="structured text">Sheet.13</title><desc content="structured text">3</desc><text x="3.44" y="85.35" class="st3">3</text></g><g id="shape14-31" transform="translate(363.635,-65.6969)"><title content="structured text">Sheet.14</title><desc content="structured text">0</desc><text x="3.44" y="85.35" class="st3">0</text></g><g id="shape15-33" transform="translate(193.556,-37.3504)"><title content="structured text">Sheet.15</title><rect x="0" y="60.2776" width="11.3386" height="28.3465" class="st2"/></g><g id="shape17-35" transform="translate(238.91,-37.3504)"><title content="structured text">Sheet.17</title><desc content="structured text">RLDSEL</desc><rect x="0" y="60.2776" width="45.3543" height="28.3465" class="st2"/><text x="7.11" y="76.85" class="st3">RLDSEL</text></g><g id="shape18-38" transform="translate(284.265,-37.3504)"><title content="structured text">Sheet.18</title><rect x="0" y="60.2776" width="11.3386" height="28.3465" class="st2"/></g><g id="shape20-40" transform="translate(329.619,-37.3504)"><title content="structured text">Sheet.20</title><desc content="structured text">CNTSEL</desc><rect x="0" y="60.2776" width="45.3543" height="28.3465" class="st2"/><text x="6.9" y="76.85" class="st3">CNTSEL</text></g><g id="shape21-43" transform="translate(12.1386,-37.3504)"><title content="structured text">Sheet.21</title><rect x="0" y="60.2776" width="362.835" height="28.3465" class="st4"/><rect x="0" y="60.2776" width="362.835" height="28.3465" class="st5"/></g><g id="shape22-46" transform="translate(193.556,-37.3504)"><title content="structured text">Sheet.22</title><path d="M0 60.28 L0 88.62" class="st5"/></g><g id="shape23-49" transform="translate(204.894,-37.3504)"><title content="structured text">Sheet.23</title><path d="M0 60.28 L0 88.62" class="st5"/></g><g id="shape24-52" transform="translate(238.91,-37.3504)"><title content="structured text">Sheet.24</title><path d="M0 60.28 L0 88.62" class="st5"/></g><g id="shape25-55" transform="translate(284.265,-37.3504)"><title content="structured text">Sheet.25</title><path d="M0 60.28 L0 88.62" class="st5"/></g><g id="shape26-58" transform="translate(295.603,-37.3504)"><title content="structured text">Sheet.26</title><path d="M0 60.28 L0 88.62" class="st5"/></g><g id="shape27-61" transform="translate(329.619,-37.3504)"><title content="structured text">Sheet.27</title><path d="M0 60.28 L0 88.62" class="st5"/></g><g id="shape28-64" transform="translate(418.243,11.5886) rotate(90)"><title content="structured text">Signal 0</title><path d="M0 88.62 L11.34 88.62" class="st6"/></g><g id="shape29-67" transform="translate(372.889,11.5886) rotate(90)"><title content="structured text">Signal 0.102</title><path d="M0 88.62 L11.34 88.62" class="st6"/></g><g id="shape30-70" transform="translate(327.534,11.5886) rotate(90)"><title content="structured text">Signal 0.103</title><path d="M0 88.62 L11.34 88.62" class="st6"/></g><g id="shape31-73" transform="translate(282.18,11.5886) rotate(90)"><title content="structured text">Signal 0.104</title><path d="M0 88.62 L11.34 88.62" class="st6"/></g><g id="shape32-76" transform="translate(236.826,11.5886) rotate(90)"><title content="structured text">Signal 0.105</title><path d="M0 88.62 L11.34 88.62" class="st6"/></g><g id="shape33-79" transform="translate(191.471,11.5886) rotate(90)"><title content="structured text">Signal 0.106</title><path d="M0 88.62 L11.34 88.62" class="st6"/></g><g id="shape34-82" transform="translate(146.117,11.5886) rotate(90)"><title content="structured text">Signal 0.107</title><path d="M0 88.62 L11.34 88.62" class="st6"/></g><g id="shape35-85" transform="translate(100.763,11.5886) rotate(90)"><title content="structured text">Signal 0.108</title><path d="M0 88.62 L11.34 88.62" class="st6"/></g><g id="shape36-88" transform="translate(463.597,11.5886) rotate(90)"><title content="structured text">Signal 0.109</title><path d="M0 88.62 L11.34 88.62" class="st6"/></g><g id="shape37-91" transform="translate(176.548,-28.8465)"><title content="structured text">Signal 0.1</title><path d="M0 88.62 L11.34 88.62" class="st7"/></g><g id="shape38-94" transform="translate(110.601,71.1161) rotate(-90)"><title content="structured text">Signal 0.2</title><path d="M0 88.62 L17.01 88.62" class="st7"/></g><g id="shape39-97" transform="translate(129.32,-23.1772)"><title content="structured text">Sheet.39</title><desc content="structured text">RLDSELF</desc><rect x="0" y="77.2854" width="47.2283" height="11.3386" class="st8"/><text x="10.22" y="85.35" class="st3">RLDSELF</text></g><g id="shape40-100" transform="translate(278.595,-28.8465)"><title content="structured text">Signal 0.6</title><path d="M0 88.62 L11.34 88.62" class="st7"/></g><g id="shape41-103" transform="translate(201.31,59.7776) rotate(-90)"><title content="structured text">Signal 0.7</title><path d="M0 88.62 L5.67 88.62" class="st7"/></g><g id="shape42-106" transform="translate(231.367,-23.1772)"><title content="structured text">Sheet.42</title><desc content="structured text">CNTTYPE</desc><rect x="0" y="77.2854" width="47.2283" height="11.3386" class="st8"/><text x="8.89" y="85.35" class="st3">CNTTYPE</text></g><g id="shape43-109" transform="translate(170.879,-65.6969)"><title content="structured text">Sheet.43</title><desc content="structured text">17</desc><text x="1.22" y="85.35" class="st3">17</text></g><g id="shape44-111" transform="translate(182.217,-37.3504)"><title content="structured text">Sheet.44</title><path d="M0 60.28 L0 88.62" class="st5"/></g><g id="shape45-114" transform="translate(99.2626,59.7776) rotate(-90)"><title content="structured text">Signal 0.110</title><path d="M0 88.62 L5.67 88.62" class="st7"/></g><g id="shape46-117" transform="translate(129.32,-11.8386)"><title content="structured text">Sheet.46</title><desc content="structured text">RLDTYPE</desc><rect x="0" y="77.2854" width="47.2283" height="11.3386" class="st8"/><text x="9.33" y="85.35" class="st3">RLDTYPE</text></g><g id="shape47-120" transform="translate(176.548,-17.5079)"><title content="structured text">Signal 0.112</title><path d="M0 88.62 L22.68 88.62" class="st7"/></g><g id="shape56-123" transform="translate(22.5786,-14.6732)"><title content="structured text">Rectangle No Fill No Fill.116</title><desc content="structured text">res0</desc><rect x="0" y="77.2854" width="19.8425" height="11.3386" class="st9"/><text x="1.24" y="85.35" class="st10">RES<tspan class="st11">0</tspan></text></g><g id="shape57-127" transform="translate(12.1386,-14.6732)"><title content="structured text">Graphic.117</title><rect x="0" y="77.2854" width="10.44" height="11.3386" class="st12"/></g></g></svg>