<?xml version="1.0" encoding="UTF-8" standalone="no"?><!-- Fixed up by svgfix.xsl 1.4  --><!-- Generated by Microsoft Visio 11.0, SVG Export, v1.0 trcidr4_bit_assignments.svg ARM -->
<!DOCTYPE svg
  PUBLIC "-//W3C//DTD SVG 1.0//EN" "http://www.w3.org/TR/2001/REC-SVG-20010904/DTD/svg10.dtd">
<svg xmlns:xlink="http://www.w3.org/1999/xlink" xmlns="http://www.w3.org/2000/svg" xmlns:ev="http://www.w3.org/2001/xml-events" width="516.172" height="115.052" viewBox="0 0 387.129 86.289" xml:space="preserve" color-interpolation-filters="sRGB" class="st13" preserveAspectRatio="xMidYMid meet" zoomAndPan="magnify" version="1.0" contentScriptType="text/ecmascript" contentStyleType="text/css"><style type="text/css" xml:space="preserve"><![CDATA[
	
		.st1 {fill:#eed9b3;stroke:#000000;stroke-linecap:butt;stroke-width:0.5px}
		.st2 {stroke:#000000;stroke-linecap:butt;stroke-width:0.8px}
		.st3 {stroke:#000000;stroke-dasharray:0.25,0.5;stroke-linecap:butt;stroke-width:0.25px}
		.st4 {fill:#000000;font-family:Arial,Helvetica,sans-serif;font-size:0.666664em}
		.st5 {fill:none;stroke:none;stroke-linecap:round;stroke-linejoin:round;stroke-width:0.2px}
		.st6 {stroke:#000000;stroke-linecap:butt;stroke-width:0.5px}
		.st7 {fill:none;stroke:none;stroke-linecap:butt;stroke-width:0.5px}
		.st8 {font-size:1em}
		.st9 {fill:none;stroke:none;stroke-linecap:butt;stroke-width:0.499999px}
		.st10 {fill:#000000;font-family:Arial,Helvetica,sans-serif;font-size:0.533318em}
		.st11 {font-size:1.25003em}
		.st12 {fill:#eed9b3;stroke:none;stroke-linecap:round;stroke-linejoin:round;stroke-width:0.2px}
		.st13 {fill:none;fill-rule:evenodd;font-size:12px;overflow:visible;stroke-linecap:square;stroke-miterlimit:3}]]></style><g xmlns:v="http://schemas.microsoft.com/visio/2003/SVGExtensions/"><title content="structured text">ARM</title><g id="shape50-1" transform="translate(238.961,-35.1496)"><title content="structured text">Sheet.50</title><rect x="0" y="57.9429" width="34.0157" height="28.3465" class="st1"/></g><g id="shape1-3" transform="translate(374.99,-35.0157) scale(-1,1)"><title content="structured text">64-bit register.156</title><path d="M0 57.94 L362.83 57.94 L362.83 86.29 L0 86.29" class="st2"/></g><g id="shape2-6" transform="translate(98.4449,11.5886) rotate(90)"><title content="structured text">64-bit register.169</title><path d="M0 86.29 L11.34 86.29" class="st3"/></g><g id="shape3-9" transform="translate(374.99,-35.0157)"><title content="structured text">64-bit register.157</title><path d="M0 57.94 L0 86.29" class="st2"/></g><g id="shape4-12" transform="translate(57.5099,-35.0157)"><title content="structured text">64-bit register.7</title><path d="M0 57.94 L0 86.29" class="st2"/></g><g id="shape5-15" transform="translate(193.573,-35.0157)"><title content="structured text">64-bit register.39</title><path d="M0 57.94 L0 86.29" class="st2"/></g><g id="shape6-18" transform="translate(284.282,-35.0157)"><title content="structured text">64-bit register.41</title><path d="M0 57.94 L0 86.29" class="st2"/></g><g id="shape7-21" transform="translate(329.636,-35.0157)"><title content="structured text">64-bit register.52</title><path d="M0 57.94 L0 86.29" class="st2"/></g><g id="shape8-24" transform="translate(143.799,11.5886) rotate(90)"><title content="structured text">64-bit register.11</title><path d="M0 86.29 L11.34 86.29" class="st3"/></g><g id="shape9-27" transform="translate(189.154,11.5886) rotate(90)"><title content="structured text">64-bit register.12</title><path d="M0 86.29 L11.34 86.29" class="st3"/></g><g id="shape10-30" transform="translate(234.508,11.5886) rotate(90)"><title content="structured text">64-bit register.13</title><path d="M0 86.29 L11.34 86.29" class="st3"/></g><g id="shape11-33" transform="translate(279.862,11.5886) rotate(90)"><title content="structured text">64-bit register.14</title><path d="M0 86.29 L11.34 86.29" class="st3"/></g><g id="shape12-36" transform="translate(325.217,11.5886) rotate(90)"><title content="structured text">64-bit register.15</title><path d="M0 86.29 L11.34 86.29" class="st3"/></g><g id="shape13-39" transform="translate(415.925,11.5886) rotate(90)"><title content="structured text">64-bit register.16</title><path d="M0 86.29 L11.34 86.29" class="st3"/></g><g id="shape14-42" transform="translate(461.28,11.5886) rotate(90)"><title content="structured text">64-bit register.17</title><path d="M0 86.29 L11.34 86.29" class="st3"/></g><g id="shape15-45" transform="translate(12.1556,-63.3622)"><title content="structured text">64-bit register.179</title><desc content="structured text">31</desc><text x="1.22" y="83.02" class="st4">31</text></g><g id="shape16-47" transform="translate(363.652,-63.3622)"><title content="structured text">64-bit register.19</title><desc content="structured text">0</desc><text x="3.44" y="83.02" class="st4">0</text></g><g id="shape17-49" transform="translate(370.571,11.5886) rotate(90)"><title content="structured text">64-bit register.21</title><path d="M0 86.29 L11.34 86.29" class="st3"/></g><g id="shape18-52" transform="translate(102.864,-63.3622)"><title content="structured text">64-bit register.4</title><desc content="structured text">23</desc><text x="1.22" y="83.02" class="st4">23</text></g><g id="shape19-54" transform="translate(91.5256,-63.3622)"><title content="structured text">64-bit register.6</title><desc content="structured text">24</desc><text x="1.22" y="83.02" class="st4">24</text></g><g id="shape20-56" transform="translate(182.234,-63.3622)"><title content="structured text">64-bit register.26</title><desc content="structured text">16</desc><text x="1.22" y="83.02" class="st4">16</text></g><g id="shape21-58" transform="translate(193.573,-63.3622)"><title content="structured text">64-bit register.27</title><desc content="structured text">15</desc><text x="1.22" y="83.02" class="st4">15</text></g><g id="shape22-60" transform="translate(272.943,-63.3622)"><title content="structured text">64-bit register.28</title><desc content="structured text">8</desc><text x="3.44" y="83.02" class="st4">8</text></g><g id="shape23-62" transform="translate(284.282,-63.3622)"><title content="structured text">64-bit register.29</title><desc content="structured text">7</desc><text x="3.44" y="83.02" class="st4">7</text></g><g id="shape24-64" transform="translate(329.636,-63.3622)"><title content="structured text">64-bit register.32</title><desc content="structured text">3</desc><text x="3.44" y="83.02" class="st4">3</text></g><g id="shape25-66" transform="translate(318.297,-63.3622)"><title content="structured text">64-bit register.33</title><desc content="structured text">4</desc><text x="3.44" y="83.02" class="st4">4</text></g><g id="shape26-68" transform="translate(57.5099,-63.3622)"><title content="structured text">64-bit register.22</title><desc content="structured text">27</desc><text x="1.22" y="83.02" class="st4">27</text></g><g id="shape27-70" transform="translate(46.1713,-63.3622)"><title content="structured text">64-bit register.23</title><desc content="structured text">28</desc><text x="1.22" y="83.02" class="st4">28</text></g><g id="shape28-72" transform="translate(148.219,-35.0157)"><title content="structured text">64-bit register.24</title><path d="M0 57.94 L0 86.29" class="st2"/></g><g id="shape29-75" transform="translate(136.88,-63.3622)"><title content="structured text">64-bit register.40</title><desc content="structured text">20</desc><text x="1.22" y="83.02" class="st4">20</text></g><g id="shape30-77" transform="translate(148.219,-63.3622)"><title content="structured text">Sheet.30</title><desc content="structured text">19</desc><text x="1.22" y="83.02" class="st4">19</text></g><g id="shape31-79" transform="translate(238.927,-35.0157)"><title content="structured text">Sheet.31</title><path d="M0 57.94 L0 86.29" class="st2"/></g><g id="shape32-82" transform="translate(284.282,-35.0157)"><title content="structured text">64-bit register.30</title><desc content="structured text">NUMDVC</desc><rect x="0" y="57.9429" width="45.3543" height="28.3465" class="st5"/><text x="5.12" y="74.52" class="st4">NUMDVC</text></g><g id="shape33-85" transform="translate(193.573,-35.0157)"><title content="structured text">64-bit register.43</title><desc content="structured text">NUMPC</desc><rect x="0" y="57.9429" width="45.3543" height="28.3465" class="st5"/><text x="8.01" y="74.52" class="st4">NUMPC</text></g><g id="shape34-88" transform="translate(102.864,-35.0157)"><title content="structured text">64-bit register.46</title><desc content="structured text">NUMSSCC</desc><rect x="0" y="57.9429" width="45.3543" height="28.3465" class="st5"/><text x="2.45" y="74.52" class="st4">NUMSSCC</text></g><g id="shape35-91" transform="translate(57.5099,-35.0157)"><title content="structured text">64-bit register.47</title><desc content="structured text">NUMCIDC</desc><rect x="0" y="57.9429" width="45.3543" height="28.3465" class="st5"/><text x="3.79" y="74.52" class="st4">NUMCIDC</text></g><g id="shape36-94" transform="translate(349.478,-26.5118) scale(-1,1)"><title content="structured text">Sheet.36</title><path d="M0 80.62 L0 86.29 L5.67 86.29" class="st6"/></g><g id="shape37-97" transform="translate(284.282,-20.8425)"><title content="structured text">Sheet.37</title><desc content="structured text">NUMACPAIRS</desc><rect x="0" y="74.9508" width="59.5276" height="11.3386" class="st7"/><text x="4.19" y="83.02" class="st4">NUMACPAIRS</text></g><g id="shape38-100" transform="translate(272.943,-35.0157)"><title content="structured text">64-bit register.36</title><path d="M0 57.94 L0 86.29" class="st2"/></g><g id="shape39-103" transform="translate(261.604,-63.3622)"><title content="structured text">64-bit register.37</title><desc content="structured text">9</desc><text x="3.44" y="83.02" class="st4">9</text></g><g id="shape40-105" transform="translate(238.927,-63.3622)"><title content="structured text">64-bit register.44</title><desc content="structured text">11</desc><text x="1.22" y="83.02" class="st4">11</text></g><g id="shape41-107" transform="translate(227.589,-63.3622)"><title content="structured text">64-bit register.48</title><desc content="structured text">12</desc><text x="1.22" y="83.02" class="st4">12</text></g><g id="shape42-109" transform="translate(105.699,-20.8425)"><title content="structured text">Sheet.42</title><desc content="structured text">NUMRSPAIRS</desc><rect x="0" y="74.9508" width="59.5276" height="11.3386" class="st7"/><text x="4.19" y="83.02" class="st4">NUMR<tspan class="st8">S</tspan>PAIRS</text></g><g id="shape43-113" transform="translate(102.864,-35.0157)"><title content="structured text">64-bit register.50</title><path d="M0 57.94 L0 86.29" class="st2"/></g><g id="shape44-116" transform="translate(12.1556,-35.0157)"><title content="structured text">64-bit register.51</title><desc content="structured text">NUMVMIDC</desc><rect x="0" y="57.9429" width="45.3543" height="28.3465" class="st5"/><text x="0.68" y="74.52" class="st4">NUMVMIDC</text></g><g id="shape46-119" transform="translate(170.896,-26.5118) scale(-1,1)"><title content="structured text">Sheet.46</title><path d="M0 80.62 L0 86.29 L5.67 86.29" class="st6"/></g><g id="shape47-122" transform="translate(227.589,-20.8425)"><title content="structured text">Sheet.47</title><desc content="structured text">SUPPDAC</desc><rect x="0" y="74.9508" width="45.3543" height="11.3386" class="st7"/><text x="4.68" y="83.02" class="st4">SUPPDAC</text></g><g id="shape49-125" transform="translate(278.612,-26.5118) scale(-1,1)"><title content="structured text">Sheet.49</title><path d="M0 80.62 L0 86.29 L5.67 86.29" class="st6"/></g><g id="shape51-128" transform="translate(21.7955,-11.8386)"><title content="structured text">Rectangle No Fill No Fill.116</title><desc content="structured text">res0</desc><rect x="0" y="74.9508" width="19.8425" height="11.3386" class="st9"/><text x="1.24" y="83.02" class="st10">RES<tspan class="st11">0</tspan></text></g><g id="shape52-132" transform="translate(11.3556,-11.8386)"><title content="structured text">Graphic.117</title><rect x="0" y="74.9508" width="10.44" height="11.3386" class="st12"/></g></g></svg>