<?xml version="1.0" encoding="UTF-8" standalone="no"?><!-- Fixed up by svgfix.xsl 1.4  --><!-- Generated by Microsoft Visio 11.0, SVG Export, v1.0 lau1457025760110_low res.svg ARM -->
<!DOCTYPE svg
  PUBLIC "-//W3C//DTD SVG 1.0//EN" "http://www.w3.org/TR/2001/REC-SVG-20010904/DTD/svg10.dtd">
<svg xmlns:xlink="http://www.w3.org/1999/xlink" xmlns="http://www.w3.org/2000/svg" xmlns:ev="http://www.w3.org/2001/xml-events" width="516.149" height="258.008" viewBox="0 0 387.112 193.506" xml:space="preserve" color-interpolation-filters="sRGB" class="st12" preserveAspectRatio="xMidYMid meet" zoomAndPan="magnify" version="1.0" contentScriptType="text/ecmascript" contentStyleType="text/css"><style type="text/css" xml:space="preserve"><![CDATA[
	
		.st1 {fill:#eed9b3;stroke:none;stroke-linecap:round;stroke-linejoin:round;stroke-width:0.2px}
		.st2 {fill:#ccdfdb;stroke:none;stroke-linecap:round;stroke-linejoin:round;stroke-width:0.2px}
		.st3 {fill:#000000;font-family:Arial,Helvetica,sans-serif;font-size:0.666664em}
		.st4 {fill:#ffffff;visibility:hidden}
		.st5 {stroke:#000000;stroke-linecap:butt;stroke-width:0.8px}
		.st6 {stroke:#000000;stroke-dasharray:0.25,1;stroke-linecap:butt;stroke-width:0.25px}
		.st7 {font-size:1em}
		.st8 {stroke:#000000;stroke-linecap:butt;stroke-width:0.5px}
		.st9 {fill:none;stroke:none;stroke-linecap:butt;stroke-width:0.499999px}
		.st10 {fill:#000000;font-family:Arial,Helvetica,sans-serif;font-size:0.533318em}
		.st11 {font-size:1.25003em}
		.st12 {fill:none;fill-rule:evenodd;font-size:12px;overflow:visible;stroke-linecap:square;stroke-miterlimit:3}]]></style><g xmlns:v="http://schemas.microsoft.com/visio/2003/SVGExtensions/"><title content="structured text">ARM</title><g id="shape32-1" transform="translate(284.162,-142.345)"><title content="structured text">Graphic.32</title><rect x="0" y="165.272" width="22.2279" height="28.2335" class="st1"/></g><g id="shape44-3" transform="translate(148.099,-142.232)"><title content="structured text">Graphic.44</title><rect x="0" y="165.272" width="10.8893" height="28.2335" class="st1"/></g><g id="shape58-5" transform="translate(102.543,-142.232)"><title content="structured text">Rectangle Fill:Soapstone.58</title><rect x="0" y="165.272" width="11.0909" height="28.2335" class="st2"/></g><g id="shape66-7" transform="translate(23.1265,-142.232)"><title content="structured text">Graphic.10</title><rect x="0" y="165.272" width="22.2279" height="28.2335" class="st1"/></g><g id="shape47-9" transform="translate(11.5863,-142.232)"><title content="structured text">Rectangle Fill:Soapstone.5</title><rect x="0" y="165.272" width="11.0909" height="28.2335" class="st2"/></g><g id="shape1-11" transform="translate(12.1386,-170.579)"><title content="structured text">Bit31</title><desc content="structured text">31</desc><text x="1.22" y="190.24" class="st3">31</text></g><g id="shape2-13" transform="translate(23.4772,-170.579)"><title content="structured text">Bit30</title><desc content="structured text">30</desc><text x="1.22" y="190.24" class="st3">30</text></g><g id="shape3-15" transform="translate(91.5087,-170.579)"><title content="structured text">Bit24</title><desc content="structured text">24</desc><text x="1.22" y="190.24" class="st3">24</text></g><g id="shape4-17" transform="translate(102.847,-170.579)"><title content="structured text">Bit23</title><desc content="structured text">23</desc><text x="1.22" y="190.24" class="st3">23</text></g><g id="shape5-19" transform="translate(114.186,-170.579)"><title content="structured text">Bit22</title><desc content="structured text">22</desc><text x="1.22" y="190.24" class="st3">22</text></g><g id="shape6-21" transform="translate(125.524,-170.579)"><title content="structured text">Bit21</title><desc content="structured text">21</desc><text x="1.22" y="190.24" class="st3">21</text></g><g id="shape7-23" transform="translate(136.863,-170.579)"><title content="structured text">Bit20</title><desc content="structured text">20</desc><text x="1.22" y="190.24" class="st3">20</text></g><g id="shape8-25" transform="translate(148.202,-170.579)"><title content="structured text">Bit19</title><desc content="structured text">19</desc><text x="1.22" y="190.24" class="st3">19</text></g><g id="shape9-27" transform="translate(159.54,-170.579)"><title content="structured text">Bit18</title><desc content="structured text">18</desc><text x="1.22" y="190.24" class="st3">18</text></g><g id="shape10-29" transform="translate(182.217,-170.579)"><title content="structured text">Bit16</title><desc content="structured text">16</desc><text x="1.22" y="190.24" class="st3">16</text></g><g id="shape11-31" transform="translate(193.556,-170.579)"><title content="structured text">Bit15</title><desc content="structured text">15</desc><text x="1.22" y="190.24" class="st3">15</text></g><g id="shape12-33" transform="translate(204.894,-170.579)"><title content="structured text">Bit14</title><desc content="structured text">14</desc><text x="1.22" y="190.24" class="st3">14</text></g><g id="shape13-35" transform="translate(216.233,-170.579)"><title content="structured text">Bit13</title><desc content="structured text">13</desc><text x="1.22" y="190.24" class="st3">13</text></g><g id="shape14-37" transform="translate(227.572,-170.579)"><title content="structured text">Bit12</title><desc content="structured text">12</desc><text x="1.22" y="190.24" class="st3">12</text></g><g id="shape15-39" transform="translate(238.91,-170.579)"><title content="structured text">Bit11</title><desc content="structured text">11</desc><text x="1.22" y="190.24" class="st3">11</text></g><g id="shape16-41" transform="translate(250.249,-170.579)"><title content="structured text">Bit10</title><desc content="structured text">10</desc><text x="1.22" y="190.24" class="st3">10</text></g><g id="shape17-43" transform="translate(261.587,-170.579)"><title content="structured text">Bit09</title><desc content="structured text">9</desc><text x="3.44" y="190.24" class="st3">9</text></g><g id="shape18-45" transform="translate(272.926,-170.579)"><title content="structured text">Bit08</title><desc content="structured text">8</desc><text x="3.44" y="190.24" class="st3">8</text></g><g id="shape19-47" transform="translate(284.265,-170.579)"><title content="structured text">Bit07</title><desc content="structured text">7</desc><text x="3.44" y="190.24" class="st3">7</text></g><g id="shape20-49" transform="translate(295.603,-170.579)"><title content="structured text">Bit06</title><desc content="structured text">6</desc><text x="3.44" y="190.24" class="st3">6</text></g><g id="shape21-51" transform="translate(306.942,-170.579)"><title content="structured text">Bit05</title><desc content="structured text">5</desc><text x="3.44" y="190.24" class="st3">5</text></g><g id="shape22-53" transform="translate(12.1386,-142.232)"><title content="structured text">MainOutline+Bit00</title><desc content="structured text">0</desc><rect x="0" y="165.159" width="362.835" height="28.3465" class="st4"/><rect x="0" y="165.159" width="362.835" height="28.3465" class="st5"/><text x="354.94" y="161.89" class="st3">0</text></g><g id="shape23-57" transform="translate(523.125,11.5886) rotate(90)"><title content="structured text">Signal 0</title><path d="M0 193.51 L11.34 193.51" class="st6"/></g><g id="shape24-60" transform="translate(477.77,11.5886) rotate(90)"><title content="structured text">Signal 0.102</title><path d="M0 193.51 L11.34 193.51" class="st6"/></g><g id="shape25-63" transform="translate(432.416,11.5886) rotate(90)"><title content="structured text">Signal 0.103</title><path d="M0 193.51 L11.34 193.51" class="st6"/></g><g id="shape26-66" transform="translate(387.062,11.5886) rotate(90)"><title content="structured text">Signal 0.104</title><path d="M0 193.51 L11.34 193.51" class="st6"/></g><g id="shape27-69" transform="translate(341.707,11.5886) rotate(90)"><title content="structured text">Signal 0.105</title><path d="M0 193.51 L11.34 193.51" class="st6"/></g><g id="shape28-72" transform="translate(296.353,11.5886) rotate(90)"><title content="structured text">Signal 0.106</title><path d="M0 193.51 L11.34 193.51" class="st6"/></g><g id="shape29-75" transform="translate(250.999,11.5886) rotate(90)"><title content="structured text">Signal 0.107</title><path d="M0 193.51 L11.34 193.51" class="st6"/></g><g id="shape30-78" transform="translate(205.644,11.5886) rotate(90)"><title content="structured text">Signal 0.108</title><path d="M0 193.51 L11.34 193.51" class="st6"/></g><g id="shape31-81" transform="translate(568.479,11.5886) rotate(90)"><title content="structured text">Signal 0.109</title><path d="M0 193.51 L11.34 193.51" class="st6"/></g><g id="shape33-84" transform="translate(261.587,-142.232)"><title content="structured text">Sheet.33</title><path d="M0 193.51 L0 165.16" class="st5"/><path d="M22.68 193.51 L22.68 165.16" class="st5"/></g><g id="shape34-88" transform="translate(216.233,-142.232)"><title content="structured text">Sheet.34</title><desc content="structured text">SH0</desc><path d="M0 193.51 L0 165.16" class="st5"/><path d="M22.68 193.51 L22.68 165.16" class="st5"/><text x="3.56" y="181.73" class="st3">SH0</text></g><g id="shape35-93" transform="translate(193.556,-142.232)"><title content="structured text">Sheet.35</title><desc content="structured text">TG0</desc><path d="M0 193.51 L0 165.16" class="st5"/><path d="M22.68 193.51 L22.68 165.16" class="st5"/><text x="3.56" y="181.73" class="st3">TG<tspan class="st7">0</tspan></text></g><g id="shape36-99" transform="translate(159.54,-142.232)"><title content="structured text">Sheet.36</title><desc content="structured text">PS0</desc><path d="M0 193.51 L0 165.16" class="st5"/><path d="M34.02 193.51 L34.02 165.16" class="st5"/><text x="9.45" y="181.73" class="st3">PS0</text></g><g id="shape37-104" transform="translate(148.202,-142.232)"><title content="structured text">Sheet.37</title><path d="M0 193.51 L0 165.16" class="st5"/><path d="M11.34 193.51 L11.34 165.16" class="st5"/></g><g id="shape38-108" transform="translate(12.1386,-142.232)"><title content="structured text">Sheet.38</title><path d="M0 193.51 L0 165.16" class="st5"/><path d="M11.34 193.51 L11.34 165.16" class="st5"/></g><g id="shape39-112" transform="translate(102.847,-142.232)"><title content="structured text">Sheet.39</title><path d="M0 193.51 L0 165.16" class="st5"/><path d="M11.34 193.51 L11.34 165.16" class="st5"/></g><g id="shape40-116" transform="translate(272.926,-133.728)"><title content="structured text">Bit name 2.110</title><desc content="structured text">IRGN0</desc><path d="M0 187.84 L0 193.51 L11.34 193.51" class="st8"/><text x="12.34" y="195.91" class="st3">IRGN0</text></g><g id="shape41-120" transform="translate(250.249,-122.39)"><title content="structured text">Bit name 2.111</title><desc content="structured text">ORGN0</desc><path d="M0 176.5 L0 193.51 L34.02 193.51" class="st8"/><text x="35.02" y="195.91" class="st3">ORGN0</text></g><g id="shape42-124" transform="translate(306.942,-142.232)"><title content="structured text">Sheet.42</title><desc content="structured text">T0SZ</desc><path d="M0 193.51 L0 165.16" class="st5"/><path d="M68.03 193.51 L68.03 165.16" class="st5"/><text x="24.24" y="181.73" class="st3">T0SZ</text></g><g id="shape43-129" transform="translate(238.91,-142.232)"><title content="structured text">Sheet.43</title><path d="M0 193.51 L0 165.16" class="st5"/><path d="M22.68 193.51 L22.68 165.16" class="st5"/></g><g id="shape45-133" transform="translate(142.532,-122.39)"><title content="structured text">Bit name 2.237</title><desc content="structured text">TBI</desc><path d="M0 176.5 L0 193.51 L22.68 193.51" class="st8"/><text x="23.68" y="195.91" class="st3">TBI</text></g><g id="shape48-137" transform="translate(136.863,-142.232)"><title content="structured text">Sheet.48</title><path d="M0 193.51 L0 165.16" class="st5"/><path d="M11.34 193.51 L11.34 165.16" class="st5"/></g><g id="shape49-141" transform="translate(79.6178,-142.232)"><title content="structured text">Sheet.49</title><path d="M0 193.51 L0 165.16" class="st5"/><path d="M11.34 193.51 L11.34 165.16" class="st5"/></g><g id="shape50-145" transform="translate(46.1543,-142.232)"><title content="structured text">Sheet.50</title><path d="M0 193.51 L0 165.16" class="st5"/><path d="M0 193.51 L0 165.16" class="st5"/></g><g id="shape51-149" transform="translate(34.8157,-170.579)"><title content="structured text">Bit30.274</title><desc content="structured text">29</desc><text x="1.22" y="190.24" class="st3">29</text></g><g id="shape52-151" transform="translate(46.1543,-170.579)"><title content="structured text">Bit30.275</title><desc content="structured text">28</desc><text x="1.22" y="190.24" class="st3">28</text></g><g id="shape53-153" transform="translate(80.1701,-170.579)"><title content="structured text">Bit23.276</title><desc content="structured text">25</desc><text x="1.22" y="190.24" class="st3">25</text></g><g id="shape54-155" transform="translate(125.524,-142.232)"><title content="structured text">Sheet.54</title><path d="M0 193.51 L0 165.16" class="st5"/><path d="M11.34 193.51 L11.34 165.16" class="st5"/></g><g id="shape46-159" transform="translate(165.209,-111.051) scale(-1,1)"><title content="structured text">Bit name 2.46</title><desc content="structured text">HA</desc><path d="M34.02 165.16 L34.02 193.51 L0 193.51" class="st8"/><text x="1" y="195.91" transform="scale(-1,1)" class="st3">HA</text></g><g id="shape57-163" transform="translate(165.209,-99.7126) scale(-1,1)"><title content="structured text">Bit name 2.57</title><desc content="structured text">HD</desc><path d="M45.35 153.82 L45.35 193.51 L0 193.51" class="st8"/><text x="1" y="195.91" transform="scale(-1,1)" class="st3">HD</text></g><g id="shape59-167" transform="translate(164.657,-88.374) scale(-1,1)"><title content="structured text">Bit name 2.59</title><desc content="structured text">HPD</desc><path d="M68.03 142.48 L68.03 193.51 L0 193.51" class="st8"/><text x="1" y="195.91" transform="scale(-1,1)" class="st3">HPD</text></g><g id="group60-171" transform="translate(14.1732,-26.0118)"><title content="structured text">Sheet.60</title><g id="shape61-172" transform="translate(11.3386,0)"><title content="structured text">Rectangle No Fill No Fill.116</title><desc content="structured text">res0</desc><rect x="0" y="182.167" width="22.6772" height="11.3386" class="st9"/><text x="3.07" y="190.24" class="st10">RES<tspan class="st11">0</tspan></text></g><g id="shape62-176"><title content="structured text">Graphic.117</title><rect x="0" y="182.167" width="11.3386" height="11.3386" class="st1"/></g></g><g id="group63-178" transform="translate(14.1732,-11.8386)"><title content="structured text">Sheet.63</title><g id="shape64-179" transform="translate(11.3386,0)"><title content="structured text">Rectangle No Fill No Fill.119</title><desc content="structured text">res1</desc><rect x="0" y="182.167" width="22.6772" height="11.3386" class="st9"/><text x="3.07" y="190.24" class="st10">RES<tspan class="st11">1</tspan></text></g><g id="shape65-183"><title content="structured text">Rectangle Fill:Soapstone.120</title><rect x="0" y="182.167" width="11.3386" height="11.3386" class="st2"/></g></g><g id="shape55-185" transform="translate(56.6929,-142.232)"><title content="structured text">Sheet.55</title><path d="M0 193.51 L0 165.16" class="st5"/><path d="M11.34 193.51 L11.34 165.16" class="st5"/></g><g id="shape56-189" transform="translate(56.9406,-170.579)"><title content="structured text">Bit23.56</title><desc content="structured text">27</desc><text x="1.22" y="190.24" class="st3">27</text></g><g id="shape67-191" transform="translate(68.2792,-170.579)"><title content="structured text">Bit23.67</title><desc content="structured text">26</desc><text x="1.22" y="190.24" class="st3">26</text></g><g id="shape68-193" transform="translate(164.657,-77.0354) scale(-1,1)"><title content="structured text">Bit name 2.68</title><desc content="structured text">HWU59</desc><path d="M79.37 131.14 L79.37 193.51 L0 193.51" class="st8"/><text x="1" y="195.91" transform="scale(-1,1)" class="st3">HWU59</text></g><g id="shape69-197" transform="translate(164.657,-65.6968) scale(-1,1)"><title content="structured text">Bit name 2.69</title><desc content="structured text">HWU60</desc><path d="M90.71 119.81 L90.71 193.51 L0 193.51" class="st8"/><text x="1" y="195.91" transform="scale(-1,1)" class="st3">HWU60</text></g><g id="shape70-201" transform="translate(164.657,-54.3583) scale(-1,1)"><title content="structured text">Bit name 2.70</title><desc content="structured text">HWU61</desc><path d="M102.05 108.47 L102.05 193.51 L0 193.51" class="st8"/><text x="1" y="195.91" transform="scale(-1,1)" class="st3">HWU61</text></g><g id="shape71-205" transform="translate(164.657,-43.0197) scale(-1,1)"><title content="structured text">Bit name 2.71</title><desc content="structured text">HWU62</desc><path d="M113.39 97.13 L113.39 193.51 L0 193.51" class="st8"/><text x="1" y="195.91" transform="scale(-1,1)" class="st3">HWU62</text></g></g></svg>