<?xml version="1.0" encoding="UTF-8" standalone="no"?><!-- Fixed up by svgfix.xsl 1.4  --><!-- Generated by Microsoft Visio 11.0, SVG Export, v1.0 dbgwcrn_el1_64_bit_assignments.svg ARM -->
<!DOCTYPE svg
  PUBLIC "-//W3C//DTD SVG 1.0//EN" "http://www.w3.org/TR/2001/REC-SVG-20010904/DTD/svg10.dtd">
<svg xmlns:xlink="http://www.w3.org/1999/xlink" xmlns="http://www.w3.org/2000/svg" xmlns:ev="http://www.w3.org/2001/xml-events" width="516.149" height="114.386" viewBox="0 0 387.112 85.789" xml:space="preserve" color-interpolation-filters="sRGB" class="st13" preserveAspectRatio="xMidYMid meet" zoomAndPan="magnify" version="1.0" contentScriptType="text/ecmascript" contentStyleType="text/css"><style type="text/css" xml:space="preserve"><![CDATA[
	
		.st1 {fill:#eed9b3;stroke:#000000;stroke-linecap:butt;stroke-width:0.5px}
		.st2 {fill:none;stroke:none;stroke-linecap:round;stroke-linejoin:round;stroke-width:0.2px}
		.st3 {fill:#000000;font-family:Arial,Helvetica,sans-serif;font-size:0.666664em}
		.st4 {fill:#ffffff;visibility:hidden}
		.st5 {stroke:#000000;stroke-linecap:butt;stroke-width:0.8px}
		.st6 {stroke:#000000;stroke-dasharray:0.25,0.5;stroke-linecap:butt;stroke-width:0.25px}
		.st7 {stroke:#000000;stroke-linecap:butt;stroke-width:0.5px}
		.st8 {fill:none;stroke:none;stroke-linecap:butt;stroke-width:0.5px}
		.st9 {fill:none;stroke:none;stroke-linecap:butt;stroke-width:0.499999px}
		.st10 {fill:#000000;font-family:Arial,Helvetica,sans-serif;font-size:0.533318em}
		.st11 {font-size:1.25003em}
		.st12 {fill:#eed9b3;stroke:none;stroke-linecap:round;stroke-linejoin:round;stroke-width:0.2px}
		.st13 {fill:none;fill-rule:evenodd;font-size:12px;overflow:visible;stroke-linecap:square;stroke-miterlimit:3}]]></style><g xmlns:v="http://schemas.microsoft.com/visio/2003/SVGExtensions/"><title content="structured text">ARM</title><g id="shape44-1" transform="translate(102.898,-34.5827)"><title content="structured text">Sheet.44</title><rect x="0" y="57.4429" width="34.0157" height="28.3465" class="st1"/></g><g id="shape43-3" transform="translate(12.189,-34.5827)"><title content="structured text">Sheet.43</title><rect x="0" y="57.4429" width="34.0157" height="28.3465" class="st1"/></g><g id="shape1-5" transform="translate(227.572,-34.5157)"><title content="structured text">Sheet.1</title><desc content="structured text">BAS</desc><rect x="0" y="57.4429" width="90.7087" height="28.3465" class="st2"/><text x="37.35" y="74.02" class="st3">BAS</text></g><g id="group2-8" transform="translate(12.1386,-34.5157)"><title content="structured text">32-bit register</title><g id="shape3-9" transform="translate(8.49321E-014,-28.3465)"><title content="structured text">Sheet.3</title><desc content="structured text">31</desc><text x="1.22" y="82.52" class="st3">31</text></g><g id="shape4-11" transform="translate(22.6772,-28.3465)"><title content="structured text">Sheet.4</title><desc content="structured text">29</desc><text x="1.22" y="82.52" class="st3">29</text></g><g id="shape5-13" transform="translate(34.0157,-28.3465)"><title content="structured text">Sheet.5</title><desc content="structured text">28</desc><text x="1.22" y="82.52" class="st3">28</text></g><g id="shape6-15" transform="translate(79.3701,-28.3465)"><title content="structured text">Sheet.6</title><desc content="structured text">24</desc><text x="1.22" y="82.52" class="st3">24</text></g><g id="shape7-17" transform="translate(90.7087,-28.3465)"><title content="structured text">Sheet.7</title><desc content="structured text">23</desc><text x="1.22" y="82.52" class="st3">23</text></g><g id="shape8-19" transform="translate(113.386,-28.3465)"><title content="structured text">Sheet.8</title><desc content="structured text">21</desc><text x="1.22" y="82.52" class="st3">21</text></g><g id="shape9-21" transform="translate(124.724,-28.3465)"><title content="structured text">Sheet.9</title><desc content="structured text">20</desc><text x="1.22" y="82.52" class="st3">20</text></g><g id="shape10-23" transform="translate(136.063,-28.3465)"><title content="structured text">Sheet.10</title><desc content="structured text">19</desc><text x="1.22" y="82.52" class="st3">19</text></g><g id="shape11-25" transform="translate(170.079,-28.3465)"><title content="structured text">Sheet.11</title><desc content="structured text">16</desc><text x="1.22" y="82.52" class="st3">16</text></g><g id="shape12-27" transform="translate(181.417,-28.3465)"><title content="structured text">Sheet.12</title><desc content="structured text">15</desc><text x="1.22" y="82.52" class="st3">15</text></g><g id="shape13-29" transform="translate(192.756,-28.3465)"><title content="structured text">Sheet.13</title><desc content="structured text">14</desc><text x="1.22" y="82.52" class="st3">14</text></g><g id="shape14-31" transform="translate(204.094,-28.3465)"><title content="structured text">Sheet.14</title><desc content="structured text">13</desc><text x="1.22" y="82.52" class="st3">13</text></g><g id="shape15-33" transform="translate(215.433,-28.3465)"><title content="structured text">Sheet.15</title><desc content="structured text">12</desc><text x="1.22" y="82.52" class="st3">12</text></g><g id="shape16-35" transform="translate(294.803,-28.3465)"><title content="structured text">Sheet.16</title><desc content="structured text">5</desc><text x="3.44" y="82.52" class="st3">5</text></g><g id="shape17-37" transform="translate(306.142,-28.3465)"><title content="structured text">Sheet.17</title><desc content="structured text">4</desc><text x="3.44" y="82.52" class="st3">4</text></g><g id="shape18-39" transform="translate(317.48,-28.3465)"><title content="structured text">Sheet.18</title><desc content="structured text">3</desc><text x="3.44" y="82.52" class="st3">3</text></g><g id="shape19-41" transform="translate(328.819,-28.3465)"><title content="structured text">Sheet.19</title><desc content="structured text">2</desc><text x="3.44" y="82.52" class="st3">2</text></g><g id="shape20-43" transform="translate(340.157,-28.3465)"><title content="structured text">Sheet.20</title><desc content="structured text">1</desc><text x="3.44" y="82.52" class="st3">1</text></g><g id="shape21-45" transform="translate(351.496,-28.3465)"><title content="structured text">Sheet.21</title><desc content="structured text">0</desc><text x="3.44" y="82.52" class="st3">0</text></g><g id="shape22-47"><title content="structured text">Sheet.22</title><rect x="0" y="57.4429" width="362.835" height="28.3465" class="st4"/><rect x="0" y="57.4429" width="362.835" height="28.3465" class="st5"/></g><g id="shape23-50" transform="translate(34.0157,-1.42109E-014)"><title content="structured text">Sheet.23</title><path d="M0 57.44 L0 85.79" class="st5"/></g><g id="shape24-53" transform="translate(90.7087,-1.42109E-014)"><title content="structured text">Sheet.24</title><path d="M0 57.44 L0 85.79" class="st5"/></g><g id="shape25-56" transform="translate(124.724,-1.42109E-014)"><title content="structured text">Sheet.25</title><path d="M0 57.44 L0 85.79" class="st5"/></g><g id="shape26-59" transform="translate(136.063,-1.42109E-014)"><title content="structured text">Sheet.26</title><path d="M0 57.44 L0 85.79" class="st5"/></g><g id="shape27-62" transform="translate(181.417,-1.42109E-014)"><title content="structured text">Sheet.27</title><path d="M0 57.44 L0 85.79" class="st5"/></g><g id="shape28-65" transform="translate(204.094,-1.42109E-014)"><title content="structured text">Sheet.28</title><path d="M0 57.44 L0 85.79" class="st5"/></g><g id="shape29-68" transform="translate(215.433,-1.42109E-014)"><title content="structured text">Sheet.29</title><path d="M0 57.44 L0 85.79" class="st5"/></g><g id="shape30-71" transform="translate(306.142,-1.42109E-014)"><title content="structured text">Sheet.30</title><path d="M0 57.44 L0 85.79" class="st5"/></g><g id="shape31-74" transform="translate(328.819,-1.42109E-014)"><title content="structured text">Sheet.31</title><path d="M0 57.44 L0 85.79" class="st5"/></g><g id="shape32-77" transform="translate(351.496,-1.42109E-014)"><title content="structured text">Sheet.32</title><path d="M0 57.44 L0 85.79" class="st5"/></g><g id="shape33-80" transform="translate(403.27,46.1043) rotate(90)"><title content="structured text">Signal 0</title><path d="M0 85.79 L11.34 85.79" class="st6"/></g><g id="shape34-83" transform="translate(357.915,46.1043) rotate(90)"><title content="structured text">Signal 0.102</title><path d="M0 85.79 L11.34 85.79" class="st6"/></g><g id="shape35-86" transform="translate(312.561,46.1043) rotate(90)"><title content="structured text">Signal 0.103</title><path d="M0 85.79 L11.34 85.79" class="st6"/></g><g id="shape36-89" transform="translate(267.207,46.1043) rotate(90)"><title content="structured text">Signal 0.104</title><path d="M0 85.79 L11.34 85.79" class="st6"/></g><g id="shape37-92" transform="translate(221.852,46.1043) rotate(90)"><title content="structured text">Signal 0.105</title><path d="M0 85.79 L11.34 85.79" class="st6"/></g><g id="shape38-95" transform="translate(176.498,46.1043) rotate(90)"><title content="structured text">Signal 0.106</title><path d="M0 85.79 L11.34 85.79" class="st6"/></g><g id="shape39-98" transform="translate(131.144,46.1043) rotate(90)"><title content="structured text">Signal 0.107</title><path d="M0 85.79 L11.34 85.79" class="st6"/></g><g id="shape40-101" transform="translate(85.7894,46.1043) rotate(90)"><title content="structured text">Signal 0.108</title><path d="M0 85.79 L11.34 85.79" class="st6"/></g><g id="shape41-104" transform="translate(448.624,46.1043) rotate(90)"><title content="structured text">Signal 0.109</title><path d="M0 85.79 L11.34 85.79" class="st6"/></g></g><g id="shape46-107" transform="translate(228.322,59.7776) rotate(90) scale(-1,1)"><title content="structured text">Sheet.46</title><path d="M0 74.45 L0 85.79 L5.67 85.79" class="st7"/></g><g id="shape47-110" transform="translate(153.871,-20.3425)"><title content="structured text">Sheet.47</title><desc content="structured text">WT</desc><rect x="0" y="74.4508" width="17.0079" height="11.3386" class="st8"/><text x="1" y="82.52" class="st3">WT</text></g><g id="shape48-113" transform="translate(193.556,-34.5157)"><title content="structured text">Sheet.48</title><desc content="structured text">SSC</desc><rect x="0" y="57.4429" width="22.6772" height="28.3465" class="st8"/><text x="3.11" y="74.02" class="st3">SSC</text></g><g id="shape49-116" transform="translate(318.28,-34.5157)"><title content="structured text">Sheet.49</title><desc content="structured text">LSC</desc><rect x="0" y="57.4429" width="22.6772" height="28.3465" class="st8"/><text x="3.56" y="74.02" class="st3">LSC</text></g><g id="shape50-119" transform="translate(46.1543,-34.5157)"><title content="structured text">Sheet.50</title><desc content="structured text">MASK</desc><rect x="0" y="57.4429" width="56.6929" height="28.3465" class="st8"/><text x="17.01" y="74.02" class="st3">MASK</text></g><g id="shape51-122" transform="translate(148.202,-34.5157)"><title content="structured text">Sheet.51</title><desc content="structured text">LBN</desc><rect x="0" y="57.4429" width="45.3543" height="28.3465" class="st8"/><text x="14.9" y="74.02" class="st3">LBN</text></g><g id="shape52-125" transform="translate(221.902,-26.0118)"><title content="structured text">Sheet.52</title><path d="M0 80.12 L0 85.79 L11.34 85.79" class="st7"/></g><g id="shape53-128" transform="translate(233.241,-20.3425)"><title content="structured text">Sheet.53</title><desc content="structured text">HMC</desc><rect x="0" y="74.4508" width="22.6772" height="11.3386" class="st8"/><text x="1" y="82.52" class="st3">HMC</text></g><g id="shape54-131" transform="translate(340.957,-34.5157)"><title content="structured text">Sheet.54</title><desc content="structured text">PAC</desc><rect x="0" y="57.4429" width="22.6772" height="28.3465" class="st8"/><text x="3.11" y="74.02" class="st3">PAC</text></g><g id="shape42-134" transform="translate(363.635,-34.5157)"><title content="structured text">Sheet.42</title><desc content="structured text">E</desc><rect x="0" y="57.4429" width="11.3386" height="28.3465" class="st8"/><text x="3" y="74.02" class="st3">E</text></g><g id="shape58-137" transform="translate(22.5786,-11.8386)"><title content="structured text">Rectangle No Fill No Fill.116</title><desc content="structured text">res0</desc><rect x="0" y="74.4508" width="19.8425" height="11.3386" class="st9"/><text x="1.24" y="82.52" class="st10">RES<tspan class="st11">0</tspan></text></g><g id="shape59-141" transform="translate(12.1386,-11.8386)"><title content="structured text">Graphic.117</title><rect x="0" y="74.4508" width="10.44" height="11.3386" class="st12"/></g></g></svg>