<?xml version="1.0" encoding="UTF-8" standalone="no"?><!-- Fixed up by svgfix.xsl 1.4  --><!-- Generated by Microsoft Visio 11.0, SVG Export, v1.0 lau1464774658756_LowRes.svg ARM -->
<!DOCTYPE svg
  PUBLIC "-//W3C//DTD SVG 1.0//EN" "http://www.w3.org/TR/2001/REC-SVG-20010904/DTD/svg10.dtd">
<svg xmlns:xlink="http://www.w3.org/1999/xlink" xmlns="http://www.w3.org/2000/svg" xmlns:ev="http://www.w3.org/2001/xml-events" width="523.438" height="117.498" viewBox="0 0 392.579 88.124" xml:space="preserve" color-interpolation-filters="sRGB" class="st13" preserveAspectRatio="xMidYMid meet" zoomAndPan="magnify" version="1.0" contentScriptType="text/ecmascript" contentStyleType="text/css"><style type="text/css" xml:space="preserve"><![CDATA[
	
		.st1 {fill:#eed9b3;stroke:none;stroke-linecap:round;stroke-linejoin:round;stroke-width:0.2px}
		.st2 {fill:#ffffff;visibility:hidden}
		.st3 {stroke:#000000;stroke-linecap:butt;stroke-width:0.8px}
		.st4 {stroke:#000000;stroke-dasharray:0.25,1;stroke-linecap:butt;stroke-width:0.25px}
		.st5 {fill:#000000;font-family:Arial,Helvetica,sans-serif;font-size:0.666664em}
		.st6 {fill:#ffffff;stroke:none;stroke-linecap:butt;stroke-width:0.5px}
		.st7 {stroke:#000000;stroke-linecap:butt;stroke-width:0.5px}
		.st8 {fill:none;stroke:none;stroke-linecap:butt;stroke-width:0.499999px}
		.st9 {fill:#000000;font-family:Arial,Helvetica,sans-serif;font-size:0.533318em}
		.st10 {font-size:1.25003em}
		.st11 {fill:#eed9b3;stroke:none;stroke-linecap:round;stroke-linejoin:round;stroke-width:0.2px}
		.st12 {fill:none;stroke:none;stroke-linecap:butt;stroke-width:0.5px}
		.st13 {fill:none;fill-rule:evenodd;font-size:12px;overflow:visible;stroke-linecap:square;stroke-miterlimit:3}]]></style><g xmlns:v="http://schemas.microsoft.com/visio/2003/SVGExtensions/"><title content="structured text">ARM</title><g id="shape2-1" transform="translate(12.1386,-36.8504)"><title content="structured text">Sheet.2</title><rect x="0" y="59.7776" width="345.827" height="28.3465" class="st1"/></g><g id="shape4-3" transform="translate(12.1386,-36.8504)"><title content="structured text">Sheet.4</title><rect x="0" y="59.7776" width="368.301" height="28.3465" class="st2"/><rect x="0" y="59.7776" width="368.301" height="28.3465" class="st3"/></g><g id="shape5-6" transform="translate(468.767,11.5886) rotate(90)"><title content="structured text">Signal 0.109</title><path d="M0 88.12 L11.34 88.12" class="st4"/></g><g id="shape6-9" transform="translate(423.412,11.5886) rotate(90)"><title content="structured text">Signal 0.80</title><path d="M0 88.12 L11.34 88.12" class="st4"/></g><g id="shape7-12" transform="translate(378.058,11.5886) rotate(90)"><title content="structured text">Signal 0.81</title><path d="M0 88.12 L11.34 88.12" class="st4"/></g><g id="shape8-15" transform="translate(420.73,5.20227) rotate(45)"><title content="structured text">Signal 0.82</title><path d="M0 88.12 L1.08 88.12" class="st4"/></g><g id="shape9-18" transform="translate(332.704,11.5886) rotate(90)"><title content="structured text">Signal 0.83</title><path d="M0 88.12 L11.34 88.12" class="st4"/></g><g id="shape10-21" transform="translate(310.026,11.5886) rotate(90)"><title content="structured text">Signal 0.84</title><path d="M0 88.12 L11.34 88.12" class="st4"/></g><g id="shape11-24" transform="translate(355.381,11.5886) rotate(90)"><title content="structured text">Signal 0.85</title><path d="M0 88.12 L11.34 88.12" class="st4"/></g><g id="shape12-27" transform="translate(215.983,23.383) rotate(-90)"><title content="structured text">Signal 0.86</title><path d="M0 88.12 L0.01 88.12" class="st4"/></g><g id="shape13-30" transform="translate(100.263,11.5886) rotate(90)"><title content="structured text">Signal 0.87</title><path d="M0 88.12 L11.34 88.12" class="st4"/></g><g id="shape14-33" transform="translate(12.1386,-65.1969)"><title content="structured text">Bit01.88</title><desc content="structured text">63</desc><text x="1.22" y="84.85" class="st5">63</text></g><g id="shape15-35" transform="translate(400.735,11.5886) rotate(90)"><title content="structured text">Signal 0.91</title><path d="M0 88.12 L11.34 88.12" class="st4"/></g><g id="shape16-38" transform="translate(368.899,-65.1969)"><title content="structured text">Bit01.1</title><desc content="structured text">0</desc><text x="3.44" y="84.85" class="st5">0</text></g><g id="shape17-40" transform="translate(357.965,-36.8504)"><title content="structured text">Sheet.17</title><path d="M0 59.78 L0 88.12" class="st3"/></g><g id="group23-43" transform="translate(183.635,-33.5718)"><title content="structured text">Sheet.23</title><g id="group24-44" transform="translate(0,-28.3465)"><title content="structured text">Sheet.24</title><g id="shape25-45" transform="translate(0.566929,4.26326E-014)"><title content="structured text">Sheet.25</title><rect x="0" y="82.4547" width="1.88976" height="5.66929" class="st6"/></g><g id="shape26-47" transform="translate(89.3539,96.8746) rotate(99.4623)"><title content="structured text">Sheet.26</title><path d="M0 87.71 C0.15 87.92 0.72 88.09 1.15 88.12 C1.58 88.15 1.86 88.04 2.34 87.81 C2.63 87.67 2.98 87.48          3.29 87.36 C4.56 86.86 5.03 87.41 5.75 87.71" class="st7"/></g><g id="shape27-50" transform="translate(87.4642,96.8746) rotate(99.4623)"><title content="structured text">Sheet.27</title><path d="M0 87.71 C0.15 87.92 0.72 88.09 1.15 88.12 C1.58 88.15 1.86 88.04 2.34 87.81 C2.63 87.67 2.98 87.48          3.29 87.36 C4.56 86.86 5.03 87.41 5.75 87.71" class="st7"/></g></g><g id="group28-53"><title content="structured text">Sheet.28</title><g id="shape29-54" transform="translate(0.566929,4.26326E-014)"><title content="structured text">Sheet.29</title><rect x="0" y="82.4547" width="1.88976" height="5.66929" class="st6"/></g><g id="shape30-56" transform="translate(89.3539,96.8746) rotate(99.4623)"><title content="structured text">Sheet.30</title><path d="M0 87.71 C0.15 87.92 0.72 88.09 1.15 88.12 C1.58 88.15 1.86 88.04 2.34 87.81 C2.63 87.67 2.98 87.48          3.29 87.36 C4.56 86.86 5.03 87.41 5.75 87.71" class="st7"/></g><g id="shape31-59" transform="translate(87.4642,96.8746) rotate(99.4623)"><title content="structured text">Sheet.31</title><path d="M0 87.71 C0.15 87.92 0.72 88.09 1.15 88.12 C1.58 88.15 1.86 88.04 2.34 87.81 C2.63 87.67 2.98 87.48          3.29 87.36 C4.56 86.86 5.03 87.41 5.75 87.71" class="st7"/></g></g></g><g id="group41-62" transform="translate(12.1386,-11.8386)"><title content="structured text">Sheet.41</title><g id="shape42-63" transform="translate(11.3386,0)"><title content="structured text">Rectangle No Fill No Fill.116</title><desc content="structured text">res0</desc><rect x="0" y="76.7854" width="22.6772" height="11.3386" class="st8"/><text x="3.07" y="84.85" class="st9">RES<tspan class="st10">0</tspan></text></g><g id="shape43-67"><title content="structured text">Graphic.117</title><rect x="0" y="76.7854" width="11.3386" height="11.3386" class="st11"/></g></g><g id="shape44-69" transform="translate(357.965,-65.1969)"><title content="structured text">Bit01.44</title><desc content="structured text">1</desc><text x="3.44" y="84.85" class="st5">1</text></g><g id="shape45-71" transform="translate(346.627,-65.1969)"><title content="structured text">Bit01.45</title><desc content="structured text">2</desc><text x="3.44" y="84.85" class="st5">2</text></g><g id="shape1-73" transform="translate(357.965,-36.8504)"><title content="structured text">Sheet.1</title><desc content="structured text">Num</desc><rect x="0" y="59.7776" width="22.6772" height="28.3465" class="st12"/><text x="2.89" y="76.35" class="st5">Num</text></g><g id="shape174-76" transform="translate(287.349,11.5886) rotate(90)"><title content="structured text">Signal 0.174</title><path d="M0 88.12 L11.34 88.12" class="st4"/></g><g id="shape175-79" transform="translate(264.672,11.5886) rotate(90)"><title content="structured text">Signal 0.175</title><path d="M0 88.12 L11.34 88.12" class="st4"/></g><g id="shape176-82" transform="translate(241.995,11.5886) rotate(90)"><title content="structured text">Signal 0.176</title><path d="M0 88.12 L11.34 88.12" class="st4"/></g><g id="shape177-85" transform="translate(219.318,11.5886) rotate(90)"><title content="structured text">Signal 0.177</title><path d="M0 88.12 L11.34 88.12" class="st4"/></g><g id="shape178-88" transform="translate(196.641,11.5886) rotate(90)"><title content="structured text">Signal 0.178</title><path d="M0 88.12 L11.34 88.12" class="st4"/></g><g id="shape179-91" transform="translate(173.963,11.5886) rotate(90)"><title content="structured text">Signal 0.179</title><path d="M0 88.12 L11.34 88.12" class="st4"/></g><g id="shape180-94" transform="translate(151.286,11.5886) rotate(90)"><title content="structured text">Signal 0.180</title><path d="M0 88.12 L11.34 88.12" class="st4"/></g><g id="shape181-97" transform="translate(128.609,11.5886) rotate(90)"><title content="structured text">Signal 0.181</title><path d="M0 88.12 L11.34 88.12" class="st4"/></g></g></svg>