<?xml version="1.0" encoding="UTF-8" standalone="no"?><!-- Fixed up by svgfix.xsl 1.4  --><!-- Generated by Microsoft Visio 11.0, SVG Export, v1.0 id_mmfr2_bit_assignments.svg Page-1 -->
<!DOCTYPE svg
  PUBLIC "-//W3C//DTD SVG 1.0//EN" "http://www.w3.org/TR/2001/REC-SVG-20010904/DTD/svg10.dtd">
<svg xmlns:xlink="http://www.w3.org/1999/xlink" xmlns="http://www.w3.org/2000/svg" width="485.913" height="54.313" viewBox="0 0 364.435 40.735" xml:space="preserve" color-interpolation-filters="sRGB" class="st6" preserveAspectRatio="xMidYMid meet" zoomAndPan="magnify" version="1.0" contentScriptType="text/ecmascript" contentStyleType="text/css"><style type="text/css" xml:space="preserve"><![CDATA[
	
		.st1 {fill:#000000;font-family:Arial,Helvetica,sans-serif;font-size:0.666664em}
		.st2 {fill:none;stroke:none;stroke-linecap:round;stroke-linejoin:round;stroke-width:0.2px}
		.st3 {fill:none;visibility:hidden}
		.st4 {stroke:#000000;stroke-linecap:butt;stroke-width:0.8px}
		.st5 {stroke:#000000;stroke-dasharray:0.25,0.5;stroke-linecap:butt;stroke-width:0.25px}
		.st6 {fill:none;fill-rule:evenodd;font-size:12px;overflow:visible;stroke-linecap:square;stroke-miterlimit:3}]]></style><g xmlns:v="http://schemas.microsoft.com/visio/2003/SVGExtensions/"><title content="structured text">Page-1</title><g id="shape1-1" transform="translate(0.0913386,-29.1465)"><title content="structured text">Sheet.1</title><desc content="structured text">31</desc><text x="1.22" y="37.47" class="st1">31</text></g><g id="shape2-3" transform="translate(215.879,-29.1465)"><title content="structured text">Sheet.2</title><desc content="structured text">12</desc><text x="1.22" y="37.47" class="st1">12</text></g><g id="shape3-5" transform="translate(227.217,-29.1465)"><title content="structured text">Sheet.3</title><desc content="structured text">11</desc><text x="1.22" y="37.47" class="st1">11</text></g><g id="shape4-7" transform="translate(261.233,-29.1465)"><title content="structured text">Sheet.4</title><desc content="structured text">8</desc><text x="3.44" y="37.47" class="st1">8</text></g><g id="shape5-9" transform="translate(272.572,-29.1465)"><title content="structured text">Sheet.5</title><desc content="structured text">7</desc><text x="3.44" y="37.47" class="st1">7</text></g><g id="shape6-11" transform="translate(351.942,-29.1465)"><title content="structured text">Sheet.6</title><desc content="structured text">0</desc><text x="3.44" y="37.47" class="st1">0</text></g><g id="shape7-13" transform="translate(0.445669,-0.8)"><title content="structured text">Sheet.7</title><desc content="structured text">HWAccFlg</desc><rect x="0" y="12.3886" width="45.3543" height="28.3465" class="st2"/><text x="3.79" y="28.96" class="st1">HWAccFlg</text></g><g id="shape9-16" transform="translate(0.8,-0.8)"><title content="structured text">Sheet.9</title><rect x="0" y="12.3886" width="362.835" height="28.3465" class="st3"/><rect x="0" y="12.3886" width="362.835" height="28.3465" class="st4"/></g><g id="shape10-19" transform="translate(227.217,-0.8)"><title content="structured text">Sheet.10</title><path d="M0 12.39 L0 40.74" class="st4"/></g><g id="shape11-22" transform="translate(272.572,-0.8)"><title content="structured text">Sheet.11</title><path d="M0 12.39 L0 40.74" class="st4"/></g><g id="shape12-25" transform="translate(358.661,0.25) rotate(90)"><title content="structured text">Signal 0</title><path d="M0 40.74 L11.34 40.74" class="st5"/></g><g id="shape13-28" transform="translate(313.307,0.25) rotate(90)"><title content="structured text">Signal 0.102</title><path d="M0 40.74 L11.34 40.74" class="st5"/></g><g id="shape14-31" transform="translate(267.952,0.25) rotate(90)"><title content="structured text">Signal 0.103</title><path d="M0 40.74 L11.34 40.74" class="st5"/></g><g id="shape15-34" transform="translate(222.598,0.25) rotate(90)"><title content="structured text">Signal 0.104</title><path d="M0 40.74 L11.34 40.74" class="st5"/></g><g id="shape16-37" transform="translate(177.244,0.25) rotate(90)"><title content="structured text">Signal 0.105</title><path d="M0 40.74 L11.34 40.74" class="st5"/></g><g id="shape17-40" transform="translate(131.889,0.25) rotate(90)"><title content="structured text">Signal 0.106</title><path d="M0 40.74 L11.34 40.74" class="st5"/></g><g id="shape18-43" transform="translate(86.535,0.25) rotate(90)"><title content="structured text">Signal 0.107</title><path d="M0 40.74 L11.34 40.74" class="st5"/></g><g id="shape19-46" transform="translate(41.1807,0.25) rotate(90)"><title content="structured text">Signal 0.108</title><path d="M0 40.74 L11.34 40.74" class="st5"/></g><g id="shape20-49" transform="translate(404.015,0.25) rotate(90)"><title content="structured text">Signal 0.109</title><path d="M0 40.74 L11.34 40.74" class="st5"/></g><g id="shape21-52" transform="translate(306.587,-29.1465)"><title content="structured text">32-bit register.215</title><desc content="structured text">4</desc><text x="3.44" y="37.47" class="st1">4</text></g><g id="shape22-54" transform="translate(317.926,-29.1465)"><title content="structured text">32-bit register.216</title><desc content="structured text">3</desc><text x="3.44" y="37.47" class="st1">3</text></g><g id="shape23-56" transform="translate(317.926,-0.8)"><title content="structured text">Sheet.23</title><path d="M0 12.39 L0 40.74" class="st4"/></g><g id="shape27-59" transform="translate(34.4614,-29.1465)"><title content="structured text">32-bit register.323</title><desc content="structured text">28</desc><text x="1.22" y="37.47" class="st1">28</text></g><g id="shape28-61" transform="translate(45.8,-0.8)"><title content="structured text">32-bit register.324</title><path d="M0 12.39 L0 40.74" class="st4"/></g><g id="shape29-64" transform="translate(45.8,-29.1465)"><title content="structured text">32-bit register.325</title><desc content="structured text">27</desc><text x="1.22" y="37.47" class="st1">27</text></g><g id="shape30-66" transform="translate(79.8157,-29.1465)"><title content="structured text">32-bit register.326</title><desc content="structured text">24</desc><text x="1.22" y="37.47" class="st1">24</text></g><g id="shape31-68" transform="translate(91.1543,-0.8)"><title content="structured text">32-bit register.327</title><path d="M0 12.39 L0 40.74" class="st4"/></g><g id="shape32-71" transform="translate(90.8,-29.1465)"><title content="structured text">32-bit register.328</title><desc content="structured text">23</desc><text x="1.22" y="37.47" class="st1">23</text></g><g id="shape33-73" transform="translate(124.816,-29.1465)"><title content="structured text">32-bit register.329</title><desc content="structured text">20</desc><text x="1.22" y="37.47" class="st1">20</text></g><g id="shape34-75" transform="translate(136.509,-0.8)"><title content="structured text">32-bit register.330</title><path d="M0 12.39 L0 40.74" class="st4"/></g><g id="shape35-78" transform="translate(136.154,-29.1465)"><title content="structured text">32-bit register.331</title><desc content="structured text">19</desc><text x="1.22" y="37.47" class="st1">19</text></g><g id="shape36-80" transform="translate(170.17,-29.1465)"><title content="structured text">32-bit register.332</title><desc content="structured text">16</desc><text x="1.22" y="37.47" class="st1">16</text></g><g id="shape37-82" transform="translate(181.863,-0.8)"><title content="structured text">32-bit register.333</title><path d="M0 12.39 L0 40.74" class="st4"/></g><g id="shape38-85" transform="translate(181.509,-29.1465)"><title content="structured text">32-bit register.334</title><desc content="structured text">15</desc><text x="1.22" y="37.47" class="st1">15</text></g><g id="shape50-87" transform="translate(45.8,-0.8)"><title content="structured text">Sheet.50</title><desc content="structured text">WFIStall</desc><rect x="0" y="12.3886" width="45.3543" height="28.3465" class="st2"/><text x="7.57" y="28.96" class="st1">WFIStall</text></g><g id="shape51-90" transform="translate(91.1543,-0.8)"><title content="structured text">Sheet.51</title><desc content="structured text">MemBarr</desc><rect x="0" y="12.3886" width="45.3543" height="28.3465" class="st2"/><text x="6.23" y="28.96" class="st1">MemBarr</text></g><g id="shape52-93" transform="translate(136.509,-0.8)"><title content="structured text">Sheet.52</title><desc content="structured text">UniTLB</desc><rect x="0" y="12.3886" width="45.3543" height="28.3465" class="st2"/><text x="9.34" y="28.96" class="st1">UniTLB</text></g><g id="shape53-96" transform="translate(181.863,-0.8)"><title content="structured text">Sheet.53</title><desc content="structured text">HvdTLB</desc><rect x="0" y="12.3886" width="45.3543" height="28.3465" class="st2"/><text x="8.23" y="28.96" class="st1">HvdTLB</text></g><g id="shape54-99" transform="translate(227.217,-0.8)"><title content="structured text">Sheet.54</title><desc content="structured text">LL1HvdRng</desc><rect x="0" y="12.3886" width="45.3543" height="28.3465" class="st2"/><text x="1.55" y="28.96" class="st1">LL1HvdRng</text></g><g id="shape55-102" transform="translate(272.572,-0.8)"><title content="structured text">Sheet.55</title><desc content="structured text">L1HvdBG</desc><rect x="0" y="12.3886" width="45.3543" height="28.3465" class="st2"/><text x="5.34" y="28.96" class="st1">L1HvdBG</text></g><g id="shape56-105" transform="translate(317.926,-0.8)"><title content="structured text">Sheet.56</title><desc content="structured text">L1HvdFG</desc><rect x="0" y="12.3886" width="45.3543" height="28.3465" class="st2"/><text x="5.56" y="28.96" class="st1">L1HvdFG</text></g></g></svg>