<?xml version="1.0" encoding="UTF-8" standalone="no"?><!-- Fixed up by svgfix.xsl 1.4  --><!-- Generated by Microsoft Visio, SVG Export lau1443445606345_LowRes.svg ARM -->
<!DOCTYPE svg
  PUBLIC "-//W3C//DTD SVG 1.0//EN" "http://www.w3.org/TR/2001/REC-SVG-20010904/DTD/svg10.dtd">
<svg xmlns:xlink="http://www.w3.org/1999/xlink" xmlns="http://www.w3.org/2000/svg" xmlns:ev="http://www.w3.org/2001/xml-events" width="516.149" height="102.392" viewBox="0 0 387.112 76.794" xml:space="preserve" color-interpolation-filters="sRGB" class="st8" preserveAspectRatio="xMidYMid meet" zoomAndPan="magnify" version="1.1" contentScriptType="application/ecmascript" contentStyleType="text/css"><style type="text/css" xml:space="preserve"><![CDATA[
	
		.st1 {stroke:#000000;stroke-linecap:butt;stroke-width:0.5px}
		.st2 {fill:#000000;font-family:Arial,Helvetica,sans-serif;font-size:0.666664em}
		.st3 {fill:#ffffff;visibility:hidden}
		.st4 {stroke:#000000;stroke-linecap:butt;stroke-width:0.8px}
		.st5 {stroke:#000000;stroke-dasharray:0.25,0.5;stroke-linecap:butt;stroke-width:0.25px}
		.st6 {fill:none;stroke:none;stroke-linecap:round;stroke-linejoin:round;stroke-width:0.2px}
		.st7 {font-size:1em}
		.st8 {fill:none;fill-rule:evenodd;font-size:12px;overflow:visible;stroke-linecap:square;stroke-miterlimit:3}]]></style><g xmlns:v="http://schemas.microsoft.com/visio/2003/SVGExtensions/"><title>ARM</title><g id="shape5-1" transform="translate(114.186,-17.0164)"><title>Sheet.5</title><path d="M11.34 71.12 L11.34 76.79 L0 76.79" class="st1"/></g><g id="shape8-4" transform="translate(12.1386,-53.8668)"><title>Sheet.8</title><desc>31</desc><text x="1.22" y="73.52" class="st2">31</text></g><g id="shape9-6" transform="translate(91.5087,-53.8668)"><title>Sheet.9</title><desc>24</desc><text x="1.22" y="73.52" class="st2">24</text></g><g id="shape10-8" transform="translate(102.847,-53.8668)"><title>Sheet.10</title><desc>23</desc><text x="1.22" y="73.52" class="st2">23</text></g><g id="shape11-10" transform="translate(136.863,-53.8668)"><title>Sheet.11</title><desc>20</desc><text x="1.22" y="73.52" class="st2">20</text></g><g id="shape12-12" transform="translate(148.202,-53.8668)"><title>Sheet.12</title><desc>19</desc><text x="1.22" y="73.52" class="st2">19</text></g><g id="shape13-14" transform="translate(182.217,-53.8668)"><title>Sheet.13</title><desc>16</desc><text x="1.22" y="73.52" class="st2">16</text></g><g id="shape14-16" transform="translate(193.556,-53.8668)"><title>Sheet.14</title><desc>15</desc><text x="1.22" y="73.52" class="st2">15</text></g><g id="shape15-18" transform="translate(227.572,-53.8668)"><title>Sheet.15</title><desc>12</desc><text x="1.22" y="73.52" class="st2">12</text></g><g id="shape16-20" transform="translate(238.91,-53.8668)"><title>Sheet.16</title><desc>11</desc><text x="1.22" y="73.52" class="st2">11</text></g><g id="shape17-22" transform="translate(272.926,-53.8668)"><title>Sheet.17</title><desc>8</desc><text x="3.44" y="73.52" class="st2">8</text></g><g id="shape18-24" transform="translate(284.265,-53.8668)"><title>Sheet.18</title><desc>7</desc><text x="3.44" y="73.52" class="st2">7</text></g><g id="shape19-26" transform="translate(318.28,-53.8668)"><title>Sheet.19</title><desc>4</desc><text x="3.44" y="73.52" class="st2">4</text></g><g id="shape20-28" transform="translate(329.619,-53.8668)"><title>Sheet.20</title><desc>3</desc><text x="3.44" y="73.52" class="st2">3</text></g><g id="shape21-30" transform="translate(363.635,-53.8668)"><title>Sheet.21</title><desc>0</desc><text x="3.44" y="73.52" class="st2">0</text></g><g id="shape22-32" transform="translate(12.1386,-25.5203)"><title>Sheet.22</title><rect x="0" y="48.4475" width="362.835" height="28.3465" class="st3"/><rect x="0" y="48.4475" width="362.835" height="28.3465" class="st4"/></g><g id="shape23-35" transform="translate(102.847,-25.5203)"><title>Sheet.23</title><path d="M0 48.45 L0 76.79" class="st4"/></g><g id="shape24-38" transform="translate(148.202,-25.5203)"><title>Sheet.24</title><path d="M0 48.45 L0 76.79" class="st4"/></g><g id="shape25-41" transform="translate(193.556,-25.5203)"><title>Sheet.25</title><path d="M0 48.45 L0 76.79" class="st4"/></g><g id="shape26-44" transform="translate(238.91,-25.5203)"><title>Sheet.26</title><path d="M0 48.45 L0 76.79" class="st4"/></g><g id="shape27-47" transform="translate(284.265,-25.5203)"><title>Sheet.27</title><path d="M0 48.45 L0 76.79" class="st4"/></g><g id="shape28-50" transform="translate(329.619,-25.5203)"><title>Sheet.28</title><path d="M0 48.45 L0 76.79" class="st4"/></g><g id="shape29-53" transform="translate(406.413,11.5886) rotate(90)"><title>Signal 0</title><path d="M0 76.79 L11.34 76.79" class="st5"/></g><g id="shape30-56" transform="translate(361.058,11.5886) rotate(90)"><title>Signal 0.102</title><path d="M0 76.79 L11.34 76.79" class="st5"/></g><g id="shape31-59" transform="translate(315.704,11.5886) rotate(90)"><title>Signal 0.103</title><path d="M0 76.79 L11.34 76.79" class="st5"/></g><g id="shape32-62" transform="translate(270.35,11.5886) rotate(90)"><title>Signal 0.104</title><path d="M0 76.79 L11.34 76.79" class="st5"/></g><g id="shape33-65" transform="translate(224.995,11.5886) rotate(90)"><title>Signal 0.105</title><path d="M0 76.79 L11.34 76.79" class="st5"/></g><g id="shape34-68" transform="translate(179.641,11.5886) rotate(90)"><title>Signal 0.106</title><path d="M0 76.79 L11.34 76.79" class="st5"/></g><g id="shape35-71" transform="translate(134.287,11.5886) rotate(90)"><title>Signal 0.107</title><path d="M0 76.79 L11.34 76.79" class="st5"/></g><g id="shape36-74" transform="translate(88.9325,11.5886) rotate(90)"><title>Signal 0.108</title><path d="M0 76.79 L11.34 76.79" class="st5"/></g><g id="shape37-77" transform="translate(451.767,11.5886) rotate(90)"><title>Signal 0.109</title><path d="M0 76.79 L11.34 76.79" class="st5"/></g><g id="shape38-80" transform="translate(51.8236,-11.3471)"><title>Sheet.38</title><desc>SynchPrim_frac</desc><rect x="0" y="65.4553" width="59.5276" height="11.3386" class="st6"/><text x="3.07" y="73.52" class="st2">SynchPrim_frac</text></g><g id="shape42-83" transform="translate(12.1386,-25.5203)"><title>Sheet.42</title><desc>SWP_frac</desc><rect x="0" y="48.4475" width="45.3543" height="28.3465" class="st6"/><text x="4.67" y="65.02" class="st2">SWP_frac</text></g><g id="shape45-86" transform="translate(46.1543,-53.8668)"><title>32-bit register.445</title><desc>28</desc><text x="1.22" y="73.52" class="st2">28</text></g><g id="shape46-88" transform="translate(57.4929,-53.8668)"><title>32-bit register.446</title><desc>27</desc><text x="1.22" y="73.52" class="st2">27</text></g><g id="shape47-90" transform="translate(57.4929,-25.5203)"><title>32-bit register.447</title><path d="M0 48.45 L0 76.79" class="st4"/></g><g id="shape51-93" transform="translate(57.4929,-25.5203)"><title>Sheet.51</title><desc>PSR_M</desc><rect x="0" y="48.4475" width="45.3543" height="28.3465" class="st6"/><text x="8.9" y="65.02" class="st2">PSR_M</text></g><g id="shape53-96" transform="translate(148.202,-25.5203)"><title>Sheet.53</title><desc>Barrier</desc><rect x="0" y="48.4475" width="45.3543" height="28.3465" class="st6"/><text x="10.68" y="65.02" class="st2">Barrier</text></g><g id="shape54-99" transform="translate(193.556,-25.5203)"><title>Sheet.54</title><desc>SMC</desc><rect x="0" y="48.4475" width="45.3543" height="28.3465" class="st6"/><text x="13.79" y="65.02" class="st2">SMC</text></g><g id="shape55-102" transform="translate(238.91,-25.5203)"><title>Sheet.55</title><desc>WriteBack</desc><rect x="0" y="48.4475" width="45.3543" height="28.3465" class="st6"/><text x="4.45" y="65.02" class="st2">Write<tspan class="st7">B</tspan>ack</text></g><g id="shape56-106" transform="translate(284.265,-25.5203)"><title>Sheet.56</title><desc>WithShifts</desc><rect x="0" y="48.4475" width="45.3543" height="28.3465" class="st6"/><text x="4.67" y="65.02" class="st2">WithShifts</text></g><g id="shape57-109" transform="translate(329.619,-25.5203)"><title>Sheet.57</title><desc>Unpriv</desc><rect x="0" y="48.4475" width="45.3543" height="28.3465" class="st6"/><text x="11.12" y="65.02" class="st2">Unpriv</text></g></g></svg>