<?xml version="1.0" encoding="UTF-8" standalone="no"?><!-- Fixed up by svgfix.xsl 1.4  --><!-- Generated by Microsoft Visio 11.0, SVG Export, v1.0 IC_CTLR_bit_assignments.svg ARM -->
<!DOCTYPE svg
  PUBLIC "-//W3C//DTD SVG 1.0//EN" "http://www.w3.org/TR/2001/REC-SVG-20010904/DTD/svg10.dtd">
<svg xmlns:xlink="http://www.w3.org/1999/xlink" xmlns="http://www.w3.org/2000/svg" xmlns:ev="http://www.w3.org/2001/xml-events" width="579.383" height="182.772" viewBox="0 0 434.537 137.079" xml:space="preserve" color-interpolation-filters="sRGB" class="st13" preserveAspectRatio="xMidYMid meet" zoomAndPan="magnify" version="1.0" contentScriptType="text/ecmascript" contentStyleType="text/css"><style type="text/css" xml:space="preserve"><![CDATA[
	
		.st1 {fill:#eed9b3;stroke:none;stroke-linecap:round;stroke-linejoin:round;stroke-width:0.2px}
		.st2 {fill:#000000;font-family:Arial,Helvetica,sans-serif;font-size:0.666664em}
		.st3 {fill:#ffffff;visibility:hidden}
		.st4 {stroke:#000000;stroke-linecap:butt;stroke-width:0.8px}
		.st5 {stroke:#000000;stroke-dasharray:0.25,1;stroke-linecap:butt;stroke-width:0.25px}
		.st6 {fill:none;stroke:none;stroke-linecap:butt;stroke-width:0.499999px}
		.st7 {fill:#000000;font-family:Arial,Helvetica,sans-serif;font-size:0.533318em}
		.st8 {font-size:1.25003em}
		.st9 {fill:none}
		.st10 {stroke:#000000;stroke-linecap:butt;stroke-width:0.799997px}
		.st11 {fill:none;stroke:none;stroke-linecap:round;stroke-linejoin:round;stroke-width:0.2px}
		.st12 {stroke:#000000;stroke-linecap:butt;stroke-width:0.5px}
		.st13 {fill:none;fill-rule:evenodd;font-size:12px;overflow:visible;stroke-linecap:square;stroke-miterlimit:3}]]></style><g xmlns:v="http://schemas.microsoft.com/visio/2003/SVGExtensions/"><title content="structured text">ARM</title><g id="shape33-1" transform="translate(284.301,-86.1688)"><title content="structured text">Graphic.33</title><rect x="0" y="108.846" width="68.0315" height="28.2335" class="st1"/></g><g id="shape1-3" transform="translate(12.1748,-86.0559)"><title content="structured text">Graphic.260</title><rect x="0" y="108.846" width="181.417" height="28.2335" class="st1"/></g><g id="shape2-5" transform="translate(12.1386,-113.886)"><title content="structured text">Bit31</title><desc content="structured text">31</desc><text x="1.22" y="133.81" class="st2">31</text></g><g id="shape3-7" transform="translate(12.1386,-85.5394)"><title content="structured text">MainOutline+Bit00</title><desc content="structured text">0</desc><rect x="0" y="108.733" width="362.835" height="28.3465" class="st3"/><rect x="0" y="108.733" width="362.835" height="28.3465" class="st4"/><text x="354.94" y="105.46" class="st2">0</text></g><g id="shape4-11" transform="translate(466.698,11.8551) rotate(90)"><title content="structured text">Signal 0.48</title><path d="M0 137.08 L11.34 137.08" class="st5"/></g><g id="shape5-14" transform="translate(421.344,11.8551) rotate(90)"><title content="structured text">Signal 0.49</title><path d="M0 137.08 L11.34 137.08" class="st5"/></g><g id="shape6-17" transform="translate(375.99,11.8551) rotate(90)"><title content="structured text">Signal 0.50</title><path d="M0 137.08 L11.34 137.08" class="st5"/></g><g id="shape7-20" transform="translate(330.635,11.8551) rotate(90)"><title content="structured text">Signal 0.51</title><path d="M0 137.08 L11.34 137.08" class="st5"/></g><g id="shape8-23" transform="translate(285.281,11.8551) rotate(90)"><title content="structured text">Signal 0.52</title><path d="M0 137.08 L11.34 137.08" class="st5"/></g><g id="shape9-26" transform="translate(239.927,11.8551) rotate(90)"><title content="structured text">Signal 0.53</title><path d="M0 137.08 L11.34 137.08" class="st5"/></g><g id="shape10-29" transform="translate(194.572,11.8551) rotate(90)"><title content="structured text">Signal 0.54</title><path d="M0 137.08 L11.34 137.08" class="st5"/></g><g id="shape11-32" transform="translate(149.218,11.8551) rotate(90)"><title content="structured text">Signal 0.55</title><path d="M0 137.08 L11.34 137.08" class="st5"/></g><g id="shape12-35" transform="translate(512.053,11.8551) rotate(90)"><title content="structured text">Signal 0.56</title><path d="M0 137.08 L11.34 137.08" class="st5"/></g><g id="shape13-38" transform="translate(12.1386,-85.5394)"><title content="structured text">Sheet.13</title><path d="M0 137.08 L0 108.73" class="st4"/><path d="M362.83 137.08 L362.83 108.73" class="st4"/></g><g id="shape15-42" transform="translate(182.254,-114.402)"><title content="structured text">Bit31.24</title><desc content="structured text">16</desc><text x="1.22" y="133.81" class="st2">16</text></g><g id="group17-44" transform="translate(14.9732,-11.8386)"><title content="structured text">Sheet.17</title><g id="shape18-45" transform="translate(11.3386,2.84217E-014)"><title content="structured text">Rectangle No Fill No Fill.116</title><desc content="structured text">res0</desc><rect x="0" y="125.741" width="22.6772" height="11.3386" class="st6"/><text x="3.07" y="133.81" class="st7">RES<tspan class="st8">0</tspan></text></g><g id="shape19-49"><title content="structured text">Graphic.117</title><rect x="0" y="125.741" width="11.3386" height="11.3386" class="st1"/></g></g><g id="shape20-51" transform="translate(363.671,-86.0524)"><title content="structured text">Graphic.50</title><path d="M0 108.73 L0 137.08 L0 108.73 Z" class="st9"/><path d="M0 108.73 L0 137.08" class="st10"/></g><g id="shape27-54" transform="translate(250.285,-86.0559)"><title content="structured text">Rectangle No Fill No Fill.66</title><desc content="structured text">C</desc><rect x="0" y="109.678" width="34.0157" height="27.4016" class="st11"/><text x="4.11" y="125.78" class="st2">PRIbits</text></g><g id="shape40-57" transform="translate(193.592,-86.0524)"><title content="structured text">Graphic.62</title><path d="M0 108.73 L0 137.08 L0 108.73 Z" class="st9"/><path d="M0 108.73 L0 137.08" class="st10"/></g><g id="shape41-60" transform="translate(380.679,-77.5519) scale(-1,1)"><title content="structured text">Bit name 2</title><desc content="structured text">VCBPR</desc><path d="M11.34 131.41 L11.34 137.08 L0 137.08" class="st12"/><text x="1" y="139.48" transform="scale(-1,1)" class="st2">VCBPR</text></g><g id="shape42-64" transform="translate(380.679,-66.2133) scale(-1,1)"><title content="structured text">Bit name 2.15</title><desc content="structured text">VEOImode</desc><path d="M22.68 120.07 L22.68 137.08 L0 137.08" class="st12"/><text x="1" y="139.48" transform="scale(-1,1)" class="st2">VEOImode</text></g><g id="shape16-68" transform="translate(204.931,-86.0524)"><title content="structured text">Graphic.16</title><path d="M0 108.73 L0 137.08 L0 108.73 Z" class="st9"/><path d="M0 108.73 L0 137.08" class="st10"/></g><g id="shape22-71" transform="translate(193.592,-114.402)"><title content="structured text">Bit31.22</title><desc content="structured text">15</desc><text x="1.22" y="133.81" class="st2">15</text></g><g id="shape23-73" transform="translate(204.931,-114.402)"><title content="structured text">Bit31.23</title><desc content="structured text">14</desc><text x="1.22" y="133.81" class="st2">14</text></g><g id="shape24-75" transform="translate(216.269,-86.0524)"><title content="structured text">Graphic.24</title><path d="M0 108.73 L0 137.08 L0 108.73 Z" class="st9"/><path d="M0 108.73 L0 137.08" class="st10"/></g><g id="shape25-78" transform="translate(216.269,-114.402)"><title content="structured text">Bit31.25</title><desc content="structured text">13</desc><text x="1.22" y="133.81" class="st2">13</text></g><g id="shape28-80" transform="translate(250.285,-114.402)"><title content="structured text">Bit31.28</title><desc content="structured text">10</desc><text x="1.22" y="133.81" class="st2">10</text></g><g id="shape29-82" transform="translate(272.962,-114.402)"><title content="structured text">Bit31.29</title><desc content="structured text">8</desc><text x="3.44" y="133.81" class="st2">8</text></g><g id="shape30-84" transform="translate(284.301,-114.402)"><title content="structured text">Bit31.30</title><desc content="structured text">7</desc><text x="3.44" y="133.81" class="st2">7</text></g><g id="shape14-86" transform="translate(340.994,-114.402)"><title content="structured text">Bit31.14</title><desc content="structured text">2</desc><text x="3.44" y="133.81" class="st2">2</text></g><g id="shape21-88" transform="translate(352.332,-114.402)"><title content="structured text">Bit31.21</title><desc content="structured text">1</desc><text x="3.44" y="133.81" class="st2">1</text></g><g id="shape31-90" transform="translate(352.332,-86.0524)"><title content="structured text">Graphic.31</title><path d="M0 108.73 L0 137.08 L0 108.73 Z" class="st9"/><path d="M0 108.73 L0 137.08" class="st10"/></g><g id="shape32-93" transform="translate(284.301,-86.0524)"><title content="structured text">Graphic.32</title><path d="M0 108.73 L0 137.08 L0 108.73 Z" class="st9"/><path d="M0 108.73 L0 137.08" class="st10"/></g><g id="shape34-96" transform="translate(250.285,-86.0524)"><title content="structured text">Graphic.34</title><path d="M0 108.73 L0 137.08 L0 108.73 Z" class="st9"/><path d="M0 108.73 L0 137.08" class="st10"/></g><g id="shape26-99" transform="translate(238.946,-114.402)"><title content="structured text">Bit31.26</title><desc content="structured text">11</desc><text x="1.22" y="133.81" class="st2">11</text></g><g id="shape35-101" transform="translate(216.269,-86.0559)"><title content="structured text">Rectangle No Fill No Fill.35</title><desc content="structured text">C</desc><rect x="0" y="109.678" width="34.0157" height="27.4016" class="st11"/><text x="6.78" y="125.78" class="st2">IDbits</text></g><g id="shape36-104" transform="translate(187.923,-77.5519)"><title content="structured text">Bit name 1</title><desc content="structured text">A3V</desc><path d="M11.34 131.41 L11.34 137.08 L0 137.08" class="st12"/><text x="-16.12" y="139.48" class="st2">A3V</text></g><g id="shape37-108" transform="translate(187.923,-66.2133)"><title content="structured text">Bit name 1.37</title><desc content="structured text">SEIS</desc><path d="M22.68 120.07 L22.68 137.08 L0 137.08" class="st12"/><text x="-19.23" y="139.48" class="st2">SEIS</text></g></g></svg>