<?xml version="1.0" encoding="UTF-8" standalone="no"?><!-- Fixed up by svgfix.xsl 1.4  --><!-- Generated by Microsoft Visio 11.0, SVG Export, v1.0 id_mmfr1_el1_bit_assignments.svg Page-1 -->
<!DOCTYPE svg
  PUBLIC "-//W3C//DTD SVG 1.0//EN" "http://www.w3.org/TR/2001/REC-SVG-20010904/DTD/svg10.dtd">
<svg xmlns:xlink="http://www.w3.org/1999/xlink" xmlns="http://www.w3.org/2000/svg" width="485.913" height="54.313" viewBox="0 0 364.435 40.735" xml:space="preserve" color-interpolation-filters="sRGB" class="st6" preserveAspectRatio="xMidYMid meet" zoomAndPan="magnify" version="1.0" contentScriptType="text/ecmascript" contentStyleType="text/css"><style type="text/css" xml:space="preserve"><![CDATA[
	
		.st1 {fill:none;stroke:none;stroke-linecap:round;stroke-linejoin:round;stroke-width:0.2px}
		.st2 {fill:#000000;font-family:Arial,Helvetica,sans-serif;font-size:0.666664em}
		.st3 {fill:#ffffff;visibility:hidden}
		.st4 {stroke:#000000;stroke-linecap:butt;stroke-width:0.8px}
		.st5 {stroke:#000000;stroke-dasharray:0.25,1;stroke-linecap:butt;stroke-width:0.25px}
		.st6 {fill:none;fill-rule:evenodd;font-size:12px;overflow:visible;stroke-linecap:square;stroke-miterlimit:3}]]></style><g xmlns:v="http://schemas.microsoft.com/visio/2003/SVGExtensions/"><title content="structured text">Page-1</title><g id="shape7-1" transform="translate(0.8,-0.8)"><title content="structured text">Sheet.7</title><desc content="structured text">BPred</desc><rect x="0" y="12.3886" width="45.3543" height="28.3465" class="st1"/><text x="11.56" y="28.96" class="st2">BPred</text></g><g id="shape58-4" transform="translate(46.1543,-0.8)"><title content="structured text">Sheet.58</title><desc content="structured text">L1TstCln</desc><rect x="0" y="12.3886" width="45.3543" height="28.3465" class="st1"/><text x="6.67" y="28.96" class="st2">L1TstCln</text></g><g id="shape135-7" transform="translate(91.5087,-0.8)"><title content="structured text">Sheet.135</title><desc content="structured text">L1Uni</desc><rect x="0" y="12.3886" width="45.3543" height="28.3465" class="st1"/><text x="12.23" y="28.96" class="st2">L1Uni</text></g><g id="shape136-10" transform="translate(136.863,-0.8)"><title content="structured text">Sheet.136</title><desc content="structured text">L1Hvd</desc><rect x="0" y="12.3886" width="45.3543" height="28.3465" class="st1"/><text x="11.11" y="28.96" class="st2">L1Hvd</text></g><g id="shape137-13" transform="translate(182.217,-0.8)"><title content="structured text">Sheet.137</title><desc content="structured text">L1UniSW</desc><rect x="0" y="12.3886" width="45.3543" height="28.3465" class="st1"/><text x="5.78" y="28.96" class="st2">L1UniSW</text></g><g id="shape138-16" transform="translate(227.572,-0.8)"><title content="structured text">Sheet.138</title><desc content="structured text">L1HvdSW</desc><rect x="0" y="12.3886" width="45.3543" height="28.3465" class="st1"/><text x="4.67" y="28.96" class="st2">L1HvdSW</text></g><g id="shape139-19" transform="translate(272.926,-0.8)"><title content="structured text">Sheet.139</title><desc content="structured text">L1UniVA</desc><rect x="0" y="12.3886" width="45.3543" height="28.3465" class="st1"/><text x="6.89" y="28.96" class="st2">L1UniVA</text></g><g id="shape140-22" transform="translate(318.28,-0.8)"><title content="structured text">Sheet.140</title><desc content="structured text">L1HvdVA</desc><rect x="0" y="12.3886" width="45.3543" height="28.3465" class="st1"/><text x="5.78" y="28.96" class="st2">L1HvdVA</text></g><g id="shape143-25" transform="translate(0.8,-29.1465)"><title content="structured text">Bit31</title><desc content="structured text">31</desc><text x="1.22" y="37.47" class="st2">31</text></g><g id="shape146-27" transform="translate(34.8157,-29.1465)"><title content="structured text">Bit28</title><desc content="structured text">28</desc><text x="1.22" y="37.47" class="st2">28</text></g><g id="shape147-29" transform="translate(46.1543,-29.1465)"><title content="structured text">Bit27</title><desc content="structured text">27</desc><text x="1.22" y="37.47" class="st2">27</text></g><g id="shape150-31" transform="translate(80.1701,-29.1465)"><title content="structured text">Bit24</title><desc content="structured text">24</desc><text x="1.22" y="37.47" class="st2">24</text></g><g id="shape151-33" transform="translate(91.5087,-29.1465)"><title content="structured text">Bit23</title><desc content="structured text">23</desc><text x="1.22" y="37.47" class="st2">23</text></g><g id="shape154-35" transform="translate(125.524,-29.1465)"><title content="structured text">Bit20</title><desc content="structured text">20</desc><text x="1.22" y="37.47" class="st2">20</text></g><g id="shape155-37" transform="translate(136.863,-29.1465)"><title content="structured text">Bit19</title><desc content="structured text">19</desc><text x="1.22" y="37.47" class="st2">19</text></g><g id="shape158-39" transform="translate(170.879,-29.1465)"><title content="structured text">Bit16</title><desc content="structured text">16</desc><text x="1.22" y="37.47" class="st2">16</text></g><g id="shape159-41" transform="translate(182.217,-29.1465)"><title content="structured text">Bit15</title><desc content="structured text">15</desc><text x="1.22" y="37.47" class="st2">15</text></g><g id="shape162-43" transform="translate(216.233,-29.1465)"><title content="structured text">Bit12</title><desc content="structured text">12</desc><text x="1.22" y="37.47" class="st2">12</text></g><g id="shape163-45" transform="translate(227.572,-29.1465)"><title content="structured text">Bit11</title><desc content="structured text">11</desc><text x="1.22" y="37.47" class="st2">11</text></g><g id="shape166-47" transform="translate(261.587,-29.1465)"><title content="structured text">Bit08</title><desc content="structured text">8</desc><text x="3.44" y="37.47" class="st2">8</text></g><g id="shape167-49" transform="translate(272.926,-29.1465)"><title content="structured text">Bit07</title><desc content="structured text">7</desc><text x="3.44" y="37.47" class="st2">7</text></g><g id="shape170-51" transform="translate(306.942,-29.1465)"><title content="structured text">Bit04</title><desc content="structured text">4</desc><text x="3.44" y="37.47" class="st2">4</text></g><g id="shape171-53" transform="translate(318.28,-29.1465)"><title content="structured text">Bit03</title><desc content="structured text">3</desc><text x="3.44" y="37.47" class="st2">3</text></g><g id="shape174-55" transform="translate(0.8,-0.8)"><title content="structured text">MainOutline+Bit00</title><desc content="structured text">0</desc><rect x="0" y="12.3886" width="362.835" height="28.3465" class="st3"/><rect x="0" y="12.3886" width="362.835" height="28.3465" class="st4"/><text x="354.94" y="9.12" class="st2">0</text></g><g id="shape175-59" transform="translate(359.015,0.25) rotate(90)"><title content="structured text">Signal 0.175</title><path d="M0 40.74 L11.34 40.74" class="st5"/></g><g id="shape176-62" transform="translate(313.661,0.25) rotate(90)"><title content="structured text">Signal 0.176</title><path d="M0 40.74 L11.34 40.74" class="st5"/></g><g id="shape177-65" transform="translate(268.307,0.25) rotate(90)"><title content="structured text">Signal 0.177</title><path d="M0 40.74 L11.34 40.74" class="st5"/></g><g id="shape178-68" transform="translate(222.952,0.25) rotate(90)"><title content="structured text">Signal 0.178</title><path d="M0 40.74 L11.34 40.74" class="st5"/></g><g id="shape179-71" transform="translate(177.598,0.25) rotate(90)"><title content="structured text">Signal 0.179</title><path d="M0 40.74 L11.34 40.74" class="st5"/></g><g id="shape180-74" transform="translate(132.244,0.25) rotate(90)"><title content="structured text">Signal 0.180</title><path d="M0 40.74 L11.34 40.74" class="st5"/></g><g id="shape181-77" transform="translate(86.8894,0.25) rotate(90)"><title content="structured text">Signal 0.181</title><path d="M0 40.74 L11.34 40.74" class="st5"/></g><g id="shape182-80" transform="translate(41.535,0.25) rotate(90)"><title content="structured text">Signal 0.182</title><path d="M0 40.74 L11.34 40.74" class="st5"/></g><g id="shape183-83" transform="translate(404.37,0.25) rotate(90)"><title content="structured text">Signal 0.183</title><path d="M0 40.74 L11.34 40.74" class="st5"/></g><g id="shape141-86" transform="translate(46.1543,-0.8)"><title content="structured text">32-bit register.141</title><path d="M0 12.39 L0 40.74" class="st4"/></g><g id="shape142-89" transform="translate(91.5087,-0.8)"><title content="structured text">32-bit register.142</title><path d="M0 12.39 L0 40.74" class="st4"/></g><g id="shape184-92" transform="translate(136.863,-0.8)"><title content="structured text">32-bit register.184</title><path d="M0 12.39 L0 40.74" class="st4"/></g><g id="shape185-95" transform="translate(182.217,-0.8)"><title content="structured text">32-bit register.185</title><path d="M0 12.39 L0 40.74" class="st4"/></g><g id="shape186-98" transform="translate(227.572,-0.8)"><title content="structured text">32-bit register.186</title><path d="M0 12.39 L0 40.74" class="st4"/></g><g id="shape187-101" transform="translate(272.926,-0.8)"><title content="structured text">32-bit register.187</title><path d="M0 12.39 L0 40.74" class="st4"/></g><g id="shape188-104" transform="translate(318.28,-0.8)"><title content="structured text">32-bit register.188</title><path d="M0 12.39 L0 40.74" class="st4"/></g></g></svg>