<?xml version="1.0" encoding="UTF-8" standalone="no"?><!-- Fixed up by svgfix.xsl 1.4  --><!-- Generated by Microsoft Visio 11.0, SVG Export, v1.0 trcsctlrn_bit_assignments.svg ARM -->
<!DOCTYPE svg
  PUBLIC "-//W3C//DTD SVG 1.0//EN" "http://www.w3.org/TR/2001/REC-SVG-20010904/DTD/svg10.dtd">
<svg xmlns:xlink="http://www.w3.org/1999/xlink" xmlns="http://www.w3.org/2000/svg" xmlns:ev="http://www.w3.org/2001/xml-events" width="516.172" height="115.052" viewBox="0 0 387.129 86.289" xml:space="preserve" color-interpolation-filters="sRGB" class="st12" preserveAspectRatio="xMidYMid meet" zoomAndPan="magnify" version="1.0" contentScriptType="text/ecmascript" contentStyleType="text/css"><style type="text/css" xml:space="preserve"><![CDATA[
	
		.st1 {fill:#eed9b3;stroke:#000000;stroke-linecap:butt;stroke-width:0.5px}
		.st2 {stroke:#000000;stroke-linecap:butt;stroke-width:0.8px}
		.st3 {stroke:#000000;stroke-dasharray:0.25,0.5;stroke-linecap:butt;stroke-width:0.25px}
		.st4 {fill:#000000;font-family:Arial,Helvetica,sans-serif;font-size:0.666664em}
		.st5 {fill:none;stroke:none;stroke-linecap:butt;stroke-width:0.5px}
		.st6 {stroke:#000000;stroke-linecap:butt;stroke-width:0.5px}
		.st7 {fill:none;stroke:none;stroke-linecap:round;stroke-linejoin:round;stroke-width:0.2px}
		.st8 {fill:none;stroke:none;stroke-linecap:butt;stroke-width:0.499999px}
		.st9 {fill:#000000;font-family:Arial,Helvetica,sans-serif;font-size:0.533318em}
		.st10 {font-size:1.25003em}
		.st11 {fill:#eed9b3;stroke:none;stroke-linecap:round;stroke-linejoin:round;stroke-width:0.2px}
		.st12 {fill:none;fill-rule:evenodd;font-size:12px;overflow:visible;stroke-linecap:square;stroke-miterlimit:3}]]></style><g xmlns:v="http://schemas.microsoft.com/visio/2003/SVGExtensions/"><title content="structured text">ARM</title><g id="shape34-1" transform="translate(193.606,-35.1496)"><title content="structured text">Sheet.34</title><rect x="0" y="57.9429" width="90.7087" height="28.3465" class="st1"/></g><g id="shape21-3" transform="translate(148.252,-35.1496)"><title content="structured text">Sheet.21</title><rect x="0" y="57.9429" width="11.3386" height="28.3465" class="st1"/></g><g id="shape15-5" transform="translate(12.189,-35.1496)"><title content="structured text">Sheet.15</title><rect x="0" y="57.9429" width="113.386" height="28.3465" class="st1"/></g><g id="shape1-7" transform="translate(374.99,-35.0157) scale(-1,1)"><title content="structured text">64-bit register.156</title><path d="M0 57.94 L362.83 57.94 L362.83 86.29 L0 86.29" class="st2"/></g><g id="shape2-10" transform="translate(98.4449,11.5886) rotate(90)"><title content="structured text">64-bit register.169</title><path d="M0 86.29 L11.34 86.29" class="st3"/></g><g id="shape3-13" transform="translate(374.99,-35.0157)"><title content="structured text">64-bit register.157</title><path d="M0 57.94 L0 86.29" class="st2"/></g><g id="shape4-16" transform="translate(125.541,-35.0157)"><title content="structured text">64-bit register.7</title><path d="M0 57.94 L0 86.29" class="st2"/></g><g id="shape5-19" transform="translate(193.573,-35.0157)"><title content="structured text">64-bit register.39</title><path d="M0 57.94 L0 86.29" class="st2"/></g><g id="shape6-22" transform="translate(143.799,11.5886) rotate(90)"><title content="structured text">64-bit register.11</title><path d="M0 86.29 L11.34 86.29" class="st3"/></g><g id="shape7-25" transform="translate(189.154,11.5886) rotate(90)"><title content="structured text">64-bit register.12</title><path d="M0 86.29 L11.34 86.29" class="st3"/></g><g id="shape8-28" transform="translate(234.508,11.5886) rotate(90)"><title content="structured text">64-bit register.13</title><path d="M0 86.29 L11.34 86.29" class="st3"/></g><g id="shape9-31" transform="translate(279.862,11.5886) rotate(90)"><title content="structured text">64-bit register.14</title><path d="M0 86.29 L11.34 86.29" class="st3"/></g><g id="shape10-34" transform="translate(325.217,11.5886) rotate(90)"><title content="structured text">64-bit register.15</title><path d="M0 86.29 L11.34 86.29" class="st3"/></g><g id="shape11-37" transform="translate(415.925,11.5886) rotate(90)"><title content="structured text">64-bit register.16</title><path d="M0 86.29 L11.34 86.29" class="st3"/></g><g id="shape12-40" transform="translate(461.28,11.5886) rotate(90)"><title content="structured text">64-bit register.17</title><path d="M0 86.29 L11.34 86.29" class="st3"/></g><g id="shape13-43" transform="translate(12.1556,-63.3622)"><title content="structured text">64-bit register.179</title><desc content="structured text">31</desc><text x="1.22" y="83.02" class="st4">31</text></g><g id="shape14-45" transform="translate(363.652,-63.3622)"><title content="structured text">64-bit register.19</title><desc content="structured text">0</desc><text x="3.44" y="83.02" class="st4">0</text></g><g id="shape16-47" transform="translate(370.571,11.5886) rotate(90)"><title content="structured text">64-bit register.21</title><path d="M0 86.29 L11.34 86.29" class="st3"/></g><g id="shape17-50" transform="translate(182.234,-63.3622)"><title content="structured text">64-bit register.28</title><desc content="structured text">16</desc><text x="1.22" y="83.02" class="st4">16</text></g><g id="shape18-52" transform="translate(193.573,-63.3622)"><title content="structured text">64-bit register.29</title><desc content="structured text">15</desc><text x="1.22" y="83.02" class="st4">15</text></g><g id="shape19-54" transform="translate(136.88,-63.3622)"><title content="structured text">64-bit register.30</title><desc content="structured text">20</desc><text x="1.22" y="83.02" class="st4">20</text></g><g id="shape20-56" transform="translate(148.219,-63.3622)"><title content="structured text">64-bit register.31</title><desc content="structured text">19</desc><text x="1.22" y="83.02" class="st4">19</text></g><g id="shape22-58" transform="translate(150.253,-20.3425)"><title content="structured text">Sheet.22</title><desc content="structured text">INV</desc><rect x="0" y="74.9508" width="39.685" height="11.3386" class="st5"/><text x="0" y="83.02" class="st4">INV</text></g><g id="shape23-61" transform="translate(142.549,-26.0118)"><title content="structured text">Sheet.23</title><path d="M0 80.12 L0 86.29 L4.87 86.29" class="st6"/></g><g id="shape24-64" transform="translate(125.541,-20.8425) scale(-1,1)"><title content="structured text">Sheet.24</title><desc content="structured text">PAIRINV</desc><rect x="0" y="74.9508" width="36.8504" height="11.3386" class="st5"/><text x="-34.01" y="83.02" transform="scale(-1,1)" class="st4">PAIRINV</text></g><g id="shape25-67" transform="translate(114.203,-63.3622)"><title content="structured text">64-bit register.43</title><desc content="structured text">22</desc><text x="1.22" y="83.02" class="st4">22</text></g><g id="shape26-69" transform="translate(125.541,-63.3622)"><title content="structured text">64-bit register.44</title><desc content="structured text">21</desc><text x="1.22" y="83.02" class="st4">21</text></g><g id="shape27-71" transform="translate(136.88,-35.0157)"><title content="structured text">64-bit register.45</title><path d="M0 57.94 L0 86.29" class="st2"/></g><g id="shape28-74" transform="translate(148.219,-35.0157)"><title content="structured text">64-bit register.46</title><path d="M0 57.94 L0 86.29" class="st2"/></g><g id="shape29-77" transform="translate(284.282,-35.0157)"><title content="structured text">64-bit register.47</title><desc content="structured text">SELECT</desc><rect x="0" y="57.9429" width="90.7087" height="28.3465" class="st7"/><text x="29.79" y="74.52" class="st4">SELECT</text></g><g id="shape30-80" transform="translate(159.557,-35.0157)"><title content="structured text">64-bit register.48</title><desc content="structured text">GROUP</desc><rect x="0" y="57.9429" width="34.0157" height="28.3465" class="st7"/><text x="2.34" y="74.52" class="st4">GROUP</text></g><g id="shape31-83" transform="translate(159.557,-35.0157)"><title content="structured text">64-bit register.49</title><path d="M0 57.94 L0 86.29" class="st2"/></g><g id="shape32-86" transform="translate(159.557,-63.3622)"><title content="structured text">64-bit register.50</title><desc content="structured text">18</desc><text x="1.22" y="83.02" class="st4">18</text></g><g id="shape33-88" transform="translate(131.211,-26.5118) scale(-1,1)"><title content="structured text">Sheet.33</title><path d="M0 80.62 L0 86.29 L5.67 86.29" class="st6"/></g><g id="shape35-91" transform="translate(284.282,-35.0157)"><title content="structured text">64-bit register.53</title><path d="M0 57.94 L0 86.29" class="st2"/></g><g id="shape37-94" transform="translate(272.943,-63.3622)"><title content="structured text">64-bit register.55</title><desc content="structured text">8</desc><text x="3.44" y="83.02" class="st4">8</text></g><g id="shape38-96" transform="translate(284.282,-63.3622)"><title content="structured text">64-bit register.56</title><desc content="structured text">7</desc><text x="3.44" y="83.02" class="st4">7</text></g><g id="shape39-98" transform="translate(21.7955,-11.8386)"><title content="structured text">Rectangle No Fill No Fill.116</title><desc content="structured text">res0</desc><rect x="0" y="74.9508" width="19.8425" height="11.3386" class="st8"/><text x="1.24" y="83.02" class="st9">RES<tspan class="st10">0</tspan></text></g><g id="shape40-102" transform="translate(11.3556,-11.8386)"><title content="structured text">Graphic.117</title><rect x="0" y="74.9508" width="10.44" height="11.3386" class="st11"/></g></g></svg>