<?xml version="1.0" encoding="UTF-8" standalone="no"?><!-- Fixed up by svgfix.xsl 1.4  --><!-- Generated by Microsoft Visio, SVG Export lau1464781000550_LowRes.svg ARM -->
<!DOCTYPE svg
  PUBLIC "-//W3C//DTD SVG 1.0//EN" "http://www.w3.org/TR/2001/REC-SVG-20010904/DTD/svg10.dtd">
<svg xmlns:xlink="http://www.w3.org/1999/xlink" xmlns="http://www.w3.org/2000/svg" xmlns:ev="http://www.w3.org/2001/xml-events" width="637.094" height="137.063" viewBox="0 0 477.82 102.797" xml:space="preserve" color-interpolation-filters="sRGB" class="st17" preserveAspectRatio="xMidYMid meet" zoomAndPan="magnify" version="1.1" contentScriptType="application/ecmascript" contentStyleType="text/css"><style type="text/css" xml:space="preserve"><![CDATA[
	
		.st1 {fill:#eed9b3;stroke:none;stroke-linecap:round;stroke-linejoin:round;stroke-width:0.2px}
		.st2 {fill:none;stroke:none;stroke-linecap:round;stroke-linejoin:round;stroke-width:0.2px}
		.st3 {fill:#000000;font-family:Arial,Helvetica,sans-serif;font-size:0.666664em}
		.st4 {fill:#1f1a17;font-family:Arial,Helvetica,sans-serif;font-size:0.666664em}
		.st5 {fill:none;visibility:hidden}
		.st6 {stroke:#000000;stroke-linecap:butt;stroke-width:0.8px}
		.st7 {stroke:#000000;stroke-dasharray:0.25,1;stroke-linecap:butt;stroke-width:0.25px}
		.st8 {fill:none;stroke:none;stroke-linecap:butt;stroke-width:0.5px}
		.st9 {stroke:#000000;stroke-linecap:butt;stroke-width:0.5px}
		.st10 {fill:none;stroke:none;stroke-linecap:butt;stroke-width:0.499999px}
		.st11 {fill:#000000;font-family:Arial,Helvetica,sans-serif;font-size:0.533318em}
		.st12 {font-size:1.25003em}
		.st13 {fill:#eed9b3;stroke:none;stroke-linecap:round;stroke-linejoin:round;stroke-width:0.2px}
		.st14 {fill:#ffffff;stroke:none;stroke-linecap:butt;stroke-width:0.375px}
		.st15 {fill:none}
		.st16 {stroke:#000000;stroke-linecap:butt;stroke-width:0.375px}
		.st17 {fill:none;fill-rule:evenodd;font-size:12px;overflow:visible;stroke-linecap:square;stroke-miterlimit:3}]]></style><g xmlns:v="http://schemas.microsoft.com/visio/2003/SVGExtensions/"><title>ARM</title><g id="shape12-1" transform="translate(216.233,-51.5236)"><title>Sheet.12</title><rect x="0" y="74.4508" width="45.3543" height="28.3465" class="st1"/></g><g id="shape282-3" transform="translate(346.627,-51.5236)"><title>32-bit Reg.282</title><desc>AET</desc><rect x="0" y="74.4508" width="34.0157" height="28.3465" class="st2"/><text x="9.23" y="91.02" class="st3">AET</text></g><g id="shape259-6" transform="translate(391.981,-51.5236)"><title>Sheet.259</title><rect x="0" y="74.4508" width="34.0157" height="28.3465" class="st1"/></g><g id="shape267-8" transform="translate(425.997,-51.5236)"><title>32-bit Reg.12</title><desc>DFSC</desc><rect x="0" y="74.4508" width="39.685" height="28.3465" class="st2"/><text x="8.95" y="91.02" class="st3">DFSC</text></g><g id="shape43-11" transform="translate(12.1386,-51.5236)"><title>Sheet.43</title><rect x="0" y="74.4508" width="192.756" height="28.3465" class="st1"/></g><g id="shape28-13" transform="translate(272.926,-51.5236)"><title>Sheet.28</title><rect x="0" y="74.4508" width="73.7008" height="28.3465" class="st1"/></g><g id="shape2-15" transform="translate(12.1763,-79.822)"><title>Sheet.2</title><desc>63</desc><text x="1.2" y="99.53" class="st4">63</text></g><g id="shape3-17" transform="translate(193.556,-79.822)"><title>Sheet.3</title><desc>32</desc><text x="1.22" y="99.53" class="st4">32</text></g><g id="shape6-19" transform="translate(216.233,-79.822)"><title>Sheet.6</title><desc>30</desc><text x="1.22" y="99.5" class="st4">30</text></g><g id="shape7-21" transform="translate(250.249,-79.822)"><title>Sheet.7</title><desc>25</desc><text x="1.22" y="99.53" class="st4">25</text></g><g id="shape8-23" transform="translate(261.587,-79.822)"><title>Sheet.8</title><desc>24</desc><text x="1.22" y="99.53" class="st4">24</text></g><g id="shape9-25" transform="translate(454.343,-79.822)"><title>Sheet.9</title><desc>0</desc><text x="3.44" y="99.53" class="st4">0</text></g><g id="shape11-27" transform="translate(204.894,-51.4756)"><title>Sheet.11</title><desc>A</desc><rect x="0" y="74.4508" width="11.3386" height="28.3465" class="st2"/><text x="3" y="91.02" class="st3">A</text></g><g id="shape14-30" transform="translate(12.1386,-51.4756)"><title>Sheet.14</title><rect x="0" y="74.4508" width="453.543" height="28.3465" class="st5"/><rect x="0" y="74.4508" width="453.543" height="28.3465" class="st6"/></g><g id="shape15-33" transform="translate(204.894,-51.4756)"><title>Sheet.15</title><path d="M0 74.45 L0 102.8" class="st6"/></g><g id="shape16-36" transform="translate(216.233,-51.4756)"><title>Sheet.16</title><path d="M0 74.45 L0 102.8" class="st6"/></g><g id="shape17-39" transform="translate(272.926,-51.4756)"><title>Sheet.17</title><path d="M0 74.45 L0 102.8" class="st6"/></g><g id="shape19-42" transform="translate(114.936,11.6126) rotate(90)"><title>Time division.56</title><path d="M0 102.8 L11.34 102.8" class="st7"/></g><g id="shape20-45" transform="translate(279.345,11.6126) rotate(90)"><title>Time division.26</title><path d="M0 102.8 L11.34 102.8" class="st7"/></g><g id="shape21-48" transform="translate(307.692,11.6126) rotate(90)"><title>Time division.27</title><path d="M0 102.8 L11.34 102.8" class="st7"/></g><g id="shape22-51" transform="translate(341.707,11.6126) rotate(90)"><title>Time division.31</title><path d="M0 102.8 L11.34 102.8" class="st7"/></g><g id="shape23-54" transform="translate(426.747,11.6126) rotate(90)"><title>Time division.23</title><path d="M0 102.8 L11.34 102.8" class="st7"/></g><g id="shape24-57" transform="translate(460.763,11.6126) rotate(90)"><title>Time division.51</title><path d="M0 102.8 L11.34 102.8" class="st7"/></g><g id="shape25-60" transform="translate(506.117,11.6126) rotate(90)"><title>Sheet.25</title><path d="M0 102.8 L11.34 102.8" class="st7"/></g><g id="shape26-63" transform="translate(540.133,11.6126) rotate(90)"><title>Sheet.26</title><path d="M0 102.8 L11.34 102.8" class="st7"/></g><g id="shape27-66" transform="translate(568.479,11.6126) rotate(90)"><title>Sheet.27</title><path d="M0 102.8 L11.34 102.8" class="st7"/></g><g id="shape44-69" transform="translate(340.957,-37.3504)"><title>Sheet.44</title><desc>EA</desc><rect x="0" y="91.4587" width="34.0157" height="11.3386" class="st8"/><text x="21.34" y="99.53" class="st3">EA</text></g><g id="shape45-72" transform="translate(386.312,-43.0197) scale(-1,1)"><title>Sheet.45</title><path d="M0 97.13 L0 102.8 L11.34 102.8" class="st9"/></g><g id="group36-75" transform="translate(12.1386,-11.8386)"><title>Sheet.36</title><g id="shape37-76" transform="translate(11.3386,0)"><title>Rectangle No Fill No Fill.116</title><desc>res0</desc><rect x="0" y="91.4587" width="22.6772" height="11.3386" class="st10"/><text x="3.07" y="99.53" class="st11">RES<tspan class="st12">0</tspan></text></g><g id="shape46-80"><title>Graphic.117</title><rect x="0" y="91.4587" width="11.3386" height="11.3386" class="st13"/></g></g><g id="shape251-82" transform="translate(425.997,-79.8701)"><title>32-bit Reg.9</title><desc>5</desc><text x="3.44" y="99.53" class="st4">5</text></g><g id="group252-84" transform="translate(444.422,-48.7499)"><title>Sheet.252</title><g id="shape253-85" transform="translate(0.849656,-28.7711)"><title>Sheet.253</title><rect x="0" y="98.5453" width="1.98425" height="4.25197" class="st14"/></g><g id="shape254-87" transform="translate(-1.41137E-14,-28.3125)"><title>Sheet.254</title><path d="M0.75 98.07 C0.52 97.85 0 99.2 0 99.57 C0 99.95 0.67 100.85 0.75 101.07 C0.83 101.3 0.22 102.8 0 102.57         L0.75 98.07 Z" class="st15"/><path d="M0.75 98.07 C0.52 97.85 0 99.2 0 99.57 C0 99.95 0.67 100.85 0.75 101.07 C0.83 101.3 0.22 102.8 0 102.57" class="st16"/></g><g id="shape255-90" transform="translate(1.98188,-28.3125)"><title>Sheet.255</title><path d="M0.75 98.07 C0.52 97.85 0 99.2 0 99.57 C0 99.95 0.67 100.85 0.75 101.07 C0.83 101.3 0.22 102.8 0 102.57         L0.75 98.07 Z" class="st15"/><path d="M0.75 98.07 C0.52 97.85 0 99.2 0 99.57 C0 99.95 0.67 100.85 0.75 101.07 C0.83 101.3 0.22 102.8 0 102.57" class="st16"/></g><g id="shape256-93" transform="translate(0.849656,-0.424643)"><title>Sheet.256</title><rect x="0" y="98.5453" width="1.98425" height="4.25197" class="st14"/></g><g id="shape257-95"><title>Sheet.257</title><path d="M0.75 98.07 C0.52 97.85 0 99.2 0 99.57 C0 99.95 0.67 100.85 0.75 101.07 C0.83 101.3 0.22 102.8 0 102.57         L0.75 98.07 Z" class="st15"/><path d="M0.75 98.07 C0.52 97.85 0 99.2 0 99.57 C0 99.95 0.67 100.85 0.75 101.07 C0.83 101.3 0.22 102.8 0 102.57" class="st16"/></g><g id="shape258-98" transform="translate(1.98188,2.84217E-14)"><title>Sheet.258</title><path d="M0.75 98.07 C0.52 97.85 0 99.2 0 99.57 C0 99.95 0.67 100.85 0.75 101.07 C0.83 101.3 0.22 102.8 0 102.57         L0.75 98.07 Z" class="st15"/><path d="M0.75 98.07 C0.52 97.85 0 99.2 0 99.57 C0 99.95 0.67 100.85 0.75 101.07 C0.83 101.3 0.22 102.8 0 102.57" class="st16"/></g></g><g id="shape260-101" transform="translate(425.997,-51.5236)"><title>32-bit Reg.17</title><path d="M0 74.45 L0 102.8" class="st6"/></g><g id="shape261-104" transform="translate(414.658,-79.8701)"><title>32-bit Reg.261</title><desc>6</desc><text x="3.44" y="99.53" class="st4">6</text></g><g id="shape262-106" transform="translate(391.981,-51.5236)"><title>32-bit Reg.262</title><path d="M0 74.45 L0 102.8" class="st6"/></g><g id="shape263-109" transform="translate(346.627,-51.5236)"><title>32-bit Reg.263</title><path d="M0 74.45 L0 102.8" class="st6"/></g><g id="shape264-112" transform="translate(391.981,-79.8701)"><title>32-bit Reg.264</title><desc>8</desc><text x="3.44" y="99.53" class="st4">8</text></g><g id="shape265-114" transform="translate(380.643,-79.8701)"><title>32-bit Reg.265</title><desc>9</desc><text x="3.44" y="99.53" class="st4">9</text></g><g id="shape266-116" transform="translate(380.643,-51.5236)"><title>32-bit Reg.266</title><path d="M0 74.45 L0 102.8" class="st6"/></g><g id="shape268-119" transform="translate(369.304,-79.8701)"><title>32-bit Reg.268</title><desc>10</desc><text x="1.22" y="99.53" class="st4">10</text></g><g id="shape269-121" transform="translate(346.627,-79.8701)"><title>32-bit Reg.269</title><desc>12</desc><text x="1.22" y="99.53" class="st4">12</text></g><g id="shape270-123" transform="translate(335.288,-79.8701)"><title>32-bit Reg.270</title><desc>13</desc><text x="1.22" y="99.53" class="st4">13</text></g><g id="shape271-125" transform="translate(272.926,-79.8701)"><title>32-bit Reg.271</title><desc>23</desc><text x="1.22" y="99.53" class="st4">23</text></g><g id="shape272-127" transform="translate(404.07,11.6366) rotate(90)"><title>Time division.50</title><path d="M0 102.8 L11.34 102.8" class="st7"/></g><g id="shape273-130" transform="translate(375.723,11.5886) rotate(90)"><title>Time division.273</title><path d="M0 102.8 L11.34 102.8" class="st7"/></g><g id="group274-133" transform="translate(308.359,-49.4422)"><title>Sheet.274</title><g id="shape275-134" transform="translate(0.849656,-28.7711)"><title>Sheet.275</title><rect x="0" y="98.5453" width="1.98425" height="4.25197" class="st14"/></g><g id="shape276-136" transform="translate(-1.41137E-14,-28.3125)"><title>Sheet.276</title><path d="M0.75 98.07 C0.52 97.85 0 99.2 0 99.57 C0 99.95 0.67 100.85 0.75 101.07 C0.83 101.3 0.22 102.8 0 102.57         L0.75 98.07 Z" class="st15"/><path d="M0.75 98.07 C0.52 97.85 0 99.2 0 99.57 C0 99.95 0.67 100.85 0.75 101.07 C0.83 101.3 0.22 102.8 0 102.57" class="st16"/></g><g id="shape277-139" transform="translate(1.98188,-28.3125)"><title>Sheet.277</title><path d="M0.75 98.07 C0.52 97.85 0 99.2 0 99.57 C0 99.95 0.67 100.85 0.75 101.07 C0.83 101.3 0.22 102.8 0 102.57         L0.75 98.07 Z" class="st15"/><path d="M0.75 98.07 C0.52 97.85 0 99.2 0 99.57 C0 99.95 0.67 100.85 0.75 101.07 C0.83 101.3 0.22 102.8 0 102.57" class="st16"/></g><g id="shape278-142" transform="translate(0.849656,-0.424643)"><title>Sheet.278</title><rect x="0" y="98.5453" width="1.98425" height="4.25197" class="st14"/></g><g id="shape279-144"><title>Sheet.279</title><path d="M0.75 98.07 C0.52 97.85 0 99.2 0 99.57 C0 99.95 0.67 100.85 0.75 101.07 C0.83 101.3 0.22 102.8 0 102.57         L0.75 98.07 Z" class="st15"/><path d="M0.75 98.07 C0.52 97.85 0 99.2 0 99.57 C0 99.95 0.67 100.85 0.75 101.07 C0.83 101.3 0.22 102.8 0 102.57" class="st16"/></g><g id="shape280-147" transform="translate(1.98188,2.84217E-14)"><title>Sheet.280</title><path d="M0.75 98.07 C0.52 97.85 0 99.2 0 99.57 C0 99.95 0.67 100.85 0.75 101.07 C0.83 101.3 0.22 102.8 0 102.57         L0.75 98.07 Z" class="st15"/><path d="M0.75 98.07 C0.52 97.85 0 99.2 0 99.57 C0 99.95 0.67 100.85 0.75 101.07 C0.83 101.3 0.22 102.8 0 102.57" class="st16"/></g></g><g id="shape281-150" transform="translate(261.587,-51.5236)"><title>32-bit Reg.281</title><path d="M0 74.45 L0 102.8" class="st6"/></g><g id="shape4-153" transform="translate(221.902,-37.3504)"><title>Sheet.4</title><desc>IDS</desc><rect x="0" y="91.4587" width="34.0157" height="11.3386" class="st8"/><text x="18.68" y="99.53" class="st3">IDS</text></g><g id="shape5-156" transform="translate(267.257,-43.0197) scale(-1,1)"><title>Sheet.5</title><path d="M0 97.13 L0 102.8 L11.34 102.8" class="st9"/></g><g id="group13-159" transform="translate(237.493,-48.689)"><title>Sheet.13</title><g id="shape29-160" transform="translate(0.849656,-28.7711)"><title>Sheet.29</title><rect x="0" y="98.5453" width="1.98425" height="4.25197" class="st14"/></g><g id="shape32-162" transform="translate(-1.41137E-14,-28.3125)"><title>Sheet.32</title><path d="M0.75 98.07 C0.52 97.85 0 99.2 0 99.57 C0 99.95 0.67 100.85 0.75 101.07 C0.83 101.3 0.22 102.8 0 102.57         L0.75 98.07 Z" class="st15"/><path d="M0.75 98.07 C0.52 97.85 0 99.2 0 99.57 C0 99.95 0.67 100.85 0.75 101.07 C0.83 101.3 0.22 102.8 0 102.57" class="st16"/></g><g id="shape33-165" transform="translate(1.98188,-28.3125)"><title>Sheet.33</title><path d="M0.75 98.07 C0.52 97.85 0 99.2 0 99.57 C0 99.95 0.67 100.85 0.75 101.07 C0.83 101.3 0.22 102.8 0 102.57         L0.75 98.07 Z" class="st15"/><path d="M0.75 98.07 C0.52 97.85 0 99.2 0 99.57 C0 99.95 0.67 100.85 0.75 101.07 C0.83 101.3 0.22 102.8 0 102.57" class="st16"/></g><g id="shape34-168" transform="translate(0.849656,-0.424643)"><title>Sheet.34</title><rect x="0" y="98.5453" width="1.98425" height="4.25197" class="st14"/></g><g id="shape35-170"><title>Sheet.35</title><path d="M0.75 98.07 C0.52 97.85 0 99.2 0 99.57 C0 99.95 0.67 100.85 0.75 101.07 C0.83 101.3 0.22 102.8 0 102.57         L0.75 98.07 Z" class="st15"/><path d="M0.75 98.07 C0.52 97.85 0 99.2 0 99.57 C0 99.95 0.67 100.85 0.75 101.07 C0.83 101.3 0.22 102.8 0 102.57" class="st16"/></g><g id="shape283-173" transform="translate(1.98188,2.84217E-14)"><title>Sheet.283</title><path d="M0.75 98.07 C0.52 97.85 0 99.2 0 99.57 C0 99.95 0.67 100.85 0.75 101.07 C0.83 101.3 0.22 102.8 0 102.57         L0.75 98.07 Z" class="st15"/><path d="M0.75 98.07 C0.52 97.85 0 99.2 0 99.57 C0 99.95 0.67 100.85 0.75 101.07 C0.83 101.3 0.22 102.8 0 102.57" class="st16"/></g></g><g id="shape284-176" transform="translate(204.894,-79.822)"><title>32-bit Reg.6</title><desc>31</desc><text x="1.22" y="99.5" class="st4">31</text></g><g id="shape10-178" transform="translate(256.668,11.5886) rotate(90)"><title>Time division.10</title><path d="M0 102.8 L11.34 102.8" class="st7"/></g><g id="shape18-181" transform="translate(233.991,11.6366) rotate(90)"><title>Time division.18</title><path d="M0 102.8 L11.34 102.8" class="st7"/></g><g id="shape30-184" transform="translate(211.314,11.5886) rotate(90)"><title>Time division.30</title><path d="M0 102.8 L11.34 102.8" class="st7"/></g><g id="shape31-187" transform="translate(188.637,11.6366) rotate(90)"><title>Sheet.31</title><path d="M0 102.8 L11.34 102.8" class="st7"/></g><g id="shape38-190" transform="translate(165.959,11.5886) rotate(90)"><title>Time division.38</title><path d="M0 102.8 L11.34 102.8" class="st7"/></g><g id="shape39-193" transform="translate(143.282,11.5886) rotate(90)"><title>Time division.39</title><path d="M0 102.8 L11.34 102.8" class="st7"/></g><g id="group1-196" transform="translate(107.1,-49.4422)"><title>Sheet.1</title><g id="shape40-197" transform="translate(0.849656,-28.7711)"><title>Sheet.40</title><rect x="0" y="98.5453" width="1.98425" height="4.25197" class="st14"/></g><g id="shape41-199" transform="translate(-1.41137E-14,-28.3125)"><title>Sheet.41</title><path d="M0.75 98.07 C0.52 97.85 0 99.2 0 99.57 C0 99.95 0.67 100.85 0.75 101.07 C0.83 101.3 0.22 102.8 0 102.57         L0.75 98.07 Z" class="st15"/><path d="M0.75 98.07 C0.52 97.85 0 99.2 0 99.57 C0 99.95 0.67 100.85 0.75 101.07 C0.83 101.3 0.22 102.8 0 102.57" class="st16"/></g><g id="shape42-202" transform="translate(1.98188,-28.3125)"><title>Sheet.42</title><path d="M0.75 98.07 C0.52 97.85 0 99.2 0 99.57 C0 99.95 0.67 100.85 0.75 101.07 C0.83 101.3 0.22 102.8 0 102.57         L0.75 98.07 Z" class="st15"/><path d="M0.75 98.07 C0.52 97.85 0 99.2 0 99.57 C0 99.95 0.67 100.85 0.75 101.07 C0.83 101.3 0.22 102.8 0 102.57" class="st16"/></g><g id="shape47-205" transform="translate(0.849656,-0.424643)"><title>Sheet.47</title><rect x="0" y="98.5453" width="1.98425" height="4.25197" class="st14"/></g><g id="shape48-207"><title>Sheet.48</title><path d="M0.75 98.07 C0.52 97.85 0 99.2 0 99.57 C0 99.95 0.67 100.85 0.75 101.07 C0.83 101.3 0.22 102.8 0 102.57         L0.75 98.07 Z" class="st15"/><path d="M0.75 98.07 C0.52 97.85 0 99.2 0 99.57 C0 99.95 0.67 100.85 0.75 101.07 C0.83 101.3 0.22 102.8 0 102.57" class="st16"/></g><g id="shape49-210" transform="translate(1.98188,2.84217E-14)"><title>Sheet.49</title><path d="M0.75 98.07 C0.52 97.85 0 99.2 0 99.57 C0 99.95 0.67 100.85 0.75 101.07 C0.83 101.3 0.22 102.8 0 102.57         L0.75 98.07 Z" class="st15"/><path d="M0.75 98.07 C0.52 97.85 0 99.2 0 99.57 C0 99.95 0.67 100.85 0.75 101.07 C0.83 101.3 0.22 102.8 0 102.57" class="st16"/></g></g></g></svg>