<?xml version="1.0" encoding="UTF-8" standalone="no"?><!-- Fixed up by svgfix.xsl 1.4  --><!-- Generated by Microsoft Visio 11.0, SVG Export, v1.0 trcconfigr_bit_assignments.svg ARM -->
<!DOCTYPE svg
  PUBLIC "-//W3C//DTD SVG 1.0//EN" "http://www.w3.org/TR/2001/REC-SVG-20010904/DTD/svg10.dtd">
<svg xmlns:xlink="http://www.w3.org/1999/xlink" xmlns="http://www.w3.org/2000/svg" xmlns:ev="http://www.w3.org/2001/xml-events" width="516.149" height="165.652" viewBox="0 0 387.112 124.239" xml:space="preserve" color-interpolation-filters="sRGB" class="st13" preserveAspectRatio="xMidYMid meet" zoomAndPan="magnify" version="1.0" contentScriptType="text/ecmascript" contentStyleType="text/css"><style type="text/css" xml:space="preserve"><![CDATA[
	
		.st1 {fill:#ccdfdb;stroke:#000000;stroke-linecap:butt;stroke-width:0.5px}
		.st2 {fill:#eed9b3;stroke:#000000;stroke-linecap:butt;stroke-width:0.5px}
		.st3 {stroke:#000000;stroke-linecap:butt;stroke-width:0.8px}
		.st4 {stroke:#000000;stroke-dasharray:0.25,0.5;stroke-linecap:butt;stroke-width:0.25px}
		.st5 {fill:#000000;font-family:Arial,Helvetica,sans-serif;font-size:0.666664em}
		.st6 {stroke:#000000;stroke-linecap:butt;stroke-width:0.5px}
		.st7 {fill:none;stroke:none;stroke-linecap:butt;stroke-width:0.5px}
		.st8 {fill:none;stroke:none;stroke-linecap:butt;stroke-width:0.499999px}
		.st9 {fill:#000000;font-family:Arial,Helvetica,sans-serif;font-size:0.533318em}
		.st10 {font-size:1.25003em}
		.st11 {fill:#eed9b3;stroke:none;stroke-linecap:round;stroke-linejoin:round;stroke-width:0.2px}
		.st12 {fill:#ccdfdb;stroke:none;stroke-linecap:round;stroke-linejoin:round;stroke-width:0.2px}
		.st13 {fill:none;fill-rule:evenodd;font-size:12px;overflow:visible;stroke-linecap:square;stroke-miterlimit:3}]]></style><g xmlns:v="http://schemas.microsoft.com/visio/2003/SVGExtensions/"><title content="structured text">ARM</title><g id="shape44-1" transform="translate(363.635,-72.9652)"><title content="structured text">Sheet.44</title><rect x="0" y="95.8924" width="11.3386" height="28.3465" class="st1"/></g><g id="shape43-3" transform="translate(306.942,-72.9652)"><title content="structured text">Sheet.43</title><rect x="0" y="95.8924" width="11.3386" height="28.3465" class="st2"/></g><g id="shape16-5" transform="translate(12.189,-73.0322)"><title content="structured text">Sheet.16</title><rect x="0" y="95.8924" width="158.457" height="28.3465" class="st2"/></g><g id="shape1-7" transform="translate(374.973,-72.9652) scale(-1,1)"><title content="structured text">64-bit register.156</title><path d="M0 95.89 L362.83 95.89 L362.83 124.24 L0 124.24" class="st3"/></g><g id="shape2-10" transform="translate(136.377,11.5886) rotate(90)"><title content="structured text">64-bit register.169</title><path d="M0 124.24 L11.34 124.24" class="st4"/></g><g id="shape3-13" transform="translate(374.973,-72.9652)"><title content="structured text">64-bit register.157</title><path d="M0 95.89 L0 124.24" class="st3"/></g><g id="shape4-16" transform="translate(238.91,-72.9652)"><title content="structured text">64-bit register.41</title><path d="M0 95.89 L0 124.24" class="st3"/></g><g id="shape5-19" transform="translate(250.249,-72.9652)"><title content="structured text">64-bit register.42</title><path d="M0 95.89 L0 124.24" class="st3"/></g><g id="shape6-22" transform="translate(284.265,-72.9652)"><title content="structured text">64-bit register.52</title><path d="M0 95.89 L0 124.24" class="st3"/></g><g id="shape7-25" transform="translate(181.732,11.5886) rotate(90)"><title content="structured text">64-bit register.11</title><path d="M0 124.24 L11.34 124.24" class="st4"/></g><g id="shape8-28" transform="translate(227.086,11.5886) rotate(90)"><title content="structured text">64-bit register.12</title><path d="M0 124.24 L11.34 124.24" class="st4"/></g><g id="shape9-31" transform="translate(272.44,11.5886) rotate(90)"><title content="structured text">64-bit register.13</title><path d="M0 124.24 L11.34 124.24" class="st4"/></g><g id="shape10-34" transform="translate(317.795,11.5886) rotate(90)"><title content="structured text">64-bit register.14</title><path d="M0 124.24 L11.34 124.24" class="st4"/></g><g id="shape11-37" transform="translate(363.149,11.5886) rotate(90)"><title content="structured text">64-bit register.15</title><path d="M0 124.24 L11.34 124.24" class="st4"/></g><g id="shape12-40" transform="translate(453.858,11.5886) rotate(90)"><title content="structured text">64-bit register.16</title><path d="M0 124.24 L11.34 124.24" class="st4"/></g><g id="shape13-43" transform="translate(499.212,11.5886) rotate(90)"><title content="structured text">64-bit register.17</title><path d="M0 124.24 L11.34 124.24" class="st4"/></g><g id="shape14-46" transform="translate(12.1386,-101.312)"><title content="structured text">64-bit register.179</title><desc content="structured text">31</desc><text x="1.22" y="120.97" class="st5">31</text></g><g id="shape15-48" transform="translate(363.635,-101.312)"><title content="structured text">64-bit register.19</title><desc content="structured text">0</desc><text x="3.44" y="120.97" class="st5">0</text></g><g id="shape17-50" transform="translate(408.503,11.5886) rotate(90)"><title content="structured text">64-bit register.21</title><path d="M0 124.24 L11.34 124.24" class="st4"/></g><g id="shape19-53" transform="translate(227.572,-72.9652)"><title content="structured text">64-bit register.32</title><path d="M0 95.89 L0 124.24" class="st3"/></g><g id="shape20-56" transform="translate(227.572,-101.312)"><title content="structured text">64-bit register.33</title><desc content="structured text">12</desc><text x="1.22" y="120.97" class="st5">12</text></g><g id="shape21-58" transform="translate(238.91,-101.312)"><title content="structured text">64-bit register.34</title><desc content="structured text">11</desc><text x="1.22" y="120.97" class="st5">11</text></g><g id="shape22-60" transform="translate(250.249,-101.312)"><title content="structured text">64-bit register.35</title><desc content="structured text">10</desc><text x="1.22" y="120.97" class="st5">10</text></g><g id="shape23-62" transform="translate(272.926,-101.312)"><title content="structured text">64-bit register.36</title><desc content="structured text">8</desc><text x="3.44" y="120.97" class="st5">8</text></g><g id="shape24-64" transform="translate(295.603,-101.312)"><title content="structured text">64-bit register.37</title><desc content="structured text">6</desc><text x="3.44" y="120.97" class="st5">6</text></g><g id="shape25-66" transform="translate(284.265,-101.312)"><title content="structured text">Sheet.25</title><desc content="structured text">7</desc><text x="3.44" y="120.97" class="st5">7</text></g><g id="shape26-68" transform="translate(306.942,-101.312)"><title content="structured text">Sheet.26</title><desc content="structured text">5</desc><text x="3.44" y="120.97" class="st5">5</text></g><g id="shape27-70" transform="translate(318.28,-101.312)"><title content="structured text">64-bit register.40</title><desc content="structured text">4</desc><text x="3.44" y="120.97" class="st5">4</text></g><g id="shape28-72" transform="translate(329.619,-101.312)"><title content="structured text">Sheet.28</title><desc content="structured text">3</desc><text x="3.44" y="120.97" class="st5">3</text></g><g id="shape29-74" transform="translate(340.957,-101.312)"><title content="structured text">Sheet.29</title><desc content="structured text">2</desc><text x="3.44" y="120.97" class="st5">2</text></g><g id="shape30-76" transform="translate(340.957,-72.9652)"><title content="structured text">64-bit register.45</title><path d="M0 95.89 L0 124.24" class="st3"/></g><g id="shape31-79" transform="translate(329.619,-72.9652)"><title content="structured text">64-bit register.46</title><path d="M0 95.89 L0 124.24" class="st3"/></g><g id="shape32-82" transform="translate(318.28,-72.9652)"><title content="structured text">64-bit register.48</title><path d="M0 95.89 L0 124.24" class="st3"/></g><g id="shape33-85" transform="translate(295.603,-72.9652)"><title content="structured text">64-bit register.49</title><path d="M0 95.89 L0 124.24" class="st3"/></g><g id="shape34-88" transform="translate(306.942,-72.9652)"><title content="structured text">64-bit register.51</title><path d="M0 95.89 L0 124.24" class="st3"/></g><g id="shape39-91" transform="translate(289.934,-64.4613) scale(-1,1)"><title content="structured text">Sheet.39</title><path d="M0 118.57 L0 124.24 L5.67 124.24" class="st6"/></g><g id="shape40-94" transform="translate(253.083,-58.792)"><title content="structured text">Sheet.40</title><desc content="structured text">VMID</desc><rect x="0" y="112.9" width="31.1811" height="11.3386" class="st7"/><text x="9.18" y="120.97" class="st5">VMID</text></g><g id="shape41-97" transform="translate(253.083,-47.4534)"><title content="structured text">Sheet.41</title><desc content="structured text">CID</desc><rect x="0" y="112.9" width="31.1811" height="11.3386" class="st7"/><text x="15.4" y="120.97" class="st5">CID</text></g><g id="shape42-100" transform="translate(301.272,-53.1227) scale(-1,1)"><title content="structured text">Sheet.42</title><path d="M0 107.23 L0 124.24 L17.01 124.24" class="st6"/></g><g id="shape45-103" transform="translate(323.95,-41.7841) scale(-1,1)"><title content="structured text">Sheet.45</title><path d="M0 95.89 L0 124.24 L39.69 124.24" class="st6"/></g><g id="shape46-106" transform="translate(335.288,-30.4455) scale(-1,1)"><title content="structured text">Sheet.46</title><path d="M0 84.55 L0 124.24 L51.02 124.24" class="st6"/></g><g id="shape49-109" transform="translate(253.083,-36.1148)"><title content="structured text">Sheet.49</title><desc content="structured text">CCI</desc><rect x="0" y="112.9" width="31.1811" height="11.3386" class="st7"/><text x="15.4" y="120.97" class="st5">CCI</text></g><g id="shape50-112" transform="translate(261.587,-24.7763)"><title content="structured text">Sheet.50</title><desc content="structured text">BB</desc><rect x="0" y="112.9" width="22.6772" height="11.3386" class="st7"/><text x="10.01" y="120.97" class="st5">BB</text></g><g id="shape51-115" transform="translate(216.233,-101.312)"><title content="structured text">64-bit register.22</title><desc content="structured text">13</desc><text x="1.22" y="120.97" class="st5">13</text></g><g id="shape52-117" transform="translate(363.635,-72.9652)"><title content="structured text">64-bit register.24</title><path d="M0 95.89 L0 124.24" class="st3"/></g><g id="shape53-120" transform="translate(352.296,-101.312)"><title content="structured text">Sheet.53</title><desc content="structured text">1</desc><text x="3.44" y="120.97" class="st5">1</text></g><g id="shape57-122" transform="translate(22.5786,-36.1148)"><title content="structured text">Rectangle No Fill No Fill.116</title><desc content="structured text">res0</desc><rect x="0" y="112.9" width="19.8425" height="11.3386" class="st8"/><text x="1.24" y="120.97" class="st9">RES<tspan class="st10">0</tspan></text></g><g id="shape58-126" transform="translate(12.1386,-36.1148)"><title content="structured text">Graphic.117</title><rect x="0" y="112.9" width="10.44" height="11.3386" class="st11"/></g><g id="shape48-128" transform="translate(22.6772,-49.7881)"><title content="structured text">Rectangle No Fill No Fill.48</title><desc content="structured text">res0</desc><rect x="0" y="112.9" width="19.8425" height="11.3386" class="st8"/><text x="1.24" y="120.97" class="st9">RES<tspan class="st10">1</tspan></text></g><g id="shape54-132" transform="translate(12.2372,-49.7881)"><title content="structured text">Graphic.54</title><rect x="0" y="112.9" width="10.44" height="11.3386" class="st12"/></g><g id="shape59-134" transform="translate(204.803,-72.9967)"><title content="structured text">64-bit register.59</title><path d="M0 95.89 L0 124.24" class="st3"/></g><g id="shape60-137" transform="translate(193.642,-73.1739)"><title content="structured text">64-bit register.60</title><path d="M0 95.89 L0 124.24" class="st3"/></g><g id="shape61-140" transform="translate(182.126,-72.8196)"><title content="structured text">64-bit register.61</title><path d="M0 95.89 L0 124.24" class="st3"/></g><g id="shape62-143" transform="translate(170.787,-73.1739)"><title content="structured text">64-bit register.62</title><path d="M0 95.89 L0 124.24" class="st3"/></g><g id="shape64-146" transform="translate(205.157,-101.166)"><title content="structured text">64-bit register.64</title><desc content="structured text">14</desc><text x="1.22" y="120.97" class="st5">14</text></g><g id="shape65-148" transform="translate(192.756,-101.166)"><title content="structured text">64-bit register.65</title><desc content="structured text">15</desc><text x="1.22" y="120.97" class="st5">15</text></g><g id="shape66-150" transform="translate(182.303,-101.166)"><title content="structured text">64-bit register.66</title><desc content="structured text">16</desc><text x="1.22" y="120.97" class="st5">16</text></g><g id="shape67-152" transform="translate(170.787,-101.166)"><title content="structured text">64-bit register.67</title><desc content="structured text">17</desc><text x="1.22" y="120.97" class="st5">17</text></g><g id="shape68-154" transform="translate(159.272,-101.166)"><title content="structured text">64-bit register.68</title><desc content="structured text">18</desc><text x="1.22" y="120.97" class="st5">18</text></g><g id="shape63-156" transform="translate(205.157,-80.9692)"><title content="structured text">Sheet.63</title><desc content="structured text">QE</desc><rect x="0" y="112.9" width="22.6772" height="11.3386" class="st7"/><text x="4.56" y="120.97" class="st5">QE</text></g><g id="shape47-159" transform="translate(250.866,-80.9692)"><title content="structured text">Sheet.47</title><desc content="structured text">COND</desc><rect x="0" y="112.9" width="33.7323" height="11.3386" class="st7"/><text x="4.09" y="120.97" class="st5">COND</text></g><g id="shape55-162" transform="translate(175.748,-63.9613) scale(-1,1)"><title content="structured text">Sheet.55</title><path d="M0 118.57 L0 124.24 L5.67 124.24" class="st6"/></g><g id="shape56-165" transform="translate(187.087,-52.6227) scale(-1,1)"><title content="structured text">Sheet.56</title><path d="M0 107.23 L0 124.24 L17.01 124.24" class="st6"/></g><g id="shape18-168" transform="translate(147.402,-58.292)"><title content="structured text">Sheet.18</title><desc content="structured text">DV</desc><rect x="0" y="112.9" width="22.6772" height="11.3386" class="st7"/><text x="9.56" y="120.97" class="st5">DV</text></g><g id="shape35-171" transform="translate(198.7,-41.2841) scale(-1,1)"><title content="structured text">Sheet.35</title><path d="M0 95.89 L0 124.24 L28.62 124.24" class="st6"/></g><g id="shape36-174" transform="translate(232.441,-29.9455) scale(-1,1)"><title content="structured text">Sheet.36</title><path d="M0 84.55 L0 124.24 L62.36 124.24" class="st6"/></g><g id="shape37-177" transform="translate(243.78,-18.607) scale(-1,1)"><title content="structured text">Sheet.37</title><path d="M0 73.22 L0 124.24 L73.7 124.24" class="st6"/></g><g id="shape69-180" transform="translate(147.402,-46.6786)"><title content="structured text">Sheet.69</title><desc content="structured text">DA</desc><rect x="0" y="112.9" width="22.6772" height="11.3386" class="st7"/><text x="9.56" y="120.97" class="st5">DA</text></g><g id="shape70-183" transform="translate(127.559,-35.0653)"><title content="structured text">Sheet.70</title><desc content="structured text">VMIDOPT</desc><rect x="0" y="112.9" width="42.5197" height="11.3386" class="st7"/><text x="4.07" y="120.97" class="st5">VMIDOPT</text></g><g id="shape71-186" transform="translate(147.402,-23.4519)"><title content="structured text">Sheet.71</title><desc content="structured text">RS</desc><rect x="0" y="112.9" width="22.6772" height="11.3386" class="st7"/><text x="9.56" y="120.97" class="st5">RS</text></g><g id="shape72-189" transform="translate(147.402,-11.8386)"><title content="structured text">Sheet.72</title><desc content="structured text">TS</desc><rect x="0" y="112.9" width="22.6772" height="11.3386" class="st7"/><text x="10.45" y="120.97" class="st5">TS</text></g><g id="shape38-192" transform="translate(351.496,-18.607) scale(-1,1)"><title content="structured text">Sheet.38</title><path d="M0 73.22 L0 124.24 L67.18 124.24" class="st6"/></g><g id="shape73-195" transform="translate(251.717,-12.9377)"><title content="structured text">Sheet.73</title><desc content="structured text">INSTP0</desc><rect x="0" y="112.9" width="32.6339" height="11.3386" class="st7"/><text x="2.63" y="120.97" class="st5">INSTP0</text></g></g></svg>