<?xml version="1.0" encoding="UTF-8" standalone="no"?><!-- Fixed up by svgfix.xsl 1.4  --><!-- Generated by Microsoft Visio 11.0, SVG Export, v1.0 lau1464853420587_low res.svg ARM -->
<!DOCTYPE svg
  PUBLIC "-//W3C//DTD SVG 1.0//EN" "http://www.w3.org/TR/2001/REC-SVG-20010904/DTD/svg10.dtd">
<svg xmlns:xlink="http://www.w3.org/1999/xlink" xmlns="http://www.w3.org/2000/svg" xmlns:ev="http://www.w3.org/2001/xml-events" width="516.172" height="122.306" viewBox="0 0 387.129 91.729" xml:space="preserve" color-interpolation-filters="sRGB" class="st11" preserveAspectRatio="xMidYMid meet" zoomAndPan="magnify" version="1.0" contentScriptType="text/ecmascript" contentStyleType="text/css"><style type="text/css" xml:space="preserve"><![CDATA[
	
		.st1 {fill:#eed9b3;stroke:none;stroke-linecap:round;stroke-linejoin:round;stroke-width:0.2px}
		.st2 {stroke:#000000;stroke-linecap:butt;stroke-width:0.8px}
		.st3 {stroke:#000000;stroke-dasharray:0.25,0.5;stroke-linecap:butt;stroke-width:0.25px}
		.st4 {fill:#000000;font-family:Arial,Helvetica,sans-serif;font-size:0.666664em}
		.st5 {fill:none;stroke:none;stroke-linecap:butt;stroke-width:0.499999px}
		.st6 {fill:#000000;font-family:Arial,Helvetica,sans-serif;font-size:0.533318em}
		.st7 {font-size:1.25003em}
		.st8 {fill:none;stroke:none;stroke-linecap:butt;stroke-width:0.5px}
		.st9 {fill:#ffffff;stroke:none;stroke-linecap:butt;stroke-width:0.5px}
		.st10 {stroke:#000000;stroke-linecap:butt;stroke-width:0.5px}
		.st11 {fill:none;fill-rule:evenodd;font-size:12px;overflow:visible;stroke-linecap:square;stroke-miterlimit:3}]]></style><g xmlns:v="http://schemas.microsoft.com/visio/2003/SVGExtensions/"><title content="structured text">ARM</title><g id="shape33-1" transform="translate(328.819,-39.685)"><title content="structured text">Graphic.33</title><rect x="0" y="63.4958" width="22.6772" height="28.2335" class="st1"/></g><g id="shape11-3" transform="translate(10.9386,-39.685)"><title content="structured text">Graphic.1</title><rect x="0" y="63.4958" width="133.628" height="28.2335" class="st1"/></g><g id="shape2-5" transform="translate(374.573,-39.9557) scale(-1,1)"><title content="structured text">64-bit register.156</title><path d="M0 63.38 L362.83 63.38 L362.83 91.73 L0 91.73" class="st2"/></g><g id="shape3-8" transform="translate(103.468,12.0886) rotate(90)"><title content="structured text">64-bit register.169</title><path d="M0 91.73 L11.34 91.73" class="st3"/></g><g id="shape4-11" transform="translate(374.573,-39.9557)"><title content="structured text">64-bit register.157</title><path d="M0 63.38 L0 91.73" class="st2"/></g><g id="shape6-14" transform="translate(330.24,12.0886) rotate(90)"><title content="structured text">64-bit register.15</title><path d="M0 91.73 L11.34 91.73" class="st3"/></g><g id="shape7-17" transform="translate(420.948,12.0886) rotate(90)"><title content="structured text">64-bit register.16</title><path d="M0 91.73 L11.34 91.73" class="st3"/></g><g id="shape8-20" transform="translate(466.303,12.0886) rotate(90)"><title content="structured text">64-bit register.17</title><path d="M0 91.73 L11.34 91.73" class="st3"/></g><g id="shape9-23" transform="translate(11.7386,-68.3022)"><title content="structured text">64-bit register.179</title><desc content="structured text">63</desc><text x="1.22" y="88.46" class="st4">63</text></g><g id="shape10-25" transform="translate(363.235,-68.3022)"><title content="structured text">64-bit register.19</title><desc content="structured text">0</desc><text x="3.44" y="88.46" class="st4">0</text></g><g id="shape14-27" transform="translate(375.594,12.0886) rotate(90)"><title content="structured text">64-bit register.29</title><path d="M0 91.73 L11.34 91.73" class="st3"/></g><g id="group12-30" transform="translate(14.5902,-11.8386)"><title content="structured text">Sheet.12</title><g id="shape13-31" transform="translate(11.3386,0)"><title content="structured text">Rectangle No Fill No Fill.116</title><desc content="structured text">res0</desc><rect x="0" y="80.3908" width="22.6772" height="11.3386" class="st5"/><text x="3.07" y="88.46" class="st6">RES<tspan class="st7">0</tspan></text></g><g id="shape15-35"><title content="structured text">Graphic.117</title><rect x="0" y="80.3908" width="11.3386" height="11.3386" class="st1"/></g></g><g id="shape16-37" transform="translate(201.26,-45.3543)"><title content="structured text">Sheet.16</title><desc content="structured text">CEC</desc><rect x="0" y="74.7215" width="36.8504" height="17.0079" class="st8"/><text x="9.98" y="85.63" class="st4">CEC</text></g><g id="shape17-40" transform="translate(189.921,-39.685)"><title content="structured text">Sheet.17</title><path d="M0 91.73 L0 63.38" class="st2"/><path d="M11.34 91.73 L11.34 63.38" class="st2"/></g><g id="shape18-44" transform="translate(351.496,-68.0315)"><title content="structured text">64-bit register.18</title><desc content="structured text">1</desc><text x="3.44" y="88.46" class="st4">1</text></g><g id="shape19-46" transform="translate(340.157,-68.0315)"><title content="structured text">Sheet.19</title><desc content="structured text">2</desc><text x="3.44" y="88.46" class="st4">2</text></g><g id="shape20-48" transform="translate(328.819,-68.0315)"><title content="structured text">Sheet.20</title><desc content="structured text">3</desc><text x="3.44" y="88.46" class="st4">3</text></g><g id="shape21-50" transform="translate(317.48,-68.0315)"><title content="structured text">Sheet.21</title><desc content="structured text">4</desc><text x="3.44" y="88.46" class="st4">4</text></g><g id="shape22-52" transform="translate(306.142,-68.0315)"><title content="structured text">Sheet.22</title><desc content="structured text">5</desc><text x="3.44" y="88.46" class="st4">5</text></g><g id="shape23-54" transform="translate(294.803,-68.0315)"><title content="structured text">Sheet.23</title><desc content="structured text">6</desc><text x="3.44" y="88.46" class="st4">6</text></g><g id="shape24-56" transform="translate(283.465,-68.0315)"><title content="structured text">Sheet.24</title><desc content="structured text">7</desc><text x="3.44" y="88.46" class="st4">7</text></g><g id="shape25-58" transform="translate(272.126,-68.0315)"><title content="structured text">Sheet.25</title><desc content="structured text">8</desc><text x="3.44" y="88.46" class="st4">8</text></g><g id="shape26-60" transform="translate(260.787,-68.0315)"><title content="structured text">Sheet.26</title><desc content="structured text">9</desc><text x="3.44" y="88.46" class="st4">9</text></g><g id="shape27-62" transform="translate(249.449,-68.0315)"><title content="structured text">Sheet.27</title><desc content="structured text">10</desc><text x="1.22" y="88.46" class="st4">10</text></g><g id="shape28-64" transform="translate(238.11,-68.0315)"><title content="structured text">Sheet.28</title><desc content="structured text">11</desc><text x="1.22" y="88.46" class="st4">11</text></g><g id="shape29-66" transform="translate(226.772,-68.0315)"><title content="structured text">Sheet.29</title><desc content="structured text">12</desc><text x="1.22" y="88.46" class="st4">12</text></g><g id="shape30-68" transform="translate(201.26,-68.0315)"><title content="structured text">Sheet.30</title><desc content="structured text">14</desc><text x="1.22" y="88.46" class="st4">14</text></g><g id="shape31-70" transform="translate(189.921,-68.0315)"><title content="structured text">Sheet.31</title><desc content="structured text">15</desc><text x="1.22" y="88.46" class="st4">15</text></g><g id="shape32-72" transform="translate(178.583,-68.0315)"><title content="structured text">Sheet.32</title><desc content="structured text">16</desc><text x="1.22" y="88.46" class="st4">16</text></g><g id="shape34-74" transform="translate(238.11,-39.685)"><title content="structured text">Sheet.34</title><path d="M0 91.73 L0 63.38" class="st2"/><path d="M22.68 91.73 L22.68 63.38" class="st2"/></g><g id="shape35-78" transform="translate(283.465,-39.685)"><title content="structured text">Sheet.35</title><path d="M0 91.73 L0 63.38" class="st2"/><path d="M22.68 91.73 L22.68 63.38" class="st2"/></g><g id="shape36-82" transform="translate(328.819,-39.685)"><title content="structured text">Sheet.36</title><path d="M0 91.73 L0 63.38" class="st2"/><path d="M22.68 91.73 L22.68 63.38" class="st2"/></g><g id="group37-86" transform="translate(92.126,-65.1969)"><title content="structured text">Disconnect</title><g id="shape38-87" transform="translate(0.566929,0)"><title content="structured text">Sheet.38</title><rect x="0" y="86.06" width="1.88976" height="5.66929" class="st9"/></g><g id="shape39-89" transform="translate(92.9102,101.073) rotate(99.4623)"><title content="structured text">Sheet.39</title><path d="M0 91.32 C0.15 91.52 0.72 91.69 1.15 91.72 C1.58 91.76 1.86 91.65 2.34 91.41 C2.63 91.27 2.98 91.09 3.29         90.96 C4.56 90.46 5.03 91.02 5.75 91.32" class="st10"/></g><g id="shape40-92" transform="translate(91.0204,101.073) rotate(99.4623)"><title content="structured text">Sheet.40</title><path d="M0 91.32 C0.15 91.52 0.72 91.69 1.15 91.72 C1.58 91.76 1.86 91.65 2.34 91.41 C2.63 91.27 2.98 91.09 3.29         90.96 C4.56 90.46 5.03 91.02 5.75 91.32" class="st10"/></g></g><g id="group41-95" transform="translate(90.7087,-36.8504)"><title content="structured text">Disconnect.41</title><g id="shape42-96" transform="translate(0.566929,0)"><title content="structured text">Sheet.42</title><rect x="0" y="86.06" width="1.88976" height="5.66929" class="st9"/></g><g id="shape43-98" transform="translate(92.9102,101.073) rotate(99.4623)"><title content="structured text">Sheet.43</title><path d="M0 91.32 C0.15 91.52 0.72 91.69 1.15 91.72 C1.58 91.76 1.86 91.65 2.34 91.41 C2.63 91.27 2.98 91.09 3.29         90.96 C4.56 90.46 5.03 91.02 5.75 91.32" class="st10"/></g><g id="shape44-101" transform="translate(91.0204,101.073) rotate(99.4623)"><title content="structured text">Sheet.44</title><path d="M0 91.32 C0.15 91.52 0.72 91.69 1.15 91.72 C1.58 91.76 1.86 91.65 2.34 91.41 C2.63 91.27 2.98 91.09 3.29         90.96 C4.56 90.46 5.03 91.02 5.75 91.32" class="st10"/></g></g><g id="shape45-104" transform="translate(238.11,-45.3543)"><title content="structured text">Sheet.45</title><desc content="structured text">CFI</desc><rect x="0" y="74.7215" width="22.6772" height="17.0079" class="st8"/><text x="4.9" y="85.63" class="st4">CFI</text></g><g id="shape46-107" transform="translate(260.787,-45.3543)"><title content="structured text">Sheet.46</title><desc content="structured text">UE</desc><rect x="0" y="74.7215" width="22.6772" height="17.0079" class="st8"/><text x="5.78" y="85.63" class="st4">UE</text></g><g id="shape47-110" transform="translate(283.465,-45.3543)"><title content="structured text">Sheet.47</title><desc content="structured text">FI</desc><rect x="0" y="74.7215" width="22.6772" height="17.0079" class="st8"/><text x="7.78" y="85.63" class="st4">FI</text></g><g id="shape48-113" transform="translate(306.142,-45.3543)"><title content="structured text">Sheet.48</title><desc content="structured text">UI</desc><rect x="0" y="74.7215" width="22.6772" height="17.0079" class="st8"/><text x="7.34" y="85.63" class="st4">UI</text></g><g id="shape49-116" transform="translate(351.496,-45.3543)"><title content="structured text">Sheet.49</title><desc content="structured text">ED</desc><rect x="0" y="74.7215" width="22.6772" height="17.0079" class="st8"/><text x="5.78" y="85.63" class="st4">ED</text></g><g id="shape50-119" transform="translate(206.929,-31.1811) scale(-1,1)"><title content="structured text">Bit name 2</title><desc content="structured text">RP</desc><path d="M11.34 86.06 L11.34 91.73 L0 91.73" class="st10"/><text x="1" y="94.13" transform="scale(-1,1)" class="st4">RP</text></g><g id="shape51-123" transform="translate(167.244,-68.0315)"><title content="structured text">Sheet.51</title><desc content="structured text">17</desc><text x="1.22" y="88.46" class="st4">17</text></g><g id="shape52-125" transform="translate(144.567,-39.685)"><title content="structured text">Sheet.52</title><path d="M0 91.73 L0 63.38" class="st2"/><path d="M22.68 91.73 L22.68 63.38" class="st2"/></g><g id="shape53-129" transform="translate(155.906,-68.0315)"><title content="structured text">Sheet.53</title><desc content="structured text">18</desc><text x="1.22" y="88.46" class="st4">18</text></g><g id="shape54-131" transform="translate(144.567,-68.0315)"><title content="structured text">Sheet.54</title><desc content="structured text">19</desc><text x="1.22" y="88.46" class="st4">19</text></g><g id="shape55-133" transform="translate(133.228,-68.0315)"><title content="structured text">Sheet.55</title><desc content="structured text">20</desc><text x="1.22" y="88.46" class="st4">20</text></g><g id="shape56-135" transform="translate(144.567,-45.3543)"><title content="structured text">Sheet.56</title><desc content="structured text">CEO</desc><rect x="0" y="74.7215" width="22.6772" height="17.0079" class="st8"/><text x="2.67" y="85.63" class="st4">CEO</text></g><g id="shape57-138" transform="translate(167.244,-45.3543)"><title content="structured text">Sheet.57</title><desc content="structured text">DUI</desc><rect x="0" y="74.7215" width="22.6772" height="17.0079" class="st8"/><text x="4.45" y="85.63" class="st4">DUI</text></g></g></svg>