<?xml version="1.0" encoding="UTF-8" standalone="no"?><!-- Fixed up by svgfix.xsl 1.4  --><!-- Generated by Microsoft Visio 11.0, SVG Export, v1.0 id_mmfr0_bit_assignments.svg Page-1 -->
<!DOCTYPE svg
  PUBLIC "-//W3C//DTD SVG 1.0//EN" "http://www.w3.org/TR/2001/REC-SVG-20010904/DTD/svg10.dtd">
<svg xmlns:xlink="http://www.w3.org/1999/xlink" xmlns="http://www.w3.org/2000/svg" width="485.913" height="54.313" viewBox="0 0 364.435 40.735" xml:space="preserve" color-interpolation-filters="sRGB" class="st6" preserveAspectRatio="xMidYMid meet" zoomAndPan="magnify" version="1.0" contentScriptType="text/ecmascript" contentStyleType="text/css"><style type="text/css" xml:space="preserve"><![CDATA[
	
		.st1 {fill:#000000;font-family:Arial,Helvetica,sans-serif;font-size:0.666664em}
		.st2 {fill:none;stroke:none;stroke-linecap:round;stroke-linejoin:round;stroke-width:0.2px}
		.st3 {fill:none;visibility:hidden}
		.st4 {stroke:#000000;stroke-linecap:butt;stroke-width:0.8px}
		.st5 {stroke:#000000;stroke-dasharray:0.25,0.5;stroke-linecap:butt;stroke-width:0.25px}
		.st6 {fill:none;fill-rule:evenodd;font-size:12px;overflow:visible;stroke-linecap:square;stroke-miterlimit:3}]]></style><g xmlns:v="http://schemas.microsoft.com/visio/2003/SVGExtensions/"><title content="structured text">Page-1</title><g id="shape1-1" transform="translate(0.8,-29.1465)"><title content="structured text">Sheet.1</title><desc content="structured text">31</desc><text x="1.22" y="37.47" class="st1">31</text></g><g id="shape2-3" transform="translate(216.233,-29.1465)"><title content="structured text">Sheet.2</title><desc content="structured text">12</desc><text x="1.22" y="37.47" class="st1">12</text></g><g id="shape3-5" transform="translate(227.572,-29.1465)"><title content="structured text">Sheet.3</title><desc content="structured text">11</desc><text x="1.22" y="37.47" class="st1">11</text></g><g id="shape4-7" transform="translate(261.587,-29.1465)"><title content="structured text">Sheet.4</title><desc content="structured text">8</desc><text x="3.44" y="37.47" class="st1">8</text></g><g id="shape5-9" transform="translate(272.926,-29.1465)"><title content="structured text">Sheet.5</title><desc content="structured text">7</desc><text x="3.44" y="37.47" class="st1">7</text></g><g id="shape6-11" transform="translate(352.296,-29.1465)"><title content="structured text">Sheet.6</title><desc content="structured text">0</desc><text x="3.44" y="37.47" class="st1">0</text></g><g id="shape7-13" transform="translate(227.572,-0.8)"><title content="structured text">Sheet.7</title><desc content="structured text">OuterShr</desc><rect x="0" y="12.3886" width="45.3543" height="28.3465" class="st2"/><text x="6.45" y="28.96" class="st1">OuterShr</text></g><g id="shape8-16" transform="translate(272.926,-0.8)"><title content="structured text">Sheet.8</title><desc content="structured text">PMSA</desc><rect x="0" y="12.3886" width="45.3543" height="28.3465" class="st2"/><text x="11.34" y="28.96" class="st1">PMSA</text></g><g id="shape9-19" transform="translate(0.8,-0.8)"><title content="structured text">Sheet.9</title><rect x="0" y="12.3886" width="362.835" height="28.3465" class="st3"/><rect x="0" y="12.3886" width="362.835" height="28.3465" class="st4"/></g><g id="shape10-22" transform="translate(227.572,-0.8)"><title content="structured text">Sheet.10</title><path d="M0 12.39 L0 40.74" class="st4"/></g><g id="shape11-25" transform="translate(272.926,-0.8)"><title content="structured text">Sheet.11</title><path d="M0 12.39 L0 40.74" class="st4"/></g><g id="shape12-28" transform="translate(359.015,0.25) rotate(90)"><title content="structured text">Signal 0</title><path d="M0 40.74 L11.34 40.74" class="st5"/></g><g id="shape13-31" transform="translate(313.661,0.25) rotate(90)"><title content="structured text">Signal 0.102</title><path d="M0 40.74 L11.34 40.74" class="st5"/></g><g id="shape14-34" transform="translate(268.307,0.25) rotate(90)"><title content="structured text">Signal 0.103</title><path d="M0 40.74 L11.34 40.74" class="st5"/></g><g id="shape15-37" transform="translate(222.952,0.25) rotate(90)"><title content="structured text">Signal 0.104</title><path d="M0 40.74 L11.34 40.74" class="st5"/></g><g id="shape16-40" transform="translate(177.598,0.25) rotate(90)"><title content="structured text">Signal 0.105</title><path d="M0 40.74 L11.34 40.74" class="st5"/></g><g id="shape17-43" transform="translate(132.244,0.25) rotate(90)"><title content="structured text">Signal 0.106</title><path d="M0 40.74 L11.34 40.74" class="st5"/></g><g id="shape18-46" transform="translate(86.8894,0.25) rotate(90)"><title content="structured text">Signal 0.107</title><path d="M0 40.74 L11.34 40.74" class="st5"/></g><g id="shape19-49" transform="translate(41.535,0.25) rotate(90)"><title content="structured text">Signal 0.108</title><path d="M0 40.74 L11.34 40.74" class="st5"/></g><g id="shape20-52" transform="translate(404.37,0.25) rotate(90)"><title content="structured text">Signal 0.109</title><path d="M0 40.74 L11.34 40.74" class="st5"/></g><g id="shape21-55" transform="translate(306.942,-29.1465)"><title content="structured text">32-bit register.215</title><desc content="structured text">4</desc><text x="3.44" y="37.47" class="st1">4</text></g><g id="shape22-57" transform="translate(318.28,-29.1465)"><title content="structured text">32-bit register.216</title><desc content="structured text">3</desc><text x="3.44" y="37.47" class="st1">3</text></g><g id="shape23-59" transform="translate(318.28,-0.8)"><title content="structured text">Sheet.23</title><path d="M0 12.39 L0 40.74" class="st4"/></g><g id="shape27-62" transform="translate(34.8157,-29.1465)"><title content="structured text">32-bit register.323</title><desc content="structured text">28</desc><text x="1.22" y="37.47" class="st1">28</text></g><g id="shape28-64" transform="translate(46.1543,-0.8)"><title content="structured text">32-bit register.324</title><path d="M0 12.39 L0 40.74" class="st4"/></g><g id="shape29-67" transform="translate(46.1543,-29.1465)"><title content="structured text">32-bit register.325</title><desc content="structured text">27</desc><text x="1.22" y="37.47" class="st1">27</text></g><g id="shape30-69" transform="translate(80.1701,-29.1465)"><title content="structured text">32-bit register.326</title><desc content="structured text">24</desc><text x="1.22" y="37.47" class="st1">24</text></g><g id="shape31-71" transform="translate(91.5087,-0.8)"><title content="structured text">32-bit register.327</title><path d="M0 12.39 L0 40.74" class="st4"/></g><g id="shape32-74" transform="translate(91.5087,-29.1465)"><title content="structured text">32-bit register.328</title><desc content="structured text">23</desc><text x="1.22" y="37.47" class="st1">23</text></g><g id="shape33-76" transform="translate(125.524,-29.1465)"><title content="structured text">32-bit register.329</title><desc content="structured text">20</desc><text x="1.22" y="37.47" class="st1">20</text></g><g id="shape34-78" transform="translate(136.863,-0.8)"><title content="structured text">32-bit register.330</title><path d="M0 12.39 L0 40.74" class="st4"/></g><g id="shape35-81" transform="translate(136.863,-29.1465)"><title content="structured text">32-bit register.331</title><desc content="structured text">19</desc><text x="1.22" y="37.47" class="st1">19</text></g><g id="shape36-83" transform="translate(170.879,-29.1465)"><title content="structured text">32-bit register.332</title><desc content="structured text">16</desc><text x="1.22" y="37.47" class="st1">16</text></g><g id="shape37-85" transform="translate(182.217,-0.8)"><title content="structured text">32-bit register.333</title><path d="M0 12.39 L0 40.74" class="st4"/></g><g id="shape38-88" transform="translate(182.217,-29.1465)"><title content="structured text">32-bit register.334</title><desc content="structured text">15</desc><text x="1.22" y="37.47" class="st1">15</text></g><g id="shape39-90" transform="translate(46.1543,-0.8)"><title content="structured text">Sheet.39</title><desc content="structured text">FCSE</desc><rect x="0" y="12.3886" width="45.3543" height="28.3465" class="st2"/><text x="12.01" y="28.96" class="st1">FCSE</text></g><g id="shape40-93" transform="translate(91.5087,-0.8)"><title content="structured text">Sheet.40</title><desc content="structured text">AuxReg</desc><rect x="0" y="12.3886" width="45.3543" height="28.3465" class="st2"/><text x="8.45" y="28.96" class="st1">AuxReg</text></g><g id="shape42-96" transform="translate(136.863,-0.8)"><title content="structured text">Sheet.42</title><desc content="structured text">TCM</desc><rect x="0" y="12.3886" width="45.3543" height="28.3465" class="st2"/><text x="14.01" y="28.96" class="st1">TCM</text></g><g id="shape43-99" transform="translate(182.217,-0.8)"><title content="structured text">Sheet.43</title><desc content="structured text">ShareLvl</desc><rect x="0" y="12.3886" width="45.3543" height="28.3465" class="st2"/><text x="6.89" y="28.96" class="st1">ShareLvl</text></g><g id="shape45-102" transform="translate(318.28,-0.8)"><title content="structured text">Sheet.45</title><desc content="structured text">VMSA</desc><rect x="0" y="12.3886" width="45.3543" height="28.3465" class="st2"/><text x="11.34" y="28.96" class="st1">VMSA</text></g><g id="shape46-105" transform="translate(0.8,-0.8)"><title content="structured text">Sheet.46</title><desc content="structured text">InnerShr</desc><rect x="0" y="12.3886" width="45.3543" height="28.3465" class="st2"/><text x="7.34" y="28.96" class="st1">InnerShr</text></g></g></svg>