<?xml version="1.0" encoding="UTF-8" standalone="no"?><!-- Fixed up by svgfix.xsl 1.4  --><!-- Generated by Microsoft Visio 11.0, SVG Export, v1.0 lau1457352340581_low res.svg ARM -->
<!DOCTYPE svg
  PUBLIC "-//W3C//DTD SVG 1.0//EN" "http://www.w3.org/TR/2001/REC-SVG-20010904/DTD/svg10.dtd">
<svg xmlns:xlink="http://www.w3.org/1999/xlink" xmlns="http://www.w3.org/2000/svg" xmlns:ev="http://www.w3.org/2001/xml-events" width="516.149" height="177.972" viewBox="0 0 387.112 133.478" xml:space="preserve" color-interpolation-filters="sRGB" class="st10" preserveAspectRatio="xMidYMid meet" zoomAndPan="magnify" version="1.0" contentScriptType="text/ecmascript" contentStyleType="text/css"><style type="text/css" xml:space="preserve"><![CDATA[
	
		.st1 {fill:#eed9b3;stroke:none;stroke-linecap:round;stroke-linejoin:round;stroke-width:0.2px}
		.st2 {fill:#000000;font-family:Arial,Helvetica,sans-serif;font-size:0.666664em}
		.st3 {fill:#ffffff;visibility:hidden}
		.st4 {stroke:#000000;stroke-linecap:butt;stroke-width:0.8px}
		.st5 {stroke:#000000;stroke-dasharray:0.25,1;stroke-linecap:butt;stroke-width:0.25px}
		.st6 {stroke:#000000;stroke-linecap:butt;stroke-width:0.5px}
		.st7 {fill:none;stroke:none;stroke-linecap:butt;stroke-width:0.499999px}
		.st8 {fill:#000000;font-family:Arial,Helvetica,sans-serif;font-size:0.533318em}
		.st9 {font-size:1.25003em}
		.st10 {fill:none;fill-rule:evenodd;font-size:12px;overflow:visible;stroke-linecap:square;stroke-miterlimit:3}]]></style><g xmlns:v="http://schemas.microsoft.com/visio/2003/SVGExtensions/"><title content="structured text">ARM</title><g id="shape7-1" transform="translate(318.379,-82.2047)"><title content="structured text">Graphic.7</title><rect x="0" y="105.245" width="33.1171" height="28.2335" class="st1"/></g><g id="shape1-3" transform="translate(363.733,-82.2047)"><title content="structured text">Sheet.1</title><rect x="0" y="105.245" width="10.44" height="28.2335" class="st1"/></g><g id="shape30-5" transform="translate(34.9144,-82.3177)"><title content="structured text">Graphic.1</title><rect x="0" y="105.245" width="259.889" height="28.2335" class="st1"/></g><g id="shape2-7" transform="translate(12.1386,-110.551)"><title content="structured text">Bit31</title><desc content="structured text">31</desc><text x="1.22" y="130.21" class="st2">31</text></g><g id="shape3-9" transform="translate(23.4772,-110.551)"><title content="structured text">Bit30</title><desc content="structured text">30</desc><text x="1.22" y="130.21" class="st2">30</text></g><g id="shape4-11" transform="translate(295.603,-110.551)"><title content="structured text">Bit06</title><desc content="structured text">6</desc><text x="3.44" y="130.21" class="st2">6</text></g><g id="shape5-13" transform="translate(306.942,-110.551)"><title content="structured text">Bit05</title><desc content="structured text">5</desc><text x="3.44" y="130.21" class="st2">5</text></g><g id="shape6-15" transform="translate(318.28,-110.551)"><title content="structured text">Bit04</title><desc content="structured text">4</desc><text x="3.44" y="130.21" class="st2">4</text></g><g id="shape8-17" transform="translate(340.957,-110.551)"><title content="structured text">Bit02</title><desc content="structured text">2</desc><text x="3.44" y="130.21" class="st2">2</text></g><g id="shape9-19" transform="translate(12.1386,-82.2047)"><title content="structured text">MainOutline+Bit00</title><desc content="structured text">0</desc><rect x="0" y="105.132" width="362.835" height="28.3465" class="st3"/><rect x="0" y="105.132" width="362.835" height="28.3465" class="st4"/><text x="354.94" y="101.86" class="st2">0</text></g><g id="shape10-23" transform="translate(467.967,11.5886) rotate(90)"><title content="structured text">Signal 0</title><path d="M0 133.48 L11.34 133.48" class="st5"/></g><g id="shape11-26" transform="translate(417.743,11.5886) rotate(90)"><title content="structured text">Signal 0.102</title><path d="M0 133.48 L11.34 133.48" class="st5"/></g><g id="shape12-29" transform="translate(372.389,11.5886) rotate(90)"><title content="structured text">Signal 0.103</title><path d="M0 133.48 L11.34 133.48" class="st5"/></g><g id="shape13-32" transform="translate(327.034,11.5886) rotate(90)"><title content="structured text">Signal 0.104</title><path d="M0 133.48 L11.34 133.48" class="st5"/></g><g id="shape14-35" transform="translate(281.68,11.5886) rotate(90)"><title content="structured text">Signal 0.105</title><path d="M0 133.48 L11.34 133.48" class="st5"/></g><g id="shape15-38" transform="translate(236.326,11.5886) rotate(90)"><title content="structured text">Signal 0.106</title><path d="M0 133.48 L11.34 133.48" class="st5"/></g><g id="shape16-41" transform="translate(190.971,11.5886) rotate(90)"><title content="structured text">Signal 0.107</title><path d="M0 133.48 L11.34 133.48" class="st5"/></g><g id="shape17-44" transform="translate(145.617,11.5886) rotate(90)"><title content="structured text">Signal 0.108</title><path d="M0 133.48 L11.34 133.48" class="st5"/></g><g id="shape18-47" transform="translate(508.452,11.5886) rotate(90)"><title content="structured text">Signal 0.109</title><path d="M0 133.48 L11.34 133.48" class="st5"/></g><g id="shape21-50" transform="translate(306.942,-82.2047)"><title content="structured text">Sheet.21</title><path d="M0 133.48 L0 105.13" class="st4"/><path d="M11.34 133.48 L11.34 105.13" class="st4"/></g><g id="shape22-54" transform="translate(12.1386,-82.2047)"><title content="structured text">Sheet.22</title><path d="M0 133.48 L0 105.13" class="st4"/><path d="M11.34 133.48 L11.34 105.13" class="st4"/></g><g id="shape23-58" transform="translate(289.934,-62.3622)"><title content="structured text">Bit name 2</title><desc content="structured text">DE</desc><path d="M22.68 116.47 L22.68 133.48 L0 133.48" class="st6"/><text x="-12.11" y="135.88" class="st2">DE</text></g><g id="shape24-62" transform="translate(29.1465,-73.7008)"><title content="structured text">Bit name 2.110</title><desc content="structured text">R</desc><path d="M0 127.81 L0 133.48 L11.34 133.48" class="st6"/><text x="12.34" y="135.88" class="st2">R</text></g><g id="shape26-66" transform="translate(289.934,-73.7008)"><title content="structured text">Bit name 1</title><desc content="structured text">CE</desc><path d="M11.34 127.81 L11.34 133.48 L0 133.48" class="st6"/><text x="-12.11" y="135.88" class="st2">CE</text></g><g id="shape27-70" transform="translate(34.8157,-82.2047)"><title content="structured text">Sheet.27</title><path d="M0 133.48 L0 105.13" class="st4"/><path d="M260.79 133.48 L260.79 105.13" class="st4"/></g><g id="shape28-74" transform="translate(284.265,-110.551)"><title content="structured text">Bit06.31</title><desc content="structured text">7</desc><text x="3.44" y="130.21" class="st2">7</text></g><g id="shape29-76" transform="translate(352.296,-82.2047)"><title content="structured text">Sheet.29</title><path d="M0 133.48 L0 105.13" class="st4"/><path d="M11.34 133.48 L11.34 105.13" class="st4"/></g><g id="shape32-80" transform="translate(289.934,-28.3465)"><title content="structured text">Bit name 1.32</title><desc content="structured text">UC</desc><path d="M68.03 82.45 L68.03 133.48 L0 133.48" class="st6"/><text x="-12.55" y="135.88" class="st2">UC</text></g><g id="shape34-84" transform="translate(352.296,-110.551)"><title content="structured text">Bit02.34</title><desc content="structured text">1</desc><text x="3.44" y="130.21" class="st2">1</text></g><g id="shape35-86" transform="translate(40.485,-62.3622) scale(-1,1)"><title content="structured text">Bit name 2.35</title><desc content="structured text">CDNEN</desc><path d="M22.68 116.47 L22.68 133.48 L0 133.48" class="st6"/><text x="1" y="135.88" transform="scale(-1,1)" class="st2">CDNEN</text></g><g id="shape36-90" transform="translate(35.0905,-110.551)"><title content="structured text">Bit30.36</title><desc content="structured text">29</desc><text x="1.22" y="130.21" class="st2">29</text></g><g id="group19-92" transform="translate(11.3386,-5.6693)"><title content="structured text">Sheet.19</title><g id="shape20-93" transform="translate(11.3386,0)"><title content="structured text">Rectangle No Fill No Fill.116</title><desc content="structured text">res0</desc><rect x="0" y="122.14" width="22.6772" height="11.3386" class="st7"/><text x="3.07" y="130.21" class="st8">RES<tspan class="st9">0</tspan></text></g><g id="shape25-97"><title content="structured text">Graphic.117</title><rect x="0" y="122.14" width="11.3386" height="11.3386" class="st1"/></g></g></g></svg>