<?xml version="1.0" encoding="UTF-8" standalone="no"?><!-- Fixed up by svgfix.xsl 1.4  --><!-- Generated by Microsoft Visio 11.0, SVG Export, v1.0 lau1456746296302_low res.svg ARM -->
<!DOCTYPE svg
  PUBLIC "-//W3C//DTD SVG 1.0//EN" "http://www.w3.org/TR/2001/REC-SVG-20010904/DTD/svg10.dtd">
<svg xmlns:xlink="http://www.w3.org/1999/xlink" xmlns="http://www.w3.org/2000/svg" xmlns:ev="http://www.w3.org/2001/xml-events" width="516.149" height="162.853" viewBox="0 0 387.112 122.14" xml:space="preserve" color-interpolation-filters="sRGB" class="st13" preserveAspectRatio="xMidYMid meet" zoomAndPan="magnify" version="1.0" contentScriptType="text/ecmascript" contentStyleType="text/css"><style type="text/css" xml:space="preserve"><![CDATA[
	
		.st1 {fill:#eed9b3;stroke:none;stroke-linecap:round;stroke-linejoin:round;stroke-width:0.2px}
		.st2 {fill:#ccdfdb;stroke:none;stroke-linecap:round;stroke-linejoin:round;stroke-width:0.2px}
		.st3 {fill:#000000;font-family:Arial,Helvetica,sans-serif;font-size:0.666664em}
		.st4 {fill:#ffffff;visibility:hidden}
		.st5 {stroke:#000000;stroke-linecap:butt;stroke-width:0.8px}
		.st6 {stroke:#000000;stroke-dasharray:0.25,1;stroke-linecap:butt;stroke-width:0.25px}
		.st7 {font-size:1em}
		.st8 {stroke:#000000;stroke-linecap:butt;stroke-width:0.5px}
		.st9 {fill:none;stroke:none;stroke-linecap:round;stroke-linejoin:round;stroke-width:0.2px}
		.st10 {fill:none;stroke:none;stroke-linecap:butt;stroke-width:0.499999px}
		.st11 {fill:#000000;font-family:Arial,Helvetica,sans-serif;font-size:0.533318em}
		.st12 {font-size:1.25003em}
		.st13 {fill:none;fill-rule:evenodd;font-size:12px;overflow:visible;stroke-linecap:square;stroke-miterlimit:3}]]></style><g xmlns:v="http://schemas.microsoft.com/visio/2003/SVGExtensions/"><title content="structured text">ARM</title><g id="shape32-1" transform="translate(283.914,-70.8661)"><title content="structured text">Graphic.32</title><rect x="0" y="93.9062" width="22.2279" height="28.2335" class="st1"/></g><g id="shape44-3" transform="translate(147.402,-70.9791)"><title content="structured text">Graphic.44</title><rect x="0" y="93.9062" width="11.3386" height="28.2335" class="st1"/></g><g id="shape46-5" transform="translate(102.047,-70.8661)"><title content="structured text">Rectangle Fill:Soapstone.46</title><rect x="0" y="93.9062" width="11.0909" height="28.2335" class="st2"/></g><g id="shape47-7" transform="translate(22.6772,-70.8661)"><title content="structured text">Graphic.10</title><rect x="0" y="93.9062" width="22.2279" height="28.2335" class="st1"/></g><g id="shape65-9" transform="translate(11.5863,-70.9791)"><title content="structured text">Rectangle Fill:Soapstone.5</title><rect x="0" y="93.9062" width="11.0909" height="28.2335" class="st2"/></g><g id="shape1-11" transform="translate(12.1386,-99.2126)"><title content="structured text">Bit31</title><desc content="structured text">31</desc><text x="1.22" y="118.87" class="st3">31</text></g><g id="shape2-13" transform="translate(23.4772,-99.2126)"><title content="structured text">Bit30</title><desc content="structured text">30</desc><text x="1.22" y="118.87" class="st3">30</text></g><g id="shape3-15" transform="translate(91.5087,-99.2126)"><title content="structured text">Bit24</title><desc content="structured text">24</desc><text x="1.22" y="118.87" class="st3">24</text></g><g id="shape4-17" transform="translate(102.847,-99.2126)"><title content="structured text">Bit23</title><desc content="structured text">23</desc><text x="1.22" y="118.87" class="st3">23</text></g><g id="shape5-19" transform="translate(114.186,-99.2126)"><title content="structured text">Bit22</title><desc content="structured text">22</desc><text x="1.22" y="118.87" class="st3">22</text></g><g id="shape6-21" transform="translate(125.524,-99.2126)"><title content="structured text">Bit21</title><desc content="structured text">21</desc><text x="1.22" y="118.87" class="st3">21</text></g><g id="shape7-23" transform="translate(136.863,-99.2126)"><title content="structured text">Bit20</title><desc content="structured text">20</desc><text x="1.22" y="118.87" class="st3">20</text></g><g id="shape8-25" transform="translate(148.202,-99.2126)"><title content="structured text">Bit19</title><desc content="structured text">19</desc><text x="1.22" y="118.87" class="st3">19</text></g><g id="shape9-27" transform="translate(159.54,-99.2126)"><title content="structured text">Bit18</title><desc content="structured text">18</desc><text x="1.22" y="118.87" class="st3">18</text></g><g id="shape10-29" transform="translate(182.217,-99.2126)"><title content="structured text">Bit16</title><desc content="structured text">16</desc><text x="1.22" y="118.87" class="st3">16</text></g><g id="shape11-31" transform="translate(193.556,-99.2126)"><title content="structured text">Bit15</title><desc content="structured text">15</desc><text x="1.22" y="118.87" class="st3">15</text></g><g id="shape12-33" transform="translate(204.894,-99.2126)"><title content="structured text">Bit14</title><desc content="structured text">14</desc><text x="1.22" y="118.87" class="st3">14</text></g><g id="shape13-35" transform="translate(216.233,-99.2126)"><title content="structured text">Bit13</title><desc content="structured text">13</desc><text x="1.22" y="118.87" class="st3">13</text></g><g id="shape14-37" transform="translate(227.572,-99.2126)"><title content="structured text">Bit12</title><desc content="structured text">12</desc><text x="1.22" y="118.87" class="st3">12</text></g><g id="shape15-39" transform="translate(238.91,-99.2126)"><title content="structured text">Bit11</title><desc content="structured text">11</desc><text x="1.22" y="118.87" class="st3">11</text></g><g id="shape16-41" transform="translate(250.249,-99.2126)"><title content="structured text">Bit10</title><desc content="structured text">10</desc><text x="1.22" y="118.87" class="st3">10</text></g><g id="shape17-43" transform="translate(261.587,-99.2126)"><title content="structured text">Bit09</title><desc content="structured text">9</desc><text x="3.44" y="118.87" class="st3">9</text></g><g id="shape18-45" transform="translate(272.926,-99.2126)"><title content="structured text">Bit08</title><desc content="structured text">8</desc><text x="3.44" y="118.87" class="st3">8</text></g><g id="shape19-47" transform="translate(284.265,-99.2126)"><title content="structured text">Bit07</title><desc content="structured text">7</desc><text x="3.44" y="118.87" class="st3">7</text></g><g id="shape20-49" transform="translate(295.603,-99.2126)"><title content="structured text">Bit06</title><desc content="structured text">6</desc><text x="3.44" y="118.87" class="st3">6</text></g><g id="shape21-51" transform="translate(306.942,-99.2126)"><title content="structured text">Bit05</title><desc content="structured text">5</desc><text x="3.44" y="118.87" class="st3">5</text></g><g id="shape22-53" transform="translate(11.3386,-70.8661)"><title content="structured text">MainOutline+Bit00</title><desc content="structured text">0</desc><rect x="0" y="93.7933" width="362.835" height="28.3465" class="st4"/><rect x="0" y="93.7933" width="362.835" height="28.3465" class="st5"/><text x="354.94" y="90.52" class="st3">0</text></g><g id="shape23-57" transform="translate(451.759,11.5886) rotate(90)"><title content="structured text">Signal 0</title><path d="M0 122.14 L11.34 122.14" class="st6"/></g><g id="shape24-60" transform="translate(406.404,11.5886) rotate(90)"><title content="structured text">Signal 0.102</title><path d="M0 122.14 L11.34 122.14" class="st6"/></g><g id="shape25-63" transform="translate(361.05,11.5886) rotate(90)"><title content="structured text">Signal 0.103</title><path d="M0 122.14 L11.34 122.14" class="st6"/></g><g id="shape26-66" transform="translate(315.696,11.5886) rotate(90)"><title content="structured text">Signal 0.104</title><path d="M0 122.14 L11.34 122.14" class="st6"/></g><g id="shape27-69" transform="translate(270.341,11.5886) rotate(90)"><title content="structured text">Signal 0.105</title><path d="M0 122.14 L11.34 122.14" class="st6"/></g><g id="shape28-72" transform="translate(224.987,11.5886) rotate(90)"><title content="structured text">Signal 0.106</title><path d="M0 122.14 L11.34 122.14" class="st6"/></g><g id="shape29-75" transform="translate(179.633,11.5886) rotate(90)"><title content="structured text">Signal 0.107</title><path d="M0 122.14 L11.34 122.14" class="st6"/></g><g id="shape30-78" transform="translate(134.278,11.5886) rotate(90)"><title content="structured text">Signal 0.108</title><path d="M0 122.14 L11.34 122.14" class="st6"/></g><g id="shape31-81" transform="translate(497.113,11.5886) rotate(90)"><title content="structured text">Signal 0.109</title><path d="M0 122.14 L11.34 122.14" class="st6"/></g><g id="shape33-84" transform="translate(260.787,-70.8661)"><title content="structured text">Sheet.33</title><path d="M0 122.14 L0 93.79" class="st5"/><path d="M22.68 122.14 L22.68 93.79" class="st5"/></g><g id="shape34-88" transform="translate(215.433,-70.8661)"><title content="structured text">Sheet.34</title><desc content="structured text">SH0</desc><path d="M0 122.14 L0 93.79" class="st5"/><path d="M22.68 122.14 L22.68 93.79" class="st5"/><text x="3.56" y="110.37" class="st3">SH0</text></g><g id="shape35-93" transform="translate(192.756,-70.8661)"><title content="structured text">Sheet.35</title><desc content="structured text">TG0</desc><path d="M0 122.14 L0 93.79" class="st5"/><path d="M22.68 122.14 L22.68 93.79" class="st5"/><text x="3.56" y="110.37" class="st3">TG<tspan class="st7">0</tspan></text></g><g id="shape36-99" transform="translate(158.74,-70.8661)"><title content="structured text">Sheet.36</title><desc content="structured text">PS</desc><path d="M0 122.14 L0 93.79" class="st5"/><path d="M34.02 122.14 L34.02 93.79" class="st5"/><text x="11.67" y="110.37" class="st3">PS</text></g><g id="shape37-104" transform="translate(147.402,-70.8661)"><title content="structured text">Sheet.37</title><path d="M0 122.14 L0 93.79" class="st5"/><path d="M11.34 122.14 L11.34 93.79" class="st5"/></g><g id="shape38-108" transform="translate(11.3386,-70.8661)"><title content="structured text">Sheet.38</title><path d="M0 122.14 L0 93.79" class="st5"/><path d="M11.34 122.14 L11.34 93.79" class="st5"/></g><g id="shape39-112" transform="translate(102.047,-70.8661)"><title content="structured text">Sheet.39</title><path d="M0 122.14 L0 93.79" class="st5"/><path d="M11.34 122.14 L11.34 93.79" class="st5"/></g><g id="shape40-116" transform="translate(272.126,-62.3622)"><title content="structured text">Bit name 2.110</title><desc content="structured text">IRGN0</desc><path d="M0 116.47 L0 122.14 L11.34 122.14" class="st8"/><text x="12.34" y="124.54" class="st3">IRGN0</text></g><g id="shape41-120" transform="translate(249.449,-51.0236)"><title content="structured text">Bit name 2.111</title><desc content="structured text">ORGN0</desc><path d="M0 105.13 L0 122.14 L34.02 122.14" class="st8"/><text x="35.02" y="124.54" class="st3">ORGN0</text></g><g id="shape42-124" transform="translate(306.142,-70.8661)"><title content="structured text">Sheet.42</title><desc content="structured text">T0SZ</desc><path d="M0 122.14 L0 93.79" class="st5"/><path d="M68.03 122.14 L68.03 93.79" class="st5"/><text x="24.24" y="110.37" class="st3">T0SZ</text></g><g id="shape43-129" transform="translate(238.11,-70.8661)"><title content="structured text">Sheet.43</title><path d="M0 122.14 L0 93.79" class="st5"/><path d="M22.68 122.14 L22.68 93.79" class="st5"/></g><g id="shape45-133" transform="translate(141.732,-51.0236)"><title content="structured text">Bit name 2.237</title><desc content="structured text">TBI</desc><path d="M0 105.13 L0 122.14 L22.68 122.14" class="st8"/><text x="23.68" y="124.54" class="st3">TBI</text></g><g id="shape48-137" transform="translate(136.063,-70.8661)"><title content="structured text">Sheet.48</title><path d="M0 122.14 L0 93.79" class="st5"/><path d="M11.34 122.14 L11.34 93.79" class="st5"/></g><g id="shape50-141" transform="translate(124.724,-70.8661)"><title content="structured text">Sheet.50</title><path d="M0 122.14 L0 93.79" class="st5"/><path d="M11.34 122.14 L11.34 93.79" class="st5"/></g><g id="shape51-145" transform="translate(130.394,-39.685)"><title content="structured text">Bit name 2.51</title><desc content="structured text">HA</desc><path d="M0 93.79 L0 122.14 L34.02 122.14" class="st8"/><text x="35.02" y="124.54" class="st3">HA</text></g><g id="shape52-149" transform="translate(119.055,-28.3465)"><title content="structured text">Bit name 2.52</title><desc content="structured text">HD</desc><path d="M0 82.45 L0 122.14 L45.35 122.14" class="st8"/><text x="46.35" y="124.54" class="st3">HD</text></g><g id="shape53-153" transform="translate(45.3543,-70.8661)"><title content="structured text">Sheet.53</title><path d="M0 122.14 L0 93.79" class="st5"/><path d="M45.35 122.14 L45.35 93.79" class="st5"/></g><g id="shape54-157" transform="translate(96.378,-17.0079)"><title content="structured text">Bit name 2.54</title><desc content="structured text">HPD</desc><path d="M0 71.12 L0 122.14 L68.03 122.14" class="st8"/><text x="69.03" y="124.54" class="st3">HPD</text></g><g id="shape55-161" transform="translate(79.3701,-99.2126)"><title content="structured text">Bit24.55</title><desc content="structured text">25</desc><text x="1.22" y="118.87" class="st3">25</text></g><g id="shape56-163" transform="translate(45.3543,-99.2126)"><title content="structured text">Bit24.56</title><desc content="structured text">28</desc><text x="1.22" y="118.87" class="st3">28</text></g><g id="shape57-165" transform="translate(34.0157,-99.2126)"><title content="structured text">Bit24.57</title><desc content="structured text">29</desc><text x="1.22" y="118.87" class="st3">29</text></g><g id="shape58-167" transform="translate(45.3543,-70.8661)"><title content="structured text">64-bit register.58</title><desc content="structured text">HWU62-59</desc><rect x="0" y="93.7933" width="45.3543" height="28.3465" class="st9"/><text x="2.89" y="110.37" class="st3">HWU62-59</text></g><g id="group59-170" transform="translate(14.1732,-25.5118)"><title content="structured text">Sheet.59</title><g id="shape60-171" transform="translate(11.3386,0)"><title content="structured text">Rectangle No Fill No Fill.116</title><desc content="structured text">res0</desc><rect x="0" y="110.801" width="22.6772" height="11.3386" class="st10"/><text x="3.07" y="118.87" class="st11">RES<tspan class="st12">0</tspan></text></g><g id="shape61-175"><title content="structured text">Graphic.117</title><rect x="0" y="110.801" width="11.3386" height="11.3386" class="st1"/></g></g><g id="group62-177" transform="translate(14.1732,-8.50395)"><title content="structured text">Sheet.62</title><g id="shape63-178" transform="translate(11.3386,0)"><title content="structured text">Rectangle No Fill No Fill.119</title><desc content="structured text">res1</desc><rect x="0" y="110.801" width="22.6772" height="11.3386" class="st10"/><text x="3.07" y="118.87" class="st11">RES<tspan class="st12">1</tspan></text></g><g id="shape64-182"><title content="structured text">Rectangle Fill:Soapstone.120</title><rect x="0" y="110.801" width="11.3386" height="11.3386" class="st2"/></g></g></g></svg>