<?xml version="1.0" encoding="UTF-8" standalone="no"?><!-- Fixed up by svgfix.xsl 1.4  --><!-- Generated by Microsoft Visio 11.0, SVG Export, v1.0 ICC_HSRE_bit_assignments.svg ARM -->
<!DOCTYPE svg
  PUBLIC "-//W3C//DTD SVG 1.0//EN" "http://www.w3.org/TR/2001/REC-SVG-20010904/DTD/svg10.dtd">
<svg xmlns:xlink="http://www.w3.org/1999/xlink" xmlns="http://www.w3.org/2000/svg" xmlns:ev="http://www.w3.org/2001/xml-events" width="560.436" height="184.298" viewBox="0 0 420.328 138.223" xml:space="preserve" color-interpolation-filters="sRGB" class="st12" preserveAspectRatio="xMidYMid meet" zoomAndPan="magnify" version="1.0" contentScriptType="text/ecmascript" contentStyleType="text/css"><style type="text/css" xml:space="preserve"><![CDATA[
	
		.st1 {fill:#eed9b3;stroke:none;stroke-linecap:round;stroke-linejoin:round;stroke-width:0.2px}
		.st2 {fill:#000000;font-family:Arial,Helvetica,sans-serif;font-size:0.666664em}
		.st3 {fill:#ffffff;visibility:hidden}
		.st4 {stroke:#000000;stroke-linecap:butt;stroke-width:0.8px}
		.st5 {stroke:#000000;stroke-dasharray:0.25,1;stroke-linecap:butt;stroke-width:0.25px}
		.st6 {fill:none}
		.st7 {stroke:#000000;stroke-linecap:butt;stroke-width:0.799997px}
		.st8 {stroke:#000000;stroke-linecap:butt;stroke-width:0.5px}
		.st9 {fill:none;stroke:none;stroke-linecap:butt;stroke-width:0.499999px}
		.st10 {fill:#000000;font-family:Arial,Helvetica,sans-serif;font-size:0.533318em}
		.st11 {font-size:1.25003em}
		.st12 {fill:none;fill-rule:evenodd;font-size:12px;overflow:visible;stroke-linecap:square;stroke-miterlimit:3}]]></style><g xmlns:v="http://schemas.microsoft.com/visio/2003/SVGExtensions/"><title content="structured text">ARM</title><g id="shape1-1" transform="translate(12.1386,-86.9498)"><title content="structured text">Graphic.260</title><rect x="0" y="109.99" width="316.726" height="28.2335" class="st1"/></g><g id="shape2-3" transform="translate(12.1386,-115.296)"><title content="structured text">Bit31</title><desc content="structured text">31</desc><text x="1.22" y="134.95" class="st2">31</text></g><g id="shape3-5" transform="translate(12.1386,-86.9498)"><title content="structured text">MainOutline+Bit00</title><desc content="structured text">0</desc><rect x="0" y="109.877" width="362.835" height="28.3465" class="st3"/><rect x="0" y="109.877" width="362.835" height="28.3465" class="st4"/><text x="354.94" y="106.61" class="st2">0</text></g><g id="shape4-9" transform="translate(467.842,11.5886) rotate(90)"><title content="structured text">Signal 0.48</title><path d="M0 138.22 L11.34 138.22" class="st5"/></g><g id="shape5-12" transform="translate(422.488,11.5886) rotate(90)"><title content="structured text">Signal 0.49</title><path d="M0 138.22 L11.34 138.22" class="st5"/></g><g id="shape6-15" transform="translate(377.134,11.5886) rotate(90)"><title content="structured text">Signal 0.50</title><path d="M0 138.22 L11.34 138.22" class="st5"/></g><g id="shape7-18" transform="translate(331.779,11.5886) rotate(90)"><title content="structured text">Signal 0.51</title><path d="M0 138.22 L11.34 138.22" class="st5"/></g><g id="shape8-21" transform="translate(286.425,11.5886) rotate(90)"><title content="structured text">Signal 0.52</title><path d="M0 138.22 L11.34 138.22" class="st5"/></g><g id="shape9-24" transform="translate(241.071,11.5886) rotate(90)"><title content="structured text">Signal 0.53</title><path d="M0 138.22 L11.34 138.22" class="st5"/></g><g id="shape10-27" transform="translate(195.716,11.5886) rotate(90)"><title content="structured text">Signal 0.54</title><path d="M0 138.22 L11.34 138.22" class="st5"/></g><g id="shape11-30" transform="translate(150.362,11.5886) rotate(90)"><title content="structured text">Signal 0.55</title><path d="M0 138.22 L11.34 138.22" class="st5"/></g><g id="shape12-33" transform="translate(513.197,11.5886) rotate(90)"><title content="structured text">Signal 0.56</title><path d="M0 138.22 L11.34 138.22" class="st5"/></g><g id="shape13-36" transform="translate(12.1386,-86.9498)"><title content="structured text">Sheet.13</title><path d="M0 138.22 L0 109.88" class="st4"/><path d="M362.83 138.22 L362.83 109.88" class="st4"/></g><g id="shape14-40" transform="translate(352.296,-115.296)"><title content="structured text">Bit31.14</title><desc content="structured text">1</desc><text x="3.44" y="134.95" class="st2">1</text></g><g id="shape15-42" transform="translate(340.957,-115.296)"><title content="structured text">Bit31.15</title><desc content="structured text">2</desc><text x="3.44" y="134.95" class="st2">2</text></g><g id="shape16-44" transform="translate(330.991,-115.171)"><title content="structured text">Bit31.16</title><desc content="structured text">3</desc><text x="3.44" y="134.95" class="st2">3</text></g><g id="shape17-46" transform="translate(363.635,-86.9498)"><title content="structured text">Graphic.37</title><path d="M0 109.87 L0 138.22 L0 109.87 Z" class="st6"/><path d="M0 109.87 L0 138.22" class="st7"/></g><g id="shape18-49" transform="translate(352.296,-86.9498)"><title content="structured text">Graphic.27</title><path d="M0 109.87 L0 138.22 L0 109.87 Z" class="st6"/><path d="M0 109.87 L0 138.22" class="st7"/></g><g id="shape19-52" transform="translate(340.957,-86.8248)"><title content="structured text">Graphic.32</title><path d="M0 109.87 L0 138.22 L0 109.87 Z" class="st6"/><path d="M0 109.87 L0 138.22" class="st7"/></g><g id="shape20-55" transform="translate(380.643,-78.4459) scale(-1,1)"><title content="structured text">Bit name 2</title><desc content="structured text">SRE</desc><path d="M11.34 132.55 L11.34 138.22 L0 138.22" class="st8"/><text x="1" y="140.62" transform="scale(-1,1)" class="st2">SRE</text></g><g id="shape21-59" transform="translate(380.643,-67.1073) scale(-1,1)"><title content="structured text">Bit name 2.37</title><desc content="structured text">DFB</desc><path d="M22.68 121.22 L22.68 138.22 L0 138.22" class="st8"/><text x="1" y="140.62" transform="scale(-1,1)" class="st2">DFB</text></g><g id="shape22-63" transform="translate(380.643,-55.6437) scale(-1,1)"><title content="structured text">Bit name 2.39</title><desc content="structured text">DIB</desc><path d="M34.02 109.88 L34.02 138.22 L0 138.22" class="st8"/><text x="1" y="140.62" transform="scale(-1,1)" class="st2">DIB</text></g><g id="group23-67" transform="translate(11.5213,-11.8386)"><title content="structured text">Sheet.23</title><g id="shape24-68" transform="translate(11.3386,0)"><title content="structured text">Rectangle No Fill No Fill.116</title><desc content="structured text">res0</desc><rect x="0" y="126.885" width="22.6772" height="11.3386" class="st9"/><text x="3.07" y="134.95" class="st10">RES<tspan class="st11">0</tspan></text></g><g id="shape25-72"><title content="structured text">Graphic.117</title><rect x="0" y="126.885" width="11.3386" height="11.3386" class="st1"/></g></g><g id="shape26-74" transform="translate(317.526,-115.296)"><title content="structured text">Bit31.26</title><desc content="structured text">4</desc><text x="3.44" y="134.95" class="st2">4</text></g><g id="shape27-76" transform="translate(328.865,-86.9463)"><title content="structured text">Sheet.27</title><path d="M0 109.87 L0 138.22 L0 109.87 Z" class="st6"/><path d="M0 109.87 L0 138.22" class="st7"/></g><g id="shape28-79" transform="translate(380.643,-44.4301) scale(-1,1)"><title content="structured text">Bit name 2.28</title><desc content="structured text">Enable</desc><path d="M45.35 98.54 L45.35 138.22 L0 138.22" class="st8"/><text x="1" y="140.62" transform="scale(-1,1)" class="st2">Enable</text></g></g></svg>