<?xml version="1.0" encoding="UTF-8" standalone="no"?><!-- Fixed up by svgfix.xsl 1.4  --><!-- Generated by Microsoft Visio 11.0, SVG Export, v1.0 trcvictlr_bit_assignments.svg ARM -->
<!DOCTYPE svg
  PUBLIC "-//W3C//DTD SVG 1.0//EN" "http://www.w3.org/TR/2001/REC-SVG-20010904/DTD/svg10.dtd">
<svg xmlns:xlink="http://www.w3.org/1999/xlink" xmlns="http://www.w3.org/2000/svg" xmlns:ev="http://www.w3.org/2001/xml-events" width="516.149" height="148.402" viewBox="0 0 387.112 111.301" xml:space="preserve" color-interpolation-filters="sRGB" class="st12" preserveAspectRatio="xMidYMid meet" zoomAndPan="magnify" version="1.0" contentScriptType="text/ecmascript" contentStyleType="text/css"><style type="text/css" xml:space="preserve"><![CDATA[
	
		.st1 {fill:#eed9b3;stroke:#000000;stroke-linecap:butt;stroke-width:0.5px}
		.st2 {stroke:#000000;stroke-linecap:butt;stroke-width:0.8px}
		.st3 {stroke:#000000;stroke-dasharray:0.25,0.5;stroke-linecap:butt;stroke-width:0.25px}
		.st4 {fill:#000000;font-family:Arial,Helvetica,sans-serif;font-size:0.666664em}
		.st5 {fill:none;stroke:none;stroke-linecap:round;stroke-linejoin:round;stroke-width:0.2px}
		.st6 {stroke:#000000;stroke-linecap:butt;stroke-width:0.5px}
		.st7 {fill:none;stroke:none;stroke-linecap:butt;stroke-width:0.5px}
		.st8 {fill:none;stroke:none;stroke-linecap:butt;stroke-width:0.499999px}
		.st9 {fill:#000000;font-family:Arial,Helvetica,sans-serif;font-size:0.533318em}
		.st10 {font-size:1.25003em}
		.st11 {fill:#eed9b3;stroke:none;stroke-linecap:round;stroke-linejoin:round;stroke-width:0.2px}
		.st12 {fill:none;fill-rule:evenodd;font-size:12px;overflow:visible;stroke-linecap:square;stroke-miterlimit:3}]]></style><g xmlns:v="http://schemas.microsoft.com/visio/2003/SVGExtensions/"><title content="structured text">ARM</title><g id="shape56-1" transform="translate(295.654,-60.0945)"><title content="structured text">Sheet.56</title><rect x="0" y="82.9547" width="34.0157" height="28.3465" class="st1"/></g><g id="shape20-3" transform="translate(272.926,-60.0276)"><title content="structured text">Sheet.20</title><rect x="0" y="82.9547" width="11.3386" height="28.3465" class="st1"/></g><g id="shape37-5" transform="translate(193.606,-60.0945)"><title content="structured text">Sheet.37</title><rect x="0" y="82.9547" width="45.3543" height="28.3465" class="st1"/></g><g id="shape48-7" transform="translate(12.189,-60.0945)"><title content="structured text">Sheet.48</title><rect x="0" y="82.9547" width="90.7087" height="28.3465" class="st1"/></g><g id="shape1-9" transform="translate(374.973,-60.0276) scale(-1,1)"><title content="structured text">64-bit register.156</title><path d="M0 82.95 L362.83 82.95 L362.83 111.3 L0 111.3" class="st2"/></g><g id="shape2-12" transform="translate(123.44,11.5886) rotate(90)"><title content="structured text">64-bit register.169</title><path d="M0 111.3 L11.34 111.3" class="st3"/></g><g id="shape3-15" transform="translate(374.973,-60.0276)"><title content="structured text">64-bit register.157</title><path d="M0 82.95 L0 111.3" class="st2"/></g><g id="shape4-18" transform="translate(102.847,-60.0276)"><title content="structured text">64-bit register.7</title><path d="M0 82.95 L0 111.3" class="st2"/></g><g id="shape5-21" transform="translate(148.202,-60.0276)"><title content="structured text">64-bit register.38</title><path d="M0 82.95 L0 111.3" class="st2"/></g><g id="shape6-24" transform="translate(193.556,-60.0276)"><title content="structured text">64-bit register.39</title><path d="M0 82.95 L0 111.3" class="st2"/></g><g id="shape7-27" transform="translate(238.91,-60.0276)"><title content="structured text">64-bit register.41</title><path d="M0 82.95 L0 111.3" class="st2"/></g><g id="shape8-30" transform="translate(295.603,-60.0276)"><title content="structured text">64-bit register.42</title><path d="M0 82.95 L0 111.3" class="st2"/></g><g id="shape9-33" transform="translate(272.926,-60.0276)"><title content="structured text">64-bit register.52</title><path d="M0 82.95 L0 111.3" class="st2"/></g><g id="shape10-36" transform="translate(168.794,11.5886) rotate(90)"><title content="structured text">64-bit register.11</title><path d="M0 111.3 L11.34 111.3" class="st3"/></g><g id="shape11-39" transform="translate(214.148,11.5886) rotate(90)"><title content="structured text">64-bit register.12</title><path d="M0 111.3 L11.34 111.3" class="st3"/></g><g id="shape12-42" transform="translate(259.503,11.5886) rotate(90)"><title content="structured text">64-bit register.13</title><path d="M0 111.3 L11.34 111.3" class="st3"/></g><g id="shape13-45" transform="translate(304.857,11.5886) rotate(90)"><title content="structured text">64-bit register.14</title><path d="M0 111.3 L11.34 111.3" class="st3"/></g><g id="shape14-48" transform="translate(350.211,11.5886) rotate(90)"><title content="structured text">64-bit register.15</title><path d="M0 111.3 L11.34 111.3" class="st3"/></g><g id="shape15-51" transform="translate(440.92,11.5886) rotate(90)"><title content="structured text">64-bit register.16</title><path d="M0 111.3 L11.34 111.3" class="st3"/></g><g id="shape16-54" transform="translate(486.274,11.5886) rotate(90)"><title content="structured text">64-bit register.17</title><path d="M0 111.3 L11.34 111.3" class="st3"/></g><g id="shape17-57" transform="translate(12.1386,-88.374)"><title content="structured text">64-bit register.179</title><desc content="structured text">31</desc><text x="1.22" y="108.03" class="st4">31</text></g><g id="shape18-59" transform="translate(363.635,-88.374)"><title content="structured text">64-bit register.19</title><desc content="structured text">0</desc><text x="3.44" y="108.03" class="st4">0</text></g><g id="shape19-61" transform="translate(395.566,11.5886) rotate(90)"><title content="structured text">64-bit register.21</title><path d="M0 111.3 L11.34 111.3" class="st3"/></g><g id="shape22-64" transform="translate(284.265,-88.374)"><title content="structured text">64-bit register.26</title><desc content="structured text">7</desc><text x="3.44" y="108.03" class="st4">7</text></g><g id="shape23-66" transform="translate(284.265,-60.0276)"><title content="structured text">64-bit register.27</title><rect x="0" y="82.9547" width="11.3386" height="28.3465" class="st5"/></g><g id="shape24-68" transform="translate(272.926,-88.374)"><title content="structured text">64-bit register.28</title><desc content="structured text">8</desc><text x="3.44" y="108.03" class="st4">8</text></g><g id="shape25-70" transform="translate(261.587,-88.374)"><title content="structured text">64-bit register.29</title><desc content="structured text">9</desc><text x="3.44" y="108.03" class="st4">9</text></g><g id="shape26-72" transform="translate(250.249,-88.374)"><title content="structured text">64-bit register.30</title><desc content="structured text">10</desc><text x="1.22" y="108.03" class="st4">10</text></g><g id="shape27-74" transform="translate(238.91,-88.374)"><title content="structured text">64-bit register.31</title><desc content="structured text">11</desc><text x="1.22" y="108.03" class="st4">11</text></g><g id="shape28-76" transform="translate(193.556,-88.374)"><title content="structured text">64-bit register.32</title><desc content="structured text">15</desc><text x="1.22" y="108.03" class="st4">15</text></g><g id="shape29-78" transform="translate(227.572,-88.374)"><title content="structured text">64-bit register.33</title><desc content="structured text">12</desc><text x="1.22" y="108.03" class="st4">12</text></g><g id="shape30-80" transform="translate(261.587,-60.0276)"><title content="structured text">64-bit register.34</title><path d="M0 82.95 L0 111.3" class="st2"/></g><g id="shape31-83" transform="translate(250.249,-60.0276)"><title content="structured text">64-bit register.35</title><path d="M0 82.95 L0 111.3" class="st2"/></g><g id="shape32-86" transform="translate(182.217,-88.374)"><title content="structured text">64-bit register.36</title><desc content="structured text">16</desc><text x="1.22" y="108.03" class="st4">16</text></g><g id="shape33-88" transform="translate(148.202,-88.374)"><title content="structured text">64-bit register.37</title><desc content="structured text">19</desc><text x="1.22" y="108.03" class="st4">19</text></g><g id="shape34-90" transform="translate(136.863,-88.374)"><title content="structured text">Sheet.34</title><desc content="structured text">20</desc><text x="1.22" y="108.03" class="st4">20</text></g><g id="shape35-92" transform="translate(102.847,-88.374)"><title content="structured text">Sheet.35</title><desc content="structured text">23</desc><text x="1.22" y="108.03" class="st4">23</text></g><g id="shape36-94" transform="translate(91.5087,-88.374)"><title content="structured text">64-bit register.40</title><desc content="structured text">24</desc><text x="1.22" y="108.03" class="st4">24</text></g><g id="shape38-96" transform="translate(267.257,-40.185)"><title content="structured text">Sheet.38</title><path d="M0 94.29 L0 111.3 L28.35 111.3" class="st6"/></g><g id="shape39-99" transform="translate(255.918,-28.8465)"><title content="structured text">Sheet.39</title><path d="M0 82.95 L0 111.3 L39.69 111.3" class="st6"/></g><g id="shape40-102" transform="translate(244.58,-17.5079)"><title content="structured text">Sheet.40</title><path d="M0 71.62 L0 111.3 L51.02 111.3" class="st6"/></g><g id="shape41-105" transform="translate(170.879,-51.5236)"><title content="structured text">Sheet.41</title><path d="M0 105.63 L0 111.3 L5.67 111.3" class="st6"/></g><g id="shape42-108" transform="translate(298.438,-34.5157)"><title content="structured text">Sheet.42</title><desc content="structured text">SSSTATUS</desc><rect x="0" y="99.9626" width="48.189" height="11.3386" class="st7"/><text x="0" y="108.03" class="st4">SSSTATUS</text></g><g id="shape43-111" transform="translate(298.438,-23.1772)"><title content="structured text">Sheet.43</title><desc content="structured text">TRCRESET</desc><rect x="0" y="99.9626" width="48.189" height="11.3386" class="st7"/><text x="0" y="108.03" class="st4">TRCRESET</text></g><g id="shape44-114" transform="translate(298.438,-11.8386)"><title content="structured text">Sheet.44</title><desc content="structured text">TRCERR</desc><rect x="0" y="99.9626" width="48.189" height="11.3386" class="st7"/><text x="0" y="108.03" class="st4">TRCERR</text></g><g id="shape45-117" transform="translate(179.383,-45.8543)"><title content="structured text">Sheet.45</title><desc content="structured text">EXLEVEL_S</desc><rect x="0" y="99.9626" width="48.189" height="11.3386" class="st7"/><text x="0" y="108.03" class="st4">EXLEVEL_S</text></g><g id="shape46-120" transform="translate(122.69,-40.185)"><title content="structured text">Sheet.46</title><path d="M0 94.29 L0 111.3 L53.86 111.3" class="st6"/></g><g id="shape47-123" transform="translate(179.383,-34.5157)"><title content="structured text">Sheet.47</title><desc content="structured text">EXLEVEL_NS</desc><rect x="0" y="99.9626" width="53.8583" height="11.3386" class="st7"/><text x="0" y="108.03" class="st4">EXLEVEL_NS</text></g><g id="shape49-126" transform="translate(295.603,-88.374)"><title content="structured text">64-bit register.54</title><desc content="structured text">6</desc><text x="3.44" y="108.03" class="st4">6</text></g><g id="shape50-128" transform="translate(329.619,-88.374)"><title content="structured text">64-bit register.55</title><desc content="structured text">3</desc><text x="3.44" y="108.03" class="st4">3</text></g><g id="shape51-130" transform="translate(318.28,-88.374)"><title content="structured text">64-bit register.56</title><desc content="structured text">4</desc><text x="3.44" y="108.03" class="st4">4</text></g><g id="shape52-132" transform="translate(272.926,-60.0276)"><title content="structured text">64-bit register.57</title><path d="M0 82.95 L0 111.3" class="st2"/></g><g id="shape53-135" transform="translate(284.265,-60.0276)"><title content="structured text">Sheet.53</title><path d="M0 82.95 L0 111.3" class="st2"/></g><g id="shape54-138" transform="translate(329.619,-60.0276)"><title content="structured text">Sheet.54</title><desc content="structured text">SEL</desc><rect x="0" y="82.9547" width="45.3543" height="28.3465" class="st5"/><text x="15.12" y="99.53" class="st4">SEL</text></g><g id="shape55-141" transform="translate(329.619,-60.0276)"><title content="structured text">Sheet.55</title><path d="M0 82.95 L0 111.3" class="st2"/></g><g id="shape58-144" transform="translate(289.934,-51.5236)"><title content="structured text">Sheet.58</title><path d="M0 105.63 L0 111.3 L5.67 111.3" class="st6"/></g><g id="shape59-147" transform="translate(298.438,-45.8543)"><title content="structured text">Sheet.59</title><desc content="structured text">TYPE</desc><rect x="0" y="99.9626" width="48.189" height="11.3386" class="st7"/><text x="0" y="108.03" class="st4">TYPE</text></g><g id="shape61-150" transform="translate(22.5786,-37.3504)"><title content="structured text">Rectangle No Fill No Fill.116</title><desc content="structured text">res0</desc><rect x="0" y="99.9626" width="19.8425" height="11.3386" class="st8"/><text x="1.24" y="108.03" class="st9">RES<tspan class="st10">0</tspan></text></g><g id="shape62-154" transform="translate(12.1386,-37.3504)"><title content="structured text">Graphic.117</title><rect x="0" y="99.9626" width="10.44" height="11.3386" class="st11"/></g></g></svg>