<?xml version="1.0" encoding="UTF-8" standalone="no"?><!-- Fixed up by svgfix.xsl 1.4  --><!-- Generated by Microsoft Visio 11.0, SVG Export, v1.0 id_isar1_bit_assignments.svg Page-1 -->
<!DOCTYPE svg
  PUBLIC "-//W3C//DTD SVG 1.0//EN" "http://www.w3.org/TR/2001/REC-SVG-20010904/DTD/svg10.dtd">
<svg xmlns:xlink="http://www.w3.org/1999/xlink" xmlns="http://www.w3.org/2000/svg" width="485.913" height="54.313" viewBox="0 0 364.435 40.735" xml:space="preserve" color-interpolation-filters="sRGB" class="st6" preserveAspectRatio="xMidYMid meet" zoomAndPan="magnify" version="1.0" contentScriptType="text/ecmascript" contentStyleType="text/css"><style type="text/css" xml:space="preserve"><![CDATA[
	
		.st1 {fill:#000000;font-family:Arial,Helvetica,sans-serif;font-size:0.666664em}
		.st2 {fill:#ffffff;visibility:hidden}
		.st3 {stroke:#000000;stroke-linecap:butt;stroke-width:0.8px}
		.st4 {stroke:#000000;stroke-dasharray:0.25,0.5;stroke-linecap:butt;stroke-width:0.25px}
		.st5 {fill:none;stroke:none;stroke-linecap:round;stroke-linejoin:round;stroke-width:0.2px}
		.st6 {fill:none;fill-rule:evenodd;font-size:12px;overflow:visible;stroke-linecap:square;stroke-miterlimit:3}]]></style><g xmlns:v="http://schemas.microsoft.com/visio/2003/SVGExtensions/"><title content="structured text">Page-1</title><g id="shape10-1" transform="translate(0.8,-29.1465)"><title content="structured text">Sheet.10</title><desc content="structured text">31</desc><text x="1.22" y="37.47" class="st1">31</text></g><g id="shape11-3" transform="translate(34.8157,-29.1465)"><title content="structured text">Sheet.11</title><desc content="structured text">28</desc><text x="1.22" y="37.47" class="st1">28</text></g><g id="shape12-5" transform="translate(46.1543,-29.1465)"><title content="structured text">Sheet.12</title><desc content="structured text">27</desc><text x="1.22" y="37.47" class="st1">27</text></g><g id="shape13-7" transform="translate(80.1701,-29.1465)"><title content="structured text">Sheet.13</title><desc content="structured text">24</desc><text x="1.22" y="37.47" class="st1">24</text></g><g id="shape14-9" transform="translate(91.5087,-29.1465)"><title content="structured text">Sheet.14</title><desc content="structured text">23</desc><text x="1.22" y="37.47" class="st1">23</text></g><g id="shape15-11" transform="translate(125.524,-29.1465)"><title content="structured text">Sheet.15</title><desc content="structured text">20</desc><text x="1.22" y="37.47" class="st1">20</text></g><g id="shape16-13" transform="translate(136.863,-29.1465)"><title content="structured text">Sheet.16</title><desc content="structured text">19</desc><text x="1.22" y="37.47" class="st1">19</text></g><g id="shape17-15" transform="translate(170.879,-29.1465)"><title content="structured text">Sheet.17</title><desc content="structured text">16</desc><text x="1.22" y="37.47" class="st1">16</text></g><g id="shape18-17" transform="translate(182.217,-29.1465)"><title content="structured text">Sheet.18</title><desc content="structured text">15</desc><text x="1.22" y="37.47" class="st1">15</text></g><g id="shape19-19" transform="translate(216.233,-29.1465)"><title content="structured text">Sheet.19</title><desc content="structured text">12</desc><text x="1.22" y="37.47" class="st1">12</text></g><g id="shape20-21" transform="translate(227.572,-29.1465)"><title content="structured text">Sheet.20</title><desc content="structured text">11</desc><text x="1.22" y="37.47" class="st1">11</text></g><g id="shape21-23" transform="translate(261.587,-29.1465)"><title content="structured text">Sheet.21</title><desc content="structured text">8</desc><text x="3.44" y="37.47" class="st1">8</text></g><g id="shape22-25" transform="translate(272.926,-29.1465)"><title content="structured text">Sheet.22</title><desc content="structured text">7</desc><text x="3.44" y="37.47" class="st1">7</text></g><g id="shape23-27" transform="translate(306.942,-29.1465)"><title content="structured text">Sheet.23</title><desc content="structured text">4</desc><text x="3.44" y="37.47" class="st1">4</text></g><g id="shape24-29" transform="translate(318.28,-29.1465)"><title content="structured text">Sheet.24</title><desc content="structured text">3</desc><text x="3.44" y="37.47" class="st1">3</text></g><g id="shape25-31" transform="translate(352.296,-29.1465)"><title content="structured text">Sheet.25</title><desc content="structured text">0</desc><text x="3.44" y="37.47" class="st1">0</text></g><g id="shape26-33" transform="translate(0.8,-0.8)"><title content="structured text">Sheet.26</title><rect x="0" y="12.3886" width="362.835" height="28.3465" class="st2"/><rect x="0" y="12.3886" width="362.835" height="28.3465" class="st3"/></g><g id="shape27-36" transform="translate(46.1543,-0.8)"><title content="structured text">Sheet.27</title><path d="M0 12.39 L0 40.74" class="st3"/></g><g id="shape28-39" transform="translate(91.5087,-0.8)"><title content="structured text">Sheet.28</title><path d="M0 12.39 L0 40.74" class="st3"/></g><g id="shape29-42" transform="translate(136.863,-0.8)"><title content="structured text">Sheet.29</title><path d="M0 12.39 L0 40.74" class="st3"/></g><g id="shape30-45" transform="translate(182.217,-0.8)"><title content="structured text">Sheet.30</title><path d="M0 12.39 L0 40.74" class="st3"/></g><g id="shape31-48" transform="translate(227.572,-0.8)"><title content="structured text">Sheet.31</title><path d="M0 12.39 L0 40.74" class="st3"/></g><g id="shape32-51" transform="translate(272.926,-0.8)"><title content="structured text">Sheet.32</title><path d="M0 12.39 L0 40.74" class="st3"/></g><g id="shape33-54" transform="translate(318.28,-0.8)"><title content="structured text">Sheet.33</title><path d="M0 12.39 L0 40.74" class="st3"/></g><g id="shape34-57" transform="translate(359.015,0.25) rotate(90)"><title content="structured text">Signal 0</title><path d="M0 40.74 L11.34 40.74" class="st4"/></g><g id="shape35-60" transform="translate(313.661,0.25) rotate(90)"><title content="structured text">Signal 0.102</title><path d="M0 40.74 L11.34 40.74" class="st4"/></g><g id="shape36-63" transform="translate(268.307,0.25) rotate(90)"><title content="structured text">Signal 0.103</title><path d="M0 40.74 L11.34 40.74" class="st4"/></g><g id="shape37-66" transform="translate(222.952,0.25) rotate(90)"><title content="structured text">Signal 0.104</title><path d="M0 40.74 L11.34 40.74" class="st4"/></g><g id="shape38-69" transform="translate(177.598,0.25) rotate(90)"><title content="structured text">Signal 0.105</title><path d="M0 40.74 L11.34 40.74" class="st4"/></g><g id="shape39-72" transform="translate(132.244,0.25) rotate(90)"><title content="structured text">Signal 0.106</title><path d="M0 40.74 L11.34 40.74" class="st4"/></g><g id="shape40-75" transform="translate(86.8894,0.25) rotate(90)"><title content="structured text">Signal 0.107</title><path d="M0 40.74 L11.34 40.74" class="st4"/></g><g id="shape41-78" transform="translate(41.535,0.25) rotate(90)"><title content="structured text">Signal 0.108</title><path d="M0 40.74 L11.34 40.74" class="st4"/></g><g id="shape42-81" transform="translate(404.37,0.25) rotate(90)"><title content="structured text">Signal 0.109</title><path d="M0 40.74 L11.34 40.74" class="st4"/></g><g id="shape48-84" transform="translate(0.8,-0.8)"><title content="structured text">Sheet.48</title><desc content="structured text">Jazelle</desc><rect x="0" y="12.3886" width="45.3543" height="28.3465" class="st5"/><text x="10.23" y="28.96" class="st1">Jazelle</text></g><g id="shape51-87" transform="translate(46.1543,-0.8)"><title content="structured text">Sheet.51</title><desc content="structured text">Interwork</desc><rect x="0" y="12.3886" width="45.3543" height="28.3465" class="st5"/><text x="6.23" y="28.96" class="st1">Interwork</text></g><g id="shape52-90" transform="translate(91.5087,-0.8)"><title content="structured text">Sheet.52</title><desc content="structured text">Immediate</desc><rect x="0" y="12.3886" width="45.3543" height="28.3465" class="st5"/><text x="4" y="28.96" class="st1">Immediate</text></g><g id="shape53-93" transform="translate(136.863,-0.8)"><title content="structured text">Sheet.53</title><desc content="structured text">IfThen</desc><rect x="0" y="12.3886" width="45.3543" height="28.3465" class="st5"/><text x="11.34" y="28.96" class="st1">IfThen</text></g><g id="shape54-96" transform="translate(182.217,-0.8)"><title content="structured text">Sheet.54</title><desc content="structured text">Extend</desc><rect x="0" y="12.3886" width="45.3543" height="28.3465" class="st5"/><text x="10.22" y="28.96" class="st1">Extend</text></g><g id="shape55-99" transform="translate(227.572,-0.8)"><title content="structured text">Sheet.55</title><desc content="structured text">Except_AR</desc><rect x="0" y="12.3886" width="45.3543" height="28.3465" class="st5"/><text x="2.67" y="28.96" class="st1">Except_AR</text></g><g id="shape56-102" transform="translate(272.926,-0.8)"><title content="structured text">Sheet.56</title><desc content="structured text">Except</desc><rect x="0" y="12.3886" width="45.3543" height="28.3465" class="st5"/><text x="10.45" y="28.96" class="st1">Except</text></g><g id="shape57-105" transform="translate(318.28,-0.8)"><title content="structured text">Sheet.57</title><desc content="structured text">Endian</desc><rect x="0" y="12.3886" width="45.3543" height="28.3465" class="st5"/><text x="10.22" y="28.96" class="st1">Endian</text></g></g></svg>