<?xml version="1.0" encoding="UTF-8" standalone="no"?><!-- Fixed up by svgfix.xsl 1.4  --><!-- Generated by Microsoft Visio 11.0, SVG Export, v1.0 trcidr1_bit_assignments.svg ARM -->
<!DOCTYPE svg
  PUBLIC "-//W3C//DTD SVG 1.0//EN" "http://www.w3.org/TR/2001/REC-SVG-20010904/DTD/svg10.dtd">
<svg xmlns:xlink="http://www.w3.org/1999/xlink" xmlns="http://www.w3.org/2000/svg" xmlns:ev="http://www.w3.org/2001/xml-events" width="516.149" height="133.284" viewBox="0 0 387.112 99.963" xml:space="preserve" color-interpolation-filters="sRGB" class="st14" preserveAspectRatio="xMidYMid meet" zoomAndPan="magnify" version="1.0" contentScriptType="text/ecmascript" contentStyleType="text/css"><style type="text/css" xml:space="preserve"><![CDATA[
	
		.st1 {fill:#ccdfdb;stroke:#000000;stroke-linecap:butt;stroke-width:0.5px}
		.st2 {fill:#eed9b3;stroke:#000000;stroke-linecap:butt;stroke-width:0.5px}
		.st3 {stroke:#000000;stroke-linecap:butt;stroke-width:0.8px}
		.st4 {stroke:#000000;stroke-dasharray:0.25,0.5;stroke-linecap:butt;stroke-width:0.25px}
		.st5 {fill:#000000;font-family:Arial,Helvetica,sans-serif;font-size:0.666664em}
		.st6 {fill:none;stroke:none;stroke-linecap:butt;stroke-width:0.5px}
		.st7 {fill:none;stroke:none;stroke-linecap:round;stroke-linejoin:round;stroke-width:0.2px}
		.st8 {stroke:#000000;stroke-linecap:butt;stroke-width:0.5px}
		.st9 {fill:none;stroke:none;stroke-linecap:butt;stroke-width:0.499999px}
		.st10 {fill:#000000;font-family:Arial,Helvetica,sans-serif;font-size:0.533318em}
		.st11 {font-size:1.25003em}
		.st12 {fill:#eed9b3;stroke:none;stroke-linecap:round;stroke-linejoin:round;stroke-width:0.2px}
		.st13 {fill:#ccdfdb;stroke:none;stroke-linecap:round;stroke-linejoin:round;stroke-width:0.2px}
		.st14 {fill:none;fill-rule:evenodd;font-size:12px;overflow:visible;stroke-linecap:square;stroke-miterlimit:3}]]></style><g xmlns:v="http://schemas.microsoft.com/visio/2003/SVGExtensions/"><title content="structured text">ARM</title><g id="shape31-1" transform="translate(193.606,-48.7559)"><title content="structured text">Sheet.31</title><rect x="0" y="71.6161" width="45.3543" height="28.3465" class="st1"/></g><g id="shape18-3" transform="translate(102.898,-48.7559)"><title content="structured text">Sheet.18</title><rect x="0" y="71.6161" width="90.7087" height="28.3465" class="st2"/></g><g id="shape1-5" transform="translate(374.973,-48.689) scale(-1,1)"><title content="structured text">64-bit register.156</title><path d="M0 71.62 L362.83 71.62 L362.83 99.96 L0 99.96" class="st3"/></g><g id="shape2-8" transform="translate(112.101,11.5886) rotate(90)"><title content="structured text">64-bit register.169</title><path d="M0 99.96 L11.34 99.96" class="st4"/></g><g id="shape3-11" transform="translate(374.973,-48.689)"><title content="structured text">64-bit register.157</title><path d="M0 71.62 L0 99.96" class="st3"/></g><g id="shape4-14" transform="translate(102.847,-48.689)"><title content="structured text">64-bit register.7</title><path d="M0 71.62 L0 99.96" class="st3"/></g><g id="shape5-17" transform="translate(193.556,-48.689)"><title content="structured text">64-bit register.39</title><path d="M0 71.62 L0 99.96" class="st3"/></g><g id="shape6-20" transform="translate(238.91,-48.689)"><title content="structured text">64-bit register.41</title><path d="M0 71.62 L0 99.96" class="st3"/></g><g id="shape7-23" transform="translate(284.265,-48.689)"><title content="structured text">64-bit register.42</title><path d="M0 71.62 L0 99.96" class="st3"/></g><g id="shape8-26" transform="translate(329.619,-48.689)"><title content="structured text">64-bit register.52</title><path d="M0 71.62 L0 99.96" class="st3"/></g><g id="shape9-29" transform="translate(157.456,11.5886) rotate(90)"><title content="structured text">64-bit register.11</title><path d="M0 99.96 L11.34 99.96" class="st4"/></g><g id="shape10-32" transform="translate(202.81,11.5886) rotate(90)"><title content="structured text">64-bit register.12</title><path d="M0 99.96 L11.34 99.96" class="st4"/></g><g id="shape11-35" transform="translate(248.164,11.5886) rotate(90)"><title content="structured text">64-bit register.13</title><path d="M0 99.96 L11.34 99.96" class="st4"/></g><g id="shape12-38" transform="translate(293.518,11.5886) rotate(90)"><title content="structured text">64-bit register.14</title><path d="M0 99.96 L11.34 99.96" class="st4"/></g><g id="shape13-41" transform="translate(338.873,11.5886) rotate(90)"><title content="structured text">64-bit register.15</title><path d="M0 99.96 L11.34 99.96" class="st4"/></g><g id="shape14-44" transform="translate(429.581,11.5886) rotate(90)"><title content="structured text">64-bit register.16</title><path d="M0 99.96 L11.34 99.96" class="st4"/></g><g id="shape15-47" transform="translate(474.936,11.5886) rotate(90)"><title content="structured text">64-bit register.17</title><path d="M0 99.96 L11.34 99.96" class="st4"/></g><g id="shape16-50" transform="translate(12.1386,-77.0354)"><title content="structured text">64-bit register.179</title><desc content="structured text">31</desc><text x="1.22" y="96.69" class="st5">31</text></g><g id="shape17-52" transform="translate(363.635,-77.0354)"><title content="structured text">64-bit register.19</title><desc content="structured text">0</desc><text x="3.44" y="96.69" class="st5">0</text></g><g id="shape19-54" transform="translate(384.227,11.5886) rotate(90)"><title content="structured text">64-bit register.21</title><path d="M0 99.96 L11.34 99.96" class="st4"/></g><g id="shape20-57" transform="translate(196.391,-34.5157)"><title content="structured text">Sheet.20</title><desc content="structured text">TRCARCHMAJ</desc><rect x="0" y="88.624" width="62.3622" height="11.3386" class="st6"/><text x="5.25" y="96.69" class="st5">TRCARCHMAJ</text></g><g id="shape21-60" transform="translate(91.5087,-77.0354)"><title content="structured text">64-bit register.4</title><desc content="structured text">24</desc><text x="1.22" y="96.69" class="st5">24</text></g><g id="shape22-62" transform="translate(102.847,-77.0354)"><title content="structured text">64-bit register.6</title><desc content="structured text">23</desc><text x="1.22" y="96.69" class="st5">23</text></g><g id="shape23-64" transform="translate(182.217,-77.0354)"><title content="structured text">64-bit register.26</title><desc content="structured text">16</desc><text x="1.22" y="96.69" class="st5">16</text></g><g id="shape24-66" transform="translate(193.556,-77.0354)"><title content="structured text">64-bit register.27</title><desc content="structured text">15</desc><text x="1.22" y="96.69" class="st5">15</text></g><g id="shape25-68" transform="translate(227.572,-77.0354)"><title content="structured text">64-bit register.28</title><desc content="structured text">12</desc><text x="1.22" y="96.69" class="st5">12</text></g><g id="shape26-70" transform="translate(238.91,-77.0354)"><title content="structured text">64-bit register.29</title><desc content="structured text">11</desc><text x="1.22" y="96.69" class="st5">11</text></g><g id="shape27-72" transform="translate(272.926,-77.0354)"><title content="structured text">64-bit register.30</title><desc content="structured text">8</desc><text x="3.44" y="96.69" class="st5">8</text></g><g id="shape28-74" transform="translate(284.265,-77.0354)"><title content="structured text">64-bit register.31</title><desc content="structured text">7</desc><text x="3.44" y="96.69" class="st5">7</text></g><g id="shape29-76" transform="translate(318.28,-77.0354)"><title content="structured text">64-bit register.32</title><desc content="structured text">4</desc><text x="3.44" y="96.69" class="st5">4</text></g><g id="shape30-78" transform="translate(329.619,-77.0354)"><title content="structured text">64-bit register.33</title><desc content="structured text">3</desc><text x="3.44" y="96.69" class="st5">3</text></g><g id="shape32-80" transform="translate(12.1386,-48.689)"><title content="structured text">64-bit register.35</title><desc content="structured text">DESIGNER</desc><rect x="0" y="71.6161" width="90.7087" height="28.3465" class="st7"/><text x="24.46" y="88.19" class="st5">DESIGNER</text></g><g id="shape33-83" transform="translate(329.619,-48.689)"><title content="structured text">64-bit register.36</title><desc content="structured text">REVISION</desc><rect x="0" y="71.6161" width="45.3543" height="28.3465" class="st7"/><text x="3.56" y="88.19" class="st5">REVISION</text></g><g id="shape34-86" transform="translate(306.942,-28.8464) scale(-1,1)"><title content="structured text">Sheet.34</title><path d="M0 82.95 L0 99.96 L48.19 99.96" class="st8"/></g><g id="shape35-89" transform="translate(264.422,-40.185) scale(-1,1)"><title content="structured text">Sheet.35</title><path d="M0 94.29 L0 99.96 L5.67 99.96" class="st8"/></g><g id="shape36-92" transform="translate(196.391,-23.1772)"><title content="structured text">Sheet.36</title><desc content="structured text">TRCARCHMIN</desc><rect x="0" y="88.624" width="62.3622" height="11.3386" class="st6"/><text x="6.59" y="96.69" class="st5">TRCARCHMIN</text></g><g id="shape37-95" transform="translate(22.5786,-11.8386)"><title content="structured text">Rectangle No Fill No Fill.116</title><desc content="structured text">res0</desc><rect x="0" y="88.624" width="19.8425" height="11.3386" class="st9"/><text x="1.24" y="96.69" class="st10">RES<tspan class="st11">0</tspan></text></g><g id="shape38-99" transform="translate(12.1386,-11.8386)"><title content="structured text">Graphic.117</title><rect x="0" y="88.624" width="10.44" height="11.3386" class="st12"/></g><g id="shape39-101" transform="translate(22.6772,-25.5118)"><title content="structured text">Rectangle No Fill No Fill.39</title><desc content="structured text">res0</desc><rect x="0" y="88.624" width="19.8425" height="11.3386" class="st9"/><text x="1.24" y="96.69" class="st10">RES<tspan class="st11">1</tspan></text></g><g id="shape40-105" transform="translate(12.2373,-25.5118)"><title content="structured text">Graphic.40</title><rect x="0" y="88.624" width="10.44" height="11.3386" class="st13"/></g></g></svg>