<?xml version="1.0" encoding="UTF-8" standalone="no"?><!-- Fixed up by svgfix.xsl 1.4  --><!-- Generated by Microsoft Visio 11.0, SVG Export, v1.0 lau1457005962208_LowRes.svg ARM -->
<!DOCTYPE svg
  PUBLIC "-//W3C//DTD SVG 1.0//EN" "http://www.w3.org/TR/2001/REC-SVG-20010904/DTD/svg10.dtd">
<svg xmlns:xlink="http://www.w3.org/1999/xlink" xmlns="http://www.w3.org/2000/svg" xmlns:ev="http://www.w3.org/2001/xml-events" width="652.212" height="130.17" viewBox="0 0 489.159 97.628" xml:space="preserve" color-interpolation-filters="sRGB" class="st13" preserveAspectRatio="xMidYMid meet" zoomAndPan="magnify" version="1.0" contentScriptType="text/ecmascript" contentStyleType="text/css"><style type="text/css" xml:space="preserve"><![CDATA[
	
		.st1 {fill:#eed9b3;stroke:none;stroke-linecap:round;stroke-linejoin:round;stroke-width:0.2px}
		.st2 {fill:#ffffff;stroke:none;stroke-linecap:butt;stroke-width:0.5px}
		.st3 {fill:#000000;font-family:Arial,Helvetica,sans-serif;font-size:0.650002em}
		.st4 {fill:#000000;font-family:Arial,Helvetica,sans-serif;font-size:0.666664em}
		.st5 {fill:#ffffff;visibility:hidden}
		.st6 {stroke:#000000;stroke-linecap:butt;stroke-width:0.8px}
		.st7 {stroke:#000000;stroke-dasharray:0.25,1;stroke-linecap:butt;stroke-width:0.25px}
		.st8 {stroke:#000000;stroke-linecap:butt;stroke-width:0.5px}
		.st9 {fill:none;stroke:none;stroke-linecap:butt;stroke-width:0.499999px}
		.st10 {fill:#000000;font-family:Arial,Helvetica,sans-serif;font-size:0.533318em}
		.st11 {font-size:1.25003em}
		.st12 {fill:#eed9b3;stroke:none;stroke-linecap:round;stroke-linejoin:round;stroke-width:0.2px}
		.st13 {fill:none;fill-rule:evenodd;font-size:12px;overflow:visible;stroke-linecap:square;stroke-miterlimit:3}]]></style><g xmlns:v="http://schemas.microsoft.com/visio/2003/SVGExtensions/"><title content="structured text">ARM</title><g id="shape1-1" transform="translate(295.727,-45.8543)"><title content="structured text">Sheet.1</title><rect x="0" y="69.2815" width="90.5849" height="28.3465" class="st1"/></g><g id="shape51-3" transform="translate(12.1386,-45.8543)"><title content="structured text">Sheet.51</title><rect x="0" y="69.2815" width="192.756" height="28.3465" class="st1"/></g><g id="shape20-5" transform="translate(386.312,-45.8543)"><title content="structured text">Block.20</title><desc content="structured text">LR</desc><rect x="0" y="69.2815" width="90.7087" height="28.3465" class="st2"/><text x="40.37" y="85.85" class="st3">LR</text></g><g id="shape3-8" transform="translate(204.692,-45.8543)"><title content="structured text">Block.3</title><desc content="structured text">LD</desc><rect x="0" y="69.2815" width="90.7087" height="28.3465" class="st2"/><text x="40.24" y="85.85" class="st4">LD</text></g><g id="shape4-11" transform="translate(12.1386,-45.8543)"><title content="structured text">Sheet.4</title><rect x="0" y="69.2815" width="464.882" height="28.3465" class="st5"/><rect x="0" y="69.2815" width="464.882" height="28.3465" class="st6"/></g><g id="shape5-14" transform="translate(574.648,12.0886) rotate(90)"><title content="structured text">Signal 0.109</title><path d="M0 97.63 L11.34 97.63" class="st7"/></g><g id="shape6-17" transform="translate(529.294,12.0886) rotate(90)"><title content="structured text">Signal 0.80</title><path d="M0 97.63 L11.34 97.63" class="st7"/></g><g id="shape7-20" transform="translate(274.176,12.0886) rotate(90)"><title content="structured text">Signal 0.81</title><path d="M0 97.63 L11.34 97.63" class="st7"/></g><g id="shape8-23" transform="translate(393.225,11.0228) rotate(89.3745)"><title content="structured text">Signal 0.82</title><path d="M0 97.63 L11.34 97.63" class="st7"/></g><g id="shape9-26" transform="translate(347.877,12.0886) rotate(90)"><title content="structured text">Signal 0.83</title><path d="M0 97.63 L11.34 97.63" class="st7"/></g><g id="shape10-29" transform="translate(302.32,12.0886) rotate(90)"><title content="structured text">Signal 0.84</title><path d="M0 97.63 L11.34 97.63" class="st7"/></g><g id="shape11-32" transform="translate(251.499,12.0886) rotate(90)"><title content="structured text">Signal 0.85</title><path d="M0 97.63 L11.34 97.63" class="st7"/></g><g id="shape12-35" transform="translate(228.822,12.0886) rotate(90)"><title content="structured text">Signal 0.86</title><path d="M0 97.63 L11.34 97.63" class="st7"/></g><g id="shape13-38" transform="translate(109.767,12.0886) rotate(90)"><title content="structured text">Signal 0.87</title><path d="M0 97.63 L11.34 97.63" class="st7"/></g><g id="shape14-41" transform="translate(12.1386,-74.2008)"><title content="structured text">Bit01.88</title><desc content="structured text">63</desc><text x="1.22" y="94.36" class="st4">63</text></g><g id="shape15-43" transform="translate(438.585,11.5886) rotate(90)"><title content="structured text">Signal 0.91</title><path d="M0 97.63 L11.34 97.63" class="st7"/></g><g id="shape16-46" transform="translate(465.277,-74.2008)"><title content="structured text">Bit01.1</title><desc content="structured text">0</desc><text x="3.44" y="94.36" class="st4">0</text></g><g id="shape21-48" transform="translate(374.771,-74.2008)"><title content="structured text">Bit01.19</title><desc content="structured text">8</desc><text x="3.44" y="94.36" class="st4">8</text></g><g id="group34-50" transform="translate(107.099,-43.5197)"><title content="structured text">Sheet.34</title><g id="group35-51" transform="translate(0,-28.3465)"><title content="structured text">Sheet.35</title><g id="shape36-52" transform="translate(0.566929,4.26326E-014)"><title content="structured text">Sheet.36</title><rect x="0" y="91.9586" width="1.88976" height="5.66929" class="st2"/></g><g id="shape37-54" transform="translate(98.7285,107.941) rotate(99.4623)"><title content="structured text">Sheet.37</title><path d="M0 97.22 C0.15 97.42 0.72 97.59 1.15 97.62 C1.58 97.65 1.86 97.55 2.34 97.31 C2.63 97.17 2.98 96.98          3.29 96.86 C4.56 96.36 5.03 96.91 5.75 97.22" class="st8"/></g><g id="shape38-57" transform="translate(96.8388,107.941) rotate(99.4623)"><title content="structured text">Sheet.38</title><path d="M0 97.22 C0.15 97.42 0.72 97.59 1.15 97.62 C1.58 97.65 1.86 97.55 2.34 97.31 C2.63 97.17 2.98 96.98          3.29 96.86 C4.56 96.36 5.03 96.91 5.75 97.22" class="st8"/></g></g><g id="group39-60"><title content="structured text">Sheet.39</title><g id="shape40-61" transform="translate(0.566929,4.26326E-014)"><title content="structured text">Sheet.40</title><rect x="0" y="91.9586" width="1.88976" height="5.66929" class="st2"/></g><g id="shape41-63" transform="translate(98.7285,107.941) rotate(99.4623)"><title content="structured text">Sheet.41</title><path d="M0 97.22 C0.15 97.42 0.72 97.59 1.15 97.62 C1.58 97.65 1.86 97.55 2.34 97.31 C2.63 97.17 2.98 96.98          3.29 96.86 C4.56 96.36 5.03 96.91 5.75 97.22" class="st8"/></g><g id="shape42-66" transform="translate(96.8388,107.941) rotate(99.4623)"><title content="structured text">Sheet.42</title><path d="M0 97.22 C0.15 97.42 0.72 97.59 1.15 97.62 C1.58 97.65 1.86 97.55 2.34 97.31 C2.63 97.17 2.98 96.98          3.29 96.86 C4.56 96.36 5.03 96.91 5.75 97.22" class="st8"/></g></g></g><g id="shape44-69" transform="translate(386.109,-46.3543)"><title content="structured text">Sheet.44</title><path d="M0 69.28 L0 97.63" class="st6"/></g><g id="shape47-72" transform="translate(386.109,-74.2008)"><title content="structured text">Bit01.47</title><desc content="structured text">7</desc><text x="3.44" y="94.36" class="st4">7</text></g><g id="shape19-74" transform="translate(295.401,-46.3543)"><title content="structured text">Sheet.19</title><path d="M0 69.28 L0 97.63" class="st6"/></g><g id="shape28-77" transform="translate(295.401,-74.2008)"><title content="structured text">Bit01.28</title><desc content="structured text">15</desc><text x="1.22" y="94.36" class="st4">15</text></g><g id="shape29-79" transform="translate(284.062,-74.2008)"><title content="structured text">Bit01.29</title><desc content="structured text">16</desc><text x="1.22" y="94.36" class="st4">16</text></g><g id="shape17-81" transform="translate(204.692,-46.3543)"><title content="structured text">Sheet.17</title><path d="M0 69.28 L0 97.63" class="st6"/></g><g id="shape18-84" transform="translate(204.692,-74.2008)"><title content="structured text">Bit01.18</title><desc content="structured text">23</desc><text x="1.22" y="94.36" class="st4">23</text></g><g id="shape30-86" transform="translate(193.353,-74.2008)"><title content="structured text">Bit01.30</title><desc content="structured text">24</desc><text x="1.22" y="94.36" class="st4">24</text></g><g id="group48-88" transform="translate(12.1386,-11.8386)"><title content="structured text">Sheet.48</title><g id="shape49-89" transform="translate(11.3386,1.42109E-014)"><title content="structured text">Rectangle No Fill No Fill.116</title><desc content="structured text">res0</desc><rect x="0" y="86.2894" width="22.6772" height="11.3386" class="st9"/><text x="3.07" y="94.36" class="st10">RES<tspan class="st11">0</tspan></text></g><g id="shape50-93"><title content="structured text">Graphic.117</title><rect x="0" y="86.2894" width="11.3386" height="11.3386" class="st12"/></g></g><g id="shape180-95" transform="translate(483.94,12.0886) rotate(90)"><title content="structured text">Signal 0.180</title><path d="M0 97.63 L11.34 97.63" class="st7"/></g><g id="shape181-98" transform="translate(206.144,12.0886) rotate(90)"><title content="structured text">Signal 0.181</title><path d="M0 97.63 L11.34 97.63" class="st7"/></g><g id="shape182-101" transform="translate(183.467,12.0886) rotate(90)"><title content="structured text">Signal 0.182</title><path d="M0 97.63 L11.34 97.63" class="st7"/></g><g id="shape183-104" transform="translate(160.79,12.0886) rotate(90)"><title content="structured text">Signal 0.183</title><path d="M0 97.63 L11.34 97.63" class="st7"/></g><g id="shape184-107" transform="translate(138.113,12.0886) rotate(90)"><title content="structured text">Signal 0.184</title><path d="M0 97.63 L11.34 97.63" class="st7"/></g></g></svg>