<?xml version="1.0" encoding="UTF-8" standalone="no"?><!-- Fixed up by svgfix.xsl 1.4  --><!-- Generated by Microsoft Visio 11.0, SVG Export, v1.0 lau1464774931770_LowRes.svg ARM -->
<!DOCTYPE svg
  PUBLIC "-//W3C//DTD SVG 1.0//EN" "http://www.w3.org/TR/2001/REC-SVG-20010904/DTD/svg10.dtd">
<svg xmlns:xlink="http://www.w3.org/1999/xlink" xmlns="http://www.w3.org/2000/svg" xmlns:ev="http://www.w3.org/2001/xml-events" width="562.044" height="125.724" viewBox="0 0 421.533 94.293" xml:space="preserve" color-interpolation-filters="sRGB" class="st13" preserveAspectRatio="xMidYMid meet" zoomAndPan="magnify" version="1.0" contentScriptType="text/ecmascript" contentStyleType="text/css"><style type="text/css" xml:space="preserve"><![CDATA[
	
		.st1 {fill:#eed9b3;stroke:none;stroke-linecap:round;stroke-linejoin:round;stroke-width:0.2px}
		.st2 {fill:#ffffff;visibility:hidden}
		.st3 {stroke:#000000;stroke-linecap:butt;stroke-width:0.8px}
		.st4 {stroke:#000000;stroke-dasharray:0.25,1;stroke-linecap:butt;stroke-width:0.25px}
		.st5 {fill:#000000;font-family:Arial,Helvetica,sans-serif;font-size:0.666664em}
		.st6 {fill:#ffffff;stroke:none;stroke-linecap:butt;stroke-width:0.5px}
		.st7 {stroke:#000000;stroke-linecap:butt;stroke-width:0.5px}
		.st8 {fill:none;stroke:none;stroke-linecap:butt;stroke-width:0.499999px}
		.st9 {fill:#000000;font-family:Arial,Helvetica,sans-serif;font-size:0.533318em}
		.st10 {font-size:1.25003em}
		.st11 {fill:#eed9b3;stroke:none;stroke-linecap:round;stroke-linejoin:round;stroke-width:0.2px}
		.st12 {fill:none;stroke:none;stroke-linecap:butt;stroke-width:0.5px}
		.st13 {fill:none;fill-rule:evenodd;font-size:12px;overflow:visible;stroke-linecap:square;stroke-miterlimit:3}]]></style><g xmlns:v="http://schemas.microsoft.com/visio/2003/SVGExtensions/"><title content="structured text">ARM</title><g id="shape45-1" transform="translate(386.464,-43.0197)"><title content="structured text">Sheet.45</title><rect x="0" y="65.9468" width="11.3386" height="28.3465" class="st1"/></g><g id="shape1-3" transform="translate(12.1386,-43.0197)"><title content="structured text">Sheet.1</title><rect x="0" y="65.9468" width="351.496" height="28.3465" class="st1"/></g><g id="shape3-5" transform="translate(12.1386,-43.0197)"><title content="structured text">Sheet.3</title><rect x="0" y="65.9468" width="397.255" height="28.3465" class="st2"/><rect x="0" y="65.9468" width="397.255" height="28.3465" class="st3"/></g><g id="shape4-8" transform="translate(503.282,11.5886) rotate(90)"><title content="structured text">Signal 0.109</title><path d="M0 94.29 L11.34 94.29" class="st4"/></g><g id="shape5-11" transform="translate(269.341,22.9272) rotate(-90)"><title content="structured text">Signal 0.80</title><path d="M0 94.29 L11.34 94.29" class="st4"/></g><g id="shape6-14" transform="translate(429.581,11.5886) rotate(90)"><title content="structured text">Signal 0.81</title><path d="M0 94.29 L11.34 94.29" class="st4"/></g><g id="shape7-17" transform="translate(384.227,11.5886) rotate(90)"><title content="structured text">Signal 0.82</title><path d="M0 94.29 L11.34 94.29" class="st4"/></g><g id="shape8-20" transform="translate(218.318,22.9272) rotate(-90)"><title content="structured text">Signal 0.83</title><path d="M0 94.29 L11.34 94.29" class="st4"/></g><g id="shape9-23" transform="translate(361.55,11.5886) rotate(90)"><title content="structured text">Signal 0.84</title><path d="M0 94.29 L11.34 94.29" class="st4"/></g><g id="shape10-26" transform="translate(293.518,11.5886) rotate(90)"><title content="structured text">Signal 0.85</title><path d="M0 94.29 L11.34 94.29" class="st4"/></g><g id="shape11-29" transform="translate(270.841,11.5886) rotate(90)"><title content="structured text">Signal 0.86</title><path d="M0 94.29 L11.34 94.29" class="st4"/></g><g id="shape12-32" transform="translate(106.432,11.5886) rotate(90)"><title content="structured text">Signal 0.87</title><path d="M0 94.29 L11.34 94.29" class="st4"/></g><g id="shape13-35" transform="translate(12.1386,-71.3661)"><title content="structured text">Bit01.88</title><desc content="structured text">63</desc><text x="1.22" y="91.02" class="st5">63</text></g><g id="shape14-37" transform="translate(264.422,-72.0776)"><title content="structured text">Signal 0.91</title></g><g id="shape15-38" transform="translate(397.65,-71.3661)"><title content="structured text">Bit01.1</title><desc content="structured text">0</desc><text x="3.44" y="91.02" class="st5">0</text></g><g id="group18-40" transform="translate(186.469,-40.9203)"><title content="structured text">Sheet.18</title><g id="group19-41" transform="translate(0,-28.3465)"><title content="structured text">Sheet.19</title><g id="shape20-42" transform="translate(0.566929,4.26326E-014)"><title content="structured text">Sheet.20</title><rect x="0" y="88.624" width="1.88976" height="5.66929" class="st6"/></g><g id="shape21-44" transform="translate(95.4393,104.058) rotate(99.4623)"><title content="structured text">Sheet.21</title><path d="M0 93.88 C0.15 94.09 0.72 94.26 1.15 94.29 C1.58 94.32 1.86 94.21 2.34 93.98 C2.63 93.84 2.98 93.65          3.29 93.53 C4.56 93.03 5.03 93.58 5.75 93.88" class="st7"/></g><g id="shape22-47" transform="translate(93.5495,104.058) rotate(99.4623)"><title content="structured text">Sheet.22</title><path d="M0 93.88 C0.15 94.09 0.72 94.26 1.15 94.29 C1.58 94.32 1.86 94.21 2.34 93.98 C2.63 93.84 2.98 93.65          3.29 93.53 C4.56 93.03 5.03 93.58 5.75 93.88" class="st7"/></g></g><g id="group23-50"><title content="structured text">Sheet.23</title><g id="shape24-51" transform="translate(0.566929,4.26326E-014)"><title content="structured text">Sheet.24</title><rect x="0" y="88.624" width="1.88976" height="5.66929" class="st6"/></g><g id="shape25-53" transform="translate(95.4393,104.058) rotate(99.4623)"><title content="structured text">Sheet.25</title><path d="M0 93.88 C0.15 94.09 0.72 94.26 1.15 94.29 C1.58 94.32 1.86 94.21 2.34 93.98 C2.63 93.84 2.98 93.65          3.29 93.53 C4.56 93.03 5.03 93.58 5.75 93.88" class="st7"/></g><g id="shape26-56" transform="translate(93.5495,104.058) rotate(99.4623)"><title content="structured text">Sheet.26</title><path d="M0 93.88 C0.15 94.09 0.72 94.26 1.15 94.29 C1.58 94.32 1.86 94.21 2.34 93.98 C2.63 93.84 2.98 93.65          3.29 93.53 C4.56 93.03 5.03 93.58 5.75 93.88" class="st7"/></g></g></g><g id="group36-59" transform="translate(12.1386,-11.8386)"><title content="structured text">Sheet.36</title><g id="shape37-60" transform="translate(11.3386,1.42109E-014)"><title content="structured text">Rectangle No Fill No Fill.116</title><desc content="structured text">res0</desc><rect x="0" y="82.9547" width="22.6772" height="11.3386" class="st8"/><text x="3.07" y="91.02" class="st9">RES<tspan class="st10">0</tspan></text></g><g id="shape38-64"><title content="structured text">Graphic.117</title><rect x="0" y="82.9547" width="11.3386" height="11.3386" class="st11"/></g></g><g id="shape40-66" transform="translate(386.312,-71.3661)"><title content="structured text">Bit01.40</title><desc content="structured text">1</desc><text x="3.44" y="91.02" class="st5">1</text></g><g id="shape41-68" transform="translate(397.802,-43.0197)"><title content="structured text">Sheet.41</title><path d="M0 65.95 L0 94.29" class="st3"/></g><g id="shape42-71" transform="translate(386.464,-43.0197)"><title content="structured text">Sheet.42</title><path d="M0 65.95 L0 94.29" class="st3"/></g><g id="shape43-74" transform="translate(374.973,-71.3661)"><title content="structured text">Bit01.43</title><desc content="structured text">2</desc><text x="3.44" y="91.02" class="st5">2</text></g><g id="shape44-76" transform="translate(392.133,-34.5157)"><title content="structured text">Bit name 1</title><desc content="structured text">EN</desc><path d="M11.34 88.62 L11.34 94.29 L0 94.29" class="st7"/><text x="-12.11" y="96.69" class="st5">EN</text></g><g id="shape46-80" transform="translate(363.635,-71.3661)"><title content="structured text">Bit01.46</title><desc content="structured text">3</desc><text x="3.44" y="91.02" class="st5">3</text></g><g id="shape47-82" transform="translate(352.296,-71.3661)"><title content="structured text">Bit01.47</title><desc content="structured text">4</desc><text x="3.44" y="91.02" class="st5">4</text></g><g id="shape49-84" transform="translate(363.635,-43.0197)"><title content="structured text">Sheet.49</title><path d="M0 65.95 L0 94.29" class="st3"/></g><g id="shape2-87" transform="translate(363.635,-43.0197)"><title content="structured text">Sheet.2</title><desc content="structured text">DS</desc><rect x="0" y="65.9468" width="22.6772" height="28.3465" class="st12"/><text x="5.78" y="82.52" class="st5">DS</text></g><g id="shape178-90" transform="translate(338.873,11.5886) rotate(90)"><title content="structured text">Signal 0.178</title><path d="M0 94.29 L11.34 94.29" class="st4"/></g><g id="shape179-93" transform="translate(316.196,11.5886) rotate(90)"><title content="structured text">Signal 0.179</title><path d="M0 94.29 L11.34 94.29" class="st4"/></g><g id="shape180-96" transform="translate(248.164,11.5886) rotate(90)"><title content="structured text">Signal 0.180</title><path d="M0 94.29 L11.34 94.29" class="st4"/></g><g id="shape181-99" transform="translate(225.487,11.5886) rotate(90)"><title content="structured text">Signal 0.181</title><path d="M0 94.29 L11.34 94.29" class="st4"/></g><g id="shape182-102" transform="translate(205.644,11.5886) rotate(90)"><title content="structured text">Signal 0.182</title><path d="M0 94.29 L11.34 94.29" class="st4"/></g><g id="shape183-105" transform="translate(180.133,11.5886) rotate(90)"><title content="structured text">Signal 0.183</title><path d="M0 94.29 L11.34 94.29" class="st4"/></g><g id="shape184-108" transform="translate(157.456,11.5886) rotate(90)"><title content="structured text">Signal 0.184</title><path d="M0 94.29 L11.34 94.29" class="st4"/></g><g id="shape185-111" transform="translate(134.778,11.5886) rotate(90)"><title content="structured text">Signal 0.185</title><path d="M0 94.29 L11.34 94.29" class="st4"/></g></g></svg>