<?xml version="1.0" encoding="UTF-8" standalone="no"?><!-- Fixed up by svgfix.xsl 1.4  --><!-- Generated by Microsoft Visio 11.0, SVG Export, v1.0 ICC_CTLR_bit_assignments.svg ARM -->
<!DOCTYPE svg
  PUBLIC "-//W3C//DTD SVG 1.0//EN" "http://www.w3.org/TR/2001/REC-SVG-20010904/DTD/svg10.dtd">
<svg xmlns:xlink="http://www.w3.org/1999/xlink" xmlns="http://www.w3.org/2000/svg" xmlns:ev="http://www.w3.org/2001/xml-events" width="571.775" height="182.417" viewBox="0 0 428.831 136.813" xml:space="preserve" color-interpolation-filters="sRGB" class="st13" preserveAspectRatio="xMidYMid meet" zoomAndPan="magnify" version="1.0" contentScriptType="text/ecmascript" contentStyleType="text/css"><style type="text/css" xml:space="preserve"><![CDATA[
	
		.st1 {fill:#eed9b3;stroke:none;stroke-linecap:round;stroke-linejoin:round;stroke-width:0.2px}
		.st2 {fill:#000000;font-family:Arial,Helvetica,sans-serif;font-size:0.666664em}
		.st3 {fill:#ffffff;visibility:hidden}
		.st4 {stroke:#000000;stroke-linecap:butt;stroke-width:0.8px}
		.st5 {stroke:#000000;stroke-dasharray:0.25,1;stroke-linecap:butt;stroke-width:0.25px}
		.st6 {fill:none}
		.st7 {stroke:#000000;stroke-linecap:butt;stroke-width:0.799997px}
		.st8 {stroke:#000000;stroke-linecap:butt;stroke-width:0.5px}
		.st9 {fill:none;stroke:none;stroke-linecap:round;stroke-linejoin:round;stroke-width:0.2px}
		.st10 {fill:none;stroke:none;stroke-linecap:butt;stroke-width:0.499999px}
		.st11 {fill:#000000;font-family:Arial,Helvetica,sans-serif;font-size:0.533318em}
		.st12 {font-size:1.25003em}
		.st13 {fill:none;fill-rule:evenodd;font-size:12px;overflow:visible;stroke-linecap:square;stroke-miterlimit:3}]]></style><g xmlns:v="http://schemas.microsoft.com/visio/2003/SVGExtensions/"><title content="structured text">ARM</title><g id="shape48-1" transform="translate(284.265,-85.5394)"><title content="structured text">Graphic.48</title><rect x="0" y="108.579" width="11.3386" height="28.2335" class="st1"/></g><g id="shape47-3" transform="translate(306.942,-85.5394)"><title content="structured text">Graphic.6</title><rect x="0" y="108.579" width="45.3543" height="28.2335" class="st1"/></g><g id="shape46-5" transform="translate(12.1386,-85.5394)"><title content="structured text">Graphic.260</title><rect x="0" y="108.579" width="181.417" height="28.2335" class="st1"/></g><g id="shape1-7" transform="translate(12.1386,-113.886)"><title content="structured text">Bit31</title><desc content="structured text">31</desc><text x="1.22" y="133.54" class="st2">31</text></g><g id="shape2-9" transform="translate(12.1386,-85.5394)"><title content="structured text">MainOutline+Bit00</title><desc content="structured text">0</desc><rect x="0" y="108.467" width="362.835" height="28.3465" class="st3"/><rect x="0" y="108.467" width="362.835" height="28.3465" class="st4"/><text x="354.94" y="105.2" class="st2">0</text></g><g id="shape3-13" transform="translate(466.432,11.5886) rotate(90)"><title content="structured text">Signal 0.48</title><path d="M0 136.81 L11.34 136.81" class="st5"/></g><g id="shape4-16" transform="translate(421.078,11.5886) rotate(90)"><title content="structured text">Signal 0.49</title><path d="M0 136.81 L11.34 136.81" class="st5"/></g><g id="shape5-19" transform="translate(375.723,11.5886) rotate(90)"><title content="structured text">Signal 0.50</title><path d="M0 136.81 L11.34 136.81" class="st5"/></g><g id="shape6-22" transform="translate(330.369,11.5886) rotate(90)"><title content="structured text">Signal 0.51</title><path d="M0 136.81 L11.34 136.81" class="st5"/></g><g id="shape7-25" transform="translate(285.015,11.5886) rotate(90)"><title content="structured text">Signal 0.52</title><path d="M0 136.81 L11.34 136.81" class="st5"/></g><g id="shape8-28" transform="translate(239.66,11.5886) rotate(90)"><title content="structured text">Signal 0.53</title><path d="M0 136.81 L11.34 136.81" class="st5"/></g><g id="shape9-31" transform="translate(194.306,11.5886) rotate(90)"><title content="structured text">Signal 0.54</title><path d="M0 136.81 L11.34 136.81" class="st5"/></g><g id="shape10-34" transform="translate(148.952,11.5886) rotate(90)"><title content="structured text">Signal 0.55</title><path d="M0 136.81 L11.34 136.81" class="st5"/></g><g id="shape11-37" transform="translate(511.786,11.5886) rotate(90)"><title content="structured text">Signal 0.56</title><path d="M0 136.81 L11.34 136.81" class="st5"/></g><g id="shape12-40" transform="translate(12.1386,-85.5394)"><title content="structured text">Sheet.12</title><path d="M0 136.81 L0 108.47" class="st4"/><path d="M362.83 136.81 L362.83 108.47" class="st4"/></g><g id="shape14-44" transform="translate(352.296,-113.886)"><title content="structured text">Bit31.14</title><desc content="structured text">1</desc><text x="3.44" y="133.54" class="st2">1</text></g><g id="shape15-46" transform="translate(340.957,-113.886)"><title content="structured text">Bit31.15</title><desc content="structured text">2</desc><text x="3.44" y="133.54" class="st2">2</text></g><g id="shape16-48" transform="translate(306.942,-113.886)"><title content="structured text">Bit31.16</title><desc content="structured text">5</desc><text x="3.44" y="133.54" class="st2">5</text></g><g id="shape17-50" transform="translate(295.603,-113.886)"><title content="structured text">Bit31.17</title><desc content="structured text">6</desc><text x="3.44" y="133.54" class="st2">6</text></g><g id="shape18-52" transform="translate(284.265,-113.886)"><title content="structured text">Bit31.18</title><desc content="structured text">7</desc><text x="3.44" y="133.54" class="st2">7</text></g><g id="shape19-54" transform="translate(272.926,-113.886)"><title content="structured text">Bit31.19</title><desc content="structured text">8</desc><text x="3.44" y="133.54" class="st2">8</text></g><g id="shape20-56" transform="translate(250.249,-113.886)"><title content="structured text">Bit31.20</title><desc content="structured text">10</desc><text x="1.22" y="133.54" class="st2">10</text></g><g id="shape21-58" transform="translate(238.91,-113.886)"><title content="structured text">Bit31.21</title><desc content="structured text">11</desc><text x="1.22" y="133.54" class="st2">11</text></g><g id="shape22-60" transform="translate(216.233,-113.886)"><title content="structured text">Bit31.22</title><desc content="structured text">13</desc><text x="1.22" y="133.54" class="st2">13</text></g><g id="shape23-62" transform="translate(204.894,-113.886)"><title content="structured text">Bit31.23</title><desc content="structured text">14</desc><text x="1.22" y="133.54" class="st2">14</text></g><g id="shape24-64" transform="translate(193.556,-113.886)"><title content="structured text">Bit31.24</title><desc content="structured text">15</desc><text x="1.22" y="133.54" class="st2">15</text></g><g id="shape25-66" transform="translate(182.217,-113.886)"><title content="structured text">Bit31.25</title><desc content="structured text">16</desc><text x="1.22" y="133.54" class="st2">16</text></g><g id="shape26-68" transform="translate(363.635,-85.5394)"><title content="structured text">Graphic.37</title><path d="M0 108.46 L0 136.81 L0 108.46 Z" class="st6"/><path d="M0 108.46 L0 136.81" class="st7"/></g><g id="shape27-71" transform="translate(352.296,-85.5394)"><title content="structured text">Graphic.27</title><path d="M0 108.46 L0 136.81 L0 108.46 Z" class="st6"/><path d="M0 108.46 L0 136.81" class="st7"/></g><g id="shape28-74" transform="translate(295.603,-85.5359)"><title content="structured text">Graphic.28</title><path d="M0 108.46 L0 136.81 L0 108.46 Z" class="st6"/><path d="M0 108.46 L0 136.81" class="st7"/></g><g id="shape30-77" transform="translate(306.942,-85.5359)"><title content="structured text">Graphic.30</title><path d="M0 108.46 L0 136.81 L0 108.46 Z" class="st6"/><path d="M0 108.46 L0 136.81" class="st7"/></g><g id="shape31-80" transform="translate(284.265,-85.5394)"><title content="structured text">Graphic.31</title><path d="M0 108.46 L0 136.81 L0 108.46 Z" class="st6"/><path d="M0 108.46 L0 136.81" class="st7"/></g><g id="shape32-83" transform="translate(250.249,-85.5359)"><title content="structured text">Graphic.32</title><path d="M0 108.46 L0 136.81 L0 108.46 Z" class="st6"/><path d="M0 108.46 L0 136.81" class="st7"/></g><g id="shape34-86" transform="translate(216.233,-85.5394)"><title content="structured text">Graphic.34</title><path d="M0 108.46 L0 136.81 L0 108.46 Z" class="st6"/><path d="M0 108.46 L0 136.81" class="st7"/></g><g id="shape35-89" transform="translate(204.894,-85.5359)"><title content="structured text">Graphic.35</title><path d="M0 108.46 L0 136.81 L0 108.46 Z" class="st6"/><path d="M0 108.46 L0 136.81" class="st7"/></g><g id="shape36-92" transform="translate(193.556,-85.5394)"><title content="structured text">Graphic.36</title><path d="M0 108.46 L0 136.81 L0 108.46 Z" class="st6"/><path d="M0 108.46 L0 136.81" class="st7"/></g><g id="shape38-95" transform="translate(380.643,-77.0354) scale(-1,1)"><title content="structured text">Bit name 2</title><desc content="structured text">CBPR</desc><path d="M11.34 131.14 L11.34 136.81 L0 136.81" class="st8"/><text x="1" y="139.21" transform="scale(-1,1)" class="st2">CBPR</text></g><g id="shape37-99" transform="translate(380.643,-65.6968) scale(-1,1)"><title content="structured text">Bit name 2.37</title><desc content="structured text">EOImode</desc><path d="M22.68 119.81 L22.68 136.81 L0 136.81" class="st8"/><text x="1" y="139.21" transform="scale(-1,1)" class="st2">EOImode</text></g><g id="shape39-103" transform="translate(380.643,-54.3583) scale(-1,1)"><title content="structured text">Bit name 2.39</title><desc content="structured text">PMHE</desc><path d="M79.37 108.47 L79.37 136.81 L0 136.81" class="st8"/><text x="1" y="139.21" transform="scale(-1,1)" class="st2">PMHE</text></g><g id="shape40-107" transform="translate(251.194,-85.5394)"><title content="structured text">Rectangle No Fill No Fill.48</title><desc content="structured text">C</desc><rect x="0" y="109.411" width="32.126" height="27.4016" class="st9"/><text x="3.17" y="125.51" class="st2">PRIbits</text></g><g id="shape33-110" transform="translate(217.178,-85.5394)"><title content="structured text">Rectangle No Fill No Fill.33</title><desc content="structured text">C</desc><rect x="0" y="109.411" width="32.126" height="27.4016" class="st9"/><text x="5.84" y="125.51" class="st2">IDbits</text></g><g id="shape41-113" transform="translate(380.643,-43.0197) scale(-1,1)"><title content="structured text">Bit name 2.41</title><desc content="structured text">SEIS</desc><path d="M170.08 97.13 L170.08 136.81 L0 136.81" class="st8"/><text x="1" y="139.21" transform="scale(-1,1)" class="st2">SEIS</text></g><g id="shape42-117" transform="translate(380.643,-31.6811) scale(-1,1)"><title content="structured text">Bit name 2.42</title><desc content="structured text">A3V</desc><path d="M181.42 85.79 L181.42 136.81 L0 136.81" class="st8"/><text x="1" y="139.21" transform="scale(-1,1)" class="st2">A3V</text></g><g id="group43-121" transform="translate(14.9732,-11.8386)"><title content="structured text">Sheet.43</title><g id="shape44-122" transform="translate(11.3386,0)"><title content="structured text">Rectangle No Fill No Fill.116</title><desc content="structured text">res0</desc><rect x="0" y="125.474" width="22.6772" height="11.3386" class="st10"/><text x="3.07" y="133.54" class="st11">RES<tspan class="st12">0</tspan></text></g><g id="shape45-126"><title content="structured text">Graphic.117</title><rect x="0" y="125.474" width="11.3386" height="11.3386" class="st1"/></g></g></g></svg>