<?xml version="1.0" encoding="UTF-8" standalone="no"?><!-- Fixed up by svgfix.xsl 1.4  --><!-- Generated by Microsoft Visio 11.0, SVG Export, v1.0 ttbr1_el1_bit_assignments_prometheus.svg ARM -->
<!DOCTYPE svg
  PUBLIC "-//W3C//DTD SVG 1.0//EN" "http://www.w3.org/TR/2001/REC-SVG-20010904/DTD/svg10.dtd">
<svg xmlns:xlink="http://www.w3.org/1999/xlink" xmlns="http://www.w3.org/2000/svg" xmlns:ev="http://www.w3.org/2001/xml-events" width="637.094" height="102.38" viewBox="0 0 477.82 76.785" xml:space="preserve" color-interpolation-filters="sRGB" class="st9" preserveAspectRatio="xMidYMid meet" zoomAndPan="magnify" version="1.0" contentScriptType="text/ecmascript" contentStyleType="text/css"><style type="text/css" xml:space="preserve"><![CDATA[
	
		.st1 {fill:none;stroke:none;stroke-linecap:round;stroke-linejoin:round;stroke-width:0.2px}
		.st2 {fill:#000000;font-family:Arial,Helvetica,sans-serif;font-size:0.666664em}
		.st3 {font-size:1em}
		.st4 {stroke:#000000;stroke-linecap:butt;stroke-width:0.8px}
		.st5 {fill:#ffffff;visibility:hidden}
		.st6 {stroke:#000000;stroke-dasharray:0.25,1;stroke-linecap:butt;stroke-width:0.25px}
		.st7 {fill:#ffffff;stroke:none;stroke-linecap:butt;stroke-width:0.5px}
		.st8 {stroke:#000000;stroke-linecap:butt;stroke-width:0.5px}
		.st9 {fill:none;fill-rule:evenodd;font-size:12px;overflow:visible;stroke-linecap:square;stroke-miterlimit:3}]]></style><g xmlns:v="http://schemas.microsoft.com/visio/2003/SVGExtensions/"><title content="structured text">ARM</title><g id="shape1-1" transform="translate(125.524,-25.5118)"><title content="structured text">64-bit register.27</title><desc content="structured text">BADDR[47:x]</desc><rect x="0" y="48.439" width="340.157" height="28.3465" class="st1"/><text x="146.29" y="65.01" class="st2">BADDR<tspan class="st3">[</tspan><tspan class="st3">47</tspan><tspan class="st3">:</tspan><tspan class="st3">x</tspan><tspan class="st3">]</tspan></text></g><g id="shape2-9" transform="translate(125.524,-25.5118)"><title content="structured text">64-bit register.1</title><path d="M0 48.44 L0 76.79" class="st4"/></g><g id="shape3-12" transform="translate(12.1386,-25.5118)"><title content="structured text">64-bit register.7</title><desc content="structured text">ASID</desc><rect x="0" y="48.439" width="113.386" height="28.3465" class="st1"/><text x="47.36" y="65.01" class="st2">ASID</text></g><g id="shape4-15" transform="translate(125.524,-53.8583)"><title content="structured text">64-bit register.8</title><desc content="structured text">47</desc><text x="1.22" y="73.52" class="st2">47</text></g><g id="shape5-17" transform="translate(114.186,-53.8583)"><title content="structured text">64-bit register.10</title><desc content="structured text">48</desc><text x="1.22" y="73.52" class="st2">48</text></g><g id="shape6-19" transform="translate(12.1386,-25.5118)"><title content="structured text">Sheet.6</title><rect x="0" y="48.439" width="453.543" height="28.3465" class="st5"/><rect x="0" y="48.439" width="453.543" height="28.3465" class="st4"/></g><g id="shape7-22" transform="translate(542.467,11.5886) rotate(90)"><title content="structured text">Signal 0.109</title><path d="M0 76.79 L11.34 76.79" class="st6"/></g><g id="shape8-25" transform="translate(485.774,11.5886) rotate(90)"><title content="structured text">Signal 0.80</title><path d="M0 76.79 L11.34 76.79" class="st6"/></g><g id="shape9-28" transform="translate(429.081,11.5886) rotate(90)"><title content="structured text">Signal 0.81</title><path d="M0 76.79 L11.34 76.79" class="st6"/></g><g id="shape10-31" transform="translate(372.389,11.5886) rotate(90)"><title content="structured text">Signal 0.82</title><path d="M0 76.79 L11.34 76.79" class="st6"/></g><g id="shape11-34" transform="translate(315.696,11.5886) rotate(90)"><title content="structured text">Signal 0.83</title><path d="M0 76.79 L11.34 76.79" class="st6"/></g><g id="shape12-37" transform="translate(259.003,11.5886) rotate(90)"><title content="structured text">Signal 0.84</title><path d="M0 76.79 L11.34 76.79" class="st6"/></g><g id="shape13-40" transform="translate(202.31,11.5886) rotate(90)"><title content="structured text">Signal 0.85</title><path d="M0 76.79 L11.34 76.79" class="st6"/></g><g id="shape14-43" transform="translate(145.617,11.5886) rotate(90)"><title content="structured text">Signal 0.86</title><path d="M0 76.79 L11.34 76.79" class="st6"/></g><g id="shape15-46" transform="translate(88.924,11.5886) rotate(90)"><title content="structured text">Signal 0.87</title><path d="M0 76.79 L11.34 76.79" class="st6"/></g><g id="shape16-49" transform="translate(454.343,-53.8583)"><title content="structured text">Bit01.2</title><desc content="structured text">0</desc><text x="3.44" y="73.52" class="st2">0</text></g><g id="shape17-51" transform="translate(12.1386,-53.8583)"><title content="structured text">Bit01.88</title><desc content="structured text">63</desc><text x="1.22" y="73.52" class="st2">63</text></g><g id="shape18-53" transform="translate(429.081,11.5886) rotate(90)"><title content="structured text">Signal 0.91</title><path d="M0 76.79 L11.34 76.79" class="st6"/></g><g id="group19-56" transform="translate(66.398,-22.6891)"><title content="structured text">Sheet.19</title><g id="group20-57" transform="translate(0,-28.3465)"><title content="structured text">Sheet.20</title><g id="shape21-58" transform="translate(0.566929,2.84217E-014)"><title content="structured text">Sheet.21</title><rect x="0" y="71.1161" width="1.88976" height="5.66929" class="st7"/></g><g id="shape22-60" transform="translate(78.1696,83.672) rotate(99.4623)"><title content="structured text">Sheet.22</title><path d="M0 76.37 C0.15 76.58 0.72 76.75 1.15 76.78 C1.58 76.81 1.86 76.71 2.34 76.47 C2.63 76.33 2.98 76.14          3.29 76.02 C4.56 75.52 5.03 76.07 5.75 76.37" class="st8"/></g><g id="shape23-63" transform="translate(76.2799,83.672) rotate(99.4623)"><title content="structured text">Sheet.23</title><path d="M0 76.37 C0.15 76.58 0.72 76.75 1.15 76.78 C1.58 76.81 1.86 76.71 2.34 76.47 C2.63 76.33 2.98 76.14          3.29 76.02 C4.56 75.52 5.03 76.07 5.75 76.37" class="st8"/></g></g><g id="group24-66"><title content="structured text">Sheet.24</title><g id="shape25-67" transform="translate(0.566929,2.84217E-014)"><title content="structured text">Sheet.25</title><rect x="0" y="71.1161" width="1.88976" height="5.66929" class="st7"/></g><g id="shape26-69" transform="translate(78.1696,83.672) rotate(99.4623)"><title content="structured text">Sheet.26</title><path d="M0 76.37 C0.15 76.58 0.72 76.75 1.15 76.78 C1.58 76.81 1.86 76.71 2.34 76.47 C2.63 76.33 2.98 76.14          3.29 76.02 C4.56 75.52 5.03 76.07 5.75 76.37" class="st8"/></g><g id="shape27-72" transform="translate(76.2799,83.672) rotate(99.4623)"><title content="structured text">Sheet.27</title><path d="M0 76.37 C0.15 76.58 0.72 76.75 1.15 76.78 C1.58 76.81 1.86 76.71 2.34 76.47 C2.63 76.33 2.98 76.14          3.29 76.02 C4.56 75.52 5.03 76.07 5.75 76.37" class="st8"/></g></g></g><g id="group28-75" transform="translate(293.17,-22.6891)"><title content="structured text">Sheet.28</title><g id="group29-76" transform="translate(0,-28.3465)"><title content="structured text">Sheet.29</title><g id="shape30-77" transform="translate(0.566929,2.84217E-014)"><title content="structured text">Sheet.30</title><rect x="0" y="71.1161" width="1.88976" height="5.66929" class="st7"/></g><g id="shape31-79" transform="translate(78.1696,83.672) rotate(99.4623)"><title content="structured text">Sheet.31</title><path d="M0 76.37 C0.15 76.58 0.72 76.75 1.15 76.78 C1.58 76.81 1.86 76.71 2.34 76.47 C2.63 76.33 2.98 76.14          3.29 76.02 C4.56 75.52 5.03 76.07 5.75 76.37" class="st8"/></g><g id="shape32-82" transform="translate(76.2799,83.672) rotate(99.4623)"><title content="structured text">Sheet.32</title><path d="M0 76.37 C0.15 76.58 0.72 76.75 1.15 76.78 C1.58 76.81 1.86 76.71 2.34 76.47 C2.63 76.33 2.98 76.14          3.29 76.02 C4.56 75.52 5.03 76.07 5.75 76.37" class="st8"/></g></g><g id="group33-85"><title content="structured text">Sheet.33</title><g id="shape34-86" transform="translate(0.566929,2.84217E-014)"><title content="structured text">Sheet.34</title><rect x="0" y="71.1161" width="1.88976" height="5.66929" class="st7"/></g><g id="shape35-88" transform="translate(78.1696,83.672) rotate(99.4623)"><title content="structured text">Sheet.35</title><path d="M0 76.37 C0.15 76.58 0.72 76.75 1.15 76.78 C1.58 76.81 1.86 76.71 2.34 76.47 C2.63 76.33 2.98 76.14          3.29 76.02 C4.56 75.52 5.03 76.07 5.75 76.37" class="st8"/></g><g id="shape36-91" transform="translate(76.2799,83.672) rotate(99.4623)"><title content="structured text">Sheet.36</title><path d="M0 76.37 C0.15 76.58 0.72 76.75 1.15 76.78 C1.58 76.81 1.86 76.71 2.34 76.47 C2.63 76.33 2.98 76.14          3.29 76.02 C4.56 75.52 5.03 76.07 5.75 76.37" class="st8"/></g></g></g><g id="shape37-94" transform="translate(454.343,-25.5118)"><title content="structured text">64-bit register.77</title><path d="M0 48.44 L0 76.79" class="st4"/></g><g id="shape38-97" transform="translate(443.005,-53.8583)"><title content="structured text">Bit01.78</title><desc content="structured text">1</desc><text x="3.44" y="73.52" class="st2">1</text></g><g id="shape39-99" transform="translate(448.674,-17.0079)"><title content="structured text">Bit name 1</title><desc content="structured text">CnP</desc><path d="M11.34 71.12 L11.34 76.79 L0 76.79" class="st8"/><text x="-16.56" y="79.19" class="st2">CnP</text></g></g></svg>