<?xml version="1.0" encoding="UTF-8" standalone="no"?><!-- Fixed up by svgfix.xsl 1.4  --><!-- Generated by Microsoft Visio 11.0, SVG Export, v1.0 id_isar2_bit_assignments.svg Page-1 -->
<!DOCTYPE svg
  PUBLIC "-//W3C//DTD SVG 1.0//EN" "http://www.w3.org/TR/2001/REC-SVG-20010904/DTD/svg10.dtd">
<svg xmlns:xlink="http://www.w3.org/1999/xlink" xmlns="http://www.w3.org/2000/svg" width="485.913" height="72.167" viewBox="0 0 364.435 54.125" xml:space="preserve" color-interpolation-filters="sRGB" class="st8" preserveAspectRatio="xMidYMid meet" zoomAndPan="magnify" version="1.0" contentScriptType="text/ecmascript" contentStyleType="text/css"><style type="text/css" xml:space="preserve"><![CDATA[
	
		.st1 {stroke:#000000;stroke-linecap:butt;stroke-width:0.5px}
		.st2 {fill:#000000;font-family:Arial,Helvetica,sans-serif;font-size:0.666664em}
		.st3 {fill:#ffffff;visibility:hidden}
		.st4 {stroke:#000000;stroke-linecap:butt;stroke-width:0.8px}
		.st5 {stroke:#000000;stroke-dasharray:0.25,0.5;stroke-linecap:butt;stroke-width:0.25px}
		.st6 {fill:none;stroke:none;stroke-linecap:round;stroke-linejoin:round;stroke-width:0.2px}
		.st7 {font-size:1em}
		.st8 {fill:none;fill-rule:evenodd;font-size:12px;overflow:visible;stroke-linecap:square;stroke-miterlimit:3}]]></style><g xmlns:v="http://schemas.microsoft.com/visio/2003/SVGExtensions/"><title content="structured text">Page-1</title><g id="shape3-1" transform="translate(238.91,-5.68626)"><title content="structured text">Sheet.3</title><path d="M11.34 48.46 L11.34 54.13 L0 54.13" class="st1"/></g><g id="shape10-4" transform="translate(0.8,-42.5367)"><title content="structured text">Sheet.10</title><desc content="structured text">31</desc><text x="1.22" y="50.86" class="st2">31</text></g><g id="shape11-6" transform="translate(34.8157,-42.5367)"><title content="structured text">Sheet.11</title><desc content="structured text">28</desc><text x="1.22" y="50.86" class="st2">28</text></g><g id="shape12-8" transform="translate(46.1543,-42.5367)"><title content="structured text">Sheet.12</title><desc content="structured text">27</desc><text x="1.22" y="50.86" class="st2">27</text></g><g id="shape13-10" transform="translate(80.1701,-42.5367)"><title content="structured text">Sheet.13</title><desc content="structured text">24</desc><text x="1.22" y="50.86" class="st2">24</text></g><g id="shape14-12" transform="translate(91.5087,-42.5367)"><title content="structured text">Sheet.14</title><desc content="structured text">23</desc><text x="1.22" y="50.86" class="st2">23</text></g><g id="shape15-14" transform="translate(125.524,-42.5367)"><title content="structured text">Sheet.15</title><desc content="structured text">20</desc><text x="1.22" y="50.86" class="st2">20</text></g><g id="shape16-16" transform="translate(136.863,-42.5367)"><title content="structured text">Sheet.16</title><desc content="structured text">19</desc><text x="1.22" y="50.86" class="st2">19</text></g><g id="shape17-18" transform="translate(170.879,-42.5367)"><title content="structured text">Sheet.17</title><desc content="structured text">16</desc><text x="1.22" y="50.86" class="st2">16</text></g><g id="shape18-20" transform="translate(182.217,-42.5367)"><title content="structured text">Sheet.18</title><desc content="structured text">15</desc><text x="1.22" y="50.86" class="st2">15</text></g><g id="shape19-22" transform="translate(216.233,-42.5367)"><title content="structured text">Sheet.19</title><desc content="structured text">12</desc><text x="1.22" y="50.86" class="st2">12</text></g><g id="shape20-24" transform="translate(227.572,-42.5367)"><title content="structured text">Sheet.20</title><desc content="structured text">11</desc><text x="1.22" y="50.86" class="st2">11</text></g><g id="shape21-26" transform="translate(261.587,-42.5367)"><title content="structured text">Sheet.21</title><desc content="structured text">8</desc><text x="3.44" y="50.86" class="st2">8</text></g><g id="shape22-28" transform="translate(272.926,-42.5367)"><title content="structured text">Sheet.22</title><desc content="structured text">7</desc><text x="3.44" y="50.86" class="st2">7</text></g><g id="shape23-30" transform="translate(306.942,-42.5367)"><title content="structured text">Sheet.23</title><desc content="structured text">4</desc><text x="3.44" y="50.86" class="st2">4</text></g><g id="shape24-32" transform="translate(318.28,-42.5367)"><title content="structured text">Sheet.24</title><desc content="structured text">3</desc><text x="3.44" y="50.86" class="st2">3</text></g><g id="shape25-34" transform="translate(352.296,-42.5367)"><title content="structured text">Sheet.25</title><desc content="structured text">0</desc><text x="3.44" y="50.86" class="st2">0</text></g><g id="shape26-36" transform="translate(0.8,-14.1902)"><title content="structured text">Sheet.26</title><rect x="0" y="25.7788" width="362.835" height="28.3465" class="st3"/><rect x="0" y="25.7788" width="362.835" height="28.3465" class="st4"/></g><g id="shape27-39" transform="translate(46.1543,-14.1902)"><title content="structured text">Sheet.27</title><path d="M0 25.78 L0 54.13" class="st4"/></g><g id="shape28-42" transform="translate(91.5087,-14.1902)"><title content="structured text">Sheet.28</title><path d="M0 25.78 L0 54.13" class="st4"/></g><g id="shape29-45" transform="translate(136.863,-14.1902)"><title content="structured text">Sheet.29</title><path d="M0 25.78 L0 54.13" class="st4"/></g><g id="shape30-48" transform="translate(182.217,-14.1902)"><title content="structured text">Sheet.30</title><path d="M0 25.78 L0 54.13" class="st4"/></g><g id="shape31-51" transform="translate(227.572,-14.1902)"><title content="structured text">Sheet.31</title><path d="M0 25.78 L0 54.13" class="st4"/></g><g id="shape32-54" transform="translate(272.926,-14.1902)"><title content="structured text">Sheet.32</title><path d="M0 25.78 L0 54.13" class="st4"/></g><g id="shape33-57" transform="translate(318.28,-14.1902)"><title content="structured text">Sheet.33</title><path d="M0 25.78 L0 54.13" class="st4"/></g><g id="shape34-60" transform="translate(372.406,0.25) rotate(90)"><title content="structured text">Signal 0</title><path d="M0 54.13 L11.34 54.13" class="st5"/></g><g id="shape35-63" transform="translate(327.051,0.25) rotate(90)"><title content="structured text">Signal 0.102</title><path d="M0 54.13 L11.34 54.13" class="st5"/></g><g id="shape36-66" transform="translate(281.697,0.25) rotate(90)"><title content="structured text">Signal 0.103</title><path d="M0 54.13 L11.34 54.13" class="st5"/></g><g id="shape37-69" transform="translate(236.343,0.25) rotate(90)"><title content="structured text">Signal 0.104</title><path d="M0 54.13 L11.34 54.13" class="st5"/></g><g id="shape38-72" transform="translate(190.988,0.25) rotate(90)"><title content="structured text">Signal 0.105</title><path d="M0 54.13 L11.34 54.13" class="st5"/></g><g id="shape39-75" transform="translate(145.634,0.25) rotate(90)"><title content="structured text">Signal 0.106</title><path d="M0 54.13 L11.34 54.13" class="st5"/></g><g id="shape40-78" transform="translate(100.28,0.25) rotate(90)"><title content="structured text">Signal 0.107</title><path d="M0 54.13 L11.34 54.13" class="st5"/></g><g id="shape41-81" transform="translate(54.9252,0.25) rotate(90)"><title content="structured text">Signal 0.108</title><path d="M0 54.13 L11.34 54.13" class="st5"/></g><g id="shape42-84" transform="translate(417.76,0.25) rotate(90)"><title content="structured text">Signal 0.109</title><path d="M0 54.13 L11.34 54.13" class="st5"/></g><g id="shape44-87" transform="translate(179.383,-0.0169691)"><title content="structured text">Sheet.44</title><desc content="structured text">MultiAccessInt</desc><rect x="0" y="42.7867" width="56.6929" height="11.3386" class="st6"/><text x="5.12" y="50.86" class="st2">MultiAccessInt</text></g><g id="shape48-90" transform="translate(0.8,-14.1902)"><title content="structured text">Sheet.48</title><desc content="structured text">Reversal</desc><rect x="0" y="25.7788" width="45.3543" height="28.3465" class="st6"/><text x="6.89" y="42.35" class="st2">Reversal</text></g><g id="shape51-93" transform="translate(46.1543,-14.1902)"><title content="structured text">Sheet.51</title><desc content="structured text">PSR_AR</desc><rect x="0" y="25.7788" width="45.3543" height="28.3465" class="st6"/><text x="6.67" y="42.35" class="st2">PSR<tspan class="st7">_</tspan><tspan class="st7">AR</tspan></text></g><g id="shape52-98" transform="translate(91.5087,-14.1902)"><title content="structured text">Sheet.52</title><desc content="structured text">MultU</desc><rect x="0" y="25.7788" width="45.3543" height="28.3465" class="st6"/><text x="12.23" y="42.35" class="st2">MultU</text></g><g id="shape53-101" transform="translate(136.863,-14.1902)"><title content="structured text">Sheet.53</title><desc content="structured text">MultS</desc><rect x="0" y="25.7788" width="45.3543" height="28.3465" class="st6"/><text x="12.45" y="42.35" class="st2">MultS</text></g><g id="shape54-104" transform="translate(182.217,-14.1902)"><title content="structured text">Sheet.54</title><desc content="structured text">Mult</desc><rect x="0" y="25.7788" width="45.3543" height="28.3465" class="st6"/><text x="15.12" y="42.35" class="st2">Mult</text></g><g id="shape56-107" transform="translate(272.926,-14.1902)"><title content="structured text">Sheet.56</title><desc content="structured text">MemHint</desc><rect x="0" y="25.7788" width="45.3543" height="28.3465" class="st6"/><text x="6.68" y="42.35" class="st2">MemHint</text></g><g id="shape57-110" transform="translate(318.28,-14.1902)"><title content="structured text">Sheet.57</title><desc content="structured text">LoadStore</desc><rect x="0" y="25.7788" width="45.3543" height="28.3465" class="st6"/><text x="4.22" y="42.35" class="st2">LoadStore</text></g></g></svg>