<?xml version="1.0" encoding="UTF-8" standalone="no"?><!-- Fixed up by svgfix.xsl 1.4  --><!-- Generated by Microsoft Visio 11.0, SVG Export, v1.0 trceventctl1r_bit_assignments.svg ARM -->
<!DOCTYPE svg
  PUBLIC "-//W3C//DTD SVG 1.0//EN" "http://www.w3.org/TR/2001/REC-SVG-20010904/DTD/svg10.dtd">
<svg xmlns:xlink="http://www.w3.org/1999/xlink" xmlns="http://www.w3.org/2000/svg" xmlns:ev="http://www.w3.org/2001/xml-events" width="516.149" height="125.724" viewBox="0 0 387.112 94.293" xml:space="preserve" color-interpolation-filters="sRGB" class="st12" preserveAspectRatio="xMidYMid meet" zoomAndPan="magnify" version="1.0" contentScriptType="text/ecmascript" contentStyleType="text/css"><style type="text/css" xml:space="preserve"><![CDATA[
	
		.st1 {fill:#eed9b3;stroke:#000000;stroke-linecap:butt;stroke-width:0.5px}
		.st2 {stroke:#000000;stroke-linecap:butt;stroke-width:0.8px}
		.st3 {stroke:#000000;stroke-dasharray:0.25,0.5;stroke-linecap:butt;stroke-width:0.25px}
		.st4 {fill:#000000;font-family:Arial,Helvetica,sans-serif;font-size:0.666664em}
		.st5 {fill:none;stroke:none;stroke-linecap:round;stroke-linejoin:round;stroke-width:0.2px}
		.st6 {stroke:#000000;stroke-linecap:butt;stroke-width:0.5px}
		.st7 {fill:none;stroke:none;stroke-linecap:butt;stroke-width:0.5px}
		.st8 {fill:none;stroke:none;stroke-linecap:butt;stroke-width:0.499999px}
		.st9 {fill:#000000;font-family:Arial,Helvetica,sans-serif;font-size:0.533318em}
		.st10 {font-size:1.25003em}
		.st11 {fill:#eed9b3;stroke:none;stroke-linecap:round;stroke-linejoin:round;stroke-width:0.2px}
		.st12 {fill:none;fill-rule:evenodd;font-size:12px;overflow:visible;stroke-linecap:square;stroke-miterlimit:3}]]></style><g xmlns:v="http://schemas.microsoft.com/visio/2003/SVGExtensions/"><title content="structured text">ARM</title><g id="shape26-1" transform="translate(250.299,-43.0866)"><title content="structured text">Sheet.26</title><rect x="0" y="65.9469" width="79.3701" height="28.3465" class="st1"/></g><g id="shape15-3" transform="translate(12.189,-43.0866)"><title content="structured text">Sheet.15</title><rect x="0" y="65.9469" width="215.433" height="28.3465" class="st1"/></g><g id="shape1-5" transform="translate(374.973,-43.0197) scale(-1,1)"><title content="structured text">64-bit register.156</title><path d="M0 65.95 L362.83 65.95 L362.83 94.29 L0 94.29" class="st2"/></g><g id="shape2-8" transform="translate(106.432,11.5886) rotate(90)"><title content="structured text">64-bit register.169</title><path d="M0 94.29 L11.34 94.29" class="st3"/></g><g id="shape3-11" transform="translate(374.973,-43.0197)"><title content="structured text">64-bit register.157</title><path d="M0 65.95 L0 94.29" class="st2"/></g><g id="shape4-14" transform="translate(329.619,-43.0197)"><title content="structured text">64-bit register.7</title><path d="M0 65.95 L0 94.29" class="st2"/></g><g id="shape5-17" transform="translate(238.91,-43.0197)"><title content="structured text">64-bit register.39</title><path d="M0 65.95 L0 94.29" class="st2"/></g><g id="shape6-20" transform="translate(151.786,11.5886) rotate(90)"><title content="structured text">64-bit register.11</title><path d="M0 94.29 L11.34 94.29" class="st3"/></g><g id="shape7-23" transform="translate(197.141,11.5886) rotate(90)"><title content="structured text">64-bit register.12</title><path d="M0 94.29 L11.34 94.29" class="st3"/></g><g id="shape8-26" transform="translate(242.495,11.5886) rotate(90)"><title content="structured text">64-bit register.13</title><path d="M0 94.29 L11.34 94.29" class="st3"/></g><g id="shape9-29" transform="translate(287.849,11.5886) rotate(90)"><title content="structured text">64-bit register.14</title><path d="M0 94.29 L11.34 94.29" class="st3"/></g><g id="shape10-32" transform="translate(333.204,11.5886) rotate(90)"><title content="structured text">64-bit register.15</title><path d="M0 94.29 L11.34 94.29" class="st3"/></g><g id="shape11-35" transform="translate(423.912,11.5886) rotate(90)"><title content="structured text">64-bit register.16</title><path d="M0 94.29 L11.34 94.29" class="st3"/></g><g id="shape12-38" transform="translate(469.267,11.5886) rotate(90)"><title content="structured text">64-bit register.17</title><path d="M0 94.29 L11.34 94.29" class="st3"/></g><g id="shape13-41" transform="translate(12.1386,-71.3661)"><title content="structured text">64-bit register.179</title><desc content="structured text">31</desc><text x="1.22" y="91.02" class="st4">31</text></g><g id="shape14-43" transform="translate(363.635,-71.3661)"><title content="structured text">64-bit register.19</title><desc content="structured text">0</desc><text x="3.44" y="91.02" class="st4">0</text></g><g id="shape16-45" transform="translate(378.558,11.5886) rotate(90)"><title content="structured text">64-bit register.21</title><path d="M0 94.29 L11.34 94.29" class="st3"/></g><g id="shape17-48" transform="translate(318.28,-71.3661)"><title content="structured text">64-bit register.26</title><desc content="structured text">4</desc><text x="3.44" y="91.02" class="st4">4</text></g><g id="shape18-50" transform="translate(329.619,-71.3661)"><title content="structured text">64-bit register.27</title><desc content="structured text">3</desc><text x="3.44" y="91.02" class="st4">3</text></g><g id="shape19-52" transform="translate(306.942,-71.3661)"><title content="structured text">64-bit register.29</title><desc content="structured text">5</desc><text x="3.44" y="91.02" class="st4">5</text></g><g id="shape20-54" transform="translate(272.926,-71.3661)"><title content="structured text">64-bit register.30</title><desc content="structured text">8</desc><text x="3.44" y="91.02" class="st4">8</text></g><g id="shape21-56" transform="translate(284.265,-71.3661)"><title content="structured text">64-bit register.31</title><desc content="structured text">7</desc><text x="3.44" y="91.02" class="st4">7</text></g><g id="shape22-58" transform="translate(329.619,-43.0197)"><title content="structured text">64-bit register.34</title><desc content="structured text">EN</desc><rect x="0" y="65.9469" width="45.3543" height="28.3465" class="st5"/><text x="17.12" y="82.52" class="st4">EN</text></g><g id="shape23-61" transform="translate(227.572,-71.3661)"><title content="structured text">64-bit register.6</title><desc content="structured text">12</desc><text x="1.22" y="91.02" class="st4">12</text></g><g id="shape24-63" transform="translate(238.91,-71.3661)"><title content="structured text">64-bit register.24</title><desc content="structured text">11</desc><text x="1.22" y="91.02" class="st4">11</text></g><g id="shape25-65" transform="translate(250.249,-71.3661)"><title content="structured text">64-bit register.25</title><desc content="structured text">10</desc><text x="1.22" y="91.02" class="st4">10</text></g><g id="shape27-67" transform="translate(244.58,-28.8465)"><title content="structured text">Sheet.27</title><path d="M0 82.95 L0 94.29 L5.67 94.29" class="st6"/></g><g id="shape28-70" transform="translate(250.249,-43.0197)"><title content="structured text">64-bit register.38</title><path d="M0 65.95 L0 94.29" class="st2"/></g><g id="shape29-73" transform="translate(275.761,-23.1772) scale(-1,1)"><title content="structured text">Sheet.29</title><desc content="structured text">ATB</desc><rect x="0" y="82.9547" width="22.6772" height="11.3386" class="st7"/><text x="-22.68" y="91.02" transform="scale(-1,1)" class="st4">ATB</text></g><g id="shape30-76" transform="translate(216.233,-71.3661)"><title content="structured text">64-bit register.41</title><desc content="structured text">13</desc><text x="1.22" y="91.02" class="st4">13</text></g><g id="shape31-78" transform="translate(238.91,-43.0197)"><title content="structured text">64-bit register.42</title><path d="M0 65.95 L0 94.29" class="st2"/></g><g id="shape32-81" transform="translate(233.241,-17.5079)"><title content="structured text">Sheet.32</title><path d="M0 71.62 L0 94.29 L17.01 94.29" class="st6"/></g><g id="shape33-84" transform="translate(306.942,-11.8386) scale(-1,1)"><title content="structured text">Sheet.33</title><desc content="structured text">LPOVERRIDE</desc><rect x="0" y="82.9547" width="53.8583" height="11.3386" class="st7"/><text x="-53.86" y="91.02" transform="scale(-1,1)" class="st4">LPOVERRIDE</text></g><g id="shape34-87" transform="translate(227.572,-43.0197)"><title content="structured text">64-bit register.43</title><path d="M0 65.95 L0 94.29" class="st2"/></g><g id="shape35-90" transform="translate(22.5786,-20.3425)"><title content="structured text">Rectangle No Fill No Fill.116</title><desc content="structured text">res0</desc><rect x="0" y="82.9547" width="19.8425" height="11.3386" class="st8"/><text x="1.24" y="91.02" class="st9">RES<tspan class="st10">0</tspan></text></g><g id="shape36-94" transform="translate(12.1386,-20.3425)"><title content="structured text">Graphic.117</title><rect x="0" y="82.9547" width="10.44" height="11.3386" class="st11"/></g></g></svg>