<?xml version="1.0" encoding="UTF-8" standalone="no"?><!-- Fixed up by svgfix.xsl 1.4  --><!-- Generated by Microsoft Visio 11.0, SVG Export, v1.0 lau1456830422672_low res.svg ARM -->
<!DOCTYPE svg
  PUBLIC "-//W3C//DTD SVG 1.0//EN" "http://www.w3.org/TR/2001/REC-SVG-20010904/DTD/svg10.dtd">
<svg xmlns:xlink="http://www.w3.org/1999/xlink" xmlns="http://www.w3.org/2000/svg" xmlns:ev="http://www.w3.org/2001/xml-events" width="552.877" height="201.315" viewBox="0 0 414.658 150.986" xml:space="preserve" color-interpolation-filters="sRGB" class="st10" preserveAspectRatio="xMidYMid meet" zoomAndPan="magnify" version="1.0" contentScriptType="text/ecmascript" contentStyleType="text/css"><style type="text/css" xml:space="preserve"><![CDATA[
	
		.st1 {fill:#eed9b3;stroke:none;stroke-linecap:round;stroke-linejoin:round;stroke-width:0.2px}
		.st2 {fill:none;stroke:none;stroke-linecap:round;stroke-linejoin:round;stroke-width:0.2px}
		.st3 {fill:#000000;font-family:Arial,Helvetica,sans-serif;font-size:0.666664em}
		.st4 {stroke:#000000;stroke-linecap:butt;stroke-width:0.8px}
		.st5 {stroke:#000000;stroke-dasharray:0.25,0.5;stroke-linecap:butt;stroke-width:0.25px}
		.st6 {stroke:#000000;stroke-linecap:butt;stroke-width:0.5px}
		.st7 {fill:none;stroke:none;stroke-linecap:butt;stroke-width:0.499999px}
		.st8 {fill:#000000;font-family:Arial,Helvetica,sans-serif;font-size:0.583328em}
		.st9 {font-size:1.14286em}
		.st10 {fill:none;fill-rule:evenodd;font-size:12px;overflow:visible;stroke-linecap:square;stroke-miterlimit:3}]]></style><g xmlns:v="http://schemas.microsoft.com/visio/2003/SVGExtensions/"><title content="structured text">ARM</title><g id="shape65-1" transform="translate(294.803,-99.7126)"><title content="structured text">Graphic.65</title><rect x="0" y="122.753" width="22.6772" height="28.2335" class="st1"/></g><g id="shape77-3" transform="translate(192.756,-99.7126)"><title content="structured text">Graphic.4</title><rect x="0" y="122.753" width="90.7087" height="28.2335" class="st1"/></g><g id="shape1-5" transform="translate(12.1386,-99.7126)"><title content="structured text">Sheet.1</title><desc content="structured text">N</desc><rect x="0" y="122.64" width="11.3386" height="28.3465" class="st2"/><text x="2.78" y="139.21" class="st3">N</text></g><g id="shape2-8" transform="translate(23.4772,-128.059)"><title content="structured text">Sheet.2</title><desc content="structured text">30</desc><text x="1.22" y="147.72" class="st3">30</text></g><g id="shape3-10" transform="translate(34.8157,-128.059)"><title content="structured text">Sheet.3</title><desc content="structured text">29</desc><text x="1.22" y="147.72" class="st3">29</text></g><g id="shape4-12" transform="translate(46.1543,-128.059)"><title content="structured text">Sheet.4</title><desc content="structured text">28</desc><text x="1.22" y="147.72" class="st3">28</text></g><g id="shape5-14" transform="translate(295.603,-128.059)"><title content="structured text">Sheet.5</title><desc content="structured text">6</desc><text x="3.44" y="147.72" class="st3">6</text></g><g id="shape6-16" transform="translate(306.942,-128.059)"><title content="structured text">Sheet.6</title><desc content="structured text">5</desc><text x="3.44" y="147.72" class="st3">5</text></g><g id="shape7-18" transform="translate(318.28,-128.059)"><title content="structured text">Sheet.7</title><desc content="structured text">4</desc><text x="3.44" y="147.72" class="st3">4</text></g><g id="shape8-20" transform="translate(329.619,-128.059)"><title content="structured text">Sheet.8</title><desc content="structured text">3</desc><text x="3.44" y="147.72" class="st3">3</text></g><g id="shape9-22" transform="translate(340.957,-128.059)"><title content="structured text">Sheet.9</title><desc content="structured text">2</desc><text x="3.44" y="147.72" class="st3">2</text></g><g id="shape10-24" transform="translate(352.296,-128.059)"><title content="structured text">Sheet.10</title><desc content="structured text">1</desc><text x="3.44" y="147.72" class="st3">1</text></g><g id="shape11-26" transform="translate(23.4772,-99.7126)"><title content="structured text">Sheet.11</title><desc content="structured text">Z</desc><rect x="0" y="122.64" width="11.3386" height="28.3465" class="st2"/><text x="3.23" y="139.21" class="st3">Z</text></g><g id="shape12-29" transform="translate(34.8157,-99.7126)"><title content="structured text">Sheet.12</title><desc content="structured text">C</desc><rect x="0" y="122.64" width="11.3386" height="28.3465" class="st2"/><text x="2.78" y="139.21" class="st3">C</text></g><g id="shape13-32" transform="translate(46.1543,-99.7126)"><title content="structured text">Sheet.13</title><desc content="structured text">V</desc><rect x="0" y="122.64" width="11.3386" height="28.3465" class="st2"/><text x="3" y="139.21" class="st3">V</text></g><g id="shape14-35" transform="translate(23.4772,-99.7126)"><title content="structured text">Sheet.14</title><path d="M0 122.64 L0 150.99" class="st4"/></g><g id="shape15-38" transform="translate(34.8157,-99.7126)"><title content="structured text">Sheet.15</title><path d="M0 122.64 L0 150.99" class="st4"/></g><g id="shape16-41" transform="translate(46.1543,-99.7126)"><title content="structured text">Sheet.16</title><path d="M0 122.64 L0 150.99" class="st4"/></g><g id="shape17-44" transform="translate(57.4929,-99.7126)"><title content="structured text">Sheet.17</title><path d="M0 122.64 L0 150.99" class="st4"/></g><g id="shape18-47" transform="translate(329.619,-99.7126)"><title content="structured text">Sheet.18</title><path d="M0 122.64 L0 150.99" class="st4"/></g><g id="shape19-50" transform="translate(340.957,-99.7126)"><title content="structured text">Sheet.19</title><path d="M0 122.64 L0 150.99" class="st4"/></g><g id="shape20-53" transform="translate(352.296,-99.7126)"><title content="structured text">Sheet.20</title><path d="M0 122.64 L0 150.99" class="st4"/></g><g id="shape21-56" transform="translate(363.635,-99.7126)"><title content="structured text">Sheet.21</title><path d="M0 122.64 L0 150.99" class="st4"/></g><g id="shape22-59" transform="translate(480.605,11.5886) rotate(90)"><title content="structured text">Signal 0</title><path d="M0 150.99 L11.34 150.99" class="st5"/></g><g id="shape23-62" transform="translate(374.973,-99.7126) scale(-1,1)"><title content="structured text">64-bit register.156</title><path d="M0 122.64 L362.83 122.64 L362.83 150.99 L0 150.99" class="st4"/></g><g id="shape24-65" transform="translate(163.125,11.5886) rotate(90)"><title content="structured text">64-bit register.169</title><path d="M0 150.99 L11.34 150.99" class="st5"/></g><g id="shape25-68" transform="translate(374.973,-99.7126)"><title content="structured text">64-bit register.157</title><path d="M0 122.64 L0 150.99" class="st4"/></g><g id="shape26-71" transform="translate(159.54,-99.7126)"><title content="structured text">64-bit register.39</title><path d="M0 122.64 L0 150.99" class="st4"/></g><g id="shape27-74" transform="translate(284.265,-99.7126)"><title content="structured text">64-bit register.42</title><path d="M0 122.64 L0 150.99" class="st4"/></g><g id="shape28-77" transform="translate(208.479,11.5886) rotate(90)"><title content="structured text">64-bit register.11</title><path d="M0 150.99 L11.34 150.99" class="st5"/></g><g id="shape29-80" transform="translate(253.833,11.5886) rotate(90)"><title content="structured text">64-bit register.12</title><path d="M0 150.99 L11.34 150.99" class="st5"/></g><g id="shape30-83" transform="translate(299.188,11.5886) rotate(90)"><title content="structured text">64-bit register.13</title><path d="M0 150.99 L11.34 150.99" class="st5"/></g><g id="shape31-86" transform="translate(344.542,11.5886) rotate(90)"><title content="structured text">64-bit register.14</title><path d="M0 150.99 L11.34 150.99" class="st5"/></g><g id="shape32-89" transform="translate(389.896,11.5886) rotate(90)"><title content="structured text">64-bit register.15</title><path d="M0 150.99 L11.34 150.99" class="st5"/></g><g id="shape33-92" transform="translate(480.605,11.5886) rotate(90)"><title content="structured text">64-bit register.16</title><path d="M0 150.99 L11.34 150.99" class="st5"/></g><g id="shape34-95" transform="translate(525.959,11.5886) rotate(90)"><title content="structured text">64-bit register.17</title><path d="M0 150.99 L11.34 150.99" class="st5"/></g><g id="shape35-98" transform="translate(12.1386,-128.059)"><title content="structured text">64-bit register.179</title><desc content="structured text">31</desc><text x="1.22" y="147.72" class="st3">31</text></g><g id="shape36-100" transform="translate(363.635,-128.059)"><title content="structured text">64-bit register.19</title><desc content="structured text">0</desc><text x="3.44" y="147.72" class="st3">0</text></g><g id="shape37-102" transform="translate(435.251,11.5886) rotate(90)"><title content="structured text">64-bit register.21</title><path d="M0 150.99 L11.34 150.99" class="st5"/></g><g id="shape38-105" transform="translate(272.926,-128.059)"><title content="structured text">64-bit register.26</title><desc content="structured text">8</desc><text x="3.44" y="147.72" class="st3">8</text></g><g id="shape39-107" transform="translate(284.265,-128.059)"><title content="structured text">64-bit register.27</title><desc content="structured text">7</desc><text x="3.44" y="147.72" class="st3">7</text></g><g id="shape40-109" transform="translate(182.217,-128.059)"><title content="structured text">64-bit register.28</title><desc content="structured text">16</desc><text x="1.22" y="147.72" class="st3">16</text></g><g id="shape41-111" transform="translate(193.556,-128.059)"><title content="structured text">64-bit register.29</title><desc content="structured text">15</desc><text x="1.22" y="147.72" class="st3">15</text></g><g id="shape42-113" transform="translate(193.556,-99.7126)"><title content="structured text">64-bit register.55</title><path d="M0 122.64 L0 150.99" class="st4"/></g><g id="shape43-116" transform="translate(68.8315,-99.7126)"><title content="structured text">64-bit register.74</title><path d="M0 122.64 L0 150.99" class="st4"/></g><g id="shape44-119" transform="translate(80.1701,-99.7126)"><title content="structured text">64-bit register.75</title><path d="M0 122.64 L0 150.99" class="st4"/></g><g id="shape45-122" transform="translate(57.4929,-128.059)"><title content="structured text">64-bit register.76</title><desc content="structured text">27</desc><text x="1.22" y="147.72" class="st3">27</text></g><g id="shape46-124" transform="translate(68.8315,-128.059)"><title content="structured text">64-bit register.77</title><desc content="structured text">26</desc><text x="1.22" y="147.72" class="st3">26</text></g><g id="shape47-126" transform="translate(91.5087,-99.7126)"><title content="structured text">64-bit register.78</title><path d="M0 122.64 L0 150.99" class="st4"/></g><g id="shape48-129" transform="translate(102.847,-99.7126)"><title content="structured text">64-bit register.79</title><path d="M0 122.64 L0 150.99" class="st4"/></g><g id="shape49-132" transform="translate(80.1701,-128.059)"><title content="structured text">64-bit register.80</title><desc content="structured text">25</desc><text x="1.22" y="147.72" class="st3">25</text></g><g id="shape50-134" transform="translate(91.5087,-128.059)"><title content="structured text">64-bit register.81</title><desc content="structured text">24</desc><text x="1.22" y="147.72" class="st3">24</text></g><g id="shape51-136" transform="translate(125.524,-99.7126)"><title content="structured text">64-bit register.82</title><path d="M0 122.64 L0 150.99" class="st4"/></g><g id="shape52-139" transform="translate(148.202,-99.7126)"><title content="structured text">64-bit register.83</title><path d="M0 122.64 L0 150.99" class="st4"/></g><g id="shape53-142" transform="translate(102.847,-128.059)"><title content="structured text">64-bit register.84</title><desc content="structured text">23</desc><text x="1.22" y="147.72" class="st3">23</text></g><g id="shape54-144" transform="translate(114.186,-128.059)"><title content="structured text">64-bit register.85</title><desc content="structured text">22</desc><text x="1.22" y="147.72" class="st3">22</text></g><g id="shape55-146" transform="translate(125.524,-128.059)"><title content="structured text">64-bit register.86</title><desc content="structured text">21</desc><text x="1.22" y="147.72" class="st3">21</text></g><g id="shape56-148" transform="translate(136.863,-128.059)"><title content="structured text">64-bit register.87</title><desc content="structured text">20</desc><text x="1.22" y="147.72" class="st3">20</text></g><g id="shape57-150" transform="translate(148.202,-128.059)"><title content="structured text">Sheet.57</title><desc content="structured text">19</desc><text x="1.22" y="147.72" class="st3">19</text></g><g id="shape58-152" transform="translate(159.54,-128.059)"><title content="structured text">64-bit register.89</title><desc content="structured text">18</desc><text x="1.22" y="147.72" class="st3">18</text></g><g id="shape59-154" transform="translate(159.54,-99.7126)"><title content="structured text">64-bit register.116</title><desc content="structured text">Len</desc><rect x="0" y="122.64" width="34.0157" height="28.3465" class="st2"/><text x="10.33" y="139.21" class="st3">Len</text></g><g id="shape60-157" transform="translate(51.8236,-79.8701)"><title content="structured text">Bit name 1</title><desc content="structured text">AHP</desc><path d="M22.68 133.98 L22.68 150.99 L0 150.99" class="st6"/><text x="-17.45" y="153.39" class="st3">AHP</text></g><g id="shape61-161" transform="translate(51.8236,-68.5315)"><title content="structured text">Bit name 1.56</title><desc content="structured text">DN</desc><path d="M34.02 122.64 L34.02 150.99 L0 150.99" class="st6"/><text x="-12.55" y="153.39" class="st3">DN</text></g><g id="shape62-165" transform="translate(51.8236,-57.1929)"><title content="structured text">Bit name 1.57</title><desc content="structured text">FZ</desc><path d="M45.35 111.3 L45.35 150.99 L0 150.99" class="st6"/><text x="-10.77" y="153.39" class="st3">FZ</text></g><g id="shape63-169" transform="translate(51.8236,-45.8543)"><title content="structured text">Bit name 1.58</title><desc content="structured text">RMode</desc><path d="M62.36 99.96 L62.36 150.99 L0 150.99" class="st6"/><text x="-26.79" y="153.39" class="st3">RMode</text></g><g id="shape64-173" transform="translate(51.8236,-34.5157)"><title content="structured text">Bit name 1.41</title><desc content="structured text">Stride</desc><path d="M85.04 88.62 L85.04 150.99 L0 150.99" class="st6"/><text x="-21.9" y="153.39" class="st3">Stride</text></g><g id="shape67-177" transform="translate(51.8236,-91.2087)"><title content="structured text">Bit name 1.15</title><desc content="structured text">QC</desc><path d="M11.34 145.32 L11.34 150.99 L0 150.99" class="st6"/><text x="-13" y="153.39" class="st3">QC</text></g><g id="shape68-181" transform="translate(295.603,-99.7126)"><title content="structured text">64-bit register.1</title><path d="M0 122.64 L0 150.99" class="st4"/></g><g id="shape69-184" transform="translate(318.28,-99.7126)"><title content="structured text">64-bit register.2</title><path d="M0 122.64 L0 150.99" class="st4"/></g><g id="shape70-187" transform="translate(380.643,-91.2087) scale(-1,1)"><title content="structured text">Bit name 1.3</title><desc content="structured text">IOC</desc><path d="M11.34 145.32 L11.34 150.99 L0 150.99" class="st6"/><text x="1" y="153.39" transform="scale(-1,1)" class="st3">IOC</text></g><g id="shape71-191" transform="translate(380.643,-79.8701) scale(-1,1)"><title content="structured text">Bit name 1.4</title><desc content="structured text">DZC</desc><path d="M22.68 133.98 L22.68 150.99 L0 150.99" class="st6"/><text x="1" y="153.39" transform="scale(-1,1)" class="st3">DZC</text></g><g id="shape72-195" transform="translate(380.643,-68.5315) scale(-1,1)"><title content="structured text">Bit name 1.5</title><desc content="structured text">OFC</desc><path d="M34.02 122.64 L34.02 150.99 L0 150.99" class="st6"/><text x="1" y="153.39" transform="scale(-1,1)" class="st3">OFC</text></g><g id="shape73-199" transform="translate(380.643,-57.1929) scale(-1,1)"><title content="structured text">Bit name 1.6</title><desc content="structured text">UFC</desc><path d="M45.35 111.3 L45.35 150.99 L0 150.99" class="st6"/><text x="1" y="153.39" transform="scale(-1,1)" class="st3">UFC</text></g><g id="shape74-203" transform="translate(380.643,-45.8543) scale(-1,1)"><title content="structured text">Bit name 1.7</title><desc content="structured text">IXC</desc><path d="M56.69 99.96 L56.69 150.99 L0 150.99" class="st6"/><text x="1" y="153.39" transform="scale(-1,1)" class="st3">IXC</text></g><g id="shape75-207" transform="translate(301.272,-91.2087) scale(-1,1)"><title content="structured text">Bit name 1.94</title><desc content="structured text">IDC</desc><path d="M11.34 145.32 L11.34 150.99 L0 150.99" class="st6"/><text x="1" y="153.39" transform="scale(-1,1)" class="st3">IDC</text></g><g id="shape76-211" transform="translate(165.209,-91.2087) scale(-1,1)"><title content="structured text">Bit name 1.95</title><desc content="structured text">FZ16</desc><path d="M11.34 145.32 L11.34 150.99 L0 150.99" class="st6"/><text x="1" y="153.39" transform="scale(-1,1)" class="st3">FZ16</text></g><g id="shape66-215" transform="translate(12.2372,-5.6693)"><title content="structured text">Graphic.117</title><rect x="0" y="139.648" width="10.44" height="11.3386" class="st1"/></g><g id="shape78-217" transform="translate(21.2599,-5.6693)"><title content="structured text">Rectangle No Fill No Fill.116</title><desc content="structured text">res0</desc><rect x="0" y="139.648" width="24.0945" height="11.3386" class="st7"/><text x="4.26" y="147.72" class="st8">RES<tspan class="st9">0</tspan></text></g></g></svg>