<?xml version="1.0" encoding="UTF-8" standalone="no"?><!-- Fixed up by svgfix.xsl 1.4  --><!-- Generated by Microsoft Visio 11.0, SVG Export, v1.0 trcidr13_bit_assignmnets.svg Page-1 -->
<!DOCTYPE svg
  PUBLIC "-//W3C//DTD SVG 1.0//EN" "http://www.w3.org/TR/2001/REC-SVG-20010904/DTD/svg10.dtd">
<svg xmlns:xlink="http://www.w3.org/1999/xlink" xmlns="http://www.w3.org/2000/svg" width="485.913" height="54.313" viewBox="0 0 364.435 40.735" xml:space="preserve" color-interpolation-filters="sRGB" class="st5" preserveAspectRatio="xMidYMid meet" zoomAndPan="magnify" version="1.0" contentScriptType="text/ecmascript" contentStyleType="text/css"><style type="text/css" xml:space="preserve"><![CDATA[
	
		.st1 {stroke:#000000;stroke-linecap:butt;stroke-width:0.8px}
		.st2 {stroke:#000000;stroke-dasharray:0.25,0.5;stroke-linecap:butt;stroke-width:0.25px}
		.st3 {fill:#000000;font-family:Arial,Helvetica,sans-serif;font-size:0.666664em}
		.st4 {fill:none;stroke:none;stroke-linecap:round;stroke-linejoin:round;stroke-width:0.2px}
		.st5 {fill:none;fill-rule:evenodd;font-size:12px;overflow:visible;stroke-linecap:square;stroke-miterlimit:3}]]></style><g xmlns:v="http://schemas.microsoft.com/visio/2003/SVGExtensions/"><title content="structured text">Page-1</title><g id="shape1-1" transform="translate(363.635,-0.8) scale(-1,1)"><title content="structured text">64-bit register.156</title><path d="M0 12.39 L362.83 12.39 L362.83 40.74 L0 40.74" class="st1"/></g><g id="shape2-4" transform="translate(41.535,0.25) rotate(90)"><title content="structured text">64-bit register.169</title><path d="M0 40.74 L11.34 40.74" class="st2"/></g><g id="shape3-7" transform="translate(363.635,-0.8)"><title content="structured text">64-bit register.157</title><path d="M0 12.39 L0 40.74" class="st1"/></g><g id="shape4-10" transform="translate(86.8894,0.25) rotate(90)"><title content="structured text">64-bit register.11</title><path d="M0 40.74 L11.34 40.74" class="st2"/></g><g id="shape5-13" transform="translate(132.244,0.25) rotate(90)"><title content="structured text">64-bit register.12</title><path d="M0 40.74 L11.34 40.74" class="st2"/></g><g id="shape6-16" transform="translate(177.598,0.25) rotate(90)"><title content="structured text">64-bit register.13</title><path d="M0 40.74 L11.34 40.74" class="st2"/></g><g id="shape7-19" transform="translate(222.952,0.25) rotate(90)"><title content="structured text">64-bit register.14</title><path d="M0 40.74 L11.34 40.74" class="st2"/></g><g id="shape8-22" transform="translate(268.307,0.25) rotate(90)"><title content="structured text">64-bit register.15</title><path d="M0 40.74 L11.34 40.74" class="st2"/></g><g id="shape9-25" transform="translate(359.015,0.25) rotate(90)"><title content="structured text">64-bit register.16</title><path d="M0 40.74 L11.34 40.74" class="st2"/></g><g id="shape10-28" transform="translate(404.37,0.25) rotate(90)"><title content="structured text">64-bit register.17</title><path d="M0 40.74 L11.34 40.74" class="st2"/></g><g id="shape11-31" transform="translate(0.8,-29.1465)"><title content="structured text">64-bit register.179</title><desc content="structured text">31</desc><text x="1.22" y="37.47" class="st3">31</text></g><g id="shape12-33" transform="translate(352.296,-29.1465)"><title content="structured text">64-bit register.19</title><desc content="structured text">0</desc><text x="3.44" y="37.47" class="st3">0</text></g><g id="shape13-35" transform="translate(0.8,-0.8)"><title content="structured text">64-bit register.88</title><desc content="structured text">NUMCONDSPC</desc><rect x="0" y="12.3886" width="362.835" height="28.3465" class="st4"/><text x="152.31" y="28.96" class="st3">NUMCONDSPC</text></g><g id="shape14-38" transform="translate(313.661,0.25) rotate(90)"><title content="structured text">64-bit register.21</title><path d="M0 40.74 L11.34 40.74" class="st2"/></g></g></svg>