<?xml version="1.0" encoding="UTF-8" standalone="no"?><!-- Fixed up by svgfix.xsl 1.4  --><!-- Generated by Microsoft Visio 11.0, SVG Export, v1.0 cpuactlr_bit_assignments-v2_LowRes.svg ARM -->
<!DOCTYPE svg
  PUBLIC "-//W3C//DTD SVG 1.0//EN" "http://www.w3.org/TR/2001/REC-SVG-20010904/DTD/svg10.dtd">
<svg xmlns:xlink="http://www.w3.org/1999/xlink" xmlns="http://www.w3.org/2000/svg" xmlns:ev="http://www.w3.org/2001/xml-events" width="516.149" height="87.929" viewBox="0 0 387.112 65.947" xml:space="preserve" color-interpolation-filters="sRGB" class="st8" preserveAspectRatio="xMidYMid meet" zoomAndPan="magnify" version="1.0" contentScriptType="text/ecmascript" contentStyleType="text/css"><style type="text/css" xml:space="preserve"><![CDATA[
	
		.st1 {fill:#000000;font-family:Arial,Helvetica,sans-serif;font-size:0.666664em}
		.st2 {fill:none;stroke:none;stroke-linecap:butt;stroke-width:0.5px}
		.st3 {fill:#ffffff;visibility:hidden}
		.st4 {stroke:#000000;stroke-linecap:butt;stroke-width:0.8px}
		.st5 {stroke:#000000;stroke-dasharray:0.25,1;stroke-linecap:butt;stroke-width:0.25px}
		.st6 {fill:#ffffff;stroke:none;stroke-linecap:butt;stroke-width:0.5px}
		.st7 {stroke:#000000;stroke-linecap:butt;stroke-width:0.5px}
		.st8 {fill:none;fill-rule:evenodd;font-size:12px;overflow:visible;stroke-linecap:square;stroke-miterlimit:3}]]></style><g xmlns:v="http://schemas.microsoft.com/visio/2003/SVGExtensions/"><title content="structured text">ARM</title><g id="shape8-1" transform="translate(363.635,-43.0197)"><title content="structured text">Sheet.8</title><desc content="structured text">0</desc><text x="3.44" y="62.68" class="st1">0</text></g><g id="shape44-3" transform="translate(12.1386,-14.6732)"><title content="structured text">Sheet.44</title><desc content="structured text">Reserved</desc><rect x="0" y="37.6004" width="362.835" height="28.3465" class="st2"/><text x="164.3" y="54.17" class="st1">Reserved</text></g><g id="shape80-6" transform="translate(12.1386,-43.0197)"><title content="structured text">Bit31</title><desc content="structured text">63</desc><text x="1.22" y="62.68" class="st1">63</text></g><g id="shape91-8" transform="translate(12.1386,-14.6732)"><title content="structured text">MainOutline+Bit00.91</title><rect x="0" y="37.6004" width="362.835" height="28.3465" class="st3"/><rect x="0" y="37.6004" width="362.835" height="28.3465" class="st4"/></g><g id="shape92-11" transform="translate(214.148,11.5886) rotate(90)"><title content="structured text">Signal 0.92</title><path d="M0 65.95 L11.34 65.95" class="st5"/></g><g id="shape93-14" transform="translate(372.889,11.5886) rotate(90)"><title content="structured text">Signal 0.93</title><path d="M0 65.95 L11.34 65.95" class="st5"/></g><g id="shape94-17" transform="translate(350.211,11.5886) rotate(90)"><title content="structured text">Signal 0.94</title><path d="M0 65.95 L11.34 65.95" class="st5"/></g><g id="shape95-20" transform="translate(327.534,11.5886) rotate(90)"><title content="structured text">Signal 0.95</title><path d="M0 65.95 L11.34 65.95" class="st5"/></g><g id="shape96-23" transform="translate(304.857,11.5886) rotate(90)"><title content="structured text">Signal 0.96</title><path d="M0 65.95 L11.34 65.95" class="st5"/></g><g id="shape97-26" transform="translate(282.18,11.5886) rotate(90)"><title content="structured text">Signal 0.97</title><path d="M0 65.95 L11.34 65.95" class="st5"/></g><g id="shape98-29" transform="translate(236.826,11.5886) rotate(90)"><title content="structured text">Signal 0.98</title><path d="M0 65.95 L11.34 65.95" class="st5"/></g><g id="shape99-32" transform="translate(259.503,11.5886) rotate(90)"><title content="structured text">Signal 0.99</title><path d="M0 65.95 L11.34 65.95" class="st5"/></g><g id="shape100-35" transform="translate(440.92,11.5886) rotate(90)"><title content="structured text">Signal 0.100</title><path d="M0 65.95 L11.34 65.95" class="st5"/></g><g id="shape288-38" transform="translate(418.243,11.5886) rotate(90)"><title content="structured text">Signal 0.288</title><path d="M0 65.95 L11.34 65.95" class="st5"/></g><g id="shape290-41" transform="translate(395.566,11.5886) rotate(90)"><title content="structured text">Signal 0.290</title><path d="M0 65.95 L11.34 65.95" class="st5"/></g><g id="group291-44" transform="translate(192.139,-11.8386)"><title content="structured text">Sheet.291</title><g id="group292-45" transform="translate(0,-28.3465)"><title content="structured text">Sheet.292</title><g id="shape293-46" transform="translate(0.566929,4.26326E-014)"><title content="structured text">Sheet.293</title><rect x="0" y="60.2776" width="1.88976" height="5.66929" class="st6"/></g><g id="shape294-48" transform="translate(67.4785,71.0515) rotate(99.4623)"><title content="structured text">Sheet.294</title><path d="M0 65.54 C0.15 65.74 0.72 65.91 1.15 65.94 C1.58 65.97 1.86 65.87 2.34 65.63 C2.63 65.49 2.98 65.3 3.29          65.18 C4.56 64.68 5.03 65.23 5.75 65.54" class="st7"/></g><g id="shape295-51" transform="translate(65.5888,71.0515) rotate(99.4623)"><title content="structured text">Sheet.295</title><path d="M0 65.54 C0.15 65.74 0.72 65.91 1.15 65.94 C1.58 65.97 1.86 65.87 2.34 65.63 C2.63 65.49 2.98 65.3 3.29          65.18 C4.56 64.68 5.03 65.23 5.75 65.54" class="st7"/></g></g><g id="group296-54"><title content="structured text">Sheet.296</title><g id="shape297-55" transform="translate(0.566929,4.26326E-014)"><title content="structured text">Sheet.297</title><rect x="0" y="60.2776" width="1.88976" height="5.66929" class="st6"/></g><g id="shape298-57" transform="translate(67.4785,71.0515) rotate(99.4623)"><title content="structured text">Sheet.298</title><path d="M0 65.54 C0.15 65.74 0.72 65.91 1.15 65.94 C1.58 65.97 1.86 65.87 2.34 65.63 C2.63 65.49 2.98 65.3 3.29          65.18 C4.56 64.68 5.03 65.23 5.75 65.54" class="st7"/></g><g id="shape299-60" transform="translate(65.5888,71.0515) rotate(99.4623)"><title content="structured text">Sheet.299</title><path d="M0 65.54 C0.15 65.74 0.72 65.91 1.15 65.94 C1.58 65.97 1.86 65.87 2.34 65.63 C2.63 65.49 2.98 65.3 3.29          65.18 C4.56 64.68 5.03 65.23 5.75 65.54" class="st7"/></g></g></g><g id="shape87-63" transform="translate(191.471,11.5886) rotate(90)"><title content="structured text">Signal 0.87</title><path d="M0 65.95 L11.34 65.95" class="st5"/></g><g id="shape88-66" transform="translate(168.794,11.5886) rotate(90)"><title content="structured text">Signal 0.88</title><path d="M0 65.95 L11.34 65.95" class="st5"/></g><g id="shape89-69" transform="translate(146.117,11.5886) rotate(90)"><title content="structured text">Signal 0.89</title><path d="M0 65.95 L11.34 65.95" class="st5"/></g><g id="shape90-72" transform="translate(123.44,11.5886) rotate(90)"><title content="structured text">Signal 0.90</title><path d="M0 65.95 L11.34 65.95" class="st5"/></g><g id="shape101-75" transform="translate(78.0854,11.5886) rotate(90)"><title content="structured text">Signal 0.101</title><path d="M0 65.95 L11.34 65.95" class="st5"/></g><g id="shape105-78" transform="translate(100.763,11.5886) rotate(90)"><title content="structured text">Signal 0.105</title><path d="M0 65.95 L11.34 65.95" class="st5"/></g></g></svg>