<?xml version="1.0" encoding="UTF-8" standalone="no"?><!-- Fixed up by svgfix.xsl 1.4  -->
<!DOCTYPE svg
  PUBLIC "-//W3C//DTD SVG 1.0//EN" "http://www.w3.org/TR/2001/REC-SVG-20010904/DTD/svg10.dtd">
<svg xmlns:xlink="http://www.w3.org/1999/xlink" xmlns="http://www.w3.org/2000/svg" color-interpolation-filters="sRGB" height="173.858" width="491.339" xml:space="preserve" preserveAspectRatio="xMidYMid meet" zoomAndPan="magnify" version="1.0" contentScriptType="text/ecmascript" contentStyleType="text/css"><!--Created by CPG register generator--><title content="structured text">CPTR_EL3_bit_assignments</title><style type="text/css" xml:space="preserve"><![CDATA[        .txtleft {fill:#000000;font-family:Arial,Helvetica,sans-serif;font-size:8pt;text-anchor:start}        .txtright {fill:#000000;font-family:Arial,Helvetica,sans-serif;font-size:8pt;text-anchor:end}        .smcaps {font-size:7pt}        .txtmid {fill:#000000;font-family:Arial,Helvetica,sans-serif;font-size:8pt;text-anchor:middle }        .regoutline {fill:none;stroke:#000000;stroke-linecap:butt;stroke-width:0.8px}        .elbow {fill:none;stroke:#000000;stroke-linecap:butt;stroke-width:0.5px}        .nbvert1 {stroke:#000000;stroke-dasharray:0.25,0.5;stroke-linecap:butt;stroke-width:0.25px}        .nbvert {stroke:#000000;stroke-dasharray:0.25,0.5;stroke-linecap:butt;stroke-width:0.5px}        .wibble {fill:none;stroke:#000000;stroke-linecap:butt;stroke-width:0.5px}        .wibbleback {fill:#ffffff;stroke:none;stroke-linecap:butt;stroke-width:0.5px}]]></style><g id="CPTR_EL3"><g><rect class="regoutline" height="10mm" width="4mm" x="1mm" y="5mm"/><text class="txtmid" x="3.0mm" y="4mm">31</text></g><g><rect class="regoutline" height="10mm" style="fill:#eed9b3" width="40mm" x="5mm" y="5mm"/><text class="txtmid" x="7.0mm" y="4mm">30</text><text class="txtmid" x="43.0mm" y="4mm">21</text></g><g><rect class="regoutline" height="10mm" width="4mm" x="45mm" y="5mm"/><text class="txtmid" x="47.0mm" y="4mm">20</text></g><g><rect class="regoutline" height="10mm" style="fill:#eed9b3" width="36mm" x="49mm" y="5mm"/><text class="txtmid" x="51.0mm" y="4mm">19</text><text class="txtmid" x="83.0mm" y="4mm">11</text></g><g><rect class="regoutline" height="10mm" width="4mm" x="85mm" y="5mm"/><text class="txtmid" x="87.0mm" y="4mm">10</text></g><g><rect class="regoutline" height="10mm" style="fill:#eed9b3" width="40mm" x="89mm" y="5mm"/><text class="txtmid" x="91.0mm" y="4mm">9</text><text class="txtmid" x="127.0mm" y="4mm">0</text></g><line class="nbvert" x1="1mm" x2="1mm" y1="5mm" y2="1mm"/><line class="nbvert" x1="17mm" x2="17mm" y1="5mm" y2="1mm"/><line class="nbvert" x1="33mm" x2="33mm" y1="5mm" y2="1mm"/><line class="nbvert" x1="49mm" x2="49mm" y1="5mm" y2="1mm"/><line class="nbvert" x1="65mm" x2="65mm" y1="5mm" y2="1mm"/><line class="nbvert" x1="81mm" x2="81mm" y1="5mm" y2="1mm"/><line class="nbvert" x1="97mm" x2="97mm" y1="5mm" y2="1mm"/><line class="nbvert" x1="113mm" x2="113mm" y1="5mm" y2="1mm"/><line class="nbvert" x1="129mm" x2="129mm" y1="5mm" y2="1mm"/></g><g><text class="txtleft" x="5.5mm" y="23.0mm">TCPAC</text><line class="elbow" x1="3mm" x2="3mm" y1="15mm" y2="22.0mm"/><line class="elbow" x1="3mm" x2="5mm" y1="22.0mm" y2="22.0mm"/><text class="txtleft" x="49.5mm" y="19.5mm">TTA</text><line class="elbow" x1="47mm" x2="47mm" y1="15mm" y2="18.5mm"/><line class="elbow" x1="47mm" x2="49mm" y1="18.5mm" y2="18.5mm"/><text class="txtleft" x="89.5mm" y="26.5mm">TFP</text><line class="elbow" x1="87mm" x2="87mm" y1="15mm" y2="25.5mm"/><line class="elbow" x1="87mm" x2="89mm" y1="25.5mm" y2="25.5mm"/></g><g><rect height="4mm" style="fill:#eed9b3" width="4mm" x="1mm" y="31.0mm"/><text class="txtleft" x="6mm" y="34.0mm"><tspan class="smcaps">RES</tspan>0</text></g><!-- register = ['CPTR_EL3', [(31, 31, 'TCPAC', 0), (30, 21, 'RES0', 0), (20, 20, 'TTA', 0), (19, 11, 'RES0', 0), (10, 10, 'TFP', 0), (9, 0, 'RES0', 0)]]--></svg>