<?xml version="1.0" encoding="UTF-8" standalone="no"?><!-- Fixed up by svgfix.xsl 1.4  -->
<!DOCTYPE svg
  PUBLIC "-//W3C//DTD SVG 1.0//EN" "http://www.w3.org/TR/2001/REC-SVG-20010904/DTD/svg10.dtd">
<svg xmlns:xlink="http://www.w3.org/1999/xlink" xmlns="http://www.w3.org/2000/svg" color-interpolation-filters="sRGB" height="245.669" width="491.339" xml:space="preserve" preserveAspectRatio="xMidYMid meet" zoomAndPan="magnify" version="1.0" contentScriptType="text/ecmascript" contentStyleType="text/css"><!--Created by CPG register generator--><title content="structured text">VTCR_EL2_bit_assignments</title><style type="text/css" xml:space="preserve"><![CDATA[        .txtleft {fill:#000000;font-family:Arial,Helvetica,sans-serif;font-size:8pt;text-anchor:start}        .txtright {fill:#000000;font-family:Arial,Helvetica,sans-serif;font-size:8pt;text-anchor:end}        .smcaps {font-size:7pt}        .txtmid {fill:#000000;font-family:Arial,Helvetica,sans-serif;font-size:8pt;text-anchor:middle }        .regoutline {fill:none;stroke:#000000;stroke-linecap:butt;stroke-width:0.8px}        .elbow {fill:none;stroke:#000000;stroke-linecap:butt;stroke-width:0.5px}        .nbvert1 {stroke:#000000;stroke-dasharray:0.25,0.5;stroke-linecap:butt;stroke-width:0.25px}        .nbvert {stroke:#000000;stroke-dasharray:0.25,0.5;stroke-linecap:butt;stroke-width:0.5px}        .wibble {fill:none;stroke:#000000;stroke-linecap:butt;stroke-width:0.5px}        .wibbleback {fill:#ffffff;stroke:none;stroke-linecap:butt;stroke-width:0.5px}]]></style><g id="VTCR_EL2"><g><rect class="regoutline" height="10mm" style="fill:#ccdfdb" width="4mm" x="1mm" y="5mm"/><text class="txtmid" x="3.0mm" y="4mm">31</text></g><g><rect class="regoutline" height="10mm" style="fill:#eed9b3" width="8mm" x="5mm" y="5mm"/><text class="txtmid" x="7.0mm" y="4mm">30</text><text class="txtmid" x="11.0mm" y="4mm">29</text></g><g><rect class="regoutline" height="10mm" width="4mm" x="13mm" y="5mm"/><text class="txtmid" x="15.0mm" y="4mm">28</text></g><g><rect class="regoutline" height="10mm" width="4mm" x="17mm" y="5mm"/><text class="txtmid" x="19.0mm" y="4mm">27</text></g><g><rect class="regoutline" height="10mm" width="4mm" x="21mm" y="5mm"/><text class="txtmid" x="23.0mm" y="4mm">26</text></g><g><rect class="regoutline" height="10mm" width="4mm" x="25mm" y="5mm"/><text class="txtmid" x="27.0mm" y="4mm">25</text></g><g><rect class="regoutline" height="10mm" style="fill:#eed9b3" width="8mm" x="29mm" y="5mm"/><text class="txtmid" x="31.0mm" y="4mm">24</text><text class="txtmid" x="35.0mm" y="4mm">23</text></g><g><rect class="regoutline" height="10mm" width="4mm" x="37mm" y="5mm"/><text class="txtmid" x="39.0mm" y="4mm">22</text></g><g><rect class="regoutline" height="10mm" width="4mm" x="41mm" y="5mm"/><text class="txtmid" x="43.0mm" y="4mm">21</text></g><g><rect class="regoutline" height="10mm" style="fill:#eed9b3" width="4mm" x="45mm" y="5mm"/><text class="txtmid" x="47.0mm" y="4mm">20</text></g><g><rect class="regoutline" height="10mm" width="4mm" x="49mm" y="5mm"/><text class="txtmid" x="51.0mm" y="4mm">19</text></g><g><rect class="regoutline" height="10mm" width="12mm" x="53mm" y="5mm"/><text class="txtmid" x="59.0mm" y="11.0mm">PS</text><text class="txtmid" x="55.0mm" y="4mm">18</text><text class="txtmid" x="63.0mm" y="4mm">16</text></g><g><rect class="regoutline" height="10mm" width="8mm" x="65mm" y="5mm"/><text class="txtmid" x="69.0mm" y="11.0mm">TG0</text><text class="txtmid" x="67.0mm" y="4mm">15</text><text class="txtmid" x="71.0mm" y="4mm">14</text></g><g><rect class="regoutline" height="10mm" width="8mm" x="73mm" y="5mm"/><text class="txtmid" x="77.0mm" y="11.0mm">SH0</text><text class="txtmid" x="75.0mm" y="4mm">13</text><text class="txtmid" x="79.0mm" y="4mm">12</text></g><g><rect class="regoutline" height="10mm" width="8mm" x="81mm" y="5mm"/><text class="txtmid" x="83.0mm" y="4mm">11</text><text class="txtmid" x="87.0mm" y="4mm">10</text></g><g><rect class="regoutline" height="10mm" width="8mm" x="89mm" y="5mm"/><text class="txtmid" x="91.0mm" y="4mm">9</text><text class="txtmid" x="95.0mm" y="4mm">8</text></g><g><rect class="regoutline" height="10mm" width="8mm" x="97mm" y="5mm"/><text class="txtmid" x="101.0mm" y="11.0mm">SL0</text><text class="txtmid" x="99.0mm" y="4mm">7</text><text class="txtmid" x="103.0mm" y="4mm">6</text></g><g><rect class="regoutline" height="10mm" width="24mm" x="105mm" y="5mm"/><text class="txtmid" x="117.0mm" y="11.0mm">T0SZ</text><text class="txtmid" x="107.0mm" y="4mm">5</text><text class="txtmid" x="127.0mm" y="4mm">0</text></g><line class="nbvert" x1="1mm" x2="1mm" y1="5mm" y2="1mm"/><line class="nbvert" x1="17mm" x2="17mm" y1="5mm" y2="1mm"/><line class="nbvert" x1="33mm" x2="33mm" y1="5mm" y2="1mm"/><line class="nbvert" x1="49mm" x2="49mm" y1="5mm" y2="1mm"/><line class="nbvert" x1="65mm" x2="65mm" y1="5mm" y2="1mm"/><line class="nbvert" x1="81mm" x2="81mm" y1="5mm" y2="1mm"/><line class="nbvert" x1="97mm" x2="97mm" y1="5mm" y2="1mm"/><line class="nbvert" x1="113mm" x2="113mm" y1="5mm" y2="1mm"/><line class="nbvert" x1="129mm" x2="129mm" y1="5mm" y2="1mm"/></g><g><text class="txtright" x="12.5mm" y="19.5mm">HWU62</text><line class="elbow" x1="15mm" x2="15mm" y1="15mm" y2="18.5mm"/><line class="elbow" x1="15mm" x2="13mm" y1="18.5mm" y2="18.5mm"/><text class="txtright" x="16.5mm" y="23.0mm">HWU61</text><line class="elbow" x1="19mm" x2="19mm" y1="15mm" y2="22.0mm"/><line class="elbow" x1="19mm" x2="17mm" y1="22.0mm" y2="22.0mm"/><text class="txtright" x="20.5mm" y="26.5mm">HWU60</text><line class="elbow" x1="23mm" x2="23mm" y1="15mm" y2="25.5mm"/><line class="elbow" x1="23mm" x2="21mm" y1="25.5mm" y2="25.5mm"/><text class="txtright" x="24.5mm" y="30.0mm">HWU59</text><line class="elbow" x1="27mm" x2="27mm" y1="15mm" y2="29.0mm"/><line class="elbow" x1="27mm" x2="25mm" y1="29.0mm" y2="29.0mm"/><text class="txtright" x="36.5mm" y="33.5mm">HD</text><line class="elbow" x1="39mm" x2="39mm" y1="15mm" y2="32.5mm"/><line class="elbow" x1="39mm" x2="37mm" y1="32.5mm" y2="32.5mm"/><text class="txtright" x="40.5mm" y="37.0mm">HA</text><line class="elbow" x1="43mm" x2="43mm" y1="15mm" y2="36.0mm"/><line class="elbow" x1="43mm" x2="41mm" y1="36.0mm" y2="36.0mm"/><text class="txtright" x="48.5mm" y="40.5mm">VS</text><line class="elbow" x1="51mm" x2="51mm" y1="15mm" y2="39.5mm"/><line class="elbow" x1="51mm" x2="49mm" y1="39.5mm" y2="39.5mm"/><text class="txtleft" x="87.5mm" y="23.0mm">ORGN0</text><line class="elbow" x1="85mm" x2="85mm" y1="15mm" y2="22.0mm"/><line class="elbow" x1="85mm" x2="87mm" y1="22.0mm" y2="22.0mm"/><text class="txtleft" x="95.5mm" y="19.5mm">IRGN0</text><line class="elbow" x1="93mm" x2="93mm" y1="15mm" y2="18.5mm"/><line class="elbow" x1="93mm" x2="95mm" y1="18.5mm" y2="18.5mm"/></g><g><rect height="4mm" style="fill:#ccdfdb" width="4mm" x="1mm" y="45.0mm"/><text class="txtleft" x="6mm" y="48.0mm"><tspan class="smcaps">RES</tspan>1</text><rect height="4mm" style="fill:#eed9b3" width="4mm" x="1mm" y="50.0mm"/><text class="txtleft" x="6mm" y="53.0mm"><tspan class="smcaps">RES</tspan>0</text></g><!-- register = ['VTCR_EL2', [(31, 31, 'RES1', 0), (30, 29, 'RES0', 0), (28, 28, 'HWU62', 0), (27, 27, 'HWU61', 0), (26, 26, 'HWU60', 0), (25, 25, 'HWU59', 0), (24, 23, 'RES0', 0), (22, 22, 'HD', 0), (21, 21, 'HA', 0), (20, 20, 'RES0', 0), (19, 19, 'VS', 0), (18, 16, 'PS', 0), (15, 14, 'TG0', 0), (13, 12, 'SH0', 0), (11, 10, 'ORGN0', 0), (9, 8, 'IRGN0', 0), (7, 6, 'SL0', 0), (5, 0, 'T0SZ', 0)]]--></svg>