<?xml version="1.0" encoding="UTF-8" standalone="no"?><!-- Fixed up by svgfix.xsl 1.4  --><!-- Generated by Microsoft Visio 11.0, SVG Export, v1.0 trccntvr_bit_assignments.svg ARM -->
<!DOCTYPE svg
  PUBLIC "-//W3C//DTD SVG 1.0//EN" "http://www.w3.org/TR/2001/REC-SVG-20010904/DTD/svg10.dtd">
<svg xmlns:xlink="http://www.w3.org/1999/xlink" xmlns="http://www.w3.org/2000/svg" xmlns:ev="http://www.w3.org/2001/xml-events" width="516.149" height="114.386" viewBox="0 0 387.112 85.789" xml:space="preserve" color-interpolation-filters="sRGB" class="st12" preserveAspectRatio="xMidYMid meet" zoomAndPan="magnify" version="1.0" contentScriptType="text/ecmascript" contentStyleType="text/css"><style type="text/css" xml:space="preserve"><![CDATA[
	
		.st1 {fill:#ffffff;stroke:none;stroke-linecap:round;stroke-linejoin:round;stroke-width:0.2px}
		.st2 {fill:#000000;font-family:Arial,Helvetica,sans-serif;font-size:0.666664em}
		.st3 {fill:#ffffff;visibility:hidden}
		.st4 {stroke:#000000;stroke-linecap:butt;stroke-width:0.8px}
		.st5 {stroke:#000000;stroke-dasharray:0.25,1;stroke-linecap:butt;stroke-width:0.25px}
		.st6 {fill:#eed9b3;stroke:#000000;stroke-linecap:butt;stroke-width:0.5px}
		.st7 {fill:none;stroke:none;stroke-linecap:butt;stroke-width:0.5px}
		.st8 {fill:none;stroke:none;stroke-linecap:butt;stroke-width:0.499999px}
		.st9 {fill:#000000;font-family:Arial,Helvetica,sans-serif;font-size:0.533318em}
		.st10 {font-size:1.25003em}
		.st11 {fill:#eed9b3;stroke:none;stroke-linecap:round;stroke-linejoin:round;stroke-width:0.2px}
		.st12 {fill:none;fill-rule:evenodd;font-size:12px;overflow:visible;stroke-linecap:square;stroke-miterlimit:3}]]></style><g xmlns:v="http://schemas.microsoft.com/visio/2003/SVGExtensions/"><title content="structured text">ARM</title><g id="group1-1" transform="translate(12.1386,-34.5157)"><title content="structured text">32-bit register</title><g id="shape2-2" transform="translate(351.496,-1.42109E-014)"><title content="structured text">Sheet.2</title><rect x="0" y="57.4429" width="11.3386" height="28.3465" class="st1"/></g><g id="shape3-4"><title content="structured text">Sheet.3</title><rect x="0" y="57.4429" width="11.3386" height="28.3465" class="st1"/></g><g id="shape4-6" transform="translate(8.49321E-014,-28.3465)"><title content="structured text">Sheet.4</title><desc content="structured text">31</desc><text x="1.22" y="82.52" class="st2">31</text></g><g id="shape6-8" transform="translate(170.079,-28.3465)"><title content="structured text">Sheet.6</title><desc content="structured text">16</desc><text x="1.22" y="82.52" class="st2">16</text></g><g id="shape7-10" transform="translate(181.417,-28.3465)"><title content="structured text">Sheet.7</title><desc content="structured text">15</desc><text x="1.22" y="82.52" class="st2">15</text></g><g id="shape8-12" transform="translate(351.496,-28.3465)"><title content="structured text">Sheet.8</title><desc content="structured text">0</desc><text x="3.44" y="82.52" class="st2">0</text></g><g id="shape9-14" transform="translate(11.3386,-1.42109E-014)"><title content="structured text">Sheet.9</title><rect x="0" y="57.4429" width="11.3386" height="28.3465" class="st1"/></g><g id="shape10-16" transform="translate(22.6772,-1.42109E-014)"><title content="structured text">Sheet.10</title><rect x="0" y="57.4429" width="11.3386" height="28.3465" class="st1"/></g><g id="shape11-18" transform="translate(34.0157,-1.42109E-014)"><title content="structured text">Sheet.11</title><rect x="0" y="57.4429" width="11.3386" height="28.3465" class="st1"/></g><g id="shape12-20" transform="translate(45.3543,-1.42109E-014)"><title content="structured text">Sheet.12</title><rect x="0" y="57.4429" width="11.3386" height="28.3465" class="st1"/></g><g id="shape13-22" transform="translate(56.6929,-1.42109E-014)"><title content="structured text">Sheet.13</title><rect x="0" y="57.4429" width="11.3386" height="28.3465" class="st1"/></g><g id="shape14-24" transform="translate(68.0315,-1.42109E-014)"><title content="structured text">Sheet.14</title><rect x="0" y="57.4429" width="11.3386" height="28.3465" class="st1"/></g><g id="shape15-26" transform="translate(79.3701,-1.42109E-014)"><title content="structured text">Sheet.15</title><rect x="0" y="57.4429" width="11.3386" height="28.3465" class="st1"/></g><g id="shape16-28" transform="translate(90.7087,-1.42109E-014)"><title content="structured text">Sheet.16</title><rect x="0" y="57.4429" width="11.3386" height="28.3465" class="st1"/></g><g id="shape17-30" transform="translate(102.047,-1.42109E-014)"><title content="structured text">Sheet.17</title><rect x="0" y="57.4429" width="11.3386" height="28.3465" class="st1"/></g><g id="shape18-32" transform="translate(113.386,-1.42109E-014)"><title content="structured text">Sheet.18</title><rect x="0" y="57.4429" width="11.3386" height="28.3465" class="st1"/></g><g id="shape19-34" transform="translate(124.724,-1.42109E-014)"><title content="structured text">Sheet.19</title><rect x="0" y="57.4429" width="11.3386" height="28.3465" class="st1"/></g><g id="shape20-36" transform="translate(136.063,-1.42109E-014)"><title content="structured text">Sheet.20</title><rect x="0" y="57.4429" width="11.3386" height="28.3465" class="st1"/></g><g id="shape21-38" transform="translate(147.402,-1.42109E-014)"><title content="structured text">Sheet.21</title><rect x="0" y="57.4429" width="11.3386" height="28.3465" class="st1"/></g><g id="shape22-40" transform="translate(158.74,-1.42109E-014)"><title content="structured text">Sheet.22</title><rect x="0" y="57.4429" width="11.3386" height="28.3465" class="st1"/></g><g id="shape23-42" transform="translate(170.079,-1.42109E-014)"><title content="structured text">Sheet.23</title><rect x="0" y="57.4429" width="11.3386" height="28.3465" class="st1"/></g><g id="shape24-44" transform="translate(181.417,-1.42109E-014)"><title content="structured text">Sheet.24</title><rect x="0" y="57.4429" width="11.3386" height="28.3465" class="st1"/></g><g id="shape25-46" transform="translate(192.756,-1.42109E-014)"><title content="structured text">Sheet.25</title><rect x="0" y="57.4429" width="11.3386" height="28.3465" class="st1"/></g><g id="shape26-48" transform="translate(204.094,-1.42109E-014)"><title content="structured text">Sheet.26</title><rect x="0" y="57.4429" width="11.3386" height="28.3465" class="st1"/></g><g id="shape27-50" transform="translate(215.433,-1.42109E-014)"><title content="structured text">Sheet.27</title><rect x="0" y="57.4429" width="11.3386" height="28.3465" class="st1"/></g><g id="shape28-52" transform="translate(226.772,-1.42109E-014)"><title content="structured text">Sheet.28</title><rect x="0" y="57.4429" width="11.3386" height="28.3465" class="st1"/></g><g id="shape29-54" transform="translate(238.11,-1.42109E-014)"><title content="structured text">Sheet.29</title><rect x="0" y="57.4429" width="11.3386" height="28.3465" class="st1"/></g><g id="shape30-56" transform="translate(249.449,-1.42109E-014)"><title content="structured text">Sheet.30</title><rect x="0" y="57.4429" width="11.3386" height="28.3465" class="st1"/></g><g id="shape31-58" transform="translate(260.787,-1.42109E-014)"><title content="structured text">Sheet.31</title><rect x="0" y="57.4429" width="11.3386" height="28.3465" class="st1"/></g><g id="shape32-60" transform="translate(272.126,-1.42109E-014)"><title content="structured text">Sheet.32</title><rect x="0" y="57.4429" width="11.3386" height="28.3465" class="st1"/></g><g id="shape33-62" transform="translate(283.465,-1.42109E-014)"><title content="structured text">Sheet.33</title><rect x="0" y="57.4429" width="11.3386" height="28.3465" class="st1"/></g><g id="shape34-64" transform="translate(294.803,-1.42109E-014)"><title content="structured text">Sheet.34</title><rect x="0" y="57.4429" width="11.3386" height="28.3465" class="st1"/></g><g id="shape35-66" transform="translate(306.142,-1.42109E-014)"><title content="structured text">Sheet.35</title><rect x="0" y="57.4429" width="11.3386" height="28.3465" class="st1"/></g><g id="shape36-68" transform="translate(317.48,-1.42109E-014)"><title content="structured text">Sheet.36</title><rect x="0" y="57.4429" width="11.3386" height="28.3465" class="st1"/></g><g id="shape37-70" transform="translate(328.819,-1.42109E-014)"><title content="structured text">Sheet.37</title><rect x="0" y="57.4429" width="11.3386" height="28.3465" class="st1"/></g><g id="shape38-72" transform="translate(340.157,-1.42109E-014)"><title content="structured text">Sheet.38</title><rect x="0" y="57.4429" width="11.3386" height="28.3465" class="st1"/></g><g id="shape39-74"><title content="structured text">Sheet.39</title><rect x="0" y="57.4429" width="362.835" height="28.3465" class="st3"/><rect x="0" y="57.4429" width="362.835" height="28.3465" class="st4"/></g><g id="shape40-77" transform="translate(181.417,-1.42109E-014)"><title content="structured text">Sheet.40</title><path d="M0 57.44 L0 85.79" class="st4"/></g><g id="shape41-80" transform="translate(403.27,46.1043) rotate(90)"><title content="structured text">Signal 0</title><path d="M0 85.79 L11.34 85.79" class="st5"/></g><g id="shape42-83" transform="translate(357.915,46.1043) rotate(90)"><title content="structured text">Signal 0.102</title><path d="M0 85.79 L11.34 85.79" class="st5"/></g><g id="shape43-86" transform="translate(312.561,46.1043) rotate(90)"><title content="structured text">Signal 0.103</title><path d="M0 85.79 L11.34 85.79" class="st5"/></g><g id="shape44-89" transform="translate(267.207,46.1043) rotate(90)"><title content="structured text">Signal 0.104</title><path d="M0 85.79 L11.34 85.79" class="st5"/></g><g id="shape45-92" transform="translate(221.852,46.1043) rotate(90)"><title content="structured text">Signal 0.105</title><path d="M0 85.79 L11.34 85.79" class="st5"/></g><g id="shape46-95" transform="translate(176.498,46.1043) rotate(90)"><title content="structured text">Signal 0.106</title><path d="M0 85.79 L11.34 85.79" class="st5"/></g><g id="shape47-98" transform="translate(131.144,46.1043) rotate(90)"><title content="structured text">Signal 0.107</title><path d="M0 85.79 L11.34 85.79" class="st5"/></g><g id="shape48-101" transform="translate(85.7894,46.1043) rotate(90)"><title content="structured text">Signal 0.108</title><path d="M0 85.79 L11.34 85.79" class="st5"/></g><g id="shape49-104" transform="translate(448.624,46.1043) rotate(90)"><title content="structured text">Signal 0.109</title><path d="M0 85.79 L11.34 85.79" class="st5"/></g></g><g id="shape50-107" transform="translate(12.189,-34.5827)"><title content="structured text">Sheet.50</title><rect x="0" y="57.4429" width="181.417" height="28.3465" class="st6"/></g><g id="shape51-109" transform="translate(193.556,-34.5157)"><title content="structured text">Sheet.51</title><desc content="structured text">VALUE</desc><rect x="0" y="57.4429" width="181.417" height="28.3465" class="st7"/><text x="77.59" y="74.02" class="st2">VALUE</text></g><g id="shape52-112" transform="translate(22.5786,-11.8386)"><title content="structured text">Rectangle No Fill No Fill.116</title><desc content="structured text">res0</desc><rect x="0" y="74.4508" width="19.8425" height="11.3386" class="st8"/><text x="1.24" y="82.52" class="st9">RES<tspan class="st10">0</tspan></text></g><g id="shape53-116" transform="translate(12.1386,-11.8386)"><title content="structured text">Graphic.117</title><rect x="0" y="74.4508" width="10.44" height="11.3386" class="st11"/></g></g></svg>