<?xml version="1.0" encoding="UTF-8" standalone="no"?><!-- Fixed up by svgfix.xsl 1.4  --><!-- Generated by Microsoft Visio 11.0, SVG Export, v1.0 lau1468940967760_low res.svg ARM -->
<!DOCTYPE svg
  PUBLIC "-//W3C//DTD SVG 1.0//EN" "http://www.w3.org/TR/2001/REC-SVG-20010904/DTD/svg10.dtd">
<svg xmlns:xlink="http://www.w3.org/1999/xlink" xmlns="http://www.w3.org/2000/svg" xmlns:ev="http://www.w3.org/2001/xml-events" width="608.504" height="242.89" viewBox="0 0 456.378 182.167" xml:space="preserve" color-interpolation-filters="sRGB" class="st13" preserveAspectRatio="xMidYMid meet" zoomAndPan="magnify" version="1.0" contentScriptType="text/ecmascript" contentStyleType="text/css"><style type="text/css" xml:space="preserve"><![CDATA[
	
		.st1 {fill:#eed9b3;stroke:none;stroke-linecap:round;stroke-linejoin:round;stroke-width:0.2px}
		.st2 {fill:#000000;font-family:Arial,Helvetica,sans-serif;font-size:0.666664em}
		.st3 {fill:#ffffff;visibility:hidden}
		.st4 {stroke:#000000;stroke-linecap:butt;stroke-width:0.8px}
		.st5 {stroke:#000000;stroke-dasharray:0.25,1;stroke-linecap:butt;stroke-width:0.25px}
		.st6 {fill:none}
		.st7 {stroke:#000000;stroke-linecap:butt;stroke-width:0.799997px}
		.st8 {stroke:#000000;stroke-linecap:butt;stroke-width:0.5px}
		.st9 {fill:none;stroke:none;stroke-linecap:round;stroke-linejoin:round;stroke-width:0.2px}
		.st10 {fill:none;stroke:none;stroke-linecap:butt;stroke-width:0.499999px}
		.st11 {fill:#000000;font-family:Arial,Helvetica,sans-serif;font-size:0.533318em}
		.st12 {font-size:1.25003em}
		.st13 {fill:none;fill-rule:evenodd;font-size:12px;overflow:visible;stroke-linecap:square;stroke-miterlimit:3}]]></style><g xmlns:v="http://schemas.microsoft.com/visio/2003/SVGExtensions/"><title content="structured text">ARM</title><g id="shape2-1" transform="translate(182.217,-130.414)"><title content="structured text">Graphic.6</title><rect x="0" y="153.934" width="10.6071" height="28.2335" class="st1"/></g><g id="shape1-3" transform="translate(284.265,-130.894)"><title content="structured text">Graphic.48</title><rect x="0" y="153.934" width="11.3386" height="28.2335" class="st1"/></g><g id="shape3-5" transform="translate(12.1386,-130.894)"><title content="structured text">Graphic.260</title><rect x="0" y="153.934" width="158.74" height="28.2335" class="st1"/></g><g id="shape4-7" transform="translate(12.1386,-159.24)"><title content="structured text">Bit31</title><desc content="structured text">31</desc><text x="1.22" y="178.9" class="st2">31</text></g><g id="shape5-9" transform="translate(12.1386,-130.894)"><title content="structured text">MainOutline+Bit00</title><desc content="structured text">0</desc><rect x="0" y="153.821" width="362.835" height="28.3465" class="st3"/><rect x="0" y="153.821" width="362.835" height="28.3465" class="st4"/><text x="354.94" y="150.55" class="st2">0</text></g><g id="shape6-13" transform="translate(511.786,11.5886) rotate(90)"><title content="structured text">Signal 0.48</title><path d="M0 182.17 L11.34 182.17" class="st5"/></g><g id="shape7-16" transform="translate(466.432,11.5886) rotate(90)"><title content="structured text">Signal 0.49</title><path d="M0 182.17 L11.34 182.17" class="st5"/></g><g id="shape8-19" transform="translate(421.078,11.5886) rotate(90)"><title content="structured text">Signal 0.50</title><path d="M0 182.17 L11.34 182.17" class="st5"/></g><g id="shape9-22" transform="translate(375.723,11.5886) rotate(90)"><title content="structured text">Signal 0.51</title><path d="M0 182.17 L11.34 182.17" class="st5"/></g><g id="shape10-25" transform="translate(330.369,11.5886) rotate(90)"><title content="structured text">Signal 0.52</title><path d="M0 182.17 L11.34 182.17" class="st5"/></g><g id="shape11-28" transform="translate(285.015,11.5886) rotate(90)"><title content="structured text">Signal 0.53</title><path d="M0 182.17 L11.34 182.17" class="st5"/></g><g id="shape12-31" transform="translate(239.66,11.5886) rotate(90)"><title content="structured text">Signal 0.54</title><path d="M0 182.17 L11.34 182.17" class="st5"/></g><g id="shape13-34" transform="translate(194.306,11.5886) rotate(90)"><title content="structured text">Signal 0.55</title><path d="M0 182.17 L11.34 182.17" class="st5"/></g><g id="shape14-37" transform="translate(557.141,11.5886) rotate(90)"><title content="structured text">Signal 0.56</title><path d="M0 182.17 L11.34 182.17" class="st5"/></g><g id="shape15-40" transform="translate(12.1386,-130.894)"><title content="structured text">Sheet.15</title><path d="M0 182.17 L0 153.82" class="st4"/><path d="M362.83 182.17 L362.83 153.82" class="st4"/></g><g id="shape16-44" transform="translate(352.296,-159.24)"><title content="structured text">Bit31.14</title><desc content="structured text">1</desc><text x="3.44" y="178.9" class="st2">1</text></g><g id="shape17-46" transform="translate(340.957,-159.24)"><title content="structured text">Bit31.15</title><desc content="structured text">2</desc><text x="3.44" y="178.9" class="st2">2</text></g><g id="shape18-48" transform="translate(306.942,-159.24)"><title content="structured text">Bit31.16</title><desc content="structured text">5</desc><text x="3.44" y="178.9" class="st2">5</text></g><g id="shape19-50" transform="translate(295.603,-159.24)"><title content="structured text">Bit31.17</title><desc content="structured text">6</desc><text x="3.44" y="178.9" class="st2">6</text></g><g id="shape20-52" transform="translate(284.265,-159.24)"><title content="structured text">Bit31.18</title><desc content="structured text">7</desc><text x="3.44" y="178.9" class="st2">7</text></g><g id="shape21-54" transform="translate(272.926,-159.24)"><title content="structured text">Bit31.19</title><desc content="structured text">8</desc><text x="3.44" y="178.9" class="st2">8</text></g><g id="shape22-56" transform="translate(250.249,-159.24)"><title content="structured text">Bit31.20</title><desc content="structured text">10</desc><text x="1.22" y="178.9" class="st2">10</text></g><g id="shape23-58" transform="translate(238.91,-159.24)"><title content="structured text">Bit31.21</title><desc content="structured text">11</desc><text x="1.22" y="178.9" class="st2">11</text></g><g id="shape24-60" transform="translate(216.233,-159.24)"><title content="structured text">Bit31.22</title><desc content="structured text">13</desc><text x="1.22" y="178.9" class="st2">13</text></g><g id="shape25-62" transform="translate(204.894,-159.24)"><title content="structured text">Bit31.23</title><desc content="structured text">14</desc><text x="1.22" y="178.9" class="st2">14</text></g><g id="shape26-64" transform="translate(193.556,-159.24)"><title content="structured text">Bit31.24</title><desc content="structured text">15</desc><text x="1.22" y="178.9" class="st2">15</text></g><g id="shape27-66" transform="translate(182.217,-159.24)"><title content="structured text">Bit31.25</title><desc content="structured text">16</desc><text x="1.22" y="178.9" class="st2">16</text></g><g id="shape28-68" transform="translate(363.635,-130.894)"><title content="structured text">Graphic.37</title><path d="M0 153.82 L0 182.17 L0 153.82 Z" class="st6"/><path d="M0 153.82 L0 182.17" class="st7"/></g><g id="shape29-71" transform="translate(352.296,-130.894)"><title content="structured text">Graphic.27</title><path d="M0 153.82 L0 182.17 L0 153.82 Z" class="st6"/><path d="M0 153.82 L0 182.17" class="st7"/></g><g id="shape30-74" transform="translate(295.603,-130.89)"><title content="structured text">Graphic.28</title><path d="M0 153.82 L0 182.17 L0 153.82 Z" class="st6"/><path d="M0 153.82 L0 182.17" class="st7"/></g><g id="shape31-77" transform="translate(306.942,-130.89)"><title content="structured text">Graphic.30</title><path d="M0 153.82 L0 182.17 L0 153.82 Z" class="st6"/><path d="M0 153.82 L0 182.17" class="st7"/></g><g id="shape32-80" transform="translate(284.265,-130.894)"><title content="structured text">Graphic.31</title><path d="M0 153.82 L0 182.17 L0 153.82 Z" class="st6"/><path d="M0 153.82 L0 182.17" class="st7"/></g><g id="shape33-83" transform="translate(250.249,-130.89)"><title content="structured text">Graphic.32</title><path d="M0 153.82 L0 182.17 L0 153.82 Z" class="st6"/><path d="M0 153.82 L0 182.17" class="st7"/></g><g id="shape34-86" transform="translate(216.233,-130.894)"><title content="structured text">Graphic.34</title><path d="M0 153.82 L0 182.17 L0 153.82 Z" class="st6"/><path d="M0 153.82 L0 182.17" class="st7"/></g><g id="shape35-89" transform="translate(204.894,-130.89)"><title content="structured text">Graphic.35</title><path d="M0 153.82 L0 182.17 L0 153.82 Z" class="st6"/><path d="M0 153.82 L0 182.17" class="st7"/></g><g id="shape36-92" transform="translate(193.556,-130.894)"><title content="structured text">Graphic.36</title><path d="M0 153.82 L0 182.17 L0 153.82 Z" class="st6"/><path d="M0 153.82 L0 182.17" class="st7"/></g><g id="shape37-95" transform="translate(380.643,-122.39) scale(-1,1)"><title content="structured text">Bit name 2</title><desc content="structured text">CBPR_EL1S</desc><path d="M11.34 176.5 L11.34 182.17 L0 182.17" class="st8"/><text x="1" y="184.57" transform="scale(-1,1)" class="st2">CBPR_EL1S</text></g><g id="shape38-99" transform="translate(380.643,-111.051) scale(-1,1)"><title content="structured text">Bit name 2.37</title><desc content="structured text">CBPR_EL1NS</desc><path d="M22.68 165.16 L22.68 182.17 L0 182.17" class="st8"/><text x="1" y="184.57" transform="scale(-1,1)" class="st2">CBPR_EL1NS</text></g><g id="shape39-103" transform="translate(379.843,-53.8583) scale(-1,1)"><title content="structured text">Bit name 2.39</title><desc content="structured text">PMHE</desc><path d="M79.37 108.47 L79.37 182.17 L0 182.17" class="st8"/><text x="1" y="184.57" transform="scale(-1,1)" class="st2">PMHE</text></g><g id="shape40-107" transform="translate(251.194,-130.894)"><title content="structured text">Rectangle No Fill No Fill.48</title><desc content="structured text">C</desc><rect x="0" y="154.766" width="32.126" height="27.4016" class="st9"/><text x="3.17" y="170.87" class="st2">PRIbits</text></g><g id="shape41-110" transform="translate(217.178,-130.894)"><title content="structured text">Rectangle No Fill No Fill.33</title><desc content="structured text">C</desc><rect x="0" y="154.766" width="32.126" height="27.4016" class="st9"/><text x="5.84" y="170.87" class="st2">IDbits</text></g><g id="shape42-113" transform="translate(379.843,-42.5197) scale(-1,1)"><title content="structured text">Bit name 2.41</title><desc content="structured text">SEIS</desc><path d="M170.08 99.96 L170.08 182.17 L0 182.17" class="st8"/><text x="1" y="184.57" transform="scale(-1,1)" class="st2">SEIS</text></g><g id="shape43-117" transform="translate(379.843,-31.1811) scale(-1,1)"><title content="structured text">Bit name 2.42</title><desc content="structured text">A3V</desc><path d="M181.42 85.79 L181.42 182.17 L0 182.17" class="st8"/><text x="1" y="184.57" transform="scale(-1,1)" class="st2">A3V</text></g><g id="group44-121" transform="translate(14.9732,-57.1929)"><title content="structured text">Sheet.44</title><g id="shape45-122" transform="translate(11.3386,0)"><title content="structured text">Rectangle No Fill No Fill.116</title><desc content="structured text">res0</desc><rect x="0" y="170.829" width="22.6772" height="11.3386" class="st10"/><text x="3.07" y="178.9" class="st11">RES<tspan class="st12">0</tspan></text></g><g id="shape46-126"><title content="structured text">Graphic.117</title><rect x="0" y="170.829" width="11.3386" height="11.3386" class="st1"/></g></g><g id="shape47-128" transform="translate(340.957,-130.411)"><title content="structured text">Graphic.47</title><path d="M0 153.82 L0 182.17 L0 153.82 Z" class="st6"/><path d="M0 153.82 L0 182.17" class="st7"/></g><g id="shape48-131" transform="translate(329.619,-158.761)"><title content="structured text">Bit31.48</title><desc content="structured text">3</desc><text x="3.44" y="178.9" class="st2">3</text></g><g id="shape49-133" transform="translate(318.28,-158.761)"><title content="structured text">Bit31.49</title><desc content="structured text">4</desc><text x="3.44" y="178.9" class="st2">4</text></g><g id="shape50-135" transform="translate(329.619,-130.411)"><title content="structured text">Graphic.50</title><path d="M0 153.82 L0 182.17 L0 153.82 Z" class="st6"/><path d="M0 153.82 L0 182.17" class="st7"/></g><g id="shape51-138" transform="translate(318.28,-130.411)"><title content="structured text">Graphic.51</title><path d="M0 153.82 L0 182.17 L0 153.82 Z" class="st6"/><path d="M0 153.82 L0 182.17" class="st7"/></g><g id="shape52-141" transform="translate(182.217,-130.411)"><title content="structured text">Graphic.52</title><path d="M0 153.82 L0 182.17 L0 153.82 Z" class="st6"/><path d="M0 153.82 L0 182.17" class="st7"/></g><g id="shape53-144" transform="translate(170.879,-158.761)"><title content="structured text">Bit31.53</title><desc content="structured text">17</desc><text x="1.22" y="178.9" class="st2">17</text></g><g id="shape54-146" transform="translate(170.879,-130.414)"><title content="structured text">Graphic.54</title><path d="M0 153.82 L0 182.17 L0 153.82 Z" class="st6"/><path d="M0 153.82 L0 182.17" class="st7"/></g><g id="shape55-149" transform="translate(159.54,-158.761)"><title content="structured text">Bit31.55</title><desc content="structured text">18</desc><text x="1.22" y="178.9" class="st2">18</text></g><g id="shape56-151" transform="translate(379.843,-19.8425) scale(-1,1)"><title content="structured text">Bit name 2.56</title><desc content="structured text">nDS</desc><path d="M204.09 74.45 L204.09 182.17 L0 182.17" class="st8"/><text x="1" y="184.57" transform="scale(-1,1)" class="st2">nDS</text></g><g id="shape57-155" transform="translate(379.843,-99.2126) scale(-1,1)"><title content="structured text">Bit name 2.57</title><desc content="structured text">EOImode_EL3</desc><path d="M34.02 153.82 L34.02 182.17 L0 182.17" class="st8"/><text x="1" y="184.57" transform="scale(-1,1)" class="st2">EOImode_EL3</text></g><g id="shape58-159" transform="translate(379.843,-87.874) scale(-1,1)"><title content="structured text">Bit name 2.58</title><desc content="structured text">EOImode_EL1S</desc><path d="M45.35 142.48 L45.35 182.17 L0 182.17" class="st8"/><text x="1" y="184.57" transform="scale(-1,1)" class="st2">EOImode_EL1S</text></g><g id="shape59-163" transform="translate(379.843,-76.5354) scale(-1,1)"><title content="structured text">Bit name 2.59</title><desc content="structured text">EOImode_EL1NS</desc><path d="M56.69 131.14 L56.69 182.17 L0 182.17" class="st8"/><text x="1" y="184.57" transform="scale(-1,1)" class="st2">EOImode_EL1NS</text></g><g id="shape60-167" transform="translate(379.843,-65.1969) scale(-1,1)"><title content="structured text">Bit name 2.60</title><desc content="structured text">RM</desc><path d="M68.03 119.81 L68.03 182.17 L0 182.17" class="st8"/><text x="1" y="184.57" transform="scale(-1,1)" class="st2">RM</text></g></g></svg>