<?xml version="1.0" encoding="UTF-8" standalone="no"?><!-- Fixed up by svgfix.xsl 1.4  --><!-- Generated by Microsoft Visio 11.0, SVG Export, v1.0 dbgbcrn_el1_64_bit_assignments.svg ARM -->
<!DOCTYPE svg
  PUBLIC "-//W3C//DTD SVG 1.0//EN" "http://www.w3.org/TR/2001/REC-SVG-20010904/DTD/svg10.dtd">
<svg xmlns:xlink="http://www.w3.org/1999/xlink" xmlns="http://www.w3.org/2000/svg" xmlns:ev="http://www.w3.org/2001/xml-events" width="516.149" height="114.386" viewBox="0 0 387.112 85.789" xml:space="preserve" color-interpolation-filters="sRGB" class="st16" preserveAspectRatio="xMidYMid meet" zoomAndPan="magnify" version="1.0" contentScriptType="text/ecmascript" contentStyleType="text/css"><style type="text/css" xml:space="preserve"><![CDATA[
	
		.st1 {fill:#eed9b3;stroke:#000000;stroke-linecap:butt;stroke-width:0.5px}
		.st2 {fill:#eed9b3;stroke:none;stroke-linecap:round;stroke-linejoin:round;stroke-width:0.2px}
		.st3 {fill:none;stroke:none;stroke-linecap:round;stroke-linejoin:round;stroke-width:0.2px}
		.st4 {fill:#000000;font-family:Arial,Helvetica,sans-serif;font-size:0.666664em}
		.st5 {font-size:1em}
		.st6 {fill:none;visibility:hidden}
		.st7 {stroke:#000000;stroke-linecap:butt;stroke-width:0.8px}
		.st8 {stroke:#000000;stroke-dasharray:0.25,0.5;stroke-linecap:butt;stroke-width:0.25px}
		.st9 {fill:none;stroke:none;stroke-linecap:butt;stroke-width:0.5px}
		.st10 {fill:#ffffff;stroke:none;stroke-linecap:butt;stroke-width:7.2px}
		.st11 {stroke:#000000;stroke-linecap:butt;stroke-width:0.5px}
		.st12 {fill:none;stroke:none;stroke-linecap:butt;stroke-width:0.499999px}
		.st13 {fill:#000000;font-family:Arial,Helvetica,sans-serif;font-size:0.533318em}
		.st14 {font-size:1.25003em}
		.st15 {fill:#eed9b3;stroke:none;stroke-linecap:round;stroke-linejoin:round;stroke-width:0.2px}
		.st16 {fill:none;fill-rule:evenodd;font-size:12px;overflow:visible;stroke-linecap:square;stroke-miterlimit:3}]]></style><g xmlns:v="http://schemas.microsoft.com/visio/2003/SVGExtensions/"><title content="structured text">ARM</title><g id="shape54-1" transform="translate(12.189,-34.5827)"><title content="structured text">Sheet.54</title><rect x="0" y="57.4429" width="90.7087" height="28.3465" class="st1"/></g><g id="shape20-3" transform="translate(227.572,-34.5157)"><title content="structured text">Sheet.20</title><rect x="0" y="57.4429" width="45.3543" height="28.3465" class="st2"/></g><g id="shape55-5" transform="translate(318.331,-34.5827)"><title content="structured text">Sheet.55</title><rect x="0" y="57.4429" width="22.6772" height="28.3465" class="st1"/></g><g id="shape1-7" transform="translate(363.635,-34.5157)"><title content="structured text">Sheet.1</title><rect x="0" y="57.4429" width="11.3386" height="28.3465" class="st3"/></g><g id="shape2-9" transform="translate(12.1386,-62.8622)"><title content="structured text">Sheet.2</title><desc content="structured text">31</desc><text x="1.22" y="82.52" class="st4">31</text></g><g id="shape3-11" transform="translate(91.5087,-62.8622)"><title content="structured text">Sheet.3</title><desc content="structured text">24</desc><text x="1.22" y="82.52" class="st4">24</text></g><g id="shape4-13" transform="translate(102.847,-62.8622)"><title content="structured text">Sheet.4</title><desc content="structured text">23</desc><text x="1.22" y="82.52" class="st4">23</text></g><g id="shape5-15" transform="translate(136.863,-62.8622)"><title content="structured text">Sheet.5</title><desc content="structured text">20</desc><text x="1.22" y="82.52" class="st4">20</text></g><g id="shape6-17" transform="translate(148.202,-62.8622)"><title content="structured text">Sheet.6</title><desc content="structured text">19</desc><text x="1.22" y="82.52" class="st4">19</text></g><g id="shape7-19" transform="translate(182.217,-62.8622)"><title content="structured text">Sheet.7</title><desc content="structured text">16</desc><text x="1.22" y="82.52" class="st4">16</text></g><g id="shape8-21" transform="translate(193.556,-62.8622)"><title content="structured text">Sheet.8</title><desc content="structured text">15</desc><text x="1.22" y="82.52" class="st4">15</text></g><g id="shape9-23" transform="translate(216.233,-62.8622)"><title content="structured text">Sheet.9</title><desc content="structured text">13</desc><text x="1.22" y="82.52" class="st4">13</text></g><g id="shape10-25" transform="translate(261.587,-62.8622)"><title content="structured text">Sheet.10</title><desc content="structured text">9</desc><text x="3.44" y="82.52" class="st4">9</text></g><g id="shape11-27" transform="translate(272.926,-62.8622)"><title content="structured text">Sheet.11</title><desc content="structured text">8</desc><text x="3.44" y="82.52" class="st4">8</text></g><g id="shape12-29" transform="translate(306.942,-62.8622)"><title content="structured text">Sheet.12</title><desc content="structured text">5</desc><text x="3.44" y="82.52" class="st4">5</text></g><g id="shape13-31" transform="translate(318.28,-62.8622)"><title content="structured text">Sheet.13</title><desc content="structured text">4</desc><text x="3.44" y="82.52" class="st4">4</text></g><g id="shape14-33" transform="translate(329.619,-62.8622)"><title content="structured text">Sheet.14</title><desc content="structured text">3</desc><text x="3.44" y="82.52" class="st4">3</text></g><g id="shape15-35" transform="translate(340.957,-62.8622)"><title content="structured text">Sheet.15</title><desc content="structured text">2</desc><text x="3.44" y="82.52" class="st4">2</text></g><g id="shape16-37" transform="translate(352.296,-62.8622)"><title content="structured text">Sheet.16</title><desc content="structured text">1</desc><text x="3.44" y="82.52" class="st4">1</text></g><g id="shape17-39" transform="translate(363.635,-62.8622)"><title content="structured text">Sheet.17</title><desc content="structured text">0</desc><text x="3.44" y="82.52" class="st4">0</text></g><g id="shape18-41" transform="translate(148.202,-34.5157)"><title content="structured text">Sheet.18</title><desc content="structured text">LBN</desc><rect x="0" y="57.4429" width="45.3543" height="28.3465" class="st3"/><text x="14.9" y="74.02" class="st4">LB<tspan class="st5">N</tspan></text></g><g id="shape19-45" transform="translate(193.556,-34.5157)"><title content="structured text">Sheet.19</title><rect x="0" y="57.4429" width="34.0157" height="28.3465" class="st3"/></g><g id="shape21-47" transform="translate(272.926,-34.5157)"><title content="structured text">Sheet.21</title><rect x="0" y="57.4429" width="45.3543" height="28.3465" class="st3"/></g><g id="shape22-49" transform="translate(340.957,-34.5157)"><title content="structured text">Sheet.22</title><rect x="0" y="57.4429" width="22.6772" height="28.3465" class="st3"/></g><g id="shape23-51" transform="translate(12.1386,-34.5157)"><title content="structured text">Sheet.23</title><rect x="0" y="57.4429" width="362.835" height="28.3465" class="st6"/><rect x="0" y="57.4429" width="362.835" height="28.3465" class="st7"/></g><g id="shape24-54" transform="translate(102.847,-34.5157)"><title content="structured text">Sheet.24</title><path d="M0 57.44 L0 85.79" class="st7"/></g><g id="shape25-57" transform="translate(148.202,-34.5157)"><title content="structured text">Sheet.25</title><path d="M0 57.44 L0 85.79" class="st7"/></g><g id="shape26-60" transform="translate(193.556,-34.5157)"><title content="structured text">Sheet.26</title><path d="M0 57.44 L0 85.79" class="st7"/></g><g id="shape27-63" transform="translate(272.926,-34.5157)"><title content="structured text">Sheet.27</title><path d="M0 57.44 L0 85.79" class="st7"/></g><g id="shape28-66" transform="translate(318.28,-34.5157)"><title content="structured text">Sheet.28</title><path d="M0 57.44 L0 85.79" class="st7"/></g><g id="shape29-69" transform="translate(340.957,-34.5157)"><title content="structured text">Sheet.29</title><path d="M0 57.44 L0 85.79" class="st7"/></g><g id="shape30-72" transform="translate(363.635,-34.5157)"><title content="structured text">Sheet.30</title><path d="M0 57.44 L0 85.79" class="st7"/></g><g id="shape31-75" transform="translate(415.408,11.5886) rotate(90)"><title content="structured text">Signal 0</title><path d="M0 85.79 L11.34 85.79" class="st8"/></g><g id="shape32-78" transform="translate(370.054,11.5886) rotate(90)"><title content="structured text">Signal 0.102</title><path d="M0 85.79 L11.34 85.79" class="st8"/></g><g id="shape33-81" transform="translate(324.7,11.5886) rotate(90)"><title content="structured text">Signal 0.103</title><path d="M0 85.79 L11.34 85.79" class="st8"/></g><g id="shape34-84" transform="translate(279.345,11.5886) rotate(90)"><title content="structured text">Signal 0.104</title><path d="M0 85.79 L11.34 85.79" class="st8"/></g><g id="shape35-87" transform="translate(233.991,11.5886) rotate(90)"><title content="structured text">Signal 0.105</title><path d="M0 85.79 L11.34 85.79" class="st8"/></g><g id="shape36-90" transform="translate(188.637,11.5886) rotate(90)"><title content="structured text">Signal 0.106</title><path d="M0 85.79 L11.34 85.79" class="st8"/></g><g id="shape37-93" transform="translate(143.282,11.5886) rotate(90)"><title content="structured text">Signal 0.107</title><path d="M0 85.79 L11.34 85.79" class="st8"/></g><g id="shape38-96" transform="translate(97.928,11.5886) rotate(90)"><title content="structured text">Signal 0.108</title><path d="M0 85.79 L11.34 85.79" class="st8"/></g><g id="shape39-99" transform="translate(460.763,11.5886) rotate(90)"><title content="structured text">Signal 0.109</title><path d="M0 85.79 L11.34 85.79" class="st8"/></g><g id="shape40-102" transform="translate(102.847,-34.5157)"><title content="structured text">Block</title><rect x="0" y="57.4429" width="45.3543" height="28.3465" class="st9"/></g><g id="shape41-104" transform="translate(193.556,-34.5157)"><title content="structured text">Block.9</title><desc content="structured text">SSC</desc><rect x="0" y="57.4429" width="22.6772" height="28.3465" class="st9"/><rect x="2.61392" y="66.8162" width="16.449" height="9.59985" class="st10"/><text x="2.61" y="74.02" class="st4">S<tspan class="st5">SC</tspan></text></g><g id="shape42-109" transform="translate(227.572,-62.8622)"><title content="structured text">32-bit register.112</title><desc content="structured text">12</desc><text x="1.22" y="82.52" class="st4">12</text></g><g id="shape43-111" transform="translate(227.572,-34.5157)"><title content="structured text">32-bit register.85</title><path d="M0 57.44 L0 85.79" class="st7"/></g><g id="shape44-114" transform="translate(221.902,-23.1772)"><title content="structured text">Sheet.44</title><path d="M0 77.29 L0 85.79 L8.5 85.79" class="st11"/></g><g id="shape45-117" transform="translate(230.406,-17.5079)"><title content="structured text">Block.115</title><desc content="structured text">HMC</desc><rect x="0" y="74.4508" width="22.6772" height="11.3386" class="st9"/><rect x="1.00003" y="75.3201" width="18.2189" height="9.59985" class="st10"/><text x="1" y="82.52" class="st4">H<tspan class="st5">MC</tspan></text></g><g id="shape46-122" transform="translate(204.894,-62.8622)"><title content="structured text">32-bit register.15</title><desc content="structured text">14</desc><text x="1.22" y="82.52" class="st4">14</text></g><g id="shape47-124" transform="translate(216.233,-34.5157)"><title content="structured text">32-bit register.18</title><path d="M0 57.44 L0 85.79" class="st7"/></g><g id="shape48-127" transform="translate(102.847,-34.5157)"><title content="structured text">Sheet.48</title><desc content="structured text">BT</desc><rect x="0" y="57.4429" width="45.3543" height="28.3465" class="st9"/><text x="17.57" y="74.02" class="st4">BT</text></g><g id="shape51-130" transform="translate(272.926,-34.5157)"><title content="structured text">Sheet.51</title><desc content="structured text">BAS</desc><rect x="0" y="57.4429" width="45.3543" height="28.3465" class="st3"/><text x="14.67" y="74.02" class="st4">BAS</text></g><g id="shape52-133" transform="translate(340.957,-34.5157)"><title content="structured text">Block.2</title><desc content="structured text">PMC</desc><rect x="0" y="57.4429" width="22.6772" height="28.3465" class="st9"/><rect x="1.9498" y="66.8162" width="17.7773" height="9.59985" class="st10"/><text x="1.95" y="74.02" class="st4">PMC</text></g><g id="shape53-137" transform="translate(363.635,-34.5157)"><title content="structured text">Block.117</title><desc content="structured text">E</desc><rect x="0" y="57.4429" width="11.3386" height="28.3465" class="st9"/><rect x="1.00003" y="66.8162" width="7.55832" height="9.59985" class="st10"/><text x="3.22" y="74.02" class="st4">E</text></g><g id="shape56-141" transform="translate(22.5786,-11.8386)"><title content="structured text">Rectangle No Fill No Fill.116</title><desc content="structured text">res0</desc><rect x="0" y="74.4508" width="19.8425" height="11.3386" class="st12"/><text x="1.24" y="82.52" class="st13">RES<tspan class="st14">0</tspan></text></g><g id="shape57-145" transform="translate(12.1386,-11.8386)"><title content="structured text">Graphic.117</title><rect x="0" y="74.4508" width="10.44" height="11.3386" class="st15"/></g></g></svg>