<?xml version="1.0" encoding="UTF-8" standalone="no"?><!-- Fixed up by svgfix.xsl 1.4  --><!-- Generated by Microsoft Visio 11.0, SVG Export, v1.0 ccsidr_bit_assignments.svg Page-1 -->
<!DOCTYPE svg
  PUBLIC "-//W3C//DTD SVG 1.0//EN" "http://www.w3.org/TR/2001/REC-SVG-20010904/DTD/svg10.dtd">
<svg xmlns:xlink="http://www.w3.org/1999/xlink" xmlns="http://www.w3.org/2000/svg" width="515.105" height="88.702" viewBox="0 0 386.329 66.527" xml:space="preserve" color-interpolation-filters="sRGB" class="st8" preserveAspectRatio="xMidYMid meet" zoomAndPan="magnify" version="1.0" contentScriptType="text/ecmascript" contentStyleType="text/css"><style type="text/css" xml:space="preserve"><![CDATA[
	
		.st1 {stroke:#000000;stroke-linecap:butt;stroke-width:0.5px}
		.st2 {fill:none;stroke:none;stroke-linecap:round;stroke-linejoin:round;stroke-width:0.2px}
		.st3 {fill:#000000;font-family:Arial,Helvetica,sans-serif;font-size:0.666664em}
		.st4 {fill:#ffffff;visibility:hidden}
		.st5 {stroke:#000000;stroke-linecap:butt;stroke-width:0.8px}
		.st6 {stroke:#000000;stroke-dasharray:0.25,0.5;stroke-linecap:butt;stroke-width:0.25px}
		.st7 {fill:#ffffff;stroke:#000000;stroke-linecap:butt;stroke-width:0.5px}
		.st8 {fill:none;fill-rule:evenodd;font-size:12px;overflow:visible;stroke-linecap:square;stroke-miterlimit:3}]]></style><g xmlns:v="http://schemas.microsoft.com/visio/2003/SVGExtensions/"><title content="structured text">Page-1</title><g id="shape4-1" transform="translate(73.7178,-18.0878) scale(-1,1)"><title content="structured text">Sheet.4</title><path d="M11.34 60.86 L11.34 66.53 L0 66.53" class="st1"/></g><g id="shape5-4" transform="translate(17.0248,-6.74925)"><title content="structured text">Sheet.5</title><path d="M22.68 49.52 L22.68 66.53 L0 66.53" class="st1"/></g><g id="shape7-7" transform="translate(0.0169691,-1.07996)"><title content="structured text">Sheet.7</title><desc content="structured text">WB</desc><rect x="0" y="55.1882" width="14.1732" height="11.3386" class="st2"/><text x="1.29" y="63.26" class="st3">WB</text></g><g id="shape8-10" transform="translate(22.6941,-54.9382)"><title content="structured text">Sheet.8</title><desc content="structured text">31</desc><text x="1.22" y="63.26" class="st3">31</text></g><g id="shape9-12" transform="translate(56.7099,-54.9382)"><title content="structured text">Sheet.9</title><desc content="structured text">28</desc><text x="1.22" y="63.26" class="st3">28</text></g><g id="shape10-14" transform="translate(68.0485,-54.9382)"><title content="structured text">Sheet.10</title><desc content="structured text">27</desc><text x="1.22" y="63.26" class="st3">27</text></g><g id="shape11-16" transform="translate(238.127,-54.9382)"><title content="structured text">Sheet.11</title><desc content="structured text">12</desc><text x="1.22" y="63.26" class="st3">12</text></g><g id="shape12-18" transform="translate(340.174,-54.9382)"><title content="structured text">Sheet.12</title><desc content="structured text">3</desc><text x="3.44" y="63.26" class="st3">3</text></g><g id="shape13-20" transform="translate(374.19,-54.9382)"><title content="structured text">Sheet.13</title><desc content="structured text">0</desc><text x="3.44" y="63.26" class="st3">0</text></g><g id="shape14-22" transform="translate(22.6941,-26.5918)"><title content="structured text">Sheet.14</title><rect x="0" y="38.1804" width="362.835" height="28.3465" class="st4"/><rect x="0" y="38.1804" width="362.835" height="28.3465" class="st5"/></g><g id="shape15-25" transform="translate(56.7099,-26.5918)"><title content="structured text">Sheet.15</title><path d="M0 38.18 L0 66.53" class="st5"/></g><g id="shape16-28" transform="translate(238.127,-26.5918)"><title content="structured text">Sheet.16</title><path d="M0 38.18 L0 66.53" class="st5"/></g><g id="shape17-31" transform="translate(351.513,-26.5918)"><title content="structured text">Sheet.17</title><path d="M0 38.18 L0 66.53" class="st5"/></g><g id="shape18-34" transform="translate(406.701,0.25) rotate(90)"><title content="structured text">Signal 0</title><path d="M0 66.53 L11.34 66.53" class="st6"/></g><g id="shape19-37" transform="translate(361.347,0.25) rotate(90)"><title content="structured text">Signal 0.102</title><path d="M0 66.53 L11.34 66.53" class="st6"/></g><g id="shape20-40" transform="translate(315.993,0.25) rotate(90)"><title content="structured text">Signal 0.103</title><path d="M0 66.53 L11.34 66.53" class="st6"/></g><g id="shape21-43" transform="translate(270.638,0.25) rotate(90)"><title content="structured text">Signal 0.104</title><path d="M0 66.53 L11.34 66.53" class="st6"/></g><g id="shape22-46" transform="translate(225.284,0.25) rotate(90)"><title content="structured text">Signal 0.105</title><path d="M0 66.53 L11.34 66.53" class="st6"/></g><g id="shape23-49" transform="translate(179.93,0.25) rotate(90)"><title content="structured text">Signal 0.106</title><path d="M0 66.53 L11.34 66.53" class="st6"/></g><g id="shape24-52" transform="translate(134.575,0.25) rotate(90)"><title content="structured text">Signal 0.107</title><path d="M0 66.53 L11.34 66.53" class="st6"/></g><g id="shape25-55" transform="translate(89.2209,0.25) rotate(90)"><title content="structured text">Signal 0.108</title><path d="M0 66.53 L11.34 66.53" class="st6"/></g><g id="shape26-58" transform="translate(452.056,0.25) rotate(90)"><title content="structured text">Signal 0.109</title><path d="M0 66.53 L11.34 66.53" class="st6"/></g><g id="shape27-61" transform="translate(76.5524,-0.0169691)"><title content="structured text">Sheet.27</title><desc content="structured text">RA</desc><rect x="0" y="55.1882" width="14.1732" height="11.3386" class="st2"/><text x="0" y="63.26" class="st3">RA</text></g><g id="shape28-64" transform="translate(323.167,-12.4185)"><title content="structured text">Sheet.28</title><desc content="structured text">LineSize</desc><rect x="0" y="55.1882" width="31.1811" height="11.3386" class="st2"/><text x="0.49" y="63.26" class="st3">LineSize</text></g><g id="shape29-67" transform="translate(357.182,-18.0878)"><title content="structured text">Sheet.29</title><path d="M11.34 60.86 L11.34 66.53 L0 66.53" class="st1"/></g><g id="shape30-70" transform="translate(17.0248,-18.0878)"><title content="structured text">Sheet.30</title><path d="M11.34 60.86 L11.34 66.53 L0 66.53" class="st1"/></g><g id="shape31-73" transform="translate(0.0169691,-12.4185)"><title content="structured text">Sheet.31</title><desc content="structured text">WT</desc><rect x="0" y="55.1882" width="14.1732" height="11.3386" class="st2"/><text x="1.74" y="63.26" class="st3">WT</text></g><g id="shape33-76" transform="translate(34.0327,-26.5918)"><title content="structured text">32-bit register.450</title><path d="M0 38.18 L0 66.53" class="st5"/></g><g id="shape34-79" transform="translate(34.0327,-54.9382)"><title content="structured text">32-bit register.451</title><desc content="structured text">30</desc><text x="1.22" y="63.26" class="st3">30</text></g><g id="shape35-81" transform="translate(45.3713,-26.5918)"><title content="structured text">32-bit register.452</title><path d="M0 38.18 L0 66.53" class="st5"/></g><g id="shape36-84" transform="translate(45.3713,-54.9382)"><title content="structured text">32-bit register.453</title><desc content="structured text">29</desc><text x="1.22" y="63.26" class="st3">29</text></g><g id="shape37-86" transform="translate(68.0485,-26.5918)"><title content="structured text">Sheet.37</title><path d="M0 38.18 L0 66.53" class="st5"/></g><g id="shape38-89" transform="translate(226.789,-54.9382)"><title content="structured text">32-bit register.72</title><desc content="structured text">13</desc><text x="1.22" y="63.26" class="st3">13</text></g><g id="shape39-91" transform="translate(351.513,-54.9382)"><title content="structured text">32-bit register.73</title><desc content="structured text">2</desc><text x="3.44" y="63.26" class="st3">2</text></g><g id="shape40-93" transform="translate(73.7178,-6.74925) scale(-1,1)"><title content="structured text">Sheet.40</title><path d="M22.68 49.52 L22.68 66.53 L0 66.53" class="st1"/></g><g id="shape41-96" transform="translate(76.5524,-12.4185)"><title content="structured text">Sheet.41</title><desc content="structured text">WA</desc><rect x="0" y="55.1882" width="14.1732" height="11.3386" class="st2"/><text x="0" y="63.26" class="st3">WA</text></g><g id="shape42-99" transform="translate(68.0485,-26.5918)"><title content="structured text">Block</title><desc content="structured text">NumSets</desc><rect x="0" y="38.1804" width="170.079" height="28.3465" class="st7"/><text x="68.59" y="54.75" class="st3">NumSets</text></g><g id="shape43-102" transform="translate(238.127,-26.5918)"><title content="structured text">Block.43</title><desc content="structured text">Associativity</desc><rect x="0" y="38.1804" width="113.386" height="28.3465" class="st7"/><text x="34.69" y="54.75" class="st3">Associativity</text></g></g></svg>