<?xml version="1.0" encoding="UTF-8" standalone="no"?><!-- Fixed up by svgfix.xsl 1.4  --><!-- Generated by Microsoft Visio 11.0, SVG Export, v1.0 pmcfgr_bit_assignments.svg ARM -->
<!DOCTYPE svg
  PUBLIC "-//W3C//DTD SVG 1.0//EN" "http://www.w3.org/TR/2001/REC-SVG-20010904/DTD/svg10.dtd">
<svg xmlns:xlink="http://www.w3.org/1999/xlink" xmlns="http://www.w3.org/2000/svg" xmlns:ev="http://www.w3.org/2001/xml-events" width="516.149" height="125.789" viewBox="0 0 387.112 94.341" xml:space="preserve" color-interpolation-filters="sRGB" class="st12" preserveAspectRatio="xMidYMid meet" zoomAndPan="magnify" version="1.0" contentScriptType="text/ecmascript" contentStyleType="text/css"><style type="text/css" xml:space="preserve"><![CDATA[
	
		.st1 {fill:#eed9b3;stroke:#000000;stroke-linecap:butt;stroke-width:0.5px}
		.st2 {fill:#000000;font-family:Arial,Helvetica,sans-serif;font-size:0.666664em}
		.st3 {fill:none;visibility:hidden}
		.st4 {stroke:#000000;stroke-linecap:butt;stroke-width:0.8px}
		.st5 {stroke:#000000;stroke-dasharray:0.25,0.5;stroke-linecap:butt;stroke-width:0.25px}
		.st6 {fill:none;stroke:none;stroke-linecap:butt;stroke-width:0.5px}
		.st7 {stroke:#000000;stroke-linecap:butt;stroke-width:0.5px}
		.st8 {fill:none;stroke:none;stroke-linecap:butt;stroke-width:0.499999px}
		.st9 {fill:#000000;font-family:Arial,Helvetica,sans-serif;font-size:0.533318em}
		.st10 {font-size:1.25003em}
		.st11 {fill:#eed9b3;stroke:none;stroke-linecap:round;stroke-linejoin:round;stroke-width:0.2px}
		.st12 {fill:none;fill-rule:evenodd;font-size:12px;overflow:visible;stroke-linecap:square;stroke-miterlimit:3}]]></style><g xmlns:v="http://schemas.microsoft.com/visio/2003/SVGExtensions/"><title content="structured text">ARM</title><g id="shape33-1" transform="translate(12.189,-43.0866)"><title content="structured text">Sheet.33</title><rect x="0" y="65.9948" width="170.079" height="28.3465" class="st1"/></g><g id="group1-3" transform="translate(12.1386,-43.0677)"><title content="structured text">32-bit register.17</title><g id="shape2-4" transform="translate(8.49321E-014,-28.3465)"><title content="structured text">Sheet.2</title><desc content="structured text">31</desc><text x="1.22" y="91.07" class="st2">31</text></g><g id="shape3-6" transform="translate(158.74,-28.3465)"><title content="structured text">Sheet.3</title><desc content="structured text">17</desc><text x="1.22" y="91.07" class="st2">17</text></g><g id="shape4-8" transform="translate(170.079,-28.3465)"><title content="structured text">Sheet.4</title><desc content="structured text">16</desc><text x="1.22" y="91.07" class="st2">16</text></g><g id="shape5-10" transform="translate(181.417,-28.3465)"><title content="structured text">Sheet.5</title><desc content="structured text">15</desc><text x="1.22" y="91.07" class="st2">15</text></g><g id="shape6-12" transform="translate(192.756,-28.3465)"><title content="structured text">Sheet.6</title><desc content="structured text">14</desc><text x="1.22" y="91.07" class="st2">14</text></g><g id="shape7-14" transform="translate(204.094,-28.3465)"><title content="structured text">Sheet.7</title><desc content="structured text">13</desc><text x="1.22" y="91.07" class="st2">13</text></g><g id="shape8-16" transform="translate(260.787,-28.3465)"><title content="structured text">Sheet.8</title><desc content="structured text">8</desc><text x="3.44" y="91.07" class="st2">8</text></g><g id="shape9-18" transform="translate(272.126,-28.3465)"><title content="structured text">Sheet.9</title><desc content="structured text">7</desc><text x="3.44" y="91.07" class="st2">7</text></g><g id="shape10-20" transform="translate(351.496,-28.3465)"><title content="structured text">Sheet.10</title><desc content="structured text">0</desc><text x="3.44" y="91.07" class="st2">0</text></g><g id="shape11-22"><title content="structured text">Sheet.11</title><rect x="0" y="65.9948" width="362.835" height="28.3465" class="st3"/><rect x="0" y="65.9948" width="362.835" height="28.3465" class="st4"/></g><g id="shape12-25" transform="translate(170.079,-1.42109E-014)"><title content="structured text">Sheet.12</title><path d="M0 65.99 L0 94.34" class="st4"/></g><g id="shape13-28" transform="translate(181.417,-1.42109E-014)"><title content="structured text">Sheet.13</title><path d="M0 65.99 L0 94.34" class="st4"/></g><g id="shape14-31" transform="translate(192.756,-1.42109E-014)"><title content="structured text">Sheet.14</title><path d="M0 65.99 L0 94.34" class="st4"/></g><g id="shape15-34" transform="translate(204.094,-1.42109E-014)"><title content="structured text">Sheet.15</title><path d="M0 65.99 L0 94.34" class="st4"/></g><g id="shape16-37" transform="translate(272.126,-1.42109E-014)"><title content="structured text">Sheet.16</title><path d="M0 65.99 L0 94.34" class="st4"/></g><g id="shape17-40" transform="translate(411.822,54.6562) rotate(90)"><title content="structured text">Signal 0</title><path d="M0 94.34 L11.34 94.34" class="st5"/></g><g id="shape18-43" transform="translate(366.467,54.6562) rotate(90)"><title content="structured text">Signal 0.102</title><path d="M0 94.34 L11.34 94.34" class="st5"/></g><g id="shape19-46" transform="translate(321.113,54.6562) rotate(90)"><title content="structured text">Signal 0.103</title><path d="M0 94.34 L11.34 94.34" class="st5"/></g><g id="shape20-49" transform="translate(275.759,54.6562) rotate(90)"><title content="structured text">Signal 0.104</title><path d="M0 94.34 L11.34 94.34" class="st5"/></g><g id="shape21-52" transform="translate(230.404,54.6562) rotate(90)"><title content="structured text">Signal 0.105</title><path d="M0 94.34 L11.34 94.34" class="st5"/></g><g id="shape22-55" transform="translate(185.05,54.6562) rotate(90)"><title content="structured text">Signal 0.106</title><path d="M0 94.34 L11.34 94.34" class="st5"/></g><g id="shape23-58" transform="translate(139.696,54.6562) rotate(90)"><title content="structured text">Signal 0.107</title><path d="M0 94.34 L11.34 94.34" class="st5"/></g><g id="shape24-61" transform="translate(94.3413,54.6562) rotate(90)"><title content="structured text">Signal 0.108</title><path d="M0 94.34 L11.34 94.34" class="st5"/></g><g id="shape25-64" transform="translate(457.176,54.6562) rotate(90)"><title content="structured text">Signal 0.109</title><path d="M0 94.34 L11.34 94.34" class="st5"/></g></g><g id="shape26-67" transform="translate(284.265,-43.0677)"><title content="structured text">Sheet.26</title><desc content="structured text">N</desc><rect x="0" y="65.9948" width="90.7087" height="28.3465" class="st6"/><text x="42.47" y="82.57" class="st2">N</text></g><g id="shape27-70" transform="translate(224.737,-11.8866)"><title content="structured text">Sheet.27</title><desc content="structured text">EX</desc><rect x="0" y="85.8373" width="14.1732" height="8.50394" class="st6"/><text x="1" y="92.49" class="st2">EX</text></g><g id="shape28-73" transform="translate(187.887,-14.7212)"><title content="structured text">Sheet.28</title><path d="M0 68.83 L0 94.34 L34.02 94.34" class="st7"/></g><g id="shape29-76" transform="translate(224.737,-20.3905)"><title content="structured text">Sheet.29</title><desc content="structured text">CCD</desc><rect x="0" y="85.8373" width="19.8425" height="8.50394" class="st6"/><text x="1" y="92.49" class="st2">CCD</text></g><g id="shape30-79" transform="translate(224.737,-28.8944)"><title content="structured text">Sheet.30</title><desc content="structured text">CC</desc><rect x="0" y="85.8373" width="14.1732" height="8.50394" class="st6"/><text x="1" y="92.49" class="st2">CC</text></g><g id="shape31-82" transform="translate(199.225,-23.2251)"><title content="structured text">Sheet.31</title><path d="M0 77.33 L0 94.34 L22.68 94.34" class="st7"/></g><g id="shape32-85" transform="translate(210.564,-31.7291)"><title content="structured text">Sheet.32</title><path d="M0 85.84 L0 94.34 L11.34 94.34" class="st7"/></g><g id="shape34-88" transform="translate(216.233,-43.0677)"><title content="structured text">Sheet.34</title><desc content="structured text">Size</desc><rect x="0" y="65.9948" width="68.0315" height="28.3465" class="st6"/><text x="26.23" y="82.57" class="st2">Size</text></g><g id="shape35-91" transform="translate(22.5786,-20.3905)"><title content="structured text">Rectangle No Fill No Fill.116</title><desc content="structured text">res0</desc><rect x="0" y="83.0027" width="19.8425" height="11.3386" class="st8"/><text x="1.24" y="91.07" class="st9">RES<tspan class="st10">0</tspan></text></g><g id="shape36-95" transform="translate(12.1386,-20.3905)"><title content="structured text">Graphic.117</title><rect x="0" y="83.0027" width="10.44" height="11.3386" class="st11"/></g></g></svg>