<?xml version="1.0" encoding="UTF-8" standalone="no"?><!-- Fixed up by svgfix.xsl 1.4  --><!-- Generated by Microsoft Visio 11.0, SVG Export, v1.0 trcseqstr_bit_assignments.svg ARM -->
<!DOCTYPE svg
  PUBLIC "-//W3C//DTD SVG 1.0//EN" "http://www.w3.org/TR/2001/REC-SVG-20010904/DTD/svg10.dtd">
<svg xmlns:xlink="http://www.w3.org/1999/xlink" xmlns="http://www.w3.org/2000/svg" xmlns:ev="http://www.w3.org/2001/xml-events" width="524.741" height="114.386" viewBox="0 0 393.556 85.789" xml:space="preserve" color-interpolation-filters="sRGB" class="st13" preserveAspectRatio="xMidYMid meet" zoomAndPan="magnify" version="1.0" contentScriptType="text/ecmascript" contentStyleType="text/css"><style type="text/css" xml:space="preserve"><![CDATA[
	
		.st1 {fill:#ffffff;stroke:none;stroke-linecap:round;stroke-linejoin:round;stroke-width:0.2px}
		.st2 {fill:#000000;font-family:Arial,Helvetica,sans-serif;font-size:0.666664em}
		.st3 {fill:#ffffff;visibility:hidden}
		.st4 {stroke:#000000;stroke-linecap:butt;stroke-width:0.8px}
		.st5 {stroke:#000000;stroke-dasharray:0.25,1;stroke-linecap:butt;stroke-width:0.25px}
		.st6 {fill:#eed9b3;stroke:#000000;stroke-linecap:butt;stroke-width:0.5px}
		.st7 {stroke:#000000;stroke-linecap:butt;stroke-width:0.5px}
		.st8 {fill:none;stroke:none;stroke-linecap:butt;stroke-width:0.5px}
		.st9 {fill:none;stroke:none;stroke-linecap:butt;stroke-width:0.499999px}
		.st10 {fill:#000000;font-family:Arial,Helvetica,sans-serif;font-size:0.533318em}
		.st11 {font-size:1.25003em}
		.st12 {fill:#eed9b3;stroke:none;stroke-linecap:round;stroke-linejoin:round;stroke-width:0.2px}
		.st13 {fill:none;fill-rule:evenodd;font-size:12px;overflow:visible;stroke-linecap:square;stroke-miterlimit:3}]]></style><g xmlns:v="http://schemas.microsoft.com/visio/2003/SVGExtensions/"><title content="structured text">ARM</title><g id="group1-1" transform="translate(12.1386,-34.5157)"><title content="structured text">32-bit register</title><g id="shape2-2" transform="translate(351.496,0)"><title content="structured text">Sheet.2</title><rect x="0" y="57.4429" width="11.3386" height="28.3465" class="st1"/></g><g id="shape3-4"><title content="structured text">Sheet.3</title><rect x="0" y="57.4429" width="11.3386" height="28.3465" class="st1"/></g><g id="shape4-6" transform="translate(8.49321E-014,-28.3465)"><title content="structured text">Sheet.4</title><desc content="structured text">31</desc><text x="1.22" y="82.52" class="st2">31</text></g><g id="shape34-8" transform="translate(340.157,-28.3465)"><title content="structured text">Sheet.34</title><desc content="structured text">1</desc><text x="3.44" y="82.52" class="st2">1</text></g><g id="shape35-10" transform="translate(351.496,-28.3465)"><title content="structured text">Sheet.35</title><desc content="structured text">0</desc><text x="3.44" y="82.52" class="st2">0</text></g><g id="shape36-12" transform="translate(11.3386,0)"><title content="structured text">Sheet.36</title><rect x="0" y="57.4429" width="11.3386" height="28.3465" class="st1"/></g><g id="shape37-14" transform="translate(22.6772,0)"><title content="structured text">Sheet.37</title><rect x="0" y="57.4429" width="11.3386" height="28.3465" class="st1"/></g><g id="shape38-16" transform="translate(34.0157,0)"><title content="structured text">Sheet.38</title><rect x="0" y="57.4429" width="11.3386" height="28.3465" class="st1"/></g><g id="shape39-18" transform="translate(45.3543,0)"><title content="structured text">Sheet.39</title><rect x="0" y="57.4429" width="11.3386" height="28.3465" class="st1"/></g><g id="shape40-20" transform="translate(56.6929,0)"><title content="structured text">Sheet.40</title><rect x="0" y="57.4429" width="11.3386" height="28.3465" class="st1"/></g><g id="shape41-22" transform="translate(68.0315,0)"><title content="structured text">Sheet.41</title><rect x="0" y="57.4429" width="11.3386" height="28.3465" class="st1"/></g><g id="shape42-24" transform="translate(79.3701,0)"><title content="structured text">Sheet.42</title><rect x="0" y="57.4429" width="11.3386" height="28.3465" class="st1"/></g><g id="shape43-26" transform="translate(90.7087,0)"><title content="structured text">Sheet.43</title><rect x="0" y="57.4429" width="11.3386" height="28.3465" class="st1"/></g><g id="shape44-28" transform="translate(102.047,0)"><title content="structured text">Sheet.44</title><rect x="0" y="57.4429" width="11.3386" height="28.3465" class="st1"/></g><g id="shape45-30" transform="translate(113.386,0)"><title content="structured text">Sheet.45</title><rect x="0" y="57.4429" width="11.3386" height="28.3465" class="st1"/></g><g id="shape46-32" transform="translate(124.724,0)"><title content="structured text">Sheet.46</title><rect x="0" y="57.4429" width="11.3386" height="28.3465" class="st1"/></g><g id="shape47-34" transform="translate(136.063,0)"><title content="structured text">Sheet.47</title><rect x="0" y="57.4429" width="11.3386" height="28.3465" class="st1"/></g><g id="shape48-36" transform="translate(147.402,0)"><title content="structured text">Sheet.48</title><rect x="0" y="57.4429" width="11.3386" height="28.3465" class="st1"/></g><g id="shape49-38" transform="translate(158.74,0)"><title content="structured text">Sheet.49</title><rect x="0" y="57.4429" width="11.3386" height="28.3465" class="st1"/></g><g id="shape50-40" transform="translate(170.079,0)"><title content="structured text">Sheet.50</title><rect x="0" y="57.4429" width="11.3386" height="28.3465" class="st1"/></g><g id="shape51-42" transform="translate(181.417,0)"><title content="structured text">Sheet.51</title><rect x="0" y="57.4429" width="11.3386" height="28.3465" class="st1"/></g><g id="shape52-44" transform="translate(192.756,0)"><title content="structured text">Sheet.52</title><rect x="0" y="57.4429" width="11.3386" height="28.3465" class="st1"/></g><g id="shape53-46" transform="translate(204.094,0)"><title content="structured text">Sheet.53</title><rect x="0" y="57.4429" width="11.3386" height="28.3465" class="st1"/></g><g id="shape54-48" transform="translate(215.433,0)"><title content="structured text">Sheet.54</title><rect x="0" y="57.4429" width="11.3386" height="28.3465" class="st1"/></g><g id="shape55-50" transform="translate(226.772,0)"><title content="structured text">Sheet.55</title><rect x="0" y="57.4429" width="11.3386" height="28.3465" class="st1"/></g><g id="shape56-52" transform="translate(238.11,0)"><title content="structured text">Sheet.56</title><rect x="0" y="57.4429" width="11.3386" height="28.3465" class="st1"/></g><g id="shape57-54" transform="translate(249.449,0)"><title content="structured text">Sheet.57</title><rect x="0" y="57.4429" width="11.3386" height="28.3465" class="st1"/></g><g id="shape58-56" transform="translate(260.787,0)"><title content="structured text">Sheet.58</title><rect x="0" y="57.4429" width="11.3386" height="28.3465" class="st1"/></g><g id="shape59-58" transform="translate(272.126,0)"><title content="structured text">Sheet.59</title><rect x="0" y="57.4429" width="11.3386" height="28.3465" class="st1"/></g><g id="shape60-60" transform="translate(283.465,0)"><title content="structured text">Sheet.60</title><rect x="0" y="57.4429" width="11.3386" height="28.3465" class="st1"/></g><g id="shape61-62" transform="translate(294.803,0)"><title content="structured text">Sheet.61</title><rect x="0" y="57.4429" width="11.3386" height="28.3465" class="st1"/></g><g id="shape62-64" transform="translate(306.142,0)"><title content="structured text">Sheet.62</title><rect x="0" y="57.4429" width="11.3386" height="28.3465" class="st1"/></g><g id="shape63-66" transform="translate(317.48,0)"><title content="structured text">Sheet.63</title><rect x="0" y="57.4429" width="11.3386" height="28.3465" class="st1"/></g><g id="shape64-68" transform="translate(328.819,0)"><title content="structured text">Sheet.64</title><rect x="0" y="57.4429" width="11.3386" height="28.3465" class="st1"/></g><g id="shape65-70" transform="translate(340.157,0)"><title content="structured text">Sheet.65</title><rect x="0" y="57.4429" width="11.3386" height="28.3465" class="st1"/></g><g id="shape66-72"><title content="structured text">Sheet.66</title><rect x="0" y="57.4429" width="362.835" height="28.3465" class="st3"/><rect x="0" y="57.4429" width="362.835" height="28.3465" class="st4"/></g><g id="shape67-75" transform="translate(403.27,46.1043) rotate(90)"><title content="structured text">Signal 0</title><path d="M0 85.79 L11.34 85.79" class="st5"/></g><g id="shape68-78" transform="translate(357.915,46.1043) rotate(90)"><title content="structured text">Signal 0.102</title><path d="M0 85.79 L11.34 85.79" class="st5"/></g><g id="shape69-81" transform="translate(312.561,46.1043) rotate(90)"><title content="structured text">Signal 0.103</title><path d="M0 85.79 L11.34 85.79" class="st5"/></g><g id="shape70-84" transform="translate(267.207,46.1043) rotate(90)"><title content="structured text">Signal 0.104</title><path d="M0 85.79 L11.34 85.79" class="st5"/></g><g id="shape71-87" transform="translate(221.852,46.1043) rotate(90)"><title content="structured text">Signal 0.105</title><path d="M0 85.79 L11.34 85.79" class="st5"/></g><g id="shape72-90" transform="translate(176.498,46.1043) rotate(90)"><title content="structured text">Signal 0.106</title><path d="M0 85.79 L11.34 85.79" class="st5"/></g><g id="shape73-93" transform="translate(131.144,46.1043) rotate(90)"><title content="structured text">Signal 0.107</title><path d="M0 85.79 L11.34 85.79" class="st5"/></g><g id="shape74-96" transform="translate(85.7894,46.1043) rotate(90)"><title content="structured text">Signal 0.108</title><path d="M0 85.79 L11.34 85.79" class="st5"/></g><g id="shape75-99" transform="translate(448.624,46.1043) rotate(90)"><title content="structured text">Signal 0.109</title><path d="M0 85.79 L11.34 85.79" class="st5"/></g></g><g id="shape77-102" transform="translate(352.296,-34.5157)"><title content="structured text">32-bit register.111</title><path d="M0 57.44 L0 85.79" class="st4"/></g><g id="shape78-105" transform="translate(340.957,-62.8622)"><title content="structured text">32-bit register.112</title><desc content="structured text">2</desc><text x="3.44" y="82.52" class="st2">2</text></g><g id="shape76-107" transform="translate(12.189,-34.5827)"><title content="structured text">Sheet.76</title><rect x="0" y="57.4429" width="340.157" height="28.3465" class="st6"/></g><g id="shape79-109" transform="translate(365.052,-34.5157)"><title content="structured text">Dynamic connector.118</title><path d="M-1.42 88.62 L-1.42 97.13 L-12.76 97.13" class="st7"/></g><g id="shape80-112" transform="translate(323.95,-15.7831)"><title content="structured text">Sheet.80</title><desc content="structured text">STATE</desc><rect x="0" y="71.0012" width="28.3465" height="14.7882" class="st8"/><text x="1.28" y="80.8" class="st2">STATE</text></g><g id="shape81-115" transform="translate(22.5786,-11.8386)"><title content="structured text">Rectangle No Fill No Fill.116</title><desc content="structured text">res0</desc><rect x="0" y="74.4508" width="19.8425" height="11.3386" class="st9"/><text x="1.24" y="82.52" class="st10">RES<tspan class="st11">0</tspan></text></g><g id="shape82-119" transform="translate(12.1386,-11.8386)"><title content="structured text">Graphic.117</title><rect x="0" y="74.4508" width="10.44" height="11.3386" class="st12"/></g></g></svg>