<?xml version="1.0" encoding="UTF-8" standalone="no"?><!-- Fixed up by svgfix.xsl 1.4  --><!-- Generated by Microsoft Visio 11.0, SVG Export, v1.0 trcidr0_bit_assignments.svg ARM -->
<!DOCTYPE svg
  PUBLIC "-//W3C//DTD SVG 1.0//EN" "http://www.w3.org/TR/2001/REC-SVG-20010904/DTD/svg10.dtd">
<svg xmlns:xlink="http://www.w3.org/1999/xlink" xmlns="http://www.w3.org/2000/svg" xmlns:ev="http://www.w3.org/2001/xml-events" width="576.222" height="163.52" viewBox="0 0 432.166 122.64" xml:space="preserve" color-interpolation-filters="sRGB" class="st14" preserveAspectRatio="xMidYMid meet" zoomAndPan="magnify" version="1.0" contentScriptType="text/ecmascript" contentStyleType="text/css"><style type="text/css" xml:space="preserve"><![CDATA[
	
		.st1 {fill:#ccdfdb;stroke:#000000;stroke-linecap:butt;stroke-width:0.5px}
		.st2 {fill:#eed9b3;stroke:#000000;stroke-linecap:butt;stroke-width:0.5px}
		.st3 {stroke:#000000;stroke-linecap:butt;stroke-width:0.8px}
		.st4 {stroke:#000000;stroke-dasharray:0.25,0.5;stroke-linecap:butt;stroke-width:0.25px}
		.st5 {fill:#000000;font-family:Arial,Helvetica,sans-serif;font-size:0.666664em}
		.st6 {stroke:#000000;stroke-linecap:butt;stroke-width:0.5px}
		.st7 {fill:none;stroke:none;stroke-linecap:butt;stroke-width:0.5px}
		.st8 {fill:none;stroke:none;stroke-linecap:round;stroke-linejoin:round;stroke-width:0.2px}
		.st9 {fill:none;stroke:none;stroke-linecap:butt;stroke-width:0.499999px}
		.st10 {fill:#000000;font-family:Arial,Helvetica,sans-serif;font-size:0.533318em}
		.st11 {font-size:1.25003em}
		.st12 {fill:#eed9b3;stroke:none;stroke-linecap:round;stroke-linejoin:round;stroke-width:0.2px}
		.st13 {fill:#ccdfdb;stroke:none;stroke-linecap:round;stroke-linejoin:round;stroke-width:0.2px}
		.st14 {fill:none;fill-rule:evenodd;font-size:12px;overflow:visible;stroke-linecap:square;stroke-miterlimit:3}]]></style><g xmlns:v="http://schemas.microsoft.com/visio/2003/SVGExtensions/"><title content="structured text">ARM</title><g id="shape63-1" transform="translate(363.635,-71.3661)"><title content="structured text">Sheet.63</title><rect x="0" y="94.2933" width="11.3386" height="28.3465" class="st1"/></g><g id="shape62-3" transform="translate(272.926,-71.3661)"><title content="structured text">Sheet.62</title><rect x="0" y="94.2933" width="11.3386" height="28.3465" class="st2"/></g><g id="shape20-5" transform="translate(102.898,-71.4331)"><title content="structured text">Sheet.20</title><rect x="0" y="94.2933" width="79.3701" height="28.3465" class="st2"/></g><g id="shape81-7" transform="translate(12.189,-71.4331)"><title content="structured text">Sheet.81</title><rect x="0" y="94.2933" width="22.6772" height="28.3465" class="st2"/></g><g id="shape1-9" transform="translate(374.973,-71.3661) scale(-1,1)"><title content="structured text">64-bit register.156</title><path d="M0 94.29 L362.83 94.29 L362.83 122.64 L0 122.64" class="st3"/></g><g id="shape2-12" transform="translate(134.778,11.5886) rotate(90)"><title content="structured text">64-bit register.169</title><path d="M0 122.64 L11.34 122.64" class="st4"/></g><g id="shape3-15" transform="translate(374.973,-71.3661)"><title content="structured text">64-bit register.157</title><path d="M0 94.29 L0 122.64" class="st3"/></g><g id="shape4-18" transform="translate(182.217,-71.3661)"><title content="structured text">64-bit register.4</title><path d="M0 94.29 L0 122.64" class="st3"/></g><g id="shape5-21" transform="translate(204.894,-71.3661)"><title content="structured text">64-bit register.7</title><path d="M0 94.29 L0 122.64" class="st3"/></g><g id="shape6-24" transform="translate(216.233,-71.3661)"><title content="structured text">64-bit register.38</title><path d="M0 94.29 L0 122.64" class="st3"/></g><g id="shape7-27" transform="translate(238.91,-71.3661)"><title content="structured text">64-bit register.39</title><path d="M0 94.29 L0 122.64" class="st3"/></g><g id="shape8-30" transform="translate(306.942,-71.3661)"><title content="structured text">64-bit register.41</title><path d="M0 94.29 L0 122.64" class="st3"/></g><g id="shape9-33" transform="translate(318.28,-71.3661)"><title content="structured text">64-bit register.42</title><path d="M0 94.29 L0 122.64" class="st3"/></g><g id="shape10-36" transform="translate(363.635,-71.3661)"><title content="structured text">64-bit register.52</title><path d="M0 94.29 L0 122.64" class="st3"/></g><g id="shape11-39" transform="translate(180.133,11.5886) rotate(90)"><title content="structured text">64-bit register.11</title><path d="M0 122.64 L11.34 122.64" class="st4"/></g><g id="shape12-42" transform="translate(225.487,11.5886) rotate(90)"><title content="structured text">64-bit register.12</title><path d="M0 122.64 L11.34 122.64" class="st4"/></g><g id="shape13-45" transform="translate(270.841,11.5886) rotate(90)"><title content="structured text">64-bit register.13</title><path d="M0 122.64 L11.34 122.64" class="st4"/></g><g id="shape14-48" transform="translate(316.196,11.5886) rotate(90)"><title content="structured text">64-bit register.14</title><path d="M0 122.64 L11.34 122.64" class="st4"/></g><g id="shape15-51" transform="translate(361.55,11.5886) rotate(90)"><title content="structured text">64-bit register.15</title><path d="M0 122.64 L11.34 122.64" class="st4"/></g><g id="shape16-54" transform="translate(452.259,11.5886) rotate(90)"><title content="structured text">64-bit register.16</title><path d="M0 122.64 L11.34 122.64" class="st4"/></g><g id="shape17-57" transform="translate(497.613,11.5886) rotate(90)"><title content="structured text">64-bit register.17</title><path d="M0 122.64 L11.34 122.64" class="st4"/></g><g id="shape18-60" transform="translate(12.1386,-99.7126)"><title content="structured text">64-bit register.179</title><desc content="structured text">31</desc><text x="1.22" y="119.37" class="st5">31</text></g><g id="shape19-62" transform="translate(363.635,-99.7126)"><title content="structured text">64-bit register.19</title><desc content="structured text">0</desc><text x="3.44" y="119.37" class="st5">0</text></g><g id="shape21-64" transform="translate(406.904,11.5886) rotate(90)"><title content="structured text">64-bit register.21</title><path d="M0 122.64 L11.34 122.64" class="st4"/></g><g id="shape22-67" transform="translate(40.485,-62.8622)"><title content="structured text">Sheet.22</title><path d="M0 116.97 L0 122.64 L5.67 122.64" class="st6"/></g><g id="shape23-70" transform="translate(46.1543,-57.1929)"><title content="structured text">Sheet.23</title><desc content="structured text">COMMOPT</desc><rect x="0" y="111.301" width="48.189" height="11.3386" class="st7"/><text x="2" y="119.37" class="st5">COMMOPT</text></g><g id="shape26-73" transform="translate(340.957,-71.3661)"><title content="structured text">64-bit register.26</title><path d="M0 94.29 L0 122.64" class="st3"/></g><g id="shape27-76" transform="translate(306.942,-99.7126)"><title content="structured text">64-bit register.27</title><desc content="structured text">5</desc><text x="3.44" y="119.37" class="st5">5</text></g><g id="shape28-78" transform="translate(318.28,-99.7126)"><title content="structured text">64-bit register.28</title><desc content="structured text">4</desc><text x="3.44" y="119.37" class="st5">4</text></g><g id="shape29-80" transform="translate(329.619,-99.7126)"><title content="structured text">64-bit register.29</title><desc content="structured text">3</desc><text x="3.44" y="119.37" class="st5">3</text></g><g id="shape30-82" transform="translate(340.957,-99.7126)"><title content="structured text">64-bit register.30</title><desc content="structured text">2</desc><text x="3.44" y="119.37" class="st5">2</text></g><g id="shape31-84" transform="translate(352.296,-99.7126)"><title content="structured text">64-bit register.31</title><desc content="structured text">1</desc><text x="3.44" y="119.37" class="st5">1</text></g><g id="shape32-86" transform="translate(284.265,-71.3661)"><title content="structured text">64-bit register.32</title><path d="M0 94.29 L0 122.64" class="st3"/></g><g id="shape33-89" transform="translate(295.603,-71.3661)"><title content="structured text">64-bit register.33</title><path d="M0 94.29 L0 122.64" class="st3"/></g><g id="shape34-92" transform="translate(261.587,-71.3661)"><title content="structured text">64-bit register.34</title><path d="M0 94.29 L0 122.64" class="st3"/></g><g id="shape35-95" transform="translate(272.926,-71.3661)"><title content="structured text">64-bit register.35</title><path d="M0 94.29 L0 122.64" class="st3"/></g><g id="shape36-98" transform="translate(250.249,-99.7126)"><title content="structured text">64-bit register.36</title><desc content="structured text">10</desc><text x="1.22" y="119.37" class="st5">10</text></g><g id="shape37-100" transform="translate(261.587,-99.7126)"><title content="structured text">64-bit register.37</title><desc content="structured text">9</desc><text x="3.44" y="119.37" class="st5">9</text></g><g id="shape38-102" transform="translate(272.926,-99.7126)"><title content="structured text">Sheet.38</title><desc content="structured text">8</desc><text x="3.44" y="119.37" class="st5">8</text></g><g id="shape39-104" transform="translate(284.265,-99.7126)"><title content="structured text">Sheet.39</title><desc content="structured text">7</desc><text x="3.44" y="119.37" class="st5">7</text></g><g id="shape40-106" transform="translate(297.02,-99.7126)"><title content="structured text">64-bit register.40</title><desc content="structured text">6</desc><text x="3.44" y="119.37" class="st5">6</text></g><g id="shape41-108" transform="translate(216.233,-99.7126)"><title content="structured text">Sheet.41</title><desc content="structured text">13</desc><text x="1.22" y="119.37" class="st5">13</text></g><g id="shape42-110" transform="translate(227.572,-99.7126)"><title content="structured text">Sheet.42</title><desc content="structured text">12</desc><text x="1.22" y="119.37" class="st5">12</text></g><g id="shape43-112" transform="translate(238.91,-99.7126)"><title content="structured text">64-bit register.43</title><desc content="structured text">11</desc><text x="1.22" y="119.37" class="st5">11</text></g><g id="shape44-114" transform="translate(204.894,-99.7126)"><title content="structured text">Sheet.44</title><desc content="structured text">14</desc><text x="1.22" y="119.37" class="st5">14</text></g><g id="shape45-116" transform="translate(193.556,-99.7126)"><title content="structured text">Sheet.45</title><desc content="structured text">15</desc><text x="1.22" y="119.37" class="st5">15</text></g><g id="shape46-118" transform="translate(182.217,-99.7126)"><title content="structured text">Sheet.46</title><desc content="structured text">16</desc><text x="1.22" y="119.37" class="st5">16</text></g><g id="shape47-120" transform="translate(170.879,-99.7126)"><title content="structured text">Sheet.47</title><desc content="structured text">17</desc><text x="1.22" y="119.37" class="st5">17</text></g><g id="shape48-122" transform="translate(91.5087,-99.7126)"><title content="structured text">64-bit register.48</title><desc content="structured text">24</desc><text x="1.22" y="119.37" class="st5">24</text></g><g id="shape49-124" transform="translate(102.847,-99.7126)"><title content="structured text">64-bit register.49</title><desc content="structured text">23</desc><text x="1.22" y="119.37" class="st5">23</text></g><g id="shape50-126" transform="translate(102.847,-71.3661)"><title content="structured text">64-bit register.50</title><path d="M0 94.29 L0 122.64" class="st3"/></g><g id="shape51-129" transform="translate(23.4772,-99.7126)"><title content="structured text">64-bit register.51</title><desc content="structured text">30</desc><text x="1.22" y="119.37" class="st5">30</text></g><g id="shape52-131" transform="translate(34.8157,-99.7126)"><title content="structured text">Sheet.52</title><desc content="structured text">29</desc><text x="1.22" y="119.37" class="st5">29</text></g><g id="shape53-133" transform="translate(46.1543,-99.7126)"><title content="structured text">Sheet.53</title><desc content="structured text">28</desc><text x="1.22" y="119.37" class="st5">28</text></g><g id="shape54-135" transform="translate(34.8157,-71.3661)"><title content="structured text">64-bit register.54</title><path d="M0 94.29 L0 122.64" class="st3"/></g><g id="shape55-138" transform="translate(46.1543,-71.3661)"><title content="structured text">64-bit register.55</title><path d="M0 94.29 L0 122.64" class="st3"/></g><g id="shape56-141" transform="translate(46.1543,-71.3661)"><title content="structured text">64-bit register.56</title><desc content="structured text">TSSIZE</desc><rect x="0" y="94.2933" width="56.6929" height="28.3465" class="st8"/><text x="14.34" y="110.87" class="st5">TSSIZE</text></g><g id="shape57-144" transform="translate(193.556,-62.8622) scale(-1,1)"><title content="structured text">Sheet.57</title><path d="M0 116.97 L0 122.64 L5.67 122.64" class="st6"/></g><g id="shape58-147" transform="translate(210.564,-51.5236) scale(-1,1)"><title content="structured text">Sheet.58</title><path d="M0 105.63 L0 122.64 L22.68 122.64" class="st6"/></g><g id="shape59-150" transform="translate(227.572,-40.185) scale(-1,1)"><title content="structured text">Sheet.59</title><path d="M0 94.29 L0 122.64 L39.69 122.64" class="st6"/></g><g id="shape60-153" transform="translate(250.249,-28.8465) scale(-1,1)"><title content="structured text">Sheet.60</title><path d="M0 82.95 L0 122.64 L62.36 122.64" class="st6"/></g><g id="shape61-156" transform="translate(267.257,-17.5079) scale(-1,1)"><title content="structured text">Sheet.61</title><path d="M0 71.62 L0 122.64 L79.37 122.64" class="st6"/></g><g id="shape64-159" transform="translate(139.698,-11.8386)"><title content="structured text">Sheet.64</title><desc content="structured text">RETSTACK</desc><rect x="0" y="111.301" width="48.189" height="11.3386" class="st7"/><text x="3.52" y="119.37" class="st5">RETSTACK</text></g><g id="shape65-162" transform="translate(139.698,-23.1772)"><title content="structured text">Sheet.65</title><desc content="structured text">NUMEVENT</desc><rect x="0" y="111.301" width="48.189" height="11.3386" class="st7"/><text x="1.3" y="119.37" class="st5">NUMEVENT</text></g><g id="shape66-165" transform="translate(159.54,-45.8543)"><title content="structured text">Sheet.66</title><desc content="structured text">QFILT</desc><rect x="0" y="111.301" width="28.3465" height="11.3386" class="st7"/><text x="3.68" y="119.37" class="st5">QFILT</text></g><g id="shape67-168" transform="translate(153.871,-57.1929)"><title content="structured text">Sheet.67</title><desc content="structured text">QSUPP</desc><rect x="0" y="111.301" width="34.0157" height="11.3386" class="st7"/><text x="4.01" y="119.37" class="st5">QSUPP</text></g><g id="shape68-171" transform="translate(139.698,-34.5157)"><title content="structured text">Sheet.68</title><desc content="structured text">CONDTYPE</desc><rect x="0" y="111.301" width="48.189" height="11.3386" class="st7"/><text x="1.74" y="119.37" class="st5">CONDTYPE</text></g><g id="shape70-174" transform="translate(374.973,-57.1929)"><title content="structured text">Sheet.70</title><desc content="structured text">INSTP0</desc><rect x="0" y="111.301" width="45.3543" height="11.3386" class="st7"/><text x="2" y="119.37" class="st5">INSTP0</text></g><g id="shape71-177" transform="translate(352.296,-62.8622)"><title content="structured text">Sheet.71</title><path d="M0 116.97 L0 122.64 L22.68 122.64" class="st6"/></g><g id="shape72-180" transform="translate(329.619,-51.5236)"><title content="structured text">Sheet.72</title><path d="M0 105.63 L0 122.64 L45.35 122.64" class="st6"/></g><g id="shape73-183" transform="translate(312.611,-40.185)"><title content="structured text">Sheet.73</title><path d="M0 94.29 L0 122.64 L62.36 122.64" class="st6"/></g><g id="shape74-186" transform="translate(301.272,-28.8465)"><title content="structured text">Sheet.74</title><path d="M0 82.95 L0 122.64 L73.7 122.64" class="st6"/></g><g id="shape75-189" transform="translate(289.934,-17.5079)"><title content="structured text">Sheet.75</title><path d="M0 71.62 L0 122.64 L85.04 122.64" class="st6"/></g><g id="shape77-192" transform="translate(374.973,-45.8543)"><title content="structured text">Sheet.77</title><desc content="structured text">TRCDATA</desc><rect x="0" y="111.301" width="42.5197" height="11.3386" class="st7"/><text x="2" y="119.37" class="st5">TRCDATA</text></g><g id="shape78-195" transform="translate(374.973,-34.5157)"><title content="structured text">Sheet.78</title><desc content="structured text">TRCBB</desc><rect x="0" y="111.301" width="42.5197" height="11.3386" class="st7"/><text x="2" y="119.37" class="st5">TRCBB</text></g><g id="shape79-198" transform="translate(374.973,-23.1772)"><title content="structured text">Sheet.79</title><desc content="structured text">TRCCOND</desc><rect x="0" y="111.301" width="45.3543" height="11.3386" class="st7"/><text x="2" y="119.37" class="st5">TRCCOND</text></g><g id="shape80-201" transform="translate(374.973,-11.8386)"><title content="structured text">Sheet.80</title><desc content="structured text">TRCCCI</desc><rect x="0" y="111.301" width="42.5197" height="11.3386" class="st7"/><text x="2" y="119.37" class="st5">TRCCCI</text></g><g id="shape82-204" transform="translate(22.5786,-11.8386)"><title content="structured text">Rectangle No Fill No Fill.116</title><desc content="structured text">res0</desc><rect x="0" y="111.301" width="19.8425" height="11.3386" class="st9"/><text x="1.24" y="119.37" class="st10">RES<tspan class="st11">0</tspan></text></g><g id="shape83-208" transform="translate(12.1386,-11.8386)"><title content="structured text">Graphic.117</title><rect x="0" y="111.301" width="10.44" height="11.3386" class="st12"/></g><g id="shape24-210" transform="translate(22.6772,-25.5118)"><title content="structured text">Rectangle No Fill No Fill.24</title><desc content="structured text">res0</desc><rect x="0" y="111.301" width="19.8425" height="11.3386" class="st9"/><text x="1.24" y="119.37" class="st10">RES<tspan class="st11">1</tspan></text></g><g id="shape25-214" transform="translate(12.2373,-25.5118)"><title content="structured text">Graphic.25</title><rect x="0" y="111.301" width="10.44" height="11.3386" class="st13"/></g></g></svg>