<?xml version="1.0" encoding="UTF-8" standalone="no"?><!-- Fixed up by svgfix.xsl 1.4  --><!-- Generated by Microsoft Visio 11.0, SVG Export, v1.0 trcidr5_bit_assignments.svg ARM -->
<!DOCTYPE svg
  PUBLIC "-//W3C//DTD SVG 1.0//EN" "http://www.w3.org/TR/2001/REC-SVG-20010904/DTD/svg10.dtd">
<svg xmlns:xlink="http://www.w3.org/1999/xlink" xmlns="http://www.w3.org/2000/svg" xmlns:ev="http://www.w3.org/2001/xml-events" width="516.172" height="186.863" viewBox="0 0 387.129 140.148" xml:space="preserve" color-interpolation-filters="sRGB" class="st12" preserveAspectRatio="xMidYMid meet" zoomAndPan="magnify" version="1.0" contentScriptType="text/ecmascript" contentStyleType="text/css"><style type="text/css" xml:space="preserve"><![CDATA[
	
		.st1 {fill:#eed9b3;stroke:#000000;stroke-linecap:butt;stroke-width:0.5px}
		.st2 {stroke:#000000;stroke-linecap:butt;stroke-width:0.8px}
		.st3 {stroke:#000000;stroke-dasharray:0.25,0.5;stroke-linecap:butt;stroke-width:0.25px}
		.st4 {fill:#000000;font-family:Arial,Helvetica,sans-serif;font-size:0.666664em}
		.st5 {fill:none;stroke:none;stroke-linecap:round;stroke-linejoin:round;stroke-width:0.2px}
		.st6 {fill:none;stroke:none;stroke-linecap:butt;stroke-width:0.5px}
		.st7 {stroke:#000000;stroke-linecap:butt;stroke-width:0.5px}
		.st8 {fill:none;stroke:none;stroke-linecap:butt;stroke-width:0.499999px}
		.st9 {fill:#000000;font-family:Arial,Helvetica,sans-serif;font-size:0.533318em}
		.st10 {font-size:1.25003em}
		.st11 {fill:#eed9b3;stroke:none;stroke-linecap:round;stroke-linejoin:round;stroke-width:0.2px}
		.st12 {fill:none;fill-rule:evenodd;font-size:12px;overflow:visible;stroke-linecap:square;stroke-miterlimit:3}]]></style><g xmlns:v="http://schemas.microsoft.com/visio/2003/SVGExtensions/"><title content="structured text">ARM</title><g id="shape26-1" transform="translate(193.606,-89.0079)"><title content="structured text">Sheet.26</title><rect x="0" y="111.801" width="45.3543" height="28.3465" class="st1"/></g><g id="shape45-3" transform="translate(91.5256,-88.874)"><title content="structured text">Sheet.45</title><rect x="0" y="111.801" width="11.3386" height="28.3465" class="st1"/></g><g id="shape1-5" transform="translate(374.99,-88.874) scale(-1,1)"><title content="structured text">64-bit register.156</title><path d="M0 111.8 L362.83 111.8 L362.83 140.15 L0 140.15" class="st2"/></g><g id="shape2-8" transform="translate(152.303,11.5886) rotate(90)"><title content="structured text">64-bit register.169</title><path d="M0 140.15 L11.34 140.15" class="st3"/></g><g id="shape3-11" transform="translate(374.99,-88.874)"><title content="structured text">64-bit register.157</title><path d="M0 111.8 L0 140.15" class="st2"/></g><g id="shape4-14" transform="translate(23.4941,-88.874)"><title content="structured text">64-bit register.7</title><path d="M0 111.8 L0 140.15" class="st2"/></g><g id="shape5-17" transform="translate(193.573,-88.874)"><title content="structured text">64-bit register.39</title><path d="M0 111.8 L0 140.15" class="st2"/></g><g id="shape6-20" transform="translate(197.658,11.5886) rotate(90)"><title content="structured text">64-bit register.11</title><path d="M0 140.15 L11.34 140.15" class="st3"/></g><g id="shape7-23" transform="translate(243.012,11.5886) rotate(90)"><title content="structured text">64-bit register.12</title><path d="M0 140.15 L11.34 140.15" class="st3"/></g><g id="shape8-26" transform="translate(288.366,11.5886) rotate(90)"><title content="structured text">64-bit register.13</title><path d="M0 140.15 L11.34 140.15" class="st3"/></g><g id="shape9-29" transform="translate(333.721,11.5886) rotate(90)"><title content="structured text">64-bit register.14</title><path d="M0 140.15 L11.34 140.15" class="st3"/></g><g id="shape10-32" transform="translate(379.075,11.5886) rotate(90)"><title content="structured text">64-bit register.15</title><path d="M0 140.15 L11.34 140.15" class="st3"/></g><g id="shape11-35" transform="translate(469.783,11.5886) rotate(90)"><title content="structured text">64-bit register.16</title><path d="M0 140.15 L11.34 140.15" class="st3"/></g><g id="shape12-38" transform="translate(515.138,11.5886) rotate(90)"><title content="structured text">64-bit register.17</title><path d="M0 140.15 L11.34 140.15" class="st3"/></g><g id="shape13-41" transform="translate(12.1556,-117.22)"><title content="structured text">64-bit register.179</title><desc content="structured text">31</desc><text x="1.22" y="136.88" class="st4">31</text></g><g id="shape14-43" transform="translate(363.652,-117.22)"><title content="structured text">64-bit register.19</title><desc content="structured text">0</desc><text x="3.44" y="136.88" class="st4">0</text></g><g id="shape15-45" transform="translate(424.429,11.5886) rotate(90)"><title content="structured text">64-bit register.21</title><path d="M0 140.15 L11.34 140.15" class="st3"/></g><g id="shape16-48" transform="translate(80.187,-117.22)"><title content="structured text">64-bit register.4</title><desc content="structured text">25</desc><text x="1.22" y="136.88" class="st4">25</text></g><g id="shape17-50" transform="translate(91.5256,-117.22)"><title content="structured text">64-bit register.6</title><desc content="structured text">24</desc><text x="1.22" y="136.88" class="st4">24</text></g><g id="shape18-52" transform="translate(182.234,-117.22)"><title content="structured text">64-bit register.26</title><desc content="structured text">16</desc><text x="1.22" y="136.88" class="st4">16</text></g><g id="shape19-54" transform="translate(193.573,-117.22)"><title content="structured text">64-bit register.27</title><desc content="structured text">15</desc><text x="1.22" y="136.88" class="st4">15</text></g><g id="shape20-56" transform="translate(272.943,-117.22)"><title content="structured text">64-bit register.28</title><desc content="structured text">8</desc><text x="3.44" y="136.88" class="st4">8</text></g><g id="shape21-58" transform="translate(57.5099,-117.22)"><title content="structured text">64-bit register.22</title><desc content="structured text">27</desc><text x="1.22" y="136.88" class="st4">27</text></g><g id="shape22-60" transform="translate(46.1713,-117.22)"><title content="structured text">64-bit register.23</title><desc content="structured text">28</desc><text x="1.22" y="136.88" class="st4">28</text></g><g id="shape23-62" transform="translate(91.5256,-88.874)"><title content="structured text">64-bit register.24</title><path d="M0 111.8 L0 140.15" class="st2"/></g><g id="shape24-65" transform="translate(238.927,-88.874)"><title content="structured text">Sheet.24</title><path d="M0 111.8 L0 140.15" class="st2"/></g><g id="shape25-68" transform="translate(272.943,-88.874)"><title content="structured text">64-bit register.30</title><desc content="structured text">NUMEXTIN</desc><rect x="0" y="111.801" width="102.047" height="28.3465" class="st5"/><text x="30.13" y="128.37" class="st4">NUMEXTIN</text></g><g id="shape27-71" transform="translate(125.541,-88.874)"><title content="structured text">64-bit register.46</title><desc content="structured text">TRACEIDSIZE</desc><rect x="0" y="111.801" width="68.0315" height="28.3465" class="st5"/><text x="7.57" y="128.37" class="st4">TRACEIDSIZE</text></g><g id="shape28-74" transform="translate(261.604,-74.7008)"><title content="structured text">Sheet.28</title><desc content="structured text">NUMEXTINSEL</desc><rect x="0" y="128.809" width="60.9449" height="11.3386" class="st6"/><text x="2" y="136.88" class="st4">NUMEXTINSEL</text></g><g id="shape29-77" transform="translate(272.943,-88.874)"><title content="structured text">64-bit register.36</title><path d="M0 111.8 L0 140.15" class="st2"/></g><g id="shape30-80" transform="translate(261.604,-117.22)"><title content="structured text">64-bit register.37</title><desc content="structured text">9</desc><text x="3.44" y="136.88" class="st4">9</text></g><g id="shape31-82" transform="translate(238.927,-117.22)"><title content="structured text">64-bit register.44</title><desc content="structured text">11</desc><text x="1.22" y="136.88" class="st4">11</text></g><g id="shape32-84" transform="translate(227.589,-117.22)"><title content="structured text">64-bit register.48</title><desc content="structured text">12</desc><text x="1.22" y="136.88" class="st4">12</text></g><g id="shape33-86" transform="translate(125.541,-74.7008)"><title content="structured text">Sheet.33</title><desc content="structured text">ATBTRIG</desc><rect x="0" y="128.809" width="39.685" height="11.3386" class="st6"/><text x="2" y="136.88" class="st4">ATBTRIG</text></g><g id="shape34-89" transform="translate(57.5099,-88.874)"><title content="structured text">64-bit register.50</title><path d="M0 111.8 L0 140.15" class="st2"/></g><g id="shape35-92" transform="translate(255.935,-80.3701)"><title content="structured text">Sheet.35</title><path d="M0 134.48 L0 140.15 L5.67 140.15" class="st7"/></g><g id="shape36-95" transform="translate(23.4941,-117.22)"><title content="structured text">64-bit register.55</title><desc content="structured text">30</desc><text x="1.22" y="136.88" class="st4">30</text></g><g id="shape37-97" transform="translate(102.864,-88.874)"><title content="structured text">64-bit register.56</title><path d="M0 111.8 L0 140.15" class="st2"/></g><g id="shape38-100" transform="translate(114.203,-88.874)"><title content="structured text">64-bit register.57</title><path d="M0 111.8 L0 140.15" class="st2"/></g><g id="shape39-103" transform="translate(125.541,-88.874)"><title content="structured text">64-bit register.58</title><path d="M0 111.8 L0 140.15" class="st2"/></g><g id="shape40-106" transform="translate(102.864,-117.22)"><title content="structured text">64-bit register.59</title><desc content="structured text">23</desc><text x="1.22" y="136.88" class="st4">23</text></g><g id="shape41-108" transform="translate(114.203,-117.22)"><title content="structured text">64-bit register.60</title><desc content="structured text">22</desc><text x="1.22" y="136.88" class="st4">22</text></g><g id="shape42-110" transform="translate(125.541,-117.22)"><title content="structured text">64-bit register.61</title><desc content="structured text">21</desc><text x="1.22" y="136.88" class="st4">21</text></g><g id="shape43-112" transform="translate(119.872,-80.3701)"><title content="structured text">Sheet.43</title><path d="M0 134.48 L0 140.15 L5.67 140.15" class="st7"/></g><g id="shape44-115" transform="translate(108.534,-69.0315)"><title content="structured text">Sheet.44</title><path d="M0 123.14 L0 140.15 L17.01 140.15" class="st7"/></g><g id="shape46-118" transform="translate(74.5178,-57.6929)"><title content="structured text">Sheet.46</title><path d="M0 111.8 L0 140.15 L51.02 140.15" class="st7"/></g><g id="shape47-121" transform="translate(40.502,-46.3543)"><title content="structured text">Sheet.47</title><path d="M0 100.46 L0 140.15 L85.04 140.15" class="st7"/></g><g id="shape48-124" transform="translate(17.8248,-35.0157)"><title content="structured text">Sheet.48</title><path d="M0 89.12 L0 140.15 L107.72 140.15" class="st7"/></g><g id="shape49-127" transform="translate(125.541,-63.3622)"><title content="structured text">Sheet.49</title><desc content="structured text">LPOVERRIDE</desc><rect x="0" y="128.809" width="56.6929" height="11.3386" class="st6"/><text x="2" y="136.88" class="st4">LPOVERRIDE</text></g><g id="shape51-130" transform="translate(125.541,-52.0236)"><title content="structured text">Sheet.51</title><desc content="structured text">NUMSEQSTATE</desc><rect x="0" y="128.809" width="65.1969" height="11.3386" class="st6"/><text x="2" y="136.88" class="st4">NUMSEQSTATE</text></g><g id="shape52-133" transform="translate(125.541,-40.685)"><title content="structured text">Sheet.52</title><desc content="structured text">NUMCNTR</desc><rect x="0" y="128.809" width="45.3543" height="11.3386" class="st6"/><text x="2" y="136.88" class="st4">NUMCNTR</text></g><g id="shape53-136" transform="translate(125.541,-29.3464)"><title content="structured text">Sheet.53</title><desc content="structured text">REDFUNCNTR</desc><rect x="0" y="128.809" width="62.3622" height="11.3386" class="st6"/><text x="2" y="136.88" class="st4">REDFUNCNTR</text></g><g id="shape50-139" transform="translate(21.7955,-11.8386)"><title content="structured text">Rectangle No Fill No Fill.116</title><desc content="structured text">res0</desc><rect x="0" y="128.809" width="19.8425" height="11.3386" class="st8"/><text x="1.24" y="136.88" class="st9">RES<tspan class="st10">0</tspan></text></g><g id="shape54-143" transform="translate(11.3556,-11.8386)"><title content="structured text">Graphic.117</title><rect x="0" y="128.809" width="10.44" height="11.3386" class="st11"/></g></g></svg>