<?xml version="1.0" encoding="UTF-8" standalone="no"?><!-- Fixed up by svgfix.xsl 1.4  --><!-- Generated by Microsoft Visio 11.0, SVG Export, v1.0 lau1449047620363_low res.svg ARM -->
<!DOCTYPE svg
  PUBLIC "-//W3C//DTD SVG 1.0//EN" "http://www.w3.org/TR/2001/REC-SVG-20010904/DTD/svg10.dtd">
<svg xmlns:xlink="http://www.w3.org/1999/xlink" xmlns="http://www.w3.org/2000/svg" xmlns:ev="http://www.w3.org/2001/xml-events" width="507.236" height="273.459" viewBox="0 0 380.427 205.094" xml:space="preserve" color-interpolation-filters="sRGB" class="st12" preserveAspectRatio="xMidYMid meet" zoomAndPan="magnify" version="1.0" contentScriptType="text/ecmascript" contentStyleType="text/css"><style type="text/css" xml:space="preserve"><![CDATA[
	
		.st1 {fill:#ffffff;stroke:#000000;stroke-linecap:butt;stroke-width:0.5px}
		.st2 {fill:#000000;font-family:Arial,Helvetica,sans-serif;font-size:0.666664em}
		.st3 {marker-end:url(#mrkr4-15);marker-start:url(#mrkr4-13);stroke:#000000;stroke-linecap:butt;stroke-width:1.5px}
		.st4 {fill:#000000;fill-opacity:1;stroke:#000000;stroke-opacity:1;stroke-width:0.45454545454545px}
		.st5 {fill:#ffffff;stroke:none;stroke-linecap:butt;stroke-width:7.2px}
		.st6 {font-size:1em}
		.st7 {marker-end:url(#mrkr4-15);stroke:#000000;stroke-linecap:butt;stroke-width:1.5px}
		.st8 {marker-end:url(#mrkr4-15);marker-start:url(#mrkr10-52);stroke:#000000;stroke-linecap:butt;stroke-width:1.5px}
		.st9 {marker-start:url(#mrkr4-13);stroke:#000000;stroke-linecap:butt;stroke-width:1.5px}
		.st10 {fill:none;stroke:#000000;stroke-linecap:butt;stroke-width:0.5px}
		.st11 {fill:none;stroke:none;stroke-linecap:butt;stroke-width:0.5px}
		.st12 {fill:none;fill-rule:evenodd;font-size:12px;overflow:visible;stroke-linecap:square;stroke-miterlimit:3}]]></style><defs xmlns:v="http://schemas.microsoft.com/visio/2003/SVGExtensions/" id="Markers"><g id="lend4"><path d="M 2 1 L 0 0 L 2 -1 L 2 1 " style="stroke:none"/></g><marker id="mrkr4-13" class="st4" refX="4.16" orient="auto" markerUnits="strokeWidth" overflow="visible" preserveAspectRatio="xMidYMid meet"><use xlink:href="#lend4" transform="scale(2.2) " xlink:type="simple" xlink:show="embed" xlink:actuate="onLoad"/></marker><marker id="mrkr4-15" class="st4" refX="-4.4" orient="auto" markerUnits="strokeWidth" overflow="visible" preserveAspectRatio="xMidYMid meet"><use xlink:href="#lend4" transform="scale(-2.2,-2.2) " xlink:type="simple" xlink:show="embed" xlink:actuate="onLoad"/></marker><g id="lend10"><path d="M 0 0.75 C -0.414214 0.75 -0.75 0.414214 -0.75 0 -0.75 -0.414214 -0.414214 -0.75 0 -0.75 0.414214 -0.75 0.75 -0.414214 0.75 0 0.75 0.414214 0.414214 0.75 0 0.75 Z " style="stroke:none"/></g><marker id="mrkr10-52" class="st4" refX="1.41" orient="auto" markerUnits="strokeWidth" overflow="visible" preserveAspectRatio="xMidYMid meet"><use xlink:href="#lend10" transform="scale(2.2) " xlink:type="simple" xlink:show="embed" xlink:actuate="onLoad"/></marker></defs><g xmlns:v="http://schemas.microsoft.com/visio/2003/SVGExtensions/"><title content="structured text">ARM</title><g id="shape1-1" transform="translate(238.695,-147.902)"><title content="structured text">Sheet.1</title><desc content="structured text">Trace out</desc><rect x="0" y="188.087" width="42.5197" height="17.0079" class="st1"/><text x="4.36" y="198.99" class="st2">Trace out</text></g><g id="shape2-4" transform="translate(238.695,-85.5394)"><title content="structured text">Sheet.2</title><desc content="structured text">FIFO</desc><rect x="0" y="165.409" width="42.5197" height="39.685" class="st1"/><text x="12.15" y="187.65" class="st2">FIFO</text></g><g id="shape3-7" transform="translate(18.7176,-105.382)"><title content="structured text">Bus 2.24</title><desc content="structured text">Debug APB</desc><path d="M6.24 205.09 L6.6 205.09 L89.17 205.09" class="st3"/><rect x="26.9821" y="200.295" width="41.8041" height="9.59985" class="st5"/><text x="26.98" y="207.49" class="st2">Debug APB</text></g><g id="shape4-18" transform="translate(113.971,-85.5394)"><title content="structured text">Sheet.4</title><desc content="structured text">Filtering and triggering resources</desc><rect x="0" y="165.409" width="116.22" height="39.685" class="st1"/><text x="18.31" y="182.85" class="st2">Filtering and triggering <tspan x="40.55" dy="9.6" class="st6">resources</tspan></text></g><g id="shape5-22" transform="translate(216.018,-23.1772)"><title content="structured text">Sheet.5</title><desc content="structured text">Trace generation</desc><rect x="0" y="165.409" width="76.5354" height="39.685" class="st1"/><text x="8.03" y="187.65" class="st2">Trace generation</text></g><g id="shape6-25" transform="translate(113.971,-23.1772)"><title content="structured text">Sheet.6</title><desc content="structured text">Core interface block</desc><rect x="0" y="165.409" width="68.0315" height="39.685" class="st1"/><text x="8.89" y="182.85" class="st2">Core<tspan class="st6"> </tspan><tspan class="st6">interface </tspan><tspan x="24.68" dy="9.6" class="st6">block</tspan></text></g><g id="shape7-31" transform="translate(21.5523,-43.0197)"><title content="structured text">Bus 2.28</title><desc content="structured text">Core interface</desc><path d="M0 205.09 L85.82 205.09" class="st7"/><rect x="30.8675" y="195.495" width="30.6834" height="19.1997" class="st5"/><text x="37.54" y="202.69" class="st2">Core<tspan x="30.87" dy="9.6" class="st6">interface </tspan> </text></g><g id="shape8-39" transform="translate(182.002,-43.0197)"><title content="structured text">Bus 3.8</title><path d="M6.24 205.09 L6.6 205.09 L27.42 205.09" class="st3"/></g><g id="shape9-46" transform="translate(-6.08447,162.075) rotate(-90)"><title content="structured text">Bus 4</title><path d="M2.11 205.09 L2.47 205.09 L35.92 205.09" class="st8"/></g><g id="shape10-54" transform="translate(19.4273,142.232) rotate(-90)"><title content="structured text">Bus 1.31</title><path d="M6.24 205.09 L6.6 205.09 L22.68 205.09" class="st9"/></g><g id="shape11-59" transform="translate(466.467,57.1929) rotate(90)"><title content="structured text">Bus 3.32</title><path d="M6.24 205.09 L6.6 205.09 L16.08 205.09" class="st3"/></g><g id="shape14-66" transform="translate(281.215,-156.406)"><title content="structured text">Bus 2.35</title><desc content="structured text">ATB</desc><path d="M6.24 205.09 L6.6 205.09 L73.89 205.09" class="st3"/><rect x="32.4684" y="200.295" width="15.5583" height="9.59985" class="st5"/><text x="32.47" y="207.49" class="st2">ATB</text></g><g id="shape16-75" transform="translate(463.632,119.555) rotate(90)"><title content="structured text">Bus 1.39</title><path d="M6.24 205.09 L6.6 205.09 L22.68 205.09" class="st9"/></g><g id="shape17-80" transform="translate(96.9628,-11.8386)"><title content="structured text">Sheet.17</title><rect x="0" y="23.6772" width="210.889" height="181.417" class="st10"/></g><g id="shape18-82" transform="translate(21.5523,-172.913)"><title content="structured text">Bus 2.41</title><desc content="structured text">CORECLK</desc><path d="M0 205.09 L84.62 205.09" class="st7"/><rect x="26.2741" y="200.295" width="38.6757" height="9.59985" class="st5"/><text x="26.27" y="207.49" class="st2">CORECLK</text></g><g id="shape19-89" transform="translate(268.166,-172.913)"><title content="structured text">Sheet.19</title><desc content="structured text">ETM</desc><rect x="0" y="190.921" width="40.2004" height="14.1732" class="st11"/><rect x="11.657" y="193.208" width="16.8865" height="9.59985" class="st5"/><text x="11.66" y="200.41" class="st2">E<tspan class="st6">TM</tspan></text></g></g></svg>