<?xml version="1.0" encoding="UTF-8" standalone="no"?><!-- Fixed up by svgfix.xsl 1.4  --><!-- Generated by Microsoft Visio 11.0, SVG Export, v1.0 id_aa64mmfr0_el1_bit_assignments_LowRes.svg ARM -->
<!DOCTYPE svg
  PUBLIC "-//W3C//DTD SVG 1.0//EN" "http://www.w3.org/TR/2001/REC-SVG-20010904/DTD/svg10.dtd">
<svg xmlns:xlink="http://www.w3.org/1999/xlink" xmlns="http://www.w3.org/2000/svg" xmlns:ev="http://www.w3.org/2001/xml-events" width="773.157" height="133.284" viewBox="0 0 579.868 99.963" xml:space="preserve" color-interpolation-filters="sRGB" class="st13" preserveAspectRatio="xMidYMid meet" zoomAndPan="magnify" version="1.0" contentScriptType="text/ecmascript" contentStyleType="text/css"><style type="text/css" xml:space="preserve"><![CDATA[
	
		.st1 {fill:#eed9b3;stroke:none;stroke-linecap:round;stroke-linejoin:round;stroke-width:0.2px}
		.st2 {stroke:#000000;stroke-linecap:butt;stroke-width:0.8px}
		.st3 {stroke:#000000;stroke-dasharray:0.25,0.5;stroke-linecap:butt;stroke-width:0.25px}
		.st4 {fill:#000000;font-family:Arial,Helvetica,sans-serif;font-size:0.666664em}
		.st5 {fill:none;stroke:none;stroke-linecap:round;stroke-linejoin:round;stroke-width:0.2px}
		.st6 {font-size:1em}
		.st7 {fill:#ffffff;stroke:none;stroke-linecap:butt;stroke-width:0.5px}
		.st8 {stroke:#000000;stroke-linecap:butt;stroke-width:0.5px}
		.st9 {fill:none;stroke:none;stroke-linecap:butt;stroke-width:0.499999px}
		.st10 {fill:#000000;font-family:Arial,Helvetica,sans-serif;font-size:0.533318em}
		.st11 {font-size:1.25003em}
		.st12 {fill:#eed9b3;stroke:none;stroke-linecap:round;stroke-linejoin:round;stroke-width:0.2px}
		.st13 {fill:none;fill-rule:evenodd;font-size:12px;overflow:visible;stroke-linecap:square;stroke-miterlimit:3}]]></style><g xmlns:v="http://schemas.microsoft.com/visio/2003/SVGExtensions/"><title content="structured text">ARM</title><g id="shape1-1" transform="translate(12.1386,-48.689)"><title content="structured text">64-bit register.88</title><rect x="0" y="71.6161" width="192.756" height="28.3465" class="st1"/></g><g id="shape2-3" transform="translate(567.729,-48.689) scale(-1,1)"><title content="structured text">64-bit register.156</title><path d="M0 71.62 L555.59 71.62 L555.59 99.96 L0 99.96" class="st2"/></g><g id="shape3-6" transform="translate(163.125,11.5886) rotate(90)"><title content="structured text">64-bit register.169</title><path d="M0 99.96 L11.34 99.96" class="st3"/></g><g id="shape4-9" transform="translate(567.729,-48.4596)"><title content="structured text">64-bit register.157</title><path d="M0 71.62 L0 99.96" class="st2"/></g><g id="shape5-12" transform="translate(386.312,-48.689)"><title content="structured text">64-bit register.39</title><path d="M0 71.62 L0 99.96" class="st2"/></g><g id="shape6-15" transform="translate(431.666,-48.689)"><title content="structured text">64-bit register.41</title><path d="M0 71.62 L0 99.96" class="st2"/></g><g id="shape7-18" transform="translate(477.02,-48.689)"><title content="structured text">64-bit register.42</title><path d="M0 71.62 L0 99.96" class="st2"/></g><g id="shape8-21" transform="translate(522.375,-48.689)"><title content="structured text">64-bit register.52</title><path d="M0 71.62 L0 99.96" class="st2"/></g><g id="shape9-24" transform="translate(486.274,11.5886) rotate(90)"><title content="structured text">64-bit register.14</title><path d="M0 99.96 L11.34 99.96" class="st3"/></g><g id="shape10-27" transform="translate(531.629,11.5886) rotate(90)"><title content="structured text">64-bit register.15</title><path d="M0 99.96 L11.34 99.96" class="st3"/></g><g id="shape11-30" transform="translate(622.337,11.5886) rotate(90)"><title content="structured text">64-bit register.16</title><path d="M0 99.96 L11.34 99.96" class="st3"/></g><g id="shape12-33" transform="translate(667.692,11.5886) rotate(90)"><title content="structured text">64-bit register.17</title><path d="M0 99.96 L11.34 99.96" class="st3"/></g><g id="shape13-36" transform="translate(12.1386,-76.8061)"><title content="structured text">64-bit register.179</title><desc content="structured text">63</desc><text x="1.22" y="96.69" class="st4">63</text></g><g id="shape14-38" transform="translate(556.391,-76.8061)"><title content="structured text">64-bit register.19</title><desc content="structured text">0</desc><text x="3.44" y="96.69" class="st4">0</text></g><g id="shape15-40" transform="translate(576.983,11.5886) rotate(90)"><title content="structured text">64-bit register.21</title><path d="M0 99.96 L11.34 99.96" class="st3"/></g><g id="shape16-43" transform="translate(511.036,-76.8061)"><title content="structured text">64-bit register.35</title><desc content="structured text">4</desc><text x="3.44" y="96.69" class="st4">4</text></g><g id="shape17-45" transform="translate(522.375,-76.8061)"><title content="structured text">64-bit register.209</title><desc content="structured text">3</desc><text x="3.44" y="96.69" class="st4">3</text></g><g id="shape18-47" transform="translate(465.682,-76.8061)"><title content="structured text">64-bit register.210</title><desc content="structured text">8</desc><text x="3.44" y="96.69" class="st4">8</text></g><g id="shape19-49" transform="translate(477.02,-76.8061)"><title content="structured text">64-bit register.211</title><desc content="structured text">7</desc><text x="3.44" y="96.69" class="st4">7</text></g><g id="shape20-51" transform="translate(420.328,-76.8061)"><title content="structured text">64-bit register.212</title><desc content="structured text">12</desc><text x="1.22" y="96.69" class="st4">12</text></g><g id="shape21-53" transform="translate(431.666,-76.8061)"><title content="structured text">64-bit register.213</title><desc content="structured text">11</desc><text x="1.22" y="96.69" class="st4">11</text></g><g id="shape22-55" transform="translate(374.973,-76.8061)"><title content="structured text">64-bit register.214</title><desc content="structured text">16</desc><text x="1.22" y="96.69" class="st4">16</text></g><g id="shape23-57" transform="translate(386.312,-76.8061)"><title content="structured text">64-bit register.215</title><desc content="structured text">15</desc><text x="1.22" y="96.69" class="st4">15</text></g><g id="shape24-59" transform="translate(431.666,-48.4596)"><title content="structured text">64-bit register.223</title><desc content="structured text">BigEnd</desc><rect x="0" y="71.6161" width="45.3543" height="28.3465" class="st5"/><text x="9.78" y="88.19" class="st4">BigEnd</text></g><g id="shape25-62" transform="translate(477.02,-48.4596)"><title content="structured text">64-bit register.224</title><desc content="structured text">ASIDBits</desc><rect x="0" y="71.6161" width="45.3543" height="28.3465" class="st5"/><text x="6.67" y="88.19" class="st4">ASID<tspan class="st6">B</tspan>its</text></g><g id="shape26-66" transform="translate(340.957,-48.689)"><title content="structured text">Sheet.26</title><path d="M0 71.62 L0 99.96" class="st2"/></g><g id="shape27-69" transform="translate(329.619,-76.8061)"><title content="structured text">64-bit register.40</title><desc content="structured text">20</desc><text x="1.22" y="96.69" class="st4">20</text></g><g id="shape28-71" transform="translate(340.957,-76.8061)"><title content="structured text">Sheet.28</title><desc content="structured text">19</desc><text x="1.22" y="96.69" class="st4">19</text></g><g id="shape29-73" transform="translate(440.92,11.5886) rotate(90)"><title content="structured text">64-bit register.43</title><path d="M0 99.96 L11.34 99.96" class="st3"/></g><g id="shape30-76" transform="translate(386.312,-48.4596)"><title content="structured text">64-bit register.45</title><desc content="structured text">SNSMem</desc><rect x="0" y="71.6161" width="45.3543" height="28.3465" class="st5"/><text x="5.56" y="88.19" class="st4">SNSMem</text></g><g id="shape31-79" transform="translate(295.603,-48.4596)"><title content="structured text">64-bit register.46</title><desc content="structured text">TGran16</desc><rect x="0" y="71.6161" width="45.3543" height="28.3465" class="st5"/><text x="6.89" y="88.19" class="st4">TGran16</text></g><g id="shape32-82" transform="translate(522.375,-48.4596)"><title content="structured text">64-bit register.47</title><desc content="structured text">PARange</desc><rect x="0" y="71.6161" width="45.3543" height="28.3465" class="st5"/><text x="5.55" y="88.19" class="st4">PARange</text></g><g id="shape33-85" transform="translate(295.603,-48.689)"><title content="structured text">Sheet.33</title><path d="M0 71.62 L0 99.96" class="st2"/></g><g id="shape34-88" transform="translate(284.265,-76.8061)"><title content="structured text">64-bit register.50</title><desc content="structured text">24</desc><text x="1.22" y="96.69" class="st4">24</text></g><g id="shape35-90" transform="translate(295.603,-76.8061)"><title content="structured text">Sheet.35</title><desc content="structured text">23</desc><text x="1.22" y="96.69" class="st4">23</text></g><g id="shape36-92" transform="translate(395.566,11.5886) rotate(90)"><title content="structured text">Sheet.36</title><path d="M0 99.96 L11.34 99.96" class="st3"/></g><g id="shape37-95" transform="translate(350.211,11.8179) rotate(90)"><title content="structured text">Sheet.37</title><path d="M0 99.96 L11.34 99.96" class="st3"/></g><g id="shape38-98" transform="translate(112.101,11.5886) rotate(90)"><title content="structured text">Sheet.38</title><path d="M0 99.96 L11.34 99.96" class="st3"/></g><g id="shape39-101" transform="translate(340.957,-48.4596)"><title content="structured text">64-bit register.56</title><desc content="structured text">BigEndEL0</desc><rect x="0" y="71.6161" width="45.3543" height="28.3465" class="st5"/><text x="2.66" y="88.19" class="st4">BigEndEL0</text></g><g id="group40-104" transform="translate(107.099,-45.8543)"><title content="structured text">Sheet.40</title><g id="group41-105" transform="translate(-5.7454E-015,-28.3465)"><title content="structured text">Disconnect</title><g id="shape42-106" transform="translate(0.566929,0)"><title content="structured text">Sheet.42</title><rect x="0" y="94.2933" width="1.88976" height="5.66929" class="st7"/></g><g id="shape43-108" transform="translate(101.031,110.659) rotate(99.4623)"><title content="structured text">Sheet.43</title><path d="M0 99.55 C0.15 99.76 0.72 99.93 1.15 99.96 C1.58 99.99 1.86 99.88 2.34 99.64 C2.63 99.5 2.98 99.32 3.29          99.2 C4.56 98.7 5.03 99.25 5.75 99.55" class="st8"/></g><g id="shape44-111" transform="translate(99.1417,110.659) rotate(99.4623)"><title content="structured text">Sheet.44</title><path d="M0 99.55 C0.15 99.76 0.72 99.93 1.15 99.96 C1.58 99.99 1.86 99.88 2.34 99.64 C2.63 99.5 2.98 99.32 3.29          99.2 C4.56 98.7 5.03 99.25 5.75 99.55" class="st8"/></g></g><g id="group45-114"><title content="structured text">Disconnect.12</title><g id="shape46-115" transform="translate(0.566929,0)"><title content="structured text">Sheet.46</title><rect x="0" y="94.2933" width="1.88976" height="5.66929" class="st7"/></g><g id="shape47-117" transform="translate(101.031,110.659) rotate(99.4623)"><title content="structured text">Sheet.47</title><path d="M0 99.55 C0.15 99.76 0.72 99.93 1.15 99.96 C1.58 99.99 1.86 99.88 2.34 99.64 C2.63 99.5 2.98 99.32 3.29          99.2 C4.56 98.7 5.03 99.25 5.75 99.55" class="st8"/></g><g id="shape48-120" transform="translate(99.1417,110.659) rotate(99.4623)"><title content="structured text">Sheet.48</title><path d="M0 99.55 C0.15 99.76 0.72 99.93 1.15 99.96 C1.58 99.99 1.86 99.88 2.34 99.64 C2.63 99.5 2.98 99.32 3.29          99.2 C4.56 98.7 5.03 99.25 5.75 99.55" class="st8"/></g></g></g><g id="shape49-123" transform="translate(208.479,11.5886) rotate(90)"><title content="structured text">Sheet.49</title><path d="M0 99.96 L11.34 99.96" class="st3"/></g><g id="shape50-126" transform="translate(140.448,11.5886) rotate(90)"><title content="structured text">Sheet.50</title><path d="M0 99.96 L11.34 99.96" class="st3"/></g><g id="shape51-129" transform="translate(253.833,11.8179) rotate(90)"><title content="structured text">Sheet.51</title><path d="M0 99.96 L11.34 99.96" class="st3"/></g><g id="shape52-132" transform="translate(185.802,11.5886) rotate(90)"><title content="structured text">Sheet.52</title><path d="M0 99.96 L11.34 99.96" class="st3"/></g><g id="shape53-135" transform="translate(107.643,-77.0235)"><title content="structured text">Sheet.53</title></g><g id="shape54-136" transform="translate(304.857,11.8179) rotate(90)"><title content="structured text">Sheet.54</title><path d="M0 99.96 L11.34 99.96" class="st3"/></g><g id="shape55-139" transform="translate(231.156,11.8179) rotate(90)"><title content="structured text">Sheet.55</title><path d="M0 99.96 L11.34 99.96" class="st3"/></g><g id="group56-142" transform="translate(12.1386,-11.8386)"><title content="structured text">Sheet.56</title><g id="shape57-143" transform="translate(11.3386,0)"><title content="structured text">Rectangle No Fill No Fill.116</title><desc content="structured text">res0</desc><rect x="0" y="88.624" width="22.6772" height="11.3386" class="st9"/><text x="3.07" y="96.69" class="st10">RES<tspan class="st11">0</tspan></text></g><g id="shape58-147"><title content="structured text">Graphic.117</title><rect x="0" y="88.624" width="11.3386" height="11.3386" class="st12"/></g></g><g id="shape59-149" transform="translate(250.249,-48.689)"><title content="structured text">Sheet.59</title><path d="M0 71.62 L0 99.96" class="st2"/></g><g id="shape60-152" transform="translate(204.894,-48.689)"><title content="structured text">Sheet.60</title><path d="M0 71.62 L0 99.96" class="st2"/></g><g id="shape61-155" transform="translate(250.249,-77.0354)"><title content="structured text">64-bit register.61</title><desc content="structured text">27</desc><text x="1.22" y="96.69" class="st4">27</text></g><g id="shape62-157" transform="translate(238.91,-77.0354)"><title content="structured text">64-bit register.62</title><desc content="structured text">28</desc><text x="1.22" y="96.69" class="st4">28</text></g><g id="shape63-159" transform="translate(204.894,-77.0354)"><title content="structured text">64-bit register.63</title><desc content="structured text">31</desc><text x="1.22" y="96.69" class="st4">31</text></g><g id="shape64-161" transform="translate(193.556,-77.0354)"><title content="structured text">64-bit register.64</title><desc content="structured text">32</desc><text x="1.22" y="96.69" class="st4">32</text></g><g id="shape65-163" transform="translate(250.603,-48.689)"><title content="structured text">64-bit register.65</title><desc content="structured text">TGran64</desc><rect x="0" y="71.6161" width="45.3543" height="28.3465" class="st5"/><text x="6.89" y="88.19" class="st4">TGran64</text></g><g id="shape66-166" transform="translate(205.249,-48.689)"><title content="structured text">64-bit register.66</title><desc content="structured text">TGran4</desc><rect x="0" y="71.6161" width="45.3543" height="28.3465" class="st5"/><text x="9.12" y="88.19" class="st4">TGran4</text></g><g id="shape195-169" transform="translate(276.511,11.5886) rotate(90)"><title content="structured text">Sheet.195</title><path d="M0 99.96 L11.34 99.96" class="st3"/></g></g></svg>