<?xml version="1.0" encoding="UTF-8" standalone="no"?><!-- Fixed up by svgfix.xsl 1.4  --><!-- Generated by Microsoft Visio, SVG Export lau1443703932626_Source.svg ARM -->
<!DOCTYPE svg
  PUBLIC "-//W3C//DTD SVG 1.0//EN" "http://www.w3.org/TR/2001/REC-SVG-20010904/DTD/svg10.dtd">
<svg xmlns:xlink="http://www.w3.org/1999/xlink" xmlns="http://www.w3.org/2000/svg" xmlns:ev="http://www.w3.org/2001/xml-events" width="516.149" height="84.55" viewBox="0 0 387.112 63.412" xml:space="preserve" color-interpolation-filters="sRGB" class="st6" preserveAspectRatio="xMidYMid meet" zoomAndPan="magnify" version="1.1" contentScriptType="application/ecmascript" contentStyleType="text/css"><style type="text/css" xml:space="preserve"><![CDATA[
	
		.st1 {fill:#000000;font-family:Arial,Helvetica,sans-serif;font-size:0.666664em}
		.st2 {fill:#ffffff;stroke:none;stroke-linecap:round;stroke-linejoin:round;stroke-width:0.2px}
		.st3 {fill:#ffffff;visibility:hidden}
		.st4 {stroke:#000000;stroke-linecap:butt;stroke-width:0.8px}
		.st5 {stroke:#000000;stroke-dasharray:0.25,1;stroke-linecap:butt;stroke-width:0.25px}
		.st6 {fill:none;fill-rule:evenodd;font-size:12px;overflow:visible;stroke-linecap:square;stroke-miterlimit:3}]]></style><g xmlns:v="http://schemas.microsoft.com/visio/2003/SVGExtensions/"><title>ARM</title><g id="shape1-1" transform="translate(12.1386,-40.485)"><title>Sheet.1</title><desc>31</desc><text x="1.22" y="60.14" class="st1">31</text></g><g id="shape2-3" transform="translate(363.635,-40.485)"><title>Sheet.2</title><desc>0</desc><text x="3.44" y="60.14" class="st1">0</text></g><g id="shape3-5" transform="translate(12.1386,-12.1386)"><title>Sheet.3</title><desc>RAZ/WI</desc><rect x="0" y="35.0657" width="362.835" height="28.3465" class="st2"/><text x="167.42" y="51.64" class="st1">RAZ/WI</text></g><g id="shape4-8" transform="translate(12.1386,-12.1386)"><title>Sheet.4</title><rect x="0" y="35.0657" width="362.835" height="28.3465" class="st3"/><rect x="0" y="35.0657" width="362.835" height="28.3465" class="st4"/></g><g id="shape5-11" transform="translate(393.031,11.5886) rotate(90)"><title>Signal 0</title><path d="M0 63.41 L11.34 63.41" class="st5"/></g><g id="shape6-14" transform="translate(347.677,11.5886) rotate(90)"><title>Signal 0.102</title><path d="M0 63.41 L11.34 63.41" class="st5"/></g><g id="shape7-17" transform="translate(302.322,11.5886) rotate(90)"><title>Signal 0.103</title><path d="M0 63.41 L11.34 63.41" class="st5"/></g><g id="shape8-20" transform="translate(256.968,11.5886) rotate(90)"><title>Signal 0.104</title><path d="M0 63.41 L11.34 63.41" class="st5"/></g><g id="shape9-23" transform="translate(211.614,11.5886) rotate(90)"><title>Signal 0.105</title><path d="M0 63.41 L11.34 63.41" class="st5"/></g><g id="shape10-26" transform="translate(166.259,11.5886) rotate(90)"><title>Signal 0.106</title><path d="M0 63.41 L11.34 63.41" class="st5"/></g><g id="shape11-29" transform="translate(120.905,11.5886) rotate(90)"><title>Signal 0.107</title><path d="M0 63.41 L11.34 63.41" class="st5"/></g><g id="shape12-32" transform="translate(75.5508,11.5886) rotate(90)"><title>Signal 0.108</title><path d="M0 63.41 L11.34 63.41" class="st5"/></g><g id="shape13-35" transform="translate(438.385,11.5886) rotate(90)"><title>Signal 0.109</title><path d="M0 63.41 L11.34 63.41" class="st5"/></g></g></svg>