<?xml version="1.0" encoding="UTF-8" standalone="no"?><!-- Fixed up by svgfix.xsl 1.4  --><!-- Generated by Microsoft Visio 11.0, SVG Export, v1.0 dczid_el0_bit_assignments_LowRes.svg ARM -->
<!DOCTYPE svg
  PUBLIC "-//W3C//DTD SVG 1.0//EN" "http://www.w3.org/TR/2001/REC-SVG-20010904/DTD/svg10.dtd">
<svg xmlns:xlink="http://www.w3.org/1999/xlink" xmlns="http://www.w3.org/2000/svg" xmlns:ev="http://www.w3.org/2001/xml-events" width="516.149" height="125.724" viewBox="0 0 387.112 94.293" xml:space="preserve" color-interpolation-filters="sRGB" class="st10" preserveAspectRatio="xMidYMid meet" zoomAndPan="magnify" version="1.0" contentScriptType="text/ecmascript" contentStyleType="text/css"><style type="text/css" xml:space="preserve"><![CDATA[
	
		.st1 {fill:#eed9b3;stroke:none;stroke-linecap:round;stroke-linejoin:round;stroke-width:0.2px}
		.st2 {fill:#000000;font-family:Arial,Helvetica,sans-serif;font-size:0.666664em}
		.st3 {fill:#ffffff;visibility:hidden}
		.st4 {stroke:#000000;stroke-linecap:butt;stroke-width:0.8px}
		.st5 {stroke:#000000;stroke-dasharray:0.25,1;stroke-linecap:butt;stroke-width:0.25px}
		.st6 {stroke:#000000;stroke-linecap:butt;stroke-width:0.5px}
		.st7 {fill:none;stroke:none;stroke-linecap:butt;stroke-width:0.499999px}
		.st8 {fill:#000000;font-family:Arial,Helvetica,sans-serif;font-size:0.533318em}
		.st9 {font-size:1.25003em}
		.st10 {fill:none;fill-rule:evenodd;font-size:12px;overflow:visible;stroke-linecap:square;stroke-miterlimit:3}]]></style><g xmlns:v="http://schemas.microsoft.com/visio/2003/SVGExtensions/"><title content="structured text">ARM</title><g id="shape142-1" transform="translate(12.1386,-43.0197)"><title content="structured text">Graphic.117</title><rect x="0" y="65.9468" width="306.142" height="28.3464" class="st1"/></g><g id="group64-3" transform="translate(12.1386,-23.1772)"><title content="structured text">32-bit register</title><g id="shape66-4" transform="translate(8.59313E-014,-48.189)"><title content="structured text">Bit31</title><desc content="structured text">31</desc><text x="1.22" y="91.02" class="st2">31</text></g><g id="shape92-6" transform="translate(294.803,-48.189)"><title content="structured text">Bit05</title><desc content="structured text">5</desc><text x="3.44" y="91.02" class="st2">5</text></g><g id="shape93-8" transform="translate(306.142,-48.189)"><title content="structured text">Bit04</title><desc content="structured text">4</desc><text x="3.44" y="91.02" class="st2">4</text></g><g id="shape94-10" transform="translate(317.48,-48.189)"><title content="structured text">Bit03</title><desc content="structured text">3</desc><text x="3.44" y="91.02" class="st2">3</text></g><g id="shape97-12" transform="translate(0,-19.8425)"><title content="structured text">MainOutline+Bit00</title><desc content="structured text">0</desc><rect x="0" y="65.9468" width="362.835" height="28.3465" class="st3"/><rect x="0" y="65.9468" width="362.835" height="28.3465" class="st4"/><text x="354.94" y="62.68" class="st2">0</text></g><g id="shape98-16" transform="translate(411.774,34.7657) rotate(90)"><title content="structured text">Signal 0</title><path d="M0 94.29 L11.34 94.29" class="st5"/></g><g id="shape99-19" transform="translate(366.419,34.7657) rotate(90)"><title content="structured text">Signal 0.102</title><path d="M0 94.29 L11.34 94.29" class="st5"/></g><g id="shape100-22" transform="translate(321.065,34.7657) rotate(90)"><title content="structured text">Signal 0.103</title><path d="M0 94.29 L11.34 94.29" class="st5"/></g><g id="shape101-25" transform="translate(275.711,34.7657) rotate(90)"><title content="structured text">Signal 0.104</title><path d="M0 94.29 L11.34 94.29" class="st5"/></g><g id="shape102-28" transform="translate(230.356,34.7657) rotate(90)"><title content="structured text">Signal 0.105</title><path d="M0 94.29 L11.34 94.29" class="st5"/></g><g id="shape103-31" transform="translate(185.002,34.7657) rotate(90)"><title content="structured text">Signal 0.106</title><path d="M0 94.29 L11.34 94.29" class="st5"/></g><g id="shape104-34" transform="translate(139.648,34.7657) rotate(90)"><title content="structured text">Signal 0.107</title><path d="M0 94.29 L11.34 94.29" class="st5"/></g><g id="shape105-37" transform="translate(94.2933,34.7657) rotate(90)"><title content="structured text">Signal 0.108</title><path d="M0 94.29 L11.34 94.29" class="st5"/></g><g id="shape106-40" transform="translate(457.128,34.7657) rotate(90)"><title content="structured text">Signal 0.109</title><path d="M0 94.29 L11.34 94.29" class="st5"/></g><g id="shape109-43" transform="translate(317.48,-19.8425)"><title content="structured text">Sheet.109</title><desc content="structured text">BlockSize</desc><path d="M0 94.29 L0 65.95" class="st4"/><path d="M45.35 94.29 L45.35 65.95" class="st4"/><text x="5.11" y="82.52" class="st2">BlockSize</text></g><g id="shape110-48" transform="translate(306.142,-19.8425)"><title content="structured text">Sheet.110</title><path d="M0 94.29 L0 65.95" class="st4"/><path d="M11.34 94.29 L11.34 65.95" class="st4"/></g><g id="shape138-52" transform="translate(300.472,-11.3386)"><title content="structured text">Bit name 2</title><desc content="structured text">DZP</desc><path d="M11.34 88.62 L11.34 94.29 L0 94.29" class="st6"/><text x="-17" y="96.69" class="st2">DZP</text></g></g><g id="group139-56" transform="translate(12.1386,-11.8386)"><title content="structured text">Sheet.139</title><g id="shape140-57" transform="translate(11.3386,0)"><title content="structured text">Rectangle No Fill No Fill.116</title><desc content="structured text">res0</desc><rect x="0" y="82.9547" width="22.6772" height="11.3386" class="st7"/><text x="3.07" y="91.02" class="st8">RES<tspan class="st9">0</tspan></text></g><g id="shape141-61"><title content="structured text">Graphic.117</title><rect x="0" y="82.9547" width="11.3386" height="11.3386" class="st1"/></g></g></g></svg>