<?xml version="1.0" encoding="UTF-8" standalone="no"?><!-- Fixed up by svgfix.xsl 1.4  --><!-- Generated by Microsoft Visio 11.0, SVG Export, v1.0 trcdevarch_bit_assignments.svg Page-1 -->
<!DOCTYPE svg
  PUBLIC "-//W3C//DTD SVG 1.0//EN" "http://www.w3.org/TR/2001/REC-SVG-20010904/DTD/svg10.dtd">
<svg xmlns:xlink="http://www.w3.org/1999/xlink" xmlns="http://www.w3.org/2000/svg" width="485.913" height="84.15" viewBox="0 0 364.435 63.112" xml:space="preserve" color-interpolation-filters="sRGB" class="st8" preserveAspectRatio="xMidYMid meet" zoomAndPan="magnify" version="1.0" contentScriptType="text/ecmascript" contentStyleType="text/css"><style type="text/css" xml:space="preserve"><![CDATA[
	
		.st1 {fill:#ffffff;stroke:none;stroke-linecap:round;stroke-linejoin:round;stroke-width:0.2px}
		.st2 {fill:#000000;font-family:Arial,Helvetica,sans-serif;font-size:0.666664em}
		.st3 {fill:#ffffff;visibility:hidden}
		.st4 {stroke:#000000;stroke-linecap:butt;stroke-width:0.8px}
		.st5 {stroke:#000000;stroke-dasharray:0.25,1;stroke-linecap:butt;stroke-width:0.25px}
		.st6 {stroke:#000000;stroke-linecap:butt;stroke-width:0.5px}
		.st7 {fill:none;stroke:none;stroke-linecap:butt;stroke-width:0.5px}
		.st8 {fill:none;fill-rule:evenodd;font-size:12px;overflow:visible;stroke-linecap:square;stroke-miterlimit:3}]]></style><g xmlns:v="http://schemas.microsoft.com/visio/2003/SVGExtensions/"><title content="structured text">Page-1</title><g id="shape1-1" transform="translate(0.8,-23.1772)"><title content="structured text">Sheet.1</title><desc content="structured text">ARCHITECT</desc><rect x="0" y="34.7657" width="124.724" height="28.3465" class="st1"/><text x="39.47" y="51.34" class="st2">ARCHITECT</text></g><g id="shape2-4" transform="translate(0.8,-51.5236)"><title content="structured text">Sheet.2</title><desc content="structured text">31</desc><text x="1.22" y="59.84" class="st2">31</text></g><g id="shape3-6" transform="translate(114.186,-51.5236)"><title content="structured text">Sheet.3</title><desc content="structured text">21</desc><text x="1.22" y="59.84" class="st2">21</text></g><g id="shape4-8" transform="translate(125.524,-51.5236)"><title content="structured text">Sheet.4</title><desc content="structured text">20</desc><text x="1.22" y="59.84" class="st2">20</text></g><g id="shape5-10" transform="translate(136.863,-51.5236)"><title content="structured text">Sheet.5</title><desc content="structured text">19</desc><text x="1.22" y="59.84" class="st2">19</text></g><g id="shape6-12" transform="translate(170.879,-51.5236)"><title content="structured text">Sheet.6</title><desc content="structured text">16</desc><text x="1.22" y="59.84" class="st2">16</text></g><g id="shape7-14" transform="translate(182.217,-51.5236)"><title content="structured text">Sheet.7</title><desc content="structured text">15</desc><text x="1.22" y="59.84" class="st2">15</text></g><g id="shape8-16" transform="translate(352.296,-51.5236)"><title content="structured text">Sheet.8</title><desc content="structured text">0</desc><text x="3.44" y="59.84" class="st2">0</text></g><g id="shape9-18" transform="translate(125.524,-23.1772)"><title content="structured text">Sheet.9</title><rect x="0" y="34.7657" width="11.3386" height="28.3465" class="st1"/></g><g id="shape10-20" transform="translate(136.863,-23.1772)"><title content="structured text">Sheet.10</title><desc content="structured text">REVISION</desc><rect x="0" y="34.7657" width="45.3543" height="28.3465" class="st1"/><text x="3.56" y="51.34" class="st2">REVISION</text></g><g id="shape11-23" transform="translate(182.217,-23.1772)"><title content="structured text">Sheet.11</title><desc content="structured text">ARCHID</desc><rect x="0" y="34.7657" width="181.417" height="28.3465" class="st1"/><text x="75.37" y="51.34" class="st2">ARCHID</text></g><g id="shape12-26" transform="translate(0.8,-23.1772)"><title content="structured text">Sheet.12</title><rect x="0" y="34.7657" width="362.835" height="28.3465" class="st3"/><rect x="0" y="34.7657" width="362.835" height="28.3465" class="st4"/></g><g id="shape13-29" transform="translate(125.524,-23.1772)"><title content="structured text">Sheet.13</title><path d="M0 34.77 L0 63.11" class="st4"/></g><g id="shape14-32" transform="translate(136.863,-23.1772)"><title content="structured text">Sheet.14</title><path d="M0 34.77 L0 63.11" class="st4"/></g><g id="shape15-35" transform="translate(182.217,-23.1772)"><title content="structured text">Sheet.15</title><path d="M0 34.77 L0 63.11" class="st4"/></g><g id="shape16-38" transform="translate(381.393,0.25) rotate(90)"><title content="structured text">Signal 0</title><path d="M0 63.11 L11.34 63.11" class="st5"/></g><g id="shape17-41" transform="translate(336.038,0.25) rotate(90)"><title content="structured text">Signal 0.102</title><path d="M0 63.11 L11.34 63.11" class="st5"/></g><g id="shape18-44" transform="translate(290.684,0.25) rotate(90)"><title content="structured text">Signal 0.103</title><path d="M0 63.11 L11.34 63.11" class="st5"/></g><g id="shape19-47" transform="translate(245.33,0.25) rotate(90)"><title content="structured text">Signal 0.104</title><path d="M0 63.11 L11.34 63.11" class="st5"/></g><g id="shape20-50" transform="translate(199.975,0.25) rotate(90)"><title content="structured text">Signal 0.105</title><path d="M0 63.11 L11.34 63.11" class="st5"/></g><g id="shape21-53" transform="translate(154.621,0.25) rotate(90)"><title content="structured text">Signal 0.106</title><path d="M0 63.11 L11.34 63.11" class="st5"/></g><g id="shape22-56" transform="translate(109.267,0.25) rotate(90)"><title content="structured text">Signal 0.107</title><path d="M0 63.11 L11.34 63.11" class="st5"/></g><g id="shape23-59" transform="translate(63.9122,0.25) rotate(90)"><title content="structured text">Signal 0.108</title><path d="M0 63.11 L11.34 63.11" class="st5"/></g><g id="shape24-62" transform="translate(426.747,0.25) rotate(90)"><title content="structured text">Signal 0.109</title><path d="M0 63.11 L11.34 63.11" class="st5"/></g><g id="shape25-65" transform="translate(194.306,45.6043) rotate(90)"><title content="structured text">Signal 0.1</title><path d="M0 63.11 L11.34 63.11" class="st6"/></g><g id="shape26-68" transform="translate(119.855,-6.16929)"><title content="structured text">Signal 0.2</title><path d="M0 63.11 L11.34 63.11" class="st6"/></g><g id="shape27-71" transform="translate(74.5008,-0.5)"><title content="structured text">Sheet.27</title><desc content="structured text">PRESENT</desc><rect x="0" y="51.7736" width="45.3543" height="11.3386" class="st7"/><text x="6.57" y="59.84" class="st2">PRESENT</text></g></g></svg>