<?xml version="1.0" encoding="UTF-8" standalone="no"?><!-- Fixed up by svgfix.xsl 1.4  --><!-- Generated by Microsoft Visio 11.0, SVG Export, v1.0 trcvmidcvr0_bit_assignments.svg ARM -->
<!DOCTYPE svg
  PUBLIC "-//W3C//DTD SVG 1.0//EN" "http://www.w3.org/TR/2001/REC-SVG-20010904/DTD/svg10.dtd">
<svg xmlns:xlink="http://www.w3.org/1999/xlink" xmlns="http://www.w3.org/2000/svg" xmlns:ev="http://www.w3.org/2001/xml-events" width="516.149" height="114.386" viewBox="0 0 387.112 85.789" xml:space="preserve" color-interpolation-filters="sRGB" class="st12" preserveAspectRatio="xMidYMid meet" zoomAndPan="magnify" version="1.0" contentScriptType="text/ecmascript" contentStyleType="text/css"><style type="text/css" xml:space="preserve"><![CDATA[
	
		.st1 {fill:#eed9b3;stroke:#000000;stroke-linecap:butt;stroke-width:0.5px}
		.st2 {stroke:#000000;stroke-linecap:butt;stroke-width:0.8px}
		.st3 {fill:#000000;font-family:Arial,Helvetica,sans-serif;font-size:0.666664em}
		.st4 {fill:#ffffff;visibility:hidden}
		.st5 {stroke:#000000;stroke-dasharray:0.25,1;stroke-linecap:butt;stroke-width:0.25px}
		.st6 {fill:#ffffff;stroke:none;stroke-linecap:butt;stroke-width:0.5px}
		.st7 {stroke:#000000;stroke-linecap:butt;stroke-width:0.5px}
		.st8 {fill:none;stroke:none;stroke-linecap:butt;stroke-width:0.499999px}
		.st9 {fill:#000000;font-family:Arial,Helvetica,sans-serif;font-size:0.533318em}
		.st10 {font-size:1.25003em}
		.st11 {fill:#eed9b3;stroke:none;stroke-linecap:round;stroke-linejoin:round;stroke-width:0.2px}
		.st12 {fill:none;fill-rule:evenodd;font-size:12px;overflow:visible;stroke-linecap:square;stroke-miterlimit:3}]]></style><g xmlns:v="http://schemas.microsoft.com/visio/2003/SVGExtensions/"><title content="structured text">ARM</title><g id="shape44-1" transform="translate(12.1386,-34.5157)"><title content="structured text">Sheet.44</title><rect x="0" y="57.4429" width="181.417" height="28.3465" class="st1"/></g><g id="group1-3" transform="translate(12.1386,-14.6732)"><title content="structured text">32-bit register</title><g id="shape2-4" transform="translate(181.417,-19.8425)"><title content="structured text">Sheet.2</title><desc content="structured text">VALUE</desc><path d="M0 85.79 L0 57.44" class="st2"/><path d="M181.42 85.79 L181.42 57.44" class="st2"/><text x="77.59" y="74.02" class="st3">VALUE</text></g><g id="shape3-9" transform="translate(8.59313E-014,-48.189)"><title content="structured text">Bit31</title><desc content="structured text">63</desc><text x="1.22" y="82.52" class="st3">63</text></g><g id="shape18-11" transform="translate(170.079,-48.189)"><title content="structured text">Bit16</title><desc content="structured text">32</desc><text x="1.22" y="82.52" class="st3">32</text></g><g id="shape19-13" transform="translate(181.417,-48.189)"><title content="structured text">Bit15</title><desc content="structured text">31</desc><text x="1.22" y="82.52" class="st3">31</text></g><g id="shape34-15" transform="translate(0,-19.8425)"><title content="structured text">MainOutline+Bit00</title><desc content="structured text">0</desc><rect x="0" y="57.4429" width="362.835" height="28.3465" class="st4"/><rect x="0" y="57.4429" width="362.835" height="28.3465" class="st2"/><text x="354.94" y="54.17" class="st3">0</text></g><g id="shape35-19" transform="translate(403.27,26.2618) rotate(90)"><title content="structured text">Signal 0</title><path d="M0 85.79 L11.34 85.79" class="st5"/></g><g id="shape36-22" transform="translate(357.915,26.2618) rotate(90)"><title content="structured text">Signal 0.102</title><path d="M0 85.79 L11.34 85.79" class="st5"/></g><g id="shape37-25" transform="translate(312.561,26.2618) rotate(90)"><title content="structured text">Signal 0.103</title><path d="M0 85.79 L11.34 85.79" class="st5"/></g><g id="shape38-28" transform="translate(267.207,26.2618) rotate(90)"><title content="structured text">Signal 0.104</title><path d="M0 85.79 L11.34 85.79" class="st5"/></g><g id="shape39-31" transform="translate(221.852,26.2618) rotate(90)"><title content="structured text">Signal 0.105</title><path d="M0 85.79 L11.34 85.79" class="st5"/></g><g id="shape40-34" transform="translate(176.498,26.2618) rotate(90)"><title content="structured text">Signal 0.106</title><path d="M0 85.79 L11.34 85.79" class="st5"/></g><g id="shape41-37" transform="translate(131.144,26.2618) rotate(90)"><title content="structured text">Signal 0.107</title><path d="M0 85.79 L11.34 85.79" class="st5"/></g><g id="shape42-40" transform="translate(85.7894,26.2618) rotate(90)"><title content="structured text">Signal 0.108</title><path d="M0 85.79 L11.34 85.79" class="st5"/></g><g id="shape43-43" transform="translate(448.624,26.2618) rotate(90)"><title content="structured text">Signal 0.109</title><path d="M0 85.79 L11.34 85.79" class="st5"/></g></g><g id="group4-46" transform="translate(101.43,-60.0275)"><title content="structured text">Disconnect</title><g id="shape5-47" transform="translate(0.566929,0)"><title content="structured text">Sheet.5</title><rect x="0" y="80.1201" width="1.88976" height="5.66929" class="st6"/></g><g id="shape6-49" transform="translate(87.051,94.1561) rotate(99.4623)"><title content="structured text">Sheet.6</title><path d="M0 85.38 C0.15 85.58 0.72 85.75 1.15 85.78 C1.58 85.82 1.86 85.71 2.34 85.47 C2.63 85.33 2.98 85.15 3.29         85.02 C4.56 84.52 5.03 85.08 5.75 85.38" class="st7"/></g><g id="shape7-52" transform="translate(85.1613,94.1561) rotate(99.4623)"><title content="structured text">Sheet.7</title><path d="M0 85.38 C0.15 85.58 0.72 85.75 1.15 85.78 C1.58 85.82 1.86 85.71 2.34 85.47 C2.63 85.33 2.98 85.15 3.29         85.02 C4.56 84.52 5.03 85.08 5.75 85.38" class="st7"/></g></g><g id="group8-55" transform="translate(101.43,-31.6811)"><title content="structured text">Disconnect.8</title><g id="shape9-56" transform="translate(0.566929,0)"><title content="structured text">Sheet.9</title><rect x="0" y="80.1201" width="1.88976" height="5.66929" class="st6"/></g><g id="shape10-58" transform="translate(87.051,94.1561) rotate(99.4623)"><title content="structured text">Sheet.10</title><path d="M0 85.38 C0.15 85.58 0.72 85.75 1.15 85.78 C1.58 85.82 1.86 85.71 2.34 85.47 C2.63 85.33 2.98 85.15 3.29         85.02 C4.56 84.52 5.03 85.08 5.75 85.38" class="st7"/></g><g id="shape11-61" transform="translate(85.1613,94.1561) rotate(99.4623)"><title content="structured text">Sheet.11</title><path d="M0 85.38 C0.15 85.58 0.72 85.75 1.15 85.78 C1.58 85.82 1.86 85.71 2.34 85.47 C2.63 85.33 2.98 85.15 3.29         85.02 C4.56 84.52 5.03 85.08 5.75 85.38" class="st7"/></g></g><g id="group12-64" transform="translate(282.847,-60.0275)"><title content="structured text">Disconnect.12</title><g id="shape13-65" transform="translate(0.566929,0)"><title content="structured text">Sheet.13</title><rect x="0" y="80.1201" width="1.88976" height="5.66929" class="st6"/></g><g id="shape14-67" transform="translate(87.051,94.1561) rotate(99.4623)"><title content="structured text">Sheet.14</title><path d="M0 85.38 C0.15 85.58 0.72 85.75 1.15 85.78 C1.58 85.82 1.86 85.71 2.34 85.47 C2.63 85.33 2.98 85.15 3.29         85.02 C4.56 84.52 5.03 85.08 5.75 85.38" class="st7"/></g><g id="shape15-70" transform="translate(85.1613,94.1561) rotate(99.4623)"><title content="structured text">Sheet.15</title><path d="M0 85.38 C0.15 85.58 0.72 85.75 1.15 85.78 C1.58 85.82 1.86 85.71 2.34 85.47 C2.63 85.33 2.98 85.15 3.29         85.02 C4.56 84.52 5.03 85.08 5.75 85.38" class="st7"/></g></g><g id="group16-73" transform="translate(282.847,-31.6811)"><title content="structured text">Disconnect.16</title><g id="shape17-74" transform="translate(0.566929,0)"><title content="structured text">Sheet.17</title><rect x="0" y="80.1201" width="1.88976" height="5.66929" class="st6"/></g><g id="shape20-76" transform="translate(87.051,94.1561) rotate(99.4623)"><title content="structured text">Sheet.20</title><path d="M0 85.38 C0.15 85.58 0.72 85.75 1.15 85.78 C1.58 85.82 1.86 85.71 2.34 85.47 C2.63 85.33 2.98 85.15 3.29         85.02 C4.56 84.52 5.03 85.08 5.75 85.38" class="st7"/></g><g id="shape21-79" transform="translate(85.1613,94.1561) rotate(99.4623)"><title content="structured text">Sheet.21</title><path d="M0 85.38 C0.15 85.58 0.72 85.75 1.15 85.78 C1.58 85.82 1.86 85.71 2.34 85.47 C2.63 85.33 2.98 85.15 3.29         85.02 C4.56 84.52 5.03 85.08 5.75 85.38" class="st7"/></g></g><g id="shape22-82" transform="translate(22.5786,-11.8386)"><title content="structured text">Rectangle No Fill No Fill.116</title><desc content="structured text">res0</desc><rect x="0" y="74.4508" width="19.8425" height="11.3386" class="st8"/><text x="1.24" y="82.52" class="st9">RES<tspan class="st10">0</tspan></text></g><g id="shape23-86" transform="translate(12.1386,-11.8386)"><title content="structured text">Graphic.117</title><rect x="0" y="74.4508" width="10.44" height="11.3386" class="st11"/></g></g></svg>