<?xml version="1.0" encoding="UTF-8" standalone="no"?><!-- Fixed up by svgfix.xsl 1.4  --><!-- Generated by Microsoft Visio 11.0, SVG Export, v1.0 sctlr_el1_bit_assignments.svg ARM -->
<!DOCTYPE svg
  PUBLIC "-//W3C//DTD SVG 1.0//EN" "http://www.w3.org/TR/2001/REC-SVG-20010904/DTD/svg10.dtd">
<svg xmlns:xlink="http://www.w3.org/1999/xlink" xmlns="http://www.w3.org/2000/svg" xmlns:ev="http://www.w3.org/2001/xml-events" width="526.444" height="242.79" viewBox="0 0 394.833 182.092" xml:space="preserve" color-interpolation-filters="sRGB" class="st14" preserveAspectRatio="xMidYMid meet" zoomAndPan="magnify" version="1.0" contentScriptType="text/ecmascript" contentStyleType="text/css"><style type="text/css" xml:space="preserve"><![CDATA[
	
		.st1 {fill:#eed9b3;stroke:none;stroke-linecap:round;stroke-linejoin:round;stroke-width:0.2px}
		.st2 {fill:#ccdfdb;stroke:none;stroke-linecap:round;stroke-linejoin:round;stroke-width:0.2px}
		.st3 {fill:#eed9b3;stroke:none;stroke-linecap:round;stroke-linejoin:round;stroke-width:0.2px}
		.st4 {stroke:#000000;stroke-linecap:butt;stroke-width:0.8px}
		.st5 {stroke:#000000;stroke-dasharray:0.25,0.5;stroke-linecap:butt;stroke-width:0.25px}
		.st6 {fill:#000000;font-family:Arial,Helvetica,sans-serif;font-size:0.666664em}
		.st7 {fill:none;stroke:none;stroke-linecap:round;stroke-linejoin:round;stroke-width:0.2px}
		.st8 {stroke:#000000;stroke-linecap:butt;stroke-width:0.5px}
		.st9 {fill:none;stroke:none;stroke-linecap:butt;stroke-width:0.5px}
		.st10 {fill:none;stroke:none;stroke-linecap:butt;stroke-width:0.499999px}
		.st11 {fill:#000000;font-family:Arial,Helvetica,sans-serif;font-size:0.533318em}
		.st12 {font-size:1.25003em}
		.st13 {fill:#ccdfdb;stroke:none;stroke-linecap:round;stroke-linejoin:round;stroke-width:0.2px}
		.st14 {fill:none;fill-rule:evenodd;font-size:12px;overflow:visible;stroke-linecap:square;stroke-miterlimit:3}]]></style><g xmlns:v="http://schemas.microsoft.com/visio/2003/SVGExtensions/"><title content="structured text">ARM</title><g id="shape76-1" transform="translate(295.603,-130.819)"><title content="structured text">Graphic.76</title><rect x="0" y="153.746" width="11.3386" height="28.3465" class="st1"/></g><g id="shape117-3" transform="translate(136.863,-130.819)"><title content="structured text">Sheet.117</title><rect x="0" y="153.746" width="11.3386" height="28.3465" class="st2"/></g><g id="shape54-5" transform="translate(250.249,-130.819)"><title content="structured text">Graphic.54</title><rect x="0" y="153.746" width="11.3386" height="28.3465" class="st1"/></g><g id="shape66-7" transform="translate(216.233,-130.819)"><title content="structured text">Graphic.66</title><rect x="0" y="153.746" width="11.3386" height="28.3465" class="st1"/></g><g id="shape110-9" transform="translate(170.879,-130.819)"><title content="structured text">Graphic.110</title><rect x="0" y="153.746" width="11.3386" height="28.3464" class="st1"/></g><g id="shape70-11" transform="translate(57.4929,-130.819)"><title content="structured text">Graphic.117</title><rect x="0" y="153.746" width="11.3386" height="28.3465" class="st1"/></g><g id="shape41-13" transform="translate(12.1386,-130.819)"><title content="structured text">Sheet.41</title><rect x="0" y="153.746" width="22.6772" height="28.3465" class="st3"/></g><g id="shape107-15" transform="translate(34.8157,-130.819)"><title content="structured text">Sheet.107</title><rect x="0" y="153.746" width="22.6772" height="28.3465" class="st2"/></g><g id="shape129-17" transform="translate(238.91,-130.819)"><title content="structured text">Sheet.129</title><rect x="0" y="153.746" width="11.3386" height="28.3465" class="st2"/></g><g id="shape36-19" transform="translate(114.186,-130.819)"><title content="structured text">Sheet.36</title><rect x="0" y="153.746" width="11.3386" height="28.3465" class="st2"/></g><g id="shape1-21" transform="translate(374.973,-130.819) scale(-1,1)"><title content="structured text">64-bit register.156</title><path d="M0 153.75 L362.83 153.75 L362.83 182.09 L0 182.09" class="st4"/></g><g id="shape2-24" transform="translate(194.231,11.5886) rotate(90)"><title content="structured text">64-bit register.169</title><path d="M0 182.09 L11.34 182.09" class="st5"/></g><g id="shape3-27" transform="translate(374.973,-130.819)"><title content="structured text">64-bit register.157</title><path d="M0 153.75 L0 182.09" class="st4"/></g><g id="shape4-30" transform="translate(239.585,11.5886) rotate(90)"><title content="structured text">64-bit register.11</title><path d="M0 182.09 L11.34 182.09" class="st5"/></g><g id="shape5-33" transform="translate(284.939,11.5886) rotate(90)"><title content="structured text">64-bit register.12</title><path d="M0 182.09 L11.34 182.09" class="st5"/></g><g id="shape6-36" transform="translate(330.294,11.5886) rotate(90)"><title content="structured text">64-bit register.13</title><path d="M0 182.09 L11.34 182.09" class="st5"/></g><g id="shape7-39" transform="translate(375.648,11.5886) rotate(90)"><title content="structured text">64-bit register.14</title><path d="M0 182.09 L11.34 182.09" class="st5"/></g><g id="shape8-42" transform="translate(421.002,11.5886) rotate(90)"><title content="structured text">64-bit register.15</title><path d="M0 182.09 L11.34 182.09" class="st5"/></g><g id="shape9-45" transform="translate(511.711,11.5886) rotate(90)"><title content="structured text">64-bit register.16</title><path d="M0 182.09 L11.34 182.09" class="st5"/></g><g id="shape10-48" transform="translate(557.065,11.5886) rotate(90)"><title content="structured text">64-bit register.17</title><path d="M0 182.09 L11.34 182.09" class="st5"/></g><g id="shape11-51" transform="translate(12.1386,-159.165)"><title content="structured text">64-bit register.179</title><desc content="structured text">31</desc><text x="1.22" y="178.82" class="st6">31</text></g><g id="shape12-53" transform="translate(363.635,-159.165)"><title content="structured text">64-bit register.19</title><desc content="structured text">0</desc><text x="3.44" y="178.82" class="st6">0</text></g><g id="shape13-55" transform="translate(329.619,-130.819)"><title content="structured text">64-bit register.37</title><path d="M0 153.75 L0 182.09" class="st4"/></g><g id="shape14-58" transform="translate(284.265,-130.819)"><title content="structured text">64-bit register.206</title><path d="M0 153.75 L0 182.09" class="st4"/></g><g id="shape15-61" transform="translate(238.91,-130.819)"><title content="structured text">64-bit register.207</title><path d="M0 153.75 L0 182.09" class="st4"/></g><g id="shape16-64" transform="translate(193.556,-130.819)"><title content="structured text">64-bit register.208</title><path d="M0 153.75 L0 182.09" class="st4"/></g><g id="shape17-67" transform="translate(363.635,-130.819)"><title content="structured text">64-bit register.25</title><path d="M0 153.75 L0 182.09" class="st4"/></g><g id="shape18-70" transform="translate(352.296,-130.819)"><title content="structured text">64-bit register.43</title><path d="M0 153.75 L0 182.09" class="st4"/></g><g id="shape19-73" transform="translate(340.957,-130.819)"><title content="structured text">64-bit register.44</title><path d="M0 153.75 L0 182.09" class="st4"/></g><g id="shape20-76" transform="translate(318.28,-130.819)"><title content="structured text">64-bit register.45</title><path d="M0 153.75 L0 182.09" class="st4"/></g><g id="shape21-79" transform="translate(306.942,-130.819)"><title content="structured text">64-bit register.46</title><path d="M0 153.75 L0 182.09" class="st4"/></g><g id="shape22-82" transform="translate(295.603,-130.819)"><title content="structured text">64-bit register.47</title><path d="M0 153.75 L0 182.09" class="st4"/></g><g id="shape23-85" transform="translate(272.926,-130.819)"><title content="structured text">64-bit register.48</title><path d="M0 153.75 L0 182.09" class="st4"/></g><g id="shape24-88" transform="translate(261.587,-130.819)"><title content="structured text">64-bit register.49</title><path d="M0 153.75 L0 182.09" class="st4"/></g><g id="shape25-91" transform="translate(227.572,-130.819)"><title content="structured text">64-bit register.51</title><path d="M0 153.75 L0 182.09" class="st4"/></g><g id="shape26-94" transform="translate(216.233,-130.819)"><title content="structured text">64-bit register.34</title><path d="M0 153.75 L0 182.09" class="st4"/></g><g id="shape27-97" transform="translate(204.894,-130.819)"><title content="structured text">64-bit register.53</title><path d="M0 153.75 L0 182.09" class="st4"/></g><g id="shape28-100" transform="translate(182.217,-130.819)"><title content="structured text">Sheet.28</title><path d="M0 153.75 L0 182.09" class="st4"/></g><g id="shape29-103" transform="translate(170.879,-130.819)"><title content="structured text">Sheet.29</title><path d="M0 153.75 L0 182.09" class="st4"/></g><g id="shape30-106" transform="translate(159.54,-130.819)"><title content="structured text">Sheet.30</title><path d="M0 153.75 L0 182.09" class="st4"/></g><g id="shape31-109" transform="translate(148.202,-130.819)"><title content="structured text">Sheet.31</title><path d="M0 153.75 L0 182.09" class="st4"/></g><g id="shape32-112" transform="translate(102.847,-130.819)"><title content="structured text">Sheet.32</title><path d="M0 153.75 L0 182.09" class="st4"/></g><g id="shape33-115" transform="translate(91.5087,-130.819)"><title content="structured text">Sheet.33</title><path d="M0 153.75 L0 182.09" class="st4"/></g><g id="shape34-118" transform="translate(80.1701,-130.819)"><title content="structured text">Sheet.34</title><path d="M0 153.75 L0 182.09" class="st4"/></g><g id="shape35-121" transform="translate(68.8315,-130.819)"><title content="structured text">64-bit register.98</title><path d="M0 153.75 L0 182.09" class="st4"/></g><g id="shape37-124" transform="translate(363.635,-130.819)"><title content="structured text">Sheet.37</title><desc content="structured text">M</desc><rect x="0" y="153.746" width="11.3386" height="28.3465" class="st7"/><text x="2.34" y="170.32" class="st6">M</text></g><g id="shape38-127" transform="translate(352.296,-130.819)"><title content="structured text">Sheet.38</title><desc content="structured text">A</desc><rect x="0" y="153.746" width="11.3386" height="28.3465" class="st7"/><text x="3" y="170.32" class="st6">A</text></g><g id="shape39-130" transform="translate(340.957,-130.819)"><title content="structured text">Sheet.39</title><desc content="structured text">C</desc><rect x="0" y="153.746" width="11.3386" height="28.3465" class="st7"/><text x="2.78" y="170.32" class="st6">C</text></g><g id="shape40-133" transform="translate(227.572,-130.819)"><title content="structured text">Sheet.40</title><desc content="structured text">I</desc><rect x="0" y="153.746" width="11.3386" height="28.3465" class="st7"/><text x="4.56" y="170.32" class="st6">I</text></g><g id="shape42-136" transform="translate(340.957,-113.811)"><title content="structured text">Sheet.42</title><desc content="structured text">SA</desc><rect x="0" y="170.754" width="25.5118" height="11.3386" class="st7"/><text x="2" y="178.82" class="st6">SA</text></g><g id="shape43-139" transform="translate(335.288,-119.48)"><title content="structured text">Sheet.43</title><path d="M0 173.59 L0 182.09 L5.67 182.09" class="st8"/></g><g id="shape44-142" transform="translate(312.611,-96.8028)"><title content="structured text">Sheet.44</title><path d="M0 150.91 L0 182.09 L28.35 182.09" class="st8"/></g><g id="shape45-145" transform="translate(340.957,-91.1335)"><title content="structured text">Sheet.45</title><desc content="structured text">CP15BEN</desc><rect x="0" y="170.754" width="42.5197" height="11.3386" class="st7"/><text x="2" y="178.82" class="st6">CP15BEN</text></g><g id="shape46-148" transform="translate(306.942,-57.1177)"><title content="structured text">Sheet.46</title><desc content="structured text">ITD</desc><rect x="0" y="170.754" width="34.0157" height="11.3386" class="st7"/><text x="2" y="178.82" class="st6">ITD</text></g><g id="shape47-151" transform="translate(306.942,-45.7792)"><title content="structured text">Sheet.47</title><desc content="structured text">SED</desc><rect x="0" y="170.754" width="22.6772" height="11.3386" class="st7"/><text x="2" y="178.82" class="st6">SED</text></g><g id="shape51-154" transform="translate(306.942,-34.4406)"><title content="structured text">Sheet.51</title><desc content="structured text">UMA</desc><rect x="0" y="170.754" width="22.6772" height="11.3386" class="st7"/><text x="2" y="178.82" class="st6">UMA</text></g><g id="shape52-157" transform="translate(323.95,-108.141)"><title content="structured text">Sheet.52</title><path d="M0 162.25 L0 182.09 L17.01 182.09" class="st8"/></g><g id="shape53-160" transform="translate(340.957,-102.472)"><title content="structured text">Sheet.53</title><desc content="structured text">SA0</desc><rect x="0" y="170.754" width="22.6772" height="11.3386" class="st7"/><text x="2" y="178.82" class="st6">SA0</text></g><g id="shape58-163" transform="translate(85.8394,-108.141) scale(-1,1)"><title content="structured text">Sheet.58</title><path d="M0 162.25 L0 182.09 L22.68 182.09" class="st8"/></g><g id="shape59-166" transform="translate(43.3197,-102.472)"><title content="structured text">Sheet.59</title><desc content="structured text">EE</desc><rect x="0" y="170.754" width="19.8425" height="11.3386" class="st9"/><text x="7.17" y="178.82" class="st6">EE</text></g><g id="shape60-169" transform="translate(97.178,-96.8028) scale(-1,1)"><title content="structured text">Sheet.60</title><path d="M0 150.91 L0 182.09 L34.02 182.09" class="st8"/></g><g id="shape63-172" transform="translate(153.871,-62.787) scale(-1,1)"><title content="structured text">Sheet.63</title><path d="M0 116.9 L0 182.09 L28.35 182.09" class="st8"/></g><g id="shape65-175" transform="translate(216.233,-113.811)"><title content="structured text">Sheet.65</title><desc content="structured text">DZE</desc><rect x="0" y="170.754" width="25.5118" height="11.3386" class="st7"/><text x="2" y="178.82" class="st6">DZE</text></g><g id="shape67-178" transform="translate(165.209,-51.4485) scale(-1,1)"><title content="structured text">Sheet.67</title><path d="M0 105.56 L0 182.09 L39.69 182.09" class="st8"/></g><g id="shape68-181" transform="translate(216.233,-91.1335)"><title content="structured text">Sheet.68</title><desc content="structured text">nTWI</desc><rect x="0" y="170.754" width="28.3465" height="11.3386" class="st9"/><text x="2" y="178.82" class="st6">nTWI</text></g><g id="shape72-184" transform="translate(216.233,-102.472)"><title content="structured text">Sheet.72</title><desc content="structured text">UCT</desc><rect x="0" y="170.754" width="25.5118" height="11.3386" class="st7"/><text x="2" y="178.82" class="st6">UCT</text></g><g id="shape73-187" transform="translate(74.5008,-119.48) scale(-1,1)"><title content="structured text">Sheet.73</title><path d="M0 173.59 L0 182.09 L11.34 182.09" class="st8"/></g><g id="shape74-190" transform="translate(37.6504,-91.1335)"><title content="structured text">Sheet.74</title><desc content="structured text">E0E</desc><rect x="0" y="170.754" width="25.5118" height="11.3386" class="st9"/><text x="8.39" y="178.82" class="st6">E0E</text></g><g id="shape75-193" transform="translate(36.2331,-113.811)"><title content="structured text">Sheet.75</title><desc content="structured text">UCI</desc><rect x="0" y="170.754" width="25.5118" height="11.3386" class="st9"/><text x="9.73" y="178.82" class="st6">UCI</text></g><g id="shape78-196" transform="translate(80.1701,-159.165)"><title content="structured text">64-bit register.153</title><desc content="structured text">25</desc><text x="1.22" y="178.82" class="st6">25</text></g><g id="shape79-198" transform="translate(68.8315,-159.165)"><title content="structured text">64-bit register.10</title><desc content="structured text">26</desc><text x="1.22" y="178.82" class="st6">26</text></g><g id="shape80-200" transform="translate(91.5087,-159.165)"><title content="structured text">64-bit register.81</title><desc content="structured text">24</desc><text x="1.22" y="178.82" class="st6">24</text></g><g id="shape81-202" transform="translate(102.847,-159.165)"><title content="structured text">64-bit register.82</title><desc content="structured text">23</desc><text x="1.22" y="178.82" class="st6">23</text></g><g id="shape82-204" transform="translate(136.863,-159.165)"><title content="structured text">64-bit register.83</title><desc content="structured text">20</desc><text x="1.22" y="178.82" class="st6">20</text></g><g id="shape83-206" transform="translate(159.54,-159.165)"><title content="structured text">64-bit register.84</title><desc content="structured text">18</desc><text x="1.22" y="178.82" class="st6">18</text></g><g id="shape84-208" transform="translate(148.202,-159.165)"><title content="structured text">64-bit register.85</title><desc content="structured text">19</desc><text x="1.22" y="178.82" class="st6">19</text></g><g id="shape85-210" transform="translate(170.879,-159.165)"><title content="structured text">64-bit register.86</title><desc content="structured text">17</desc><text x="1.22" y="178.82" class="st6">17</text></g><g id="shape86-212" transform="translate(182.217,-159.165)"><title content="structured text">64-bit register.87</title><desc content="structured text">16</desc><text x="1.22" y="178.82" class="st6">16</text></g><g id="shape87-214" transform="translate(193.556,-159.165)"><title content="structured text">64-bit register.88</title><desc content="structured text">15</desc><text x="1.22" y="178.82" class="st6">15</text></g><g id="shape88-216" transform="translate(216.233,-159.165)"><title content="structured text">64-bit register.89</title><desc content="structured text">13</desc><text x="1.22" y="178.82" class="st6">13</text></g><g id="shape89-218" transform="translate(204.894,-159.165)"><title content="structured text">64-bit register.90</title><desc content="structured text">14</desc><text x="1.22" y="178.82" class="st6">14</text></g><g id="shape90-220" transform="translate(227.572,-159.165)"><title content="structured text">64-bit register.91</title><desc content="structured text">12</desc><text x="1.22" y="178.82" class="st6">12</text></g><g id="shape91-222" transform="translate(238.91,-159.165)"><title content="structured text">64-bit register.92</title><desc content="structured text">11</desc><text x="1.22" y="178.82" class="st6">11</text></g><g id="shape92-224" transform="translate(250.249,-159.165)"><title content="structured text">64-bit register.93</title><desc content="structured text">10</desc><text x="1.22" y="178.82" class="st6">10</text></g><g id="shape93-226" transform="translate(272.926,-159.165)"><title content="structured text">64-bit register.94</title><desc content="structured text">8</desc><text x="3.44" y="178.82" class="st6">8</text></g><g id="shape94-228" transform="translate(261.587,-159.165)"><title content="structured text">64-bit register.95</title><desc content="structured text">9</desc><text x="3.44" y="178.82" class="st6">9</text></g><g id="shape95-230" transform="translate(284.265,-159.165)"><title content="structured text">64-bit register.96</title><desc content="structured text">7</desc><text x="3.44" y="178.82" class="st6">7</text></g><g id="shape96-232" transform="translate(295.603,-159.165)"><title content="structured text">64-bit register.97</title><desc content="structured text">6</desc><text x="3.44" y="178.82" class="st6">6</text></g><g id="shape97-234" transform="translate(306.942,-159.165)"><title content="structured text">Sheet.97</title><desc content="structured text">5</desc><text x="3.44" y="178.82" class="st6">5</text></g><g id="shape98-236" transform="translate(329.619,-159.165)"><title content="structured text">64-bit register.99</title><desc content="structured text">3</desc><text x="3.44" y="178.82" class="st6">3</text></g><g id="shape99-238" transform="translate(318.28,-159.165)"><title content="structured text">64-bit register.100</title><desc content="structured text">4</desc><text x="3.44" y="178.82" class="st6">4</text></g><g id="shape100-240" transform="translate(340.957,-159.165)"><title content="structured text">64-bit register.101</title><desc content="structured text">2</desc><text x="3.44" y="178.82" class="st6">2</text></g><g id="shape101-242" transform="translate(352.296,-159.165)"><title content="structured text">64-bit register.102</title><desc content="structured text">1</desc><text x="3.44" y="178.82" class="st6">1</text></g><g id="shape102-244" transform="translate(57.4929,-159.165)"><title content="structured text">64-bit register.103</title><desc content="structured text">27</desc><text x="1.22" y="178.82" class="st6">27</text></g><g id="shape103-246" transform="translate(46.1543,-159.165)"><title content="structured text">Sheet.103</title><desc content="structured text">28</desc><text x="1.22" y="178.82" class="st6">28</text></g><g id="shape104-248" transform="translate(34.8157,-159.165)"><title content="structured text">64-bit register.104</title><desc content="structured text">29</desc><text x="1.22" y="178.82" class="st6">29</text></g><g id="shape105-250" transform="translate(23.4772,-159.165)"><title content="structured text">64-bit register.105</title><desc content="structured text">30</desc><text x="1.22" y="178.82" class="st6">30</text></g><g id="shape106-252" transform="translate(34.8157,-130.819)"><title content="structured text">64-bit register.106</title><path d="M0 153.75 L0 182.09" class="st4"/></g><g id="shape108-255" transform="translate(57.4929,-130.819)"><title content="structured text">64-bit register.108</title><path d="M0 153.75 L0 182.09" class="st4"/></g><g id="shape111-258" transform="translate(125.524,-159.165)"><title content="structured text">64-bit register.111</title><desc content="structured text">21</desc><text x="1.22" y="178.82" class="st6">21</text></g><g id="shape112-260" transform="translate(114.186,-159.165)"><title content="structured text">64-bit register.112</title><desc content="structured text">22</desc><text x="1.22" y="178.82" class="st6">22</text></g><g id="shape113-262" transform="translate(125.524,-130.819)"><title content="structured text">Sheet.113</title><path d="M0 153.75 L0 182.09" class="st4"/></g><g id="shape114-265" transform="translate(136.863,-130.819)"><title content="structured text">Sheet.114</title><path d="M0 153.75 L0 182.09" class="st4"/></g><g id="shape119-268" transform="translate(97.178,-57.1177)"><title content="structured text">Sheet.119</title><desc content="structured text">WXN</desc><rect x="0" y="170.754" width="28.3465" height="11.3386" class="st9"/><text x="7.68" y="178.82" class="st6">WXN</text></g><g id="shape120-271" transform="translate(97.178,-45.7792)"><title content="structured text">Sheet.120</title><desc content="structured text">nTWE</desc><rect x="0" y="170.754" width="28.3465" height="11.3386" class="st9"/><text x="4.12" y="178.82" class="st6">nTWE</text></g><g id="shape62-274" transform="translate(250.249,-130.819)"><title content="structured text">64-bit register.62</title><path d="M0 153.75 L0 182.09" class="st4"/></g><g id="group122-277" transform="translate(12.1386,-11.8386)"><title content="structured text">Sheet.122</title><g id="shape123-278" transform="translate(11.3386,2.84217E-014)"><title content="structured text">Rectangle No Fill No Fill.116</title><desc content="structured text">res0</desc><rect x="0" y="170.754" width="22.6772" height="11.3386" class="st10"/><text x="3.07" y="178.82" class="st11">RES<tspan class="st12">0</tspan></text></g><g id="shape124-282"><title content="structured text">Graphic.117</title><rect x="0" y="170.754" width="11.3386" height="11.3386" class="st1"/></g></g><g id="group125-284" transform="translate(12.1386,-25.9367)"><title content="structured text">Sheet.125</title><g id="shape126-285" transform="translate(11.3386,2.84217E-014)"><title content="structured text">Rectangle No Fill No Fill.119</title><desc content="structured text">res1</desc><rect x="0" y="170.754" width="22.6772" height="11.3386" class="st10"/><text x="3.07" y="178.82" class="st11">RES<tspan class="st12">1</tspan></text></g><g id="shape127-289"><title content="structured text">Rectangle Fill:Soapstone.120</title><rect x="0" y="170.754" width="11.3386" height="11.3386" class="st13"/></g></g><g id="shape128-291" transform="translate(114.186,-130.819)"><title content="structured text">Sheet.128</title><path d="M0 153.75 L0 182.09" class="st4"/></g><g id="shape55-294" transform="translate(108.517,-85.4642) scale(-1,1)"><title content="structured text">Sheet.55</title><path d="M0 139.57 L0 182.09 L45.35 182.09" class="st8"/></g><g id="shape56-297" transform="translate(31.9811,-79.7949)"><title content="structured text">Sheet.56</title><desc content="structured text">SPAN</desc><rect x="0" y="170.754" width="31.1811" height="11.3386" class="st9"/><text x="7.4" y="178.82" class="st6">SPAN</text></g><g id="shape57-300" transform="translate(210.564,-119.48)"><title content="structured text">Sheet.57</title><path d="M0 173.59 L0 182.09 L5.67 182.09" class="st8"/></g><g id="shape69-303" transform="translate(187.887,-96.8028)"><title content="structured text">Sheet.69</title><path d="M0 150.91 L0 182.09 L28.35 182.09" class="st8"/></g><g id="shape115-306" transform="translate(199.225,-108.141)"><title content="structured text">Sheet.115</title><path d="M0 162.25 L0 182.09 L17.01 182.09" class="st8"/></g><g id="shape61-309" transform="translate(289.934,-62.787)"><title content="structured text">Sheet.61</title><path d="M0 116.9 L0 182.09 L17.01 182.09" class="st8"/></g><g id="shape64-312" transform="translate(267.257,-40.1099)"><title content="structured text">Sheet.64</title><path d="M0 94.22 L0 182.09 L39.69 182.09" class="st8"/></g><g id="shape71-315" transform="translate(278.595,-51.4485)"><title content="structured text">Sheet.71</title><path d="M0 105.56 L0 182.09 L28.35 182.09" class="st8"/></g><g id="shape109-318" transform="translate(131.194,-74.1256) scale(-1,1)"><title content="structured text">Sheet.109</title><path d="M0 129.65 L0 182.09 L5.67 182.09" class="st8"/></g><g id="shape116-321" transform="translate(97.178,-68.4563)"><title content="structured text">Sheet.116</title><desc content="structured text">IESB</desc><rect x="0" y="170.754" width="28.3465" height="11.3386" class="st9"/><text x="8.12" y="178.82" class="st6">IESB</text></g></g></svg>