<?xml version="1.0" encoding="UTF-8" standalone="no"?><!-- Fixed up by svgfix.xsl 1.4  --><!-- Generated by Microsoft Visio 11.0, SVG Export, v1.0 sctlr_el3_bit_assignments.svg ARM -->
<!DOCTYPE svg
  PUBLIC "-//W3C//DTD SVG 1.0//EN" "http://www.w3.org/TR/2001/REC-SVG-20010904/DTD/svg10.dtd">
<svg xmlns:xlink="http://www.w3.org/1999/xlink" xmlns="http://www.w3.org/2000/svg" xmlns:ev="http://www.w3.org/2001/xml-events" width="516.149" height="159.74" viewBox="0 0 387.112 119.805" xml:space="preserve" color-interpolation-filters="sRGB" class="st14" preserveAspectRatio="xMidYMid meet" zoomAndPan="magnify" version="1.0" contentScriptType="text/ecmascript" contentStyleType="text/css"><style type="text/css" xml:space="preserve"><![CDATA[
	
		.st1 {fill:#ccdfdb;stroke:none;stroke-linecap:round;stroke-linejoin:round;stroke-width:0.2px}
		.st2 {fill:#eed9b3;stroke:none;stroke-linecap:round;stroke-linejoin:round;stroke-width:0.2px}
		.st3 {fill:#eed9b3;stroke:none;stroke-linecap:round;stroke-linejoin:round;stroke-width:0.2px}
		.st4 {fill:#ccdfdb;stroke:none;stroke-linecap:round;stroke-linejoin:round;stroke-width:0.2px}
		.st5 {stroke:#000000;stroke-linecap:butt;stroke-width:0.8px}
		.st6 {stroke:#000000;stroke-dasharray:0.25,0.5;stroke-linecap:butt;stroke-width:0.25px}
		.st7 {fill:#000000;font-family:Arial,Helvetica,sans-serif;font-size:0.666664em}
		.st8 {stroke:#000000;stroke-linecap:butt;stroke-width:0.5px}
		.st9 {fill:none;stroke:none;stroke-linecap:butt;stroke-width:0.5px}
		.st10 {fill:none;stroke:none;stroke-linecap:round;stroke-linejoin:round;stroke-width:0.2px}
		.st11 {fill:none;stroke:none;stroke-linecap:butt;stroke-width:0.499999px}
		.st12 {fill:#000000;font-family:Arial,Helvetica,sans-serif;font-size:0.533318em}
		.st13 {font-size:1.25003em}
		.st14 {fill:none;fill-rule:evenodd;font-size:12px;overflow:visible;stroke-linecap:square;stroke-miterlimit:3}]]></style><g xmlns:v="http://schemas.microsoft.com/visio/2003/SVGExtensions/"><title content="structured text">ARM</title><g id="shape27-1" transform="translate(102.847,-68.5315)"><title content="structured text">64-bit register.29</title><rect x="0" y="91.4587" width="22.6772" height="28.3465" class="st1"/></g><g id="shape49-3" transform="translate(12.1386,-68.5315)"><title content="structured text">64-bit register.49</title><rect x="0" y="91.4587" width="22.6772" height="28.3465" class="st2"/></g><g id="shape54-5" transform="translate(34.8157,-68.5315)"><title content="structured text">Sheet.54</title><rect x="0" y="91.4587" width="22.6772" height="28.3465" class="st1"/></g><g id="shape57-7" transform="translate(57.4929,-68.5315)"><title content="structured text">64-bit register.57</title><rect x="0" y="91.4587" width="22.6772" height="28.3465" class="st2"/></g><g id="shape66-9" transform="translate(136.863,-68.5315)"><title content="structured text">64-bit register.66</title><rect x="0" y="91.4587" width="11.3386" height="28.3465" class="st2"/></g><g id="shape77-11" transform="translate(193.556,-68.5315)"><title content="structured text">64-bit register.77</title><rect x="0" y="91.4587" width="34.0157" height="28.3465" class="st2"/></g><g id="shape95-13" transform="translate(170.879,-68.5315)"><title content="structured text">Graphic.117</title><rect x="0" y="91.4587" width="11.3386" height="28.3465" class="st3"/></g><g id="shape96-15" transform="translate(91.5087,-68.5315)"><title content="structured text">Graphic.96</title><rect x="0" y="91.4587" width="11.3386" height="28.3465" class="st3"/></g><g id="shape97-17" transform="translate(159.54,-68.5315)"><title content="structured text">Rectangle Fill:Soapstone.120</title><rect x="0" y="91.4587" width="11.3386" height="28.3465" class="st4"/></g><g id="shape99-19" transform="translate(182.217,-68.5315)"><title content="structured text">Rectangle Fill:Soapstone.99</title><rect x="0" y="91.4587" width="11.3386" height="28.3465" class="st4"/></g><g id="shape98-21" transform="translate(238.91,-68.5315)"><title content="structured text">Rectangle Fill:Soapstone.98</title><rect x="0" y="91.4587" width="11.3386" height="28.3465" class="st4"/></g><g id="shape82-23" transform="translate(250.249,-68.5315)"><title content="structured text">64-bit register.82</title><rect x="0" y="91.4587" width="56.6929" height="28.3465" class="st2"/></g><g id="shape88-25" transform="translate(306.942,-68.5315)"><title content="structured text">64-bit register.88</title><rect x="0" y="91.4587" width="22.6772" height="28.3465" class="st1"/></g><g id="shape1-27" transform="translate(374.973,-68.5315) scale(-1,1)"><title content="structured text">64-bit register.156</title><path d="M0 91.46 L362.83 91.46 L362.83 119.81 L0 119.81" class="st5"/></g><g id="shape2-30" transform="translate(131.944,11.5886) rotate(90)"><title content="structured text">64-bit register.169</title><path d="M0 119.81 L11.34 119.81" class="st6"/></g><g id="shape3-33" transform="translate(374.973,-68.5315)"><title content="structured text">64-bit register.157</title><path d="M0 91.46 L0 119.81" class="st5"/></g><g id="shape4-36" transform="translate(34.8157,-68.5315)"><title content="structured text">64-bit register.4</title><path d="M0 91.46 L0 119.81" class="st5"/></g><g id="shape5-39" transform="translate(91.5087,-68.5315)"><title content="structured text">64-bit register.7</title><path d="M0 91.46 L0 119.81" class="st5"/></g><g id="shape6-42" transform="translate(136.863,-68.5315)"><title content="structured text">64-bit register.38</title><path d="M0 91.46 L0 119.81" class="st5"/></g><g id="shape7-45" transform="translate(159.54,-68.5315)"><title content="structured text">64-bit register.39</title><path d="M0 91.46 L0 119.81" class="st5"/></g><g id="shape8-48" transform="translate(238.91,-68.5315)"><title content="structured text">64-bit register.41</title><path d="M0 91.46 L0 119.81" class="st5"/></g><g id="shape9-51" transform="translate(340.957,-68.5315)"><title content="structured text">64-bit register.42</title><path d="M0 91.46 L0 119.81" class="st5"/></g><g id="shape10-54" transform="translate(329.619,-68.5315)"><title content="structured text">64-bit register.52</title><path d="M0 91.46 L0 119.81" class="st5"/></g><g id="shape11-57" transform="translate(177.298,11.5886) rotate(90)"><title content="structured text">64-bit register.11</title><path d="M0 119.81 L11.34 119.81" class="st6"/></g><g id="shape12-60" transform="translate(222.652,11.5886) rotate(90)"><title content="structured text">64-bit register.12</title><path d="M0 119.81 L11.34 119.81" class="st6"/></g><g id="shape13-63" transform="translate(268.007,11.5886) rotate(90)"><title content="structured text">64-bit register.13</title><path d="M0 119.81 L11.34 119.81" class="st6"/></g><g id="shape14-66" transform="translate(313.361,11.5886) rotate(90)"><title content="structured text">64-bit register.14</title><path d="M0 119.81 L11.34 119.81" class="st6"/></g><g id="shape15-69" transform="translate(358.715,11.5886) rotate(90)"><title content="structured text">64-bit register.15</title><path d="M0 119.81 L11.34 119.81" class="st6"/></g><g id="shape16-72" transform="translate(449.424,11.5886) rotate(90)"><title content="structured text">64-bit register.16</title><path d="M0 119.81 L11.34 119.81" class="st6"/></g><g id="shape17-75" transform="translate(494.778,11.5886) rotate(90)"><title content="structured text">64-bit register.17</title><path d="M0 119.81 L11.34 119.81" class="st6"/></g><g id="shape18-78" transform="translate(12.1386,-96.878)"><title content="structured text">64-bit register.179</title><desc content="structured text">31</desc><text x="1.22" y="116.54" class="st7">31</text></g><g id="shape19-80" transform="translate(363.635,-96.878)"><title content="structured text">64-bit register.19</title><desc content="structured text">0</desc><text x="3.44" y="116.54" class="st7">0</text></g><g id="shape21-82" transform="translate(404.07,11.5886) rotate(90)"><title content="structured text">64-bit register.21</title><path d="M0 119.81 L11.34 119.81" class="st6"/></g><g id="shape22-85" transform="translate(85.8394,-60.0276) scale(-1,1)"><title content="structured text">Sheet.22</title><path d="M0 114.14 L0 119.81 L5.67 119.81" class="st8"/></g><g id="shape23-88" transform="translate(80.1701,-54.3583) scale(-1,1)"><title content="structured text">Sheet.23</title><desc content="structured text">EE</desc><rect x="0" y="108.467" width="14.1732" height="11.3386" class="st9"/><text x="-12.67" y="116.54" transform="scale(-1,1)" class="st7">EE</text></g><g id="shape24-91" transform="translate(80.1701,-96.878)"><title content="structured text">64-bit register.26</title><desc content="structured text">25</desc><text x="1.22" y="116.54" class="st7">25</text></g><g id="shape25-93" transform="translate(68.8315,-96.878)"><title content="structured text">64-bit register.27</title><desc content="structured text">26</desc><text x="1.22" y="116.54" class="st7">26</text></g><g id="shape26-95" transform="translate(136.863,-96.878)"><title content="structured text">64-bit register.28</title><desc content="structured text">20</desc><text x="1.22" y="116.54" class="st7">20</text></g><g id="shape28-97" transform="translate(148.202,-96.878)"><title content="structured text">64-bit register.30</title><desc content="structured text">19</desc><text x="1.22" y="116.54" class="st7">19</text></g><g id="shape29-99" transform="translate(159.54,-96.878)"><title content="structured text">64-bit register.31</title><desc content="structured text">18</desc><text x="1.22" y="116.54" class="st7">18</text></g><g id="shape30-101" transform="translate(227.572,-96.878)"><title content="structured text">64-bit register.32</title><desc content="structured text">12</desc><text x="1.22" y="116.54" class="st7">12</text></g><g id="shape31-103" transform="translate(238.91,-96.878)"><title content="structured text">64-bit register.33</title><desc content="structured text">11</desc><text x="1.22" y="116.54" class="st7">11</text></g><g id="shape32-105" transform="translate(352.296,-68.5315)"><title content="structured text">64-bit register.34</title><path d="M0 91.46 L0 119.81" class="st5"/></g><g id="shape33-108" transform="translate(363.635,-68.5315)"><title content="structured text">64-bit register.35</title><path d="M0 91.46 L0 119.81" class="st5"/></g><g id="shape34-111" transform="translate(340.957,-96.878)"><title content="structured text">64-bit register.36</title><desc content="structured text">2</desc><text x="3.44" y="116.54" class="st7">2</text></g><g id="shape35-113" transform="translate(352.296,-96.878)"><title content="structured text">64-bit register.37</title><desc content="structured text">1</desc><text x="3.44" y="116.54" class="st7">1</text></g><g id="shape36-115" transform="translate(318.28,-96.878)"><title content="structured text">Sheet.36</title><desc content="structured text">4</desc><text x="3.44" y="116.54" class="st7">4</text></g><g id="shape37-117" transform="translate(329.619,-96.878)"><title content="structured text">Sheet.37</title><desc content="structured text">3</desc><text x="3.44" y="116.54" class="st7">3</text></g><g id="shape39-119" transform="translate(182.217,-54.3583) scale(-1,1)"><title content="structured text">Sheet.39</title><desc content="structured text">WXN</desc><rect x="0" y="108.467" width="22.6772" height="11.3386" class="st9"/><text x="-20.66" y="116.54" transform="scale(-1,1)" class="st7">WXN</text></g><g id="shape41-122" transform="translate(227.572,-68.5315)"><title content="structured text">64-bit register.25</title><path d="M0 91.46 L0 119.81" class="st5"/></g><g id="shape42-125" transform="translate(227.572,-68.5315)"><title content="structured text">64-bit register.50</title><desc content="structured text">I</desc><rect x="0" y="91.4587" width="11.3386" height="28.3465" class="st10"/><text x="4.56" y="108.03" class="st7">I</text></g><g id="shape43-128" transform="translate(340.957,-68.5315)"><title content="structured text">Sheet.43</title><desc content="structured text">C</desc><rect x="0" y="91.4587" width="11.3386" height="28.3465" class="st10"/><text x="2.78" y="108.03" class="st7">C</text></g><g id="shape44-131" transform="translate(352.296,-68.5315)"><title content="structured text">64-bit register.53</title><desc content="structured text">A</desc><rect x="0" y="91.4587" width="11.3386" height="28.3465" class="st10"/><text x="3" y="108.03" class="st7">A</text></g><g id="shape45-134" transform="translate(363.635,-68.5315)"><title content="structured text">64-bit register.54</title><desc content="structured text">M</desc><rect x="0" y="91.4587" width="11.3386" height="28.3465" class="st10"/><text x="2.34" y="108.03" class="st7">M</text></g><g id="shape46-137" transform="translate(335.288,-60.0276)"><title content="structured text">Sheet.46</title><path d="M0 114.14 L0 119.81 L5.67 119.81" class="st8"/></g><g id="shape47-140" transform="translate(340.957,-54.3583)"><title content="structured text">Sheet.47</title><desc content="structured text">SA</desc><rect x="0" y="108.467" width="17.0079" height="11.3386" class="st9"/><text x="2" y="116.54" class="st7">SA</text></g><g id="shape50-143" transform="translate(23.4772,-96.878)"><title content="structured text">Sheet.50</title><desc content="structured text">30</desc><text x="1.22" y="116.54" class="st7">30</text></g><g id="shape51-145" transform="translate(34.8157,-96.878)"><title content="structured text">Sheet.51</title><desc content="structured text">29</desc><text x="1.22" y="116.54" class="st7">29</text></g><g id="shape52-147" transform="translate(46.1543,-96.878)"><title content="structured text">Sheet.52</title><desc content="structured text">28</desc><text x="1.22" y="116.54" class="st7">28</text></g><g id="shape53-149" transform="translate(57.4929,-96.878)"><title content="structured text">Sheet.53</title><desc content="structured text">27</desc><text x="1.22" y="116.54" class="st7">27</text></g><g id="shape55-151" transform="translate(80.1701,-68.5315)"><title content="structured text">64-bit register.55</title><path d="M0 91.46 L0 119.81" class="st5"/></g><g id="shape56-154" transform="translate(57.4929,-68.5315)"><title content="structured text">64-bit register.56</title><path d="M0 91.46 L0 119.81" class="st5"/></g><g id="shape58-157" transform="translate(102.847,-68.5315)"><title content="structured text">64-bit register.58</title><path d="M0 91.46 L0 119.81" class="st5"/></g><g id="shape59-160" transform="translate(91.5087,-96.878)"><title content="structured text">64-bit register.59</title><desc content="structured text">24</desc><text x="1.22" y="116.54" class="st7">24</text></g><g id="shape60-162" transform="translate(102.847,-96.878)"><title content="structured text">64-bit register.60</title><desc content="structured text">23</desc><text x="1.22" y="116.54" class="st7">23</text></g><g id="shape63-164" transform="translate(114.186,-96.878)"><title content="structured text">64-bit register.63</title><desc content="structured text">22</desc><text x="1.22" y="116.54" class="st7">22</text></g><g id="shape64-166" transform="translate(125.524,-96.878)"><title content="structured text">64-bit register.64</title><desc content="structured text">21</desc><text x="1.22" y="116.54" class="st7">21</text></g><g id="shape65-168" transform="translate(125.524,-68.5315)"><title content="structured text">64-bit register.65</title><path d="M0 91.46 L0 119.81" class="st5"/></g><g id="shape67-171" transform="translate(170.879,-96.878)"><title content="structured text">64-bit register.67</title><desc content="structured text">17</desc><text x="1.22" y="116.54" class="st7">17</text></g><g id="shape68-173" transform="translate(182.217,-96.878)"><title content="structured text">64-bit register.68</title><desc content="structured text">16</desc><text x="1.22" y="116.54" class="st7">16</text></g><g id="shape69-175" transform="translate(193.556,-96.878)"><title content="structured text">64-bit register.69</title><desc content="structured text">15</desc><text x="1.22" y="116.54" class="st7">15</text></g><g id="shape70-177" transform="translate(204.894,-96.878)"><title content="structured text">64-bit register.70</title><desc content="structured text">14</desc><text x="1.22" y="116.54" class="st7">14</text></g><g id="shape71-179" transform="translate(216.233,-96.878)"><title content="structured text">64-bit register.71</title><desc content="structured text">13</desc><text x="1.22" y="116.54" class="st7">13</text></g><g id="shape74-181" transform="translate(170.879,-68.5315)"><title content="structured text">64-bit register.74</title><path d="M0 91.46 L0 119.81" class="st5"/></g><g id="shape75-184" transform="translate(182.217,-68.5315)"><title content="structured text">64-bit register.75</title><path d="M0 91.46 L0 119.81" class="st5"/></g><g id="shape76-187" transform="translate(193.556,-68.5315)"><title content="structured text">64-bit register.76</title><path d="M0 91.46 L0 119.81" class="st5"/></g><g id="shape20-190" transform="translate(250.249,-68.5315)"><title content="structured text">64-bit register.20</title><path d="M0 91.46 L0 119.81" class="st5"/></g><g id="shape40-193" transform="translate(250.249,-96.878)"><title content="structured text">64-bit register.40</title><desc content="structured text">10</desc><text x="1.22" y="116.54" class="st7">10</text></g><g id="shape85-195" transform="translate(295.603,-96.878)"><title content="structured text">64-bit register.85</title><desc content="structured text">6</desc><text x="3.44" y="116.54" class="st7">6</text></g><g id="shape86-197" transform="translate(306.942,-96.878)"><title content="structured text">64-bit register.86</title><desc content="structured text">5</desc><text x="3.44" y="116.54" class="st7">5</text></g><g id="shape83-199" transform="translate(306.942,-68.5315)"><title content="structured text">64-bit register.83</title><path d="M0 91.46 L0 119.81" class="st5"/></g><g id="group89-202" transform="translate(12.1386,-11.8386)"><title content="structured text">Sheet.89</title><g id="shape90-203" transform="translate(11.3386,0)"><title content="structured text">Rectangle No Fill No Fill.116</title><desc content="structured text">res0</desc><rect x="0" y="108.467" width="22.6772" height="11.3386" class="st11"/><text x="3.07" y="116.54" class="st12">RES<tspan class="st13">0</tspan></text></g><g id="shape91-207"><title content="structured text">Graphic.117</title><rect x="0" y="108.467" width="11.3386" height="11.3386" class="st3"/></g></g><g id="group92-209" transform="translate(12.1386,-25.9367)"><title content="structured text">Sheet.92</title><g id="shape93-210" transform="translate(11.3386,0)"><title content="structured text">Rectangle No Fill No Fill.119</title><desc content="structured text">res1</desc><rect x="0" y="108.467" width="22.6772" height="11.3386" class="st11"/><text x="3.07" y="116.54" class="st12">RES<tspan class="st13">1</tspan></text></g><g id="shape94-214"><title content="structured text">Rectangle Fill:Soapstone.120</title><rect x="0" y="108.467" width="11.3386" height="11.3386" class="st4"/></g></g><g id="shape100-216" transform="translate(148.202,-68.5315)"><title content="structured text">64-bit register.100</title><path d="M0 91.46 L0 119.81" class="st5"/></g><g id="shape38-219" transform="translate(153.871,-60.0276)"><title content="structured text">Sheet.38</title><path d="M0 114.14 L0 119.81 L5.67 119.81" class="st8"/></g><g id="shape48-222" transform="translate(131.194,-60.0276) scale(-1,1)"><title content="structured text">Sheet.48</title><path d="M0 114.14 L0 119.81 L5.67 119.81" class="st8"/></g><g id="shape61-225" transform="translate(125.524,-54.3583) scale(-1,1)"><title content="structured text">Sheet.61</title><desc content="structured text">IESB</desc><rect x="0" y="108.467" width="28.3465" height="11.3386" class="st9"/><text x="-20.23" y="116.54" transform="scale(-1,1)" class="st7">IESB</text></g></g></svg>