<?xml version="1.0" encoding="UTF-8" standalone="no"?><!-- Fixed up by svgfix.xsl 1.4  --><!-- Generated by Microsoft Visio 11.0, SVG Export, v1.0 trcauxctlr_bit_assignments.svg ARM -->
<!DOCTYPE svg
  PUBLIC "-//W3C//DTD SVG 1.0//EN" "http://www.w3.org/TR/2001/REC-SVG-20010904/DTD/svg10.dtd">
<svg xmlns:xlink="http://www.w3.org/1999/xlink" xmlns="http://www.w3.org/2000/svg" xmlns:ev="http://www.w3.org/2001/xml-events" width="516.149" height="208.874" viewBox="0 0 387.112 156.656" xml:space="preserve" color-interpolation-filters="sRGB" class="st11" preserveAspectRatio="xMidYMid meet" zoomAndPan="magnify" version="1.0" contentScriptType="text/ecmascript" contentStyleType="text/css"><style type="text/css" xml:space="preserve"><![CDATA[
	
		.st1 {fill:#eed9b3;stroke:#000000;stroke-linecap:butt;stroke-width:0.5px}
		.st2 {stroke:#000000;stroke-linecap:butt;stroke-width:0.8px}
		.st3 {stroke:#000000;stroke-dasharray:0.25,0.5;stroke-linecap:butt;stroke-width:0.25px}
		.st4 {fill:#000000;font-family:Arial,Helvetica,sans-serif;font-size:0.666664em}
		.st5 {stroke:#000000;stroke-linecap:butt;stroke-width:0.5px}
		.st6 {fill:none;stroke:none;stroke-linecap:butt;stroke-width:0.5px}
		.st7 {fill:none;stroke:none;stroke-linecap:butt;stroke-width:0.499999px}
		.st8 {fill:#000000;font-family:Arial,Helvetica,sans-serif;font-size:0.533318em}
		.st9 {font-size:1.25003em}
		.st10 {fill:#eed9b3;stroke:none;stroke-linecap:round;stroke-linejoin:round;stroke-width:0.2px}
		.st11 {fill:none;fill-rule:evenodd;font-size:12px;overflow:visible;stroke-linecap:square;stroke-miterlimit:3}]]></style><g xmlns:v="http://schemas.microsoft.com/visio/2003/SVGExtensions/"><title content="structured text">ARM</title><g id="shape16-1" transform="translate(12.189,-105.449)"><title content="structured text">Sheet.16</title><rect x="0" y="128.309" width="272.126" height="28.3465" class="st1"/></g><g id="shape1-3" transform="translate(374.973,-105.382) scale(-1,1)"><title content="structured text">64-bit register.156</title><path d="M0 128.31 L362.83 128.31 L362.83 156.66 L0 156.66" class="st2"/></g><g id="shape2-6" transform="translate(168.794,11.5886) rotate(90)"><title content="structured text">64-bit register.169</title><path d="M0 156.66 L11.34 156.66" class="st3"/></g><g id="shape3-9" transform="translate(374.973,-105.382)"><title content="structured text">64-bit register.157</title><path d="M0 128.31 L0 156.66" class="st2"/></g><g id="shape4-12" transform="translate(306.942,-105.382)"><title content="structured text">64-bit register.7</title><path d="M0 128.31 L0 156.66" class="st2"/></g><g id="shape5-15" transform="translate(295.603,-105.382)"><title content="structured text">64-bit register.39</title><path d="M0 128.31 L0 156.66" class="st2"/></g><g id="shape6-18" transform="translate(284.265,-105.382)"><title content="structured text">64-bit register.42</title><path d="M0 128.31 L0 156.66" class="st2"/></g><g id="shape7-21" transform="translate(214.148,11.5886) rotate(90)"><title content="structured text">64-bit register.11</title><path d="M0 156.66 L11.34 156.66" class="st3"/></g><g id="shape8-24" transform="translate(259.503,11.5886) rotate(90)"><title content="structured text">64-bit register.12</title><path d="M0 156.66 L11.34 156.66" class="st3"/></g><g id="shape9-27" transform="translate(304.857,11.5886) rotate(90)"><title content="structured text">64-bit register.13</title><path d="M0 156.66 L11.34 156.66" class="st3"/></g><g id="shape10-30" transform="translate(350.211,11.5886) rotate(90)"><title content="structured text">64-bit register.14</title><path d="M0 156.66 L11.34 156.66" class="st3"/></g><g id="shape11-33" transform="translate(395.566,11.5886) rotate(90)"><title content="structured text">64-bit register.15</title><path d="M0 156.66 L11.34 156.66" class="st3"/></g><g id="shape12-36" transform="translate(486.274,11.5886) rotate(90)"><title content="structured text">64-bit register.16</title><path d="M0 156.66 L11.34 156.66" class="st3"/></g><g id="shape13-39" transform="translate(531.629,11.5886) rotate(90)"><title content="structured text">64-bit register.17</title><path d="M0 156.66 L11.34 156.66" class="st3"/></g><g id="shape14-42" transform="translate(12.1386,-133.728)"><title content="structured text">64-bit register.179</title><desc content="structured text">31</desc><text x="1.22" y="153.39" class="st4">31</text></g><g id="shape15-44" transform="translate(363.635,-133.728)"><title content="structured text">64-bit register.19</title><desc content="structured text">0</desc><text x="3.44" y="153.39" class="st4">0</text></g><g id="shape17-46" transform="translate(440.92,11.5886) rotate(90)"><title content="structured text">64-bit register.21</title><path d="M0 156.66 L11.34 156.66" class="st3"/></g><g id="shape18-49" transform="translate(272.926,-133.728)"><title content="structured text">64-bit register.26</title><desc content="structured text">8</desc><text x="3.44" y="153.39" class="st4">8</text></g><g id="shape19-51" transform="translate(284.265,-133.728)"><title content="structured text">64-bit register.27</title><desc content="structured text">7</desc><text x="3.44" y="153.39" class="st4">7</text></g><g id="shape20-53" transform="translate(289.934,-85.0394) scale(-1,1)"><title content="structured text">Sheet.20</title><path d="M0 139.15 L0 156.66 L5.67 156.66" class="st5"/></g><g id="shape21-56" transform="translate(226.205,-79.3701)"><title content="structured text">Sheet.21</title><desc content="structured text">CIFOVERRIDE</desc><rect x="0" y="145.317" width="58.0598" height="11.3386" class="st6"/><text x="1.39" y="153.39" class="st4">CIFOVERRIDE</text></g><g id="shape23-59" transform="translate(312.611,-62.3622) scale(-1,1)"><title content="structured text">Sheet.23</title><path d="M0 116.47 L0 156.66 L28.35 156.66" class="st5"/></g><g id="shape24-62" transform="translate(323.95,-51.0236) scale(-1,1)"><title content="structured text">Sheet.24</title><path d="M0 105.13 L0 156.66 L39.69 156.66" class="st5"/></g><g id="shape26-65" transform="translate(211.748,-56.6929)"><title content="structured text">Sheet.26</title><desc content="structured text">FLUSHOVERRIDE</desc><rect x="0" y="145.317" width="72.5165" height="11.3386" class="st6"/><text x="2.51" y="153.39" class="st4">FLUSHOVERRIDE</text></g><g id="shape27-68" transform="translate(226.205,-45.3543)"><title content="structured text">Sheet.27</title><desc content="structured text">TSIOVERRIDE</desc><rect x="0" y="145.317" width="58.0598" height="11.3386" class="st6"/><text x="1.83" y="153.39" class="st4">TSIOVERRIDE</text></g><g id="shape28-71" transform="translate(295.603,-133.728)"><title content="structured text">64-bit register.43</title><desc content="structured text">6</desc><text x="3.44" y="153.39" class="st4">6</text></g><g id="shape29-73" transform="translate(306.942,-133.728)"><title content="structured text">64-bit register.44</title><desc content="structured text">5</desc><text x="3.44" y="153.39" class="st4">5</text></g><g id="shape30-75" transform="translate(318.28,-133.728)"><title content="structured text">64-bit register.45</title><desc content="structured text">4</desc><text x="3.44" y="153.39" class="st4">4</text></g><g id="shape31-77" transform="translate(329.619,-133.728)"><title content="structured text">64-bit register.46</title><desc content="structured text">3</desc><text x="3.44" y="153.39" class="st4">3</text></g><g id="shape32-79" transform="translate(340.957,-133.728)"><title content="structured text">64-bit register.47</title><desc content="structured text">2</desc><text x="3.44" y="153.39" class="st4">2</text></g><g id="shape33-81" transform="translate(352.296,-133.728)"><title content="structured text">64-bit register.48</title><desc content="structured text">1</desc><text x="3.44" y="153.39" class="st4">1</text></g><g id="shape34-83" transform="translate(340.957,-105.382)"><title content="structured text">64-bit register.49</title><path d="M0 128.31 L0 156.66" class="st2"/></g><g id="shape35-86" transform="translate(329.619,-105.382)"><title content="structured text">64-bit register.50</title><path d="M0 128.31 L0 156.66" class="st2"/></g><g id="shape36-89" transform="translate(318.28,-105.382)"><title content="structured text">64-bit register.51</title><path d="M0 128.31 L0 156.66" class="st2"/></g><g id="shape37-92" transform="translate(363.635,-105.382)"><title content="structured text">64-bit register.53</title><path d="M0 128.31 L0 156.66" class="st2"/></g><g id="shape38-95" transform="translate(352.296,-105.382)"><title content="structured text">64-bit register.54</title><path d="M0 128.31 L0 156.66" class="st2"/></g><g id="shape39-98" transform="translate(335.288,-39.685) scale(-1,1)"><title content="structured text">Sheet.39</title><path d="M0 93.79 L0 156.66 L51.02 156.66" class="st5"/></g><g id="shape40-101" transform="translate(346.627,-28.3465) scale(-1,1)"><title content="structured text">Sheet.40</title><path d="M0 82.45 L0 156.66 L62.36 156.66" class="st5"/></g><g id="shape41-104" transform="translate(357.965,-17.0079) scale(-1,1)"><title content="structured text">Sheet.41</title><path d="M0 71.12 L0 156.66 L73.7 156.66" class="st5"/></g><g id="shape42-107" transform="translate(369.304,-5.66929) scale(-1,1)"><title content="structured text">Sheet.42</title><path d="M0 59.78 L0 156.66 L85.04 156.66" class="st5"/></g><g id="shape43-110" transform="translate(216.85,-34.0157)"><title content="structured text">Sheet.43</title><desc content="structured text">SYNCOVERRIDE</desc><rect x="0" y="145.317" width="67.4142" height="11.3386" class="st6"/><text x="1.4" y="153.39" class="st4">SYNCOVERRIDE</text></g><g id="shape44-113" transform="translate(212.315,-22.6772)"><title content="structured text">Sheet.44</title><desc content="structured text">FRSYNCOVFLOW</desc><rect x="0" y="145.317" width="71.9496" height="11.3386" class="st6"/><text x="2.39" y="153.39" class="st4">FRSYNCOVFLOW</text></g><g id="shape45-116" transform="translate(199.843,-11.3386)"><title content="structured text">Sheet.45</title><desc content="structured text">IDLEACKOVERRIDE</desc><rect x="0" y="145.317" width="84.422" height="11.3386" class="st6"/><text x="6.4" y="153.39" class="st4">IDLEACKOVERRIDE</text></g><g id="shape46-119" transform="translate(200.126,0)"><title content="structured text">Sheet.46</title><desc content="structured text">AFREADYOVERRIDE</desc><rect x="0" y="145.317" width="84.1386" height="11.3386" class="st6"/><text x="2.57" y="153.39" class="st4">AFREADYOVERRIDE</text></g><g id="shape47-122" transform="translate(22.6772,-82.2047)"><title content="structured text">Rectangle No Fill No Fill.116</title><desc content="structured text">res0</desc><rect x="0" y="145.317" width="19.8425" height="11.3386" class="st7"/><text x="1.24" y="153.39" class="st8">RES<tspan class="st9">0</tspan></text></g><g id="shape48-126" transform="translate(12.2373,-82.2047)"><title content="structured text">Graphic.117</title><rect x="0" y="145.317" width="10.44" height="11.3386" class="st10"/></g><g id="shape22-128" transform="translate(301.535,-73.7008) scale(-1,1)"><title content="structured text">Sheet.22</title><path d="M0 127.81 L0 156.66 L17.22 156.66" class="st5"/></g><g id="shape25-131" transform="translate(226.205,-68.0315)"><title content="structured text">Sheet.25</title><desc content="structured text">INOVFLOWEN</desc><rect x="0" y="145.317" width="57.9685" height="11.3386" class="st6"/><text x="2.19" y="153.39" class="st4">INOVFLOWEN</text></g></g></svg>