<?xml version="1.0" encoding="UTF-8" standalone="no"?><!-- Fixed up by svgfix.xsl 1.4  --><!-- Generated by Microsoft Visio, SVG Export MPIDR_EL1 bit assignments.svg ARM -->
<!DOCTYPE svg
  PUBLIC "-//W3C//DTD SVG 1.0//EN" "http://www.w3.org/TR/2001/REC-SVG-20010904/DTD/svg10.dtd">
<svg xmlns:xlink="http://www.w3.org/1999/xlink" xmlns="http://www.w3.org/2000/svg" xmlns:ev="http://www.w3.org/2001/xml-events" width="637.094" height="163.42" viewBox="0 0 477.82 122.565" xml:space="preserve" color-interpolation-filters="sRGB" class="st16" preserveAspectRatio="xMidYMid meet" zoomAndPan="magnify" version="1.1" contentScriptType="application/ecmascript" contentStyleType="text/css"><style type="text/css" xml:space="preserve"><![CDATA[
	
		.st1 {fill:#eed9b3;stroke:#000000;stroke-linecap:butt;stroke-width:0.8px}
		.st2 {fill:#ffffff;stroke:#000000;stroke-linecap:butt;stroke-width:0.8px}
		.st3 {fill:#000000;font-family:Arial,Helvetica,sans-serif;font-size:0.666664em}
		.st4 {fill:#ffffff;visibility:hidden}
		.st5 {stroke:#000000;stroke-linecap:butt;stroke-width:0.8px}
		.st6 {stroke:#000000;stroke-dasharray:0.25,1;stroke-linecap:butt;stroke-width:0.25px}
		.st7 {fill:none;stroke:none;stroke-linecap:butt;stroke-width:0.5px}
		.st8 {stroke:#000000;stroke-linecap:butt;stroke-width:0.5px}
		.st9 {fill:#ffffff;stroke:none;stroke-linecap:butt;stroke-width:0.5px}
		.st10 {fill:#ccdfdb;stroke:#000000;stroke-linecap:butt;stroke-width:0.8px}
		.st11 {fill:none;stroke:none;stroke-linecap:butt;stroke-width:0.499999px}
		.st12 {fill:#000000;font-family:Arial,Helvetica,sans-serif;font-size:0.533318em}
		.st13 {font-size:1.25003em}
		.st14 {fill:#eed9b3;stroke:none;stroke-linecap:round;stroke-linejoin:round;stroke-width:0.2px}
		.st15 {fill:#ccdfdb;stroke:none;stroke-linecap:round;stroke-linejoin:round;stroke-width:0.2px}
		.st16 {fill:none;fill-rule:evenodd;font-size:12px;overflow:visible;stroke-linecap:square;stroke-miterlimit:3}]]></style><g xmlns:v="http://schemas.microsoft.com/visio/2003/SVGExtensions/"><title>ARM</title><g id="shape385-1" transform="translate(219.068,-71.291)"><title>Sheet.385</title><rect x="0" y="94.2181" width="42.5197" height="28.3465" class="st1"/></g><g id="shape127-3" transform="translate(329.619,-71.291)"><title>Sheet.127</title><desc>Aff1</desc><rect x="0" y="94.2181" width="56.6929" height="28.3465" class="st2"/><text x="21.23" y="110.79" class="st3">Aff1</text></g><g id="shape135-6" transform="translate(420.328,-71.291)"><title>Sheet.135</title><desc>Aff0</desc><rect x="0" y="94.2181" width="45.3543" height="28.3465" class="st2"/><text x="15.56" y="110.79" class="st3">Aff0</text></g><g id="group282-9" transform="translate(12.1386,-71.291)"><title>64-bit register.5</title><g id="shape283-10"><title>64-bit register</title><rect x="0" y="94.2181" width="453.543" height="28.3465" class="st4"/><rect x="0" y="94.2181" width="453.543" height="28.3465" class="st5"/></g><g id="shape284-13" transform="translate(576.108,82.8796) rotate(90)"><title>Signal 0.109</title><path d="M0 122.56 L11.34 122.56" class="st6"/></g><g id="shape285-16" transform="translate(530.754,82.8796) rotate(90)"><title>Signal 0.80</title><path d="M0 122.56 L11.34 122.56" class="st6"/></g><g id="shape286-19" transform="translate(440.045,82.8796) rotate(90)"><title>Signal 0.81</title><path d="M0 122.56 L11.34 122.56" class="st6"/></g><g id="shape287-22" transform="translate(383.352,82.8796) rotate(90)"><title>Signal 0.82</title><path d="M0 122.56 L11.34 122.56" class="st6"/></g><g id="shape288-25" transform="translate(306.817,82.8796) rotate(90)"><title>Signal 0.83</title><path d="M0 122.56 L11.34 122.56" class="st6"/></g><g id="shape289-28" transform="translate(250.124,82.8796) rotate(90)"><title>Signal 0.84</title><path d="M0 122.56 L11.34 122.56" class="st6"/></g><g id="shape290-31" transform="translate(216.108,82.8796) rotate(90)"><title>Signal 0.85</title><path d="M0 122.56 L11.34 122.56" class="st6"/></g><g id="shape291-34" transform="translate(179.258,82.8796) rotate(90)"><title>Signal 0.86</title><path d="M0 122.56 L11.34 122.56" class="st6"/></g><g id="shape292-37" transform="translate(122.565,82.8796) rotate(90)"><title>Signal 0.87</title><path d="M0 122.56 L11.34 122.56" class="st6"/></g><g id="shape295-40" transform="translate(442.205,-28.3465)"><title>Bit01.2</title><desc>0</desc><text x="3.44" y="119.3" class="st3">0</text></g><g id="shape296-42" transform="translate(3.9968E-14,-28.3465)"><title>Bit01.88</title><desc>63</desc><text x="1.22" y="119.3" class="st3">63</text></g><g id="shape297-44" transform="translate(306.142,-28.3465)"><title>Bit16.89</title><desc>16</desc><text x="1.22" y="119.3" class="st3">16</text></g><g id="shape298-46" transform="translate(317.48,-28.3465)"><title>Bit15.90</title><desc>15</desc><text x="1.22" y="119.3" class="st3">15</text></g><g id="shape299-48" transform="translate(440.045,82.8796) rotate(90)"><title>Signal 0.91</title><path d="M0 122.56 L11.34 122.56" class="st6"/></g></g><g id="shape300-51" transform="translate(408.989,-99.6374)"><title>Bit16.89</title><desc>8</desc><text x="3.44" y="119.3" class="st3">8</text></g><g id="shape301-53" transform="translate(420.328,-99.6374)"><title>Bit15.90</title><desc>7</desc><text x="3.44" y="119.3" class="st3">7</text></g><g id="shape302-55" transform="translate(272.926,-71.291)"><title>Sheet.302</title><desc>Aff2</desc><rect x="0" y="94.2181" width="56.6929" height="28.3465" class="st2"/><text x="21.23" y="110.79" class="st3">Aff2</text></g><g id="shape303-58" transform="translate(272.926,-99.6374)"><title>Bit31</title><desc>23</desc><text x="1.22" y="119.3" class="st3">23</text></g><g id="shape304-60" transform="translate(261.587,-99.6374)"><title>Bit30</title><desc>24</desc><text x="1.22" y="119.3" class="st3">24</text></g><g id="shape306-62" transform="translate(287.099,-57.1177) scale(-1,1)"><title>Sheet.306</title><desc>MT</desc><rect x="0" y="111.226" width="14.1732" height="11.3386" class="st7"/><text x="-13.17" y="119.3" transform="scale(-1,1)" class="st3">MT</text></g><g id="shape307-65" transform="translate(272.926,-62.787) scale(-1,1)"><title>Sheet.307</title><path d="M5.67 116.9 L5.67 122.56 L0 122.56" class="st8"/></g><g id="shape308-68" transform="translate(261.587,-71.291)"><title>Sheet.308</title><rect x="0" y="94.2181" width="11.3386" height="28.3465" class="st2"/></g><g id="shape293-70" transform="translate(219.068,-99.6374)"><title>Bit31.293</title><desc>29</desc><text x="1.22" y="119.3" class="st3">29</text></g><g id="shape294-72" transform="translate(207.729,-99.6374)"><title>Bit30.294</title><desc>30</desc><text x="1.22" y="119.3" class="st3">30</text></g><g id="shape313-74" transform="translate(207.729,-71.291)"><title>Sheet.313</title><desc>U</desc><rect x="0" y="94.2181" width="11.3386" height="28.3465" class="st2"/><text x="2.78" y="110.79" class="st3">U</text></g><g id="shape314-77" transform="translate(185.052,-99.6374)"><title>Bit30.314</title><desc>32</desc><text x="1.22" y="119.3" class="st3">32</text></g><g id="shape315-79" transform="translate(196.391,-99.6374)"><title>Bit30.315</title><desc>31</desc><text x="1.22" y="119.3" class="st3">31</text></g><g id="shape316-81" transform="translate(139.698,-71.291)"><title>Sheet.316</title><desc>Aff3</desc><rect x="0" y="94.2181" width="56.6929" height="28.3465" class="st2"/><text x="21.23" y="110.79" class="st3">Aff3</text></g><g id="shape317-84" transform="translate(125.524,-99.6374)"><title>Bit30.317</title><desc>40</desc><text x="1.22" y="119.3" class="st3">40</text></g><g id="shape318-86" transform="translate(139.698,-99.6374)"><title>Bit30.318</title><desc>39</desc><text x="1.22" y="119.3" class="st3">39</text></g><g id="shape319-88" transform="translate(12.1386,-71.291)"><title>Sheet.319</title><rect x="0" y="94.2181" width="127.559" height="28.3465" class="st1"/></g><g id="group310-90" transform="translate(85.8394,-68.4563)"><title>Sheet.310</title><g id="group311-91" transform="translate(0,-28.3465)"><title>Sheet.311</title><g id="shape320-92" transform="translate(0.566929,2.84217E-14)"><title>Sheet.320</title><rect x="0" y="116.895" width="1.88976" height="5.66929" class="st9"/></g><g id="shape321-94" transform="translate(123.326,136.977) rotate(99.4623)"><title>Sheet.321</title><path d="M0 122.15 C0.15 122.36 0.72 122.53 1.15 122.56 C1.58 122.59 1.86 122.48 2.34 122.25 C2.63 122.11 2.98          121.92 3.29 121.8 C4.56 121.3 5.03 121.85 5.75 122.15" class="st8"/></g><g id="shape322-97" transform="translate(121.436,136.977) rotate(99.4623)"><title>Sheet.322</title><path d="M0 122.15 C0.15 122.36 0.72 122.53 1.15 122.56 C1.58 122.59 1.86 122.48 2.34 122.25 C2.63 122.11 2.98          121.92 3.29 121.8 C4.56 121.3 5.03 121.85 5.75 122.15" class="st8"/></g></g><g id="group323-100"><title>Sheet.323</title><g id="shape324-101" transform="translate(0.566929,2.84217E-14)"><title>Sheet.324</title><rect x="0" y="116.895" width="1.88976" height="5.66929" class="st9"/></g><g id="shape325-103" transform="translate(123.326,136.977) rotate(99.4623)"><title>Sheet.325</title><path d="M0 122.15 C0.15 122.36 0.72 122.53 1.15 122.56 C1.58 122.59 1.86 122.48 2.34 122.25 C2.63 122.11 2.98          121.92 3.29 121.8 C4.56 121.3 5.03 121.85 5.75 122.15" class="st8"/></g><g id="shape326-106" transform="translate(121.436,136.977) rotate(99.4623)"><title>Sheet.326</title><path d="M0 122.15 C0.15 122.36 0.72 122.53 1.15 122.56 C1.58 122.59 1.86 122.48 2.34 122.25 C2.63 122.11 2.98          121.92 3.29 121.8 C4.56 121.3 5.03 121.85 5.75 122.15" class="st8"/></g></g></g><g id="group327-109" transform="translate(166.627,-68.4563)"><title>Sheet.327</title><g id="group328-110" transform="translate(0,-28.3465)"><title>Sheet.328</title><g id="shape329-111" transform="translate(0.566929,2.84217E-14)"><title>Sheet.329</title><rect x="0" y="116.895" width="1.88976" height="5.66929" class="st9"/></g><g id="shape330-113" transform="translate(123.326,136.977) rotate(99.4623)"><title>Sheet.330</title><path d="M0 122.15 C0.15 122.36 0.72 122.53 1.15 122.56 C1.58 122.59 1.86 122.48 2.34 122.25 C2.63 122.11 2.98          121.92 3.29 121.8 C4.56 121.3 5.03 121.85 5.75 122.15" class="st8"/></g><g id="shape331-116" transform="translate(121.436,136.977) rotate(99.4623)"><title>Sheet.331</title><path d="M0 122.15 C0.15 122.36 0.72 122.53 1.15 122.56 C1.58 122.59 1.86 122.48 2.34 122.25 C2.63 122.11 2.98          121.92 3.29 121.8 C4.56 121.3 5.03 121.85 5.75 122.15" class="st8"/></g></g><g id="group332-119"><title>Sheet.332</title><g id="shape333-120" transform="translate(0.566929,2.84217E-14)"><title>Sheet.333</title><rect x="0" y="116.895" width="1.88976" height="5.66929" class="st9"/></g><g id="shape334-122" transform="translate(123.326,136.977) rotate(99.4623)"><title>Sheet.334</title><path d="M0 122.15 C0.15 122.36 0.72 122.53 1.15 122.56 C1.58 122.59 1.86 122.48 2.34 122.25 C2.63 122.11 2.98          121.92 3.29 121.8 C4.56 121.3 5.03 121.85 5.75 122.15" class="st8"/></g><g id="shape335-125" transform="translate(121.436,136.977) rotate(99.4623)"><title>Sheet.335</title><path d="M0 122.15 C0.15 122.36 0.72 122.53 1.15 122.56 C1.58 122.59 1.86 122.48 2.34 122.25 C2.63 122.11 2.98          121.92 3.29 121.8 C4.56 121.3 5.03 121.85 5.75 122.15" class="st8"/></g></g></g><g id="group336-128" transform="translate(238.91,-68.4563)"><title>Sheet.336</title><g id="group337-129" transform="translate(0,-28.3465)"><title>Sheet.337</title><g id="shape338-130" transform="translate(0.566929,2.84217E-14)"><title>Sheet.338</title><rect x="0" y="116.895" width="1.88976" height="5.66929" class="st9"/></g><g id="shape339-132" transform="translate(123.326,136.977) rotate(99.4623)"><title>Sheet.339</title><path d="M0 122.15 C0.15 122.36 0.72 122.53 1.15 122.56 C1.58 122.59 1.86 122.48 2.34 122.25 C2.63 122.11 2.98          121.92 3.29 121.8 C4.56 121.3 5.03 121.85 5.75 122.15" class="st8"/></g><g id="shape340-135" transform="translate(121.436,136.977) rotate(99.4623)"><title>Sheet.340</title><path d="M0 122.15 C0.15 122.36 0.72 122.53 1.15 122.56 C1.58 122.59 1.86 122.48 2.34 122.25 C2.63 122.11 2.98          121.92 3.29 121.8 C4.56 121.3 5.03 121.85 5.75 122.15" class="st8"/></g></g><g id="group341-138"><title>Sheet.341</title><g id="shape342-139" transform="translate(0.566929,2.84217E-14)"><title>Sheet.342</title><rect x="0" y="116.895" width="1.88976" height="5.66929" class="st9"/></g><g id="shape343-141" transform="translate(123.326,136.977) rotate(99.4623)"><title>Sheet.343</title><path d="M0 122.15 C0.15 122.36 0.72 122.53 1.15 122.56 C1.58 122.59 1.86 122.48 2.34 122.25 C2.63 122.11 2.98          121.92 3.29 121.8 C4.56 121.3 5.03 121.85 5.75 122.15" class="st8"/></g><g id="shape344-144" transform="translate(121.436,136.977) rotate(99.4623)"><title>Sheet.344</title><path d="M0 122.15 C0.15 122.36 0.72 122.53 1.15 122.56 C1.58 122.59 1.86 122.48 2.34 122.25 C2.63 122.11 2.98          121.92 3.29 121.8 C4.56 121.3 5.03 121.85 5.75 122.15" class="st8"/></g></g></g><g id="group345-147" transform="translate(299.855,-68.4563)"><title>Sheet.345</title><g id="group346-148" transform="translate(0,-28.3465)"><title>Sheet.346</title><g id="shape347-149" transform="translate(0.566929,2.84217E-14)"><title>Sheet.347</title><rect x="0" y="116.895" width="1.88976" height="5.66929" class="st9"/></g><g id="shape348-151" transform="translate(123.326,136.977) rotate(99.4623)"><title>Sheet.348</title><path d="M0 122.15 C0.15 122.36 0.72 122.53 1.15 122.56 C1.58 122.59 1.86 122.48 2.34 122.25 C2.63 122.11 2.98          121.92 3.29 121.8 C4.56 121.3 5.03 121.85 5.75 122.15" class="st8"/></g><g id="shape349-154" transform="translate(121.436,136.977) rotate(99.4623)"><title>Sheet.349</title><path d="M0 122.15 C0.15 122.36 0.72 122.53 1.15 122.56 C1.58 122.59 1.86 122.48 2.34 122.25 C2.63 122.11 2.98          121.92 3.29 121.8 C4.56 121.3 5.03 121.85 5.75 122.15" class="st8"/></g></g><g id="group350-157"><title>Sheet.350</title><g id="shape351-158" transform="translate(0.566929,2.84217E-14)"><title>Sheet.351</title><rect x="0" y="116.895" width="1.88976" height="5.66929" class="st9"/></g><g id="shape352-160" transform="translate(123.326,136.977) rotate(99.4623)"><title>Sheet.352</title><path d="M0 122.15 C0.15 122.36 0.72 122.53 1.15 122.56 C1.58 122.59 1.86 122.48 2.34 122.25 C2.63 122.11 2.98          121.92 3.29 121.8 C4.56 121.3 5.03 121.85 5.75 122.15" class="st8"/></g><g id="shape353-163" transform="translate(121.436,136.977) rotate(99.4623)"><title>Sheet.353</title><path d="M0 122.15 C0.15 122.36 0.72 122.53 1.15 122.56 C1.58 122.59 1.86 122.48 2.34 122.25 C2.63 122.11 2.98          121.92 3.29 121.8 C4.56 121.3 5.03 121.85 5.75 122.15" class="st8"/></g></g></g><g id="group363-166" transform="translate(441.587,-68.4563)"><title>Sheet.363</title><g id="group364-167" transform="translate(0,-28.3465)"><title>Sheet.364</title><g id="shape365-168" transform="translate(0.566929,2.84217E-14)"><title>Sheet.365</title><rect x="0" y="116.895" width="1.88976" height="5.66929" class="st9"/></g><g id="shape366-170" transform="translate(123.326,136.977) rotate(99.4623)"><title>Sheet.366</title><path d="M0 122.15 C0.15 122.36 0.72 122.53 1.15 122.56 C1.58 122.59 1.86 122.48 2.34 122.25 C2.63 122.11 2.98          121.92 3.29 121.8 C4.56 121.3 5.03 121.85 5.75 122.15" class="st8"/></g><g id="shape367-173" transform="translate(121.436,136.977) rotate(99.4623)"><title>Sheet.367</title><path d="M0 122.15 C0.15 122.36 0.72 122.53 1.15 122.56 C1.58 122.59 1.86 122.48 2.34 122.25 C2.63 122.11 2.98          121.92 3.29 121.8 C4.56 121.3 5.03 121.85 5.75 122.15" class="st8"/></g></g><g id="group368-176"><title>Sheet.368</title><g id="shape369-177" transform="translate(0.566929,2.84217E-14)"><title>Sheet.369</title><rect x="0" y="116.895" width="1.88976" height="5.66929" class="st9"/></g><g id="shape370-179" transform="translate(123.326,136.977) rotate(99.4623)"><title>Sheet.370</title><path d="M0 122.15 C0.15 122.36 0.72 122.53 1.15 122.56 C1.58 122.59 1.86 122.48 2.34 122.25 C2.63 122.11 2.98          121.92 3.29 121.8 C4.56 121.3 5.03 121.85 5.75 122.15" class="st8"/></g><g id="shape371-182" transform="translate(121.436,136.977) rotate(99.4623)"><title>Sheet.371</title><path d="M0 122.15 C0.15 122.36 0.72 122.53 1.15 122.56 C1.58 122.59 1.86 122.48 2.34 122.25 C2.63 122.11 2.98          121.92 3.29 121.8 C4.56 121.3 5.03 121.85 5.75 122.15" class="st8"/></g></g></g><g id="shape374-185" transform="translate(250.249,-99.6374)"><title>Bit30.374</title><desc>25</desc><text x="1.22" y="119.3" class="st3">25</text></g><g id="shape375-187" transform="translate(196.391,-71.291)"><title>Sheet.375</title><rect x="0" y="94.2181" width="11.3386" height="28.3465" class="st10"/></g><g id="shape376-189" transform="translate(386.312,-71.291)"><title>Sheet.376</title><desc>Aff1</desc><rect x="0" y="94.2181" width="34.0157" height="28.3465" class="st2"/><text x="9.89" y="110.79" class="st3">Aff1</text></g><g id="shape377-192" transform="translate(374.973,-99.6374)"><title>Bit30.377</title><desc>11</desc><text x="1.22" y="119.3" class="st3">11</text></g><g id="shape378-194" transform="translate(386.312,-99.6374)"><title>Bit16.378</title><desc>10</desc><text x="1.22" y="119.3" class="st3">10</text></g><g id="group379-196" transform="translate(12.1386,-11.8386)"><title>Sheet.379</title><g id="shape380-197" transform="translate(11.3386,0)"><title>Rectangle No Fill No Fill.116</title><desc>res0</desc><rect x="0" y="111.226" width="22.6772" height="11.3386" class="st11"/><text x="3.07" y="119.29" class="st12">RES<tspan class="st13">0</tspan></text></g><g id="shape381-201"><title>Graphic.117</title><rect x="0" y="111.226" width="11.3386" height="11.3386" class="st14"/></g></g><g id="group382-203" transform="translate(12.1386,-25.9367)"><title>Sheet.382</title><g id="shape383-204" transform="translate(11.3386,0)"><title>Rectangle No Fill No Fill.119</title><desc>res1</desc><rect x="0" y="111.226" width="22.6772" height="11.3386" class="st11"/><text x="3.07" y="119.29" class="st12">RES<tspan class="st13">1</tspan></text></g><g id="shape384-208"><title>Rectangle Fill:Soapstone.120</title><rect x="0" y="111.226" width="11.3386" height="11.3386" class="st15"/></g></g></g></svg>