<?xml version="1.0" encoding="UTF-8" standalone="no"?><!-- Fixed up by svgfix.xsl 1.4  --><!-- Generated by Microsoft Visio 11.0, SVG Export, v1.0 programming_etm_registers.svg Page-1 -->
<!DOCTYPE svg
  PUBLIC "-//W3C//DTD SVG 1.0//EN" "http://www.w3.org/TR/2001/REC-SVG-20010904/DTD/svg10.dtd">
<svg xmlns:xlink="http://www.w3.org/1999/xlink" xmlns="http://www.w3.org/2000/svg" width="159.407" height="492.672" viewBox="0 0 119.555 369.504" xml:space="preserve" color-interpolation-filters="sRGB" class="st9" preserveAspectRatio="xMidYMid meet" zoomAndPan="magnify" version="1.0" contentScriptType="text/ecmascript" contentStyleType="text/css"><style type="text/css" xml:space="preserve"><![CDATA[
	
		.st1 {fill:#ffffff;stroke:#000000;stroke-linecap:butt;stroke-width:0.5px}
		.st2 {fill:#000000;font-family:Arial,Helvetica,sans-serif;font-size:0.666664em}
		.st3 {fill:#ffffff;visibility:hidden}
		.st4 {stroke:#000000;stroke-linecap:butt;stroke-width:0.5px}
		.st5 {font-size:1em}
		.st6 {marker-end:url(#mrkr4-39);stroke:#000000;stroke-linecap:butt;stroke-width:0.5px}
		.st7 {fill:#000000;fill-opacity:1;stroke:#000000;stroke-opacity:1;stroke-width:0.21739130434783px}
		.st8 {fill:#ffffff;stroke:none;stroke-linecap:butt;stroke-width:7.2px}
		.st9 {fill:none;fill-rule:evenodd;font-size:12px;overflow:visible;stroke-linecap:square;stroke-miterlimit:3}]]></style><defs xmlns:v="http://schemas.microsoft.com/visio/2003/SVGExtensions/" id="Markers"><g id="lend4"><path d="M 2 1 L -0 0 L 2 -1 L 2 1 " style="stroke:none"/></g><marker id="mrkr4-39" class="st7" refX="-9.2" orient="auto" markerUnits="strokeWidth" preserveAspectRatio="xMidYMid meet" overflow="visible"><use xlink:href="#lend4" transform="scale(-4.6,-4.6) " xlink:type="simple" xlink:show="embed" xlink:actuate="onLoad"/></marker></defs><g xmlns:v="http://schemas.microsoft.com/visio/2003/SVGExtensions/"><title content="structured text">Page-1</title><g id="shape2-1" transform="translate(23.1772,-357.665)"><title content="structured text">Terminator</title><desc content="structured text">Start</desc><path d="M5.67 369.5 L39.69 369.5 A5.66929 5.66929 -180 0 0 39.69 358.17 L5.67 358.17 A5.66929 5.66929 -180 1 0 5.67        369.5 Z" class="st1"/><text x="14.23" y="366.23" class="st2">Start</text></g><g id="shape3-4" transform="translate(0.5,-326.484)"><title content="structured text">Auto-height box</title><desc content="structured text">Set main enable bit in TRCPRGCTLR to 0b0</desc><rect x="0" y="346.827" width="90.7087" height="22.6772" class="st3"/><rect x="0" y="346.827" width="90.7087" height="22.6772" class="st4"/><text x="4.68" y="355.77" class="st2">Set main enable bit in <tspan x="4.68" dy="9.6" class="st5">TRCPRGCTLR to </tspan>0b0</text></g><g id="shape4-9" transform="translate(0.5,-289.634)"><title content="structured text">Auto-height box.3</title><desc content="structured text">Read TRCSTATR</desc><rect x="0" y="346.827" width="90.7087" height="22.6772" class="st3"/><rect x="0" y="346.827" width="90.7087" height="22.6772" class="st4"/><text x="11.12" y="360.57" class="st2">Read TRCSTATR  </text></g><g id="shape5-13" transform="translate(0.5,-218.768)"><title content="structured text">Decision</title><desc content="structured text">Is TRCSTATR Idle 0b1?</desc><path d="M0 338.32 L45.35 307.14 L90.71 338.32 L45.35 369.5 L0 338.32 Z" class="st1"/><text x="11.13" y="340.72" class="st2">Is TRCSTATR  Idle <tspan x="36.46" dy="9.6" class="st5">0</tspan>b1?  </text></g><g id="shape6-17" transform="translate(0.5,-173.413)"><title content="structured text">Auto-height box.5</title><desc content="structured text">Program all trace registers required</desc><rect x="0" y="346.827" width="90.7087" height="22.6772" class="st3"/><rect x="0" y="346.827" width="90.7087" height="22.6772" class="st4"/><text x="13.12" y="355.77" class="st2">Program all trace <tspan x="13.12" dy="9.6" class="st5">registers required</tspan></text></g><g id="shape7-22" transform="translate(0.5,-142.232)"><title content="structured text">Auto-height box.6</title><desc content="structured text">Set main enable bit in TRCPRGCTLR to 0b1</desc><rect x="0" y="346.827" width="90.7087" height="22.6772" class="st3"/><rect x="0" y="346.827" width="90.7087" height="22.6772" class="st4"/><text x="4.68" y="355.77" class="st2">Set main enable bit in <tspan x="4.68" dy="9.6" class="st5">TRCPRGCTLR to </tspan>0b1</text></g><g id="shape8-27" transform="translate(0.5,-34.5157)"><title content="structured text">Decision.7</title><desc content="structured text">Is TRCSTATR Idle 0b0?</desc><path d="M0 338.32 L45.35 307.14 L90.71 338.32 L45.35 369.5 L0 338.32 Z" class="st1"/><text x="11.13" y="340.72" class="st2">Is TRCSTATR  Idle <tspan x="36.46" dy="9.6" class="st5">0</tspan>b0?  </text></g><g id="shape9-31" transform="translate(23.1772,-0.5)"><title content="structured text">Terminator.8</title><desc content="structured text">End</desc><path d="M5.67 369.5 L39.69 369.5 A5.66929 5.66929 -180 0 0 39.69 358.17 L5.67 358.17 A5.66929 5.66929 -180 1 0 5.67        369.5 Z" class="st1"/><text x="15.56" y="366.23" class="st2">End</text></g><g id="shape10-34" transform="translate(38.7677,-360.5)"><title content="structured text">Dynamic connector</title><path d="M7.09 372.34 L7.09 376.24" class="st6"/></g><g id="shape11-40" transform="translate(38.7677,-326.484)"><title content="structured text">Dynamic connector.11</title><path d="M7.09 369.5 L7.09 379.08" class="st6"/></g><g id="shape12-45" transform="translate(38.7677,-292.469)"><title content="structured text">Dynamic connector.12</title><path d="M7.09 372.34 L7.09 376.24" class="st6"/></g><g id="shape13-50" transform="translate(38.7677,-218.768)"><title content="structured text">Dynamic connector.13</title><desc content="structured text">Yes</desc><path d="M7.09 369.5 L7.09 387.58" class="st6"/><rect x="0.194128" y="374.625" width="13.7851" height="9.59985" class="st8"/><text x="0.19" y="381.83" class="st2">Yes</text></g><g id="shape14-57" transform="translate(38.7677,-176.248)"><title content="structured text">Dynamic connector.14</title><path d="M7.09 372.34 L7.09 376.24" class="st6"/></g><g id="shape15-62" transform="translate(38.7677,-142.232)"><title content="structured text">Dynamic connector.15</title><path d="M7.09 369.5 L7.09 379.08" class="st6"/></g><g id="shape16-67" transform="translate(38.7677,-34.5157)"><title content="structured text">Dynamic connector.16</title><desc content="structured text">Yes</desc><path d="M7.09 369.5 L7.09 387.58" class="st6"/><rect x="0.193924" y="374.625" width="13.7851" height="9.59985" class="st8"/><text x="0.19" y="381.83" class="st2">Yes</text></g><g id="shape17-74" transform="translate(91.2087,-65.6969)"><title content="structured text">Dynamic connector.17</title><desc content="structured text">No</desc><path d="M0 369.5 L19.84 369.5 L19.84 298.64 L-40.75 298.64" class="st6"/><rect x="14.7292" y="333.407" width="10.2266" height="9.59985" class="st8"/><text x="14.73" y="340.61" class="st2">No</text></g><g id="shape18-81" transform="translate(91.2087,-249.949)"><title content="structured text">Dynamic connector.19</title><desc content="structured text">No</desc><path d="M0 369.5 L19.84 369.5 L19.84 298.64 L-40.75 298.64" class="st6"/><rect x="14.7292" y="327.711" width="10.2266" height="9.59985" class="st8"/><text x="14.73" y="334.91" class="st2">No</text></g><g id="shape19-88" transform="translate(0.5,-105.382)"><title content="structured text">Auto-height box.19</title><desc content="structured text">Read TRCSTATR</desc><rect x="0" y="346.827" width="90.7087" height="22.6772" class="st3"/><rect x="0" y="346.827" width="90.7087" height="22.6772" class="st4"/><text x="11.12" y="360.57" class="st2">Read TRCSTATR  </text></g><g id="shape20-92" transform="translate(38.7677,-108.217)"><title content="structured text">Dynamic connector.20</title><path d="M7.09 372.34 L7.09 376.24" class="st6"/></g></g></svg>