<?xml version="1.0" encoding="UTF-8" standalone="no"?><!-- Fixed up by svgfix.xsl 1.4  --><!-- Generated by Microsoft Visio 11.0, SVG Export, v1.0 id_aa64mmfr1_el1_bit_assignments_ares_LowRes.svg ARM -->
<!DOCTYPE svg
  PUBLIC "-//W3C//DTD SVG 1.0//EN" "http://www.w3.org/TR/2001/REC-SVG-20010904/DTD/svg10.dtd">
<svg xmlns:xlink="http://www.w3.org/1999/xlink" xmlns="http://www.w3.org/2000/svg" xmlns:ev="http://www.w3.org/2001/xml-events" width="773.157" height="133.284" viewBox="0 0 579.868 99.963" xml:space="preserve" color-interpolation-filters="sRGB" class="st12" preserveAspectRatio="xMidYMid meet" zoomAndPan="magnify" version="1.0" contentScriptType="text/ecmascript" contentStyleType="text/css"><style type="text/css" xml:space="preserve"><![CDATA[
	
		.st1 {fill:none;stroke:none;stroke-linecap:round;stroke-linejoin:round;stroke-width:0.2px}
		.st2 {fill:#000000;font-family:Arial,Helvetica,sans-serif;font-size:0.666664em}
		.st3 {fill:#eed9b3;stroke:none;stroke-linecap:round;stroke-linejoin:round;stroke-width:0.2px}
		.st4 {stroke:#000000;stroke-linecap:butt;stroke-width:0.8px}
		.st5 {stroke:#000000;stroke-dasharray:0.25,0.5;stroke-linecap:butt;stroke-width:0.25px}
		.st6 {fill:none;stroke:none;stroke-linecap:butt;stroke-width:0.499999px}
		.st7 {fill:#000000;font-family:Arial,Helvetica,sans-serif;font-size:0.533318em}
		.st8 {font-size:1.25003em}
		.st9 {fill:#eed9b3;stroke:none;stroke-linecap:round;stroke-linejoin:round;stroke-width:0.2px}
		.st10 {fill:#ffffff;stroke:none;stroke-linecap:butt;stroke-width:0.5px}
		.st11 {stroke:#000000;stroke-linecap:butt;stroke-width:0.5px}
		.st12 {fill:none;fill-rule:evenodd;font-size:12px;overflow:visible;stroke-linecap:square;stroke-miterlimit:3}]]></style><g xmlns:v="http://schemas.microsoft.com/visio/2003/SVGExtensions/"><title content="structured text">ARM</title><g id="shape45-1" transform="translate(250.249,-48.689)"><title content="structured text">Sheet.45</title><desc content="structured text">SpecSEI</desc><rect x="0" y="71.6161" width="45.3543" height="28.3465" class="st1"/><text x="7.11" y="88.19" class="st2">SpecSEI</text></g><g id="shape14-4" transform="translate(12.1386,-48.689)"><title content="structured text">64-bit register.88</title><rect x="0" y="71.6161" width="192.756" height="28.3465" class="st3"/></g><g id="shape1-6" transform="translate(567.729,-48.689) scale(-1,1)"><title content="structured text">64-bit register.156</title><path d="M0 71.62 L555.59 71.62 L555.59 99.96 L0 99.96" class="st4"/></g><g id="shape2-9" transform="translate(112.101,11.5886) rotate(90)"><title content="structured text">64-bit register.169</title><path d="M0 99.96 L11.34 99.96" class="st5"/></g><g id="shape3-12" transform="translate(567.729,-48.689)"><title content="structured text">64-bit register.157</title><path d="M0 71.62 L0 99.96" class="st4"/></g><g id="shape4-15" transform="translate(386.312,-48.689)"><title content="structured text">64-bit register.39</title><path d="M0 71.62 L0 99.96" class="st4"/></g><g id="shape5-18" transform="translate(431.666,-48.689)"><title content="structured text">64-bit register.41</title><path d="M0 71.62 L0 99.96" class="st4"/></g><g id="shape6-21" transform="translate(477.02,-48.689)"><title content="structured text">64-bit register.42</title><path d="M0 71.62 L0 99.96" class="st4"/></g><g id="shape7-24" transform="translate(522.375,-48.689)"><title content="structured text">64-bit register.52</title><path d="M0 71.62 L0 99.96" class="st4"/></g><g id="shape8-27" transform="translate(486.274,11.5886) rotate(90)"><title content="structured text">64-bit register.14</title><path d="M0 99.96 L11.34 99.96" class="st5"/></g><g id="shape9-30" transform="translate(531.629,11.5886) rotate(90)"><title content="structured text">64-bit register.15</title><path d="M0 99.96 L11.34 99.96" class="st5"/></g><g id="shape10-33" transform="translate(622.337,11.5886) rotate(90)"><title content="structured text">64-bit register.16</title><path d="M0 99.96 L11.34 99.96" class="st5"/></g><g id="shape11-36" transform="translate(667.692,11.5886) rotate(90)"><title content="structured text">64-bit register.17</title><path d="M0 99.96 L11.34 99.96" class="st5"/></g><g id="shape12-39" transform="translate(12.1386,-77.0354)"><title content="structured text">64-bit register.179</title><desc content="structured text">63</desc><text x="1.22" y="96.69" class="st2">63</text></g><g id="shape13-41" transform="translate(556.391,-77.0354)"><title content="structured text">64-bit register.19</title><desc content="structured text">0</desc><text x="3.44" y="96.69" class="st2">0</text></g><g id="shape15-43" transform="translate(576.983,11.5886) rotate(90)"><title content="structured text">64-bit register.21</title><path d="M0 99.96 L11.34 99.96" class="st5"/></g><g id="shape16-46" transform="translate(511.036,-77.0354)"><title content="structured text">64-bit register.35</title><desc content="structured text">4</desc><text x="3.44" y="96.69" class="st2">4</text></g><g id="shape17-48" transform="translate(522.375,-77.0354)"><title content="structured text">64-bit register.209</title><desc content="structured text">3</desc><text x="3.44" y="96.69" class="st2">3</text></g><g id="shape18-50" transform="translate(465.682,-77.0354)"><title content="structured text">64-bit register.210</title><desc content="structured text">8</desc><text x="3.44" y="96.69" class="st2">8</text></g><g id="shape19-52" transform="translate(477.02,-77.0354)"><title content="structured text">64-bit register.211</title><desc content="structured text">7</desc><text x="3.44" y="96.69" class="st2">7</text></g><g id="shape20-54" transform="translate(420.328,-77.0354)"><title content="structured text">64-bit register.212</title><desc content="structured text">12</desc><text x="1.22" y="96.69" class="st2">12</text></g><g id="shape21-56" transform="translate(431.666,-77.0354)"><title content="structured text">64-bit register.213</title><desc content="structured text">11</desc><text x="1.22" y="96.69" class="st2">11</text></g><g id="shape22-58" transform="translate(374.973,-77.0354)"><title content="structured text">64-bit register.214</title><desc content="structured text">16</desc><text x="1.22" y="96.69" class="st2">16</text></g><g id="shape23-60" transform="translate(386.312,-77.0354)"><title content="structured text">64-bit register.215</title><desc content="structured text">15</desc><text x="1.22" y="96.69" class="st2">15</text></g><g id="shape24-62" transform="translate(431.666,-48.689)"><title content="structured text">64-bit register.223</title><desc content="structured text">VH</desc><rect x="0" y="71.6161" width="45.3543" height="28.3465" class="st1"/><text x="17.12" y="88.19" class="st2">VH</text></g><g id="shape25-65" transform="translate(477.02,-48.689)"><title content="structured text">64-bit register.224</title><desc content="structured text">VMID</desc><rect x="0" y="71.6161" width="45.3543" height="28.3465" class="st1"/><text x="12.68" y="88.19" class="st2">VMID</text></g><g id="shape34-68" transform="translate(340.957,-48.689)"><title content="structured text">Sheet.34</title><path d="M0 71.62 L0 99.96" class="st4"/></g><g id="shape35-71" transform="translate(329.619,-77.0354)"><title content="structured text">64-bit register.40</title><desc content="structured text">20</desc><text x="1.22" y="96.69" class="st2">20</text></g><g id="shape36-73" transform="translate(340.957,-77.0354)"><title content="structured text">Sheet.36</title><desc content="structured text">19</desc><text x="1.22" y="96.69" class="st2">19</text></g><g id="shape37-75" transform="translate(440.92,11.5886) rotate(90)"><title content="structured text">64-bit register.43</title><path d="M0 99.96 L11.34 99.96" class="st5"/></g><g id="shape38-78" transform="translate(386.312,-48.689)"><title content="structured text">64-bit register.45</title><desc content="structured text">HD</desc><rect x="0" y="71.6161" width="45.3543" height="28.3465" class="st1"/><text x="16.9" y="88.19" class="st2">HD</text></g><g id="shape39-81" transform="translate(295.603,-48.689)"><title content="structured text">64-bit register.46</title><desc content="structured text">PAN</desc><rect x="0" y="71.6161" width="45.3543" height="28.3465" class="st1"/><text x="14.45" y="88.19" class="st2">PAN</text></g><g id="shape40-84" transform="translate(522.375,-48.689)"><title content="structured text">64-bit register.47</title><desc content="structured text">HAFDBS</desc><rect x="0" y="71.6161" width="45.3543" height="28.3465" class="st1"/><text x="6.45" y="88.19" class="st2">HAFDBS</text></g><g id="shape41-87" transform="translate(295.603,-48.689)"><title content="structured text">Sheet.41</title><path d="M0 71.62 L0 99.96" class="st4"/></g><g id="shape42-90" transform="translate(284.265,-77.0354)"><title content="structured text">64-bit register.50</title><desc content="structured text">24</desc><text x="1.22" y="96.69" class="st2">24</text></g><g id="shape43-92" transform="translate(295.603,-77.0354)"><title content="structured text">Sheet.43</title><desc content="structured text">23</desc><text x="1.22" y="96.69" class="st2">23</text></g><g id="shape44-94" transform="translate(395.566,11.5886) rotate(90)"><title content="structured text">Sheet.44</title><path d="M0 99.96 L11.34 99.96" class="st5"/></g><g id="shape46-97" transform="translate(250.249,-48.689)"><title content="structured text">Sheet.46</title><path d="M0 71.62 L0 99.96" class="st4"/></g><g id="shape47-100" transform="translate(238.91,-77.0354)"><title content="structured text">64-bit register.55</title><desc content="structured text">28</desc><text x="1.22" y="96.69" class="st2">28</text></g><g id="shape48-102" transform="translate(250.249,-77.0354)"><title content="structured text">Sheet.48</title><desc content="structured text">27</desc><text x="1.22" y="96.69" class="st2">27</text></g><g id="shape49-104" transform="translate(350.211,11.5886) rotate(90)"><title content="structured text">Sheet.49</title><path d="M0 99.96 L11.34 99.96" class="st5"/></g><g id="shape50-107" transform="translate(204.894,-48.689)"><title content="structured text">64-bit register.58</title><desc content="structured text">XNX</desc><rect x="0" y="71.6161" width="45.3543" height="28.3465" class="st1"/><text x="14.45" y="88.19" class="st2">XNX</text></g><g id="shape51-110" transform="translate(204.894,-48.689)"><title content="structured text">Sheet.51</title><path d="M0 71.62 L0 99.96" class="st4"/></g><g id="shape52-113" transform="translate(193.556,-77.0354)"><title content="structured text">64-bit register.60</title><desc content="structured text">32</desc><text x="1.22" y="96.69" class="st2">32</text></g><g id="shape53-115" transform="translate(204.894,-77.0354)"><title content="structured text">Sheet.53</title><desc content="structured text">31</desc><text x="1.22" y="96.69" class="st2">31</text></g><g id="shape54-117" transform="translate(304.857,11.5886) rotate(90)"><title content="structured text">Sheet.54</title><path d="M0 99.96 L11.34 99.96" class="st5"/></g><g id="shape56-120" transform="translate(340.957,-48.689)"><title content="structured text">64-bit register.56</title><desc content="structured text">LO</desc><rect x="0" y="71.6161" width="45.3543" height="28.3465" class="st1"/><text x="17.34" y="88.19" class="st2">LO</text></g><g id="group60-123" transform="translate(12.1386,-11.8386)"><title content="structured text">Sheet.60</title><g id="shape61-124" transform="translate(11.3386,0)"><title content="structured text">Rectangle No Fill No Fill.116</title><desc content="structured text">res0</desc><rect x="0" y="88.624" width="22.6772" height="11.3386" class="st6"/><text x="3.07" y="96.69" class="st7">RES<tspan class="st8">0</tspan></text></g><g id="shape62-128"><title content="structured text">Graphic.117</title><rect x="0" y="88.624" width="11.3386" height="11.3386" class="st9"/></g></g><g id="shape188-130" transform="translate(276.511,11.5886) rotate(90)"><title content="structured text">Sheet.188</title><path d="M0 99.96 L11.34 99.96" class="st5"/></g><g id="shape189-133" transform="translate(253.833,11.5886) rotate(90)"><title content="structured text">Sheet.189</title><path d="M0 99.96 L11.34 99.96" class="st5"/></g><g id="shape190-136" transform="translate(231.156,11.5886) rotate(90)"><title content="structured text">Sheet.190</title><path d="M0 99.96 L11.34 99.96" class="st5"/></g><g id="shape191-139" transform="translate(140.448,11.5886) rotate(90)"><title content="structured text">Sheet.191</title><path d="M0 99.96 L11.34 99.96" class="st5"/></g><g id="shape192-142" transform="translate(163.125,11.5886) rotate(90)"><title content="structured text">Sheet.192</title><path d="M0 99.96 L11.34 99.96" class="st5"/></g><g id="shape193-145" transform="translate(185.802,11.5886) rotate(90)"><title content="structured text">Sheet.193</title><path d="M0 99.96 L11.34 99.96" class="st5"/></g><g id="shape194-148" transform="translate(208.479,11.5886) rotate(90)"><title content="structured text">Sheet.194</title><path d="M0 99.96 L11.34 99.96" class="st5"/></g><g id="group57-151" transform="translate(107.099,-45.8543)"><title content="structured text">Sheet.57</title><g id="group26-152" transform="translate(-5.7454E-015,-28.3465)"><title content="structured text">Disconnect</title><g id="shape27-153" transform="translate(0.566929,0)"><title content="structured text">Sheet.27</title><rect x="0" y="94.2933" width="1.88976" height="5.66929" class="st10"/></g><g id="shape28-155" transform="translate(101.031,110.659) rotate(99.4623)"><title content="structured text">Sheet.28</title><path d="M0 99.55 C0.15 99.76 0.72 99.93 1.15 99.96 C1.58 99.99 1.86 99.88 2.34 99.64 C2.63 99.5 2.98 99.32 3.29          99.2 C4.56 98.7 5.03 99.25 5.75 99.55" class="st11"/></g><g id="shape29-158" transform="translate(99.1417,110.659) rotate(99.4623)"><title content="structured text">Sheet.29</title><path d="M0 99.55 C0.15 99.76 0.72 99.93 1.15 99.96 C1.58 99.99 1.86 99.88 2.34 99.64 C2.63 99.5 2.98 99.32 3.29          99.2 C4.56 98.7 5.03 99.25 5.75 99.55" class="st11"/></g></g><g id="group30-161"><title content="structured text">Disconnect.12</title><g id="shape31-162" transform="translate(0.566929,0)"><title content="structured text">Sheet.31</title><rect x="0" y="94.2933" width="1.88976" height="5.66929" class="st10"/></g><g id="shape32-164" transform="translate(101.031,110.659) rotate(99.4623)"><title content="structured text">Sheet.32</title><path d="M0 99.55 C0.15 99.76 0.72 99.93 1.15 99.96 C1.58 99.99 1.86 99.88 2.34 99.64 C2.63 99.5 2.98 99.32 3.29          99.2 C4.56 98.7 5.03 99.25 5.75 99.55" class="st11"/></g><g id="shape33-167" transform="translate(99.1417,110.659) rotate(99.4623)"><title content="structured text">Sheet.33</title><path d="M0 99.55 C0.15 99.76 0.72 99.93 1.15 99.96 C1.58 99.99 1.86 99.88 2.34 99.64 C2.63 99.5 2.98 99.32 3.29          99.2 C4.56 98.7 5.03 99.25 5.75 99.55" class="st11"/></g></g></g></g></svg>