<?xml version="1.0" encoding="UTF-8" standalone="no"?><!-- Fixed up by svgfix.xsl 1.4  --><!-- Generated by Microsoft Visio 11.0, SVG Export, v1.0 swo1491396741827_low res.svg ARM -->
<!DOCTYPE svg
  PUBLIC "-//W3C//DTD SVG 1.0//EN" "http://www.w3.org/TR/2001/REC-SVG-20010904/DTD/svg10.dtd">
<svg xmlns:xlink="http://www.w3.org/1999/xlink" xmlns="http://www.w3.org/2000/svg" xmlns:ev="http://www.w3.org/2001/xml-events" width="818.511" height="140.843" viewBox="0 0 613.883 105.632" xml:space="preserve" color-interpolation-filters="sRGB" class="st12" preserveAspectRatio="xMidYMid meet" zoomAndPan="magnify" version="1.0" contentScriptType="text/ecmascript" contentStyleType="text/css"><style type="text/css" xml:space="preserve"><![CDATA[
	
		.st1 {fill:#eed9b3;stroke:none;stroke-linecap:round;stroke-linejoin:round;stroke-width:0.2px}
		.st2 {stroke:#000000;stroke-linecap:butt;stroke-width:0.8px}
		.st3 {stroke:#000000;stroke-dasharray:0.25,0.5;stroke-linecap:butt;stroke-width:0.25px}
		.st4 {fill:#000000;font-family:Arial,Helvetica,sans-serif;font-size:0.666664em}
		.st5 {fill:none;stroke:none;stroke-linecap:round;stroke-linejoin:round;stroke-width:0.2px}
		.st6 {fill:none;stroke:none;stroke-linecap:butt;stroke-width:0.499999px}
		.st7 {fill:#000000;font-family:Arial,Helvetica,sans-serif;font-size:0.533318em}
		.st8 {font-size:1.25003em}
		.st9 {fill:#eed9b3;stroke:none;stroke-linecap:round;stroke-linejoin:round;stroke-width:0.2px}
		.st10 {fill:#ffffff;stroke:none;stroke-linecap:butt;stroke-width:0.5px}
		.st11 {stroke:#000000;stroke-linecap:butt;stroke-width:0.5px}
		.st12 {fill:none;fill-rule:evenodd;font-size:12px;overflow:visible;stroke-linecap:square;stroke-miterlimit:3}]]></style><g xmlns:v="http://schemas.microsoft.com/visio/2003/SVGExtensions/"><title content="structured text">ARM</title><g id="shape200-1" transform="translate(159.54,-54.3583)"><title content="structured text">64-bit register.200</title><rect x="0" y="77.2854" width="79.3701" height="28.3465" class="st1"/></g><g id="shape26-3" transform="translate(556.391,-54.3583)"><title content="structured text">64-bit register.26</title><rect x="0" y="77.2854" width="45.3543" height="28.3465" class="st1"/></g><g id="shape20-5" transform="translate(284.265,-54.3583)"><title content="structured text">64-bit register.88</title><rect x="0" y="77.2854" width="45.3543" height="28.3465" class="st1"/></g><g id="shape55-7" transform="translate(12.1386,-54.3583)"><title content="structured text">64-bit register.55</title><rect x="0" y="77.2854" width="102.047" height="28.3465" class="st1"/></g><g id="shape1-9" transform="translate(601.745,-54.3583) scale(-1,1)"><title content="structured text">64-bit register.156</title><path d="M0 77.29 L589.61 77.29 L589.61 105.63 L0 105.63" class="st2"/></g><g id="shape2-12" transform="translate(344.542,11.5886) rotate(90)"><title content="structured text">64-bit register.169</title><path d="M0 105.63 L11.34 105.63" class="st3"/></g><g id="shape3-15" transform="translate(601.745,-54.3583)"><title content="structured text">64-bit register.157</title><path d="M0 77.29 L0 105.63" class="st2"/></g><g id="shape7-18" transform="translate(420.328,-54.3583)"><title content="structured text">64-bit register.39</title><path d="M0 77.29 L0 105.63" class="st2"/></g><g id="shape8-21" transform="translate(465.682,-54.3583)"><title content="structured text">64-bit register.41</title><path d="M0 77.29 L0 105.63" class="st2"/></g><g id="shape9-24" transform="translate(511.036,-54.3583)"><title content="structured text">64-bit register.42</title><path d="M0 77.29 L0 105.63" class="st2"/></g><g id="shape10-27" transform="translate(556.391,-54.3583)"><title content="structured text">64-bit register.52</title><path d="M0 77.29 L0 105.63" class="st2"/></g><g id="shape14-30" transform="translate(525.959,11.5886) rotate(90)"><title content="structured text">64-bit register.14</title><path d="M0 105.63 L11.34 105.63" class="st3"/></g><g id="shape15-33" transform="translate(571.314,11.5886) rotate(90)"><title content="structured text">64-bit register.15</title><path d="M0 105.63 L11.34 105.63" class="st3"/></g><g id="shape16-36" transform="translate(662.022,11.5886) rotate(90)"><title content="structured text">64-bit register.16</title><path d="M0 105.63 L11.34 105.63" class="st3"/></g><g id="shape17-39" transform="translate(707.377,11.5886) rotate(90)"><title content="structured text">64-bit register.17</title><path d="M0 105.63 L11.34 105.63" class="st3"/></g><g id="shape18-42" transform="translate(12.1386,-82.7047)"><title content="structured text">64-bit register.179</title><desc content="structured text">63</desc><text x="1.22" y="102.36" class="st4">63</text></g><g id="shape19-44" transform="translate(590.406,-82.7047)"><title content="structured text">64-bit register.19</title><desc content="structured text">0</desc><text x="3.44" y="102.36" class="st4">0</text></g><g id="shape21-46" transform="translate(616.668,11.5886) rotate(90)"><title content="structured text">64-bit register.21</title><path d="M0 105.63 L11.34 105.63" class="st3"/></g><g id="shape27-49" transform="translate(511.036,-54.3583)"><title content="structured text">64-bit register.27</title><desc content="structured text">AES</desc><rect x="0" y="77.2854" width="45.3543" height="28.3465" class="st5"/><text x="14.67" y="93.86" class="st4">AES</text></g><g id="shape28-52" transform="translate(465.682,-54.3583)"><title content="structured text">64-bit register.28</title><desc content="structured text">SHA1</desc><rect x="0" y="77.2854" width="45.3543" height="28.3465" class="st5"/><text x="12.23" y="93.86" class="st4">SHA1</text></g><g id="shape29-55" transform="translate(420.328,-54.3583)"><title content="structured text">64-bit register.29</title><desc content="structured text">SHA2</desc><rect x="0" y="77.2854" width="45.3543" height="28.3465" class="st5"/><text x="12.23" y="93.86" class="st4">SHA2</text></g><g id="shape4-58" transform="translate(408.989,-82.7047)"><title content="structured text">64-bit register.4</title><desc content="structured text">16</desc><text x="1.22" y="102.36" class="st4">16</text></g><g id="shape5-60" transform="translate(420.328,-82.7047)"><title content="structured text">64-bit register.5</title><desc content="structured text">15</desc><text x="1.22" y="102.36" class="st4">15</text></g><g id="shape6-62" transform="translate(454.343,-82.7047)"><title content="structured text">64-bit register.6</title><desc content="structured text">12</desc><text x="1.22" y="102.36" class="st4">12</text></g><g id="shape22-64" transform="translate(465.682,-82.7047)"><title content="structured text">64-bit register.22</title><desc content="structured text">11</desc><text x="1.22" y="102.36" class="st4">11</text></g><g id="shape23-66" transform="translate(499.698,-82.7047)"><title content="structured text">64-bit register.23</title><desc content="structured text">8</desc><text x="3.44" y="102.36" class="st4">8</text></g><g id="shape24-68" transform="translate(511.036,-82.7047)"><title content="structured text">64-bit register.24</title><desc content="structured text">7</desc><text x="3.44" y="102.36" class="st4">7</text></g><g id="shape25-70" transform="translate(545.052,-82.7047)"><title content="structured text">64-bit register.25</title><desc content="structured text">4</desc><text x="3.44" y="102.36" class="st4">4</text></g><g id="shape30-72" transform="translate(556.391,-82.7047)"><title content="structured text">64-bit register.30</title><desc content="structured text">3</desc><text x="3.44" y="102.36" class="st4">3</text></g><g id="shape39-74" transform="translate(374.973,-54.3583)"><title content="structured text">Sheet.39</title><path d="M0 77.29 L0 105.63" class="st2"/></g><g id="shape40-77" transform="translate(374.973,-54.3583)"><title content="structured text">64-bit register.40</title><desc content="structured text">CRC32</desc><rect x="0" y="77.2854" width="45.3543" height="28.3465" class="st5"/><text x="9.56" y="93.86" class="st4">CRC32</text></g><g id="shape41-80" transform="translate(363.635,-82.7047)"><title content="structured text">Sheet.41</title><desc content="structured text">20</desc><text x="1.22" y="102.36" class="st4">20</text></g><g id="shape42-82" transform="translate(374.973,-82.7047)"><title content="structured text">Sheet.42</title><desc content="structured text">19</desc><text x="1.22" y="102.36" class="st4">19</text></g><g id="shape43-84" transform="translate(480.605,11.5886) rotate(90)"><title content="structured text">64-bit register.43</title><path d="M0 105.63 L11.34 105.63" class="st3"/></g><g id="shape45-87" transform="translate(329.619,-54.3583)"><title content="structured text">Sheet.45</title><path d="M0 77.29 L0 105.63" class="st2"/></g><g id="shape46-90" transform="translate(329.619,-82.7047)"><title content="structured text">Sheet.46</title><desc content="structured text">23</desc><text x="1.22" y="102.36" class="st4">23</text></g><g id="shape44-92" transform="translate(329.619,-54.3583)"><title content="structured text">64-bit register.44</title><desc content="structured text">Atomic</desc><rect x="0" y="77.2854" width="45.3543" height="28.3465" class="st5"/><text x="10.45" y="93.86" class="st4">Atomic</text></g><g id="shape48-95" transform="translate(284.265,-54.3583)"><title content="structured text">Sheet.48</title><path d="M0 77.29 L0 105.63" class="st2"/></g><g id="shape49-98" transform="translate(284.265,-82.7047)"><title content="structured text">Sheet.49</title><desc content="structured text">27</desc><text x="1.22" y="102.36" class="st4">27</text></g><g id="shape47-100" transform="translate(318.28,-82.7047)"><title content="structured text">Sheet.47</title><desc content="structured text">24</desc><text x="1.22" y="102.36" class="st4">24</text></g><g id="shape50-102" transform="translate(272.926,-82.7047)"><title content="structured text">Sheet.50</title><desc content="structured text">28</desc><text x="1.22" y="102.36" class="st4">28</text></g><g id="shape51-104" transform="translate(238.655,-54.3583)"><title content="structured text">Sheet.51</title><path d="M0 77.29 L0 105.63" class="st2"/></g><g id="shape52-107" transform="translate(238.91,-82.7047)"><title content="structured text">Sheet.52</title><desc content="structured text">31</desc><text x="1.22" y="102.36" class="st4">31</text></g><g id="shape53-109" transform="translate(238.91,-54.3583)"><title content="structured text">64-bit register.53</title><desc content="structured text">RDM</desc><rect x="0" y="77.2854" width="45.3543" height="28.3465" class="st5"/><text x="13.57" y="93.86" class="st4">RDM</text></g><g id="shape54-112" transform="translate(227.572,-82.7047)"><title content="structured text">Sheet.54</title><desc content="structured text">32</desc><text x="1.22" y="102.36" class="st4">32</text></g><g id="group58-114" transform="translate(12.1386,-11.8386)"><title content="structured text">Sheet.58</title><g id="shape59-115" transform="translate(11.3386,0)"><title content="structured text">Rectangle No Fill No Fill.116</title><desc content="structured text">res0</desc><rect x="0" y="94.2933" width="22.6772" height="11.3386" class="st6"/><text x="3.07" y="102.36" class="st7">RES<tspan class="st8">0</tspan></text></g><g id="shape60-119"><title content="structured text">Graphic.117</title><rect x="0" y="94.2933" width="11.3386" height="11.3386" class="st9"/></g></g><g id="shape189-121" transform="translate(117.77,11.5886) rotate(90)"><title content="structured text">64-bit register.189</title><path d="M0 105.63 L11.34 105.63" class="st3"/></g><g id="shape190-124" transform="translate(146.117,11.5886) rotate(90)"><title content="structured text">64-bit register.190</title><path d="M0 105.63 L11.34 105.63" class="st3"/></g><g id="shape191-127" transform="translate(168.794,11.5886) rotate(90)"><title content="structured text">64-bit register.191</title><path d="M0 105.63 L11.34 105.63" class="st3"/></g><g id="shape192-130" transform="translate(191.471,11.5886) rotate(90)"><title content="structured text">64-bit register.192</title><path d="M0 105.63 L11.34 105.63" class="st3"/></g><g id="shape193-133" transform="translate(219.818,11.5886) rotate(90)"><title content="structured text">64-bit register.193</title><path d="M0 105.63 L11.34 105.63" class="st3"/></g><g id="shape194-136" transform="translate(265.172,11.5886) rotate(90)"><title content="structured text">64-bit register.194</title><path d="M0 105.63 L11.34 105.63" class="st3"/></g><g id="shape195-139" transform="translate(293.519,11.5886) rotate(90)"><title content="structured text">64-bit register.195</title><path d="M0 105.63 L11.34 105.63" class="st3"/></g><g id="shape196-142" transform="translate(316.196,11.5886) rotate(90)"><title content="structured text">64-bit register.196</title><path d="M0 105.63 L11.34 105.63" class="st3"/></g><g id="shape197-145" transform="translate(389.896,11.5886) rotate(90)"><title content="structured text">64-bit register.197</title><path d="M0 105.63 L11.34 105.63" class="st3"/></g><g id="shape198-148" transform="translate(435.251,11.5886) rotate(90)"><title content="structured text">64-bit register.198</title><path d="M0 105.63 L11.34 105.63" class="st3"/></g><g id="group199-151" transform="translate(60.3276,-51.5236)"><title content="structured text">Sheet.199</title><g id="group31-152"><title content="structured text">Disconnect</title><g id="shape32-153" transform="translate(0.566929,0)"><title content="structured text">Sheet.32</title><rect x="0" y="99.9626" width="1.88976" height="5.66929" class="st10"/></g><g id="shape33-155" transform="translate(106.624,117.261) rotate(99.4623)"><title content="structured text">Sheet.33</title><path d="M0 105.22 C0.15 105.42 0.72 105.59 1.15 105.63 C1.58 105.66 1.86 105.55 2.34 105.31 C2.63 105.17 2.98          104.99 3.29 104.87 C4.56 104.37 5.03 104.92 5.75 105.22" class="st11"/></g><g id="shape34-158" transform="translate(104.734,117.261) rotate(99.4623)"><title content="structured text">Sheet.34</title><path d="M0 105.22 C0.15 105.42 0.72 105.59 1.15 105.63 C1.58 105.66 1.86 105.55 2.34 105.31 C2.63 105.17 2.98          104.99 3.29 104.87 C4.56 104.37 5.03 104.92 5.75 105.22" class="st11"/></g></g><g id="group35-161" transform="translate(-1.4988E-015,-28.3465)"><title content="structured text">Disconnect.35</title><g id="shape36-162" transform="translate(0.566929,0)"><title content="structured text">Sheet.36</title><rect x="0" y="99.9626" width="1.88976" height="5.66929" class="st10"/></g><g id="shape37-164" transform="translate(106.624,117.261) rotate(99.4623)"><title content="structured text">Sheet.37</title><path d="M0 105.22 C0.15 105.42 0.72 105.59 1.15 105.63 C1.58 105.66 1.86 105.55 2.34 105.31 C2.63 105.17 2.98          104.99 3.29 104.87 C4.56 104.37 5.03 104.92 5.75 105.22" class="st11"/></g><g id="shape38-167" transform="translate(104.734,117.261) rotate(99.4623)"><title content="structured text">Sheet.38</title><path d="M0 105.22 C0.15 105.42 0.72 105.59 1.15 105.63 C1.58 105.66 1.86 105.55 2.34 105.31 C2.63 105.17 2.98          104.99 3.29 104.87 C4.56 104.37 5.03 104.92 5.75 105.22" class="st11"/></g></g></g><g id="shape329-170" transform="translate(159.54,-82.7047)"><title content="structured text">Sheet.329</title><desc content="structured text">43</desc><text x="1.22" y="102.36" class="st4">43</text></g><g id="shape330-172" transform="translate(148.202,-82.7047)"><title content="structured text">Sheet.330</title><desc content="structured text">44</desc><text x="1.22" y="102.36" class="st4">44</text></g><g id="shape331-174" transform="translate(114.186,-82.7047)"><title content="structured text">Sheet.331</title><desc content="structured text">47</desc><text x="1.22" y="102.36" class="st4">47</text></g><g id="shape332-176" transform="translate(102.847,-82.7047)"><title content="structured text">Sheet.332</title><desc content="structured text">48</desc><text x="1.22" y="102.36" class="st4">48</text></g><g id="group333-178" transform="translate(197.808,-51.5236)"><title content="structured text">Sheet.333</title><g id="group334-179"><title content="structured text">Disconnect</title><g id="shape335-180" transform="translate(0.566929,0)"><title content="structured text">Sheet.335</title><rect x="0" y="99.9626" width="1.88976" height="5.66929" class="st10"/></g><g id="shape336-182" transform="translate(106.624,117.261) rotate(99.4623)"><title content="structured text">Sheet.336</title><path d="M0 105.22 C0.15 105.42 0.72 105.59 1.15 105.63 C1.58 105.66 1.86 105.55 2.34 105.31 C2.63 105.17 2.98          104.99 3.29 104.87 C4.56 104.37 5.03 104.92 5.75 105.22" class="st11"/></g><g id="shape337-185" transform="translate(104.734,117.261) rotate(99.4623)"><title content="structured text">Sheet.337</title><path d="M0 105.22 C0.15 105.42 0.72 105.59 1.15 105.63 C1.58 105.66 1.86 105.55 2.34 105.31 C2.63 105.17 2.98          104.99 3.29 104.87 C4.56 104.37 5.03 104.92 5.75 105.22" class="st11"/></g></g><g id="group338-188" transform="translate(-1.4988E-015,-28.3465)"><title content="structured text">Disconnect.35</title><g id="shape339-189" transform="translate(0.566929,0)"><title content="structured text">Sheet.339</title><rect x="0" y="99.9626" width="1.88976" height="5.66929" class="st10"/></g><g id="shape340-191" transform="translate(106.624,117.261) rotate(99.4623)"><title content="structured text">Sheet.340</title><path d="M0 105.22 C0.15 105.42 0.72 105.59 1.15 105.63 C1.58 105.66 1.86 105.55 2.34 105.31 C2.63 105.17 2.98          104.99 3.29 104.87 C4.56 104.37 5.03 104.92 5.75 105.22" class="st11"/></g><g id="shape341-194" transform="translate(104.734,117.261) rotate(99.4623)"><title content="structured text">Sheet.341</title><path d="M0 105.22 C0.15 105.42 0.72 105.59 1.15 105.63 C1.58 105.66 1.86 105.55 2.34 105.31 C2.63 105.17 2.98          104.99 3.29 104.87 C4.56 104.37 5.03 104.92 5.75 105.22" class="st11"/></g></g></g><g id="shape342-197" transform="translate(159.54,-54.3583)"><title content="structured text">Sheet.342</title><path d="M0 77.29 L0 105.63" class="st2"/></g><g id="shape343-200" transform="translate(114.186,-54.3583)"><title content="structured text">Sheet.343</title><path d="M0 77.29 L0 105.63" class="st2"/></g><g id="shape344-203" transform="translate(114.186,-54.3583)"><title content="structured text">64-bit register.344</title><desc content="structured text">DP</desc><rect x="0" y="77.2854" width="45.3543" height="28.3465" class="st5"/><text x="17.12" y="93.86" class="st4">DP</text></g></g></svg>