<?xml version="1.0" encoding="UTF-8" standalone="no"?><!-- Fixed up by svgfix.xsl 1.4  --><!-- Generated by Microsoft Visio, SVG Export ERR0MISC0 bit assignments.svg ARM -->
<!DOCTYPE svg
  PUBLIC "-//W3C//DTD SVG 1.0//EN" "http://www.w3.org/TR/2001/REC-SVG-20010904/DTD/svg10.dtd">
<svg xmlns:xlink="http://www.w3.org/1999/xlink" xmlns="http://www.w3.org/2000/svg" xmlns:ev="http://www.w3.org/2001/xml-events" width="758.039" height="155.961" viewBox="0 0 568.529 116.97" xml:space="preserve" color-interpolation-filters="sRGB" class="st14" preserveAspectRatio="xMidYMid meet" zoomAndPan="magnify" version="1.1" contentScriptType="application/ecmascript" contentStyleType="text/css"><style type="text/css" xml:space="preserve"><![CDATA[
	
		.st1 {fill:#eed9b3;stroke:none;stroke-linecap:round;stroke-linejoin:round;stroke-width:0.2px}
		.st2 {stroke:#000000;stroke-linecap:butt;stroke-width:0.8px}
		.st3 {stroke:#000000;stroke-dasharray:0.25,0.5;stroke-linecap:butt;stroke-width:0.25px}
		.st4 {fill:#000000;font-family:Arial,Helvetica,sans-serif;font-size:0.666664em}
		.st5 {fill:none;stroke:none;stroke-linecap:butt;stroke-width:0.499999px}
		.st6 {fill:#000000;font-family:Arial,Helvetica,sans-serif;font-size:0.533318em}
		.st7 {font-size:1.25003em}
		.st8 {fill:none;stroke:none;stroke-linecap:butt;stroke-width:0.5px}
		.st9 {fill:none;stroke:none;stroke-width:1px}
		.st10 {fill:none}
		.st11 {stroke:#000000;stroke-linecap:butt;stroke-width:0.499999px}
		.st12 {fill:#ffffff;stroke:none;stroke-linecap:butt;stroke-width:0.5px}
		.st13 {stroke:#000000;stroke-linecap:butt;stroke-width:0.5px}
		.st14 {fill:none;fill-rule:evenodd;font-size:12px;overflow:visible;stroke-linecap:square;stroke-miterlimit:3}]]></style><g xmlns:v="http://schemas.microsoft.com/visio/2003/SVGExtensions/"><title>ARM</title><g id="shape2-1" transform="translate(12.1386,-65.5391)"><title>Graphic.102</title><rect x="0" y="88.7369" width="102.047" height="28.2335" class="st1"/></g><g id="shape3-3" transform="translate(284.265,-65.8098)"><title>Graphic.1</title><rect x="0" y="88.7369" width="22.6772" height="28.2335" class="st1"/></g><g id="shape5-5" transform="translate(556.391,-65.6968) scale(-1,1)"><title>64-bit register.156</title><path d="M0 88.62 L544.25 88.62 L544.25 116.97 L0 116.97" class="st2"/></g><g id="shape6-8" transform="translate(231.156,11.5886) rotate(90)"><title>64-bit register.169</title><path d="M0 116.97 L11.34 116.97" class="st3"/></g><g id="shape7-11" transform="translate(556.391,-65.6968)"><title>64-bit register.157</title><path d="M0 88.62 L0 116.97" class="st2"/></g><g id="shape8-14" transform="translate(559.975,11.5886) rotate(90)"><title>64-bit register.15</title><path d="M0 116.97 L11.34 116.97" class="st3"/></g><g id="shape9-17" transform="translate(628.007,11.5886) rotate(90)"><title>64-bit register.16</title><path d="M0 116.97 L11.34 116.97" class="st3"/></g><g id="shape10-20" transform="translate(673.361,11.5886) rotate(90)"><title>64-bit register.17</title><path d="M0 116.97 L11.34 116.97" class="st3"/></g><g id="shape11-23" transform="translate(12.1386,-94.0433)"><title>64-bit register.179</title><desc>63</desc><text x="1.22" y="113.7" class="st4">63</text></g><g id="shape12-25" transform="translate(545.052,-94.0433)"><title>64-bit register.19</title><desc>0</desc><text x="3.44" y="113.7" class="st4">0</text></g><g id="shape13-27" transform="translate(582.652,11.5886) rotate(90)"><title>64-bit register.29</title><path d="M0 116.97 L11.34 116.97" class="st3"/></g><g id="shape14-30" transform="translate(238.91,-94.0433)"><title>Bit31</title><desc>31</desc><text x="1.22" y="113.7" class="st4">31</text></g><g id="group17-32" transform="translate(12.1386,-11.8386)"><title>Sheet.17</title><g id="shape18-33" transform="translate(11.3386,1.42109E-14)"><title>Rectangle No Fill No Fill.116</title><desc>res0</desc><rect x="0" y="105.632" width="22.6772" height="11.3386" class="st5"/><text x="3.07" y="113.7" class="st6">RES<tspan class="st7">0</tspan></text></g><g id="shape19-37"><title>Graphic.117</title><rect x="0" y="105.632" width="11.3386" height="11.3386" class="st1"/></g></g><g id="shape32-39" transform="translate(511.036,-94.0433)"><title>64-bit register.67</title><desc>3</desc><text x="3.44" y="113.7" class="st4">3</text></g><g id="shape33-41" transform="translate(499.698,-94.0433)"><title>64-bit register.68</title><desc>4</desc><text x="3.44" y="113.7" class="st4">4</text></g><g id="shape34-43" transform="translate(488.359,-94.0433)"><title>64-bit register.69</title><desc>5</desc><text x="3.44" y="113.7" class="st4">5</text></g><g id="shape35-45" transform="translate(477.02,-94.0433)"><title>64-bit register.70</title><desc>6</desc><text x="3.44" y="113.7" class="st4">6</text></g><g id="shape36-47" transform="translate(374.973,-94.0433)"><title>64-bit register.71</title><desc>19</desc><text x="1.22" y="113.7" class="st4">19</text></g><g id="shape37-49" transform="translate(386.312,-94.0433)"><title>64-bit register.72</title><desc>18</desc><text x="1.22" y="113.7" class="st4">18</text></g><g id="shape38-51" transform="translate(284.265,-94.0433)"><title>64-bit register.73</title><desc>27</desc><text x="1.22" y="113.7" class="st4">27</text></g><g id="shape39-53" transform="translate(227.572,-94.0433)"><title>Bit31.74</title><desc>32</desc><text x="1.22" y="113.7" class="st4">32</text></g><g id="shape40-55" transform="translate(114.186,-94.0433)"><title>Bit31.75</title><desc>47</desc><text x="1.22" y="113.7" class="st4">47</text></g><g id="shape41-57" transform="translate(102.847,-94.0433)"><title>Bit31.76</title><desc>48</desc><text x="1.22" y="113.7" class="st4">48</text></g><g id="shape67-59" transform="translate(272.926,-94.0433)"><title>64-bit register.103</title><desc>28</desc><text x="1.22" y="113.7" class="st4">28</text></g><g id="shape68-61" transform="translate(238.91,-65.6968)"><title>Sheet.68</title><desc>WAY</desc><rect x="0" y="88.624" width="45.3543" height="28.3465" class="st8"/><text x="13.57" y="105.2" class="st4">WAY</text></g><g id="shape66-64" transform="translate(511.036,-65.6968)"><title>Sheet.66</title><desc>UNIT</desc><rect x="0" y="88.624" width="45.3543" height="28.3465" class="st8"/><text x="13.35" y="105.2" class="st4">UNIT</text></g><g id="shape1-67" transform="translate(386.312,-65.6968)"><title>Sheet.1</title><desc>INDEX</desc><rect x="0" y="88.624" width="102.047" height="28.3465" class="st8"/><text x="38.8" y="105.2" class="st4">INDEX</text></g><g id="group22-70" transform="translate(511.036,-65.6968)"><title>Sheet.22</title><g id="shape198-71"><title>Sheet.198</title><path d="M0 88.62 L0 116.97 L0 88.62 Z" class="st9"/></g><g id="shape199-73"><title>Sheet.199</title><path d="M0 88.62 L0 116.97 L0 88.62 Z" class="st10"/><path d="M0 88.62 L0 116.97" class="st2"/></g></g><g id="group200-76" transform="translate(499.698,-57.1893)"><title>Sheet.200</title><g id="shape201-77"><title>Sheet.201</title><path d="M0 111.3 L0 116.97 L11.34 116.97 L0 111.3 Z" class="st9"/></g><g id="shape202-79"><title>Sheet.202</title><path d="M0 111.3 L0 116.97 L11.34 116.97 L0 111.3 Z" class="st10"/><path d="M0 111.3 L0 116.97 L11.34 116.97" class="st11"/></g></g><g id="shape203-82" transform="translate(511.036,-51.52)"><title>Sheet.203</title><desc>ARRAY</desc><rect x="0" y="105.632" width="34.0157" height="11.3386" class="st8"/><text x="2" y="113.7" class="st4">ARRAY</text></g><g id="shape204-85" transform="translate(537.298,11.5886) rotate(90)"><title>64-bit register.204</title><path d="M0 116.97 L11.34 116.97" class="st3"/></g><g id="group205-88" transform="translate(488.643,-65.6968)"><title>Sheet.205</title><g id="shape206-89"><title>Sheet.206</title><path d="M0 88.62 L0 116.97 L0 88.62 Z" class="st9"/></g><g id="shape207-91"><title>Sheet.207</title><path d="M0 88.62 L0 116.97 L0 88.62 Z" class="st10"/><path d="M0 88.62 L0 116.97" class="st2"/></g></g><g id="group208-94" transform="translate(386.312,-65.6968)"><title>Sheet.208</title><g id="shape209-95"><title>Sheet.209</title><path d="M0 88.62 L0 116.97 L0 88.62 Z" class="st9"/></g><g id="shape210-97"><title>Sheet.210</title><path d="M0 88.62 L0 116.97 L0 88.62 Z" class="st10"/><path d="M0 88.62 L0 116.97" class="st2"/></g></g><g id="shape211-100" transform="translate(340.957,-94.0433)"><title>64-bit register.211</title><desc>22</desc><text x="1.22" y="113.7" class="st4">22</text></g><g id="shape212-102" transform="translate(491.944,11.5886) rotate(90)"><title>64-bit register.212</title><path d="M0 116.97 L11.34 116.97" class="st3"/></g><g id="group213-105" transform="translate(435.918,-62.5915)"><title>Sheet.213</title><g id="group58-106" transform="translate(-1.4988E-15,-28.3465)"><title>Disconnect.93</title><g id="shape59-107" transform="translate(0.566929,1.42109E-14)"><title>Sheet.59</title><rect x="0" y="111.301" width="1.88976" height="5.66929" class="st12"/></g><g id="shape60-109" transform="translate(117.808,130.463) rotate(99.4623)"><title>Sheet.60</title><path d="M0 116.56 C0.15 116.76 0.72 116.93 1.15 116.96 C1.58 117 1.86 116.89 2.34 116.65 C2.63 116.51 2.98 116.33          3.29 116.2 C4.56 115.7 5.03 116.26 5.75 116.56" class="st13"/></g><g id="shape61-112" transform="translate(115.918,130.463) rotate(99.4623)"><title>Sheet.61</title><path d="M0 116.56 C0.15 116.76 0.72 116.93 1.15 116.96 C1.58 117 1.86 116.89 2.34 116.65 C2.63 116.51 2.98 116.33          3.29 116.2 C4.56 115.7 5.03 116.26 5.75 116.56" class="st13"/></g></g><g id="group62-115"><title>Disconnect.97</title><g id="shape63-116" transform="translate(0.566929,1.42109E-14)"><title>Sheet.63</title><rect x="0" y="111.301" width="1.88976" height="5.66929" class="st12"/></g><g id="shape64-118" transform="translate(117.808,130.463) rotate(99.4623)"><title>Sheet.64</title><path d="M0 116.56 C0.15 116.76 0.72 116.93 1.15 116.96 C1.58 117 1.86 116.89 2.34 116.65 C2.63 116.51 2.98 116.33          3.29 116.2 C4.56 115.7 5.03 116.26 5.75 116.56" class="st13"/></g><g id="shape65-121" transform="translate(115.918,130.463) rotate(99.4623)"><title>Sheet.65</title><path d="M0 116.56 C0.15 116.76 0.72 116.93 1.15 116.96 C1.58 117 1.86 116.89 2.34 116.65 C2.63 116.51 2.98 116.33          3.29 116.2 C4.56 115.7 5.03 116.26 5.75 116.56" class="st13"/></g></g></g><g id="group23-124" transform="translate(340.957,-65.6968)"><title>Sheet.23</title><g id="shape24-125"><title>Sheet.24</title><path d="M0 88.62 L0 116.97 L0 88.62 Z" class="st9"/></g><g id="shape25-127"><title>Sheet.25</title><path d="M0 88.62 L0 116.97 L0 88.62 Z" class="st10"/><path d="M0 88.62 L0 116.97" class="st2"/></g></g><g id="group26-130" transform="translate(363.635,-57.1929)"><title>Sheet.26</title><g id="shape27-131"><title>Sheet.27</title><path d="M0 111.3 L0 116.97 L11.34 116.97 L0 111.3 Z" class="st9"/></g><g id="shape28-133"><title>Sheet.28</title><path d="M0 111.3 L0 116.97 L11.34 116.97 L0 111.3 Z" class="st10"/><path d="M0 111.3 L0 116.97 L11.34 116.97" class="st11"/></g></g><g id="shape29-136" transform="translate(374.973,-51.5236)"><title>Sheet.29</title><desc>SUBARRAY</desc><rect x="0" y="105.632" width="48.189" height="11.3386" class="st8"/><text x="2" y="113.7" class="st4">SUBARRAY</text></g><g id="shape30-139" transform="translate(329.619,-94.0433)"><title>64-bit register.30</title><desc>23</desc><text x="1.22" y="113.7" class="st4">23</text></g><g id="shape214-141" transform="translate(318.28,-94.0433)"><title>64-bit register.214</title><desc>24</desc><text x="1.22" y="113.7" class="st4">24</text></g><g id="group15-143" transform="translate(318.28,-65.6968)"><title>Sheet.15</title><g id="shape215-144"><title>Sheet.215</title><path d="M0 88.62 L0 116.97 L0 88.62 Z" class="st9"/></g><g id="shape216-146"><title>Sheet.216</title><path d="M0 88.62 L0 116.97 L0 88.62 Z" class="st10"/><path d="M0 88.62 L0 116.97" class="st2"/></g></g><g id="shape217-149" transform="translate(446.589,11.5886) rotate(90)"><title>64-bit register.217</title><path d="M0 116.97 L11.34 116.97" class="st3"/></g><g id="group218-152" transform="translate(329.619,-45.8543)"><title>Sheet.218</title><g id="shape219-153"><title>Sheet.219</title><path d="M0 99.96 L0 116.97 L11.34 116.97 L0 99.96 Z" class="st9"/></g><g id="shape220-155"><title>Sheet.220</title><path d="M0 99.96 L0 116.97 L11.34 116.97 L0 99.96 Z" class="st10"/><path d="M0 99.96 L0 116.97 L11.34 116.97" class="st11"/></g></g><g id="shape221-158" transform="translate(340.957,-40.185)"><title>Sheet.221</title><desc>BANK</desc><rect x="0" y="105.632" width="34.0157" height="11.3386" class="st8"/><text x="2" y="113.7" class="st4">BANK</text></g><g id="shape222-161" transform="translate(306.942,-94.0433)"><title>64-bit register.222</title><desc>25</desc><text x="1.22" y="113.7" class="st4">25</text></g><g id="group223-163" transform="translate(306.942,-65.6968)"><title>Sheet.223</title><g id="shape224-164"><title>Sheet.224</title><path d="M0 88.62 L0 116.97 L0 88.62 Z" class="st9"/></g><g id="shape225-166"><title>Sheet.225</title><path d="M0 88.62 L0 116.97 L0 88.62 Z" class="st10"/><path d="M0 88.62 L0 116.97" class="st2"/></g></g><g id="group226-169" transform="translate(312.611,-34.5157)"><title>Sheet.226</title><g id="shape227-170"><title>Sheet.227</title><path d="M0 88.62 L0 116.97 L28.35 116.97 L0 88.62 Z" class="st9"/></g><g id="shape228-172"><title>Sheet.228</title><path d="M0 88.62 L0 116.97 L28.35 116.97 L0 88.62 Z" class="st10"/><path d="M0 88.62 L0 116.97 L28.35 116.97" class="st11"/></g></g><g id="shape229-175" transform="translate(340.957,-28.8464)"><title>Sheet.229</title><desc>SUBBANK</desc><rect x="0" y="105.632" width="42.5197" height="11.3386" class="st8"/><text x="2" y="113.7" class="st4">SUBBANK</text></g><g id="shape42-178" transform="translate(401.235,11.5886) rotate(90)"><title>64-bit register.42</title><path d="M0 116.97 L11.34 116.97" class="st3"/></g><g id="group43-181" transform="translate(284.548,-65.6968)"><title>Sheet.43</title><g id="shape44-182"><title>Sheet.44</title><path d="M0 88.62 L0 116.97 L0 88.62 Z" class="st9"/></g><g id="shape45-184"><title>Sheet.45</title><path d="M0 88.62 L0 116.97 L0 88.62 Z" class="st10"/><path d="M0 88.62 L0 116.97" class="st2"/></g></g><g id="shape21-187" transform="translate(355.881,11.5886) rotate(90)"><title>64-bit register.21</title><path d="M0 116.97 L11.34 116.97" class="st3"/></g><g id="group46-190" transform="translate(238.91,-65.6968)"><title>Sheet.46</title><g id="shape47-191"><title>Sheet.47</title><path d="M0 88.62 L0 116.97 L0 88.62 Z" class="st9"/></g><g id="shape48-193"><title>Sheet.48</title><path d="M0 88.62 L0 116.97 L0 88.62 Z" class="st10"/><path d="M0 88.62 L0 116.97" class="st2"/></g></g><g id="group49-196" transform="translate(187.887,-65.6968)"><title>Sheet.49</title><g id="shape50-197"><title>Sheet.50</title><path d="M0 88.62 L0 116.97 L0 88.62 Z" class="st9"/></g><g id="shape51-199"><title>Sheet.51</title><path d="M0 88.62 L0 116.97 L0 88.62 Z" class="st10"/><path d="M0 88.62 L0 116.97" class="st2"/></g></g><g id="shape52-202" transform="translate(187.887,-94.0433)"><title>Bit31.52</title><desc>38</desc><text x="1.22" y="113.7" class="st4">38</text></g><g id="shape53-204" transform="translate(327.534,11.5886) rotate(90)"><title>64-bit register.53</title><path d="M0 116.97 L11.34 116.97" class="st3"/></g><g id="shape54-207" transform="translate(265.172,11.5886) rotate(90)"><title>64-bit register.54</title><path d="M0 116.97 L11.34 116.97" class="st3"/></g><g id="group55-210" transform="translate(211.981,-62.8622)"><title>Sheet.55</title><g id="group56-211" transform="translate(-1.4988E-15,-28.3465)"><title>Disconnect.93</title><g id="shape57-212" transform="translate(0.566929,1.42109E-14)"><title>Sheet.57</title><rect x="0" y="111.301" width="1.88976" height="5.66929" class="st12"/></g><g id="shape230-214" transform="translate(117.808,130.463) rotate(99.4623)"><title>Sheet.230</title><path d="M0 116.56 C0.15 116.76 0.72 116.93 1.15 116.96 C1.58 117 1.86 116.89 2.34 116.65 C2.63 116.51 2.98 116.33          3.29 116.2 C4.56 115.7 5.03 116.26 5.75 116.56" class="st13"/></g><g id="shape231-217" transform="translate(115.918,130.463) rotate(99.4623)"><title>Sheet.231</title><path d="M0 116.56 C0.15 116.76 0.72 116.93 1.15 116.96 C1.58 117 1.86 116.89 2.34 116.65 C2.63 116.51 2.98 116.33          3.29 116.2 C4.56 115.7 5.03 116.26 5.75 116.56" class="st13"/></g></g><g id="group232-220"><title>Disconnect.97</title><g id="shape233-221" transform="translate(0.566929,1.42109E-14)"><title>Sheet.233</title><rect x="0" y="111.301" width="1.88976" height="5.66929" class="st12"/></g><g id="shape234-223" transform="translate(117.808,130.463) rotate(99.4623)"><title>Sheet.234</title><path d="M0 116.56 C0.15 116.76 0.72 116.93 1.15 116.96 C1.58 117 1.86 116.89 2.34 116.65 C2.63 116.51 2.98 116.33          3.29 116.2 C4.56 115.7 5.03 116.26 5.75 116.56" class="st13"/></g><g id="shape235-226" transform="translate(115.918,130.463) rotate(99.4623)"><title>Sheet.235</title><path d="M0 116.56 C0.15 116.76 0.72 116.93 1.15 116.96 C1.58 117 1.86 116.89 2.34 116.65 C2.63 116.51 2.98 116.33          3.29 116.2 C4.56 115.7 5.03 116.26 5.75 116.56" class="st13"/></g></g></g><g id="shape236-229" transform="translate(187.887,-65.6968)"><title>Sheet.236</title><desc>CECR</desc><rect x="0" y="88.624" width="51.0236" height="28.3465" class="st8"/><text x="14.18" y="105.2" class="st4">CECR</text></g><g id="shape237-232" transform="translate(176.548,-94.0433)"><title>Bit31.237</title><desc>39</desc><text x="1.22" y="113.7" class="st4">39</text></g><g id="group238-234" transform="translate(176.548,-65.6968)"><title>Sheet.238</title><g id="shape239-235"><title>Sheet.239</title><path d="M0 88.62 L0 116.97 L0 88.62 Z" class="st9"/></g><g id="shape240-237"><title>Sheet.240</title><path d="M0 88.62 L0 116.97 L0 88.62 Z" class="st10"/><path d="M0 88.62 L0 116.97" class="st2"/></g></g><g id="shape241-240" transform="translate(293.518,11.5886) rotate(90)"><title>64-bit register.241</title><path d="M0 116.97 L11.34 116.97" class="st3"/></g><g id="shape242-243" transform="translate(165.209,-94.0433)"><title>Bit31.242</title><desc>40</desc><text x="1.22" y="113.7" class="st4">40</text></g><g id="group243-245" transform="translate(125.524,-65.6968)"><title>Sheet.243</title><g id="shape244-246"><title>Sheet.244</title><path d="M0 88.62 L0 116.97 L0 88.62 Z" class="st9"/></g><g id="shape245-248"><title>Sheet.245</title><path d="M0 88.62 L0 116.97 L0 88.62 Z" class="st10"/><path d="M0 88.62 L0 116.97" class="st2"/></g></g><g id="shape246-251" transform="translate(125.524,-94.0433)"><title>Bit31.246</title><desc>46</desc><text x="1.22" y="113.7" class="st4">46</text></g><g id="group247-253" transform="translate(114.186,-65.6968)"><title>Sheet.247</title><g id="shape248-254"><title>Sheet.248</title><path d="M0 88.62 L0 116.97 L0 88.62 Z" class="st9"/></g><g id="shape249-256"><title>Sheet.249</title><path d="M0 88.62 L0 116.97 L0 88.62 Z" class="st10"/><path d="M0 88.62 L0 116.97" class="st2"/></g></g><g id="shape250-259" transform="translate(202.81,11.5886) rotate(90)"><title>64-bit register.250</title><path d="M0 116.97 L11.34 116.97" class="st3"/></g><g id="shape251-262" transform="translate(180.133,11.5886) rotate(90)"><title>64-bit register.251</title><path d="M0 116.97 L11.34 116.97" class="st3"/></g><g id="shape252-265" transform="translate(157.456,11.5886) rotate(90)"><title>64-bit register.252</title><path d="M0 116.97 L11.34 116.97" class="st3"/></g><g id="shape253-268" transform="translate(129.109,11.5886) rotate(90)"><title>64-bit register.253</title><path d="M0 116.97 L11.34 116.97" class="st3"/></g><g id="group254-271" transform="translate(149.311,-62.8622)"><title>Sheet.254</title><g id="group255-272" transform="translate(-1.4988E-15,-28.3465)"><title>Disconnect.93</title><g id="shape256-273" transform="translate(0.566929,1.42109E-14)"><title>Sheet.256</title><rect x="0" y="111.301" width="1.88976" height="5.66929" class="st12"/></g><g id="shape257-275" transform="translate(117.808,130.463) rotate(99.4623)"><title>Sheet.257</title><path d="M0 116.56 C0.15 116.76 0.72 116.93 1.15 116.96 C1.58 117 1.86 116.89 2.34 116.65 C2.63 116.51 2.98 116.33          3.29 116.2 C4.56 115.7 5.03 116.26 5.75 116.56" class="st13"/></g><g id="shape258-278" transform="translate(115.918,130.463) rotate(99.4623)"><title>Sheet.258</title><path d="M0 116.56 C0.15 116.76 0.72 116.93 1.15 116.96 C1.58 117 1.86 116.89 2.34 116.65 C2.63 116.51 2.98 116.33          3.29 116.2 C4.56 115.7 5.03 116.26 5.75 116.56" class="st13"/></g></g><g id="group259-281"><title>Disconnect.97</title><g id="shape260-282" transform="translate(0.566929,1.42109E-14)"><title>Sheet.260</title><rect x="0" y="111.301" width="1.88976" height="5.66929" class="st12"/></g><g id="shape261-284" transform="translate(117.808,130.463) rotate(99.4623)"><title>Sheet.261</title><path d="M0 116.56 C0.15 116.76 0.72 116.93 1.15 116.96 C1.58 117 1.86 116.89 2.34 116.65 C2.63 116.51 2.98 116.33          3.29 116.2 C4.56 115.7 5.03 116.26 5.75 116.56" class="st13"/></g><g id="shape262-287" transform="translate(115.918,130.463) rotate(99.4623)"><title>Sheet.262</title><path d="M0 116.56 C0.15 116.76 0.72 116.93 1.15 116.96 C1.58 117 1.86 116.89 2.34 116.65 C2.63 116.51 2.98 116.33          3.29 116.2 C4.56 115.7 5.03 116.26 5.75 116.56" class="st13"/></g></g></g><g id="group263-290" transform="translate(61.4372,-62.8622)"><title>Sheet.263</title><g id="group264-291" transform="translate(-1.4988E-15,-28.3465)"><title>Disconnect.93</title><g id="shape265-292" transform="translate(0.566929,1.42109E-14)"><title>Sheet.265</title><rect x="0" y="111.301" width="1.88976" height="5.66929" class="st12"/></g><g id="shape266-294" transform="translate(117.808,130.463) rotate(99.4623)"><title>Sheet.266</title><path d="M0 116.56 C0.15 116.76 0.72 116.93 1.15 116.96 C1.58 117 1.86 116.89 2.34 116.65 C2.63 116.51 2.98 116.33          3.29 116.2 C4.56 115.7 5.03 116.26 5.75 116.56" class="st13"/></g><g id="shape267-297" transform="translate(115.918,130.463) rotate(99.4623)"><title>Sheet.267</title><path d="M0 116.56 C0.15 116.76 0.72 116.93 1.15 116.96 C1.58 117 1.86 116.89 2.34 116.65 C2.63 116.51 2.98 116.33          3.29 116.2 C4.56 115.7 5.03 116.26 5.75 116.56" class="st13"/></g></g><g id="group268-300"><title>Disconnect.97</title><g id="shape269-301" transform="translate(0.566929,1.42109E-14)"><title>Sheet.269</title><rect x="0" y="111.301" width="1.88976" height="5.66929" class="st12"/></g><g id="shape270-303" transform="translate(117.808,130.463) rotate(99.4623)"><title>Sheet.270</title><path d="M0 116.56 C0.15 116.76 0.72 116.93 1.15 116.96 C1.58 117 1.86 116.89 2.34 116.65 C2.63 116.51 2.98 116.33          3.29 116.2 C4.56 115.7 5.03 116.26 5.75 116.56" class="st13"/></g><g id="shape271-306" transform="translate(115.918,130.463) rotate(99.4623)"><title>Sheet.271</title><path d="M0 116.56 C0.15 116.76 0.72 116.93 1.15 116.96 C1.58 117 1.86 116.89 2.34 116.65 C2.63 116.51 2.98 116.33          3.29 116.2 C4.56 115.7 5.03 116.26 5.75 116.56" class="st13"/></g></g></g><g id="shape272-309" transform="translate(125.524,-65.6968)"><title>Sheet.272</title><desc>CECO</desc><rect x="0" y="88.624" width="51.0236" height="28.3465" class="st8"/><text x="13.96" y="105.2" class="st4">CECO</text></g><g id="group273-312" transform="translate(182.217,-57.1929)"><title>Sheet.273</title><g id="shape274-313"><title>Sheet.274</title><path d="M0 111.3 L0 116.97 L11.34 116.97 L0 111.3 Z" class="st9"/></g><g id="shape275-315"><title>Sheet.275</title><path d="M0 111.3 L0 116.97 L11.34 116.97 L0 111.3 Z" class="st10"/><path d="M0 111.3 L0 116.97 L11.34 116.97" class="st11"/></g></g><g id="shape276-318" transform="translate(193.556,-51.5236)"><title>Sheet.276</title><desc>OFR</desc><rect x="0" y="105.632" width="48.189" height="11.3386" class="st8"/><text x="2" y="113.7" class="st4">OFR</text></g><g id="group277-321" transform="translate(119.855,-57.1929)"><title>Sheet.277</title><g id="shape278-322"><title>Sheet.278</title><path d="M0 111.3 L0 116.97 L11.34 116.97 L0 111.3 Z" class="st9"/></g><g id="shape279-324"><title>Sheet.279</title><path d="M0 111.3 L0 116.97 L11.34 116.97 L0 111.3 Z" class="st10"/><path d="M0 111.3 L0 116.97 L11.34 116.97" class="st11"/></g></g><g id="shape280-327" transform="translate(131.194,-51.5236)"><title>Sheet.280</title><desc>OFO</desc><rect x="0" y="105.632" width="48.189" height="11.3386" class="st8"/><text x="2" y="113.7" class="st4">OFO</text></g><g id="shape16-330" transform="translate(295.603,-94.0433)"><title>Sheet.16</title><desc>26</desc><text x="1.22" y="113.7" class="st4">26</text></g></g></svg>