<?xml version="1.0" encoding="UTF-8" standalone="no"?><!-- Fixed up by svgfix.xsl 1.4  --><!-- Generated by Microsoft Visio, SVG Export ID_PFR0_EL1.svg ARM -->
<!DOCTYPE svg
  PUBLIC "-//W3C//DTD SVG 1.0//EN" "http://www.w3.org/TR/2001/REC-SVG-20010904/DTD/svg10.dtd">
<svg xmlns:xlink="http://www.w3.org/1999/xlink" xmlns="http://www.w3.org/2000/svg" xmlns:ev="http://www.w3.org/2001/xml-events" width="516.149" height="129.504" viewBox="0 0 387.112 97.128" xml:space="preserve" color-interpolation-filters="sRGB" class="st11" preserveAspectRatio="xMidYMid meet" zoomAndPan="magnify" version="1.1" contentScriptType="application/ecmascript" contentStyleType="text/css"><style type="text/css" xml:space="preserve"><![CDATA[
	
		.st1 {fill:#000000;font-family:Arial,Helvetica,sans-serif;font-size:0.666664em}
		.st2 {fill:#eed9b3;stroke:none;stroke-linecap:round;stroke-linejoin:round;stroke-width:0.2px}
		.st3 {fill:none;stroke:none;stroke-linecap:round;stroke-linejoin:round;stroke-width:0.2px}
		.st4 {fill:none;visibility:hidden}
		.st5 {stroke:#000000;stroke-linecap:butt;stroke-width:0.8px}
		.st6 {stroke:#000000;stroke-dasharray:0.25,0.5;stroke-linecap:butt;stroke-width:0.25px}
		.st7 {fill:none;stroke:none;stroke-linecap:butt;stroke-width:0.499999px}
		.st8 {fill:#000000;font-family:Arial,Helvetica,sans-serif;font-size:0.533318em}
		.st9 {font-size:1.25003em}
		.st10 {fill:#eed9b3;stroke:none;stroke-linecap:round;stroke-linejoin:round;stroke-width:0.2px}
		.st11 {fill:none;fill-rule:evenodd;font-size:12px;overflow:visible;stroke-linecap:square;stroke-miterlimit:3}]]></style><g xmlns:v="http://schemas.microsoft.com/visio/2003/SVGExtensions/"><title>ARM</title><g id="shape1-1" transform="translate(12.1386,-74.2008)"><title>Sheet.1</title><desc>31</desc><text x="1.22" y="93.86" class="st1">31</text></g><g id="shape2-3" transform="translate(227.572,-74.2008)"><title>Sheet.2</title><desc>12</desc><text x="1.22" y="93.86" class="st1">12</text></g><g id="shape3-5" transform="translate(238.91,-74.2008)"><title>Sheet.3</title><desc>11</desc><text x="1.22" y="93.86" class="st1">11</text></g><g id="shape4-7" transform="translate(272.926,-74.2008)"><title>Sheet.4</title><desc>8</desc><text x="3.44" y="93.86" class="st1">8</text></g><g id="shape5-9" transform="translate(284.265,-74.2008)"><title>Sheet.5</title><desc>7</desc><text x="3.44" y="93.86" class="st1">7</text></g><g id="shape6-11" transform="translate(363.635,-74.2008)"><title>Sheet.6</title><desc>0</desc><text x="3.44" y="93.86" class="st1">0</text></g><g id="shape7-13" transform="translate(57.4929,-45.8543)"><title>Sheet.7</title><rect x="0" y="68.7815" width="90.7087" height="28.3465" class="st2"/></g><g id="shape8-15" transform="translate(238.91,-45.8543)"><title>Sheet.8</title><desc>State2</desc><rect x="0" y="68.7815" width="45.3543" height="28.3465" class="st3"/><text x="11.11" y="85.35" class="st1">State2</text></g><g id="shape9-18" transform="translate(284.265,-45.8543)"><title>Sheet.9</title><desc>State1</desc><rect x="0" y="68.7815" width="45.3543" height="28.3465" class="st3"/><text x="11.11" y="85.35" class="st1">State1</text></g><g id="shape10-21" transform="translate(12.1386,-45.8543)"><title>Sheet.10</title><rect x="0" y="68.7815" width="362.835" height="28.3465" class="st4"/><rect x="0" y="68.7815" width="362.835" height="28.3465" class="st5"/></g><g id="shape11-24" transform="translate(238.91,-45.8543)"><title>Sheet.11</title><path d="M0 68.78 L0 97.13" class="st5"/></g><g id="shape12-27" transform="translate(284.265,-45.8543)"><title>Sheet.12</title><path d="M0 68.78 L0 97.13" class="st5"/></g><g id="shape13-30" transform="translate(426.747,11.5886) rotate(90)"><title>Signal 0</title><path d="M0 97.13 L11.34 97.13" class="st6"/></g><g id="shape14-33" transform="translate(381.393,11.5886) rotate(90)"><title>Signal 0.102</title><path d="M0 97.13 L11.34 97.13" class="st6"/></g><g id="shape15-36" transform="translate(336.038,11.5886) rotate(90)"><title>Signal 0.103</title><path d="M0 97.13 L11.34 97.13" class="st6"/></g><g id="shape16-39" transform="translate(290.684,11.5886) rotate(90)"><title>Signal 0.104</title><path d="M0 97.13 L11.34 97.13" class="st6"/></g><g id="shape17-42" transform="translate(245.33,11.5886) rotate(90)"><title>Signal 0.105</title><path d="M0 97.13 L11.34 97.13" class="st6"/></g><g id="shape18-45" transform="translate(199.975,11.5886) rotate(90)"><title>Signal 0.106</title><path d="M0 97.13 L11.34 97.13" class="st6"/></g><g id="shape19-48" transform="translate(154.621,11.5886) rotate(90)"><title>Signal 0.107</title><path d="M0 97.13 L11.34 97.13" class="st6"/></g><g id="shape20-51" transform="translate(109.267,11.5886) rotate(90)"><title>Signal 0.108</title><path d="M0 97.13 L11.34 97.13" class="st6"/></g><g id="shape21-54" transform="translate(472.101,11.5886) rotate(90)"><title>Signal 0.109</title><path d="M0 97.13 L11.34 97.13" class="st6"/></g><g id="shape22-57" transform="translate(182.217,-74.2008)"><title>32-bit register.213</title><desc>16</desc><text x="1.22" y="93.86" class="st1">16</text></g><g id="shape23-59" transform="translate(193.556,-74.2008)"><title>32-bit register.214</title><desc>15</desc><text x="1.22" y="93.86" class="st1">15</text></g><g id="shape24-61" transform="translate(318.28,-74.2008)"><title>32-bit register.215</title><desc>4</desc><text x="3.44" y="93.86" class="st1">4</text></g><g id="shape25-63" transform="translate(329.619,-74.2008)"><title>32-bit register.216</title><desc>3</desc><text x="3.44" y="93.86" class="st1">3</text></g><g id="shape26-65" transform="translate(329.619,-45.8543)"><title>Sheet.26</title><path d="M0 68.78 L0 97.13" class="st5"/></g><g id="shape27-68" transform="translate(193.556,-45.8543)"><title>Sheet.27</title><path d="M0 68.78 L0 97.13" class="st5"/></g><g id="shape28-71" transform="translate(329.619,-45.8543)"><title>Sheet.28</title><desc>State0</desc><rect x="0" y="68.7815" width="45.3543" height="28.3465" class="st3"/><text x="11.11" y="85.35" class="st1">State0</text></g><g id="shape29-74" transform="translate(193.556,-45.8543)"><title>Sheet.29</title><desc>State3</desc><rect x="0" y="68.7815" width="45.3543" height="28.3465" class="st3"/><text x="11.11" y="85.35" class="st1">State3</text></g><g id="shape30-77" transform="translate(46.1543,-74.2008)"><title>Sheet.30</title><desc>28</desc><text x="1.22" y="93.86" class="st1">28</text></g><g id="shape31-79" transform="translate(12.1386,-45.8543)"><title>Sheet.31</title><desc>RAS</desc><rect x="0" y="68.7815" width="45.3543" height="28.3465" class="st3"/><text x="14.45" y="85.35" class="st1">RAS</text></g><g id="shape32-82" transform="translate(57.4929,-45.8543)"><title>Sheet.32</title><path d="M0 68.78 L0 97.13" class="st5"/></g><g id="shape33-85" transform="translate(57.4929,-74.2008)"><title>Sheet.33</title><desc>27</desc><text x="1.22" y="93.86" class="st1">27</text></g><g id="group36-87" transform="translate(12.1386,-11.8386)"><title>Sheet.36</title><g id="shape37-88" transform="translate(11.3386,0)"><title>Rectangle No Fill No Fill.116</title><desc>res0</desc><rect x="0" y="85.7894" width="22.6772" height="11.3386" class="st7"/><text x="3.07" y="93.86" class="st8">RES<tspan class="st9">0</tspan></text></g><g id="shape38-92"><title>Graphic.117</title><rect x="0" y="85.7894" width="11.3386" height="11.3386" class="st10"/></g></g><g id="shape39-94" transform="translate(148.202,-45.8543)"><title>Sheet.39</title><path d="M0 68.78 L0 97.13" class="st5"/></g><g id="shape40-97" transform="translate(148.202,-74.2008)"><title>32-bit register.40</title><desc>19</desc><text x="1.22" y="93.86" class="st1">19</text></g><g id="shape41-99" transform="translate(136.863,-74.2008)"><title>32-bit register.41</title><desc>20</desc><text x="1.22" y="93.86" class="st1">20</text></g><g id="shape42-101" transform="translate(148.202,-45.8543)"><title>Sheet.42</title><desc>CSV2</desc><rect x="0" y="68.7815" width="45.3543" height="28.3465" class="st3"/><text x="12.23" y="85.35" class="st1">CSV2</text></g></g></svg>