<?xml version="1.0" encoding="UTF-8" standalone="no"?><!-- Fixed up by svgfix.xsl 1.4  --><!-- Generated by Microsoft Visio 11.0, SVG Export, v1.0 cpupselr_bit_assignments.svg ARM -->
<!DOCTYPE svg
  PUBLIC "-//W3C//DTD SVG 1.0//EN" "http://www.w3.org/TR/2001/REC-SVG-20010904/DTD/svg10.dtd">
<svg xmlns:xlink="http://www.w3.org/1999/xlink" xmlns="http://www.w3.org/2000/svg" xmlns:ev="http://www.w3.org/2001/xml-events" width="516.149" height="84.55" viewBox="0 0 387.112 63.412" xml:space="preserve" color-interpolation-filters="sRGB" class="st6" preserveAspectRatio="xMidYMid meet" zoomAndPan="magnify" version="1.0" contentScriptType="text/ecmascript" contentStyleType="text/css"><style type="text/css" xml:space="preserve"><![CDATA[
	
		.st1 {fill:#000000;font-family:Arial,Helvetica,sans-serif;font-size:0.666664em}
		.st2 {fill:none;stroke:none;stroke-linecap:butt;stroke-width:0.5px}
		.st3 {fill:#ffffff;visibility:hidden}
		.st4 {stroke:#000000;stroke-linecap:butt;stroke-width:0.8px}
		.st5 {stroke:#000000;stroke-dasharray:0.25,1;stroke-linecap:butt;stroke-width:0.25px}
		.st6 {fill:none;fill-rule:evenodd;font-size:12px;overflow:visible;stroke-linecap:square;stroke-miterlimit:3}]]></style><g xmlns:v="http://schemas.microsoft.com/visio/2003/SVGExtensions/"><title content="structured text">ARM</title><g id="shape1-1" transform="translate(363.635,-40.485)"><title content="structured text">Sheet.1</title><desc content="structured text">0</desc><text x="3.44" y="60.14" class="st1">0</text></g><g id="shape2-3" transform="translate(12.1386,-12.1386)"><title content="structured text">Sheet.2</title><desc content="structured text">Reserved</desc><rect x="0" y="35.0658" width="362.835" height="28.3465" class="st2"/><text x="164.3" y="51.64" class="st1">Reserved</text></g><g id="shape3-6" transform="translate(12.1386,-40.485)"><title content="structured text">Bit31</title><desc content="structured text">31</desc><text x="1.22" y="60.14" class="st1">31</text></g><g id="shape4-8" transform="translate(12.1386,-12.1386)"><title content="structured text">MainOutline+Bit00.91</title><rect x="0" y="35.0658" width="362.835" height="28.3465" class="st3"/><rect x="0" y="35.0658" width="362.835" height="28.3465" class="st4"/></g><g id="shape5-11" transform="translate(211.614,11.5886) rotate(90)"><title content="structured text">Signal 0.92</title><path d="M0 63.41 L11.34 63.41" class="st5"/></g><g id="shape6-14" transform="translate(370.354,11.5886) rotate(90)"><title content="structured text">Signal 0.93</title><path d="M0 63.41 L11.34 63.41" class="st5"/></g><g id="shape7-17" transform="translate(347.677,11.5886) rotate(90)"><title content="structured text">Signal 0.94</title><path d="M0 63.41 L11.34 63.41" class="st5"/></g><g id="shape8-20" transform="translate(325,11.5886) rotate(90)"><title content="structured text">Signal 0.95</title><path d="M0 63.41 L11.34 63.41" class="st5"/></g><g id="shape9-23" transform="translate(302.322,11.5886) rotate(90)"><title content="structured text">Signal 0.96</title><path d="M0 63.41 L11.34 63.41" class="st5"/></g><g id="shape10-26" transform="translate(279.645,11.5886) rotate(90)"><title content="structured text">Signal 0.97</title><path d="M0 63.41 L11.34 63.41" class="st5"/></g><g id="shape11-29" transform="translate(234.291,11.5886) rotate(90)"><title content="structured text">Signal 0.98</title><path d="M0 63.41 L11.34 63.41" class="st5"/></g><g id="shape12-32" transform="translate(256.968,11.5886) rotate(90)"><title content="structured text">Signal 0.99</title><path d="M0 63.41 L11.34 63.41" class="st5"/></g><g id="shape13-35" transform="translate(438.385,11.5886) rotate(90)"><title content="structured text">Signal 0.100</title><path d="M0 63.41 L11.34 63.41" class="st5"/></g><g id="shape14-38" transform="translate(415.708,11.5886) rotate(90)"><title content="structured text">Signal 0.288</title><path d="M0 63.41 L11.34 63.41" class="st5"/></g><g id="shape15-41" transform="translate(393.031,11.5886) rotate(90)"><title content="structured text">Signal 0.290</title><path d="M0 63.41 L11.34 63.41" class="st5"/></g><g id="shape25-44" transform="translate(188.937,11.5886) rotate(90)"><title content="structured text">Signal 0.87</title><path d="M0 63.41 L11.34 63.41" class="st5"/></g><g id="shape26-47" transform="translate(166.259,11.5886) rotate(90)"><title content="structured text">Signal 0.88</title><path d="M0 63.41 L11.34 63.41" class="st5"/></g><g id="shape27-50" transform="translate(143.582,11.5886) rotate(90)"><title content="structured text">Signal 0.89</title><path d="M0 63.41 L11.34 63.41" class="st5"/></g><g id="shape28-53" transform="translate(120.905,11.5886) rotate(90)"><title content="structured text">Signal 0.90</title><path d="M0 63.41 L11.34 63.41" class="st5"/></g><g id="shape29-56" transform="translate(75.5508,11.5886) rotate(90)"><title content="structured text">Signal 0.101</title><path d="M0 63.41 L11.34 63.41" class="st5"/></g><g id="shape30-59" transform="translate(98.228,11.5886) rotate(90)"><title content="structured text">Signal 0.105</title><path d="M0 63.41 L11.34 63.41" class="st5"/></g></g></svg>