<?xml version="1.0" encoding="UTF-8" standalone="no"?><!-- Fixed up by svgfix.xsl 1.4  --><!-- Generated by Microsoft Visio 11.0, SVG Export, v1.0 cpupwrctlr_el1_ares_lowRes.svg ARM -->
<!DOCTYPE svg
  PUBLIC "-//W3C//DTD SVG 1.0//EN" "http://www.w3.org/TR/2001/REC-SVG-20010904/DTD/svg10.dtd">
<svg xmlns:xlink="http://www.w3.org/1999/xlink" xmlns="http://www.w3.org/2000/svg" xmlns:ev="http://www.w3.org/2001/xml-events" width="516.149" height="155.961" viewBox="0 0 387.112 116.97" xml:space="preserve" color-interpolation-filters="sRGB" class="st10" preserveAspectRatio="xMidYMid meet" zoomAndPan="magnify" version="1.0" contentScriptType="text/ecmascript" contentStyleType="text/css"><style type="text/css" xml:space="preserve"><![CDATA[
	
		.st1 {fill:#eed9b3;stroke:none;stroke-linecap:round;stroke-linejoin:round;stroke-width:0.2px}
		.st2 {fill:#000000;font-family:Arial,Helvetica,sans-serif;font-size:0.666664em}
		.st3 {fill:none;visibility:hidden}
		.st4 {stroke:#000000;stroke-linecap:butt;stroke-width:0.8px}
		.st5 {stroke:#000000;stroke-dasharray:0.25,0.5;stroke-linecap:butt;stroke-width:0.25px}
		.st6 {stroke:#000000;stroke-linecap:butt;stroke-width:0.5px}
		.st7 {fill:none;stroke:none;stroke-linecap:butt;stroke-width:0.5px}
		.st8 {fill:none;stroke:none;stroke-linecap:butt;stroke-width:0.499999px}
		.st9 {fill:#eed9b3;stroke:none;stroke-linecap:round;stroke-linejoin:round;stroke-width:0.2px}
		.st10 {fill:none;fill-rule:evenodd;font-size:12px;overflow:visible;stroke-linecap:square;stroke-miterlimit:3}
		.st11 {font-size:1.25003em}]]></style><g xmlns:v="http://schemas.microsoft.com/visio/2003/SVGExtensions/"><title content="structured text">ARM</title><g id="shape33-1" transform="translate(329.619,-65.6968)"><title content="structured text">32-bit register.33</title><rect x="0" y="88.624" width="34.0157" height="28.3465" class="st1"/></g><g id="shape50-3" transform="translate(12.1386,-65.6968)"><title content="structured text">32-bit register.14</title><rect x="0" y="88.624" width="249.449" height="28.3465" class="st1"/></g><g id="shape2-5" transform="translate(12.1386,-94.0433)"><title content="structured text">Sheet.2</title><desc content="structured text">31</desc><text x="1.22" y="113.7" class="st2">31</text></g><g id="shape6-7" transform="translate(284.265,-94.0433)"><title content="structured text">Sheet.6</title><desc content="structured text">7</desc><text x="3.44" y="113.7" class="st2">7</text></g><g id="shape10-9" transform="translate(295.603,-94.0433)"><title content="structured text">Sheet.10</title><desc content="structured text">6</desc><text x="3.44" y="113.7" class="st2">6</text></g><g id="shape11-11" transform="translate(250.249,-94.0433)"><title content="structured text">Sheet.11</title><desc content="structured text">10</desc><text x="1.22" y="113.7" class="st2">10</text></g><g id="shape12-13" transform="translate(261.587,-94.0433)"><title content="structured text">Sheet.12</title><desc content="structured text">9</desc><text x="3.44" y="113.7" class="st2">9</text></g><g id="shape13-15" transform="translate(363.635,-94.0433)"><title content="structured text">Sheet.13</title><desc content="structured text">0</desc><text x="3.44" y="113.7" class="st2">0</text></g><g id="shape16-17" transform="translate(12.1386,-65.6968)"><title content="structured text">Sheet.16</title><rect x="0" y="88.624" width="362.835" height="28.3465" class="st3"/><rect x="0" y="88.624" width="362.835" height="28.3465" class="st4"/></g><g id="shape19-20" transform="translate(363.635,-65.6968)"><title content="structured text">Sheet.19</title><path d="M0 88.62 L0 116.97" class="st4"/></g><g id="shape21-23" transform="translate(295.603,-65.6968)"><title content="structured text">Sheet.21</title><path d="M0 88.62 L0 116.97" class="st4"/></g><g id="shape22-26" transform="translate(329.619,-65.6968)"><title content="structured text">Sheet.22</title><path d="M0 88.62 L0 116.97" class="st4"/></g><g id="shape23-29" transform="translate(261.587,-65.6968)"><title content="structured text">Sheet.23</title><path d="M0 88.62 L0 116.97" class="st4"/></g><g id="shape24-32" transform="translate(446.589,11.5886) rotate(90)"><title content="structured text">Signal 0</title><path d="M0 116.97 L11.34 116.97" class="st5"/></g><g id="shape25-35" transform="translate(401.235,11.5886) rotate(90)"><title content="structured text">Signal 0.102</title><path d="M0 116.97 L11.34 116.97" class="st5"/></g><g id="shape26-38" transform="translate(355.881,11.5886) rotate(90)"><title content="structured text">Signal 0.103</title><path d="M0 116.97 L11.34 116.97" class="st5"/></g><g id="shape27-41" transform="translate(310.526,11.5886) rotate(90)"><title content="structured text">Signal 0.104</title><path d="M0 116.97 L11.34 116.97" class="st5"/></g><g id="shape28-44" transform="translate(265.172,11.5886) rotate(90)"><title content="structured text">Signal 0.105</title><path d="M0 116.97 L11.34 116.97" class="st5"/></g><g id="shape29-47" transform="translate(219.818,11.5886) rotate(90)"><title content="structured text">Signal 0.106</title><path d="M0 116.97 L11.34 116.97" class="st5"/></g><g id="shape30-50" transform="translate(174.463,11.5886) rotate(90)"><title content="structured text">Signal 0.107</title><path d="M0 116.97 L11.34 116.97" class="st5"/></g><g id="shape31-53" transform="translate(129.109,11.5886) rotate(90)"><title content="structured text">Signal 0.108</title><path d="M0 116.97 L11.34 116.97" class="st5"/></g><g id="shape32-56" transform="translate(491.944,11.5886) rotate(90)"><title content="structured text">Signal 0.109</title><path d="M0 116.97 L11.34 116.97" class="st5"/></g><g id="shape35-59" transform="translate(357.965,-23.1772)"><title content="structured text">Sheet.35</title><path d="M11.34 77.29 L11.34 116.97 L0 116.97" class="st6"/></g><g id="shape36-62" transform="translate(276.115,-17.5079)"><title content="structured text">Sheet.36</title><desc content="structured text">CORE_PWRDN_EN</desc><rect x="0" y="105.632" width="81.8504" height="11.3386" class="st7"/><text x="6.51" y="113.7" class="st2">CORE_PWRDN_EN</text></g><g id="shape1-65" transform="translate(318.28,-94.0433)"><title content="structured text">Sheet.1</title><desc content="structured text">4</desc><text x="3.44" y="113.7" class="st2">4</text></g><g id="shape3-67" transform="translate(301.272,-34.5157)"><title content="structured text">Sheet.3</title><path d="M11.34 88.62 L11.34 116.97 L0 116.97" class="st6"/></g><g id="shape4-70" transform="translate(219.422,-28.8465)"><title content="structured text">Sheet.4</title><desc content="structured text">WFI_RET_CTRL</desc><rect x="0" y="105.632" width="81.8504" height="11.3386" class="st7"/><text x="19.4" y="113.7" class="st2">WFI_RET_CTRL</text></g><g id="shape5-73" transform="translate(267.257,-45.8543)"><title content="structured text">Sheet.5</title><path d="M11.34 99.96 L11.34 116.97 L0 116.97" class="st6"/></g><g id="shape14-76" transform="translate(185.406,-40.185)"><title content="structured text">Sheet.14</title><desc content="structured text">WFE_RET_CTRL</desc><rect x="0" y="105.632" width="81.8504" height="11.3386" class="st7"/><text x="16.29" y="113.7" class="st2">WFE_RET_CTRL</text></g><g id="shape17-79" transform="translate(22.5786,-11.8386)"><title content="structured text">Rectangle No Fill No Fill.116</title><desc content="structured text">res0</desc><rect x="0" y="105.632" width="19.8425" height="11.3386" class="st8"/><text x="3.28" y="113.7" class="st2">RES<tspan class="st11">0</tspan></text></g><g id="shape18-82" transform="translate(12.1386,-11.8386)"><title content="structured text">Graphic.117</title><rect x="0" y="105.632" width="10.44" height="11.3386" class="st9"/></g><g id="shape34-84" transform="translate(329.619,-94.0433)"><title content="structured text">Sheet.34</title><desc content="structured text">3</desc><text x="3.44" y="113.7" class="st2">3</text></g><g id="shape37-86" transform="translate(352.296,-94.0433)"><title content="structured text">Sheet.37</title><desc content="structured text">1</desc><text x="3.44" y="113.7" class="st2">1</text></g></g></svg>